<?xml version="1.0" encoding="utf-8"?>
<!-- Generator: Adobe Illustrator 16.0.0, SVG Export Plug-In . SVG Version: 6.00 Build 0)  -->
<!DOCTYPE svg PUBLIC "-//W3C//DTD SVG 1.1//EN" "http://www.w3.org/Graphics/SVG/1.1/DTD/svg11.dtd">
<svg version="1.1" id="Default" xmlns="http://www.w3.org/2000/svg" xmlns:xlink="http://www.w3.org/1999/xlink" x="0px" y="0px"
	  viewBox="0 0 300 300" enable-background="new 0 0 300 300" xml:space="preserve">
<rect fill="#0C0C0C" width="300" height="300"/>
<g>
	<path fill="#FFFFFF" d="M123.601,255.01c-23.455-50.3-46.909-100.598-70.364-150.897c-2.129-4.567-2.235-8.374-0.363-13.053
		c2.058-5.14,4.115-10.28,6.174-15.421c0.89-2.227,4.012-2.313,5.024-0.139c29.378,63,58.755,126,88.133,189
		c-4.57,0-9.14,0-13.708,0C132.109,264.5,126.301,260.799,123.601,255.01z"/>
	<path fill="#FFFFFF" d="M191.545,264.5c-10.922,0-15.243-2.754-19.858-12.652C138.663,181.03,105.64,110.213,72.618,39.396
		c-0.847-1.815,0.479-3.896,2.483-3.896c32.901,0,65.802,0,98.702,0c39.052,0,71.502,30.103,74.429,69.043
		c0.294,3.924,0.295,7.872-0.009,11.795c-0.158,2.022-0.397,4.037-0.72,6.041c-0.328,2.033-0.743,4.053-1.242,6.051
		c-0.507,2.021-1.103,4.022-1.786,5.991c-0.69,1.986-1.472,3.941-2.345,5.855c-1.753,3.852-3.871,7.539-6.334,10.983
		c-2.457,3.434-5.256,6.626-8.352,9.499c-1.679,1.56-3.444,3.024-5.284,4.392c-2.205,1.635-4.515,3.13-6.892,4.506
		c-2.458,1.422-4.985,2.718-7.564,3.903c-2.645,1.22-5.342,2.325-8.075,3.33c-2.778,1.024-5.593,1.948-8.433,2.783
		c-0.571,0.169-1.145,0.333-1.717,0.492c-2.583,0.728-5.313-0.525-6.446-2.958c-2.508-5.377-5.016-10.756-7.523-16.134
		c12.02-2.802,27.005-7.239,36.736-16.104c10.315-9.396,14.743-23.113,14.256-36.588c-1.027-28.429-24.199-50.967-52.699-50.967
		c-22.87,0-45.737,0-68.606,0c32.189,69.029,64.378,138.058,96.567,207.087C198.356,264.5,194.951,264.5,191.545,264.5z"/>
</g>
</svg>
