<?xml version="1.0" standalone="no"?>
<!DOCTYPE svg PUBLIC "-//W3C//DTD SVG 20010904//EN"
 "http://www.w3.org/TR/2001/REC-SVG-20010904/DTD/svg10.dtd">
<svg version="1.0" xmlns="http://www.w3.org/2000/svg"
 width="300.000000pt" height="300.000000pt" viewBox="0 0 300.000000 300.000000"
 preserveAspectRatio="xMidYMid meet">
<metadata>
Created by potrace 1.11, written by Peter Selinger 2001-2013
</metadata>
<g transform="translate(0.000000,300.000000) scale(0.100000,-0.100000)"
fill="#000000" stroke="none">
<path d="M718 2690 c-12 -4 -15 -113 -17 -660 -1 -360 -3 -695 -5 -745 -4
-124 23 -241 69 -304 15 -22 99 -105 221 -219 60 -57 188 -182 285 -278 97
-96 178 -174 181 -174 3 0 6 163 6 362 1 199 4 363 7 366 2 2 17 5 32 7 155
13 235 33 343 86 213 102 381 302 434 514 23 90 27 120 28 209 2 265 -106 498
-305 659 -131 106 -323 171 -520 177 -182 4 -748 5 -759 0z m852 -125 c19 -3
62 -11 95 -16 33 -6 98 -29 144 -52 155 -76 285 -230 347 -412 37 -107 43
-273 13 -383 -67 -252 -270 -457 -512 -516 -72 -18 -169 -27 -186 -17 -5 4 -8
144 -8 356 2 249 -1 359 -10 385 -8 22 -43 64 -95 114 -101 96 -218 207 -405
385 -87 82 -141 141 -140 152 1 17 21 18 362 14 198 -2 376 -6 395 -10z"/>
</g>
</svg>
