<?xml version="1.0" encoding="utf-8"?>
<!-- Generator: Adobe Illustrator 19.1.0, SVG Export Plug-In . SVG Version: 6.00 Build 0)  -->
<svg version="1.1" xmlns="http://www.w3.org/2000/svg" xmlns:xlink="http://www.w3.org/1999/xlink" x="0px" y="0px" width="1400px"
	 height="1400px" viewBox="0 0 1400 1400" enable-background="new 0 0 1400 1400" xml:space="preserve">
<g id="BG">
	<linearGradient id="SVGID_1_" gradientUnits="userSpaceOnUse" x1="119.261" y1="119.261" x2="1098.6879" y2="1098.6879">
		<stop  offset="0" style="stop-color:#00C89A"/>
		<stop  offset="1" style="stop-color:#00846B"/>
	</linearGradient>
	<rect fill="url(#SVGID_1_)" width="1400" height="1400"/>
	<g opacity="0.22">
		<path opacity="0" fill="#006E5F" d="M1128.8,1343.1H314.3c-18.9,0-34.3-15.3-34.3-34.3V134.3c0-18.9,15.3-34.3,34.3-34.3h814.5
			c18.9,0,34.3,15.3,34.3,34.3v1174.5C1163.1,1327.7,1147.7,1343.1,1128.8,1343.1z"/>
		<path opacity="9.009009e-003" fill="#006D5E" d="M1128.4,1342.7H314.3c-19,0-34.3-15.4-34.3-34.3V134.3c0-19,15.4-34.3,34.3-34.3
			h814.1c18.9,0,34.3,15.4,34.3,34.3v1174.1C1162.7,1327.3,1147.3,1342.7,1128.4,1342.7z"/>
		<path opacity="1.801802e-002" fill="#006C5D" d="M1127.9,1342.3H314.4c-19,0-34.4-15.4-34.4-34.4V134.4c0-19,15.4-34.4,34.4-34.4
			h813.6c19,0,34.4,15.4,34.4,34.4v1173.6C1162.3,1326.9,1146.9,1342.3,1127.9,1342.3z"/>
		<path opacity="2.702703e-002" fill="#006B5D" d="M1127.5,1341.9H314.4c-19,0-34.4-15.4-34.4-34.4V134.4c0-19,15.4-34.4,34.4-34.4
			h813.1c19,0,34.4,15.4,34.4,34.4v1173.1C1161.9,1326.5,1146.5,1341.9,1127.5,1341.9z"/>
		<path opacity="3.603604e-002" fill="#006A5C" d="M1127.1,1341.5H314.4c-19,0-34.4-15.4-34.4-34.4V134.4c0-19,15.4-34.4,34.4-34.4
			h812.7c19,0,34.4,15.4,34.4,34.4v1172.7C1161.5,1326.1,1146.1,1341.5,1127.1,1341.5z"/>
		<path opacity="4.504504e-002" fill="#00695B" d="M1126.7,1341.1H314.5c-19,0-34.5-15.4-34.5-34.5V134.5c0-19,15.4-34.5,34.5-34.5
			h812.2c19,0,34.5,15.4,34.5,34.5v1172.2C1161.1,1325.7,1145.7,1341.1,1126.7,1341.1z"/>
		<path opacity="5.405406e-002" fill="#00685A" d="M1126.2,1340.7H314.5c-19.1,0-34.5-15.5-34.5-34.5V134.5
			c0-19.1,15.5-34.5,34.5-34.5h811.7c19.1,0,34.5,15.5,34.5,34.5v1171.7C1160.7,1325.3,1145.3,1340.7,1126.2,1340.7z"/>
		<path opacity="6.306306e-002" fill="#00675A" d="M1125.8,1340.4H314.6c-19.1,0-34.6-15.5-34.6-34.6V134.6
			c0-19.1,15.5-34.6,34.6-34.6h811.2c19.1,0,34.6,15.5,34.6,34.6v1171.2C1160.4,1324.9,1144.9,1340.4,1125.8,1340.4z"/>
		<path opacity="7.207207e-002" fill="#006659" d="M1125.4,1340H314.6c-19.1,0-34.6-15.5-34.6-34.6V134.6
			c0-19.1,15.5-34.6,34.6-34.6h810.8c19.1,0,34.6,15.5,34.6,34.6v1170.8C1160,1324.5,1144.5,1340,1125.4,1340z"/>
		<path opacity="8.108108e-002" fill="#006558" d="M1124.9,1339.6H314.6c-19.1,0-34.6-15.5-34.6-34.6V134.6
			c0-19.1,15.5-34.6,34.6-34.6h810.3c19.1,0,34.6,15.5,34.6,34.6v1170.3C1159.6,1324.1,1144.1,1339.6,1124.9,1339.6z"/>
		<path opacity="9.009009e-002" fill="#006457" d="M1124.5,1339.2H314.7c-19.2,0-34.7-15.5-34.7-34.7V134.7
			c0-19.2,15.5-34.7,34.7-34.7h809.8c19.2,0,34.7,15.5,34.7,34.7v1169.8C1159.2,1323.7,1143.7,1339.2,1124.5,1339.2z"/>
		<path opacity="9.909910e-002" fill="#006356" d="M1124.1,1338.8H314.7c-19.2,0-34.7-15.5-34.7-34.7V134.7
			c0-19.2,15.5-34.7,34.7-34.7h809.4c19.2,0,34.7,15.5,34.7,34.7v1169.4C1158.8,1323.3,1143.3,1338.8,1124.1,1338.8z"/>
		<path opacity="0.1081" fill="#006256" d="M1123.7,1338.4H314.8c-19.2,0-34.8-15.6-34.8-34.8V134.8c0-19.2,15.6-34.8,34.8-34.8
			h808.9c19.2,0,34.8,15.6,34.8,34.8v1168.9C1158.4,1322.9,1142.9,1338.4,1123.7,1338.4z"/>
		<path opacity="0.1171" fill="#006155" d="M1123.2,1338H314.8c-19.2,0-34.8-15.6-34.8-34.8V134.8c0-19.2,15.6-34.8,34.8-34.8h808.4
			c19.2,0,34.8,15.6,34.8,34.8v1168.4C1158,1322.4,1142.4,1338,1123.2,1338z"/>
		<path opacity="0.1261" fill="#006054" d="M1122.8,1337.6h-808c-19.2,0-34.8-15.6-34.8-34.8v-1168c0-19.2,15.6-34.8,34.8-34.8h808
			c19.2,0,34.8,15.6,34.8,34.8v1168C1157.6,1322,1142,1337.6,1122.8,1337.6z"/>
		<path opacity="0.1351" fill="#005F53" d="M1122.4,1337.2H314.9c-19.3,0-34.9-15.6-34.9-34.9V134.9c0-19.3,15.6-34.9,34.9-34.9
			h807.5c19.3,0,34.9,15.6,34.9,34.9v1167.5C1157.2,1321.6,1141.6,1337.2,1122.4,1337.2z"/>
		<path opacity="0.1441" fill="#005E53" d="M1121.9,1336.9h-807c-19.3,0-34.9-15.6-34.9-34.9v-1167c0-19.3,15.6-34.9,34.9-34.9h807
			c19.3,0,34.9,15.6,34.9,34.9v1167C1156.9,1321.2,1141.2,1336.9,1121.9,1336.9z"/>
		<path opacity="0.1532" fill="#005D52" d="M1121.5,1336.5H315c-19.3,0-35-15.7-35-35V135c0-19.3,15.7-35,35-35h806.6
			c19.3,0,35,15.7,35,35v1166.6C1156.5,1320.8,1140.8,1336.5,1121.5,1336.5z"/>
		<path opacity="0.1622" fill="#005C51" d="M1121.1,1336.1H315c-19.3,0-35-15.7-35-35V135c0-19.3,15.7-35,35-35h806.1
			c19.3,0,35,15.7,35,35v1166.1C1156.1,1320.4,1140.4,1336.1,1121.1,1336.1z"/>
		<path opacity="0.1712" fill="#005B50" d="M1120.7,1335.7H315c-19.4,0-35-15.7-35-35V135c0-19.4,15.7-35,35-35h805.6
			c19.4,0,35,15.7,35,35v1165.6C1155.7,1320,1140,1335.7,1120.7,1335.7z"/>
		<path opacity="0.1802" fill="#005A50" d="M1120.2,1335.3H315.1c-19.4,0-35.1-15.7-35.1-35.1V135.1c0-19.4,15.7-35.1,35.1-35.1
			h805.1c19.4,0,35.1,15.7,35.1,35.1v1165.1C1155.3,1319.6,1139.6,1335.3,1120.2,1335.3z"/>
		<path opacity="0.1892" fill="#00594F" d="M1119.8,1334.9H315.1c-19.4,0-35.1-15.7-35.1-35.1V135.1c0-19.4,15.7-35.1,35.1-35.1
			h804.7c19.4,0,35.1,15.7,35.1,35.1v1164.7C1154.9,1319.2,1139.2,1334.9,1119.8,1334.9z"/>
		<path opacity="0.1982" fill="#00584E" d="M1119.4,1334.5H315.2c-19.4,0-35.2-15.7-35.2-35.2V135.2c0-19.4,15.7-35.2,35.2-35.2
			h804.2c19.4,0,35.2,15.7,35.2,35.2v1164.2C1154.5,1318.8,1138.8,1334.5,1119.4,1334.5z"/>
		<path opacity="0.2072" fill="#00574D" d="M1118.9,1334.1H315.2c-19.4,0-35.2-15.8-35.2-35.2V135.2c0-19.4,15.8-35.2,35.2-35.2
			h803.7c19.4,0,35.2,15.8,35.2,35.2v1163.7C1154.1,1318.4,1138.4,1334.1,1118.9,1334.1z"/>
		<path opacity="0.2162" fill="#00564C" d="M1118.5,1333.8H315.2c-19.5,0-35.2-15.8-35.2-35.2V135.2c0-19.5,15.8-35.2,35.2-35.2
			h803.3c19.5,0,35.2,15.8,35.2,35.2v1163.3C1153.8,1318,1138,1333.8,1118.5,1333.8z"/>
		<path opacity="0.2252" fill="#00554C" d="M1118.1,1333.4H315.3c-19.5,0-35.3-15.8-35.3-35.3V135.3c0-19.5,15.8-35.3,35.3-35.3
			h802.8c19.5,0,35.3,15.8,35.3,35.3v1162.8C1153.4,1317.6,1137.6,1333.4,1118.1,1333.4z"/>
		<path opacity="0.2342" fill="#00544B" d="M1117.7,1333H315.3c-19.5,0-35.3-15.8-35.3-35.3V135.3c0-19.5,15.8-35.3,35.3-35.3h802.3
			c19.5,0,35.3,15.8,35.3,35.3v1162.3C1153,1317.2,1137.2,1333,1117.7,1333z"/>
		<path opacity="0.2432" fill="#00534A" d="M1117.2,1332.6H315.4c-19.5,0-35.4-15.8-35.4-35.4V135.4c0-19.5,15.8-35.4,35.4-35.4
			h801.9c19.5,0,35.4,15.8,35.4,35.4v1161.9C1152.6,1316.8,1136.8,1332.6,1117.2,1332.6z"/>
		<path opacity="0.2523" fill="#005249" d="M1116.8,1332.2H315.4c-19.6,0-35.4-15.9-35.4-35.4V135.4c0-19.6,15.9-35.4,35.4-35.4
			h801.4c19.6,0,35.4,15.9,35.4,35.4v1161.4C1152.2,1316.4,1136.4,1332.2,1116.8,1332.2z"/>
		<path opacity="0.2613" fill="#005149" d="M1116.4,1331.8H315.4c-19.6,0-35.4-15.9-35.4-35.4V135.4c0-19.6,15.9-35.4,35.4-35.4
			h800.9c19.6,0,35.4,15.9,35.4,35.4v1160.9C1151.8,1315.9,1135.9,1331.8,1116.4,1331.8z"/>
		<path opacity="0.2703" fill="#005048" d="M1115.9,1331.4H315.5c-19.6,0-35.5-15.9-35.5-35.5V135.5c0-19.6,15.9-35.5,35.5-35.5
			h800.5c19.6,0,35.5,15.9,35.5,35.5v1160.5C1151.4,1315.5,1135.5,1331.4,1115.9,1331.4z"/>
		<path opacity="0.2793" fill="#004F47" d="M1115.5,1331h-800c-19.6,0-35.5-15.9-35.5-35.5v-1160c0-19.6,15.9-35.5,35.5-35.5h800
			c19.6,0,35.5,15.9,35.5,35.5v1160C1151,1315.1,1135.1,1331,1115.5,1331z"/>
		<path opacity="0.2883" fill="#004E46" d="M1115.1,1330.7H315.6c-19.6,0-35.6-15.9-35.6-35.6V135.6c0-19.6,15.9-35.6,35.6-35.6
			h799.5c19.6,0,35.6,15.9,35.6,35.6v1159.5C1150.7,1314.7,1134.7,1330.7,1115.1,1330.7z"/>
		<path opacity="0.2973" fill="#004D45" d="M1114.7,1330.3h-799c-19.7,0-35.6-15.9-35.6-35.6v-1159c0-19.7,15.9-35.6,35.6-35.6h799
			c19.7,0,35.6,15.9,35.6,35.6v1159C1150.3,1314.3,1134.3,1330.3,1114.7,1330.3z"/>
		<path opacity="0.3063" fill="#004C45" d="M1114.2,1329.9H315.7c-19.7,0-35.7-16-35.7-35.7V135.7c0-19.7,16-35.7,35.7-35.7h798.6
			c19.7,0,35.7,16,35.7,35.7v1158.6C1149.9,1313.9,1133.9,1329.9,1114.2,1329.9z"/>
		<path opacity="0.3153" fill="#004B44" d="M1113.8,1329.5H315.7c-19.7,0-35.7-16-35.7-35.7V135.7c0-19.7,16-35.7,35.7-35.7h798.1
			c19.7,0,35.7,16,35.7,35.7v1158.1C1149.5,1313.5,1133.5,1329.5,1113.8,1329.5z"/>
		<path opacity="0.3243" fill="#004A43" d="M1113.4,1329.1H315.7c-19.7,0-35.7-16-35.7-35.7V135.7c0-19.7,16-35.7,35.7-35.7h797.6
			c19.7,0,35.7,16,35.7,35.7v1157.6C1149.1,1313.1,1133.1,1329.1,1113.4,1329.1z"/>
		<path opacity="0.3333" fill="#004942" d="M1112.9,1328.7H315.8c-19.8,0-35.8-16-35.8-35.8V135.8c0-19.8,16-35.8,35.8-35.8h797.2
			c19.8,0,35.8,16,35.8,35.8v1157.2C1148.7,1312.7,1132.7,1328.7,1112.9,1328.7z"/>
		<path opacity="0.3423" fill="#004842" d="M1112.5,1328.3H315.8c-19.8,0-35.8-16-35.8-35.8V135.8c0-19.8,16-35.8,35.8-35.8h796.7
			c19.8,0,35.8,16,35.8,35.8v1156.7C1148.3,1312.3,1132.3,1328.3,1112.5,1328.3z"/>
		<path opacity="0.3514" fill="#004741" d="M1112.1,1327.9H315.9c-19.8,0-35.9-16.1-35.9-35.9V135.9c0-19.8,16.1-35.9,35.9-35.9
			h796.2c19.8,0,35.9,16.1,35.9,35.9v1156.2C1147.9,1311.9,1131.9,1327.9,1112.1,1327.9z"/>
		<path opacity="0.3604" fill="#004640" d="M1111.7,1327.5H315.9c-19.8,0-35.9-16.1-35.9-35.9V135.9c0-19.8,16.1-35.9,35.9-35.9
			h795.8c19.8,0,35.9,16.1,35.9,35.9v1155.8C1147.5,1311.5,1131.5,1327.5,1111.7,1327.5z"/>
		<path opacity="0.3694" fill="#00453F" d="M1111.2,1327.2H315.9c-19.8,0-35.9-16.1-35.9-35.9V135.9c0-19.8,16.1-35.9,35.9-35.9
			h795.3c19.8,0,35.9,16.1,35.9,35.9v1155.3C1147.2,1311.1,1131.1,1327.2,1111.2,1327.2z"/>
		<path opacity="0.3784" fill="#00443E" d="M1110.8,1326.8H316c-19.9,0-36-16.1-36-36V136c0-19.9,16.1-36,36-36h794.8
			c19.9,0,36,16.1,36,36v1154.8C1146.8,1310.7,1130.7,1326.8,1110.8,1326.8z"/>
		<path opacity="0.3874" fill="#00433E" d="M1110.4,1326.4H316c-19.9,0-36-16.1-36-36V136c0-19.9,16.1-36,36-36h794.4
			c19.9,0,36,16.1,36,36v1154.4C1146.4,1310.3,1130.3,1326.4,1110.4,1326.4z"/>
		<path opacity="0.3964" fill="#00423D" d="M1109.9,1326H316.1c-19.9,0-36.1-16.1-36.1-36.1V136.1c0-19.9,16.1-36.1,36.1-36.1h793.9
			c19.9,0,36.1,16.1,36.1,36.1v1153.9C1146,1309.9,1129.9,1326,1109.9,1326z"/>
		<path opacity="0.4054" fill="#00413C" d="M1109.5,1325.6H316.1c-19.9,0-36.1-16.2-36.1-36.1V136.1c0-19.9,16.2-36.1,36.1-36.1
			h793.4c19.9,0,36.1,16.2,36.1,36.1v1153.4C1145.6,1309.4,1129.4,1325.6,1109.5,1325.6z"/>
		<path opacity="0.4144" fill="#00403B" d="M1109.1,1325.2H316.1c-20,0-36.1-16.2-36.1-36.1V136.1c0-20,16.2-36.1,36.1-36.1h792.9
			c20,0,36.1,16.2,36.1,36.1v1152.9C1145.2,1309,1129,1325.2,1109.1,1325.2z"/>
		<path opacity="0.4234" fill="#003F3B" d="M1108.7,1324.8H316.2c-20,0-36.2-16.2-36.2-36.2V136.2c0-20,16.2-36.2,36.2-36.2h792.5
			c20,0,36.2,16.2,36.2,36.2v1152.5C1144.8,1308.6,1128.6,1324.8,1108.7,1324.8z"/>
		<path opacity="0.4324" fill="#003E3A" d="M1108.2,1324.4h-792c-20,0-36.2-16.2-36.2-36.2v-1152c0-20,16.2-36.2,36.2-36.2h792
			c20,0,36.2,16.2,36.2,36.2v1152C1144.4,1308.2,1128.2,1324.4,1108.2,1324.4z"/>
		<path opacity="0.4414" fill="#003D39" d="M1107.8,1324.1H316.3c-20,0-36.3-16.2-36.3-36.3V136.3c0-20,16.2-36.3,36.3-36.3h791.5
			c20,0,36.3,16.2,36.3,36.3v1151.5C1144.1,1307.8,1127.8,1324.1,1107.8,1324.1z"/>
		<path opacity="0.4505" fill="#003C38" d="M1107.4,1323.7H316.3c-20,0-36.3-16.3-36.3-36.3V136.3c0-20,16.3-36.3,36.3-36.3h791.1
			c20,0,36.3,16.3,36.3,36.3v1151.1C1143.7,1307.4,1127.4,1323.7,1107.4,1323.7z"/>
		<path opacity="0.4595" fill="#003B37" d="M1106.9,1323.3H316.3c-20.1,0-36.3-16.3-36.3-36.3V136.3c0-20.1,16.3-36.3,36.3-36.3
			h790.6c20.1,0,36.3,16.3,36.3,36.3v1150.6C1143.3,1307,1127,1323.3,1106.9,1323.3z"/>
		<path opacity="0.4685" fill="#003A37" d="M1106.5,1322.9H316.4c-20.1,0-36.4-16.3-36.4-36.4V136.4c0-20.1,16.3-36.4,36.4-36.4
			h790.1c20.1,0,36.4,16.3,36.4,36.4v1150.1C1142.9,1306.6,1126.6,1322.9,1106.5,1322.9z"/>
		<path opacity="0.4775" fill="#003936" d="M1106.1,1322.5H316.4c-20.1,0-36.4-16.3-36.4-36.4V136.4c0-20.1,16.3-36.4,36.4-36.4
			h789.7c20.1,0,36.4,16.3,36.4,36.4v1149.7C1142.5,1306.2,1126.2,1322.5,1106.1,1322.5z"/>
		<path opacity="0.4865" fill="#003835" d="M1105.7,1322.1H316.5c-20.1,0-36.5-16.3-36.5-36.5V136.5c0-20.1,16.3-36.5,36.5-36.5
			h789.2c20.1,0,36.5,16.3,36.5,36.5v1149.2C1142.1,1305.8,1125.8,1322.1,1105.7,1322.1z"/>
		<path opacity="0.4955" fill="#003734" d="M1105.2,1321.7H316.5c-20.2,0-36.5-16.3-36.5-36.5V136.5c0-20.2,16.3-36.5,36.5-36.5
			h788.7c20.2,0,36.5,16.3,36.5,36.5v1148.7C1141.7,1305.4,1125.4,1321.7,1105.2,1321.7z"/>
		<path opacity="0.5045" fill="#003734" d="M1104.8,1321.3H316.5c-20.2,0-36.5-16.4-36.5-36.5V136.5c0-20.2,16.4-36.5,36.5-36.5
			h788.3c20.2,0,36.5,16.4,36.5,36.5v1148.3C1141.3,1305,1125,1321.3,1104.8,1321.3z"/>
		<path opacity="0.5135" fill="#003633" d="M1104.4,1321H316.6c-20.2,0-36.6-16.4-36.6-36.6V136.6c0-20.2,16.4-36.6,36.6-36.6h787.8
			c20.2,0,36.6,16.4,36.6,36.6v1147.8C1141,1304.6,1124.6,1321,1104.4,1321z"/>
		<path opacity="0.5225" fill="#003532" d="M1103.9,1320.6H316.6c-20.2,0-36.6-16.4-36.6-36.6V136.6c0-20.2,16.4-36.6,36.6-36.6
			h787.3c20.2,0,36.6,16.4,36.6,36.6v1147.3C1140.6,1304.2,1124.2,1320.6,1103.9,1320.6z"/>
		<path opacity="0.5315" fill="#003431" d="M1103.5,1320.2H316.7c-20.2,0-36.7-16.4-36.7-36.7V136.7c0-20.2,16.4-36.7,36.7-36.7
			h786.8c20.2,0,36.7,16.4,36.7,36.7v1146.8C1140.2,1303.8,1123.8,1320.2,1103.5,1320.2z"/>
		<path opacity="0.5405" fill="#003331" d="M1103.1,1319.8H316.7c-20.3,0-36.7-16.4-36.7-36.7V136.7c0-20.3,16.4-36.7,36.7-36.7
			h786.4c20.3,0,36.7,16.4,36.7,36.7v1146.4C1139.8,1303.4,1123.4,1319.8,1103.1,1319.8z"/>
		<path opacity="0.5495" fill="#003230" d="M1102.7,1319.4H316.7c-20.3,0-36.7-16.5-36.7-36.7V136.7c0-20.3,16.5-36.7,36.7-36.7
			h785.9c20.3,0,36.7,16.5,36.7,36.7v1145.9C1139.4,1302.9,1122.9,1319.4,1102.7,1319.4z"/>
		<path opacity="0.5586" fill="#00312F" d="M1102.2,1319H316.8c-20.3,0-36.8-16.5-36.8-36.8V136.8c0-20.3,16.5-36.8,36.8-36.8h785.4
			c20.3,0,36.8,16.5,36.8,36.8v1145.4C1139,1302.5,1122.5,1319,1102.2,1319z"/>
		<path opacity="0.5676" fill="#00302E" d="M1101.8,1318.6h-785c-20.3,0-36.8-16.5-36.8-36.8v-1145c0-20.3,16.5-36.8,36.8-36.8h785
			c20.3,0,36.8,16.5,36.8,36.8v1145C1138.6,1302.1,1122.1,1318.6,1101.8,1318.6z"/>
		<path opacity="0.5766" fill="#002F2D" d="M1101.4,1318.2H316.9c-20.4,0-36.9-16.5-36.9-36.9V136.9c0-20.4,16.5-36.9,36.9-36.9
			h784.5c20.4,0,36.9,16.5,36.9,36.9v1144.5C1138.2,1301.7,1121.7,1318.2,1101.4,1318.2z"/>
		<path opacity="0.5856" fill="#002E2D" d="M1100.9,1317.8h-784c-20.4,0-36.9-16.5-36.9-36.9v-1144c0-20.4,16.5-36.9,36.9-36.9h784
			c20.4,0,36.9,16.5,36.9,36.9v1144C1137.8,1301.3,1121.3,1317.8,1100.9,1317.8z"/>
		<path opacity="0.5946" fill="#002D2C" d="M1100.5,1317.5H316.9c-20.4,0-36.9-16.5-36.9-36.9V136.9c0-20.4,16.5-36.9,36.9-36.9
			h783.6c20.4,0,36.9,16.5,36.9,36.9v1143.6C1137.5,1300.9,1120.9,1317.5,1100.5,1317.5z"/>
		<path opacity="0.6036" fill="#002C2B" d="M1100.1,1317.1H317c-20.4,0-37-16.6-37-37V137c0-20.4,16.6-37,37-37h783.1
			c20.4,0,37,16.6,37,37v1143.1C1137.1,1300.5,1120.5,1317.1,1100.1,1317.1z"/>
		<path opacity="0.6126" fill="#002B2A" d="M1099.7,1316.7H317c-20.5,0-37-16.6-37-37V137c0-20.5,16.6-37,37-37h782.6
			c20.5,0,37,16.6,37,37v1142.6C1136.7,1300.1,1120.1,1316.7,1099.7,1316.7z"/>
		<path opacity="0.6216" fill="#002A2A" d="M1099.2,1316.3H317.1c-20.5,0-37.1-16.6-37.1-37.1V137.1c0-20.5,16.6-37.1,37.1-37.1
			h782.2c20.5,0,37.1,16.6,37.1,37.1v1142.2C1136.3,1299.7,1119.7,1316.3,1099.2,1316.3z"/>
		<path opacity="0.6306" fill="#002929" d="M1098.8,1315.9H317.1c-20.5,0-37.1-16.6-37.1-37.1V137.1c0-20.5,16.6-37.1,37.1-37.1
			h781.7c20.5,0,37.1,16.6,37.1,37.1v1141.7C1135.9,1299.3,1119.3,1315.9,1098.8,1315.9z"/>
		<path opacity="0.6396" fill="#002828" d="M1098.4,1315.5H317.2c-20.5,0-37.2-16.6-37.2-37.2V137.2c0-20.5,16.6-37.2,37.2-37.2
			h781.2c20.5,0,37.2,16.6,37.2,37.2v1141.2C1135.5,1298.9,1118.9,1315.5,1098.4,1315.5z"/>
		<path opacity="0.6486" fill="#002727" d="M1097.9,1315.1H317.2c-20.5,0-37.2-16.7-37.2-37.2V137.2c0-20.5,16.7-37.2,37.2-37.2
			h780.8c20.5,0,37.2,16.7,37.2,37.2v1140.8C1135.1,1298.5,1118.5,1315.1,1097.9,1315.1z"/>
		<path opacity="0.6577" fill="#002626" d="M1097.5,1314.7H317.2c-20.6,0-37.2-16.7-37.2-37.2V137.2c0-20.6,16.7-37.2,37.2-37.2
			h780.3c20.6,0,37.2,16.7,37.2,37.2v1140.3C1134.7,1298.1,1118.1,1314.7,1097.5,1314.7z"/>
		<path opacity="0.6667" fill="#002526" d="M1097.1,1314.4H317.3c-20.6,0-37.3-16.7-37.3-37.3V137.3c0-20.6,16.7-37.3,37.3-37.3
			h779.8c20.6,0,37.3,16.7,37.3,37.3v1139.8C1134.4,1297.7,1117.7,1314.4,1097.1,1314.4z"/>
		<path opacity="0.6757" fill="#002425" d="M1096.7,1314H317.3c-20.6,0-37.3-16.7-37.3-37.3V137.3c0-20.6,16.7-37.3,37.3-37.3h779.3
			c20.6,0,37.3,16.7,37.3,37.3v1139.3C1134,1297.3,1117.3,1314,1096.7,1314z"/>
		<path opacity="0.6847" fill="#002324" d="M1096.2,1313.6H317.4c-20.6,0-37.4-16.7-37.4-37.4V137.4c0-20.6,16.7-37.4,37.4-37.4
			h778.9c20.6,0,37.4,16.7,37.4,37.4v1138.9C1133.6,1296.9,1116.9,1313.6,1096.2,1313.6z"/>
		<path opacity="0.6937" fill="#002223" d="M1095.8,1313.2H317.4c-20.7,0-37.4-16.7-37.4-37.4V137.4c0-20.7,16.7-37.4,37.4-37.4
			h778.4c20.7,0,37.4,16.7,37.4,37.4v1138.4C1133.2,1296.5,1116.5,1313.2,1095.8,1313.2z"/>
		<path opacity="0.7027" fill="#002123" d="M1095.4,1312.8H317.4c-20.7,0-37.4-16.8-37.4-37.4V137.4c0-20.7,16.8-37.4,37.4-37.4
			h777.9c20.7,0,37.4,16.8,37.4,37.4v1137.9C1132.8,1296,1116,1312.8,1095.4,1312.8z"/>
		<path opacity="0.7117" fill="#002022" d="M1094.9,1312.4H317.5c-20.7,0-37.5-16.8-37.5-37.5V137.5c0-20.7,16.8-37.5,37.5-37.5
			h777.5c20.7,0,37.5,16.8,37.5,37.5v1137.5C1132.4,1295.6,1115.6,1312.4,1094.9,1312.4z"/>
		<path opacity="0.7207" fill="#001F21" d="M1094.5,1312h-777c-20.7,0-37.5-16.8-37.5-37.5v-1137c0-20.7,16.8-37.5,37.5-37.5h777
			c20.7,0,37.5,16.8,37.5,37.5v1137C1132,1295.2,1115.2,1312,1094.5,1312z"/>
		<path opacity="0.7297" fill="#001E20" d="M1094.1,1311.6H317.6c-20.7,0-37.6-16.8-37.6-37.6V137.6c0-20.7,16.8-37.6,37.6-37.6
			h776.5c20.7,0,37.6,16.8,37.6,37.6v1136.5C1131.6,1294.8,1114.8,1311.6,1094.1,1311.6z"/>
		<path opacity="0.7387" fill="#001D1F" d="M1093.7,1311.3H317.6c-20.8,0-37.6-16.8-37.6-37.6V137.6c0-20.8,16.8-37.6,37.6-37.6
			h776.1c20.8,0,37.6,16.8,37.6,37.6v1136.1C1131.3,1294.4,1114.4,1311.3,1093.7,1311.3z"/>
		<path opacity="0.7477" fill="#001C1F" d="M1093.2,1310.9H317.6c-20.8,0-37.6-16.9-37.6-37.6V137.6c0-20.8,16.9-37.6,37.6-37.6
			h775.6c20.8,0,37.6,16.9,37.6,37.6v1135.6C1130.9,1294,1114,1310.9,1093.2,1310.9z"/>
		<path opacity="0.7568" fill="#001B1E" d="M1092.8,1310.5H317.7c-20.8,0-37.7-16.9-37.7-37.7V137.7c0-20.8,16.9-37.7,37.7-37.7
			h775.1c20.8,0,37.7,16.9,37.7,37.7v1135.1C1130.5,1293.6,1113.6,1310.5,1092.8,1310.5z"/>
		<path opacity="0.7658" fill="#001A1D" d="M1092.4,1310.1H317.7c-20.8,0-37.7-16.9-37.7-37.7V137.7c0-20.8,16.9-37.7,37.7-37.7
			h774.7c20.8,0,37.7,16.9,37.7,37.7v1134.7C1130.1,1293.2,1113.2,1310.1,1092.4,1310.1z"/>
		<path opacity="0.7748" fill="#00191C" d="M1091.9,1309.7H317.8c-20.9,0-37.8-16.9-37.8-37.8V137.8c0-20.9,16.9-37.8,37.8-37.8
			h774.2c20.9,0,37.8,16.9,37.8,37.8v1134.2C1129.7,1292.8,1112.8,1309.7,1091.9,1309.7z"/>
		<path opacity="0.7838" fill="#00181C" d="M1091.5,1309.3H317.8c-20.9,0-37.8-16.9-37.8-37.8V137.8c0-20.9,16.9-37.8,37.8-37.8
			h773.7c20.9,0,37.8,16.9,37.8,37.8v1133.7C1129.3,1292.4,1112.4,1309.3,1091.5,1309.3z"/>
		<path opacity="0.7928" fill="#00171B" d="M1091.1,1308.9H317.8c-20.9,0-37.8-16.9-37.8-37.8V137.8c0-20.9,16.9-37.8,37.8-37.8
			h773.2c20.9,0,37.8,16.9,37.8,37.8v1133.2C1128.9,1292,1112,1308.9,1091.1,1308.9z"/>
		<path opacity="0.8018" fill="#00161A" d="M1090.7,1308.5H317.9c-20.9,0-37.9-17-37.9-37.9V137.9c0-20.9,17-37.9,37.9-37.9h772.8
			c20.9,0,37.9,17,37.9,37.9v1132.8C1128.5,1291.6,1111.6,1308.5,1090.7,1308.5z"/>
		<path opacity="0.8108" fill="#001519" d="M1090.2,1308.1H317.9c-20.9,0-37.9-17-37.9-37.9V137.9c0-20.9,17-37.9,37.9-37.9h772.3
			c20.9,0,37.9,17,37.9,37.9v1132.3C1128.1,1291.2,1111.2,1308.1,1090.2,1308.1z"/>
		<path opacity="0.8198" fill="#001418" d="M1089.8,1307.8H318c-21,0-38-17-38-38V138c0-21,17-38,38-38h771.8c21,0,38,17,38,38
			v1131.8C1127.8,1290.8,1110.8,1307.8,1089.8,1307.8z"/>
		<path opacity="0.8288" fill="#001318" d="M1089.4,1307.4H318c-21,0-38-17-38-38V138c0-21,17-38,38-38h771.4c21,0,38,17,38,38
			v1131.4C1127.4,1290.4,1110.4,1307.4,1089.4,1307.4z"/>
		<path opacity="0.8378" fill="#001217" d="M1088.9,1307H318c-21,0-38-17-38-38V138c0-21,17-38,38-38h770.9c21,0,38,17,38,38v1130.9
			C1127,1290,1110,1307,1088.9,1307z"/>
		<path opacity="0.8468" fill="#001116" d="M1088.5,1306.6H318.1c-21,0-38.1-17.1-38.1-38.1V138.1c0-21,17.1-38.1,38.1-38.1h770.4
			c21,0,38.1,17.1,38.1,38.1v1130.4C1126.6,1289.5,1109.5,1306.6,1088.5,1306.6z"/>
		<path opacity="0.8559" fill="#001015" d="M1088.1,1306.2h-770c-21.1,0-38.1-17.1-38.1-38.1v-1130c0-21.1,17.1-38.1,38.1-38.1h770
			c21.1,0,38.1,17.1,38.1,38.1v1130C1126.2,1289.1,1109.1,1306.2,1088.1,1306.2z"/>
		<path opacity="0.8649" fill="#000F15" d="M1087.7,1305.8H318.2c-21.1,0-38.2-17.1-38.2-38.2V138.2c0-21.1,17.1-38.2,38.2-38.2
			h769.5c21.1,0,38.2,17.1,38.2,38.2v1129.5C1125.8,1288.7,1108.7,1305.8,1087.7,1305.8z"/>
		<path opacity="0.8739" fill="#000E14" d="M1087.2,1305.4h-769c-21.1,0-38.2-17.1-38.2-38.2v-1129c0-21.1,17.1-38.2,38.2-38.2h769
			c21.1,0,38.2,17.1,38.2,38.2v1129C1125.4,1288.3,1108.3,1305.4,1087.2,1305.4z"/>
		<path opacity="0.8829" fill="#000D13" d="M1086.8,1305H318.2c-21.1,0-38.2-17.1-38.2-38.2V138.2c0-21.1,17.1-38.2,38.2-38.2h768.6
			c21.1,0,38.2,17.1,38.2,38.2v1128.6C1125,1287.9,1107.9,1305,1086.8,1305z"/>
		<path opacity="0.8919" fill="#000C12" d="M1086.4,1304.7H318.3c-21.1,0-38.3-17.1-38.3-38.3V138.3c0-21.1,17.1-38.3,38.3-38.3
			h768.1c21.1,0,38.3,17.1,38.3,38.3v1128.1C1124.7,1287.5,1107.5,1304.7,1086.4,1304.7z"/>
		<path opacity="0.9009" fill="#000B12" d="M1085.9,1304.3H318.3c-21.2,0-38.3-17.2-38.3-38.3V138.3c0-21.2,17.2-38.3,38.3-38.3
			h767.6c21.2,0,38.3,17.2,38.3,38.3v1127.6C1124.3,1287.1,1107.1,1304.3,1085.9,1304.3z"/>
		<path opacity="0.9099" fill="#000A11" d="M1085.5,1303.9H318.4c-21.2,0-38.4-17.2-38.4-38.4V138.4c0-21.2,17.2-38.4,38.4-38.4
			h767.1c21.2,0,38.4,17.2,38.4,38.4v1127.1C1123.9,1286.7,1106.7,1303.9,1085.5,1303.9z"/>
		<path opacity="0.9189" fill="#000910" d="M1085.1,1303.5H318.4c-21.2,0-38.4-17.2-38.4-38.4V138.4c0-21.2,17.2-38.4,38.4-38.4
			h766.7c21.2,0,38.4,17.2,38.4,38.4v1126.7C1123.5,1286.3,1106.3,1303.5,1085.1,1303.5z"/>
		<path opacity="0.9279" fill="#00080F" d="M1084.7,1303.1H318.4c-21.2,0-38.4-17.2-38.4-38.4V138.4c0-21.2,17.2-38.4,38.4-38.4
			h766.2c21.2,0,38.4,17.2,38.4,38.4v1126.2C1123.1,1285.9,1105.9,1303.1,1084.7,1303.1z"/>
		<path opacity="0.9369" fill="#00070E" d="M1084.2,1302.7H318.5c-21.3,0-38.5-17.2-38.5-38.5V138.5c0-21.3,17.2-38.5,38.5-38.5
			h765.7c21.3,0,38.5,17.2,38.5,38.5v1125.7C1122.7,1285.5,1105.5,1302.7,1084.2,1302.7z"/>
		<path opacity="0.9459" fill="#00060E" d="M1083.8,1302.3H318.5c-21.3,0-38.5-17.2-38.5-38.5V138.5c0-21.3,17.2-38.5,38.5-38.5
			h765.3c21.3,0,38.5,17.2,38.5,38.5v1125.3C1122.3,1285.1,1105.1,1302.3,1083.8,1302.3z"/>
		<path opacity="0.955" fill="#00050D" d="M1083.4,1301.9H318.6c-21.3,0-38.6-17.3-38.6-38.6V138.6c0-21.3,17.3-38.6,38.6-38.6
			h764.8c21.3,0,38.6,17.3,38.6,38.6v1124.8C1121.9,1284.7,1104.7,1301.9,1083.4,1301.9z"/>
		<path opacity="0.964" fill="#00040C" d="M1082.9,1301.6H318.6c-21.3,0-38.6-17.3-38.6-38.6V138.6c0-21.3,17.3-38.6,38.6-38.6
			h764.3c21.3,0,38.6,17.3,38.6,38.6v1124.3C1121.6,1284.3,1104.3,1301.6,1082.9,1301.6z"/>
		<path opacity="0.973" fill="#00030B" d="M1082.5,1301.2H318.7c-21.3,0-38.7-17.3-38.7-38.7V138.7c0-21.3,17.3-38.7,38.7-38.7
			h763.9c21.3,0,38.7,17.3,38.7,38.7v1123.9C1121.2,1283.9,1103.9,1301.2,1082.5,1301.2z"/>
		<path opacity="0.982" fill="#00020B" d="M1082.1,1300.8H318.7c-21.4,0-38.7-17.3-38.7-38.7V138.7c0-21.4,17.3-38.7,38.7-38.7
			h763.4c21.4,0,38.7,17.3,38.7,38.7v1123.4C1120.8,1283.5,1103.5,1300.8,1082.1,1300.8z"/>
		<path opacity="0.991" fill="#00010A" d="M1081.7,1300.4H318.7c-21.4,0-38.7-17.3-38.7-38.7V138.7c0-21.4,17.3-38.7,38.7-38.7
			h762.9c21.4,0,38.7,17.3,38.7,38.7v1122.9C1120.4,1283,1103,1300.4,1081.7,1300.4z"/>
		<path fill="#000009" d="M1081.2,1300H318.8c-21.4,0-38.8-17.4-38.8-38.8V138.8c0-21.4,17.4-38.8,38.8-38.8h762.5
			c21.4,0,38.8,17.4,38.8,38.8v1122.5C1120,1282.6,1102.6,1300,1081.2,1300z"/>
	</g>
</g>
<g id="OBJ">
	<g>
		<rect x="280" y="100" fill="#FFFFFF" width="840" height="1200"/>
		<g>
			<polygon fill="#00FFB5" points="1119.1,939.1 1119.1,1300 280,1300 280,100 656.6,476.6 743.4,563.4 			"/>
			<polygon points="1120,939.1 759.1,1300 1120,1300 			"/>
			<polygon fill="#FFFFFF" points="383.2,741.1 360.5,718.4 360.5,763.8 			"/>
			<g>
				<rect x="362.8" y="942.7" width="446.9" height="1.2"/>
			</g>
			<g>
				<rect x="362.8" y="1080.9" width="446.9" height="1.2"/>
			</g>
			<circle cx="449.8" cy="585" r="95.6"/>
		</g>
	</g>
</g>
<g id="TXT">
	<text transform="matrix(1 0 0 1 353.8529 326.8006)" font-family="'Roboto-Bold'" font-size="162.2033px">Headline.</text>
	<text transform="matrix(1 0 0 1 677.8671 366.9989)"><tspan x="0" y="0" font-family="'Roboto-Thin'" font-size="31.2346px">Place </tspan><tspan x="80.7" y="0" font-family="'Roboto-Thin'" font-size="31.2346px">Y</tspan><tspan x="98.4" y="0" font-family="'Roboto-Thin'" font-size="31.2346px">our</tspan><tspan x="143.1" y="0" font-family="'Roboto-Thin'" font-size="31.2346px"> </tspan><tspan x="150" y="0" font-family="'Roboto-Thin'" font-size="31.2346px" letter-spacing="-1">T</tspan><tspan x="166.9" y="0" font-family="'Roboto-Thin'" font-size="31.2346px">agline He</tspan><tspan x="291.4" y="0" font-family="'Roboto-Thin'" font-size="31.2346px">r</tspan><tspan x="301.6" y="0" font-family="'Roboto-Thin'" font-size="31.2346px">e</tspan></text>
	<text transform="matrix(1 0 0 1 364.2665 177.4004)"><tspan x="0" y="0" font-family="'Roboto-Thin'" font-size="20.3155px">V</tspan><tspan x="11.7" y="0" font-family="'Roboto-Thin'" font-size="20.3155px">ol. 23 Issue 66 2019</tspan></text>
	<text transform="matrix(1 0 0 1 362.1971 834.077)"><tspan x="0" y="0" font-family="'Roboto-Thin'" font-size="69.7362px">Minimalism</tspan><tspan x="0" y="65.4" font-family="'Roboto-Thin'" font-size="69.7362px">Issue</tspan></text>
	<text transform="matrix(1 0 0 1 362.1971 1003.4559)"><tspan x="0" y="0" font-family="'Roboto-Thin'" font-size="42.5689px">Less is </tspan><tspan x="136.1" y="0" fill="#FFFFFF" font-family="'Roboto-Bold'" font-size="42.5689px">Mo</tspan><tspan x="197.5" y="0" fill="#FFFFFF" font-family="'Roboto-Bold'" font-size="42.5689px">r</tspan><tspan x="212.6" y="0" fill="#FFFFFF" font-family="'Roboto-Bold'" font-size="42.5689px">e</tspan><tspan x="235.6" y="0" font-family="'Roboto-Bold'" font-size="42.5689px"> </tspan><tspan x="246.2" y="0" font-family="'Roboto-Thin'" font-size="42.5689px">with</tspan></text>
	<text transform="matrix(1 0 0 1 362.1971 1131.7928)" fill="#FFFFFF" font-family="'Roboto-Bold'" font-size="29.9254px">John Doe</text>
	<rect x="362.2" y="1150.1" fill="none" width="200.9" height="103.4"/>
	<text transform="matrix(1 0 0 1 362.1971 1163.6425)"><tspan x="0" y="0" font-family="'Roboto-Thin'" font-size="18.0511px">“Neque por</tspan><tspan x="85.3" y="0" font-family="'Roboto-Thin'" font-size="18.0511px">r</tspan><tspan x="91.2" y="0" font-family="'Roboto-Thin'" font-size="18.0511px">o quisquam </tspan><tspan x="0" y="27.8" font-family="'Roboto-Thin'" font-size="18.0511px">est qui dolo</tspan><tspan x="89.4" y="27.8" font-family="'Roboto-Thin'" font-size="18.0511px">r</tspan><tspan x="95.2" y="27.8" font-family="'Roboto-Thin'" font-size="18.0511px">em ipsum </tspan><tspan x="0" y="55.6" font-family="'Roboto-Thin'" font-size="18.0511px">quia dolor sit amet, </tspan><tspan x="0" y="83.4" font-family="'Roboto-Thin'" font-size="18.0511px">consectetu</tspan><tspan x="86.6" y="83.4" font-family="'Roboto-Thin'" font-size="18.0511px" letter-spacing="-1">r</tspan><tspan x="91.6" y="83.4" font-family="'Roboto-Thin'" font-size="18.0511px">, adipisci </tspan><tspan x="162.2" y="83.4" font-family="'Roboto-Thin'" font-size="18.0511px">v</tspan><tspan x="170.7" y="83.4" font-family="'Roboto-Thin'" font-size="18.0511px">elit</tspan><tspan x="192.9" y="83.4" font-family="'Roboto-Thin'" font-size="18.0511px" letter-spacing="-1">.</tspan><tspan x="195.3" y="83.4" font-family="'Roboto-Thin'" font-size="18.0511px">”</tspan></text>
	<text transform="matrix(1 0 0 1 596.1005 1131.7928)" fill="#FFFFFF" font-family="'Roboto-Bold'" font-size="29.9254px">Jane Smith</text>
	<text transform="matrix(1 0 0 1 362.7655 1049.9393)" font-family="'Roboto-Thin'" font-size="42.5689px">Michael Smith</text>
	<rect x="596.1" y="1150.1" fill="none" width="200.9" height="103.4"/>
	<text transform="matrix(1 0 0 1 596.1005 1163.6425)"><tspan x="0" y="0" font-family="'Roboto-Thin'" font-size="18.0511px">“Quia dolor sit amet, </tspan><tspan x="0" y="27.8" font-family="'Roboto-Thin'" font-size="18.0511px">consectetu</tspan><tspan x="86.6" y="27.8" font-family="'Roboto-Thin'" font-size="18.0511px" letter-spacing="-1">r</tspan><tspan x="91.6" y="27.8" font-family="'Roboto-Thin'" font-size="18.0511px">, adipisci </tspan><tspan x="162.2" y="27.8" font-family="'Roboto-Thin'" font-size="18.0511px">v</tspan><tspan x="170.7" y="27.8" font-family="'Roboto-Thin'" font-size="18.0511px">elit</tspan><tspan x="192.9" y="27.8" font-family="'Roboto-Thin'" font-size="18.0511px" letter-spacing="-1">.</tspan><tspan x="195.3" y="27.8" font-family="'Roboto-Thin'" font-size="18.0511px">”</tspan></text>
	<text transform="matrix(1 0 0 1 401.0814 626.3203)" fill="#FFFFFF" font-family="'Roboto-Thin'" font-size="28.3943px">Content</text>
	<text transform="matrix(1 0 0 1 387.3857 584.6365)" fill="#FFFFFF" font-family="'Roboto-Bold'" font-size="58.2221px">NEW</text>
	<text transform="matrix(1 0 0 1 986.207 1131.7928)" fill="#FFFFFF" font-family="'Roboto-Thin'" font-size="28.3943px">Bonus</text>
	<text transform="matrix(1 0 0 1 995.8837 1232.5918)" fill="#FFFFFF" font-family="'Roboto-Thin'" font-size="28.3943px">Video</text>
	<text transform="matrix(1 0 0 1 951.0477 1190.9099)"><tspan x="0" y="0" fill="#FFFFFF" font-family="'Roboto-Bold'" font-size="58.2221px">D</tspan><tspan x="37.2" y="0" fill="#FFFFFF" font-family="'Roboto-Bold'" font-size="58.2221px">VD</tspan></text>
</g>
</svg>
