<?xml version="1.0" encoding="utf-8"?>
<!-- Generator: Adobe Illustrator 16.0.0, SVG Export Plug-In . SVG Version: 6.00 Build 0)  -->
<!DOCTYPE svg PUBLIC "-//W3C//DTD SVG 1.1//EN" "http://www.w3.org/Graphics/SVG/1.1/DTD/svg11.dtd">
<svg version="1.1" id="Layer_1" xmlns="http://www.w3.org/2000/svg" xmlns:xlink="http://www.w3.org/1999/xlink" x="0px" y="0px"
	  viewBox="0 0 500 500" enable-background="new 0 0 500 500" xml:space="preserve">
<linearGradient id="XMLID_2_" gradientUnits="userSpaceOnUse" x1="-1.7949" y1="-1.2217" x2="1.1382" y2="-1.2217" gradientTransform="matrix(-80.4642 -113.7005 -113.7005 80.4642 80.125 304.7188)">
	<stop  offset="0" style="stop-color:#006EAD"/>
	<stop  offset="0.0471" style="stop-color:#0075B9"/>
	<stop  offset="0.1723" style="stop-color:#0083D2"/>
	<stop  offset="0.3115" style="stop-color:#008FE6"/>
	<stop  offset="0.47" style="stop-color:#0097F4"/>
	<stop  offset="0.6645" style="stop-color:#009CFD"/>
	<stop  offset="1" style="stop-color:#009DFF"/>
</linearGradient>
<circle id="XMLID_14_" fill="url(#XMLID_2_)" cx="249.999" cy="250" r="204.261"/>
<path id="XMLID_15_" d="M233.117,371.208c-9.756,0-19.143-3.578-26.417-10.076l-61.462-54.846
	c-10.267-9.165-15.095-23.259-12.599-36.787l15.226-82.667c2.599-14.07,12.612-25.69,26.137-30.333l78.717-27.897
	c4.297-1.476,8.629-2.198,13.016-2.198c9.661,0,18.971,3.52,26.222,9.901l63.669,57.328c10.641,9.373,15.46,23.976,12.445,38.005
	l-17.757,82.639c-2.925,13.597-12.92,24.802-26.097,29.251l-78.555,25.64C241.709,370.504,237.44,371.208,233.117,371.208z"/>
<path id="XMLID_24_" fill="#EDEDED" d="M249.998,20.336C123.158,20.336,20.334,123.16,20.334,250
	c0,126.84,102.824,229.664,229.664,229.664S479.667,376.84,479.667,250C479.667,123.16,376.838,20.336,249.998,20.336z
	 M183.983,55.466c17.233-7.103,97.058-25.054,167.079,15.045c4.779,2.734,7.676,6.439,7.829,13.186
	c0.361,16.498,1.223,50.049-0.938,89.602c-0.145,2.717-3.416,4.08-5.663,2.55c0,0-67.531-70.645-168.333-116.583
	C182.305,58.508,182.305,56.161,183.983,55.466z M353.729,228.551l-17.753,82.644c-1.854,8.615-8.104,15.622-16.452,18.438
	l-78.411,25.596c-8.52,2.875-17.934,0.952-24.648-5.036l-61.462-54.851c-6.516-5.813-9.521-14.603-7.942-23.19l15.23-82.662
	c1.638-8.88,7.933-16.191,16.476-19.124l78.853-27.942c8.492-2.915,17.901-1.047,24.644,4.887l63.546,57.224
	C352.602,210.515,355.634,219.703,353.729,228.551z M143.794,73.512c4.648-2.956,8.894-2.297,15.338-0.284
	c0,0,37.423,13.068,78.434,44.386c2.157,1.651,1.854,4.991-0.586,6.183c0,0-93.89,24.016-183.661,88.916
	c-1.473,1.065-3.515-0.1-3.287-1.904C52.378,192.315,66.917,122.442,143.794,73.512z M119.047,403.014
	c0.194,1.805-1.85,2.992-3.294,1.89c-14.829-11.294-66.863-62.269-70.688-153.314c-0.232-5.501,3.172-8.507,8.144-13.078
	c0,0,32.174-25.392,76.976-45.248c2.481-1.101,5.243,0.893,5.058,3.601C134.679,200.542,107.369,296.001,119.047,403.014z
	 M315.706,442.169c-17.166,7.117-96.732,25.145-166.69-14.783c-4.774-2.726-7.676-6.422-7.848-13.159
	c-0.411-16.471-1.363-49.958,0.677-89.448c0.14-2.712,3.398-4.084,5.646-2.554c0,0,67.558,70.433,168.234,116.153
	C317.376,439.132,317.385,441.475,315.706,442.169z M354.826,425.111c-4.662,2.933-8.903,2.248-15.338,0.203
	c0,0-37.356-13.263-78.199-44.787c-2.152-1.661-1.837-5,0.617-6.183c0,0,94.007-23.529,184.115-87.964
	c1.479-1.057,3.51,0.117,3.275,1.918C446.856,306.777,431.95,376.583,354.826,425.111z M446.003,260.898
	c0,0-32.364,25.049-77.292,44.453c-2.49,1.079-5.234-0.938-5.018-3.646c0,0,28.227-95.536,18.068-205.688
	c-0.172-1.805,1.868-2.969,3.303-1.859c14.702,11.421,66.2,62.807,69.188,153.758C454.433,253.412,451.003,256.381,446.003,260.898z
	"/>
</svg>
