<svg version="1.1" id="Layer_1" xmlns="http://www.w3.org/2000/svg" xmlns:xlink="http://www.w3.org/1999/xlink" x="0px" y="0px"
	  viewBox="0 0 100 100" enable-background="new 0 0 100 100" xml:space="preserve">
<g>
	<path d="M50,99.667C22.614,99.667,0.333,77.387,0.333,50C0.333,22.614,22.614,0.333,50,0.333c27.387,0,49.667,22.281,49.667,49.667
		C99.667,77.387,77.387,99.667,50,99.667z M50,5.333C25.371,5.333,5.333,25.371,5.333,50c0,24.63,20.038,44.667,44.667,44.667
		c24.63,0,44.667-20.037,44.667-44.667C94.667,25.371,74.63,5.333,50,5.333z"/>
</g>
<g>
	<path d="M38.083,75.25c-0.64,0-1.28-0.244-1.768-0.732c-0.977-0.977-0.977-2.559,0-3.535L57.298,50L36.315,29.018
		c-0.977-0.976-0.977-2.559,0-3.535c0.976-0.977,2.56-0.977,3.535,0l22.75,22.75c0.977,0.976,0.977,2.559,0,3.535l-22.75,22.75
		C39.363,75.006,38.723,75.25,38.083,75.25z"/>
</g>
</svg>
