<svg version="1.1" id="Layer_1" xmlns="http://www.w3.org/2000/svg" xmlns:xlink="http://www.w3.org/1999/xlink" x="0px" y="0px"
viewBox="0 0 300 300" enable-background="new 0 0 300 300" xml:space="preserve">
<g>
	<path d="M184.821,162.757c3.89-0.81,6.556-1.46,9.257-1.912c35.257-5.894,58.692-35.546,56.367-71.358
		c-2.181-33.582-31.125-61.122-65.781-61.733c-28.043-0.496-56.101-0.123-84.15-0.056c-7.257,0.018-7.8,0.922-4.645,7.875
		c20.375,44.882,40.81,89.738,61.226,134.602c18.375,40.389,36.768,80.769,55.107,121.172c3.12,6.875,2.205,6.985-5.361,8.223
		c-16.651,2.722-24.447-3.991-31.353-19.589C135.404,189.418,93.868,99.497,52.828,9.356c-4.299-9.442-3.981-9.928,6.642-9.931
		c41.14-0.008,82.287-0.375,123.421,0.117c38.962,0.465,68.52,18.11,85.875,52.954c17.095,34.32,13.494,68.13-8.966,99.239
		c-14.09,19.513-33.708,31.17-57.187,36.463c-4.428,0.998-6.952,0.023-8.646-4.394C191.399,177.101,188.271,170.611,184.821,162.757
		z"/>
	<path d="M133.362,299.357c-9.969,3.313-14.368-3.254-18.705-12.935C84.342,218.766,53.496,151.345,22.671,83.917
		c-2.028-4.436-2.25-8.099,0.044-12.453c3.248-6.161,5.769-12.7,8.857-18.95c0.83-1.681,2.592-2.902,3.927-4.334
		c1.285,1.501,2.997,2.804,3.792,4.532c11.871,25.756,23.647,51.556,35.393,77.369c24.066,52.883,48.115,105.772,72.137,158.676
		c4.741,10.438,4.6,10.576-6.876,10.602C138.316,299.361,136.688,299.357,133.362,299.357z"/>
</g>
</svg>