<?xml version="1.0" encoding="utf-8"?>
<!-- Generator: Adobe Illustrator 16.0.0, SVG Export Plug-In . SVG Version: 6.00 Build 0)  -->
<!DOCTYPE svg PUBLIC "-//W3C//DTD SVG 1.1//EN" "http://www.w3.org/Graphics/SVG/1.1/DTD/svg11.dtd">
<svg version="1.1" id="Layer_1" xmlns="http://www.w3.org/2000/svg" xmlns:xlink="http://www.w3.org/1999/xlink" x="0px" y="0px"
	 width="300px" height="300px" viewBox="-346 0 300 300" enable-background="new -346 0 300 300" xml:space="preserve">
<g>
	<path d="M-161.179,162.757c3.891-0.81,6.557-1.46,9.258-1.911c35.257-5.895,58.691-35.547,56.366-71.359
		c-2.181-33.582-31.125-61.122-65.78-61.733c-28.043-0.496-56.102-0.123-84.15-0.056c-7.257,0.018-7.8,0.922-4.645,7.875
		c20.375,44.882,40.81,89.738,61.226,134.602c18.375,40.39,36.768,80.769,55.107,121.173c3.119,6.875,2.205,6.984-5.361,8.223
		c-16.651,2.722-24.447-3.991-31.354-19.59c-40.084-90.563-81.619-180.483-122.659-270.625c-4.3-9.442-3.981-9.928,6.642-9.931
		c41.14-0.008,82.287-0.375,123.421,0.117c38.962,0.465,68.521,18.11,85.875,52.954c17.095,34.32,13.494,68.13-8.966,99.238
		c-14.09,19.514-33.708,31.17-57.188,36.463c-4.428,0.998-6.951,0.023-8.646-4.393
		C-154.601,177.102-157.729,170.611-161.179,162.757z"/>
	<path d="M-212.638,299.357c-9.969,3.313-14.367-3.254-18.704-12.936c-30.315-67.656-61.161-135.076-91.986-202.505
		c-2.028-4.436-2.25-8.099,0.044-12.453c3.248-6.161,5.769-12.7,8.856-18.95c0.83-1.681,2.593-2.902,3.928-4.334
		c1.285,1.501,2.997,2.804,3.792,4.532c11.871,25.756,23.646,51.556,35.393,77.369c24.066,52.883,48.115,105.772,72.137,158.676
		c4.741,10.438,4.601,10.576-6.876,10.603C-207.684,299.361-209.312,299.357-212.638,299.357z"/>
</g>
<path fill="#FFFFFF" d="M565.371,116.415c-2.337-31.088-28.243-55.12-59.419-55.12c-27.41,0-54.82,0-82.23,0
	c28.417,60.939,56.833,121.879,85.25,182.819c6.435,0,12.868,0,19.302,0c-12.912-27.691-25.825-55.384-38.738-83.075
	c-6.456-13.845-12.912-27.691-19.369-41.537c-3.234-6.937-6.469-13.874-9.703-20.81c-1.611-3.454-3.222-6.908-4.832-10.362
	c-0.805-1.726-1.609-3.451-2.414-5.176c-0.402-0.862-0.805-1.725-1.207-2.587c-0.201-0.431-0.401-0.862-0.603-1.293
	c-0.076-0.164-0.37-0.484-0.046-0.484c0.238,0,0.477,0,0.714,0c15.276,0,30.552,0,45.827,0c8.443,0,14.098-0.481,22.365,2.509
	c7.703,2.786,13.485,6.934,18.593,13.337c9.59,12.024,12.173,29.076,5.643,43.226c-7.108,15.4-23.001,20.377-37.188,23.684
	c2.517,5.398,5.033,10.796,7.551,16.193c1.667-0.412,3.326-0.859,4.973-1.344c2.268-0.668,4.514-1.404,6.731-2.222
	c2.183-0.804,4.336-1.687,6.448-2.659c2.058-0.947,4.076-1.981,6.037-3.116c1.898-1.099,3.742-2.292,5.503-3.599
	c1.468-1.09,2.878-2.26,4.219-3.504c2.471-2.295,4.706-4.842,6.667-7.584c1.966-2.749,3.656-5.693,5.057-8.769
	c0.696-1.528,1.32-3.088,1.871-4.674c0.547-1.572,1.021-3.169,1.426-4.783c0.399-1.596,0.73-3.208,0.992-4.832
	c0.258-1.598,0.448-3.207,0.574-4.821C565.608,122.7,565.607,119.548,565.371,116.415z"/>
<polygon fill="#FFFFFF" points="407.299,110.924 416.215,88.65 488.709,244.114 469.406,244.114 "/>
<path d="M96.122,287.695C65.306,221.604,34.49,155.52,3.673,89.434c-2.797-6-2.937-11.002-0.478-17.15
	c2.704-6.753,5.407-13.506,8.111-20.261c1.173-2.926,5.274-3.039,6.605-0.183c38.598,82.774,77.195,165.549,115.793,248.321
	c-6.003,0-12.009,0-18.009,0C107.3,300.161,99.67,295.298,96.122,287.695z"/>
<path d="M185.391,300.161c-14.348,0-20.026-3.617-26.093-16.624C115.913,190.491,72.525,97.449,29.136,4.406
	c-1.113-2.386,0.629-5.12,3.263-5.12c43.228,0,86.453,0,129.681,0c51.31,0,93.944,39.55,97.791,90.713
	c0.388,5.156,0.388,10.343-0.012,15.498c-0.206,2.657-0.521,5.305-0.943,7.936c-0.436,2.672-0.98,5.326-1.633,7.951
	c-0.666,2.657-1.452,5.286-2.348,7.872c-0.907,2.61-1.935,5.18-3.078,7.693c-2.305,5.06-5.087,9.904-8.322,14.429
	c-3.23,4.512-6.907,8.706-10.979,12.483c-2.201,2.048-4.523,3.974-6.938,5.768c-2.896,2.15-5.934,4.112-9.061,5.921
	c-3.224,1.866-6.544,3.572-9.931,5.129c-3.479,1.601-7.022,3.052-10.615,4.376c-3.647,1.346-7.348,2.559-11.076,3.653
	c-0.753,0.224-1.506,0.438-2.259,0.65c-3.396,0.953-6.98-0.692-8.471-3.886c-3.294-7.067-6.587-14.136-9.884-21.2
	c15.793-3.68,35.481-9.511,48.268-21.157c13.555-12.348,19.373-30.369,18.732-48.074c-1.349-37.352-31.797-66.964-69.243-66.964
	c-30.046,0-60.091,0-90.139,0c42.293,90.695,84.586,181.389,126.878,272.085C194.344,300.161,189.866,300.161,185.391,300.161z"/>
<g>
	<path fill="#FFFFFF" d="M-1049.135,162.757c3.891-0.81,6.557-1.46,9.258-1.911c35.257-5.895,58.691-35.547,56.366-71.359
		c-2.181-33.582-31.125-61.122-65.78-61.733c-28.043-0.496-56.102-0.123-84.15-0.056c-7.257,0.018-7.8,0.922-4.645,7.875
		c20.375,44.882,40.81,89.738,61.226,134.602c18.375,40.39,36.768,80.769,55.107,121.173c3.119,6.875,2.205,6.984-5.361,8.223
		c-16.651,2.722-24.447-3.991-31.354-19.59c-40.084-90.563-81.619-180.483-122.659-270.625c-4.3-9.442-3.981-9.928,6.642-9.931
		c41.14-0.008,82.287-0.375,123.421,0.117c38.962,0.465,68.521,18.11,85.875,52.954c17.095,34.32,13.494,68.13-8.966,99.238
		c-14.09,19.514-33.708,31.17-57.188,36.463c-4.428,0.998-6.951,0.023-8.646-4.393
		C-1042.557,177.102-1045.685,170.611-1049.135,162.757z"/>
	<path fill="#FFFFFF" d="M-1100.594,299.357c-9.969,3.313-14.367-3.254-18.704-12.936c-30.315-67.656-61.161-135.076-91.986-202.505
		c-2.028-4.436-2.25-8.099,0.044-12.453c3.248-6.161,5.769-12.7,8.856-18.95c0.83-1.681,2.593-2.902,3.928-4.334
		c1.285,1.501,2.997,2.804,3.792,4.532c11.871,25.756,23.646,51.556,35.393,77.369c24.066,52.883,48.115,105.772,72.137,158.676
		c4.741,10.438,4.601,10.576-6.876,10.603C-1095.64,299.361-1097.268,299.357-1100.594,299.357z"/>
</g>
<path fill="#FFFFFF" d="M-791.833,287.695c-30.816-66.091-61.633-132.176-92.449-198.262c-2.797-6-2.937-11.002-0.478-17.15
	c2.704-6.753,5.407-13.506,8.111-20.261c1.173-2.926,5.274-3.039,6.605-0.183c38.598,82.774,77.195,165.549,115.793,248.321
	c-6.003,0-12.009,0-18.009,0C-780.656,300.161-788.286,295.298-791.833,287.695z"/>
<path fill="#FFFFFF" d="M-702.565,300.161c-14.348,0-20.026-3.617-26.093-16.624c-43.385-93.046-86.773-186.088-130.162-279.131
	c-1.113-2.386,0.629-5.12,3.263-5.12c43.228,0,86.453,0,129.681,0c51.31,0,93.944,39.55,97.791,90.713
	c0.388,5.156,0.388,10.343-0.012,15.498c-0.206,2.657-0.521,5.305-0.943,7.936c-0.436,2.672-0.98,5.326-1.633,7.951
	c-0.666,2.657-1.452,5.286-2.348,7.872c-0.907,2.61-1.935,5.18-3.078,7.693c-2.305,5.06-5.087,9.904-8.322,14.429
	c-3.23,4.512-6.907,8.706-10.979,12.483c-2.201,2.048-4.523,3.974-6.938,5.768c-2.896,2.15-5.934,4.112-9.061,5.921
	c-3.224,1.866-6.544,3.572-9.931,5.129c-3.479,1.601-7.022,3.052-10.615,4.376c-3.647,1.346-7.348,2.559-11.076,3.653
	c-0.753,0.224-1.506,0.438-2.259,0.65c-3.396,0.953-6.98-0.692-8.471-3.886c-3.294-7.067-6.587-14.136-9.884-21.2
	c15.793-3.68,35.481-9.511,48.268-21.157c13.555-12.348,19.373-30.369,18.732-48.074c-1.349-37.352-31.797-66.964-69.243-66.964
	c-30.046,0-60.091,0-90.139,0c42.293,90.695,84.586,181.389,126.878,272.085C-693.612,300.161-698.089,300.161-702.565,300.161z"/>
<path fill="none" stroke="#000000" stroke-linecap="round" stroke-linejoin="round" d="M-533.726,252.154
	c-9.951-21.342-19.902-42.682-29.854-64.021c-0.903-1.938-0.948-3.553-0.154-5.539c0.873-2.18,1.746-4.361,2.619-6.542
	c0.378-0.944,1.702-0.981,2.132-0.06c12.464,26.729,24.928,53.459,37.392,80.188c-1.939,0-3.877,0-5.816,0
	C-530.116,256.18-532.581,254.609-533.726,252.154z"/>
<path fill="none" stroke="#000000" stroke-linecap="round" stroke-linejoin="round" d="M-504.9,256.18
	c-4.634,0-6.467-1.168-8.426-5.368c-14.01-30.046-28.021-60.091-42.031-90.136c-0.359-0.771,0.203-1.654,1.053-1.654
	c13.959,0,27.917,0,41.876,0c16.568,0,30.336,12.771,31.578,29.293c0.125,1.666,0.125,3.34-0.004,5.005
	c-0.067,0.858-0.168,1.713-0.305,2.563c-0.139,0.862-0.315,1.72-0.527,2.567c-0.215,0.857-0.467,1.707-0.757,2.542
	c-0.293,0.843-0.625,1.673-0.995,2.484c-0.744,1.634-1.643,3.198-2.688,4.659c-1.042,1.457-2.23,2.812-3.543,4.031
	c-0.712,0.661-1.461,1.283-2.242,1.862c-0.936,0.694-1.916,1.328-2.924,1.912c-1.042,0.603-2.115,1.153-3.208,1.656
	c-1.123,0.517-2.267,0.985-3.427,1.413c-1.179,0.435-2.373,0.826-3.577,1.18c-0.243,0.072-0.486,0.142-0.729,0.21
	c-1.096,0.308-2.254-0.224-2.735-1.255c-1.064-2.282-2.128-4.564-3.192-6.846c5.1-1.188,11.457-3.071,15.586-6.832
	c4.376-3.987,6.255-9.807,6.049-15.523c-0.436-12.063-10.268-21.625-22.359-21.625c-9.703,0-19.405,0-29.107,0
	c13.657,29.287,27.313,58.574,40.97,87.861C-502.01,256.18-503.454,256.18-504.9,256.18z"/>
</svg>
