<?xml version="1.0" encoding="utf-8"?>
<!-- Generator: Adobe Illustrator 16.0.0, SVG Export Plug-In . SVG Version: 6.00 Build 0)  -->
<!DOCTYPE svg PUBLIC "-//W3C//DTD SVG 1.1//EN" "http://www.w3.org/Graphics/SVG/1.1/DTD/svg11.dtd">
<svg version="1.1" id="Layer_1" xmlns="http://www.w3.org/2000/svg" xmlns:xlink="http://www.w3.org/1999/xlink" x="0px" y="0px"
 viewBox="0 0 35 35" enable-background="new 0 0 35 35" xml:space="preserve">
<path fill="#FFFFFF" d="M4.344,10.17l1.602,0.924c1.872,1.081,4.934,2.849,6.806,3.93l1.603,0.925
	c1.87,1.081,3.403,0.197,3.403-1.964v-1.851c0-0.358,0-0.757,0-1.177c5.064,0.057,9.167,4.192,9.167,9.27
	c0,5.113-4.16,9.271-9.272,9.271H9.35c-1.519,0-2.75,1.232-2.75,2.752C6.599,33.77,7.831,35,9.35,35h8.303
	c8.146,0,14.773-6.627,14.773-14.772c0-8.111-6.571-14.714-14.668-14.771c0-0.422,0-0.821,0-1.18V2.425
	c0-2.161-1.533-3.045-3.403-1.964l-1.603,0.925C10.88,2.467,7.818,4.235,5.946,5.315L4.344,6.24
	C2.472,7.321,2.472,9.089,4.344,10.17z"/>
</svg>
