<?xml version="1.0" encoding="utf-8"?>
<!-- Generator: Adobe Illustrator 16.0.0, SVG Export Plug-In . SVG Version: 6.00 Build 0)  -->
<!DOCTYPE svg PUBLIC "-//W3C//DTD SVG 1.1//EN" "http://www.w3.org/Graphics/SVG/1.1/DTD/svg11.dtd">
<svg version="1.1" id="Layer_1" xmlns="http://www.w3.org/2000/svg" xmlns:xlink="http://www.w3.org/1999/xlink" x="0px" y="0px"
 viewBox="0 0 35 35" enable-background="new 0 0 35 35" xml:space="preserve">
<path fill="#FFFFFF" d="M30.723,24.854l-1.604-0.926c-1.874-1.08-4.939-2.852-6.812-3.933l-1.605-0.927
	c-1.873-1.082-3.406-0.196-3.406,1.967v1.853c0,0.358,0,0.757,0,1.177c-5.069-0.055-9.175-4.196-9.175-9.278
	c0-5.118,4.163-9.281,9.281-9.281h8.311c1.521,0,2.753-1.232,2.753-2.753c0-1.52-1.232-2.752-2.753-2.752h-8.311
	C9.249,0,2.615,6.633,2.615,14.787c0,8.119,6.577,14.729,14.681,14.785c0,0.423,0,0.822,0,1.182v1.853
	c0,2.163,1.533,3.048,3.406,1.967l1.605-0.927c1.872-1.081,4.938-2.851,6.812-3.932l1.604-0.928
	C32.596,27.704,32.596,25.936,30.723,24.854z"/>
</svg>
