<?xml version="1.0" encoding="utf-8"?>
<svg version="1.1" id="Layer_1" xmlns="http://www.w3.org/2000/svg" xmlns:xlink="http://www.w3.org/1999/xlink" x="0px" y="0px"
	  viewBox="0 0 50 50" enable-background="new 0 0 1920 1080" xml:space="preserve">
<g>
	<path d="M960,652.5c-62.033,0-112.5-50.468-112.5-112.5c0-62.033,50.467-112.5,112.5-112.5
		c62.032,0,112.5,50.467,112.5,112.5C1072.5,602.032,1022.032,652.5,960,652.5z M960,447.5c-51.005,0-92.5,41.495-92.5,92.5
		s41.495,92.5,92.5,92.5s92.5-41.495,92.5-92.5S1011.005,447.5,960,447.5z"/>
</g>
<g>
	<path d="M959.5,574.921c-2.56,0-5.118-0.977-7.071-2.929l-43.841-43.841c-3.905-3.905-3.905-10.237,0-14.143
		c3.905-3.905,10.237-3.905,14.143,0l36.77,36.77l36.77-36.77c3.907-3.904,10.237-3.905,14.143,0s3.905,10.237,0,14.142
		l-43.842,43.841C964.619,573.944,962.06,574.921,959.5,574.921z"/>
</g>
</svg>