<?xml version="1.0"?>
<svg xmlns="http://www.w3.org/2000/svg" viewBox="0 0 50 50">
    <path style="text-indent:0;text-align:start;line-height:normal;text-transform:none;block-progression:tb;-inkscape-font-specification:Sans" d="M 25 2 C 12.309296 2 2 12.309296 2 25 C 2 37.690704 12.309296 48 25 48 C 37.690704 48 48 37.690704 48 25 C 48 12.309296 37.690704 2 25 2 z M 25 4 C 36.609824 4 46 13.390176 46 25 C 46 36.609824 36.609824 46 25 46 C 13.390176 46 4 36.609824 4 25 C 4 13.390176 13.390176 4 25 4 z M 24.90625 11.96875 A 1.0001 1.0001 0 0 0 24.78125 12 A 1.0001 1.0001 0 0 0 24 13 L 24 34.5625 L 17.71875 28.28125 A 1.0001 1.0001 0 0 0 16.78125 28 A 1.0001 1.0001 0 0 0 16.28125 29.71875 L 24.15625 37.5625 A 1.0001 1.0001 0 0 0 24.21875 37.65625 L 24.28125 37.71875 A 1.0001 1.0001 0 0 0 24.34375 37.78125 A 1.0001 1.0001 0 0 0 24.375 37.78125 A 1.0001 1.0001 0 0 0 24.59375 37.9375 A 1.0001 1.0001 0 0 0 24.625 37.9375 A 1.0001 1.0001 0 0 0 24.6875 37.96875 A 1.0001 1.0001 0 0 0 24.71875 37.96875 A 1.0001 1.0001 0 0 0 24.8125 38 A 1.0001 1.0001 0 0 0 25.125 38 A 1.0001 1.0001 0 0 0 25.1875 38 A 1.0001 1.0001 0 0 0 25.4375 37.90625 A 1.0001 1.0001 0 0 0 25.78125 37.625 L 33.71875 29.71875 A 1.016466 1.016466 0 1 0 32.28125 28.28125 L 26 34.5625 L 26 13 A 1.0001 1.0001 0 0 0 24.90625 11.96875 z"  overflow="visible" font-family="Sans"/>
</svg>
