<?xml version="1.0" encoding="utf-8"?>
<!-- Generator: Adobe Illustrator 16.0.0, SVG Export Plug-In . SVG Version: 6.00 Build 0)  -->
<!DOCTYPE svg PUBLIC "-//W3C//DTD SVG 1.1//EN" "http://www.w3.org/Graphics/SVG/1.1/DTD/svg11.dtd">
<svg version="1.1" id="Layer_1" xmlns="http://www.w3.org/2000/svg" xmlns:xlink="http://www.w3.org/1999/xlink" x="0px" y="0px"
	 viewBox="0 0 625.69 622.727" enable-background="new 0 0 625.69 622.727"
	 xml:space="preserve">
<path fill-rule="evenodd" clip-rule="evenodd" d="M314.491,0C142.53,0,3.128,139.402,3.128,311.363
	c0,171.962,139.402,311.363,311.363,311.363c171.962,0,311.363-139.401,311.363-311.363C625.854,139.402,486.453,0,314.491,0z
	 M449.029,391.509L336.666,502.873c-5.899,5.847-13.869,9.127-22.175,9.127c-8.306,0-16.275-3.28-22.174-9.127L179.954,391.509
	c-12.356-12.246-12.445-32.19-0.199-44.547c12.246-12.357,32.189-12.446,44.547-0.199c0,0,32.673,32.383,58.689,58.167V139.59
	c0-17.397,14.103-31.5,31.5-31.5s31.5,14.103,31.5,31.5v265.34l58.689-58.168c12.357-12.247,32.302-12.158,44.547,0.199
	C461.475,359.318,461.386,379.263,449.029,391.509z"/>
</svg>
