<?xml version="1.0" encoding="utf-8"?>
<!-- Generator: Adobe Illustrator 16.0.0, SVG Export Plug-In . SVG Version: 6.00 Build 0)  -->
<!DOCTYPE svg PUBLIC "-//W3C//DTD SVG 1.1//EN" "http://www.w3.org/Graphics/SVG/1.1/DTD/svg11.dtd">
<svg version="1.1" xmlns="http://www.w3.org/2000/svg" xmlns:xlink="http://www.w3.org/1999/xlink" x="0px" y="0px"
	  viewBox="0 0 121.041 19.593" enable-background="new 0 0 121.041 19.593"
	 xml:space="preserve">
<g id="expanded">
	<g>
		<path d="M0,14.91V0h6.132c0.63,0,1.208,0.133,1.732,0.399c0.525,0.266,0.983,0.62,1.375,1.061c0.392,0.441,0.696,0.935,0.914,1.48
			c0.217,0.546,0.326,1.106,0.326,1.68c0,0.798-0.179,1.551-0.536,2.257C9.586,7.585,9.096,8.162,8.473,8.61
			S7.112,9.282,6.258,9.282H1.071v5.628H0z M1.071,8.295h5.145c0.658,0,1.225-0.175,1.701-0.525c0.476-0.35,0.84-0.805,1.092-1.365
			S9.387,5.25,9.387,4.62c0-0.658-0.15-1.263-0.451-1.816c-0.301-0.553-0.7-0.998-1.197-1.333S6.692,0.966,6.09,0.966H1.071V8.295z"
			/>
		<path d="M17.177,15.12c-0.77,0-1.484-0.15-2.142-0.45c-0.658-0.3-1.229-0.711-1.712-1.234c-0.483-0.523-0.861-1.13-1.134-1.82
			s-0.41-1.419-0.41-2.187c0-1.032,0.231-1.966,0.693-2.803c0.462-0.837,1.099-1.51,1.911-2.019s1.722-0.764,2.73-0.764
			c1.036,0,1.953,0.258,2.751,0.774c0.798,0.516,1.432,1.196,1.901,2.041c0.469,0.844,0.703,1.768,0.703,2.772
			c0,0.084,0,0.168,0,0.251s-0.007,0.153-0.021,0.209h-9.576c0.056,0.822,0.287,1.568,0.693,2.236
			c0.406,0.669,0.927,1.195,1.564,1.578c0.637,0.383,1.333,0.575,2.089,0.575c0.756,0,1.47-0.196,2.142-0.588
			s1.141-0.896,1.407-1.512l0.924,0.252c-0.21,0.518-0.542,0.98-0.998,1.386s-0.987,0.724-1.596,0.955
			C18.49,15.005,17.85,15.12,17.177,15.12z M12.831,9.072h8.631c-0.056-0.85-0.28-1.603-0.672-2.257
			c-0.392-0.655-0.907-1.17-1.543-1.546c-0.637-0.376-1.341-0.564-2.111-0.564s-1.47,0.188-2.1,0.564
			c-0.63,0.376-1.142,0.892-1.533,1.546C13.11,7.47,12.886,8.222,12.831,9.072z"/>
		<path d="M24.863-0.42h1.071v13.244c0,0.507,0.105,0.855,0.315,1.045c0.21,0.19,0.483,0.285,0.819,0.285
			c0.224,0,0.455-0.021,0.693-0.063c0.238-0.042,0.448-0.098,0.63-0.168l0.21,0.861c-0.238,0.084-0.532,0.161-0.882,0.231
			c-0.35,0.07-0.651,0.105-0.903,0.105c-0.588,0-1.061-0.18-1.417-0.539s-0.535-0.841-0.535-1.446V-0.42z"/>
		<path d="M30.302-0.42h1.071v13.244c0,0.507,0.105,0.855,0.315,1.045c0.21,0.19,0.483,0.285,0.819,0.285
			c0.224,0,0.455-0.021,0.693-0.063c0.238-0.042,0.448-0.098,0.63-0.168l0.21,0.861c-0.238,0.084-0.532,0.161-0.882,0.231
			c-0.35,0.07-0.651,0.105-0.903,0.105c-0.588,0-1.061-0.18-1.417-0.539s-0.535-0.841-0.535-1.446V-0.42z"/>
		<path d="M40.298,15.12c-0.77,0-1.484-0.15-2.142-0.45c-0.658-0.3-1.229-0.711-1.712-1.234c-0.483-0.523-0.861-1.13-1.134-1.82
			s-0.41-1.419-0.41-2.187c0-1.032,0.231-1.966,0.693-2.803c0.462-0.837,1.099-1.51,1.911-2.019s1.722-0.764,2.73-0.764
			c1.036,0,1.953,0.258,2.751,0.774c0.798,0.516,1.432,1.196,1.901,2.041c0.469,0.844,0.703,1.768,0.703,2.772
			c0,0.084,0,0.168,0,0.251s-0.007,0.153-0.021,0.209h-9.576c0.056,0.822,0.287,1.568,0.693,2.236
			c0.406,0.669,0.927,1.195,1.564,1.578c0.637,0.383,1.333,0.575,2.089,0.575c0.756,0,1.47-0.196,2.142-0.588
			s1.141-0.896,1.407-1.512l0.924,0.252c-0.21,0.518-0.542,0.98-0.998,1.386s-0.987,0.724-1.596,0.955
			C41.61,15.005,40.97,15.12,40.298,15.12z M35.951,9.072h8.631c-0.056-0.85-0.28-1.603-0.672-2.257
			c-0.392-0.655-0.907-1.17-1.543-1.546c-0.637-0.376-1.341-0.564-2.111-0.564s-1.47,0.188-2.1,0.564
			c-0.63,0.376-1.142,0.892-1.533,1.546C36.231,7.47,36.007,8.222,35.951,9.072z"/>
		<path d="M53.297,1.512V-0.42h1.05v1.932H53.297z M53.297,14.91V3.99h1.05v10.92H53.297z"/>
		<path d="M57.958,14.91V0h4.956c1.582,0,2.894,0.333,3.938,0.998c1.042,0.665,1.827,1.562,2.352,2.688
			c0.525,1.127,0.787,2.377,0.787,3.749c0,1.512-0.287,2.828-0.861,3.948c-0.574,1.12-1.393,1.988-2.457,2.604
			s-2.317,0.924-3.759,0.924H57.958z M68.92,7.434c0-1.246-0.235-2.359-0.704-3.339c-0.469-0.98-1.148-1.747-2.037-2.299
			c-0.889-0.553-1.978-0.83-3.265-0.83h-3.885v12.978h3.885c1.302,0,2.401-0.287,3.297-0.861c0.896-0.574,1.571-1.354,2.026-2.341
			S68.92,8.652,68.92,7.434z"/>
		<path d="M77.257,15.12c-0.77,0-1.484-0.15-2.142-0.45c-0.658-0.3-1.229-0.711-1.712-1.234c-0.483-0.523-0.861-1.13-1.134-1.82
			s-0.41-1.419-0.41-2.187c0-1.032,0.231-1.966,0.693-2.803c0.462-0.837,1.099-1.51,1.911-2.019s1.722-0.764,2.73-0.764
			c1.036,0,1.953,0.258,2.751,0.774c0.798,0.516,1.432,1.196,1.901,2.041c0.469,0.844,0.703,1.768,0.703,2.772
			c0,0.084,0,0.168,0,0.251s-0.007,0.153-0.021,0.209h-9.576c0.056,0.822,0.287,1.568,0.693,2.236
			c0.406,0.669,0.927,1.195,1.564,1.578c0.637,0.383,1.333,0.575,2.089,0.575c0.756,0,1.47-0.196,2.142-0.588
			s1.141-0.896,1.407-1.512l0.924,0.252c-0.21,0.518-0.542,0.98-0.998,1.386s-0.987,0.724-1.596,0.955
			C78.57,15.005,77.93,15.12,77.257,15.12z M72.911,9.072h8.631c-0.056-0.85-0.28-1.603-0.672-2.257
			c-0.392-0.655-0.907-1.17-1.543-1.546c-0.637-0.376-1.341-0.564-2.111-0.564s-1.47,0.188-2.1,0.564
			c-0.63,0.376-1.142,0.892-1.533,1.546C73.19,7.47,72.966,8.222,72.911,9.072z"/>
		<path d="M88.303,15.12c-0.868,0-1.673-0.147-2.415-0.441c-0.742-0.294-1.393-0.742-1.953-1.344l0.483-0.735
			c0.602,0.574,1.211,0.991,1.827,1.25c0.616,0.259,1.288,0.389,2.016,0.389c0.938,0,1.697-0.195,2.278-0.585
			s0.872-0.934,0.872-1.63c0-0.474-0.136-0.84-0.41-1.098c-0.273-0.258-0.665-0.467-1.176-0.627
			c-0.511-0.161-1.131-0.332-1.858-0.513c-0.742-0.195-1.369-0.397-1.879-0.606c-0.511-0.209-0.893-0.481-1.145-0.816
			c-0.252-0.334-0.378-0.788-0.378-1.36c0-0.711,0.178-1.301,0.535-1.768s0.84-0.816,1.449-1.046s1.284-0.345,2.026-0.345
			c0.854,0,1.599,0.14,2.236,0.42c0.637,0.28,1.124,0.651,1.459,1.113l-0.567,0.672C91.355,5.6,90.9,5.268,90.34,5.051
			c-0.56-0.217-1.176-0.326-1.848-0.326c-0.504,0-0.98,0.07-1.428,0.209c-0.448,0.139-0.808,0.366-1.081,0.68
			c-0.273,0.313-0.41,0.735-0.41,1.265c0,0.418,0.102,0.747,0.305,0.983c0.203,0.237,0.507,0.429,0.913,0.575s0.91,0.303,1.512,0.47
			c0.854,0.209,1.589,0.425,2.205,0.648c0.616,0.223,1.092,0.512,1.428,0.868c0.336,0.355,0.504,0.854,0.504,1.495
			c0,0.99-0.378,1.771-1.134,2.343C90.55,14.834,89.549,15.12,88.303,15.12z"/>
		<path d="M94.918,1.512V-0.42h1.05v1.932H94.918z M94.918,14.91V3.99h1.05v10.92H94.918z"/>
		<path d="M103.674,15.12c-0.742,0-1.432-0.154-2.068-0.462c-0.637-0.308-1.183-0.731-1.638-1.271s-0.812-1.141-1.071-1.806
			c-0.259-0.665-0.389-1.354-0.389-2.068c0-0.742,0.123-1.456,0.368-2.142c0.245-0.686,0.595-1.292,1.05-1.816
			s0.99-0.941,1.606-1.25c0.616-0.308,1.302-0.462,2.058-0.462c0.952,0,1.782,0.245,2.489,0.735c0.707,0.49,1.305,1.092,1.796,1.806
			V4.011h0.965v11.115c0,0.979-0.238,1.803-0.713,2.475c-0.477,0.671-1.106,1.171-1.891,1.5s-1.631,0.493-2.541,0.493
			c-1.274,0-2.286-0.231-3.034-0.693c-0.75-0.462-1.354-1.071-1.817-1.827l0.714-0.483c0.434,0.728,1.021,1.267,1.764,1.617
			s1.533,0.525,2.373,0.525c0.742,0,1.424-0.135,2.048-0.404c0.623-0.27,1.12-0.671,1.491-1.204
			c0.372-0.533,0.557-1.187,0.557-1.962v-2.394c-0.435,0.714-1.026,1.285-1.775,1.711C105.267,14.907,104.486,15.12,103.674,15.12z
			 M103.926,14.217c0.462,0,0.91-0.084,1.344-0.252c0.434-0.168,0.833-0.396,1.197-0.683c0.364-0.287,0.665-0.605,0.903-0.956
			c0.238-0.35,0.377-0.7,0.42-1.05V7.686c-0.211-0.56-0.529-1.061-0.956-1.501c-0.427-0.441-0.907-0.784-1.438-1.029
			c-0.532-0.245-1.078-0.368-1.638-0.368c-0.658,0-1.246,0.14-1.764,0.42c-0.518,0.28-0.956,0.648-1.313,1.103
			c-0.357,0.455-0.63,0.966-0.819,1.533s-0.283,1.131-0.283,1.69c0,0.63,0.112,1.225,0.336,1.785
			c0.224,0.56,0.536,1.061,0.935,1.501s0.861,0.784,1.386,1.029C102.761,14.095,103.324,14.217,103.926,14.217z"/>
		<path d="M121.041,14.91h-1.049V8.845c0-1.394-0.2-2.415-0.6-3.063c-0.398-0.648-1.032-0.973-1.9-0.973
			c-0.615,0-1.221,0.146-1.816,0.439c-0.596,0.293-1.113,0.693-1.554,1.202c-0.44,0.509-0.76,1.083-0.956,1.724v6.736h-1.049V4.011
			h0.986v2.614c0.294-0.558,0.686-1.042,1.176-1.454c0.49-0.412,1.036-0.736,1.639-0.973c0.602-0.237,1.225-0.355,1.869-0.355
			c0.602,0,1.109,0.108,1.521,0.324c0.413,0.216,0.749,0.526,1.008,0.931c0.26,0.405,0.445,0.907,0.557,1.506
			c0.112,0.6,0.168,1.284,0.168,2.05V14.91z"/>
	</g>
</g>
<g id="font" display="none">
	<rect x="-21.953" y="7.58" display="inline" fill="none" width="263.342" height="48.801"/>
	<text transform="matrix(1 0 0 1 -21.9531 22.9102)" display="inline"><tspan x="0" y="0" font-family="'Raleway-Light'" font-size="21" letter-spacing="30">	</tspan><tspan x="36" y="0" font-family="'Raleway-Light'" font-size="21">Pelle iDesign</tspan></text>
</g>
</svg>
