<?xml version="1.0" encoding="utf-8"?>
<!-- Generator: Adobe Illustrator 16.0.0, SVG Export Plug-In . SVG Version: 6.00 Build 0)  -->
<!DOCTYPE svg PUBLIC "-//W3C//DTD SVG 1.1//EN" "http://www.w3.org/Graphics/SVG/1.1/DTD/svg11.dtd">
<svg version="1.1" id="Layer_1" xmlns="http://www.w3.org/2000/svg" xmlns:xlink="http://www.w3.org/1999/xlink" x="0px" y="0px"
	  viewBox="0 0 300 300" enable-background="new 0 0 300 300" xml:space="preserve">
<path  d="M146.383,152.971c0.252-0.268,0.469-0.605,0.652-1.015c0.184-0.406,0.276-0.79,0.276-1.147
	c0-0.151-0.042-0.27-0.125-0.357c-0.084-0.086-0.191-0.129-0.321-0.129c-0.259,0-0.551,0.182-0.875,0.543
	c-0.595,0.66-1.09,1.651-1.484,2.977c0.476-0.071,0.845-0.167,1.107-0.289C145.875,153.433,146.132,153.238,146.383,152.971z"/>
<path  d="M150,0C67.157,0,0,67.157,0,150s67.157,150,150,150c82.842,0,150-67.157,150-150S232.842,0,150,0z
	 M130.787,157.077c-0.449,0.303-0.889,0.454-1.321,0.454c-0.367,0-0.652-0.094-0.855-0.279c-0.202-0.187-0.303-0.424-0.303-0.71
	c0-0.313,0.069-0.689,0.21-1.182l1.282-4.36h-1.103l0.162-0.627c0.691-0.254,1.275-0.469,1.751-0.809
	c0.475-0.34,1.048-0.564,1.719-1.564h0.421l-0.648,2h1.062l-0.283,1h-1.046l-1.354,4.677c-0.087,0.292-0.129,0.5-0.129,0.65
	c0,0.07,0.024,0.126,0.073,0.177c0.049,0.052,0.103,0.073,0.162,0.073c0.092,0,0.187-0.038,0.284-0.114
	c0.248-0.189,0.538-0.52,0.867-0.99l0.283,0.178C131.647,156.299,131.236,156.774,130.787,157.077z M139.633,156.972
	c-0.417,0.287-0.811,0.43-1.184,0.43c-0.335,0-0.597-0.087-0.787-0.26c-0.189-0.173-0.284-0.389-0.284-0.647
	c0-0.239,0.065-0.576,0.194-1.015l1.005-3.453c0.065-0.237,0.097-0.411,0.097-0.52c0-0.06-0.022-0.112-0.069-0.158
	c-0.045-0.046-0.099-0.068-0.158-0.068c-0.195,0-0.462,0.162-0.803,0.487c-0.703,0.663-1.405,1.555-2.108,2.977L134.816,157h-2.011
	l2.66-9.01c0.108-0.389,0.162-0.591,0.162-0.759c0-0.135-0.054-0.203-0.162-0.278c-0.141-0.103-0.357-0.127-0.649-0.11l0.057-0.344
	l2.7-0.498h0.486l-2.108,7.335c0.73-1.076,1.259-1.788,1.589-2.167c0.492-0.546,0.915-0.907,1.269-1.1
	c0.354-0.191,0.693-0.284,1.018-0.284c0.275,0,0.512,0.106,0.709,0.314c0.197,0.209,0.296,0.486,0.296,0.832
	c0,0.292-0.065,0.657-0.195,1.096l-1.03,3.453c-0.091,0.303-0.137,0.506-0.137,0.608c0,0.049,0.019,0.094,0.057,0.134
	c0.038,0.04,0.081,0.062,0.129,0.062c0.065,0,0.13-0.028,0.195-0.081c0.173-0.136,0.357-0.353,0.551-0.649
	c0.049-0.075,0.126-0.189,0.235-0.341l0.316,0.179C140.49,156.158,140.049,156.686,139.633,156.972z M144.713,156.104
	c0.235,0.243,0.55,0.365,0.945,0.365c0.378,0,0.757-0.093,1.139-0.276c0.38-0.185,0.822-0.506,1.326-0.965l0.243,0.219
	c-0.622,0.752-1.227,1.286-1.816,1.605s-1.24,0.479-1.954,0.479c-0.902,0-1.527-0.217-1.873-0.648
	c-0.346-0.433-0.519-0.933-0.519-1.5c0-0.887,0.259-1.773,0.775-2.66c0.517-0.887,1.219-1.597,2.108-2.132
	c0.89-0.535,1.782-0.803,2.68-0.803c0.454,0,0.797,0.108,1.029,0.325c0.232,0.216,0.348,0.489,0.348,0.818
	c0,0.394-0.113,0.779-0.339,1.151c-0.314,0.509-0.709,0.919-1.185,1.229c-0.476,0.31-1.007,0.547-1.597,0.708
	c-0.395,0.108-0.924,0.19-1.589,0.245c-0.049,0.35-0.073,0.64-0.073,0.866C144.361,155.536,144.479,155.861,144.713,156.104z
	 M180.939,160.592c-1.151,1.259-2.436,1.887-3.854,1.887c-1.231,0-2.256-0.401-3.072-1.204s-1.225-1.753-1.225-2.851
	c0-1.446,0.724-2.705,2.169-3.774c0.989-0.75,1.485-1.406,1.485-1.968c0-0.482-0.2-0.87-0.602-1.165
	c-0.536-0.428-1.232-0.643-2.089-0.643c-2.249,0-4.363,0.909-6.345,2.73c-2.623,2.41-4.631,5.461-6.022,9.155
	c-1.393,3.694-2.088,7.201-2.088,10.521c0,2.624,0.709,4.718,2.128,6.284s3.105,2.349,5.06,2.349c1.713,0,3.566-0.441,5.562-1.325
	c1.994-0.883,3.888-2.222,5.682-4.015l1.205,1.083c-2.597,3.106-5.154,5.381-7.67,6.827c-3.347,1.927-6.813,2.892-10.4,2.892
	c-2.409,0-4.544-0.517-6.404-1.546c-1.86-1.03-3.232-2.477-4.116-4.338s-1.325-3.768-1.325-5.722c0-4.391,1.191-8.707,3.574-12.949
	c2.383-4.243,5.527-7.604,9.437-10.079c3.908-2.476,7.75-3.715,11.524-3.715c3.023,0,5.3,0.67,6.826,2.008
	c1.526,1.34,2.288,2.999,2.288,4.98C182.666,157.808,182.091,159.332,180.939,160.592z M217.541,181.17
	c0.2,0.228,0.407,0.342,0.622,0.342c0.374,0,0.736-0.161,1.084-0.481c0.964-0.777,2.234-2.344,3.814-4.698l1.365,0.964
	c-3.721,6.719-7.816,10.079-12.287,10.079c-1.66,0-2.966-0.422-3.915-1.266c-0.95-0.844-1.426-1.947-1.426-3.313
	c0-1.446,0.334-3.279,1.004-5.501l1.968-6.786c-3.48,5.06-6.01,8.473-7.59,10.238c-2.409,2.65-4.437,4.418-6.083,5.301
	c-1.646,0.884-3.219,1.326-4.718,1.326c-1.419,0-2.645-0.522-3.675-1.566c-1.03-1.045-1.546-2.369-1.546-3.976
	c0-1.365,0.335-3.198,1.005-5.501l4.537-16.063c0.749-2.623,1.124-4.391,1.124-5.3c0-0.401-0.107-0.756-0.321-1.063
	c-0.214-0.309-0.568-0.549-1.063-0.723c-0.496-0.175-1.413-0.262-2.751-0.262l0.401-1.539L202.783,149h2.41l-7.79,27.318
	c-0.376,1.258-0.563,2.135-0.563,2.616c0,0.241,0.094,0.432,0.281,0.566c0.214,0.215,0.468,0.322,0.763,0.322
	c1.231,0,2.877-1.097,4.939-3.292c2.943-3.186,6.035-7.762,9.275-13.731l3.654-12.287l10.158-0.361l-7.71,26.502
	c-0.642,2.249-0.963,3.533-0.963,3.855C217.239,180.723,217.339,180.943,217.541,181.17z M242.938,185.126
	c-2.223,1.498-4.403,2.249-6.545,2.249c-1.82,0-3.232-0.463-4.236-1.386c-1.003-0.924-1.505-2.095-1.505-3.514
	c0-1.553,0.347-3.433,1.043-5.866L238.039,155h-5.461l0.804-3.088c3.426-1.257,6.316-2.902,8.673-4.588
	c2.354-1.687,5.193-4.324,8.512-8.324h2.089l-3.213,11h5.261l-1.405,5h-5.18l-6.707,23.174c-0.428,1.445-0.642,2.486-0.642,3.234
	c0,0.349,0.12,0.621,0.361,0.876s0.508,0.366,0.803,0.366c0.455,0,0.924-0.194,1.406-0.569c1.23-0.938,2.663-2.573,4.296-4.901
	l1.405,0.881C247.194,181.272,245.159,183.626,242.938,185.126z M279.277,161c-0.215-3-1.198-5.525-2.951-7.371
	c-1.754-1.848-3.634-2.662-5.642-2.662c-1.231,0-2.249,0.415-3.052,1.138c-0.804,0.723-1.205,1.619-1.205,2.637
	c0,0.857,0.174,1.674,0.522,2.423c0.348,0.75,1.124,1.774,2.329,3.06c4.229,4.551,6.799,7.687,7.709,9.399s1.366,3.549,1.366,5.503
	c0,2.114-0.536,4.116-1.606,6.004c-1.071,1.887-2.671,3.4-4.799,4.538c-2.128,1.136-4.344,1.707-6.646,1.707
	c-1.553,0-3.467-0.31-5.742-0.924c-1.499-0.428-2.624-0.643-3.373-0.643c-0.67,0-1.191-0.087-1.565,0.113
	c-0.376,0.2-0.791,1.078-1.245,1.078h-1.485l1.968-13h1.284c0.938,3,1.813,5.549,2.63,6.928s1.908,2.477,3.273,3.294
	c1.365,0.816,2.676,1.225,3.935,1.225c1.472,0,2.69-0.461,3.654-1.385s1.445-2.028,1.445-3.313c0-1.258-0.314-2.476-0.943-3.653
	c-0.63-1.179-2.082-3.011-4.357-5.501c-3.131-3.399-5.193-6.023-6.184-7.87c-0.696-1.339-1.044-2.865-1.044-4.578
	c0-2.892,1.05-5.3,3.152-7.228c2.101-1.927,5.053-2.892,8.854-2.892c1.659,0,3.694,0.295,6.104,0.884
	c1.205,0.295,2.169,0.429,2.892,0.429c1.044,0,1.887-0.339,2.53-1.339h1.444l-1.766,12H279.277z"/>
</svg>
