<?xml version="1.0" encoding="utf-8"?>
<!-- Generator: Adobe Illustrator 16.0.0, SVG Export Plug-In . SVG Version: 6.00 Build 0)  -->
<!DOCTYPE svg PUBLIC "-//W3C//DTD SVG 1.1//EN" "http://www.w3.org/Graphics/SVG/1.1/DTD/svg11.dtd">
<svg version="1.1" id="Layer_1" xmlns="http://www.w3.org/2000/svg" xmlns:xlink="http://www.w3.org/1999/xlink" x="0px" y="0px"
	  viewBox="0 0 300.97 93.978" enable-background="new 0 0 300.97 93.978" xml:space="preserve">
<g>
	<path d="M96.468,72.893l2.351,2.117c-5.069,6.062-10.06,10.502-14.97,13.324c-6.533,3.763-13.299,5.644-20.301,5.644
		c-4.703,0-8.87-1.007-12.501-3.018c-3.633-2.011-6.31-4.833-8.034-8.465c-1.724-3.632-2.586-7.355-2.586-11.169
		c0-8.571,2.324-16.996,6.976-25.277c4.65-8.281,10.79-14.841,18.419-19.674c7.628-4.832,15.127-7.25,22.495-7.25
		c5.904,0,10.346,1.305,13.325,3.919c2.979,2.613,4.468,5.852,4.468,9.719c0,3.5-1.125,6.479-3.371,8.935
		c-2.247,2.458-4.755,3.684-7.524,3.684c-2.405,0-4.403-0.784-5.997-2.352c-1.594-1.567-2.391-3.421-2.391-5.564
		c0-2.822,1.411-5.279,4.233-7.368c1.932-1.462,2.9-2.743,2.9-3.841c0-0.94-0.392-1.697-1.176-2.272
		c-1.046-0.835-2.404-1.254-4.076-1.254c-4.389,0-8.518,1.775-12.384,5.33c-5.122,4.703-9.041,10.66-11.757,17.871
		c-2.718,7.211-4.076,14.057-4.076,20.536c0,5.122,1.383,9.209,4.154,12.267c2.769,3.057,6.061,4.584,9.875,4.584
		c3.343,0,6.962-0.862,10.855-2.586C89.269,79.007,92.966,76.393,96.468,72.893z"/>
	<path d="M150.079,19.125l-15.206,53.298c-0.732,2.458-1.097,4.154-1.097,5.095c0,0.47,0.183,0.834,0.549,1.097
		c0.418,0.418,0.913,0.627,1.489,0.627c2.402,0,5.616-2.144,9.641-6.427c5.747-6.219,11.783-15.154,18.105-26.806l7.133-23.984
		l19.83-0.706l-15.049,51.73c-1.254,4.39-1.881,6.898-1.881,7.525c0,0.419,0.196,0.85,0.588,1.293
		c0.392,0.443,0.796,0.666,1.215,0.666c0.73,0,1.437-0.313,2.115-0.94c1.881-1.517,4.362-4.574,7.446-9.171l2.665,1.881
		c-7.264,13.117-15.259,19.673-23.983,19.673c-3.241,0-5.789-0.823-7.643-2.469c-1.855-1.646-2.783-3.802-2.783-6.467
		c0-2.822,0.653-6.4,1.96-10.738l3.841-13.246c-6.793,9.875-11.731,16.538-14.813,19.987c-4.703,5.173-8.661,8.622-11.875,10.346
		c-3.213,1.725-6.284,2.586-9.21,2.586c-2.77,0-5.161-1.019-7.171-3.057c-2.012-2.038-3.018-4.625-3.018-7.76
		c0-2.664,0.653-6.243,1.959-10.738l8.856-31.352c1.462-5.122,2.195-8.57,2.195-10.346c0-0.784-0.209-1.477-0.627-2.077
		c-0.419-0.6-1.11-1.07-2.077-1.411c-0.967-0.34-2.756-0.509-5.369-0.509l0.784-2.978l26.728-4.625H150.079z"/>
	<path d="M242.725,0l-6.271,21.319h10.268l-2.743,9.014h-10.111l-13.089,45.46c-0.838,2.822-1.254,4.965-1.254,6.427
		c0,0.679,0.234,1.267,0.705,1.764c0.471,0.498,0.992,0.745,1.567,0.745c0.888,0,1.803-0.365,2.744-1.097
		c2.402-1.83,5.198-5.016,8.386-9.563l2.743,1.725c-3.605,6.27-7.577,10.867-11.913,13.795c-4.339,2.924-8.596,4.389-12.776,4.389
		c-3.554,0-6.31-0.901-8.269-2.704s-2.939-4.088-2.939-6.858c0-3.03,0.679-6.924,2.038-11.679l12.384-42.403h-10.66l1.567-5.8
		c6.688-2.457,12.332-5.33,16.931-8.622C226.63,12.619,232.169,7.317,238.648,0H242.725z"/>
	<path d="M301.039,19.125l-3.449,24.219h-2.899c-0.42-6.27-2.34-11.208-5.762-14.813c-3.423-3.605-7.093-5.408-11.012-5.408
		c-2.403,0-4.39,0.706-5.957,2.117c-1.567,1.41-2.352,3.108-2.352,5.094c0,1.673,0.34,3.241,1.02,4.703
		c0.678,1.462,2.194,3.449,4.546,5.957c8.255,8.884,13.271,14.998,15.048,18.341s2.666,6.924,2.666,10.738
		c0,4.127-1.047,8.035-3.136,11.718c-2.09,3.684-5.211,6.635-9.365,8.857c-4.154,2.218-8.479,3.331-12.973,3.331
		c-3.031,0-6.768-0.603-11.208-1.803c-2.928-0.835-5.122-1.254-6.584-1.254c-1.308,0-2.326,0.196-3.057,0.588
		c-0.733,0.392-1.542,1.215-2.431,2.469h-2.899l3.841-26.101h2.508c1.828,6.322,3.539,10.829,5.134,13.521
		c1.593,2.691,3.724,4.833,6.388,6.427c2.665,1.595,5.224,2.391,7.682,2.391c2.872,0,5.251-0.901,7.133-2.704
		c1.881-1.803,2.821-3.958,2.821-6.466c0-2.457-0.615-4.832-1.842-7.133c-1.228-2.3-4.064-5.878-8.505-10.738
		c-6.113-6.635-10.138-11.757-12.069-15.362c-1.36-2.614-2.038-5.592-2.038-8.936c0-5.644,2.05-10.346,6.153-14.108
		c4.101-3.763,9.861-5.644,17.282-5.644c3.238,0,7.211,0.576,11.914,1.725c2.351,0.576,4.231,0.862,5.643,0.862
		c2.038,0,3.684-0.862,4.938-2.587H301.039z"/>
</g>
<g>
	<g>
		<path d="M8.673,16.75l-1.267,4.305h2.073l-0.553,1.819H6.884l-2.643,9.179c-0.17,0.57-0.253,1.002-0.253,1.298
			c0,0.137,0.047,0.256,0.142,0.356c0.095,0.101,0.201,0.151,0.316,0.151c0.18,0,0.365-0.074,0.555-0.222
			c0.484-0.369,1.049-1.013,1.693-1.931l0.553,0.348c-0.727,1.267-1.53,2.195-2.406,2.786s-1.734,0.886-2.579,0.886
			c-0.717,0-1.273-0.182-1.669-0.545C0.198,34.814,0,34.353,0,33.793c0-0.611,0.135-1.398,0.41-2.357l2.502-8.563H0.759l0.317-1.171
			c1.349-0.497,2.488-1.077,3.418-1.741c0.927-0.665,2.045-1.735,3.355-3.212H8.673z"/>
		<path d="M19.037,13.331l-4.115,14.258c1.426-2.1,2.458-3.518,3.102-4.256c0.96-1.067,1.786-1.786,2.478-2.162
			c0.69-0.374,1.354-0.561,1.986-0.561c0.537,0,1,0.202,1.384,0.609c0.386,0.407,0.579,0.946,0.579,1.622
			c0,0.57-0.126,1.281-0.379,2.137l-2.011,6.74c-0.179,0.592-0.268,0.988-0.268,1.188c0,0.095,0.036,0.182,0.11,0.261
			c0.074,0.08,0.158,0.119,0.253,0.119c0.126,0,0.253-0.052,0.38-0.158c0.338-0.264,0.697-0.686,1.076-1.266
			c0.095-0.148,0.248-0.37,0.46-0.665l0.617,0.349c-0.908,1.498-1.769,2.527-2.579,3.085c-0.814,0.561-1.583,0.839-2.313,0.839
			c-0.654,0-1.165-0.168-1.534-0.506c-0.369-0.338-0.555-0.76-0.555-1.267c0-0.464,0.126-1.123,0.379-1.979l1.963-6.74
			c0.126-0.464,0.19-0.802,0.19-1.013c0-0.118-0.044-0.22-0.134-0.309c-0.089-0.089-0.193-0.134-0.309-0.134
			c-0.38,0-0.901,0.316-1.566,0.95c-1.372,1.296-2.743,3.334-4.114,6.107l-1.41,4.702H8.781l5.192-17.884
			c0.21-0.76,0.316-1.302,0.316-1.631c0-0.262-0.106-0.469-0.316-0.617c-0.274-0.2-0.697-0.285-1.267-0.253l0.111-0.633l5.27-0.933
			H19.037z"/>
		<path d="M31.479,29.347c-0.095,0.685-0.142,1.25-0.142,1.693c0,0.791,0.229,1.424,0.688,1.899
			c0.459,0.475,1.073,0.713,1.845,0.713c0.737,0,1.479-0.181,2.223-0.54c0.743-0.359,1.605-0.986,2.588-1.883l0.474,0.427
			c-1.213,1.468-2.395,2.511-3.545,3.135c-1.15,0.621-2.421,0.933-3.813,0.933c-1.762,0-2.981-0.422-3.657-1.266
			c-0.675-0.844-1.013-1.819-1.013-2.928c0-1.73,0.505-3.461,1.512-5.191c1.008-1.73,2.38-3.118,4.115-4.162
			c1.736-1.044,3.479-1.566,5.232-1.566c0.886,0,1.555,0.211,2.009,0.633c0.454,0.422,0.68,0.954,0.68,1.598
			c0,0.771-0.221,1.519-0.664,2.247c-0.613,0.992-1.383,1.792-2.312,2.398c-0.928,0.606-1.967,1.067-3.117,1.384
			C33.811,29.082,32.776,29.242,31.479,29.347z M31.621,28.524c0.928-0.139,1.649-0.326,2.161-0.563
			c0.511-0.238,1.013-0.618,1.502-1.14c0.492-0.522,0.915-1.182,1.274-1.979c0.358-0.796,0.54-1.544,0.54-2.24
			c0-0.296-0.083-0.528-0.246-0.697c-0.164-0.169-0.373-0.253-0.625-0.253c-0.506,0-1.077,0.354-1.709,1.061
			C33.357,24.002,32.391,25.938,31.621,28.524z"/>
	</g>
</g>
</svg>
