<svg version="1.1" id="Layer_1" xmlns="http://www.w3.org/2000/svg" xmlns:xlink="http://www.w3.org/1999/xlink" x="0px" y="0px"
	 viewBox="0 0 100 100" enable-background="new 0 0 100 100" xml:space="preserve">
<path d="M98.11,88.718L71.977,62.586c4.583-6.449,7.289-14.32,7.289-22.816c0-21.769-17.713-39.482-39.486-39.482
	c-21.77,0-39.482,17.713-39.482,39.482c0,21.774,17.713,39.487,39.482,39.487c8.495,0,16.366-2.707,22.814-7.289l26.134,26.134
	c1.295,1.296,2.988,1.944,4.691,1.944c1.701,0,3.396-0.648,4.691-1.944C100.703,95.51,100.703,91.311,98.11,88.718z M7.373,39.77
	c0-17.868,14.538-32.406,32.406-32.406c17.869,0,32.4,14.538,32.4,32.406c0,17.869-14.531,32.401-32.4,32.401
	C21.911,72.171,7.373,57.639,7.373,39.77z"/>
</svg>
