<?xml version="1.0" encoding="utf-8"?>
<!-- Generator: Adobe Illustrator 16.0.0, SVG Export Plug-In . SVG Version: 6.00 Build 0)  -->
<!DOCTYPE svg PUBLIC "-//W3C//DTD SVG 1.1//EN" "http://www.w3.org/Graphics/SVG/1.1/DTD/svg11.dtd">
<svg version="1.1" id="Layer_1" xmlns="http://www.w3.org/2000/svg" xmlns:xlink="http://www.w3.org/1999/xlink" x="0px" y="0px"
	  viewBox="0 0 1181.037 405.292" enable-background="new 0 0 1181.037 405.292" fill="#f5f5f5"
	 xml:space="preserve">
<g>
	<path  d="M186,0.004C33.542-0.521,0,50.051,0,168.273c0,7.771,0.148,15.246,0.457,22.45v214.568h81.392v-79.859
		c26.168,8.915,60.131,13.221,103.972,13.221c153.352,0,186.906-48.978,186.362-170.379C371.677,50.595,339.173,0.538,186,0.004z
		 M185.947,263.683c-85.154,0-103.554-29.088-103.554-94.943c0-65.881,18.697-94.055,103.65-93.77
		c85.348,0.299,103.46,28.184,103	.751,93.77C290.09,236.384,271.391,263.683,185.947,263.683z"/>
	<path  d="M592.098,0.207C439.647-0.317,406.091,50.262,406.091,168.475c0,118.21,33.024,170.399,185.834,170.399
		c153.35,0,186.9-48.995,186.359-170.399C777.779,50.792,745.275,0.746,592.098,0.207z M592.049,263.904
		c-85.153,0-103.565-29.087-103.565-94.957c0-65.872,18.708-94.063,103.654-93.767c85.356,0.297,103.469,28.186,103.757,93.767
		C696.194,236.594,677.495,263.904,592.049,263.904z"/>
	<path  d="M996.522,263.904c-85.15,0-103.557-29.087-103.557-94.957c0-65.872,18.693-94.063,103.649-93.767
		c65.375,0.221,91.299,16.636,99.99,53.771h84.432c-8.34-89.473-49.696-128.27-184.463-128.744
		C844.121-0.317,810.576,50.262,810.576,168.475c0,118.21,33.01,170.399,185.832,170.399c133.04,0,175.903-36.884,184.583-125.943
		l-84.869,0.018C1086.833,248.722,1060.23,263.904,996.522,263.904z"/>
</g>
</svg>
