<?xml version="1.0" encoding="utf-8"?>
<!-- Generator: Adobe Illustrator 16.0.0, SVG Export Plug-In . SVG Version: 6.00 Build 0)  -->
<!DOCTYPE svg PUBLIC "-//W3C//DTD SVG 1.1//EN" "http://www.w3.org/Graphics/SVG/1.1/DTD/svg11.dtd">
<svg version="1.1" id="Layer_1" xmlns="http://www.w3.org/2000/svg" xmlns:xlink="http://www.w3.org/1999/xlink" x="0px" y="0px"
	  viewBox="167.039 177.399 2092.297 2098.14"
	 enable-background="new 167.039 177.399 2092.297 2098.14" xml:space="preserve" fill="#262626"> <!-- was282828 -->
<polygon  points="1525.077,2186.396 1476.38,2015.994 1506.88,2007.008 1516.457,2041.191 1554.619,2030.286 
	1535.391,1963.246 1355.708,2015.036 1374.937,2081.93 1413.025,2071.028 1403.448,2036.844 1433.948,2027.93 1482.644,2198.623 
	1452.144,2207.243 1461.794,2240.396 1565.229,2210.559 1555.577,2177.776 "/>
<path  d="M1200.558,2254.983c17.902,15.545,40.74,22.175,66.6,19.891c46.044-3.978,73.597-37.129,69.618-82.584
	c-3.609-42.065-30.205-58.643-81.26-68.66l-30.204-5.969c-20.187-3.978-30.132-10.239-31.162-27.184
	c-1.621-16.871,10.607-32.194,32.782-34.109c25.195-1.988,42.804,10.902,53.043,39.119l34.109-3.021l-6.262-72.935l-34.11,3.021
	l1.326,15.913c-14.586-11.936-35.141-17.533-57.684-15.545c-42.141,3.609-70.944,36.467-67.335,76.249
	c3.021,36.173,25.933,54,69.251,62.324l28.879,5.305c29.468,5.674,44.718,14.588,46.412,34.479
	c1.693,20.187-13.852,38.161-36.468,40.076c-29.174,2.284-50.686-14.22-62.987-48.771l-35.143,3.021l7.294,83.247l35.142-3.314
	L1200.558,2254.983L1200.558,2254.983z"/>
<polygon  points="795.739,2197.961 959.213,2251.004 981.756,2182.049 943.595,2169.82 931.66,2206.285 
	873.315,2187.353 928.05,2018.942 956.562,2028.225 967.464,1995.442 871.989,1964.279 861.452,1996.767 886.281,2005.018 
	831.542,2173.797 806.42,2165.545 "/>
<polygon  points="571.337,2080.31 719.859,2166.136 756.325,2103.148 721.847,2083.256 702.25,2116.482 
	649.207,2085.907 737.759,1932.451 763.912,1947.406 781.153,1917.496 693.999,1867.475 677.055,1896.944 699.966,1910.203 
	611.119,2063.734 588.282,2050.768 "/>
<polygon  points="1850.038,735.306 1946.473,895.76 2008.798,858.336 1988.244,824.226 1955.387,844.043 
	1915.606,778.109 1983.236,737.295 2017.049,794.022 2048.58,774.793 2014.765,718.435 2067.441,686.61 2107.958,753.869 
	2080.112,770.815 2099.634,803.599 2157.024,769.119 2060.811,608.666 2031.268,626.274 2044.898,648.817 1892.768,740.316 
	1879.138,717.772 "/>
<path  d="M1733.933,595.111c1.031,23.501,11.566,44.718,30.796,61.957c34.478,31.163,77.205,28.584,107.705-5.304
	c28.512-31.458,22.543-61.957-4.937-106.086l-16.207-26.153c-10.903-17.533-12.893-29.174-1.621-41.402
	c11.271-12.893,30.868-13.924,47.444,1.031c18.933,16.87,21.512,38.456,7.956,65.346l25.489,22.839l48.771-54.369l-25.563-22.911
	l-10.607,11.935c-1.326-18.934-10.903-37.793-27.849-53.043c-31.457-28.511-75.586-26.89-102.106,2.652
	c-24.164,26.89-21.88,55.694,1.989,93.487l15.545,24.531c16.207,25.564,19.891,42.729,6.63,57.316
	c-13.555,15.25-37.13,15.912-54.369,0.663c-21.512-19.229-24.237-46.413-7.293-78.901l-26.153-23.869l-55.693,61.957l26.151,23.501
	L1733.933,595.111L1733.933,595.111z"/>
<polygon  points="1242.993,425.372 1427.98,454.842 1439.25,382.94 1400.132,376.604 1394.164,414.765 
	1317.915,402.829 1330.146,324.887 1395.491,335.2 1401.089,298.734 1336.113,288.42 1345.763,227.789 1423.338,240.019 
	1418.034,271.844 1455.827,278.18 1466.436,211.876 1281.449,182.629 1276.072,216.518 1302.297,220.496 1274.45,395.831 
	1248.591,391.559 "/>
<polygon  points="1090.126,440.918 1119.667,437.309 1167.407,213.202 1183.983,211.213 1180.004,177.399 
	1097.124,187.344 1101.399,221.453 1124.31,218.507 1095.798,358.406 1033.769,229.779 1056.016,227.126 1051.744,192.944 
	966.506,203.552 970.486,237.366 987.651,235.377 "/>
<polygon  points="821.891,475.102 771.575,336.822 928.345,477.753 963.118,465.156 889.3,261.604 914.126,252.616 
	902.194,220.496 813.64,252.616 825.281,284.811 850.108,275.823 893.204,394.506 755.956,273.833 685.379,299.397 696.947,331.518 
	721.847,322.604 782.479,489.394 757.652,498.308 769.585,530.428 858.065,498.308 846.423,466.114 "/>
<path  d="M368.744,699.206l18.563-31.456l-70.28-42.141l-18.565,31.162l17.902,9.946
	c-20.85,3.608-40.74,18.933-55.99,44.128c-36.467,61-20.554,133.934,44.719,173.421c62.988,37.793,137.616,19.597,175.704-44.129
	c27.186-45.381,21.218-98.424-16.87-136.585l-21.881,36.467c17.902,28.511,19.229,52.085,3.315,78.9
	c-25.49,42.065-71.902,52.748-116.399,25.858c-44.719-26.521-57.315-72.934-32.194-115.073
	C312.385,703.481,337.949,692.207,368.744,699.206L368.744,699.206z"/>
<path  d="M719.49,1800.804l465.817-297.998l466.408,297.998l-162.738-516.433l423.313-300.06H1382.23l-196.922-572.2
	l-194.27,572.2H459.284l425.006,300.06L719.49,1800.804z"/>
<path  d="M2254.785,1375.135c-4.938-5.6-13.262-7.883-24.533-6.631c-8.619,1.031-19.891,7.662-29.468,13.924
	c-1.937-5.672-5.373-10.713-9.945-14.587c-14.587-12.966-37.13-11.271-39.782-10.903h-0.958
	c-30.499-4.346-62.692,39.782-74.923,59.011c-2.651,3.979-13.629,11.936-22.912,19.229c-6.247,4.431-12.342,9.073-18.27,13.924
	c-15.25,12.598-23.207,13.924-28.511,12.893c-0.663-1.621-1.989-7.956,2.651-25.857c13.262-10.313,23.869-19.229,28.143-24.532
	l4.937-5.968c36.467-43.393,74.261-91.13,78.901-114.042c2.651-13.629,5.304-37.793-8.915-45.086
	c-3.683-1.989-13.261-5.011-23.501,6.925c-12.598,13.924-67.334,87.226-87.521,138.28c-3.314,8.913-9.944,23.868-12.229,30.793
	l-12.598,9.65c5.305-9.282,25.857-29.836,11.271-40.443c-5.242-3.433-12.273-1.964-15.705,3.279
	c-0.071,0.108-0.141,0.219-0.207,0.329c-13.261,21.512-44.719,50.687-55.032,60.336c-15.25,14.587-15.912,14.955-27.848,13.629
	c-1.031-3.684,0.295-14.586,3.315-24.236c11.641-11.271,24.237-25.49,36.835-43.098c3.604-5.239,2.435-12.391-2.651-16.208
	c-5.264-3.611-12.438-2.443-16.281,2.652c-22.543,31.825-46.413,51.054-75.586,74.628c-5.305,4.273-17.166,9.282-24.827,7.294
	c-1.926-8.898-0.997-18.18,2.651-26.521l20.26-19.893c2.284-2.356,13.557-14.587,11.566-28.879
	c-1.438-8.223-6.722-15.261-14.219-18.934c-22.248-11.936-41.107-7.293-62.693,0c-10.314,3.314-24.532,12.304-50.096,33.814
	c-8.977,7.767-18.164,15.283-27.554,22.543c15.249-36.467,43.761-107.116,50.392-123.619c2.771-2.718,5.779-5.183,8.987-7.366
	c14.954-4.272,29.174-10.608,40.444-19.522c4.349-3.396,5.622-9.428,3.021-14.292c-2.419-4.91-7.981-7.414-13.262-5.968
	c-1.03,0.295-20.923,5.968-40.149,18.564c-37.793,9.577-81.85,5.305-82.511,5.305c-6.327-0.65-11.984,3.95-12.636,10.276
	c-0.65,6.327,3.95,11.983,10.276,12.635l0,0c1.989,0.368,29.542,3.021,61.368-0.662c-17.635,45.029-35.981,89.777-55.032,134.228
	l-0.442,0.442c-6.262-3.685-12.598-11.271-20.554-22.543l-4.347-6.262c-5.967-7.662-12.599-11.272-19.892-10.314
	c-11.641,1.031-18.271,13.629-23.868,25.195c-5.306,11.64-4.643,26.152,1.325,40.444c5.404,13.593,16.014,24.466,29.469,30.205
	c20.554,7.293,38.456-13.924,49.728-31.531c5.1-0.84,10.025-2.507,14.587-4.936c3.685-2.357,7.956-5.306,12.304-8.325
	c0.662,3.61,1.325,7.294,2.946,10.978c5.086,11.267,15.39,19.311,27.554,21.513c17.238,3.683,42.435-10.609,56.727-19.892
	c0.294,10.607,3.609,20.186,13.261,24.531c18.564,6.926,40.445-3.021,50.097-10.977c2.651-1.989,7.661-5.673,16.207-12.303
	c0.218,4.98,1.578,9.847,3.979,14.218c3.444,5.275,9.008,8.797,15.25,9.65c3.315,0.295,5.967,0.663,8.619,0.663
	c-12.654,9.899-24.414,20.896-35.141,32.856c-9.945,12.304-29.469,49.359-21.218,64.978c1.621,3.61,4.937,6.632,9.282,7.662
	c7.956,2.357,20.554-1.989,29.174-8.325c37.426-26.151,54.663-47.369,64.979-94.149c1.55-5.021,3.78-9.806,6.63-14.219
	c11.935-8.619,24.238-17.239,35.436-25.49c0,8.251,1.621,13.556,3.685,16.871c2.947,5.967,8.251,9.944,14.587,11.271
	c15.25,3.314,29.837-1.988,48.77-17.606c6.264-4.938,13.631-10.314,19.893-15.25c0.663,2.651,1.326,4.936,1.989,6.999
	c4.339,9.354,12.825,16.121,22.911,18.27c17.238,4.273,53.042-34.109,60.998-50.096c3.315-7.293,15.25-27.553,15.545-44.718
	c1.989,0.957,4.348,1.988,5.969,3.313c1.62,1.326,3.608,3.979,3.978,9.283c0.664,18.27-20.554,51.054-34.183,67.335
	c-3.961,4.915-3.378,12.071,1.326,16.281c4.915,3.961,12.07,3.378,16.28-1.326c3.609-4.348,29.174-35.511,37.131-64.979
	c7.293-5.968,24.825-20.555,35.436-20.555c-0.09,6.347,4.982,11.563,11.329,11.654c5.191,0.072,9.789-3.346,11.214-8.339
	C2260.447,1387.851,2259.096,1380.609,2254.785,1375.135L2254.785,1375.135z M1628.878,1477.611
	c-5.967-1.989-12.229-9.282-15.912-17.901c-3.314-7.957-3.979-16.281-1.621-21.513c1.5-3.356,3.273-6.585,5.306-9.649
	c0.663,1.326,1.989,2.651,2.946,4.641c5.673,7.662,14.954,20.85,27.185,28.806
	C1634.479,1478.569,1628.879,1477.611,1628.878,1477.611L1628.878,1477.611z M1732.975,1464.35
	c-5.304-1.326-9.281-3.979-10.902-8.251c-2.651-5.967-1.031-14.292,4.347-22.911c0.295-0.663,1.031-1.621,1.031-2.652l3.61-3.021
	c12.598-10.608,32.192-27.186,37.793-28.511c4.616-0.446,9.182-1.334,13.629-2.652c11.565-2.651,25.194-5.599,35.436,0
	c1.621,1.032,2.284,1.621,2.284,1.989c0.294,1.621-2.284,6.263-4.938,9.282c0,0-30.499,30.132-35.141,34.847
	C1763.771,1454.405,1740.932,1465.971,1732.975,1464.35L1732.975,1464.35z M1882.452,1551.869
	c-6.262,5.306-14.586,12.599-22.175,16.208c3.609-9.281,9.282-20.849,14.955-28.143c6.631-7.956,22.544-21.88,37.13-33.521
	C1905.071,1525.644,1895.713,1541.557,1882.452,1551.869L1882.452,1551.869z M2098.971,1276.048c0,3.021-0.663,6.63-1.693,10.902
	c-1.621,9.282-15.25,33.814-69.619,99.16C2048.212,1345.666,2083.721,1295.939,2098.971,1276.048L2098.971,1276.048z
	 M2134.776,1414.621c-13.262,19.229-30.131,37.426-36.836,39.414c-2.732-0.6-5.04-2.419-6.263-4.937
	c-1.62-3.979,0-10.903,4.348-18.934c0.929-1.85,1.384-3.898,1.325-5.968c16.281-24.164,38.161-46.044,49.064-44.423h0.368
	C2148.33,1384.784,2142.364,1401.362,2134.776,1414.621z"/>
<path  d="M796.402,1267.723c-26.521-6.63-57.021,43.098-61.662,52.38c-3.609,8.251-11.936,28.511-20.922,50.391
	c-7.175,18.794-14.913,37.368-23.206,55.695c-0.91,2.187-2.021,4.281-3.315,6.262c-15.177,16.649-28.143,29.91-32.415,33.89
	c-10.903,9.576-39.487,28.511-56.727,26.89c-7.293-0.663-9.282-11.64-5.306-17.902c5.024-7.62,10.667-14.814,16.871-21.512
	c8.987-9.282,22.911-17.238,27.554-17.238c3.608,1.989,2.946,9.282,2.283,12.229c-1.031,6.335,3.314,11.935,9.577,13.261
	c6.276,0.894,12.135-3.339,13.261-9.577c3.021-17.238-3.021-31.531-16.28-37.499c-17.534-7.293-44.129,12.968-53.411,23.207
	c-4.568,4.937-10.24,12.599-16.871,21.218c-8.302,12.045-17.618,23.356-27.848,33.813c-3.314,3.315-8.619,6.925-14.219,6.262
	c-4.642-0.663-8.987-3.978-12.304-9.577c-2.65-4.346,6.631-23.573,20.923-41.401c5.6-5.306,9.282-13.924,1.989-20.261
	c-8.325-6.63-14.292-0.662-19.597,5.306c-19.522,23.574-43.76,48.401-50.022,52.38c-9.944,6.262-17.9,15.913-26.89,7.661
	c-1.62-3.979,3.315-15.249,11.642-28.51c8.618-8.62,17.237-19.229,23.868-32.194c2.794-5.152,1.233-11.582-3.609-14.882
	c-4.825-3.408-11.46-2.543-15.25,1.989c-8.608,9.871-16.581,20.279-23.869,31.162c-9.577,9.577-20.187,17.239-30.131,24.237
	c-9.53,6.323-18.523,13.42-26.891,21.218c-7.294,7.293-10.607,8.914-11.935,9.282c-1.4-1.03-3.685-4.642-5.673-6.999
	c-1.621-8.914,16.648-45.749,27.553-57.684c5.599-5.6,13.629-12.229,9.577-21.218c-4.348-9.577-13.925-6.63-22.176-6.63
	c-7.662,0-25.933,11.271-54.073,33.52c3.978-7.661,8.323-15.544,12.598-24.532c48.401-43.097,116.031-106.748,126.271-133.27
	c5.305-13.261,9.282-28.144,1.399-37.425c-6.998-7.957-17.607-5.674-22.248-4.643c-0.295,0.295-1.326,0.295-1.326,0.295
	c-12.303,2.357-67.63,38.161-107.412,128.334c-4.749,10.983-9.834,21.818-15.25,32.489c-13.261,14.218-28.142,28.51-42.064,39.782
	c-12.599,9.944-75.955,50.391-86.489,19.891c-5.305-15.766-2.284-45.896,14.587-76.396c23.206-41.771,91.498-89.878,107.411-94.445
	c10.902-3.021,19.597-4.937,21.88,1.62c0.663,10.902-1.988,34.109-12.893,42.729c-5.968,5.011-14.955,9.282-21.218,3.685
	c2.566-5.852,5.913-11.327,9.946-16.281c3.95-4.892,3.367-12.022-1.326-16.208c-4.916-3.961-12.072-3.378-16.281,1.326
	c-7.662,9.282-23.207,31.458-10.903,45.087c9.577,11.64,29.836,19.228,54,0.663c23.206-18.934,24.238-59.379,20.556-71.978
	c-5.306-20.554-34.479-17.606-50.098-12.966c-24.531,6.998-96.14,59.969-121.335,105.791c-17.901,32.194-24.236,68.955-16.28,94.15
	c2.562,10.027,9.33,18.461,18.563,23.133c27.186,12.966,74.924-10.902,100.487-31.825c-6.22,10.548-13.213,20.618-20.923,30.132
	c-3.979,4.347-3.609,11.271,0.663,15.617c4.272,4.348,11.271,4.567,15.545,0.663c25.489-22.543,55.03-46.78,74.923-61.662
	c-11.271,19.892-22.249,46.781-12.966,60.337c5.304,7.957,11.271,16.87,22.543,17.901c9.281,0.663,18.271-3.979,30.5-16.281
	c6.63-6.631,15.544-12.893,24.826-19.521c0.294,6.63,1.62,13.261,7.293,16.87c24.237,15.25,35.437,9.577,43.762,4.347
	c8.535-5.417,16.441-11.768,23.573-18.934c4.85,14.01,16.926,24.28,31.531,26.815c12.246,1.162,24.352-3.344,32.856-12.229
	c3.314-3.021,6.263-6.336,9.282-9.65c0.957,1.325,1.62,3.021,2.651,4.348c4.642,6.63,11.936,10.607,20.555,11.271
	c16.649,1.326,34.846-6.631,49.064-14.955c-3.178,5.452-6.595,10.763-10.24,15.912c-3.604,5.24-2.435,12.39,2.652,16.208
	c5.304,3.684,12.598,2.357,16.28-2.652c1.989-3.314,14.22-22.175,26.521-42.435c3.011,2.536,6.356,4.643,9.945,6.263
	c0.295,11.641,2.651,30.204,16.28,36.835c17.533,8.914,36.1,2.652,50.392-3.684c38.161-17.533,38.161-24.237,38.161-28.511
	c0.164-6.265-4.78-11.475-11.044-11.639c-0.174-0.005-0.349-0.006-0.522-0.002c-3.325-0.037-6.491,1.424-8.619,3.979
	c-2.651,1.989-14.955,9.577-27.553,15.25c-14.219,6.262-23.206,7.661-30.5,3.978c0-0.294,0,0,0,0
	c-1.325-1.324-2.357-5.672-3.021-10.607c9.096-0.521,17.946-3.145,25.857-7.661c12.894-7.294,23.575-18.86,26.153-28.144
	c1.621-5.967,4.347-14.219,0-22.91c-4.643-8.252-13.629-11.642-20.187-13.631c-7.294-1.987-16.208-0.293-25.194,2.284
	c28.511-31.457,59.747-68.587,66.304-85.53c2.651-6.999,6.262-14.292,9.945-21.513c8.986-19.229,16.574-34.184,11.271-45.75
	C805.599,1272.447,801.39,1269.091,796.402,1267.723L796.402,1267.723z M475.198,1485.862c0,0,0.295,0,0.958-0.294
	C475.862,1485.862,475.493,1485.862,475.198,1485.862z M693.336,1469.285v0.368V1469.285z M448.013,1270.079
	c-0.663,2.357-1.621,5.969-3.609,10.608c-5.673,14.587-39.487,49.729-78.901,86.563
	C401.601,1295.939,442.708,1272.733,448.013,1270.079L448.013,1270.079z M739.748,1450.131c3.021,0.958,4.642,1.988,5.673,2.283
	c-0.368,1.326-1.031,3.979-1.621,5.306v0.294c-1.988,5.305-19.891,22.912-36.467,18.271c-8.619-2.356-12.303-5.673-13.629-7.293
	C710.575,1458.383,732.455,1448.437,739.748,1450.131L739.748,1450.131z M765.24,1336.384c-3.021,7.662-14.587,22.912-29.174,40.444
	c7.956-19.597,16.208-39.486,19.597-46.78c6.63-13.556,20.187-29.469,29.174-36.468c-2.682,6.637-5.656,13.15-8.914,19.522
	C772.239,1320.766,768.259,1328.428,765.24,1336.384L765.24,1336.384z"/>
<path  d="M1949.124,1922.875l-58.347-52.748l15.25-16.87c27.553-30.5,42.14-23.206,68.292,0.295l46.045,41.401
	l45.455-50.391l-25.49-22.911l-15.619,17.238l-38.455-34.479c-19.892-17.606-36.099-18.564-55.032-2.651
	c11.936-27.553,7.884-49.434-12.303-67.335c-33.814-30.499-66.599-20.187-106.381,23.575l-67.629,75.218l25.194,22.911
	l17.606-19.598l131.944,119.053l-17.607,19.597l25.563,22.911l66.967-74.628l-25.563-22.912L1949.124,1922.875L1949.124,1922.875z
	 M1817.181,1804.117l21.513-23.869c19.596-21.88,35.804-26.521,53.411-10.902c17.533,15.913,14.587,32.489-5.306,54.369
	l-21.217,23.869L1817.181,1804.117z"/>
<path  d="M1702.108,2112.799l-12.599-45.455l64.021-43.394l37.425,28.807l-21.881,14.587l19.229,28.51l77.207-52.379
	l-19.154-28.143l-18.564,12.598l-149.552-113.084l23.206-15.913l-18.859-28.437l-104.465,70.575l18.934,28.143l22.176-14.881
	l47.737,181.966l-16.28,10.978l19.302,28.143l72.934-49.064l-18.858-28.437L1702.108,2112.799z M1679.271,2032.865l-23.575-84.5
	l69.619,53.338L1679.271,2032.865z"/>
<path  d="M410.22,1887.66l42.804-20.187l53.632,55.399l-21.88,42.066l-18.197-18.934l-24.532,23.574l64.609,66.967
	l24.532-23.574l-15.544-16.207l85.53-167.085l19.522,20.554l24.532-23.869l-87.446-90.541l-24.533,23.574l18.492,19.229
	l-170.695,78.531l-13.555-13.85l-24.533,23.501l60.926,63.651l24.9-23.869L410.22,1887.66z M484.776,1851.195l79.563-37.793
	l-40.74,77.943L484.776,1851.195z"/>
<path  d="M1544.305,465.449l34.479-70.576l20.555,10.24c36.835,17.901,33.814,33.814,18.271,65.714l-26.891,55.327
	l60.999,29.836l14.955-30.794l-21.217-10.313l22.543-46.412c11.936-23.869,7.957-39.782-12.598-53.411
	c29.837,3.61,49.728-6.262,61.662-30.5c19.892-40.739,1.03-69.986-52.085-95.771l-91.204-44.423l-14.882,30.794l23.501,11.565
	l-77.943,159.497l-23.427-11.566l-14.882,30.794l89.805,43.762l14.955-30.795L1544.305,465.449L1544.305,465.449z M1621.88,306.028
	l29.174,13.924c26.228,12.967,35.142,27.186,24.9,48.401s-27.186,22.911-53.411,9.945l-28.806-13.925L1621.88,306.028
	L1621.88,306.028z"/>
<path  d="M463.263,629.883c47.738,53.043,125.978,58.348,181.01,8.62c28.51-25.49,43.392-57.316,43.76-93.488
	c0.621-32.44-11.247-63.879-33.151-87.815c-24.515-27.656-59.849-43.28-96.804-42.803c-31.162,0-59.673,11.64-84.5,34.184
	C418.176,498.676,415.156,576.546,463.263,629.883L463.263,629.883z M498.035,598.426c-34.479-38.161-30.132-88.848,3.314-118.685
	c33.521-30.499,84.5-29.174,118.684,8.988c34.184,37.719,30.5,88.109-3.609,118.978C582.61,637.84,531.85,636.219,498.035,598.426z"
	/>
</svg>
