<?xml version="1.0" standalone="no"?>
<!DOCTYPE svg PUBLIC "-//W3C//DTD SVG 20010904//EN"
 "http://www.w3.org/TR/2001/REC-SVG-20010904/DTD/svg10.dtd">
<svg version="1.0" xmlns="http://www.w3.org/2000/svg"
 width="700.000000pt" height="700.000000pt" viewBox="0 0 700.000000 700.000000"
 preserveAspectRatio="xMidYMid meet">
<metadata>
Created by potrace 1.14, written by Peter Selinger 2001-2017
</metadata>
<g transform="translate(0.000000,700.000000) scale(0.100000,-0.100000)"
fill="#000000" stroke="none">
<path d="M0 3500 l0 -3500 3500 0 3500 0 0 3500 0 3500 -3500 0 -3500 0 0
-3500z m4384 2642 c541 -115 987 -452 1224 -927 64 -128 94 -207 126 -325 114
-424 71 -856 -122 -1234 -202 -397 -577 -678 -1116 -837 -94 -27 -113 -30
-145 -20 -21 6 -45 19 -55 29 -22 25 -198 401 -192 411 3 4 31 13 63 20 185
41 461 144 590 219 255 149 419 364 489 639 182 720 -295 1430 -1031 1532 -79
11 -1755 16 -1755 5 0 -3 502 -1082 1116 -2397 614 -1316 1118 -2400 1121
-2411 6 -17 -3 -18 -193 -14 -177 4 -206 7 -259 27 -86 33 -166 118 -224 236
-171 351 -2331 5000 -2331 5017 0 12 8 30 17 40 16 18 59 19 1292 16 l1276 -3
109 -23z m-2902 -889 c8 -10 476 -1006 1038 -2213 563 -1207 1025 -2199 1027
-2203 3 -5 -89 -7 -203 -5 -202 3 -211 4 -266 30 -75 35 -148 104 -186 176
-16 31 -400 850 -851 1820 -614 1316 -825 1778 -833 1822 -7 41 -7 74 1 109
11 52 165 447 183 469 15 18 72 15 90 -5z"/>
</g>
</svg>
