<?xml version="1.0" encoding="utf-8"?>
<!-- Svg Vector Icons : http://www.onlinewebfonts.com/icon -->
<!DOCTYPE svg PUBLIC "-//W3C//DTD SVG 1.1//EN" "http://www.w3.org/Graphics/SVG/1.1/DTD/svg11.dtd">
<svg version="1.1" xmlns="http://www.w3.org/2000/svg" xmlns:xlink="http://www.w3.org/1999/xlink" x="0px" y="0px" viewBox="0 0 1000 1000" enable-background="new 0 0 1000 1000" xml:space="preserve">
<metadata> Svg Vector Icons : http://www.onlinewebfonts.com/icon </metadata>
<g><path d="M509.3,536.8c1.1-1.1,2.5-2.2,4-3.8V505l-4-4h-35v29.4l6.3,6.4H509.3z"/><path d="M583.9,536.8l9.5-8.9V473c-3.3-3.3-5.9-6.1-9.6-9.8h-22.5l-9.5,9.5v55.1c3.3,3.2,6,5.4,9.6,8.9H583.9z"/><path d="M500,10C229.4,10,10,229.4,10,500c0,270.6,219.4,490,490,490c270.6,0,490-219.4,490-490C990,229.4,770.6,10,500,10z M774.3,502.1c0,147.1-119.9,266.7-267.2,266.7c-100.6,0-188.1-55.9-233.7-138.2l-10.1,91.8c-1.1,10.3-10.4,17.8-20.8,16.7c-9.7-1.1-16.8-9.2-16.8-18.7c0-0.7,0-1.4,0.1-2.1l14.5-132.1c0.5-5,3-9.5,6.9-12.6c3.9-3.1,8.9-4.6,13.9-4l132.3,14.5c10.4,1.1,17.8,10.4,16.7,20.8c-1.1,10.3-10.4,17.8-20.8,16.7l-83-9.1c39,70.7,114.2,118.7,200.8,118.7c126.7,0,229.5-102.6,229.5-229.1c0-1.2-0.2-2.3-0.2-3.4l0.4,0c1.2-9.3,9-16.4,18.6-16.4c9.4,0,17.2,6.9,18.6,16l0.1,0c0,0.6,0,1.2,0.1,1.8c0,0.4,0.1,0.7,0.1,1.1c0,0.1,0,0.2,0,0.3C774.2,501.6,774.3,501.9,774.3,502.1z M430.4,505.1h-35v-11.2h34.8l7.1-9.6v-10.7c-2.9-3.5-5.2-6.4-8.5-10.2h-33.4v-11.2h38.2l14.8,17.2v18.3l-8.5,11.6l8.5,9.6v22.5l-14.8,16.5h-38.2v-11.2h33.2c2.9-3.3,5.3-6.1,8.7-9.8v-14C435.3,510.7,432.7,507.9,430.4,505.1z M513.8,489.7l10.7,10.7v37l-10.7,10.5h-38.2l-12.4-13v-70.2l12.7-12.6H522v11.2h-41.7l-6,5.9v20.5H513.8z M540.7,532.6v-64.3l16.2-16.2h31.5l16.2,16v64.5l-16.5,15.4h-31.4L540.7,532.6z M774.2,281.6l-14.5,132.1c-0.5,5-3,9.5-6.9,12.6c-3.9,3.1-8.9,4.6-13.9,4l-132.3-14.5c-10.4-1.1-17.8-10.4-16.7-20.8c1.1-10.3,10.5-17.8,20.8-16.7l83,9.1c-39-70.7-114.2-118.7-200.8-118.7c-126.7,0-229.5,102.6-229.5,229.1c0,1.2,0.2,2.3,0.2,3.4l-0.4,0c-1.2,9.3-9,16.4-18.6,16.4c-9.4,0-17.2-6.9-18.6-16h-0.1c0-0.6-0.1-1.2-0.1-1.8c0-0.4-0.1-0.7-0.1-1.1c0-0.1,0-0.2,0-0.3c0-0.2,0-0.5,0-0.7c0-147.1,119.9-266.7,267.2-266.7c100.6,0,188.1,55.9,233.7,138.2l10.1-91.8c1.1-10.3,10.4-17.8,20.8-16.7c9.7,1.1,16.8,9.2,16.8,18.7C774.3,280.3,774.2,280.9,774.2,281.6z"/></g>
</svg>