<?xml version="1.0" encoding="iso-8859-1"?>
<!-- Generator: Adobe Illustrator 18.1.1, SVG Export Plug-In . SVG Version: 6.00 Build 0)  -->
<svg version="1.1" id="Capa_1" xmlns="http://www.w3.org/2000/svg" xmlns:xlink="http://www.w3.org/1999/xlink" x="0px" y="0px"
	 viewBox="0 0 405.856 405.856" style="enable-background:new 0 0 405.856 405.856;" xml:space="preserve">
<g>
	<g>
		<g>
			<g id="Layer_5_2_">
				<g>
					<path d="M168.908,169.911c2.385,3.854,6.523,6.155,11.071,6.155c2.413,0,4.773-0.671,6.825-1.939l25-15.469
						c6.095-3.771,7.983-11.799,4.215-17.895l-20.676-33.415c-2.385-3.854-6.523-6.155-11.071-6.155
						c-2.413,0-4.773,0.671-6.823,1.939l-24.999,15.467c-6.096,3.771-7.987,11.799-4.216,17.896L168.908,169.911z"/>
					<path d="M368.663,59.457L335.391,5.682C333.189,2.124,329.37,0,325.173,0c-2.229,0-4.405,0.619-6.301,1.791l-11.354,7.026
						c-2.724,1.684-4.627,4.331-5.363,7.456c-0.418,1.775-0.43,3.581-0.053,5.308c0.271,1.24,0.703,3.898-2.756,6.133
						l-88.817,54.952c-2.722,1.684-4.626,4.331-5.362,7.456c-0.733,3.124-0.214,6.343,1.472,9.064l21.727,35.114
						c2.201,3.559,6.021,5.684,10.219,5.684c2.229,0,4.408-0.62,6.302-1.791l40.995-25.365c3.763-2.349,4.824,0.19,5.464,1.381
						c8.905,16.627,13.627,35.3,13.627,54.785c0,64.132-52.175,116.307-116.308,116.307c-34.722,0-67.1-15.419-88.959-41.368
						c-0.926-1.101-2.855-3.354,1.145-3.354h1.309c7.168,0,13-5.832,13-13v-8.599c0-7.168-5.832-13-13-13H48.401
						c-7.168,0-13,5.832-13,13v8.599c0,7.168,5.832,13,13,13h15.071c3.75,0,4.698,2.271,5.399,3.393
						c23.187,37.023,62.045,61.119,105.26,65.566c2.496,0.256,7.53,0.359,7.53,7.359v27.5c0,0-0.189,7.153-8.189,7.153
						c-12.021,0-48.082,0-48.082,0c-7.72,0-14,6.28-14,14v26.306c0,7.721,6.28,14,14,14h151.248c7.721,0,14-6.279,14-14V365.55
						c0-7.72-6.279-14-14-14c0,0-36.498,0-48.666,0c-6.75,0-6.767-6.156-6.767-6.156v-32.497c0-7,6.142-7.947,9.148-8.88
						c57.629-17.83,99.613-71.612,99.613-135.022c0-23.907-5.847-46.808-16.875-67.157c-0.789-1.457-1.787-4.69,0.938-6.428
						l19.93-12.33c3.394-2.676,5.798-0.701,6.855-0.051c1.854,1.141,4.023,1.767,6.301,1.767c2.229,0,4.406-0.62,6.299-1.791
						l11.357-7.027C370.397,72.496,372.144,65.087,368.663,59.457z"/>
				</g>
			</g>
		</g>
	</g>
</g>
<g>
</g>
<g>
</g>
<g>
</g>
<g>
</g>
<g>
</g>
<g>
</g>
<g>
</g>
<g>
</g>
<g>
</g>
<g>
</g>
<g>
</g>
<g>
</g>
<g>
</g>
<g>
</g>
<g>
</g>
</svg>
