<svg xmlns="http://www.w3.org/2000/svg" xmlns:xlink="http://www.w3.org/1999/xlink" version="1.1" x="0px" y="0px" viewBox="0 0 48 48" style="enable-background:new 0 0 48 48;" xml:space="preserve"><path d="M45.5,26.2L38.9,22l6.6-4.2c0.3-0.2,0.5-0.5,0.5-0.8s-0.2-0.7-0.5-0.8l-8-5l-1.1,1.7l6.6,4.2l-6.6,4.2l0,0L29,25.7V24  c0-1.6,0.8-2.4,1.7-3.3c3-3,4.3-5.9,4.3-9.7c0-6.1-4.9-11-11-11S13,4.9,13,11c0,3.8,1.3,6.7,4.3,9.7c0.9,0.9,1.7,1.7,1.7,3.3v1.7  l-7.5-4.6l0,0L4.9,17l6.6-4.2l-1.1-1.7l-8,5C2.2,16.3,2,16.7,2,17s0.2,0.7,0.5,0.8L9.1,22l-6.6,4.2C2.2,26.3,2,26.7,2,27  c0,0.3,0.2,0.7,0.5,0.8l7.5,4.6V39c0,0.3,0.2,0.7,0.5,0.9l13,8C23.6,48,23.8,48,24,48s0.4,0,0.5-0.1l13-8c0.3-0.2,0.5-0.5,0.5-0.9  v-6.5l7.5-4.6c0.3-0.2,0.5-0.5,0.5-0.8C46,26.7,45.8,26.3,45.5,26.2z M18.7,19.3c-2.6-2.6-3.7-5-3.7-8.3c0-5,4-9,9-9c5,0,9,4,9,9  c0,3.3-1.1,5.7-3.7,8.3c-0.8,0.8-1.9,1.9-2.2,3.7H25V12h3v-2h-8v2h3v11h-2.1C20.6,21.2,19.5,20.1,18.7,19.3z M21,25h6v2l-3,1.8  L21,27V25z M11,23.2L22.1,30L16,33.8L4.9,27L11,23.2z M12,33.7l3.5,2.1C15.6,36,15.8,36,16,36c0.2,0,0.4-0.1,0.5-0.2l6.5-4v13.4  l-11-6.8V33.7z M36,38.4l-11,6.8V31.8l6.5,4c0.2,0.1,0.3,0.2,0.5,0.2c0.2,0,0.4,0,0.5-0.1l3.5-2.1V38.4z M32,33.8L25.9,30L37,23.2  l6.1,3.8L32,33.8z"/></svg>