<?xml version="1.0" encoding="utf-8"?>
<!-- Generator: Adobe Illustrator 16.0.0, SVG Export Plug-In . SVG Version: 6.00 Build 0)  -->
<!DOCTYPE svg PUBLIC "-//W3C//DTD SVG 1.1//EN" "http://www.w3.org/Graphics/SVG/1.1/DTD/svg11.dtd">
<svg version="1.1" id="Layer_1" xmlns="http://www.w3.org/2000/svg" xmlns:xlink="http://www.w3.org/1999/xlink" x="0px" y="0px"
	 width="673.302px" height="768.406px" viewBox="0 0 673.302 768.406" enable-background="new 0 0 673.302 768.406"
	 xml:space="preserve">
<g>
	<g>
		<path d="M216.132,265.235l1.399-7.166l2.318,5.177l2.339-5.177l1.26,7.166h-1.04l-0.68-4.018l-1.938,4.328l-1.919-4.338
			l-0.7,4.028H216.132z"/>
		<path d="M229.249,263.137c0,1.289-0.979,2.229-2.249,2.229s-2.249-0.939-2.249-2.229c0-1.299,0.979-2.219,2.249-2.219
			S229.249,261.837,229.249,263.137z M228.249,263.146c0-0.959-0.629-1.349-1.249-1.349c-0.619,0-1.249,0.39-1.249,1.349
			c0,0.81,0.479,1.339,1.249,1.339S228.249,263.956,228.249,263.146z"/>
		<path d="M234.849,263.137c0,1.289-0.979,2.229-2.249,2.229s-2.249-0.939-2.249-2.229c0-1.299,0.979-2.219,2.249-2.219
			S234.849,261.837,234.849,263.137z M233.849,263.146c0-0.959-0.629-1.349-1.249-1.349c-0.619,0-1.249,0.39-1.249,1.349
			c0,0.81,0.479,1.339,1.249,1.339S233.849,263.956,233.849,263.146z"/>
		<path d="M239.25,257.949h0.979v7.286h-0.979v-0.44c-0.43,0.5-0.96,0.57-1.26,0.57c-1.299,0-2.039-1.08-2.039-2.239
			c0-1.369,0.939-2.208,2.049-2.208c0.311,0,0.85,0.08,1.25,0.6V257.949z M236.951,263.146c0,0.729,0.46,1.339,1.169,1.339
			c0.62,0,1.189-0.45,1.189-1.33c0-0.919-0.569-1.359-1.189-1.359C237.411,261.797,236.951,262.397,236.951,263.146z"/>
		<path d="M242.751,261.518c0.399-0.52,0.939-0.6,1.249-0.6c1.109,0,2.049,0.839,2.049,2.208c0,1.159-0.739,2.239-2.039,2.239
			c-0.3,0-0.829-0.07-1.259-0.57v0.44h-0.979v-7.286h0.979V261.518z M242.69,263.156c0,0.88,0.569,1.33,1.189,1.33
			c0.71,0,1.169-0.61,1.169-1.339c0-0.75-0.459-1.349-1.169-1.349C243.26,261.797,242.69,262.237,242.69,263.156z"/>
		<path d="M251.648,263.137c0,1.289-0.979,2.229-2.249,2.229s-2.249-0.939-2.249-2.229c0-1.299,0.979-2.219,2.249-2.219
			S251.648,261.837,251.648,263.137z M250.648,263.146c0-0.959-0.629-1.349-1.249-1.349c-0.619,0-1.249,0.39-1.249,1.349
			c0,0.81,0.479,1.339,1.249,1.339S250.648,263.956,250.648,263.146z"/>
		<path d="M256.049,261.028h0.979v4.208h-0.979v-0.44c-0.43,0.5-0.96,0.57-1.26,0.57c-1.299,0-2.039-1.08-2.039-2.239
			c0-1.369,0.939-2.208,2.049-2.208c0.311,0,0.85,0.08,1.25,0.6V261.028z M253.75,263.146c0,0.729,0.46,1.339,1.169,1.339
			c0.62,0,1.189-0.45,1.189-1.33c0-0.919-0.569-1.359-1.189-1.359C254.21,261.797,253.75,262.397,253.75,263.146z"/>
		<path d="M258.57,261.028h0.979v0.379c0.109-0.13,0.27-0.27,0.409-0.35c0.19-0.11,0.38-0.14,0.6-0.14c0.24,0,0.5,0.04,0.77,0.2
			l-0.399,0.89c-0.22-0.14-0.4-0.15-0.5-0.15c-0.21,0-0.42,0.03-0.609,0.229c-0.27,0.29-0.27,0.69-0.27,0.97v2.179h-0.979V261.028z"
			/>
		<path d="M264.96,257.949h0.979v7.286h-0.979v-0.44c-0.43,0.5-0.96,0.57-1.26,0.57c-1.299,0-2.039-1.08-2.039-2.239
			c0-1.369,0.939-2.208,2.049-2.208c0.311,0,0.85,0.08,1.25,0.6V257.949z M262.661,263.146c0,0.729,0.46,1.339,1.169,1.339
			c0.62,0,1.189-0.45,1.189-1.33c0-0.919-0.569-1.359-1.189-1.359C263.121,261.797,262.661,262.397,262.661,263.146z"/>
		<path d="M269.32,262.137c-0.101-0.16-0.29-0.36-0.6-0.36c-0.141,0-0.24,0.05-0.3,0.11c-0.051,0.05-0.091,0.13-0.091,0.22
			c0,0.11,0.051,0.18,0.141,0.24c0.06,0.04,0.12,0.06,0.329,0.169l0.5,0.25c0.22,0.11,0.43,0.22,0.59,0.39
			c0.229,0.23,0.31,0.49,0.31,0.78c0,0.38-0.14,0.709-0.369,0.959c-0.33,0.36-0.74,0.47-1.18,0.47c-0.27,0-0.609-0.04-0.909-0.27
			c-0.24-0.18-0.44-0.47-0.54-0.77l0.8-0.379c0.05,0.14,0.14,0.32,0.229,0.399c0.061,0.06,0.2,0.16,0.43,0.16
			c0.15,0,0.31-0.05,0.4-0.14c0.079-0.08,0.14-0.21,0.14-0.33c0-0.12-0.04-0.22-0.13-0.32c-0.12-0.12-0.26-0.19-0.42-0.26
			l-0.359-0.17c-0.19-0.09-0.42-0.2-0.58-0.36c-0.22-0.21-0.3-0.44-0.3-0.71c0-0.34,0.13-0.669,0.35-0.899
			c0.19-0.2,0.51-0.399,1.029-0.399c0.3,0,0.54,0.06,0.78,0.22c0.14,0.09,0.329,0.25,0.479,0.52L269.32,262.137z"/>
		<path d="M215.621,275.569c0.86,0,1.399,0.11,1.84,0.52c0.359,0.34,0.529,0.77,0.529,1.319c0,0.26-0.04,0.529-0.2,0.79
			c-0.149,0.26-0.35,0.39-0.499,0.459c0.119,0.03,0.529,0.14,0.859,0.48c0.359,0.379,0.439,0.839,0.439,1.249
			c0,0.48-0.12,0.86-0.439,1.2c-0.53,0.56-1.359,0.649-1.869,0.649h-1.669v-6.667H215.621z M215.632,278.438h0.31
			c0.25,0,0.59-0.03,0.829-0.26c0.23-0.22,0.26-0.53,0.26-0.76c0-0.2-0.029-0.44-0.239-0.64c-0.23-0.22-0.52-0.25-0.81-0.25h-0.35
			V278.438z M215.632,281.276h0.619c0.29,0,0.75-0.05,1.01-0.26c0.2-0.16,0.33-0.44,0.33-0.74c0-0.27-0.101-0.53-0.271-0.7
			c-0.279-0.27-0.689-0.3-1.049-0.3h-0.64V281.276z"/>
		<path d="M219.992,278.028h0.979v0.379c0.109-0.13,0.27-0.27,0.409-0.35c0.19-0.11,0.38-0.14,0.6-0.14c0.24,0,0.5,0.04,0.77,0.2
			l-0.399,0.89c-0.22-0.14-0.4-0.15-0.5-0.15c-0.21,0-0.42,0.03-0.609,0.229c-0.27,0.29-0.27,0.69-0.27,0.97v2.179h-0.979V278.028z"
			/>
		<path d="M226.48,278.028h0.979v4.208h-0.979v-0.44c-0.43,0.5-0.96,0.57-1.26,0.57c-1.299,0-2.039-1.08-2.039-2.239
			c0-1.369,0.939-2.208,2.049-2.208c0.311,0,0.85,0.08,1.25,0.6V278.028z M224.182,280.146c0,0.729,0.46,1.339,1.169,1.339
			c0.62,0,1.189-0.45,1.189-1.33c0-0.919-0.569-1.359-1.189-1.359C224.642,278.797,224.182,279.397,224.182,280.146z"/>
		<path d="M229.492,275.659c0.359,0,0.63,0.27,0.63,0.629s-0.271,0.63-0.63,0.63s-0.63-0.27-0.63-0.63
			S229.133,275.659,229.492,275.659z M229.981,278.028v4.208h-0.979v-4.208H229.981z"/>
		<path d="M231.512,278.028h0.979v0.39c0.42-0.47,0.899-0.5,1.14-0.5c0.779,0,1.109,0.39,1.239,0.569
			c0.16,0.23,0.26,0.52,0.26,1.169v2.579h-0.979v-2.339c0-1.069-0.399-1.099-0.77-1.099c-0.439,0-0.89,0.06-0.89,1.419v2.019h-0.979
			V278.028z"/>
		<path d="M238.511,279.137c-0.101-0.16-0.29-0.36-0.6-0.36c-0.141,0-0.24,0.05-0.3,0.11c-0.051,0.05-0.091,0.13-0.091,0.22
			c0,0.11,0.051,0.18,0.141,0.24c0.06,0.04,0.12,0.06,0.329,0.169l0.5,0.25c0.22,0.11,0.43,0.22,0.59,0.39
			c0.229,0.23,0.31,0.49,0.31,0.78c0,0.38-0.14,0.709-0.369,0.959c-0.33,0.36-0.74,0.47-1.18,0.47c-0.27,0-0.609-0.04-0.909-0.27
			c-0.24-0.18-0.44-0.47-0.54-0.77l0.8-0.379c0.05,0.14,0.14,0.32,0.229,0.399c0.061,0.06,0.2,0.16,0.43,0.16
			c0.15,0,0.31-0.05,0.4-0.14c0.079-0.08,0.14-0.21,0.14-0.33c0-0.12-0.04-0.22-0.13-0.32c-0.12-0.12-0.26-0.19-0.42-0.26
			l-0.359-0.17c-0.19-0.09-0.42-0.2-0.58-0.36c-0.22-0.21-0.3-0.44-0.3-0.71c0-0.34,0.13-0.669,0.35-0.899
			c0.19-0.2,0.51-0.399,1.029-0.399c0.3,0,0.54,0.06,0.78,0.22c0.14,0.09,0.329,0.25,0.479,0.52L238.511,279.137z"/>
		<path d="M241.58,278.927v3.308h-0.979v-3.308h-0.409v-0.899h0.409v-1.54h0.979v1.54h0.75v0.899H241.58z"/>
		<path d="M247.568,280.137c0,1.289-0.979,2.229-2.249,2.229s-2.249-0.939-2.249-2.229c0-1.299,0.979-2.219,2.249-2.219
			S247.568,278.837,247.568,280.137z M246.568,280.146c0-0.959-0.629-1.349-1.249-1.349c-0.619,0-1.249,0.39-1.249,1.349
			c0,0.81,0.479,1.339,1.249,1.339S246.568,280.956,246.568,280.146z"/>
		<path d="M248.892,278.028h0.979v0.379c0.11-0.13,0.271-0.27,0.41-0.35c0.19-0.11,0.38-0.14,0.6-0.14c0.24,0,0.5,0.04,0.77,0.2
			l-0.399,0.89c-0.22-0.14-0.4-0.15-0.5-0.15c-0.21,0-0.42,0.03-0.609,0.229c-0.271,0.29-0.271,0.69-0.271,0.97v2.179h-0.979
			V278.028z"/>
		<path d="M252.512,278.028h0.979v0.39c0.329-0.4,0.719-0.5,1.039-0.5c0.439,0,0.85,0.209,1.089,0.62c0.351-0.5,0.88-0.62,1.25-0.62
			c0.51,0,0.959,0.24,1.199,0.659c0.08,0.14,0.22,0.45,0.22,1.06v2.599h-0.979v-2.319c0-0.47-0.05-0.66-0.09-0.75
			c-0.06-0.16-0.21-0.37-0.56-0.37c-0.24,0-0.45,0.13-0.58,0.31c-0.17,0.24-0.189,0.6-0.189,0.959v2.169h-0.979v-2.319
			c0-0.47-0.05-0.66-0.09-0.75c-0.061-0.16-0.21-0.37-0.56-0.37c-0.24,0-0.45,0.13-0.58,0.31c-0.17,0.24-0.189,0.6-0.189,0.959
			v2.169h-0.979V278.028z"/>
		<path d="M260.32,275.659c0.359,0,0.63,0.27,0.63,0.629s-0.271,0.63-0.63,0.63s-0.63-0.27-0.63-0.63
			S259.961,275.659,260.32,275.659z M260.81,278.028v4.208h-0.979v-4.208H260.81z"/>
		<path d="M262.34,278.028h0.979v0.39c0.42-0.47,0.899-0.5,1.14-0.5c0.779,0,1.109,0.39,1.239,0.569c0.16,0.23,0.26,0.52,0.26,1.169
			v2.579h-0.979v-2.339c0-1.069-0.399-1.099-0.77-1.099c-0.439,0-0.89,0.06-0.89,1.419v2.019h-0.979V278.028z"/>
		<path d="M270.578,278.028h0.979v3.868c0,0.989-0.11,1.699-0.689,2.189c-0.271,0.22-0.71,0.45-1.399,0.45
			c-0.49,0-0.979-0.12-1.38-0.52c-0.31-0.31-0.55-0.799-0.619-1.309h0.949c0.04,0.23,0.16,0.5,0.31,0.66
			c0.12,0.13,0.36,0.29,0.76,0.29c0.41,0,0.649-0.16,0.77-0.28c0.32-0.31,0.32-0.75,0.32-1.059v-0.55c-0.45,0.57-1,0.6-1.279,0.6
			c-0.54,0-0.989-0.15-1.39-0.57c-0.38-0.399-0.63-0.969-0.63-1.669c0-0.77,0.29-1.299,0.62-1.629c0.42-0.43,0.919-0.58,1.429-0.58
			c0.42,0,0.89,0.14,1.25,0.569V278.028z M268.709,279.077c-0.25,0.23-0.43,0.62-0.43,1.069c0,0.42,0.16,0.83,0.42,1.06
			c0.18,0.16,0.449,0.28,0.749,0.28c0.311,0,0.58-0.09,0.819-0.34c0.29-0.31,0.37-0.669,0.37-0.99c0-0.47-0.149-0.819-0.399-1.059
			c-0.24-0.24-0.51-0.3-0.79-0.3C269.179,278.797,268.929,278.867,268.709,279.077z"/>
		<path d="M206.6,294.128c-0.74-0.669-1.43-0.739-1.81-0.739c-1.449,0-2.429,1.069-2.429,2.539c0,1.409,1.02,2.499,2.438,2.499
			c0.8,0,1.42-0.41,1.8-0.77v1.209c-0.67,0.399-1.37,0.5-1.829,0.5c-1.21,0-1.97-0.55-2.359-0.919
			c-0.779-0.729-1.069-1.579-1.069-2.519c0-1.229,0.51-2.079,1.069-2.609c0.689-0.649,1.489-0.869,2.409-0.869
			c0.609,0,1.199,0.11,1.779,0.479V294.128z"/>
		<path d="M207.982,295.028h0.979v0.379c0.109-0.13,0.27-0.27,0.409-0.35c0.19-0.11,0.38-0.14,0.6-0.14c0.24,0,0.5,0.04,0.77,0.2
			l-0.399,0.89c-0.22-0.14-0.4-0.15-0.5-0.15c-0.21,0-0.42,0.03-0.609,0.229c-0.27,0.29-0.27,0.69-0.27,0.97v2.179h-0.979V295.028z"
			/>
		<path d="M215.061,298.276c-0.18,0.32-0.439,0.6-0.71,0.77c-0.34,0.22-0.789,0.32-1.239,0.32c-0.56,0-1.02-0.14-1.419-0.54
			s-0.62-0.979-0.62-1.609c0-0.649,0.23-1.279,0.67-1.729c0.35-0.35,0.81-0.569,1.409-0.569c0.67,0,1.1,0.29,1.35,0.549
			c0.539,0.56,0.59,1.339,0.59,1.779v0.12h-3.019c0.02,0.3,0.149,0.64,0.359,0.85c0.23,0.23,0.51,0.27,0.75,0.27
			c0.27,0,0.47-0.06,0.67-0.21c0.17-0.13,0.3-0.3,0.39-0.46L215.061,298.276z M214.091,296.567c-0.04-0.23-0.149-0.43-0.3-0.57
			c-0.13-0.12-0.34-0.24-0.659-0.24c-0.34,0-0.56,0.14-0.69,0.27c-0.14,0.13-0.249,0.33-0.3,0.54H214.091z"/>
		<path d="M219.492,295.028h0.979v4.208h-0.979v-0.44c-0.43,0.5-0.96,0.57-1.26,0.57c-1.299,0-2.039-1.08-2.039-2.239
			c0-1.369,0.939-2.208,2.049-2.208c0.311,0,0.85,0.08,1.25,0.6V295.028z M217.193,297.146c0,0.729,0.46,1.339,1.169,1.339
			c0.62,0,1.189-0.45,1.189-1.33c0-0.919-0.569-1.359-1.189-1.359C217.653,295.797,217.193,296.397,217.193,297.146z"/>
		<path d="M223.022,295.927v3.308h-0.979v-3.308h-0.409v-0.899h0.409v-1.54h0.979v1.54h0.75v0.899H223.022z"/>
		<path d="M225.223,292.659c0.359,0,0.63,0.27,0.63,0.629s-0.271,0.63-0.63,0.63s-0.63-0.27-0.63-0.63
			S224.863,292.659,225.223,292.659z M225.712,295.028v4.208h-0.979v-4.208H225.712z"/>
		<path d="M227.792,295.028l1.08,2.398l1.079-2.398h1.1l-2.179,4.507l-2.18-4.507H227.792z"/>
		<path d="M235.68,298.276c-0.18,0.32-0.439,0.6-0.71,0.77c-0.34,0.22-0.789,0.32-1.239,0.32c-0.56,0-1.02-0.14-1.419-0.54
			s-0.62-0.979-0.62-1.609c0-0.649,0.23-1.279,0.67-1.729c0.35-0.35,0.81-0.569,1.409-0.569c0.67,0,1.1,0.29,1.35,0.549
			c0.539,0.56,0.59,1.339,0.59,1.779v0.12h-3.019c0.02,0.3,0.149,0.64,0.359,0.85c0.23,0.23,0.51,0.27,0.75,0.27
			c0.27,0,0.47-0.06,0.67-0.21c0.17-0.13,0.3-0.3,0.39-0.46L235.68,298.276z M234.71,296.567c-0.04-0.23-0.149-0.43-0.3-0.57
			c-0.13-0.12-0.34-0.24-0.659-0.24c-0.34,0-0.56,0.14-0.69,0.27c-0.14,0.13-0.249,0.33-0.3,0.54H234.71z"/>
		<path d="M241.691,293.528v5.707h-1.02v-5.707h-1.529v-0.959h4.078v0.959H241.691z"/>
		<path d="M247.61,298.276c-0.18,0.32-0.439,0.6-0.71,0.77c-0.34,0.22-0.789,0.32-1.239,0.32c-0.56,0-1.02-0.14-1.419-0.54
			s-0.62-0.979-0.62-1.609c0-0.649,0.23-1.279,0.67-1.729c0.35-0.35,0.81-0.569,1.409-0.569c0.67,0,1.1,0.29,1.35,0.549
			c0.539,0.56,0.59,1.339,0.59,1.779v0.12h-3.019c0.02,0.3,0.149,0.64,0.359,0.85c0.23,0.23,0.51,0.27,0.75,0.27
			c0.27,0,0.47-0.06,0.67-0.21c0.17-0.13,0.3-0.3,0.39-0.46L247.61,298.276z M246.641,296.567c-0.04-0.23-0.149-0.43-0.3-0.57
			c-0.13-0.12-0.34-0.24-0.659-0.24c-0.34,0-0.56,0.14-0.69,0.27c-0.14,0.13-0.249,0.33-0.3,0.54H246.641z"/>
		<path d="M252.221,296.317c-0.45-0.44-0.89-0.52-1.189-0.52c-0.46,0-0.75,0.19-0.93,0.37c-0.18,0.18-0.359,0.5-0.359,0.97
			c0,0.49,0.189,0.819,0.38,1.009c0.22,0.21,0.529,0.34,0.89,0.34c0.399,0,0.869-0.16,1.209-0.54v1.089
			c-0.24,0.15-0.63,0.33-1.279,0.33c-0.699,0-1.199-0.2-1.6-0.62c-0.3-0.31-0.6-0.81-0.6-1.579c0-0.79,0.33-1.319,0.64-1.629
			c0.33-0.33,0.86-0.62,1.689-0.62c0.319,0,0.699,0.05,1.149,0.3V296.317z"/>
		<path d="M253.463,291.949h0.979v3.438c0.419-0.43,0.879-0.47,1.129-0.47c0.77,0,1.119,0.399,1.239,0.569
			c0.26,0.38,0.27,0.87,0.27,1.169v2.579h-0.979v-2.489c0-0.25,0-0.52-0.189-0.729c-0.11-0.12-0.3-0.22-0.55-0.22
			c-0.33,0-0.59,0.16-0.72,0.35c-0.14,0.2-0.199,0.52-0.199,1.06v2.029h-0.979V291.949z"/>
		<path d="M258.613,295.028h0.979v0.39c0.42-0.47,0.899-0.5,1.14-0.5c0.779,0,1.109,0.39,1.239,0.569
			c0.16,0.23,0.26,0.52,0.26,1.169v2.579h-0.979v-2.339c0-1.069-0.399-1.099-0.77-1.099c-0.439,0-0.89,0.06-0.89,1.419v2.019h-0.979
			V295.028z"/>
		<path d="M264.263,292.659c0.359,0,0.63,0.27,0.63,0.629s-0.271,0.63-0.63,0.63s-0.63-0.27-0.63-0.63
			S263.903,292.659,264.263,292.659z M264.753,295.028v4.208h-0.979v-4.208H264.753z"/>
		<path d="M269.371,295.028h0.979v6.496h-0.979v-2.758c-0.43,0.53-0.96,0.6-1.26,0.6c-1.299,0-2.039-1.069-2.039-2.239
			c0-1.369,0.939-2.208,2.049-2.208c0.42,0,0.89,0.14,1.25,0.569V295.028z M267.072,297.146c0,0.729,0.46,1.339,1.169,1.339
			c0.62,0,1.189-0.45,1.189-1.33c0-0.919-0.569-1.359-1.189-1.359C267.532,295.797,267.072,296.397,267.072,297.146z"/>
		<path d="M272.872,295.028v2.409c0,0.25,0.01,0.54,0.18,0.759c0.13,0.17,0.359,0.29,0.64,0.29c0.279,0,0.51-0.12,0.64-0.29
			c0.17-0.22,0.18-0.51,0.18-0.759v-2.409h0.979v2.438c0,0.54-0.06,0.989-0.45,1.379c-0.38,0.38-0.899,0.52-1.369,0.52
			c-0.43,0-0.949-0.13-1.329-0.52c-0.39-0.39-0.449-0.84-0.449-1.379v-2.438H272.872z"/>
		<path d="M280.8,298.276c-0.18,0.32-0.439,0.6-0.71,0.77c-0.34,0.22-0.789,0.32-1.239,0.32c-0.56,0-1.02-0.14-1.419-0.54
			s-0.62-0.979-0.62-1.609c0-0.649,0.23-1.279,0.67-1.729c0.35-0.35,0.81-0.569,1.409-0.569c0.67,0,1.1,0.29,1.35,0.549
			c0.539,0.56,0.59,1.339,0.59,1.779v0.12h-3.019c0.02,0.3,0.149,0.64,0.359,0.85c0.23,0.23,0.51,0.27,0.75,0.27
			c0.27,0,0.47-0.06,0.67-0.21c0.17-0.13,0.3-0.3,0.39-0.46L280.8,298.276z M279.83,296.567c-0.04-0.23-0.149-0.43-0.3-0.57
			c-0.13-0.12-0.34-0.24-0.659-0.24c-0.34,0-0.56,0.14-0.69,0.27c-0.14,0.13-0.249,0.33-0.3,0.54H279.83z"/>
		<path d="M283.992,296.137c-0.101-0.16-0.29-0.36-0.6-0.36c-0.141,0-0.24,0.05-0.3,0.11c-0.051,0.05-0.091,0.13-0.091,0.22
			c0,0.11,0.051,0.18,0.141,0.24c0.06,0.04,0.12,0.06,0.329,0.169l0.5,0.25c0.22,0.11,0.43,0.22,0.59,0.39
			c0.229,0.23,0.31,0.49,0.31,0.78c0,0.38-0.14,0.709-0.369,0.959c-0.33,0.36-0.74,0.47-1.18,0.47c-0.27,0-0.609-0.04-0.909-0.27
			c-0.24-0.18-0.44-0.47-0.54-0.77l0.8-0.379c0.05,0.14,0.14,0.32,0.229,0.399c0.061,0.06,0.2,0.16,0.43,0.16
			c0.15,0,0.31-0.05,0.4-0.14c0.079-0.08,0.14-0.21,0.14-0.33c0-0.12-0.04-0.22-0.13-0.32c-0.12-0.12-0.26-0.19-0.42-0.26
			l-0.359-0.17c-0.19-0.09-0.42-0.2-0.58-0.36c-0.22-0.21-0.3-0.44-0.3-0.71c0-0.34,0.13-0.669,0.35-0.899
			c0.19-0.2,0.51-0.399,1.029-0.399c0.3,0,0.54,0.06,0.78,0.22c0.14,0.09,0.329,0.25,0.479,0.52L283.992,296.137z"/>
		<path d="M181.308,316.235l1.399-7.166l2.318,5.177l2.339-5.177l1.26,7.166h-1.04l-0.68-4.018l-1.938,4.328l-1.919-4.338
			l-0.7,4.028H181.308z"/>
		<path d="M191.126,312.028v2.409c0,0.25,0.011,0.54,0.181,0.759c0.13,0.17,0.359,0.29,0.64,0.29c0.279,0,0.51-0.12,0.64-0.29
			c0.17-0.22,0.18-0.51,0.18-0.759v-2.409h0.979v2.438c0,0.54-0.061,0.989-0.45,1.379c-0.38,0.38-0.899,0.52-1.369,0.52
			c-0.43,0-0.949-0.13-1.329-0.52c-0.39-0.39-0.449-0.84-0.449-1.379v-2.438H191.126z"/>
		<path d="M196.267,308.949v7.286h-0.979v-7.286H196.267z"/>
		<path d="M198.816,312.927v3.308h-0.979v-3.308h-0.409v-0.899h0.409v-1.54h0.979v1.54h0.75v0.899H198.816z"/>
		<path d="M201.017,309.659c0.359,0,0.63,0.27,0.63,0.629s-0.271,0.63-0.63,0.63s-0.63-0.27-0.63-0.63
			S200.657,309.659,201.017,309.659z M201.507,312.028v4.208h-0.979v-4.208H201.507z"/>
		<path d="M207.256,309.569c0.929,0,1.738,0.1,2.479,0.65c0.81,0.609,1.279,1.579,1.279,2.688s-0.46,2.069-1.34,2.688
			c-0.779,0.55-1.509,0.64-2.438,0.64h-1.379v-6.667H207.256z M206.876,315.276h0.439c0.5,0,1.189-0.04,1.769-0.47
			c0.46-0.35,0.91-0.989,0.91-1.899c0-0.879-0.42-1.569-0.899-1.919c-0.58-0.42-1.29-0.46-1.779-0.46h-0.439V315.276z"/>
		<path d="M212.906,309.659c0.359,0,0.63,0.27,0.63,0.629s-0.271,0.63-0.63,0.63s-0.63-0.27-0.63-0.63
			S212.547,309.659,212.906,309.659z M213.396,312.028v4.208h-0.979v-4.208H213.396z"/>
		<path d="M216.776,313.137c-0.101-0.16-0.29-0.36-0.6-0.36c-0.141,0-0.24,0.05-0.3,0.11c-0.051,0.05-0.091,0.13-0.091,0.22
			c0,0.11,0.051,0.18,0.141,0.24c0.06,0.04,0.12,0.06,0.329,0.169l0.5,0.25c0.22,0.11,0.43,0.22,0.59,0.39
			c0.229,0.23,0.31,0.49,0.31,0.78c0,0.38-0.14,0.709-0.369,0.959c-0.33,0.36-0.74,0.47-1.18,0.47c-0.27,0-0.609-0.04-0.909-0.27
			c-0.24-0.18-0.44-0.47-0.54-0.77l0.8-0.379c0.05,0.14,0.14,0.32,0.229,0.399c0.061,0.06,0.2,0.16,0.43,0.16
			c0.15,0,0.31-0.05,0.4-0.14c0.079-0.08,0.14-0.21,0.14-0.33c0-0.12-0.04-0.22-0.13-0.32c-0.12-0.12-0.26-0.19-0.42-0.26
			l-0.359-0.17c-0.19-0.09-0.42-0.2-0.58-0.36c-0.22-0.21-0.3-0.44-0.3-0.71c0-0.34,0.13-0.669,0.35-0.899
			c0.19-0.2,0.51-0.399,1.029-0.399c0.3,0,0.54,0.06,0.78,0.22c0.14,0.09,0.329,0.25,0.479,0.52L216.776,313.137z"/>
		<path d="M222.095,313.317c-0.45-0.44-0.89-0.52-1.189-0.52c-0.46,0-0.75,0.19-0.93,0.37c-0.18,0.18-0.359,0.5-0.359,0.97
			c0,0.49,0.189,0.819,0.38,1.009c0.22,0.21,0.529,0.34,0.89,0.34c0.399,0,0.869-0.16,1.209-0.54v1.089
			c-0.24,0.15-0.63,0.33-1.279,0.33c-0.699,0-1.199-0.2-1.6-0.62c-0.3-0.31-0.6-0.81-0.6-1.579c0-0.79,0.33-1.319,0.64-1.629
			c0.33-0.33,0.86-0.62,1.689-0.62c0.319,0,0.699,0.05,1.149,0.3V313.317z"/>
		<path d="M223.826,309.659c0.359,0,0.63,0.27,0.63,0.629s-0.271,0.63-0.63,0.63s-0.63-0.27-0.63-0.63
			S223.467,309.659,223.826,309.659z M224.315,312.028v4.208h-0.979v-4.208H224.315z"/>
		<path d="M226.835,318.524h-0.979v-6.496h0.979v0.459c0.36-0.43,0.83-0.569,1.25-0.569c1.109,0,2.049,0.849,2.049,2.188
			c0,1.419-1.04,2.259-2.039,2.259c-0.229,0-0.819-0.08-1.26-0.62V318.524z M226.775,314.156c0,0.88,0.569,1.33,1.189,1.33
			c0.71,0,1.169-0.61,1.169-1.339c0-0.75-0.459-1.349-1.169-1.349C227.345,312.797,226.775,313.237,226.775,314.156z"/>
		<path d="M232.435,308.949v7.286h-0.979v-7.286H232.435z"/>
		<path d="M234.466,309.659c0.359,0,0.63,0.27,0.63,0.629s-0.271,0.63-0.63,0.63s-0.63-0.27-0.63-0.63
			S234.106,309.659,234.466,309.659z M234.956,312.028v4.208h-0.979v-4.208H234.956z"/>
		<path d="M236.485,312.028h0.979v0.39c0.42-0.47,0.899-0.5,1.14-0.5c0.779,0,1.109,0.39,1.239,0.569
			c0.16,0.23,0.26,0.52,0.26,1.169v2.579h-0.979v-2.339c0-1.069-0.399-1.099-0.77-1.099c-0.439,0-0.89,0.06-0.89,1.419v2.019h-0.979
			V312.028z"/>
		<path d="M244.724,312.028h0.979v4.208h-0.979v-0.44c-0.43,0.5-0.96,0.57-1.26,0.57c-1.299,0-2.039-1.08-2.039-2.239
			c0-1.369,0.939-2.208,2.049-2.208c0.311,0,0.85,0.08,1.25,0.6V312.028z M242.425,314.146c0,0.729,0.46,1.339,1.169,1.339
			c0.62,0,1.189-0.45,1.189-1.33c0-0.919-0.569-1.359-1.189-1.359C242.885,312.797,242.425,313.397,242.425,314.146z"/>
		<path d="M247.245,312.028h0.979v0.379c0.11-0.13,0.271-0.27,0.41-0.35c0.19-0.11,0.38-0.14,0.6-0.14c0.24,0,0.5,0.04,0.77,0.2
			l-0.399,0.89c-0.22-0.14-0.4-0.15-0.5-0.15c-0.21,0-0.42,0.03-0.609,0.229c-0.271,0.29-0.271,0.69-0.271,0.97v2.179h-0.979
			V312.028z"/>
		<path d="M252.414,315.576l-1.8-3.548h1.18l1.199,2.458l1.22-2.458h1.1l-3.349,6.496h-1.1L252.414,315.576z"/>
		<path d="M259.445,309.569l1.759,4.458l1.799-4.777l1.739,4.777l1.819-4.458h1.099l-2.978,7.096l-1.739-4.728l-1.759,4.728
			l-2.839-7.096H259.445z"/>
		<path d="M272.603,314.137c0,1.289-0.979,2.229-2.249,2.229s-2.249-0.939-2.249-2.229c0-1.299,0.979-2.219,2.249-2.219
			S272.603,312.837,272.603,314.137z M271.603,314.146c0-0.959-0.629-1.349-1.249-1.349c-0.619,0-1.249,0.39-1.249,1.349
			c0,0.81,0.479,1.339,1.249,1.339S271.603,314.956,271.603,314.146z"/>
		<path d="M273.925,312.028h0.979v0.379c0.11-0.13,0.271-0.27,0.41-0.35c0.19-0.11,0.38-0.14,0.6-0.14c0.24,0,0.5,0.04,0.77,0.2
			l-0.399,0.89c-0.22-0.14-0.4-0.15-0.5-0.15c-0.21,0-0.42,0.03-0.609,0.229c-0.271,0.29-0.271,0.69-0.271,0.97v2.179h-0.979
			V312.028z"/>
		<path d="M278.524,308.949v4.488l1.369-1.409h1.299l-1.809,1.749l1.938,2.458h-1.239l-1.379-1.799l-0.18,0.18v1.619h-0.979v-7.286
			H278.524z"/>
		<path d="M283.995,313.137c-0.101-0.16-0.29-0.36-0.6-0.36c-0.141,0-0.24,0.05-0.3,0.11c-0.051,0.05-0.091,0.13-0.091,0.22
			c0,0.11,0.051,0.18,0.141,0.24c0.06,0.04,0.12,0.06,0.329,0.169l0.5,0.25c0.22,0.11,0.43,0.22,0.59,0.39
			c0.229,0.23,0.31,0.49,0.31,0.78c0,0.38-0.14,0.709-0.369,0.959c-0.33,0.36-0.74,0.47-1.18,0.47c-0.27,0-0.609-0.04-0.909-0.27
			c-0.24-0.18-0.44-0.47-0.54-0.77l0.8-0.379c0.05,0.14,0.14,0.32,0.229,0.399c0.061,0.06,0.2,0.16,0.43,0.16
			c0.15,0,0.31-0.05,0.4-0.14c0.079-0.08,0.14-0.21,0.14-0.33c0-0.12-0.04-0.22-0.13-0.32c-0.12-0.12-0.26-0.19-0.42-0.26
			l-0.359-0.17c-0.19-0.09-0.42-0.2-0.58-0.36c-0.22-0.21-0.3-0.44-0.3-0.71c0-0.34,0.13-0.669,0.35-0.899
			c0.19-0.2,0.51-0.399,1.029-0.399c0.3,0,0.54,0.06,0.78,0.22c0.14,0.09,0.329,0.25,0.479,0.52L283.995,313.137z"/>
		<path d="M286.056,308.949h0.979v3.438c0.42-0.43,0.88-0.47,1.13-0.47c0.77,0,1.119,0.399,1.239,0.569
			c0.26,0.38,0.27,0.87,0.27,1.169v2.579h-0.979v-2.489c0-0.25,0-0.52-0.189-0.729c-0.11-0.12-0.3-0.22-0.55-0.22
			c-0.33,0-0.59,0.16-0.72,0.35c-0.14,0.2-0.2,0.52-0.2,1.06v2.029h-0.979V308.949z"/>
		<path d="M295.383,314.137c0,1.289-0.979,2.229-2.249,2.229s-2.249-0.939-2.249-2.229c0-1.299,0.979-2.219,2.249-2.219
			S295.383,312.837,295.383,314.137z M294.383,314.146c0-0.959-0.629-1.349-1.249-1.349c-0.619,0-1.249,0.39-1.249,1.349
			c0,0.81,0.479,1.339,1.249,1.339S294.383,314.956,294.383,314.146z"/>
		<path d="M297.685,318.524h-0.979v-6.496h0.979v0.459c0.359-0.43,0.829-0.569,1.249-0.569c1.109,0,2.049,0.849,2.049,2.188
			c0,1.419-1.04,2.259-2.039,2.259c-0.229,0-0.819-0.08-1.259-0.62V318.524z M297.624,314.156c0,0.88,0.569,1.33,1.189,1.33
			c0.71,0,1.169-0.61,1.169-1.339c0-0.75-0.459-1.349-1.169-1.349C298.193,312.797,297.624,313.237,297.624,314.156z"/>
		<path d="M304.144,313.137c-0.101-0.16-0.29-0.36-0.6-0.36c-0.141,0-0.24,0.05-0.3,0.11c-0.051,0.05-0.091,0.13-0.091,0.22
			c0,0.11,0.051,0.18,0.141,0.24c0.06,0.04,0.12,0.06,0.329,0.169l0.5,0.25c0.22,0.11,0.43,0.22,0.59,0.39
			c0.229,0.23,0.31,0.49,0.31,0.78c0,0.38-0.14,0.709-0.369,0.959c-0.33,0.36-0.74,0.47-1.18,0.47c-0.27,0-0.609-0.04-0.909-0.27
			c-0.24-0.18-0.44-0.47-0.54-0.77l0.8-0.379c0.05,0.14,0.14,0.32,0.229,0.399c0.061,0.06,0.2,0.16,0.43,0.16
			c0.15,0,0.31-0.05,0.4-0.14c0.079-0.08,0.14-0.21,0.14-0.33c0-0.12-0.04-0.22-0.13-0.32c-0.12-0.12-0.26-0.19-0.42-0.26
			l-0.359-0.17c-0.19-0.09-0.42-0.2-0.58-0.36c-0.22-0.21-0.3-0.44-0.3-0.71c0-0.34,0.13-0.669,0.35-0.899
			c0.19-0.2,0.51-0.399,1.029-0.399c0.3,0,0.54,0.06,0.78,0.22c0.14,0.09,0.329,0.25,0.479,0.52L304.144,313.137z"/>
		<path d="M226.405,328.048c-0.06-0.15-0.149-0.29-0.3-0.42c-0.21-0.17-0.43-0.24-0.72-0.24c-0.619,0-0.939,0.37-0.939,0.799
			c0,0.2,0.07,0.55,0.72,0.81l0.67,0.27c1.229,0.5,1.569,1.199,1.569,1.959c0,1.269-0.899,2.139-2.149,2.139
			c-0.77,0-1.229-0.29-1.569-0.669c-0.359-0.4-0.52-0.84-0.56-1.299l1.01-0.22c0,0.33,0.12,0.64,0.28,0.85
			c0.189,0.24,0.47,0.4,0.869,0.4c0.62,0,1.1-0.45,1.1-1.119c0-0.68-0.52-0.959-0.96-1.14l-0.64-0.27
			c-0.55-0.229-1.359-0.689-1.359-1.689c0-0.899,0.7-1.759,1.949-1.759c0.72,0,1.13,0.27,1.34,0.45
			c0.18,0.16,0.369,0.39,0.509,0.669L226.405,328.048z"/>
		<path d="M229.786,325.949v4.488l1.37-1.409h1.299l-1.809,1.749l1.938,2.458h-1.239l-1.379-1.799l-0.181,0.18v1.619h-0.979v-7.286
			H229.786z"/>
		<path d="M237.186,332.276c-0.18,0.32-0.439,0.6-0.71,0.77c-0.34,0.22-0.789,0.32-1.239,0.32c-0.56,0-1.02-0.14-1.419-0.54
			s-0.62-0.979-0.62-1.609c0-0.649,0.23-1.279,0.67-1.729c0.35-0.35,0.81-0.569,1.409-0.569c0.67,0,1.1,0.29,1.35,0.549
			c0.539,0.56,0.59,1.339,0.59,1.779v0.12h-3.019c0.02,0.3,0.149,0.64,0.359,0.85c0.23,0.23,0.51,0.27,0.75,0.27
			c0.27,0,0.47-0.06,0.67-0.21c0.17-0.13,0.3-0.3,0.39-0.46L237.186,332.276z M236.216,330.567c-0.04-0.23-0.149-0.43-0.3-0.57
			c-0.13-0.12-0.34-0.24-0.659-0.24c-0.34,0-0.56,0.14-0.69,0.27c-0.14,0.13-0.249,0.33-0.3,0.54H236.216z"/>
		<path d="M239.548,329.927v3.308h-0.979v-3.308h-0.409v-0.899h0.409v-1.54h0.979v1.54h0.75v0.899H239.548z"/>
		<path d="M244.517,330.317c-0.45-0.44-0.89-0.52-1.189-0.52c-0.46,0-0.75,0.19-0.93,0.37c-0.18,0.18-0.359,0.5-0.359,0.97
			c0,0.49,0.189,0.819,0.38,1.009c0.22,0.21,0.529,0.34,0.89,0.34c0.399,0,0.869-0.16,1.209-0.54v1.089
			c-0.24,0.15-0.63,0.33-1.279,0.33c-0.699,0-1.199-0.2-1.6-0.62c-0.3-0.31-0.6-0.81-0.6-1.579c0-0.79,0.33-1.319,0.64-1.629
			c0.33-0.33,0.86-0.62,1.689-0.62c0.319,0,0.699,0.05,1.149,0.3V330.317z"/>
		<path d="M245.758,325.949h0.979v3.438c0.419-0.43,0.879-0.47,1.129-0.47c0.77,0,1.119,0.399,1.239,0.569
			c0.26,0.38,0.27,0.87,0.27,1.169v2.579h-0.979v-2.489c0-0.25,0-0.52-0.189-0.729c-0.11-0.12-0.3-0.22-0.55-0.22
			c-0.33,0-0.59,0.16-0.72,0.35c-0.14,0.2-0.199,0.52-0.199,1.06v2.029h-0.979V325.949z"/>
		<path d="M251.408,326.659c0.359,0,0.63,0.27,0.63,0.629s-0.271,0.63-0.63,0.63s-0.63-0.27-0.63-0.63
			S251.049,326.659,251.408,326.659z M251.897,329.028v4.208h-0.979v-4.208H251.897z"/>
		<path d="M253.427,329.028h0.979v0.39c0.42-0.47,0.899-0.5,1.14-0.5c0.779,0,1.109,0.39,1.239,0.569
			c0.16,0.23,0.26,0.52,0.26,1.169v2.579h-0.979v-2.339c0-1.069-0.399-1.099-0.77-1.099c-0.439,0-0.89,0.06-0.89,1.419v2.019h-0.979
			V329.028z"/>
		<path d="M261.666,329.028h0.979v3.868c0,0.989-0.11,1.699-0.689,2.189c-0.271,0.22-0.71,0.45-1.399,0.45
			c-0.49,0-0.979-0.12-1.38-0.52c-0.31-0.31-0.55-0.799-0.619-1.309h0.949c0.04,0.23,0.16,0.5,0.31,0.66
			c0.12,0.13,0.36,0.29,0.76,0.29c0.41,0,0.649-0.16,0.77-0.28c0.32-0.31,0.32-0.75,0.32-1.059v-0.55c-0.45,0.57-1,0.6-1.279,0.6
			c-0.54,0-0.989-0.15-1.39-0.57c-0.38-0.399-0.63-0.969-0.63-1.669c0-0.77,0.29-1.299,0.62-1.629c0.42-0.43,0.919-0.58,1.429-0.58
			c0.42,0,0.89,0.14,1.25,0.569V329.028z M259.797,330.077c-0.25,0.23-0.43,0.62-0.43,1.069c0,0.42,0.16,0.83,0.42,1.06
			c0.18,0.16,0.449,0.28,0.749,0.28c0.311,0,0.58-0.09,0.819-0.34c0.29-0.31,0.37-0.669,0.37-0.99c0-0.47-0.149-0.819-0.399-1.059
			c-0.24-0.24-0.51-0.3-0.79-0.3C260.267,329.797,260.017,329.867,259.797,330.077z"/>
		<path d="M216.695,345.048c-0.06-0.15-0.149-0.29-0.3-0.42c-0.21-0.17-0.43-0.24-0.72-0.24c-0.619,0-0.939,0.37-0.939,0.799
			c0,0.2,0.07,0.55,0.72,0.81l0.67,0.27c1.229,0.5,1.569,1.199,1.569,1.959c0,1.269-0.899,2.139-2.149,2.139
			c-0.77,0-1.229-0.29-1.568-0.669c-0.36-0.4-0.521-0.84-0.561-1.299l1.01-0.22c0,0.33,0.12,0.64,0.28,0.85
			c0.189,0.24,0.47,0.4,0.869,0.4c0.62,0,1.1-0.45,1.1-1.119c0-0.68-0.52-0.959-0.96-1.14l-0.64-0.27
			c-0.55-0.229-1.359-0.689-1.359-1.689c0-0.899,0.7-1.759,1.949-1.759c0.72,0,1.13,0.27,1.34,0.45
			c0.18,0.16,0.369,0.39,0.509,0.669L216.695,345.048z"/>
		<path d="M220.077,342.949v4.488l1.369-1.409h1.299l-1.809,1.749l1.938,2.458h-1.239l-1.379-1.799l-0.18,0.18v1.619h-0.979v-7.286
			H220.077z"/>
		<path d="M227.475,349.276c-0.18,0.32-0.439,0.6-0.71,0.77c-0.34,0.22-0.789,0.32-1.239,0.32c-0.56,0-1.02-0.14-1.419-0.54
			s-0.62-0.979-0.62-1.609c0-0.649,0.23-1.279,0.67-1.729c0.35-0.35,0.81-0.569,1.409-0.569c0.67,0,1.1,0.29,1.35,0.549
			c0.539,0.56,0.59,1.339,0.59,1.779v0.12h-3.019c0.02,0.3,0.149,0.64,0.359,0.85c0.23,0.23,0.51,0.27,0.75,0.27
			c0.27,0,0.47-0.06,0.67-0.21c0.17-0.13,0.3-0.3,0.39-0.46L227.475,349.276z M226.505,347.567c-0.04-0.23-0.149-0.43-0.3-0.57
			c-0.13-0.12-0.34-0.24-0.659-0.24c-0.34,0-0.56,0.14-0.69,0.27c-0.14,0.13-0.249,0.33-0.3,0.54H226.505z"/>
		<path d="M229.837,346.927v3.308h-0.979v-3.308h-0.409v-0.899h0.409v-1.54h0.979v1.54h0.75v0.899H229.837z"/>
		<path d="M234.806,347.317c-0.45-0.44-0.89-0.52-1.189-0.52c-0.46,0-0.75,0.19-0.93,0.37c-0.18,0.18-0.359,0.5-0.359,0.97
			c0,0.49,0.189,0.819,0.38,1.009c0.22,0.21,0.529,0.34,0.89,0.34c0.399,0,0.869-0.16,1.209-0.54v1.089
			c-0.24,0.15-0.63,0.33-1.279,0.33c-0.699,0-1.199-0.2-1.6-0.62c-0.3-0.31-0.6-0.81-0.6-1.579c0-0.79,0.33-1.319,0.64-1.629
			c0.33-0.33,0.86-0.62,1.689-0.62c0.319,0,0.699,0.05,1.149,0.3V347.317z"/>
		<path d="M236.049,342.949h0.979v3.438c0.419-0.43,0.879-0.47,1.129-0.47c0.77,0,1.119,0.399,1.239,0.569
			c0.26,0.38,0.27,0.87,0.27,1.169v2.579h-0.979v-2.489c0-0.25,0-0.52-0.189-0.729c-0.11-0.12-0.3-0.22-0.55-0.22
			c-0.33,0-0.59,0.16-0.72,0.35c-0.14,0.2-0.199,0.52-0.199,1.06v2.029h-0.979V342.949z"/>
		<path d="M243.838,346.028h0.979v0.39c0.329-0.4,0.719-0.5,1.039-0.5c0.439,0,0.85,0.209,1.089,0.62c0.351-0.5,0.88-0.62,1.25-0.62
			c0.51,0,0.959,0.24,1.199,0.659c0.08,0.14,0.22,0.45,0.22,1.06v2.599h-0.979v-2.319c0-0.47-0.05-0.66-0.09-0.75
			c-0.06-0.16-0.21-0.37-0.56-0.37c-0.24,0-0.45,0.13-0.58,0.31c-0.17,0.24-0.189,0.6-0.189,0.959v2.169h-0.979v-2.319
			c0-0.47-0.05-0.66-0.09-0.75c-0.061-0.16-0.21-0.37-0.56-0.37c-0.24,0-0.45,0.13-0.58,0.31c-0.17,0.24-0.189,0.6-0.189,0.959
			v2.169h-0.979V346.028z"/>
		<path d="M255.436,348.137c0,1.289-0.979,2.229-2.249,2.229s-2.249-0.939-2.249-2.229c0-1.299,0.979-2.219,2.249-2.219
			S255.436,346.837,255.436,348.137z M254.436,348.146c0-0.959-0.629-1.349-1.249-1.349c-0.619,0-1.249,0.39-1.249,1.349
			c0,0.81,0.479,1.339,1.249,1.339S254.436,348.956,254.436,348.146z"/>
		<path d="M259.837,342.949h0.979v7.286h-0.979v-0.44c-0.43,0.5-0.96,0.57-1.26,0.57c-1.299,0-2.039-1.08-2.039-2.239
			c0-1.369,0.939-2.208,2.049-2.208c0.311,0,0.85,0.08,1.25,0.6V342.949z M257.538,348.146c0,0.729,0.46,1.339,1.169,1.339
			c0.62,0,1.189-0.45,1.189-1.33c0-0.919-0.569-1.359-1.189-1.359C257.998,346.797,257.538,347.397,257.538,348.146z"/>
		<path d="M266.125,349.276c-0.18,0.32-0.439,0.6-0.71,0.77c-0.34,0.22-0.789,0.32-1.239,0.32c-0.56,0-1.02-0.14-1.419-0.54
			s-0.62-0.979-0.62-1.609c0-0.649,0.23-1.279,0.67-1.729c0.35-0.35,0.81-0.569,1.409-0.569c0.67,0,1.1,0.29,1.35,0.549
			c0.539,0.56,0.59,1.339,0.59,1.779v0.12h-3.019c0.02,0.3,0.149,0.64,0.359,0.85c0.23,0.23,0.51,0.27,0.75,0.27
			c0.27,0,0.47-0.06,0.67-0.21c0.17-0.13,0.3-0.3,0.39-0.46L266.125,349.276z M265.155,347.567c-0.04-0.23-0.149-0.43-0.3-0.57
			c-0.13-0.12-0.34-0.24-0.659-0.24c-0.34,0-0.56,0.14-0.69,0.27c-0.14,0.13-0.249,0.33-0.3,0.54H265.155z"/>
		<path d="M268.456,342.949v7.286h-0.979v-7.286H268.456z"/>
		<path d="M271.837,347.137c-0.101-0.16-0.29-0.36-0.6-0.36c-0.141,0-0.24,0.05-0.3,0.11c-0.051,0.05-0.091,0.13-0.091,0.22
			c0,0.11,0.051,0.18,0.141,0.24c0.06,0.04,0.12,0.06,0.329,0.169l0.5,0.25c0.22,0.11,0.43,0.22,0.59,0.39
			c0.229,0.23,0.31,0.49,0.31,0.78c0,0.38-0.14,0.709-0.369,0.959c-0.33,0.36-0.74,0.47-1.18,0.47c-0.27,0-0.609-0.04-0.909-0.27
			c-0.24-0.18-0.44-0.47-0.54-0.77l0.8-0.379c0.05,0.14,0.14,0.32,0.229,0.399c0.061,0.06,0.2,0.16,0.43,0.16
			c0.15,0,0.31-0.05,0.4-0.14c0.079-0.08,0.14-0.21,0.14-0.33c0-0.12-0.04-0.22-0.13-0.32c-0.12-0.12-0.26-0.19-0.42-0.26
			l-0.359-0.17c-0.19-0.09-0.42-0.2-0.58-0.36c-0.22-0.21-0.3-0.44-0.3-0.71c0-0.34,0.13-0.669,0.35-0.899
			c0.19-0.2,0.51-0.399,1.029-0.399c0.3,0,0.54,0.06,0.78,0.22c0.14,0.09,0.329,0.25,0.479,0.52L271.837,347.137z"/>
		<path d="M220.741,360.569c0.41,0,0.979,0.04,1.459,0.36c0.561,0.37,0.83,1.01,0.83,1.619c0,0.39-0.1,0.99-0.649,1.459
			c-0.53,0.45-1.14,0.52-1.63,0.52h-0.459v2.708h-1.02v-6.667H220.741z M220.292,363.587h0.459c0.88,0,1.3-0.43,1.3-1.049
			c0-0.37-0.15-1.03-1.31-1.03h-0.449V363.587z"/>
		<path d="M224.192,363.028h0.979v0.379c0.11-0.13,0.271-0.27,0.41-0.35c0.19-0.11,0.38-0.14,0.6-0.14c0.24,0,0.5,0.04,0.77,0.2
			l-0.399,0.89c-0.22-0.14-0.4-0.15-0.5-0.15c-0.21,0-0.42,0.03-0.609,0.229c-0.271,0.29-0.271,0.69-0.271,0.97v2.179h-0.979
			V363.028z"/>
		<path d="M231.89,365.137c0,1.289-0.979,2.229-2.249,2.229s-2.249-0.939-2.249-2.229c0-1.299,0.979-2.219,2.249-2.219
			S231.89,363.837,231.89,365.137z M230.89,365.146c0-0.959-0.629-1.349-1.249-1.349c-0.619,0-1.249,0.39-1.249,1.349
			c0,0.81,0.479,1.339,1.249,1.339S230.89,365.956,230.89,365.146z"/>
		<path d="M234.222,363.927v3.308h-0.979v-3.308h-0.409v-0.899h0.409v-1.54h0.979v1.54h0.75v0.899H234.222z"/>
		<path d="M240.21,365.137c0,1.289-0.979,2.229-2.249,2.229s-2.249-0.939-2.249-2.229c0-1.299,0.979-2.219,2.249-2.219
			S240.21,363.837,240.21,365.137z M239.21,365.146c0-0.959-0.629-1.349-1.249-1.349c-0.619,0-1.249,0.39-1.249,1.349
			c0,0.81,0.479,1.339,1.249,1.339S239.21,365.956,239.21,365.146z"/>
		<path d="M242.541,363.927v3.308h-0.979v-3.308h-0.409v-0.899h0.409v-1.54h0.979v1.54h0.75v0.899H242.541z"/>
		<path d="M245.691,366.576l-1.8-3.548h1.18l1.199,2.458l1.22-2.458h1.1l-3.349,6.496h-1.1L245.691,366.576z"/>
		<path d="M250.552,369.524h-0.979v-6.496h0.979v0.459c0.359-0.43,0.829-0.569,1.249-0.569c1.109,0,2.049,0.849,2.049,2.188
			c0,1.419-1.04,2.259-2.039,2.259c-0.229,0-0.819-0.08-1.259-0.62V369.524z M250.491,365.156c0,0.88,0.569,1.33,1.189,1.33
			c0.71,0,1.169-0.61,1.169-1.339c0-0.75-0.459-1.349-1.169-1.349C251.061,363.797,250.491,364.237,250.491,365.156z"/>
		<path d="M255.662,360.659c0.359,0,0.63,0.27,0.63,0.629s-0.271,0.63-0.63,0.63s-0.63-0.27-0.63-0.63
			S255.303,360.659,255.662,360.659z M256.151,363.028v4.208h-0.979v-4.208H256.151z"/>
		<path d="M257.682,363.028h0.979v0.39c0.42-0.47,0.899-0.5,1.14-0.5c0.779,0,1.109,0.39,1.239,0.569
			c0.16,0.23,0.26,0.52,0.26,1.169v2.579h-0.979v-2.339c0-1.069-0.399-1.099-0.77-1.099c-0.439,0-0.89,0.06-0.89,1.419v2.019h-0.979
			V363.028z"/>
		<path d="M265.92,363.028h0.979v3.868c0,0.989-0.11,1.699-0.689,2.189c-0.271,0.22-0.71,0.45-1.399,0.45
			c-0.49,0-0.979-0.12-1.38-0.52c-0.31-0.31-0.55-0.799-0.619-1.309h0.949c0.04,0.23,0.16,0.5,0.31,0.66
			c0.12,0.13,0.36,0.29,0.76,0.29c0.41,0,0.649-0.16,0.77-0.28c0.32-0.31,0.32-0.75,0.32-1.059v-0.55c-0.45,0.57-1,0.6-1.279,0.6
			c-0.54,0-0.989-0.15-1.39-0.57c-0.38-0.399-0.63-0.969-0.63-1.669c0-0.77,0.29-1.299,0.62-1.629c0.42-0.43,0.919-0.58,1.429-0.58
			c0.42,0,0.89,0.14,1.25,0.569V363.028z M264.051,364.077c-0.25,0.23-0.43,0.62-0.43,1.069c0,0.42,0.16,0.83,0.42,1.06
			c0.18,0.16,0.449,0.28,0.749,0.28c0.311,0,0.58-0.09,0.819-0.34c0.29-0.31,0.37-0.669,0.37-0.99c0-0.47-0.149-0.819-0.399-1.059
			c-0.24-0.24-0.51-0.3-0.79-0.3C264.521,363.797,264.271,363.867,264.051,364.077z"/>
	</g>
	<g>
		<path d="M226.283,222.824v6.27h-1.626v-6.27H226.283z"/>
		<path d="M232.339,229.093h-1.504v-0.46c-0.424,0.545-0.978,0.602-1.27,0.602c-0.602,0-1.081-0.197-1.476-0.583
			c-0.423-0.414-0.677-1.006-0.677-1.673c0-0.714,0.301-1.297,0.687-1.664c0.413-0.395,0.968-0.563,1.485-0.563
			c0.573,0,0.977,0.253,1.25,0.545v-3.055h1.504V229.093z M230.562,227.702c0.198-0.179,0.32-0.46,0.32-0.714
			c0-0.235-0.132-0.517-0.282-0.677c-0.169-0.179-0.404-0.282-0.687-0.282c-0.319,0-0.535,0.141-0.667,0.272
			c-0.169,0.169-0.291,0.432-0.291,0.714c0,0.216,0.094,0.46,0.291,0.658c0.207,0.207,0.451,0.282,0.667,0.282
			C230.158,227.956,230.402,227.843,230.562,227.702z"/>
		<path d="M237.954,227.27h-3.131c0,0.226,0.085,0.526,0.264,0.705c0.094,0.094,0.282,0.207,0.62,0.207
			c0.038,0,0.301-0.01,0.489-0.113c0.094-0.057,0.197-0.15,0.263-0.282h1.438c-0.066,0.235-0.197,0.564-0.508,0.865
			s-0.799,0.583-1.711,0.583c-0.555,0-1.222-0.122-1.738-0.639c-0.272-0.273-0.621-0.79-0.621-1.588c0-0.705,0.264-1.269,0.63-1.626
			c0.349-0.338,0.894-0.611,1.721-0.611c0.488,0,1.118,0.104,1.616,0.573c0.593,0.564,0.668,1.297,0.668,1.767V227.27z
			 M236.572,226.405c-0.038-0.16-0.132-0.339-0.245-0.451c-0.197-0.198-0.47-0.226-0.62-0.226c-0.254,0-0.451,0.065-0.61,0.226
			c-0.104,0.112-0.197,0.263-0.226,0.451H236.572z"/>
		<path d="M242.198,224.892h1.504v4.202h-1.504v-0.46c-0.348,0.479-0.894,0.602-1.307,0.602c-0.451,0-1.006-0.132-1.514-0.667
			c-0.404-0.432-0.602-0.912-0.602-1.542c0-0.79,0.311-1.344,0.648-1.683c0.357-0.357,0.912-0.592,1.514-0.592
			c0.677,0,1.081,0.348,1.26,0.545V224.892z M240.619,226.302c-0.207,0.197-0.301,0.47-0.301,0.686c0,0.245,0.103,0.507,0.291,0.686
			c0.16,0.15,0.423,0.282,0.677,0.282c0.244,0,0.488-0.104,0.677-0.292c0.132-0.131,0.282-0.338,0.282-0.677
			c0-0.197-0.057-0.46-0.292-0.686c-0.141-0.132-0.356-0.272-0.677-0.272C241.089,226.029,240.835,226.095,240.619,226.302z"/>
		<path d="M246.525,226.123v2.97h-1.504v-2.97h-0.479v-1.231h0.479v-1.382h1.504v1.382h0.855v1.231H246.525z"/>
		<path d="M248.82,222.297c0.471,0,0.847,0.376,0.847,0.846c0,0.47-0.376,0.846-0.847,0.846c-0.47,0-0.846-0.376-0.846-0.846
			C247.975,222.673,248.351,222.297,248.82,222.297z M249.572,224.892v4.202h-1.504v-4.202H249.572z"/>
		<path d="M254.951,228.539c-0.555,0.545-1.203,0.696-1.88,0.696c-0.611,0-1.288-0.122-1.871-0.696
			c-0.46-0.451-0.648-0.987-0.648-1.551c0-0.752,0.339-1.241,0.648-1.542c0.348-0.338,0.959-0.695,1.871-0.695
			c0.93,0,1.531,0.366,1.88,0.695c0.31,0.301,0.648,0.79,0.648,1.542C255.6,227.552,255.411,228.087,254.951,228.539z
			 M252.403,226.302c-0.188,0.179-0.291,0.441-0.291,0.686c0,0.254,0.122,0.498,0.291,0.667c0.179,0.179,0.423,0.282,0.677,0.282
			c0.245,0,0.489-0.103,0.668-0.282c0.188-0.179,0.291-0.423,0.291-0.667c0-0.226-0.104-0.498-0.291-0.686
			c-0.17-0.16-0.433-0.272-0.668-0.272C252.836,226.029,252.573,226.142,252.403,226.302z"/>
		<path d="M256.59,224.892h1.504v0.526c0.414-0.545,0.969-0.62,1.335-0.62c0.433,0,0.893,0.104,1.241,0.451
			c0.356,0.357,0.395,0.714,0.395,1.175v2.669h-1.504v-2.125c0-0.244,0.009-0.611-0.188-0.817c-0.141-0.15-0.328-0.179-0.479-0.179
			c-0.235,0-0.433,0.084-0.555,0.197c-0.15,0.141-0.245,0.414-0.245,0.667v2.256h-1.504V224.892z"/>
	</g>
	<g>
		<path d="M171.761,202.631c-2.221-2.539-2.697-5.872-2.697-8.633c0-2.729,0.477-6.125,2.697-8.665
			c1.334-1.523,2.92-2.285,4.793-2.285s3.459,0.762,4.793,2.285c2.221,2.539,2.697,5.935,2.697,8.665
			c0,2.761-0.477,6.094-2.697,8.633c-1.334,1.523-2.889,2.285-4.793,2.285S173.095,204.154,171.761,202.631z M173.697,187.65
			c-1.175,1.746-1.46,4.475-1.46,6.316c0,1.873,0.285,4.57,1.46,6.348c0.921,1.396,2.031,1.746,2.856,1.746s1.936-0.349,2.856-1.746
			c1.175-1.777,1.46-4.475,1.46-6.348c0-1.841-0.285-4.57-1.46-6.316c-0.921-1.396-2.031-1.746-2.856-1.746
			S174.618,186.254,173.697,187.65z"/>
		<path d="M201.124,186.381h-6.539l-1.047,3.523c0.317-0.032,0.666-0.063,0.984-0.063c1.777,0,3.586,0.603,4.887,1.873
			c1.016,0.984,2.063,2.666,2.063,5.427c0,2.317-0.729,4.189-2.158,5.618c-1.683,1.65-3.714,2.158-5.872,2.158
			c-1.237,0-2.697-0.159-4.063-0.952c-0.316-0.19-1.523-0.92-2.507-2.444l2.444-2.031c0.063,0.159,0.635,1.206,1.618,1.841
			c0.698,0.476,1.683,0.73,2.761,0.73c1.715,0,2.698-0.667,3.238-1.174c0.635-0.635,1.364-1.777,1.364-3.586
			c0-1.746-0.603-2.793-1.27-3.428c-1.048-0.984-2.444-1.174-3.46-1.174c-0.92,0-1.618,0.127-2.475,0.444
			c-0.667,0.254-1.27,0.54-1.873,0.952l3.143-10.696h8.76V186.381z"/>
	</g>
</g>
<g>
	<g>
		<path d="M434.378,292.069v4.018c0,0.36,0.01,0.799,0.21,1.149c0.199,0.34,0.649,0.689,1.239,0.689c0.589,0,1.039-0.35,1.239-0.689
			c0.199-0.35,0.21-0.79,0.21-1.149v-4.018h1.02v4.288c0,0.53-0.11,1.169-0.62,1.729c-0.35,0.379-0.939,0.779-1.849,0.779
			c-0.91,0-1.5-0.4-1.85-0.779c-0.51-0.56-0.619-1.2-0.619-1.729v-4.288H434.378z"/>
		<path d="M441.857,295.637c-0.101-0.16-0.29-0.36-0.6-0.36c-0.141,0-0.24,0.05-0.3,0.11c-0.051,0.05-0.091,0.13-0.091,0.22
			c0,0.11,0.051,0.18,0.141,0.24c0.06,0.04,0.12,0.06,0.329,0.169l0.5,0.25c0.22,0.11,0.43,0.22,0.59,0.39
			c0.229,0.23,0.31,0.49,0.31,0.78c0,0.38-0.14,0.709-0.369,0.959c-0.33,0.36-0.74,0.47-1.18,0.47c-0.27,0-0.609-0.04-0.909-0.27
			c-0.24-0.18-0.44-0.47-0.54-0.77l0.8-0.379c0.05,0.14,0.14,0.32,0.229,0.399c0.061,0.06,0.2,0.16,0.43,0.16
			c0.15,0,0.31-0.05,0.4-0.14c0.079-0.08,0.14-0.21,0.14-0.33c0-0.12-0.04-0.22-0.13-0.32c-0.12-0.12-0.26-0.19-0.42-0.26
			l-0.359-0.17c-0.19-0.09-0.42-0.2-0.58-0.36c-0.22-0.21-0.3-0.44-0.3-0.71c0-0.34,0.13-0.669,0.35-0.899
			c0.19-0.2,0.51-0.399,1.029-0.399c0.3,0,0.54,0.06,0.78,0.22c0.14,0.09,0.329,0.25,0.479,0.52L441.857,295.637z"/>
		<path d="M447.686,297.776c-0.18,0.32-0.439,0.6-0.71,0.77c-0.34,0.22-0.789,0.32-1.239,0.32c-0.56,0-1.02-0.14-1.419-0.54
			s-0.62-0.979-0.62-1.609c0-0.649,0.23-1.279,0.67-1.729c0.35-0.35,0.81-0.569,1.409-0.569c0.67,0,1.1,0.29,1.35,0.549
			c0.539,0.56,0.59,1.339,0.59,1.779v0.12h-3.019c0.02,0.3,0.149,0.64,0.359,0.85c0.23,0.23,0.51,0.27,0.75,0.27
			c0.27,0,0.47-0.06,0.67-0.21c0.17-0.13,0.3-0.3,0.39-0.46L447.686,297.776z M446.716,296.067c-0.04-0.23-0.149-0.43-0.3-0.57
			c-0.13-0.12-0.34-0.24-0.659-0.24c-0.34,0-0.56,0.14-0.69,0.27c-0.14,0.13-0.249,0.33-0.3,0.54H446.716z"/>
		<path d="M449.039,294.528h0.979v0.379c0.109-0.13,0.27-0.27,0.409-0.35c0.19-0.11,0.38-0.14,0.6-0.14c0.24,0,0.5,0.04,0.77,0.2
			l-0.399,0.89c-0.22-0.14-0.4-0.15-0.5-0.15c-0.21,0-0.42,0.03-0.609,0.229c-0.27,0.29-0.27,0.69-0.27,0.97v2.179h-0.979V294.528z"
			/>
		<path d="M457.317,293.028v5.707h-1.02v-5.707h-1.529v-0.959h4.078v0.959H457.317z"/>
		<path d="M463.236,297.776c-0.18,0.32-0.439,0.6-0.71,0.77c-0.34,0.22-0.789,0.32-1.239,0.32c-0.56,0-1.02-0.14-1.419-0.54
			s-0.62-0.979-0.62-1.609c0-0.649,0.23-1.279,0.67-1.729c0.35-0.35,0.81-0.569,1.409-0.569c0.67,0,1.1,0.29,1.35,0.549
			c0.539,0.56,0.59,1.339,0.59,1.779v0.12h-3.019c0.02,0.3,0.149,0.64,0.359,0.85c0.23,0.23,0.51,0.27,0.75,0.27
			c0.27,0,0.47-0.06,0.67-0.21c0.17-0.13,0.3-0.3,0.39-0.46L463.236,297.776z M462.267,296.067c-0.04-0.23-0.149-0.43-0.3-0.57
			c-0.13-0.12-0.34-0.24-0.659-0.24c-0.34,0-0.56,0.14-0.69,0.27c-0.14,0.13-0.249,0.33-0.3,0.54H462.267z"/>
		<path d="M466.428,295.637c-0.101-0.16-0.29-0.36-0.6-0.36c-0.141,0-0.24,0.05-0.3,0.11c-0.051,0.05-0.091,0.13-0.091,0.22
			c0,0.11,0.051,0.18,0.141,0.24c0.06,0.04,0.12,0.06,0.329,0.169l0.5,0.25c0.22,0.11,0.43,0.22,0.59,0.39
			c0.229,0.23,0.31,0.49,0.31,0.78c0,0.38-0.14,0.709-0.369,0.959c-0.33,0.36-0.74,0.47-1.18,0.47c-0.27,0-0.609-0.04-0.909-0.27
			c-0.24-0.18-0.44-0.47-0.54-0.77l0.8-0.379c0.05,0.14,0.14,0.32,0.229,0.399c0.061,0.06,0.2,0.16,0.43,0.16
			c0.15,0,0.31-0.05,0.4-0.14c0.079-0.08,0.14-0.21,0.14-0.33c0-0.12-0.04-0.22-0.13-0.32c-0.12-0.12-0.26-0.19-0.42-0.26
			l-0.359-0.17c-0.19-0.09-0.42-0.2-0.58-0.36c-0.22-0.21-0.3-0.44-0.3-0.71c0-0.34,0.13-0.669,0.35-0.899
			c0.19-0.2,0.51-0.399,1.029-0.399c0.3,0,0.54,0.06,0.78,0.22c0.14,0.09,0.329,0.25,0.479,0.52L466.428,295.637z"/>
		<path d="M469.498,295.427v3.308h-0.979v-3.308h-0.409v-0.899h0.409v-1.54h0.979v1.54h0.75v0.899H469.498z"/>
		<path d="M471.698,292.159c0.359,0,0.63,0.27,0.63,0.629s-0.271,0.63-0.63,0.63s-0.63-0.27-0.63-0.63
			S471.339,292.159,471.698,292.159z M472.188,294.528v4.208h-0.979v-4.208H472.188z"/>
		<path d="M473.718,294.528h0.979v0.39c0.42-0.47,0.899-0.5,1.14-0.5c0.779,0,1.109,0.39,1.239,0.569
			c0.16,0.23,0.26,0.52,0.26,1.169v2.579h-0.979v-2.339c0-1.069-0.399-1.099-0.77-1.099c-0.439,0-0.89,0.06-0.89,1.419v2.019h-0.979
			V294.528z"/>
		<path d="M481.956,294.528h0.979v3.868c0,0.989-0.11,1.699-0.689,2.189c-0.271,0.22-0.71,0.45-1.399,0.45
			c-0.49,0-0.979-0.12-1.38-0.52c-0.31-0.31-0.55-0.799-0.619-1.309h0.949c0.04,0.23,0.16,0.5,0.31,0.66
			c0.12,0.13,0.36,0.29,0.76,0.29c0.41,0,0.649-0.16,0.77-0.28c0.32-0.31,0.32-0.75,0.32-1.059v-0.55c-0.45,0.57-1,0.6-1.279,0.6
			c-0.54,0-0.989-0.15-1.39-0.57c-0.38-0.399-0.63-0.969-0.63-1.669c0-0.77,0.29-1.299,0.62-1.629c0.42-0.43,0.919-0.58,1.429-0.58
			c0.42,0,0.89,0.14,1.25,0.569V294.528z M480.087,295.577c-0.25,0.23-0.43,0.62-0.43,1.069c0,0.42,0.16,0.83,0.42,1.06
			c0.18,0.16,0.449,0.28,0.749,0.28c0.31,0,0.58-0.09,0.819-0.34c0.29-0.31,0.37-0.669,0.37-0.99c0-0.47-0.149-0.819-0.399-1.059
			c-0.24-0.24-0.51-0.3-0.79-0.3C480.557,295.297,480.307,295.367,480.087,295.577z"/>
		<path d="M425.332,309.069v4.018c0,0.36,0.01,0.799,0.21,1.149c0.199,0.34,0.649,0.689,1.239,0.689c0.589,0,1.039-0.35,1.239-0.689
			c0.199-0.35,0.21-0.79,0.21-1.149v-4.018h1.02v4.288c0,0.53-0.11,1.169-0.62,1.729c-0.35,0.379-0.939,0.779-1.849,0.779
			c-0.91,0-1.5-0.4-1.85-0.779c-0.51-0.56-0.619-1.2-0.619-1.729v-4.288H425.332z"/>
		<path d="M432.812,312.637c-0.101-0.16-0.29-0.36-0.6-0.36c-0.141,0-0.24,0.05-0.3,0.11c-0.051,0.05-0.091,0.13-0.091,0.22
			c0,0.11,0.051,0.18,0.141,0.24c0.06,0.04,0.12,0.06,0.329,0.169l0.5,0.25c0.22,0.11,0.43,0.22,0.59,0.39
			c0.229,0.23,0.31,0.49,0.31,0.78c0,0.38-0.14,0.709-0.369,0.959c-0.33,0.36-0.74,0.47-1.18,0.47c-0.27,0-0.609-0.04-0.909-0.27
			c-0.24-0.18-0.44-0.47-0.54-0.77l0.8-0.379c0.05,0.14,0.14,0.32,0.229,0.399c0.061,0.06,0.2,0.16,0.43,0.16
			c0.15,0,0.31-0.05,0.4-0.14c0.079-0.08,0.14-0.21,0.14-0.33c0-0.12-0.04-0.22-0.13-0.32c-0.12-0.12-0.26-0.19-0.42-0.26
			l-0.359-0.17c-0.19-0.09-0.42-0.2-0.58-0.36c-0.22-0.21-0.3-0.44-0.3-0.71c0-0.34,0.13-0.669,0.35-0.899
			c0.19-0.2,0.51-0.399,1.029-0.399c0.3,0,0.54,0.06,0.78,0.22c0.14,0.09,0.329,0.25,0.479,0.52L432.812,312.637z"/>
		<path d="M438.64,314.776c-0.18,0.32-0.439,0.6-0.71,0.77c-0.34,0.22-0.789,0.32-1.239,0.32c-0.56,0-1.02-0.14-1.419-0.54
			s-0.62-0.979-0.62-1.609c0-0.649,0.23-1.279,0.67-1.729c0.35-0.35,0.81-0.569,1.409-0.569c0.67,0,1.1,0.29,1.35,0.549
			c0.539,0.56,0.59,1.339,0.59,1.779v0.12h-3.019c0.02,0.3,0.149,0.64,0.359,0.85c0.23,0.23,0.51,0.27,0.75,0.27
			c0.27,0,0.47-0.06,0.67-0.21c0.17-0.13,0.3-0.3,0.39-0.46L438.64,314.776z M437.67,313.067c-0.04-0.23-0.149-0.43-0.3-0.57
			c-0.13-0.12-0.34-0.24-0.659-0.24c-0.34,0-0.56,0.14-0.69,0.27c-0.14,0.13-0.249,0.33-0.3,0.54H437.67z"/>
		<path d="M439.993,311.528h0.979v0.379c0.11-0.13,0.271-0.27,0.41-0.35c0.19-0.11,0.38-0.14,0.6-0.14c0.24,0,0.5,0.04,0.77,0.2
			l-0.399,0.89c-0.22-0.14-0.4-0.15-0.5-0.15c-0.21,0-0.42,0.03-0.609,0.229c-0.271,0.29-0.271,0.69-0.271,0.97v2.179h-0.979
			V311.528z"/>
		<path d="M446.763,309.069l1.759,4.458l1.799-4.777l1.739,4.777l1.819-4.458h1.099L452,316.165l-1.739-4.728l-1.76,4.728
			l-2.838-7.096H446.763z"/>
		<path d="M459.92,313.637c0,1.289-0.979,2.229-2.249,2.229s-2.249-0.939-2.249-2.229c0-1.299,0.979-2.219,2.249-2.219
			S459.92,312.337,459.92,313.637z M458.92,313.646c0-0.959-0.629-1.349-1.249-1.349c-0.619,0-1.249,0.39-1.249,1.349
			c0,0.81,0.479,1.339,1.249,1.339S458.92,314.456,458.92,313.646z"/>
		<path d="M461.242,311.528h0.979v0.379c0.109-0.13,0.27-0.27,0.409-0.35c0.19-0.11,0.38-0.14,0.6-0.14c0.24,0,0.5,0.04,0.77,0.2
			l-0.399,0.89c-0.22-0.14-0.4-0.15-0.5-0.15c-0.21,0-0.42,0.03-0.609,0.229c-0.27,0.29-0.27,0.69-0.27,0.97v2.179h-0.979V311.528z"
			/>
		<path d="M465.843,308.449v4.488l1.369-1.409h1.299l-1.809,1.749l1.938,2.458h-1.239l-1.379-1.799l-0.18,0.18v1.619h-0.979v-7.286
			H465.843z"/>
		<path d="M471.312,312.637c-0.101-0.16-0.29-0.36-0.6-0.36c-0.141,0-0.24,0.05-0.3,0.11c-0.051,0.05-0.091,0.13-0.091,0.22
			c0,0.11,0.051,0.18,0.141,0.24c0.06,0.04,0.12,0.06,0.329,0.169l0.5,0.25c0.22,0.11,0.43,0.22,0.59,0.39
			c0.229,0.23,0.31,0.49,0.31,0.78c0,0.38-0.14,0.709-0.369,0.959c-0.33,0.36-0.74,0.47-1.18,0.47c-0.27,0-0.609-0.04-0.909-0.27
			c-0.24-0.18-0.44-0.47-0.54-0.77l0.8-0.379c0.05,0.14,0.14,0.32,0.229,0.399c0.061,0.06,0.2,0.16,0.43,0.16
			c0.15,0,0.31-0.05,0.4-0.14c0.079-0.08,0.14-0.21,0.14-0.33c0-0.12-0.04-0.22-0.13-0.32c-0.12-0.12-0.26-0.19-0.42-0.26
			l-0.359-0.17c-0.19-0.09-0.42-0.2-0.58-0.36c-0.22-0.21-0.3-0.44-0.3-0.71c0-0.34,0.13-0.669,0.35-0.899
			c0.19-0.2,0.51-0.399,1.029-0.399c0.3,0,0.54,0.06,0.78,0.22c0.14,0.09,0.329,0.25,0.479,0.52L471.312,312.637z"/>
		<path d="M473.372,308.449h0.979v3.438c0.42-0.43,0.88-0.47,1.13-0.47c0.77,0,1.119,0.399,1.239,0.569
			c0.26,0.38,0.27,0.87,0.27,1.169v2.579h-0.979v-2.489c0-0.25,0-0.52-0.189-0.729c-0.11-0.12-0.3-0.22-0.55-0.22
			c-0.33,0-0.59,0.16-0.72,0.35c-0.14,0.2-0.2,0.52-0.2,1.06v2.029h-0.979V308.449z"/>
		<path d="M482.7,313.637c0,1.289-0.979,2.229-2.249,2.229s-2.249-0.939-2.249-2.229c0-1.299,0.979-2.219,2.249-2.219
			S482.7,312.337,482.7,313.637z M481.7,313.646c0-0.959-0.629-1.349-1.249-1.349c-0.619,0-1.249,0.39-1.249,1.349
			c0,0.81,0.479,1.339,1.249,1.339S481.7,314.456,481.7,313.646z"/>
		<path d="M485.001,318.024h-0.979v-6.496h0.979v0.459c0.36-0.43,0.83-0.569,1.25-0.569c1.109,0,2.049,0.849,2.049,2.188
			c0,1.419-1.04,2.259-2.039,2.259c-0.229,0-0.819-0.08-1.26-0.62V318.024z M484.941,313.656c0,0.88,0.569,1.33,1.189,1.33
			c0.71,0,1.169-0.61,1.169-1.339c0-0.75-0.459-1.349-1.169-1.349C485.511,312.297,484.941,312.737,484.941,313.656z"/>
		<path d="M491.462,312.637c-0.101-0.16-0.29-0.36-0.6-0.36c-0.141,0-0.24,0.05-0.3,0.11c-0.051,0.05-0.091,0.13-0.091,0.22
			c0,0.11,0.051,0.18,0.141,0.24c0.06,0.04,0.12,0.06,0.329,0.169l0.5,0.25c0.22,0.11,0.43,0.22,0.59,0.39
			c0.229,0.23,0.31,0.49,0.31,0.78c0,0.38-0.14,0.709-0.369,0.959c-0.33,0.36-0.74,0.47-1.18,0.47c-0.27,0-0.609-0.04-0.909-0.27
			c-0.24-0.18-0.44-0.47-0.54-0.77l0.8-0.379c0.05,0.14,0.14,0.32,0.229,0.399c0.061,0.06,0.2,0.16,0.43,0.16
			c0.15,0,0.31-0.05,0.4-0.14c0.079-0.08,0.14-0.21,0.14-0.33c0-0.12-0.04-0.22-0.13-0.32c-0.12-0.12-0.26-0.19-0.42-0.26
			l-0.359-0.17c-0.19-0.09-0.42-0.2-0.58-0.36c-0.22-0.21-0.3-0.44-0.3-0.71c0-0.34,0.13-0.669,0.35-0.899
			c0.19-0.2,0.51-0.399,1.029-0.399c0.3,0,0.54,0.06,0.78,0.22c0.14,0.09,0.329,0.25,0.479,0.52L491.462,312.637z"/>
		<path d="M431.357,326.069v4.018c0,0.36,0.01,0.799,0.21,1.149c0.199,0.34,0.649,0.689,1.239,0.689c0.589,0,1.039-0.35,1.239-0.689
			c0.199-0.35,0.21-0.79,0.21-1.149v-4.018h1.02v4.288c0,0.53-0.11,1.169-0.62,1.729c-0.35,0.379-0.939,0.779-1.849,0.779
			c-0.91,0-1.5-0.4-1.85-0.779c-0.51-0.56-0.619-1.2-0.619-1.729v-4.288H431.357z"/>
		<path d="M438.837,329.637c-0.101-0.16-0.29-0.36-0.6-0.36c-0.141,0-0.24,0.05-0.3,0.11c-0.051,0.05-0.091,0.13-0.091,0.22
			c0,0.11,0.051,0.18,0.141,0.24c0.06,0.04,0.12,0.06,0.329,0.169l0.5,0.25c0.22,0.11,0.43,0.22,0.59,0.39
			c0.229,0.23,0.31,0.49,0.31,0.78c0,0.38-0.14,0.709-0.369,0.959c-0.33,0.36-0.74,0.47-1.18,0.47c-0.27,0-0.609-0.04-0.909-0.27
			c-0.24-0.18-0.44-0.47-0.54-0.77l0.8-0.379c0.05,0.14,0.14,0.32,0.229,0.399c0.061,0.06,0.2,0.16,0.43,0.16
			c0.15,0,0.31-0.05,0.4-0.14c0.079-0.08,0.14-0.21,0.14-0.33c0-0.12-0.04-0.22-0.13-0.32c-0.12-0.12-0.26-0.19-0.42-0.26
			l-0.359-0.17c-0.19-0.09-0.42-0.2-0.58-0.36c-0.22-0.21-0.3-0.44-0.3-0.71c0-0.34,0.13-0.669,0.35-0.899
			c0.19-0.2,0.51-0.399,1.029-0.399c0.3,0,0.54,0.06,0.78,0.22c0.14,0.09,0.329,0.25,0.479,0.52L438.837,329.637z"/>
		<path d="M444.665,331.776c-0.18,0.32-0.439,0.6-0.71,0.77c-0.34,0.22-0.789,0.32-1.239,0.32c-0.56,0-1.02-0.14-1.419-0.54
			s-0.62-0.979-0.62-1.609c0-0.649,0.23-1.279,0.67-1.729c0.35-0.35,0.81-0.569,1.409-0.569c0.67,0,1.1,0.29,1.35,0.549
			c0.539,0.56,0.59,1.339,0.59,1.779v0.12h-3.019c0.02,0.3,0.149,0.64,0.359,0.85c0.23,0.23,0.51,0.27,0.75,0.27
			c0.27,0,0.47-0.06,0.67-0.21c0.17-0.13,0.3-0.3,0.39-0.46L444.665,331.776z M443.695,330.067c-0.04-0.23-0.149-0.43-0.3-0.57
			c-0.13-0.12-0.34-0.24-0.659-0.24c-0.34,0-0.56,0.14-0.69,0.27c-0.14,0.13-0.249,0.33-0.3,0.54H443.695z"/>
		<path d="M446.019,328.528h0.979v0.379c0.11-0.13,0.271-0.27,0.41-0.35c0.19-0.11,0.38-0.14,0.6-0.14c0.24,0,0.5,0.04,0.77,0.2
			l-0.399,0.89c-0.22-0.14-0.4-0.15-0.5-0.15c-0.21,0-0.42,0.03-0.609,0.229c-0.271,0.29-0.271,0.69-0.271,0.97v2.179h-0.979
			V328.528z"/>
		<path d="M453.468,326.069v6.667h-1.02v-6.667H453.468z"/>
		<path d="M458.267,325.449h0.979v7.286h-0.979v-0.44c-0.43,0.5-0.96,0.57-1.26,0.57c-1.299,0-2.039-1.08-2.039-2.239
			c0-1.369,0.939-2.208,2.049-2.208c0.311,0,0.85,0.08,1.25,0.6V325.449z M455.968,330.646c0,0.729,0.46,1.339,1.169,1.339
			c0.62,0,1.189-0.45,1.189-1.33c0-0.919-0.569-1.359-1.189-1.359C456.428,329.297,455.968,329.897,455.968,330.646z"/>
		<path d="M464.556,331.776c-0.18,0.32-0.439,0.6-0.71,0.77c-0.34,0.22-0.789,0.32-1.239,0.32c-0.56,0-1.02-0.14-1.419-0.54
			s-0.62-0.979-0.62-1.609c0-0.649,0.23-1.279,0.67-1.729c0.35-0.35,0.81-0.569,1.409-0.569c0.67,0,1.1,0.29,1.35,0.549
			c0.539,0.56,0.59,1.339,0.59,1.779v0.12h-3.019c0.02,0.3,0.149,0.64,0.359,0.85c0.23,0.23,0.51,0.27,0.75,0.27
			c0.27,0,0.47-0.06,0.67-0.21c0.17-0.13,0.3-0.3,0.39-0.46L464.556,331.776z M463.586,330.067c-0.04-0.23-0.149-0.43-0.3-0.57
			c-0.13-0.12-0.34-0.24-0.659-0.24c-0.34,0-0.56,0.14-0.69,0.27c-0.14,0.13-0.249,0.33-0.3,0.54H463.586z"/>
		<path d="M468.987,328.528h0.979v4.208h-0.979v-0.44c-0.43,0.5-0.96,0.57-1.26,0.57c-1.299,0-2.039-1.08-2.039-2.239
			c0-1.369,0.939-2.208,2.049-2.208c0.311,0,0.85,0.08,1.25,0.6V328.528z M466.688,330.646c0,0.729,0.46,1.339,1.169,1.339
			c0.62,0,1.189-0.45,1.189-1.33c0-0.919-0.569-1.359-1.189-1.359C467.148,329.297,466.688,329.897,466.688,330.646z"/>
		<path d="M472.518,329.427v3.308h-0.979v-3.308h-0.409v-0.899h0.409v-1.54h0.979v1.54h0.75v0.899H472.518z"/>
		<path d="M474.718,326.159c0.359,0,0.63,0.27,0.63,0.629s-0.271,0.63-0.63,0.63s-0.63-0.27-0.63-0.63
			S474.358,326.159,474.718,326.159z M475.208,328.528v4.208h-0.979v-4.208H475.208z"/>
		<path d="M481.025,330.637c0,1.289-0.979,2.229-2.249,2.229s-2.249-0.939-2.249-2.229c0-1.299,0.979-2.219,2.249-2.219
			S481.025,329.337,481.025,330.637z M480.025,330.646c0-0.959-0.629-1.349-1.249-1.349c-0.619,0-1.249,0.39-1.249,1.349
			c0,0.81,0.479,1.339,1.249,1.339S480.025,331.456,480.025,330.646z"/>
		<path d="M482.337,328.528h0.979v0.39c0.42-0.47,0.899-0.5,1.14-0.5c0.779,0,1.109,0.39,1.239,0.569
			c0.16,0.23,0.26,0.52,0.26,1.169v2.579h-0.979v-2.339c0-1.069-0.399-1.099-0.77-1.099c-0.439,0-0.89,0.06-0.89,1.419v2.019h-0.979
			V328.528z"/>
	</g>
	<g>
		<path d="M427.244,222.824v3.713c0,0.263,0.01,0.667,0.32,0.968c0.188,0.179,0.488,0.301,0.77,0.301
			c0.283,0,0.574-0.113,0.752-0.272c0.377-0.329,0.367-0.79,0.367-1.138v-3.572h1.627v3.6c0,0.658-0.029,1.344-0.705,2.03
			c-0.527,0.536-1.186,0.78-2.068,0.78c-0.986,0-1.691-0.338-2.078-0.752c-0.545-0.592-0.609-1.391-0.609-2.059v-3.6H427.244z"/>
		<path d="M432.652,227.702c0.18,0.132,0.396,0.244,0.602,0.31c0.189,0.066,0.424,0.104,0.584,0.104
			c0.113,0,0.291-0.028,0.385-0.113c0.066-0.066,0.076-0.122,0.076-0.197c0-0.066-0.01-0.132-0.076-0.188
			c-0.094-0.084-0.244-0.113-0.395-0.15l-0.395-0.094c-0.207-0.047-0.508-0.122-0.732-0.366c-0.16-0.169-0.273-0.404-0.273-0.724
			c0-0.404,0.16-0.78,0.395-1.024c0.32-0.329,0.883-0.507,1.504-0.507s1.1,0.169,1.344,0.272l-0.508,0.958
			c-0.205-0.094-0.516-0.207-0.789-0.207c-0.15,0-0.254,0.028-0.348,0.084c-0.084,0.047-0.131,0.113-0.131,0.207
			c0,0.132,0.084,0.198,0.178,0.235c0.141,0.056,0.264,0.056,0.498,0.122l0.273,0.075c0.197,0.057,0.498,0.207,0.619,0.329
			c0.207,0.197,0.32,0.526,0.32,0.836c0,0.507-0.217,0.846-0.424,1.043c-0.488,0.489-1.203,0.526-1.551,0.526
			c-0.375,0-0.967-0.047-1.691-0.489L432.652,227.702z"/>
		<path d="M441.135,227.27h-3.131c0,0.226,0.084,0.526,0.264,0.705c0.094,0.094,0.281,0.207,0.619,0.207
			c0.039,0,0.301-0.01,0.49-0.113c0.094-0.057,0.197-0.15,0.262-0.282h1.439c-0.066,0.235-0.197,0.564-0.508,0.865
			s-0.799,0.583-1.711,0.583c-0.555,0-1.223-0.122-1.738-0.639c-0.273-0.273-0.621-0.79-0.621-1.588
			c0-0.705,0.264-1.269,0.629-1.626c0.348-0.338,0.895-0.611,1.721-0.611c0.488,0,1.119,0.104,1.617,0.573
			c0.592,0.564,0.668,1.297,0.668,1.767V227.27z M439.752,226.405c-0.037-0.16-0.131-0.339-0.244-0.451
			c-0.197-0.198-0.471-0.226-0.621-0.226c-0.254,0-0.451,0.065-0.609,0.226c-0.104,0.112-0.199,0.263-0.227,0.451H439.752z"/>
		<path d="M442.125,224.892h1.504v0.687c0.15-0.282,0.367-0.47,0.592-0.583c0.227-0.122,0.498-0.169,0.781-0.169
			c0.037,0,0.102,0.009,0.301,0.019v1.419c-0.076-0.038-0.283-0.15-0.65-0.15c-0.197,0-0.469,0.028-0.686,0.226
			c-0.318,0.292-0.338,0.733-0.338,0.958v1.795h-1.504V224.892z"/>
		<path d="M452.139,224.206h-1.965v1.043h1.787v1.382h-1.787v2.462h-1.625v-6.27h3.59V224.206z"/>
		<path d="M457.357,227.27h-3.131c0,0.226,0.086,0.526,0.264,0.705c0.094,0.094,0.283,0.207,0.621,0.207
			c0.037,0,0.301-0.01,0.488-0.113c0.094-0.057,0.197-0.15,0.264-0.282h1.438c-0.066,0.235-0.197,0.564-0.508,0.865
			s-0.799,0.583-1.711,0.583c-0.555,0-1.221-0.122-1.738-0.639c-0.271-0.273-0.621-0.79-0.621-1.588
			c0-0.705,0.264-1.269,0.631-1.626c0.348-0.338,0.893-0.611,1.721-0.611c0.488,0,1.117,0.104,1.615,0.573
			c0.594,0.564,0.668,1.297,0.668,1.767V227.27z M455.977,226.405c-0.039-0.16-0.133-0.339-0.246-0.451
			c-0.197-0.198-0.469-0.226-0.619-0.226c-0.254,0-0.451,0.065-0.611,0.226c-0.104,0.112-0.197,0.263-0.225,0.451H455.977z"/>
		<path d="M462.805,227.27h-3.131c0,0.226,0.084,0.526,0.264,0.705c0.094,0.094,0.281,0.207,0.619,0.207
			c0.039,0,0.301-0.01,0.49-0.113c0.094-0.057,0.197-0.15,0.262-0.282h1.439c-0.066,0.235-0.197,0.564-0.508,0.865
			s-0.799,0.583-1.711,0.583c-0.555,0-1.223-0.122-1.738-0.639c-0.273-0.273-0.621-0.79-0.621-1.588
			c0-0.705,0.264-1.269,0.629-1.626c0.348-0.338,0.895-0.611,1.721-0.611c0.488,0,1.119,0.104,1.617,0.573
			c0.592,0.564,0.668,1.297,0.668,1.767V227.27z M461.422,226.405c-0.037-0.16-0.131-0.339-0.244-0.451
			c-0.197-0.198-0.471-0.226-0.621-0.226c-0.254,0-0.451,0.065-0.609,0.226c-0.104,0.112-0.199,0.263-0.227,0.451H461.422z"/>
		<path d="M468.553,229.093h-1.504v-0.46c-0.424,0.545-0.979,0.602-1.27,0.602c-0.602,0-1.082-0.197-1.477-0.583
			c-0.422-0.414-0.676-1.006-0.676-1.673c0-0.714,0.301-1.297,0.686-1.664c0.414-0.395,0.969-0.563,1.484-0.563
			c0.574,0,0.979,0.253,1.252,0.545v-3.055h1.504V229.093z M466.775,227.702c0.197-0.179,0.32-0.46,0.32-0.714
			c0-0.235-0.133-0.517-0.283-0.677c-0.168-0.179-0.404-0.282-0.686-0.282c-0.32,0-0.535,0.141-0.668,0.272
			c-0.168,0.169-0.291,0.432-0.291,0.714c0,0.216,0.094,0.46,0.291,0.658c0.207,0.207,0.451,0.282,0.668,0.282
			C466.371,227.956,466.615,227.843,466.775,227.702z"/>
		<path d="M471.215,222.241v3.055c0.273-0.292,0.678-0.545,1.25-0.545c0.518,0,1.072,0.169,1.486,0.563
			c0.385,0.367,0.686,0.95,0.686,1.664c0,0.667-0.254,1.259-0.676,1.673c-0.395,0.386-0.875,0.583-1.477,0.583
			c-0.291,0-0.846-0.057-1.27-0.602v0.46h-1.504v-6.852H471.215z M472.805,227.674c0.197-0.197,0.291-0.441,0.291-0.658
			c0-0.282-0.123-0.545-0.291-0.714c-0.133-0.132-0.348-0.272-0.668-0.272c-0.281,0-0.518,0.103-0.686,0.282
			c-0.15,0.16-0.283,0.442-0.283,0.677c0,0.254,0.123,0.536,0.32,0.714c0.16,0.141,0.404,0.254,0.648,0.254
			C472.354,227.956,472.598,227.881,472.805,227.674z"/>
		<path d="M478.881,224.892h1.504v4.202h-1.504v-0.46c-0.35,0.479-0.895,0.602-1.307,0.602c-0.451,0-1.006-0.132-1.514-0.667
			c-0.404-0.432-0.602-0.912-0.602-1.542c0-0.79,0.311-1.344,0.648-1.683c0.357-0.357,0.912-0.592,1.514-0.592
			c0.676,0,1.08,0.348,1.26,0.545V224.892z M477.301,226.302c-0.207,0.197-0.301,0.47-0.301,0.686c0,0.245,0.104,0.507,0.291,0.686
			c0.16,0.15,0.424,0.282,0.678,0.282c0.244,0,0.488-0.104,0.676-0.292c0.133-0.131,0.283-0.338,0.283-0.677
			c0-0.197-0.057-0.46-0.293-0.686c-0.141-0.132-0.355-0.272-0.676-0.272C477.771,226.029,477.518,226.095,477.301,226.302z"/>
		<path d="M484.721,228.999c-0.404,0.198-0.732,0.235-1.043,0.235c-0.818,0-1.354-0.348-1.654-0.639
			c-0.395-0.385-0.648-0.95-0.648-1.57s0.254-1.212,0.676-1.626c0.395-0.376,0.979-0.639,1.693-0.639
			c0.262,0,0.602,0.047,0.977,0.235v1.26c-0.197-0.141-0.461-0.273-0.779-0.273c-0.357,0-0.584,0.141-0.734,0.292
			c-0.207,0.207-0.291,0.479-0.291,0.724c0,0.235,0.084,0.508,0.264,0.705c0.141,0.15,0.385,0.319,0.77,0.319
			c0.217,0,0.498-0.047,0.771-0.282V228.999z"/>
		<path d="M487.205,222.241v4.164l1.42-1.514h2.039l-1.982,1.937l2.143,2.265h-2.086l-1.533-1.72v1.72h-1.504v-6.852H487.205z"/>
	</g>
	<g>
		<path d="M386.873,202.631c-2.221-2.539-2.697-5.872-2.697-8.633c0-2.729,0.477-6.125,2.697-8.665
			c1.334-1.523,2.92-2.285,4.793-2.285s3.459,0.762,4.793,2.285c2.221,2.539,2.697,5.935,2.697,8.665
			c0,2.761-0.477,6.094-2.697,8.633c-1.334,1.523-2.889,2.285-4.793,2.285S388.207,204.154,386.873,202.631z M388.811,187.65
			c-1.176,1.746-1.461,4.475-1.461,6.316c0,1.873,0.285,4.57,1.461,6.348c0.92,1.396,2.031,1.746,2.855,1.746
			c0.826,0,1.936-0.349,2.857-1.746c1.174-1.777,1.459-4.475,1.459-6.348c0-1.841-0.285-4.57-1.459-6.316
			c-0.922-1.396-2.031-1.746-2.857-1.746C390.842,185.905,389.73,186.254,388.811,187.65z"/>
		<path d="M414.49,184.413l-5.047,6.379c0.477-0.095,0.889-0.127,1.334-0.127c2.475,0,4.031,1.079,4.887,1.968
			c1.143,1.206,1.873,3.015,1.873,4.951c0,1.873-0.666,3.936-2.094,5.332c-1.777,1.746-4.063,2-5.459,2
			c-1.842,0-3.842-0.381-5.459-2.063c-1.111-1.174-1.842-2.729-1.842-4.792c0-1.555,0.35-2.761,1.016-4.063
			c0.793-1.587,1.619-2.539,2.57-3.777l5.873-7.554L414.49,184.413z M407.096,194.601c-0.699,0.667-1.238,1.809-1.238,3.142
			c0,1.079,0.412,2.349,1.238,3.142c0.666,0.635,1.936,1.174,3.047,1.174c0.984,0,2.189-0.381,2.982-1.174
			c0.795-0.793,1.238-2.063,1.238-3.142s-0.443-2.349-1.238-3.142c-0.729-0.73-1.904-1.174-2.982-1.174
			C409.063,193.427,407.857,193.871,407.096,194.601z"/>
	</g>
</g>
<g>
	<g>
		<path d="M237.18,539.527c-0.74-0.669-1.43-0.738-1.81-0.738c-1.449,0-2.429,1.068-2.429,2.538c0,1.409,1.02,2.499,2.438,2.499
			c0.8,0,1.42-0.41,1.8-0.77v1.209c-0.67,0.399-1.37,0.5-1.829,0.5c-1.21,0-1.97-0.551-2.359-0.92
			c-0.779-0.729-1.069-1.579-1.069-2.519c0-1.229,0.51-2.079,1.069-2.608c0.689-0.65,1.489-0.869,2.409-0.869
			c0.609,0,1.199,0.109,1.779,0.479V539.527z"/>
		<path d="M242.561,543.026h-2.849l-0.729,1.608h-1.1l3.318-7.056l3.158,7.056h-1.1L242.561,543.026z M242.151,542.066l-0.989-2.258
			l-1.029,2.258H242.151z"/>
		<path d="M246.902,537.969c0.929,0,1.738,0.1,2.479,0.65c0.81,0.609,1.279,1.578,1.279,2.688s-0.46,2.069-1.34,2.689
			c-0.779,0.549-1.509,0.639-2.438,0.639h-1.379v-6.666H246.902z M246.522,543.676h0.439c0.5,0,1.189-0.04,1.769-0.47
			c0.46-0.35,0.91-0.989,0.91-1.899c0-0.879-0.42-1.568-0.899-1.918c-0.58-0.42-1.29-0.461-1.779-0.461h-0.439V543.676z"/>
		<path d="M235.26,556.527c-0.74-0.669-1.43-0.738-1.81-0.738c-1.449,0-2.429,1.068-2.429,2.538c0,1.409,1.02,2.499,2.438,2.499
			c0.8,0,1.42-0.41,1.8-0.77v1.209c-0.67,0.399-1.37,0.5-1.829,0.5c-1.21,0-1.97-0.551-2.359-0.92
			c-0.779-0.729-1.069-1.579-1.069-2.519c0-1.229,0.51-2.079,1.069-2.608c0.689-0.65,1.489-0.869,2.409-0.869
			c0.609,0,1.199,0.109,1.779,0.479V556.527z"/>
		<path d="M240.92,559.537c0,1.289-0.979,2.229-2.249,2.229s-2.249-0.939-2.249-2.229c0-1.3,0.979-2.219,2.249-2.219
			S240.92,558.237,240.92,559.537z M239.92,559.547c0-0.96-0.629-1.35-1.249-1.35c-0.619,0-1.249,0.39-1.249,1.35
			c0,0.809,0.479,1.339,1.249,1.339S239.92,560.355,239.92,559.547z"/>
		<path d="M243.222,554.35v7.285h-0.979v-7.285H243.222z"/>
		<path d="M249.041,559.537c0,1.289-0.979,2.229-2.249,2.229s-2.249-0.939-2.249-2.229c0-1.3,0.979-2.219,2.249-2.219
			S249.041,558.237,249.041,559.537z M248.041,559.547c0-0.96-0.629-1.35-1.249-1.35c-0.619,0-1.249,0.39-1.249,1.35
			c0,0.809,0.479,1.339,1.249,1.339S248.041,560.355,248.041,559.547z"/>
		<path d="M250.363,557.428h0.979v0.379c0.11-0.129,0.271-0.27,0.41-0.35c0.19-0.109,0.38-0.139,0.6-0.139
			c0.24,0,0.5,0.039,0.77,0.199l-0.399,0.89c-0.22-0.14-0.4-0.149-0.5-0.149c-0.21,0-0.42,0.029-0.609,0.229
			c-0.271,0.291-0.271,0.69-0.271,0.971v2.178h-0.979V557.428z"/>
		<path d="M223.783,578.635l1.399-7.166l2.318,5.178l2.339-5.178l1.26,7.166h-1.04l-0.68-4.018l-1.938,4.328l-1.919-4.338
			l-0.7,4.027H223.783z"/>
		<path d="M235.701,574.428h0.979v4.207h-0.979v-0.439c-0.43,0.5-0.96,0.57-1.26,0.57c-1.299,0-2.039-1.08-2.039-2.239
			c0-1.369,0.939-2.208,2.049-2.208c0.311,0,0.85,0.079,1.25,0.6V574.428z M233.402,576.547c0,0.729,0.46,1.339,1.169,1.339
			c0.62,0,1.189-0.45,1.189-1.329c0-0.92-0.569-1.359-1.189-1.359C233.862,575.197,233.402,575.797,233.402,576.547z"/>
		<path d="M239.231,575.327v3.308h-0.979v-3.308h-0.409v-0.899h0.409v-1.539h0.979v1.539h0.75v0.899H239.231z"/>
		<path d="M244.71,577.676c-0.18,0.32-0.439,0.6-0.71,0.77c-0.34,0.22-0.789,0.32-1.239,0.32c-0.56,0-1.02-0.141-1.419-0.54
			s-0.62-0.979-0.62-1.609c0-0.649,0.23-1.279,0.67-1.729c0.35-0.35,0.81-0.568,1.409-0.568c0.67,0,1.1,0.289,1.35,0.549
			c0.539,0.561,0.59,1.34,0.59,1.779v0.119h-3.019c0.02,0.301,0.149,0.641,0.359,0.85c0.23,0.23,0.51,0.271,0.75,0.271
			c0.27,0,0.47-0.06,0.67-0.21c0.17-0.13,0.3-0.3,0.39-0.46L244.71,577.676z M243.741,575.967c-0.04-0.23-0.149-0.43-0.3-0.57
			c-0.13-0.119-0.34-0.239-0.659-0.239c-0.34,0-0.56,0.14-0.69,0.271c-0.14,0.129-0.249,0.329-0.3,0.539H243.741z"/>
		<path d="M246.063,574.428h0.979v0.379c0.109-0.129,0.27-0.27,0.409-0.35c0.19-0.109,0.38-0.139,0.6-0.139
			c0.24,0,0.5,0.039,0.77,0.199l-0.399,0.89c-0.22-0.14-0.4-0.149-0.5-0.149c-0.21,0-0.42,0.029-0.609,0.229
			c-0.27,0.291-0.27,0.69-0.27,0.971v2.178h-0.979V574.428z"/>
		<path d="M250.172,572.059c0.359,0,0.63,0.27,0.63,0.63s-0.271,0.63-0.63,0.63s-0.63-0.27-0.63-0.63
			S249.813,572.059,250.172,572.059z M250.662,574.428v4.207h-0.979v-4.207H250.662z"/>
		<path d="M255.281,574.428h0.979v4.207h-0.979v-0.439c-0.43,0.5-0.96,0.57-1.26,0.57c-1.299,0-2.039-1.08-2.039-2.239
			c0-1.369,0.939-2.208,2.049-2.208c0.311,0,0.85,0.079,1.25,0.6V574.428z M252.982,576.547c0,0.729,0.46,1.339,1.169,1.339
			c0.62,0,1.189-0.45,1.189-1.329c0-0.92-0.569-1.359-1.189-1.359C253.442,575.197,252.982,575.797,252.982,576.547z"/>
		<path d="M258.781,571.35v7.285h-0.979v-7.285H258.781z"/>
		<path d="M233.555,589.928h-2.318v1.689h2.238v0.96h-2.238v3.058h-1.02v-6.666h3.338V589.928z"/>
		<path d="M235.327,589.059c0.359,0,0.63,0.27,0.63,0.63s-0.271,0.63-0.63,0.63s-0.63-0.27-0.63-0.63
			S234.967,589.059,235.327,589.059z M235.816,591.428v4.207h-0.979v-4.207H235.816z"/>
		<path d="M237.346,591.428h0.979v0.39c0.42-0.47,0.899-0.499,1.14-0.499c0.779,0,1.109,0.389,1.239,0.568
			c0.16,0.23,0.26,0.521,0.26,1.17v2.578h-0.979v-2.338c0-1.07-0.399-1.1-0.77-1.1c-0.439,0-0.89,0.061-0.89,1.419v2.019h-0.979
			V591.428z"/>
		<path d="M242.997,589.059c0.359,0,0.63,0.27,0.63,0.63s-0.271,0.63-0.63,0.63s-0.63-0.27-0.63-0.63
			S242.637,589.059,242.997,589.059z M243.486,591.428v4.207h-0.979v-4.207H243.486z"/>
		<path d="M246.866,592.537c-0.101-0.16-0.29-0.359-0.6-0.359c-0.141,0-0.24,0.049-0.3,0.109c-0.051,0.05-0.091,0.13-0.091,0.22
			c0,0.11,0.051,0.181,0.141,0.24c0.06,0.04,0.12,0.06,0.329,0.169l0.5,0.25c0.22,0.11,0.43,0.221,0.59,0.391
			c0.229,0.229,0.31,0.489,0.31,0.779c0,0.38-0.14,0.709-0.369,0.959c-0.33,0.36-0.74,0.471-1.18,0.471
			c-0.27,0-0.609-0.041-0.909-0.271c-0.24-0.18-0.44-0.47-0.54-0.77l0.8-0.38c0.05,0.141,0.14,0.32,0.229,0.4
			c0.061,0.06,0.2,0.16,0.43,0.16c0.15,0,0.31-0.051,0.4-0.141c0.079-0.08,0.14-0.21,0.14-0.33c0-0.119-0.04-0.22-0.13-0.319
			c-0.12-0.12-0.26-0.19-0.42-0.26l-0.359-0.17c-0.19-0.091-0.42-0.2-0.58-0.36c-0.22-0.209-0.3-0.439-0.3-0.709
			c0-0.34,0.13-0.67,0.35-0.9c0.19-0.199,0.51-0.398,1.029-0.398c0.3,0,0.54,0.059,0.78,0.219c0.14,0.09,0.329,0.25,0.479,0.52
			L246.866,592.537z"/>
		<path d="M248.926,588.35h0.979v3.438c0.419-0.43,0.879-0.469,1.129-0.469c0.77,0,1.119,0.398,1.239,0.568
			c0.26,0.381,0.27,0.87,0.27,1.17v2.578h-0.979v-2.488c0-0.25,0-0.52-0.189-0.729c-0.11-0.12-0.3-0.22-0.55-0.22
			c-0.33,0-0.59,0.16-0.72,0.35c-0.14,0.2-0.199,0.52-0.199,1.06v2.028h-0.979V588.35z"/>
	</g>
	<g>
		<path d="M218.958,478.224c0.47,0,1.071,0.075,1.531,0.555c0.357,0.366,0.536,0.911,0.536,1.409c0,0.537-0.188,1.006-0.498,1.307
			c-0.244,0.236-0.573,0.377-0.865,0.434l1.965,2.565h-2.021l-1.561-2.406v2.406h-1.626v-6.27H218.958z M218.046,481.034h0.311
			c0.244,0,0.592-0.065,0.789-0.254c0.122-0.122,0.207-0.329,0.207-0.526c0-0.188-0.075-0.395-0.217-0.526
			c-0.15-0.15-0.423-0.244-0.779-0.244h-0.311V481.034z"/>
		<path d="M226.754,482.67h-3.13c0,0.225,0.084,0.525,0.263,0.705c0.094,0.094,0.282,0.207,0.62,0.207
			c0.038,0,0.301-0.01,0.489-0.113c0.094-0.057,0.197-0.15,0.263-0.282h1.438c-0.065,0.235-0.197,0.563-0.508,0.864
			c-0.31,0.301-0.799,0.584-1.711,0.584c-0.554,0-1.222-0.123-1.738-0.64c-0.272-0.272-0.62-0.79-0.62-1.589
			c0-0.705,0.263-1.269,0.629-1.626c0.348-0.339,0.894-0.61,1.721-0.61c0.488,0,1.118,0.104,1.616,0.572
			c0.593,0.564,0.668,1.298,0.668,1.768V482.67z M225.373,481.805c-0.038-0.16-0.132-0.338-0.244-0.451
			c-0.198-0.197-0.471-0.225-0.621-0.225c-0.254,0-0.451,0.064-0.61,0.225c-0.104,0.113-0.198,0.264-0.226,0.451H225.373z"/>
		<path d="M229.362,481.523v2.97h-1.504v-2.97h-0.526v-1.232h0.526v-0.516c0-0.564,0.075-1.166,0.573-1.646
			c0.404-0.396,1.024-0.593,1.654-0.593c0.592,0,1.288,0.18,1.683,0.564c0.263,0.254,0.526,0.715,0.526,1.41v0.216h-1.504v-0.142
			c0-0.037,0-0.375-0.188-0.563c-0.122-0.123-0.329-0.189-0.526-0.189c-0.188,0-0.385,0.076-0.517,0.217
			c-0.179,0.188-0.197,0.414-0.197,0.648v0.592h1.053v1.232H229.362z M232.294,480.291v4.202h-1.504v-4.202H232.294z"/>
		<path d="M233.361,480.291h1.504v0.527c0.414-0.545,0.969-0.621,1.335-0.621c0.433,0,0.894,0.104,1.241,0.451
			c0.356,0.357,0.395,0.715,0.395,1.176v2.669h-1.504v-2.124c0-0.244,0.01-0.611-0.188-0.818c-0.141-0.15-0.329-0.178-0.479-0.178
			c-0.234,0-0.432,0.084-0.554,0.197c-0.15,0.141-0.245,0.413-0.245,0.667v2.256h-1.504V480.291z"/>
		<path d="M243.441,482.67h-3.131c0,0.225,0.085,0.525,0.264,0.705c0.094,0.094,0.282,0.207,0.62,0.207
			c0.038,0,0.301-0.01,0.489-0.113c0.094-0.057,0.197-0.15,0.263-0.282h1.438c-0.066,0.235-0.197,0.563-0.508,0.864
			s-0.799,0.584-1.711,0.584c-0.555,0-1.222-0.123-1.738-0.64c-0.272-0.272-0.621-0.79-0.621-1.589c0-0.705,0.264-1.269,0.63-1.626
			c0.349-0.339,0.894-0.61,1.721-0.61c0.488,0,1.118,0.104,1.616,0.572c0.593,0.564,0.668,1.298,0.668,1.768V482.67z
			 M242.059,481.805c-0.038-0.16-0.132-0.338-0.245-0.451c-0.197-0.197-0.47-0.225-0.62-0.225c-0.254,0-0.451,0.064-0.61,0.225
			c-0.104,0.113-0.197,0.264-0.226,0.451H242.059z"/>
		<path d="M244.43,480.291h1.504v0.508c0.357-0.432,0.847-0.582,1.26-0.582c0.301,0,0.583,0.065,0.809,0.188
			c0.31,0.16,0.479,0.395,0.583,0.602c0.169-0.301,0.385-0.479,0.573-0.582c0.301-0.17,0.592-0.207,0.874-0.207
			c0.311,0,0.817,0.047,1.165,0.385c0.376,0.367,0.396,0.865,0.396,1.156v2.735h-1.504v-2.077c0-0.441-0.047-0.742-0.217-0.902
			c-0.084-0.075-0.197-0.141-0.395-0.141c-0.169,0-0.311,0.047-0.441,0.168c-0.254,0.245-0.273,0.593-0.273,0.8v2.152h-1.504v-2.077
			c0-0.404-0.027-0.725-0.197-0.902c-0.131-0.141-0.301-0.17-0.451-0.17c-0.159,0-0.291,0.029-0.413,0.15
			c-0.264,0.254-0.264,0.658-0.264,0.922v2.077h-1.504V480.291z"/>
		<path d="M257.219,482.67h-3.13c0,0.225,0.084,0.525,0.263,0.705c0.094,0.094,0.282,0.207,0.62,0.207
			c0.038,0,0.301-0.01,0.489-0.113c0.094-0.057,0.197-0.15,0.263-0.282h1.438c-0.065,0.235-0.197,0.563-0.508,0.864
			c-0.31,0.301-0.799,0.584-1.711,0.584c-0.554,0-1.222-0.123-1.738-0.64c-0.272-0.272-0.62-0.79-0.62-1.589
			c0-0.705,0.263-1.269,0.629-1.626c0.348-0.339,0.894-0.61,1.721-0.61c0.488,0,1.118,0.104,1.616,0.572
			c0.593,0.564,0.668,1.298,0.668,1.768V482.67z M255.837,481.805c-0.038-0.16-0.132-0.338-0.244-0.451
			c-0.198-0.197-0.471-0.225-0.621-0.225c-0.254,0-0.451,0.064-0.61,0.225c-0.104,0.113-0.198,0.264-0.226,0.451H255.837z"/>
		<path d="M258.209,480.291h1.504v0.527c0.414-0.545,0.969-0.621,1.335-0.621c0.433,0,0.893,0.104,1.241,0.451
			c0.356,0.357,0.395,0.715,0.395,1.176v2.669h-1.504v-2.124c0-0.244,0.009-0.611-0.188-0.818c-0.141-0.15-0.328-0.178-0.479-0.178
			c-0.235,0-0.433,0.084-0.555,0.197c-0.15,0.141-0.245,0.413-0.245,0.667v2.256h-1.504V480.291z"/>
		<path d="M265.499,481.523v2.97h-1.504v-2.97h-0.479v-1.232h0.479v-1.381h1.504v1.381h0.855v1.232H265.499z"/>
	</g>
	<g>
		<path d="M170.644,458.031c-2.221-2.539-2.697-5.872-2.697-8.633c0-2.73,0.477-6.126,2.697-8.665
			c1.334-1.523,2.92-2.285,4.793-2.285s3.459,0.762,4.793,2.285c2.221,2.539,2.697,5.935,2.697,8.665
			c0,2.761-0.477,6.094-2.697,8.633c-1.334,1.523-2.889,2.285-4.793,2.285S171.978,459.555,170.644,458.031z M172.581,443.051
			c-1.175,1.745-1.46,4.475-1.46,6.315c0,1.872,0.285,4.57,1.46,6.348c0.921,1.396,2.031,1.745,2.856,1.745s1.936-0.349,2.856-1.745
			c1.175-1.777,1.46-4.476,1.46-6.348c0-1.841-0.285-4.57-1.46-6.315c-0.921-1.396-2.031-1.746-2.856-1.746
			S173.501,441.654,172.581,443.051z"/>
		<path d="M195.818,441.781h-10.41v-2.984h15.742l-13.33,21.9l-2.539-1.588L195.818,441.781z"/>
	</g>
</g>
<polygon fill-rule="evenodd" clip-rule="evenodd" fill="#FFFFFF" points="359.541,288.297 354.346,291.811 354.346,284.785 "/>
<polygon fill-rule="evenodd" clip-rule="evenodd" fill="#FFFFFF" points="571.208,288.297 566.013,291.811 566.013,284.785 "/>
<polygon fill-rule="evenodd" clip-rule="evenodd" fill="#FFFFFF" points="354.296,543.697 349.101,547.211 349.101,540.186 "/>
<polygon fill-rule="evenodd" clip-rule="evenodd" fill="#FFFFFF" points="344.346,288.297 349.541,291.811 349.541,284.785 "/>
<g>
	<g>
		<path d="M443.191,479.605h-1.965v1.043h1.786v1.383h-1.786v2.462h-1.626v-6.27h3.591V479.605z"/>
		<path d="M444.801,477.697c0.471,0,0.847,0.376,0.847,0.846c0,0.471-0.376,0.846-0.847,0.846c-0.47,0-0.846-0.375-0.846-0.846
			C443.955,478.073,444.331,477.697,444.801,477.697z M445.553,480.291v4.202h-1.504v-4.202H445.553z"/>
		<path d="M446.701,480.291h1.504v0.527c0.414-0.545,0.969-0.621,1.335-0.621c0.433,0,0.894,0.104,1.241,0.451
			c0.356,0.357,0.395,0.715,0.395,1.176v2.669h-1.504v-2.124c0-0.244,0.01-0.611-0.188-0.818c-0.141-0.15-0.329-0.178-0.479-0.178
			c-0.234,0-0.432,0.084-0.554,0.197c-0.15,0.141-0.245,0.413-0.245,0.667v2.256h-1.504V480.291z"/>
		<path d="M455.579,480.291h1.504v4.202h-1.504v-0.46c-0.349,0.479-0.894,0.602-1.307,0.602c-0.451,0-1.006-0.133-1.514-0.668
			c-0.404-0.432-0.602-0.912-0.602-1.541c0-0.79,0.311-1.345,0.648-1.684c0.357-0.356,0.912-0.592,1.514-0.592
			c0.677,0,1.081,0.348,1.26,0.545V480.291z M454,481.701c-0.207,0.197-0.301,0.471-0.301,0.687c0,0.245,0.104,0.507,0.291,0.687
			c0.16,0.15,0.423,0.281,0.677,0.281c0.244,0,0.489-0.104,0.677-0.291c0.132-0.131,0.282-0.338,0.282-0.677
			c0-0.197-0.057-0.46-0.292-0.687c-0.141-0.131-0.356-0.271-0.677-0.271C454.47,481.43,454.216,481.494,454,481.701z"/>
		<path d="M459.746,477.641v6.853h-1.504v-6.853H459.746z"/>
		<path d="M461.646,477.697c0.471,0,0.847,0.376,0.847,0.846c0,0.471-0.376,0.846-0.847,0.846c-0.47,0-0.846-0.375-0.846-0.846
			C460.801,478.073,461.177,477.697,461.646,477.697z M462.398,480.291v4.202h-1.504v-4.202H462.398z"/>
		<path d="M465.737,483.262h1.758v1.231h-4.276l1.982-2.97h-1.691v-1.232h4.192L465.737,483.262z"/>
		<path d="M469.284,477.697c0.471,0,0.847,0.376,0.847,0.846c0,0.471-0.376,0.846-0.847,0.846c-0.47,0-0.846-0.375-0.846-0.846
			C468.438,478.073,468.814,477.697,469.284,477.697z M470.036,480.291v4.202h-1.504v-4.202H470.036z"/>
		<path d="M471.186,480.291h1.504v0.527c0.414-0.545,0.969-0.621,1.335-0.621c0.433,0,0.894,0.104,1.241,0.451
			c0.356,0.357,0.395,0.715,0.395,1.176v2.669h-1.504v-2.124c0-0.244,0.01-0.611-0.188-0.818c-0.141-0.15-0.329-0.178-0.479-0.178
			c-0.234,0-0.432,0.084-0.554,0.197c-0.15,0.141-0.245,0.413-0.245,0.667v2.256h-1.504V480.291z"/>
		<path d="M481.538,480.291v3.939c0,0.629-0.057,1.203-0.573,1.738c-0.536,0.545-1.241,0.677-1.852,0.677
			c-0.78,0-1.43-0.197-1.965-0.743c-0.244-0.253-0.404-0.507-0.461-0.873h1.674c0.056,0.169,0.206,0.432,0.704,0.432
			c0.235,0,0.471-0.047,0.668-0.234c0.254-0.235,0.301-0.536,0.301-0.78v-0.423c-0.47,0.498-0.921,0.555-1.26,0.555
			c-0.771,0-1.269-0.301-1.551-0.592c-0.376-0.387-0.583-0.959-0.583-1.533c0-0.658,0.254-1.26,0.62-1.645
			c0.404-0.423,0.969-0.639,1.523-0.639c0.263,0,0.808,0.057,1.25,0.555v-0.434H481.538z M478.474,481.701
			c-0.216,0.227-0.291,0.48-0.291,0.678c0,0.244,0.103,0.498,0.291,0.686c0.197,0.197,0.451,0.272,0.677,0.272
			c0.235,0,0.498-0.103,0.677-0.282c0.188-0.188,0.282-0.461,0.282-0.676c0-0.217-0.122-0.508-0.301-0.688
			c-0.17-0.168-0.414-0.271-0.668-0.271S478.671,481.504,478.474,481.701z"/>
	</g>
	<g>
		<path d="M389.475,458.031c-2.221-2.539-2.697-5.872-2.697-8.633c0-2.73,0.477-6.126,2.697-8.665
			c1.334-1.523,2.92-2.285,4.793-2.285s3.459,0.762,4.793,2.285c2.221,2.539,2.697,5.935,2.697,8.665
			c0,2.761-0.477,6.094-2.697,8.633c-1.334,1.523-2.889,2.285-4.793,2.285S390.809,459.555,389.475,458.031z M391.411,443.051
			c-1.175,1.745-1.46,4.475-1.46,6.315c0,1.872,0.285,4.57,1.46,6.348c0.921,1.396,2.031,1.745,2.856,1.745s1.936-0.349,2.856-1.745
			c1.175-1.777,1.46-4.476,1.46-6.348c0-1.841-0.285-4.57-1.46-6.315c-0.921-1.396-2.031-1.746-2.856-1.746
			S392.332,441.654,391.411,443.051z"/>
		<path d="M418.425,450.668c0.794,1.047,0.952,2.221,0.952,3.174c0,2.158-0.825,3.617-1.682,4.506
			c-0.984,1.048-2.571,1.969-4.983,1.969s-3.999-0.921-4.983-1.969c-0.856-0.889-1.682-2.348-1.682-4.506
			c0-0.953,0.158-2.127,0.952-3.174c0.476-0.667,1.237-1.302,2.222-1.715c-0.889-0.381-1.492-1.016-1.873-1.586
			c-0.539-0.857-0.762-1.937-0.762-2.889c0-1.682,0.604-3.27,1.777-4.412c0.667-0.635,2.031-1.618,4.349-1.618
			s3.682,0.983,4.349,1.618c1.174,1.143,1.777,2.73,1.777,4.412c0,0.952-0.223,2.031-0.762,2.889
			c-0.381,0.57-0.984,1.205-1.873,1.586C417.188,449.366,417.949,450.001,418.425,450.668z M410.205,451.334
			c-0.635,0.635-0.984,1.65-0.984,2.57c0,0.826,0.317,1.777,0.952,2.477c0.444,0.508,1.237,1.078,2.539,1.078
			s2.095-0.57,2.539-1.078c0.635-0.699,0.952-1.65,0.952-2.477c0-0.92-0.35-1.936-0.984-2.57s-1.586-0.984-2.507-0.984
			S410.84,450.699,410.205,451.334z M410.395,442.162c-0.539,0.539-0.889,1.396-0.889,2.348c0,0.984,0.381,1.746,0.857,2.223
			c0.571,0.603,1.523,0.951,2.349,0.951s1.777-0.349,2.349-0.951c0.477-0.477,0.857-1.238,0.857-2.223
			c0-0.951-0.35-1.809-0.889-2.348c-0.54-0.508-1.334-0.857-2.317-0.857S410.935,441.654,410.395,442.162z"/>
	</g>
	<g>
		<path d="M436.916,547.469c0.41,0,0.979,0.04,1.459,0.359c0.561,0.371,0.83,1.01,0.83,1.619c0,0.391-0.1,0.99-0.65,1.46
			c-0.529,0.45-1.139,0.52-1.629,0.52h-0.459v2.708h-1.02v-6.666H436.916z M436.467,550.487h0.459c0.879,0,1.299-0.43,1.299-1.05
			c0-0.369-0.15-1.029-1.309-1.029h-0.449V550.487z"/>
		<path d="M440.367,549.928h0.979v0.379c0.109-0.129,0.27-0.27,0.41-0.35c0.189-0.109,0.379-0.139,0.6-0.139
			c0.24,0,0.5,0.039,0.77,0.199l-0.4,0.89c-0.219-0.14-0.4-0.149-0.5-0.149c-0.209,0-0.42,0.029-0.609,0.229
			c-0.27,0.291-0.27,0.69-0.27,0.971v2.178h-0.979V549.928z"/>
		<path d="M447.445,553.176c-0.18,0.32-0.439,0.6-0.711,0.77c-0.34,0.22-0.789,0.32-1.238,0.32c-0.561,0-1.02-0.141-1.42-0.54
			c-0.398-0.399-0.619-0.979-0.619-1.609c0-0.649,0.23-1.279,0.67-1.729c0.35-0.35,0.809-0.568,1.408-0.568
			c0.67,0,1.1,0.289,1.35,0.549c0.539,0.561,0.59,1.34,0.59,1.779v0.119h-3.018c0.02,0.301,0.148,0.641,0.359,0.85
			c0.23,0.23,0.51,0.271,0.75,0.271c0.27,0,0.469-0.06,0.67-0.21c0.17-0.13,0.299-0.3,0.389-0.46L447.445,553.176z M446.475,551.467
			c-0.039-0.23-0.148-0.43-0.299-0.57c-0.131-0.119-0.34-0.239-0.66-0.239c-0.34,0-0.559,0.14-0.689,0.271
			c-0.141,0.129-0.25,0.329-0.301,0.539H446.475z"/>
		<path d="M450.637,551.037c-0.1-0.16-0.289-0.359-0.6-0.359c-0.141,0-0.24,0.049-0.299,0.109c-0.051,0.05-0.092,0.13-0.092,0.22
			c0,0.11,0.051,0.181,0.141,0.24c0.061,0.04,0.121,0.06,0.33,0.169l0.5,0.25c0.219,0.11,0.43,0.221,0.59,0.391
			c0.229,0.229,0.309,0.489,0.309,0.779c0,0.38-0.139,0.709-0.369,0.959c-0.33,0.36-0.74,0.471-1.18,0.471
			c-0.27,0-0.609-0.041-0.908-0.271c-0.24-0.18-0.441-0.47-0.541-0.77l0.801-0.38c0.049,0.141,0.139,0.32,0.229,0.4
			c0.061,0.06,0.201,0.16,0.43,0.16c0.15,0,0.311-0.051,0.4-0.141c0.08-0.08,0.141-0.21,0.141-0.33c0-0.119-0.041-0.22-0.131-0.319
			c-0.119-0.12-0.26-0.19-0.42-0.26l-0.359-0.17c-0.189-0.091-0.42-0.2-0.58-0.36c-0.219-0.209-0.299-0.439-0.299-0.709
			c0-0.34,0.129-0.67,0.35-0.9c0.189-0.199,0.51-0.398,1.029-0.398c0.299,0,0.539,0.059,0.779,0.219c0.141,0.09,0.33,0.25,0.48,0.52
			L450.637,551.037z"/>
		<path d="M456.465,553.176c-0.18,0.32-0.439,0.6-0.709,0.77c-0.34,0.22-0.789,0.32-1.24,0.32c-0.559,0-1.02-0.141-1.418-0.54
			c-0.4-0.399-0.621-0.979-0.621-1.609c0-0.649,0.23-1.279,0.67-1.729c0.35-0.35,0.811-0.568,1.41-0.568
			c0.67,0,1.1,0.289,1.35,0.549c0.539,0.561,0.59,1.34,0.59,1.779v0.119h-3.02c0.02,0.301,0.15,0.641,0.359,0.85
			c0.23,0.23,0.51,0.271,0.75,0.271c0.27,0,0.471-0.06,0.67-0.21c0.17-0.13,0.301-0.3,0.391-0.46L456.465,553.176z M455.496,551.467
			c-0.041-0.23-0.15-0.43-0.301-0.57c-0.129-0.119-0.34-0.239-0.658-0.239c-0.34,0-0.561,0.14-0.691,0.271
			c-0.139,0.129-0.248,0.329-0.299,0.539H455.496z"/>
		<path d="M457.807,549.928h0.98v0.39c0.42-0.47,0.898-0.499,1.139-0.499c0.779,0,1.109,0.389,1.24,0.568
			c0.16,0.23,0.26,0.521,0.26,1.17v2.578h-0.98v-2.338c0-1.07-0.398-1.1-0.77-1.1c-0.439,0-0.889,0.061-0.889,1.419v2.019h-0.98
			V549.928z"/>
		<path d="M463.977,550.827v3.308h-0.98v-3.308h-0.408v-0.899h0.408v-1.539h0.98v1.539h0.75v0.899H463.977z"/>
		<path d="M468.766,549.928h0.979v4.207h-0.979v-0.439c-0.43,0.5-0.961,0.57-1.26,0.57c-1.299,0-2.039-1.08-2.039-2.239
			c0-1.369,0.939-2.208,2.049-2.208c0.311,0,0.85,0.079,1.25,0.6V549.928z M466.467,552.047c0,0.729,0.459,1.339,1.168,1.339
			c0.621,0,1.189-0.45,1.189-1.329c0-0.92-0.568-1.359-1.189-1.359C466.926,550.697,466.467,551.297,466.467,552.047z"/>
		<path d="M472.297,550.827v3.308h-0.98v-3.308h-0.408v-0.899h0.408v-1.539h0.98v1.539h0.75v0.899H472.297z"/>
		<path d="M474.496,547.559c0.359,0,0.631,0.27,0.631,0.63s-0.271,0.63-0.631,0.63s-0.629-0.27-0.629-0.63
			S474.137,547.559,474.496,547.559z M474.986,549.928v4.207h-0.979v-4.207H474.986z"/>
		<path d="M480.805,552.037c0,1.289-0.98,2.229-2.25,2.229s-2.248-0.939-2.248-2.229c0-1.3,0.979-2.219,2.248-2.219
			S480.805,550.737,480.805,552.037z M479.805,552.047c0-0.96-0.629-1.35-1.25-1.35c-0.619,0-1.248,0.39-1.248,1.35
			c0,0.809,0.479,1.339,1.248,1.339S479.805,552.855,479.805,552.047z"/>
		<path d="M482.115,549.928h0.98v0.39c0.42-0.47,0.898-0.499,1.139-0.499c0.779,0,1.109,0.389,1.24,0.568
			c0.16,0.23,0.26,0.521,0.26,1.17v2.578h-0.98v-2.338c0-1.07-0.398-1.1-0.77-1.1c-0.439,0-0.889,0.061-0.889,1.419v2.019h-0.98
			V549.928z"/>
		<path d="M432.457,564.469c0.928,0,1.738,0.1,2.479,0.65c0.809,0.609,1.279,1.578,1.279,2.688s-0.461,2.069-1.34,2.689
			c-0.779,0.549-1.51,0.639-2.439,0.639h-1.379v-6.666H432.457z M432.076,570.176h0.439c0.5,0,1.189-0.04,1.77-0.47
			c0.459-0.35,0.91-0.989,0.91-1.899c0-0.879-0.42-1.568-0.9-1.918c-0.58-0.42-1.289-0.461-1.779-0.461h-0.439V570.176z"/>
		<path d="M438.107,564.559c0.359,0,0.629,0.27,0.629,0.63s-0.27,0.63-0.629,0.63s-0.631-0.27-0.631-0.63
			S437.748,564.559,438.107,564.559z M438.596,566.928v4.207h-0.979v-4.207H438.596z"/>
		<path d="M441.977,568.037c-0.102-0.16-0.291-0.359-0.6-0.359c-0.141,0-0.24,0.049-0.301,0.109c-0.051,0.05-0.09,0.13-0.09,0.22
			c0,0.11,0.051,0.181,0.141,0.24c0.059,0.04,0.119,0.06,0.328,0.169l0.5,0.25c0.221,0.11,0.43,0.221,0.59,0.391
			c0.23,0.229,0.311,0.489,0.311,0.779c0,0.38-0.141,0.709-0.369,0.959c-0.33,0.36-0.74,0.471-1.18,0.471
			c-0.27,0-0.609-0.041-0.91-0.271c-0.24-0.18-0.439-0.47-0.539-0.77l0.799-0.38c0.051,0.141,0.141,0.32,0.23,0.4
			c0.061,0.06,0.199,0.16,0.43,0.16c0.15,0,0.309-0.051,0.4-0.141c0.078-0.08,0.139-0.21,0.139-0.33c0-0.119-0.039-0.22-0.129-0.319
			c-0.121-0.12-0.26-0.19-0.42-0.26l-0.359-0.17c-0.191-0.091-0.42-0.2-0.58-0.36c-0.221-0.209-0.301-0.439-0.301-0.709
			c0-0.34,0.131-0.67,0.35-0.9c0.191-0.199,0.51-0.398,1.029-0.398c0.301,0,0.541,0.059,0.781,0.219
			c0.139,0.09,0.328,0.25,0.479,0.52L441.977,568.037z"/>
		<path d="M445.016,573.424h-0.979v-6.496h0.979v0.459c0.361-0.43,0.83-0.568,1.25-0.568c1.109,0,2.049,0.849,2.049,2.188
			c0,1.42-1.039,2.26-2.039,2.26c-0.229,0-0.818-0.08-1.26-0.62V573.424z M444.957,569.057c0,0.879,0.568,1.329,1.189,1.329
			c0.709,0,1.168-0.61,1.168-1.339c0-0.75-0.459-1.35-1.168-1.35C445.525,567.697,444.957,568.137,444.957,569.057z"/>
		<path d="M450.615,563.85v7.285h-0.979v-7.285H450.615z"/>
		<path d="M455.234,566.928h0.98v4.207h-0.98v-0.439c-0.43,0.5-0.959,0.57-1.26,0.57c-1.299,0-2.039-1.08-2.039-2.239
			c0-1.369,0.939-2.208,2.049-2.208c0.311,0,0.85,0.079,1.25,0.6V566.928z M452.936,569.047c0,0.729,0.461,1.339,1.17,1.339
			c0.619,0,1.189-0.45,1.189-1.329c0-0.92-0.57-1.359-1.189-1.359C453.396,567.697,452.936,568.297,452.936,569.047z"/>
		<path d="M458.996,570.476l-1.801-3.548h1.18l1.199,2.459l1.221-2.459h1.1l-3.35,6.496h-1.1L458.996,570.476z"/>
		<path d="M465.508,566.928h0.979v0.39c0.33-0.399,0.719-0.499,1.039-0.499c0.439,0,0.85,0.209,1.09,0.619
			c0.35-0.5,0.879-0.619,1.25-0.619c0.51,0,0.959,0.239,1.199,0.658c0.08,0.141,0.219,0.451,0.219,1.061v2.598h-0.979v-2.318
			c0-0.47-0.051-0.66-0.09-0.75c-0.061-0.159-0.211-0.369-0.561-0.369c-0.24,0-0.449,0.13-0.58,0.31
			c-0.17,0.24-0.189,0.6-0.189,0.96v2.168h-0.979v-2.318c0-0.47-0.051-0.66-0.09-0.75c-0.061-0.159-0.211-0.369-0.561-0.369
			c-0.24,0-0.449,0.13-0.58,0.31c-0.17,0.24-0.189,0.6-0.189,0.96v2.168h-0.979V566.928z"/>
		<path d="M477.104,569.037c0,1.289-0.979,2.229-2.248,2.229s-2.25-0.939-2.25-2.229c0-1.3,0.98-2.219,2.25-2.219
			S477.104,567.737,477.104,569.037z M476.104,569.047c0-0.96-0.629-1.35-1.248-1.35s-1.25,0.39-1.25,1.35
			c0,0.809,0.48,1.339,1.25,1.339S476.104,569.855,476.104,569.047z"/>
		<path d="M481.504,563.85h0.98v7.285h-0.98v-0.439c-0.43,0.5-0.959,0.57-1.26,0.57c-1.299,0-2.039-1.08-2.039-2.239
			c0-1.369,0.939-2.208,2.049-2.208c0.311,0,0.85,0.079,1.25,0.6V563.85z M479.205,569.047c0,0.729,0.461,1.339,1.17,1.339
			c0.619,0,1.189-0.45,1.189-1.329c0-0.92-0.57-1.359-1.189-1.359C479.666,567.697,479.205,568.297,479.205,569.047z"/>
		<path d="M487.793,570.176c-0.18,0.32-0.439,0.6-0.709,0.77c-0.34,0.22-0.789,0.32-1.24,0.32c-0.559,0-1.02-0.141-1.418-0.54
			c-0.4-0.399-0.621-0.979-0.621-1.609c0-0.649,0.23-1.279,0.67-1.729c0.35-0.35,0.811-0.568,1.41-0.568
			c0.67,0,1.1,0.289,1.35,0.549c0.539,0.561,0.59,1.34,0.59,1.779v0.119h-3.02c0.02,0.301,0.15,0.641,0.359,0.85
			c0.23,0.23,0.51,0.271,0.75,0.271c0.27,0,0.471-0.06,0.67-0.21c0.17-0.13,0.301-0.3,0.391-0.46L487.793,570.176z M486.824,568.467
			c-0.041-0.23-0.15-0.43-0.301-0.57c-0.129-0.119-0.34-0.239-0.658-0.239c-0.34,0-0.561,0.14-0.691,0.271
			c-0.139,0.129-0.248,0.329-0.299,0.539H486.824z"/>
		<path d="M490.125,563.85v7.285h-0.979v-7.285H490.125z"/>
		<path d="M430.912,581.469c0.928,0,1.738,0.1,2.479,0.65c0.809,0.609,1.279,1.578,1.279,2.688s-0.461,2.069-1.34,2.689
			c-0.779,0.549-1.51,0.639-2.439,0.639h-1.379v-6.666H430.912z M430.531,587.176h0.439c0.5,0,1.189-0.04,1.77-0.47
			c0.459-0.35,0.91-0.989,0.91-1.899c0-0.879-0.42-1.568-0.9-1.918c-0.58-0.42-1.289-0.461-1.779-0.461h-0.439V587.176z"/>
		<path d="M440.35,586.037c0,1.289-0.979,2.229-2.248,2.229s-2.25-0.939-2.25-2.229c0-1.3,0.98-2.219,2.25-2.219
			S440.35,584.737,440.35,586.037z M439.35,586.047c0-0.96-0.629-1.35-1.248-1.35s-1.25,0.39-1.25,1.35
			c0,0.809,0.48,1.339,1.25,1.339S439.35,586.855,439.35,586.047z"/>
		<path d="M444.93,585.217c-0.449-0.439-0.889-0.52-1.189-0.52c-0.459,0-0.75,0.189-0.93,0.369c-0.18,0.181-0.359,0.5-0.359,0.971
			c0,0.489,0.189,0.818,0.381,1.009c0.219,0.21,0.529,0.34,0.889,0.34c0.4,0,0.869-0.16,1.209-0.54v1.09
			c-0.24,0.15-0.629,0.33-1.279,0.33c-0.699,0-1.199-0.2-1.6-0.62c-0.299-0.31-0.6-0.81-0.6-1.579c0-0.789,0.33-1.319,0.641-1.629
			c0.33-0.33,0.859-0.619,1.689-0.619c0.318,0,0.699,0.049,1.148,0.299V585.217z"/>
		<path d="M447.152,583.928v2.408c0,0.25,0.01,0.54,0.18,0.76c0.131,0.17,0.359,0.29,0.641,0.29c0.279,0,0.51-0.12,0.639-0.29
			c0.17-0.22,0.18-0.51,0.18-0.76v-2.408h0.98v2.438c0,0.54-0.061,0.989-0.451,1.38c-0.379,0.379-0.898,0.52-1.369,0.52
			c-0.43,0-0.949-0.131-1.328-0.52c-0.391-0.391-0.449-0.84-0.449-1.38v-2.438H447.152z"/>
		<path d="M451.313,583.928h0.979v0.39c0.33-0.399,0.721-0.499,1.041-0.499c0.439,0,0.85,0.209,1.088,0.619
			c0.352-0.5,0.881-0.619,1.25-0.619c0.51,0,0.959,0.239,1.199,0.658c0.08,0.141,0.221,0.451,0.221,1.061v2.598h-0.98v-2.318
			c0-0.47-0.049-0.66-0.09-0.75c-0.059-0.159-0.209-0.369-0.559-0.369c-0.24,0-0.451,0.13-0.58,0.31
			c-0.17,0.24-0.189,0.6-0.189,0.96v2.168h-0.98v-2.318c0-0.47-0.049-0.66-0.09-0.75c-0.061-0.159-0.209-0.369-0.559-0.369
			c-0.24,0-0.451,0.13-0.58,0.31c-0.17,0.24-0.191,0.6-0.191,0.96v2.168h-0.979V583.928z"/>
		<path d="M462.4,587.176c-0.18,0.32-0.439,0.6-0.711,0.77c-0.34,0.22-0.789,0.32-1.238,0.32c-0.561,0-1.02-0.141-1.42-0.54
			c-0.398-0.399-0.619-0.979-0.619-1.609c0-0.649,0.23-1.279,0.67-1.729c0.35-0.35,0.809-0.568,1.408-0.568
			c0.67,0,1.1,0.289,1.35,0.549c0.539,0.561,0.59,1.34,0.59,1.779v0.119h-3.018c0.02,0.301,0.148,0.641,0.359,0.85
			c0.23,0.23,0.51,0.271,0.75,0.271c0.27,0,0.469-0.06,0.67-0.21c0.17-0.13,0.299-0.3,0.389-0.46L462.4,587.176z M461.43,585.467
			c-0.039-0.23-0.148-0.43-0.299-0.57c-0.131-0.119-0.34-0.239-0.66-0.239c-0.34,0-0.559,0.14-0.689,0.271
			c-0.141,0.129-0.25,0.329-0.301,0.539H461.43z"/>
		<path d="M463.742,583.928h0.979v0.39c0.42-0.47,0.9-0.499,1.141-0.499c0.779,0,1.109,0.389,1.238,0.568
			c0.16,0.23,0.26,0.521,0.26,1.17v2.578h-0.979v-2.338c0-1.07-0.4-1.1-0.77-1.1c-0.439,0-0.891,0.061-0.891,1.419v2.019h-0.979
			V583.928z"/>
		<path d="M469.91,584.827v3.308h-0.979v-3.308h-0.41v-0.899h0.41v-1.539h0.979v1.539h0.75v0.899H469.91z"/>
		<path d="M474.701,583.928h0.979v4.207h-0.979v-0.439c-0.43,0.5-0.961,0.57-1.26,0.57c-1.299,0-2.039-1.08-2.039-2.239
			c0-1.369,0.939-2.208,2.049-2.208c0.311,0,0.85,0.079,1.25,0.6V583.928z M472.402,586.047c0,0.729,0.459,1.339,1.168,1.339
			c0.621,0,1.189-0.45,1.189-1.329c0-0.92-0.568-1.359-1.189-1.359C472.861,584.697,472.402,585.297,472.402,586.047z"/>
		<path d="M478.23,584.827v3.308h-0.979v-3.308h-0.41v-0.899h0.41v-1.539h0.979v1.539h0.75v0.899H478.23z"/>
		<path d="M480.432,581.559c0.359,0,0.629,0.27,0.629,0.63s-0.27,0.63-0.629,0.63s-0.631-0.27-0.631-0.63
			S480.072,581.559,480.432,581.559z M480.92,583.928v4.207h-0.979v-4.207H480.92z"/>
		<path d="M486.738,586.037c0,1.289-0.979,2.229-2.248,2.229s-2.25-0.939-2.25-2.229c0-1.3,0.98-2.219,2.25-2.219
			S486.738,584.737,486.738,586.037z M485.738,586.047c0-0.96-0.629-1.35-1.248-1.35s-1.25,0.39-1.25,1.35
			c0,0.809,0.48,1.339,1.25,1.339S485.738,586.855,485.738,586.047z"/>
		<path d="M488.051,583.928h0.979v0.39c0.42-0.47,0.9-0.499,1.141-0.499c0.779,0,1.109,0.389,1.238,0.568
			c0.16,0.23,0.26,0.521,0.26,1.17v2.578h-0.979v-2.338c0-1.07-0.4-1.1-0.77-1.1c-0.439,0-0.891,0.061-0.891,1.419v2.019h-0.979
			V583.928z"/>
	</g>
</g>
<rect x="153.893" y="424.598" fill-rule="evenodd" clip-rule="evenodd" fill="none" stroke="#FFFFFF" stroke-miterlimit="10" width="158.209" height="211.176"/>
<rect x="371.396" y="169.197" fill-rule="evenodd" clip-rule="evenodd" fill="none" stroke="#FFFFFF" stroke-miterlimit="10" width="158.209" height="211.176"/>
<rect x="270.364" y="59.023" fill="none" width="118.367" height="10.881"/>
<text transform="matrix(1 0 0 1 270.6792 65.584)" fill="#FFFFFF" font-family="'FuturaPT-Bold'" font-size="9" letter-spacing="3">DESIGN PROCESS</text>
</svg>
