<?xml version="1.0" encoding="utf-8"?>
<!-- Generator: Adobe Illustrator 16.0.0, SVG Export Plug-In . SVG Version: 6.00 Build 0)  -->
<!DOCTYPE svg PUBLIC "-//W3C//DTD SVG 1.1//EN" "http://www.w3.org/Graphics/SVG/1.1/DTD/svg11.dtd">
<svg version="1.1" id="Layer_1" xmlns="http://www.w3.org/2000/svg" xmlns:xlink="http://www.w3.org/1999/xlink" x="0px" y="0px"
	 width="673.302px" height="768.406px" viewBox="0 0 673.302 768.406" enable-background="new 0 0 673.302 768.406"
	 xml:space="preserve">
<g>
	<g>
		<g>
			<path fill="#FFFFFF" d="M204.394,288.921c0.86,0,1.399,0.11,1.84,0.52c0.359,0.34,0.529,0.77,0.529,1.319
				c0,0.26-0.04,0.529-0.2,0.79c-0.149,0.26-0.35,0.39-0.499,0.459c0.119,0.03,0.529,0.14,0.859,0.48
				c0.359,0.379,0.439,0.839,0.439,1.249c0,0.48-0.12,0.86-0.439,1.2c-0.53,0.56-1.359,0.649-1.869,0.649h-1.669v-6.667H204.394z
				 M204.404,291.79h0.31c0.25,0,0.59-0.03,0.829-0.26c0.23-0.22,0.26-0.53,0.26-0.76c0-0.2-0.029-0.44-0.239-0.64
				c-0.23-0.22-0.52-0.25-0.81-0.25h-0.35V291.79z M204.404,294.628h0.619c0.29,0,0.75-0.05,1.01-0.26c0.2-0.16,0.33-0.44,0.33-0.74
				c0-0.27-0.101-0.53-0.271-0.7c-0.279-0.27-0.689-0.3-1.049-0.3h-0.64V294.628z"/>
		</g>
		<g>
			<path fill="#FFFFFF" d="M208.765,291.38h0.979v0.379c0.11-0.13,0.271-0.27,0.41-0.35c0.19-0.11,0.38-0.14,0.6-0.14
				c0.24,0,0.5,0.04,0.77,0.2l-0.399,0.89c-0.22-0.14-0.4-0.15-0.5-0.15c-0.21,0-0.42,0.03-0.609,0.229
				c-0.271,0.29-0.271,0.69-0.271,0.97v2.179h-0.979V291.38z"/>
		</g>
		<g>
			<path fill="#FFFFFF" d="M212.874,289.012c0.359,0,0.63,0.27,0.63,0.629s-0.271,0.63-0.63,0.63s-0.63-0.27-0.63-0.63
				S212.515,289.012,212.874,289.012z M213.364,291.38v4.208h-0.979v-4.208H213.364z"/>
		</g>
		<g>
			<path fill="#FFFFFF" d="M218.673,294.628c-0.18,0.32-0.439,0.6-0.71,0.77c-0.34,0.22-0.789,0.32-1.239,0.32
				c-0.56,0-1.02-0.14-1.419-0.54s-0.62-0.979-0.62-1.609c0-0.649,0.23-1.279,0.67-1.729c0.35-0.35,0.81-0.569,1.409-0.569
				c0.67,0,1.1,0.29,1.35,0.549c0.539,0.56,0.59,1.339,0.59,1.779v0.12h-3.019c0.02,0.3,0.149,0.64,0.359,0.85
				c0.23,0.23,0.51,0.27,0.75,0.27c0.27,0,0.47-0.06,0.67-0.21c0.17-0.13,0.3-0.3,0.39-0.46L218.673,294.628z M217.703,292.919
				c-0.04-0.23-0.149-0.43-0.3-0.57c-0.13-0.12-0.34-0.24-0.659-0.24c-0.34,0-0.56,0.14-0.69,0.27c-0.14,0.13-0.249,0.33-0.3,0.54
				H217.703z"/>
		</g>
		<g>
			<path fill="#FFFFFF" d="M221.104,292.28v3.308h-0.979v-3.308h-0.42v-0.899h0.42v-1.459c0-0.649,0.17-1.059,0.409-1.319
				c0.181-0.19,0.49-0.41,1-0.41c0.21,0,0.42,0.03,0.63,0.12v0.969c-0.2-0.12-0.33-0.15-0.47-0.15c-0.12,0-0.3,0.02-0.43,0.16
				c-0.051,0.05-0.16,0.2-0.16,0.5v1.589h1.06v0.899H221.104z"/>
		</g>
		<g>
			<path fill="#FFFFFF" d="M188.279,305.921c0.929,0,1.738,0.1,2.479,0.65c0.81,0.609,1.279,1.579,1.279,2.688
				s-0.46,2.069-1.34,2.688c-0.779,0.55-1.509,0.64-2.438,0.64h-1.379v-6.667H188.279z M187.899,311.628h0.439
				c0.5,0,1.189-0.04,1.769-0.47c0.46-0.35,0.91-0.989,0.91-1.899c0-0.879-0.42-1.569-0.899-1.919c-0.58-0.42-1.29-0.46-1.779-0.46
				h-0.439V311.628z"/>
		</g>
		<g>
			<path fill="#FFFFFF" d="M197.208,311.628c-0.18,0.32-0.439,0.6-0.71,0.77c-0.34,0.22-0.789,0.32-1.239,0.32
				c-0.56,0-1.02-0.14-1.419-0.54s-0.62-0.979-0.62-1.609c0-0.649,0.23-1.279,0.67-1.729c0.35-0.35,0.81-0.569,1.409-0.569
				c0.67,0,1.1,0.29,1.35,0.549c0.539,0.56,0.59,1.339,0.59,1.779v0.12h-3.019c0.02,0.3,0.149,0.64,0.359,0.85
				c0.23,0.23,0.51,0.27,0.75,0.27c0.27,0,0.47-0.06,0.67-0.21c0.17-0.13,0.3-0.3,0.39-0.46L197.208,311.628z M196.238,309.919
				c-0.04-0.23-0.149-0.43-0.3-0.57c-0.13-0.12-0.34-0.24-0.659-0.24c-0.34,0-0.56,0.14-0.69,0.27c-0.14,0.13-0.249,0.33-0.3,0.54
				H196.238z"/>
		</g>
		<g>
			<path fill="#FFFFFF" d="M199.54,305.302v7.286h-0.979v-7.286H199.54z"/>
		</g>
		<g>
			<path fill="#FFFFFF" d="M201.57,306.012c0.359,0,0.63,0.27,0.63,0.629s-0.271,0.63-0.63,0.63s-0.63-0.27-0.63-0.63
				S201.211,306.012,201.57,306.012z M202.06,308.38v4.208h-0.979v-4.208H202.06z"/>
		</g>
		<g>
			<path fill="#FFFFFF" d="M204.14,308.38l1.08,2.398l1.079-2.398h1.1l-2.179,4.507l-2.18-4.507H204.14z"/>
		</g>
		<g>
			<path fill="#FFFFFF" d="M212.028,311.628c-0.18,0.32-0.439,0.6-0.71,0.77c-0.34,0.22-0.789,0.32-1.239,0.32
				c-0.56,0-1.02-0.14-1.419-0.54s-0.62-0.979-0.62-1.609c0-0.649,0.23-1.279,0.67-1.729c0.35-0.35,0.81-0.569,1.409-0.569
				c0.67,0,1.1,0.29,1.35,0.549c0.539,0.56,0.59,1.339,0.59,1.779v0.12h-3.019c0.02,0.3,0.149,0.64,0.359,0.85
				c0.23,0.23,0.51,0.27,0.75,0.27c0.27,0,0.47-0.06,0.67-0.21c0.17-0.13,0.3-0.3,0.39-0.46L212.028,311.628z M211.059,309.919
				c-0.04-0.23-0.149-0.43-0.3-0.57c-0.13-0.12-0.34-0.24-0.659-0.24c-0.34,0-0.56,0.14-0.69,0.27c-0.14,0.13-0.249,0.33-0.3,0.54
				H211.059z"/>
		</g>
		<g>
			<path fill="#FFFFFF" d="M213.381,308.38h0.979v0.379c0.109-0.13,0.27-0.27,0.409-0.35c0.19-0.11,0.38-0.14,0.6-0.14
				c0.24,0,0.5,0.04,0.77,0.2l-0.399,0.89c-0.22-0.14-0.4-0.15-0.5-0.15c-0.21,0-0.42,0.03-0.609,0.229
				c-0.27,0.29-0.27,0.69-0.27,0.97v2.179h-0.979V308.38z"/>
		</g>
		<g>
			<path fill="#FFFFFF" d="M219.869,308.38h0.979v4.208h-0.979v-0.44c-0.43,0.5-0.96,0.57-1.26,0.57
				c-1.299,0-2.039-1.08-2.039-2.239c0-1.369,0.939-2.208,2.049-2.208c0.311,0,0.85,0.08,1.25,0.6V308.38z M217.57,310.499
				c0,0.729,0.46,1.339,1.169,1.339c0.62,0,1.189-0.45,1.189-1.33c0-0.919-0.569-1.359-1.189-1.359
				C218.03,309.15,217.57,309.75,217.57,310.499z"/>
		</g>
		<g>
			<path fill="#FFFFFF" d="M223.37,308.87c0.4-0.52,0.94-0.6,1.25-0.6c1.109,0,2.049,0.839,2.049,2.208
				c0,1.159-0.74,2.239-2.039,2.239c-0.3,0-0.829-0.07-1.26-0.57v0.44h-0.979v-7.286h0.979V308.87z M223.311,310.509
				c0,0.88,0.569,1.33,1.189,1.33c0.71,0,1.169-0.61,1.169-1.339c0-0.75-0.459-1.349-1.169-1.349
				C223.88,309.15,223.311,309.589,223.311,310.509z"/>
		</g>
		<g>
			<path fill="#FFFFFF" d="M228.97,305.302v7.286h-0.979v-7.286H228.97z"/>
		</g>
		<g>
			<path fill="#FFFFFF" d="M234.278,311.628c-0.18,0.32-0.439,0.6-0.71,0.77c-0.34,0.22-0.789,0.32-1.239,0.32
				c-0.56,0-1.02-0.14-1.419-0.54s-0.62-0.979-0.62-1.609c0-0.649,0.23-1.279,0.67-1.729c0.35-0.35,0.81-0.569,1.409-0.569
				c0.67,0,1.1,0.29,1.35,0.549c0.539,0.56,0.59,1.339,0.59,1.779v0.12h-3.019c0.02,0.3,0.149,0.64,0.359,0.85
				c0.23,0.23,0.51,0.27,0.75,0.27c0.27,0,0.47-0.06,0.67-0.21c0.17-0.13,0.3-0.3,0.39-0.46L234.278,311.628z M233.309,309.919
				c-0.04-0.23-0.149-0.43-0.3-0.57c-0.13-0.12-0.34-0.24-0.659-0.24c-0.34,0-0.56,0.14-0.69,0.27c-0.14,0.13-0.249,0.33-0.3,0.54
				H233.309z"/>
		</g>
		<g>
			<path fill="#FFFFFF" d="M237.47,309.49c-0.101-0.16-0.29-0.36-0.6-0.36c-0.141,0-0.24,0.05-0.3,0.11
				c-0.051,0.05-0.091,0.13-0.091,0.22c0,0.11,0.051,0.18,0.141,0.24c0.06,0.04,0.12,0.06,0.329,0.169l0.5,0.25
				c0.22,0.11,0.43,0.22,0.59,0.39c0.229,0.23,0.31,0.49,0.31,0.78c0,0.38-0.14,0.709-0.369,0.959c-0.33,0.36-0.74,0.47-1.18,0.47
				c-0.27,0-0.609-0.04-0.909-0.27c-0.24-0.18-0.44-0.47-0.54-0.77l0.8-0.379c0.05,0.14,0.14,0.32,0.229,0.399
				c0.061,0.06,0.2,0.16,0.43,0.16c0.15,0,0.31-0.05,0.4-0.14c0.079-0.08,0.14-0.21,0.14-0.33c0-0.12-0.04-0.22-0.13-0.32
				c-0.12-0.12-0.26-0.19-0.42-0.26l-0.359-0.17c-0.19-0.09-0.42-0.2-0.58-0.36c-0.22-0.21-0.3-0.44-0.3-0.71
				c0-0.34,0.13-0.669,0.35-0.899c0.19-0.2,0.51-0.399,1.029-0.399c0.3,0,0.54,0.06,0.78,0.22c0.14,0.09,0.329,0.25,0.479,0.52
				L237.47,309.49z"/>
		</g>
		<g>
			<path fill="#FFFFFF" d="M195.477,326.26c0,1.959-1.47,3.458-3.468,3.458c-1.999,0-3.469-1.499-3.469-3.458
				s1.47-3.458,3.469-3.458C194.007,322.802,195.477,324.301,195.477,326.26z M194.457,326.26c0-1.479-1.02-2.519-2.448-2.519
				c-1.43,0-2.449,1.04-2.449,2.519s1.02,2.519,2.449,2.519C193.438,328.778,194.457,327.739,194.457,326.26z"/>
		</g>
		<g>
			<path fill="#FFFFFF" d="M197.89,326.28v3.308h-0.979v-3.308h-0.409v-0.899h0.409v-1.54h0.979v1.54h0.75v0.899H197.89z"/>
		</g>
		<g>
			<path fill="#FFFFFF" d="M199.601,322.302h0.979v3.438c0.42-0.43,0.88-0.47,1.13-0.47c0.77,0,1.119,0.399,1.239,0.569
				c0.26,0.38,0.27,0.87,0.27,1.169v2.579h-0.979v-2.489c0-0.25,0-0.52-0.189-0.729c-0.11-0.12-0.3-0.22-0.55-0.22
				c-0.33,0-0.59,0.16-0.72,0.35c-0.14,0.2-0.2,0.52-0.2,1.06v2.029h-0.979V322.302z"/>
		</g>
		<g>
			<path fill="#FFFFFF" d="M208.42,328.628c-0.18,0.32-0.439,0.6-0.71,0.77c-0.34,0.22-0.789,0.32-1.239,0.32
				c-0.56,0-1.02-0.14-1.419-0.54s-0.62-0.979-0.62-1.609c0-0.649,0.23-1.279,0.67-1.729c0.35-0.35,0.81-0.569,1.409-0.569
				c0.67,0,1.1,0.29,1.35,0.549c0.539,0.56,0.59,1.339,0.59,1.779v0.12h-3.019c0.02,0.3,0.149,0.64,0.359,0.85
				c0.23,0.23,0.51,0.27,0.75,0.27c0.27,0,0.47-0.06,0.67-0.21c0.17-0.13,0.3-0.3,0.39-0.46L208.42,328.628z M207.45,326.919
				c-0.04-0.23-0.149-0.43-0.3-0.57c-0.13-0.12-0.34-0.24-0.659-0.24c-0.34,0-0.56,0.14-0.69,0.27c-0.14,0.13-0.249,0.33-0.3,0.54
				H207.45z"/>
		</g>
		<g>
			<path fill="#FFFFFF" d="M209.772,325.38h0.979v0.379c0.11-0.13,0.271-0.27,0.41-0.35c0.19-0.11,0.38-0.14,0.6-0.14
				c0.24,0,0.5,0.04,0.77,0.2l-0.399,0.89c-0.22-0.14-0.4-0.15-0.5-0.15c-0.21,0-0.42,0.03-0.609,0.229
				c-0.271,0.29-0.271,0.69-0.271,0.97v2.179h-0.979V325.38z"/>
		</g>
		<g>
			<path fill="#FFFFFF" d="M217.222,322.921v6.667h-1.02v-6.667H217.222z"/>
		</g>
		<g>
			<path fill="#FFFFFF" d="M218.931,325.38h0.979v0.39c0.42-0.47,0.899-0.5,1.14-0.5c0.779,0,1.109,0.39,1.239,0.569
				c0.16,0.23,0.26,0.52,0.26,1.169v2.579h-0.979v-2.339c0-1.069-0.399-1.099-0.77-1.099c-0.439,0-0.89,0.06-0.89,1.419v2.019
				h-0.979V325.38z"/>
		</g>
		<g>
			<path fill="#FFFFFF" d="M225.071,331.876h-0.979v-6.496h0.979v0.459c0.359-0.43,0.829-0.569,1.249-0.569
				c1.109,0,2.049,0.849,2.049,2.188c0,1.419-1.04,2.259-2.039,2.259c-0.229,0-0.819-0.08-1.259-0.62V331.876z M225.011,327.509
				c0,0.88,0.569,1.33,1.189,1.33c0.71,0,1.169-0.61,1.169-1.339c0-0.75-0.459-1.349-1.169-1.349
				C225.58,326.15,225.011,326.589,225.011,327.509z"/>
		</g>
		<g>
			<path fill="#FFFFFF" d="M230.671,325.38v2.409c0,0.25,0.011,0.54,0.181,0.759c0.13,0.17,0.359,0.29,0.64,0.29
				c0.279,0,0.51-0.12,0.64-0.29c0.17-0.22,0.18-0.51,0.18-0.759v-2.409h0.979v2.438c0,0.54-0.061,0.989-0.45,1.379
				c-0.38,0.38-0.899,0.52-1.369,0.52c-0.43,0-0.949-0.13-1.329-0.52c-0.39-0.39-0.449-0.84-0.449-1.379v-2.438H230.671z"/>
		</g>
		<g>
			<path fill="#FFFFFF" d="M235.841,326.28v3.308h-0.979v-3.308h-0.409v-0.899h0.409v-1.54h0.979v1.54h0.75v0.899H235.841z"/>
		</g>
	</g>
	<g>
		<g>
			<path fill="#FFFFFF" d="M202.737,221.224v6.27h-1.626v-6.27H202.737z"/>
		</g>
		<g>
			<path fill="#FFFFFF" d="M204.036,223.292h1.504v0.526c0.414-0.545,0.969-0.62,1.335-0.62c0.433,0,0.894,0.104,1.241,0.451
				c0.356,0.357,0.395,0.714,0.395,1.175v2.669h-1.504v-2.125c0-0.244,0.01-0.611-0.188-0.817c-0.141-0.15-0.329-0.179-0.479-0.179
				c-0.234,0-0.432,0.084-0.554,0.197c-0.15,0.141-0.245,0.414-0.245,0.667v2.256h-1.504V223.292z"/>
		</g>
		<g>
			<path fill="#FFFFFF" d="M211.164,229.646h-1.504v-6.354h1.504v0.461c0.264-0.329,0.668-0.602,1.288-0.602
				c0.648,0,1.156,0.272,1.494,0.611c0.348,0.348,0.64,0.902,0.64,1.626c0,0.705-0.272,1.269-0.677,1.664
				c-0.47,0.461-1.016,0.583-1.438,0.583c-0.272,0-0.836-0.057-1.307-0.545V229.646z M211.409,224.711
				c-0.188,0.188-0.292,0.46-0.292,0.696c0,0.244,0.132,0.507,0.292,0.667c0.178,0.179,0.423,0.282,0.677,0.282
				c0.263,0,0.498-0.104,0.667-0.282c0.16-0.16,0.291-0.414,0.291-0.667c0-0.235-0.104-0.508-0.291-0.696
				c-0.169-0.179-0.404-0.282-0.667-0.282C211.832,224.429,211.587,224.532,211.409,224.711z"/>
		</g>
		<g>
			<path fill="#FFFFFF" d="M217.081,223.292v2.35c0,0.169,0.028,0.432,0.226,0.611c0.15,0.132,0.349,0.16,0.526,0.16
				c0.188,0,0.367-0.019,0.536-0.178c0.188-0.188,0.216-0.404,0.216-0.592v-2.35h1.504v2.623c0,0.357-0.027,0.743-0.404,1.128
				c-0.517,0.536-1.24,0.592-1.813,0.592c-0.63,0-1.4-0.066-1.898-0.602c-0.32-0.338-0.396-0.714-0.396-1.119v-2.623H217.081z"/>
		</g>
		<g>
			<path fill="#FFFFFF" d="M222.913,224.523v2.97h-1.504v-2.97h-0.479v-1.231h0.479v-1.382h1.504v1.382h0.855v1.231H222.913z"/>
		</g>
	</g>
	<g>
		<g>
			<path fill="#FFFFFF" d="M142.489,201.031c-2.221-2.539-2.697-5.872-2.697-8.633c0-2.729,0.477-6.125,2.697-8.665
				c1.334-1.523,2.92-2.285,4.793-2.285s3.459,0.762,4.793,2.285c2.221,2.539,2.697,5.935,2.697,8.665
				c0,2.761-0.477,6.094-2.697,8.633c-1.334,1.523-2.889,2.285-4.793,2.285S143.823,202.554,142.489,201.031z M144.426,186.05
				c-1.175,1.746-1.46,4.475-1.46,6.316c0,1.873,0.285,4.57,1.46,6.348c0.921,1.396,2.031,1.746,2.856,1.746
				s1.936-0.349,2.856-1.746c1.175-1.777,1.46-4.475,1.46-6.348c0-1.841-0.285-4.57-1.46-6.316
				c-0.921-1.396-2.031-1.746-2.856-1.746S145.347,184.654,144.426,186.05z"/>
		</g>
		<g>
			<path fill="#FFFFFF" d="M161.886,184.781h-3.682l1.777-2.983h5.142v21.169h-3.237V184.781z"/>
		</g>
	</g>
</g>
<g>
	<g>
		<g>
			<path fill="#FFFFFF" d="M403.143,280.921v4.018c0,0.36,0.01,0.799,0.209,1.149c0.199,0.34,0.65,0.689,1.24,0.689
				c0.588,0,1.039-0.35,1.238-0.689c0.199-0.35,0.211-0.79,0.211-1.149v-4.018h1.02v4.288c0,0.53-0.111,1.169-0.621,1.729
				c-0.35,0.379-0.939,0.779-1.848,0.779c-0.91,0-1.5-0.4-1.85-0.779c-0.51-0.56-0.619-1.2-0.619-1.729v-4.288H403.143z"/>
		</g>
		<g>
			<path fill="#FFFFFF" d="M410.621,284.49c-0.1-0.16-0.289-0.36-0.6-0.36c-0.141,0-0.24,0.05-0.299,0.11
				c-0.051,0.05-0.092,0.13-0.092,0.22c0,0.11,0.051,0.18,0.141,0.24c0.061,0.04,0.121,0.06,0.33,0.169l0.5,0.25
				c0.219,0.11,0.43,0.22,0.59,0.39c0.229,0.23,0.309,0.49,0.309,0.78c0,0.38-0.139,0.709-0.369,0.959
				c-0.33,0.36-0.74,0.47-1.18,0.47c-0.27,0-0.609-0.04-0.908-0.27c-0.24-0.18-0.441-0.47-0.541-0.77l0.801-0.379
				c0.049,0.14,0.139,0.32,0.229,0.399c0.061,0.06,0.201,0.16,0.43,0.16c0.15,0,0.311-0.05,0.4-0.14
				c0.08-0.08,0.141-0.21,0.141-0.33c0-0.12-0.041-0.22-0.131-0.32c-0.119-0.12-0.26-0.19-0.42-0.26l-0.359-0.17
				c-0.189-0.09-0.42-0.2-0.58-0.36c-0.219-0.21-0.299-0.44-0.299-0.71c0-0.34,0.129-0.669,0.35-0.899
				c0.189-0.2,0.51-0.399,1.029-0.399c0.299,0,0.539,0.06,0.779,0.22c0.141,0.09,0.33,0.25,0.48,0.52L410.621,284.49z"/>
		</g>
		<g>
			<path fill="#FFFFFF" d="M416.449,286.628c-0.18,0.32-0.439,0.6-0.709,0.77c-0.34,0.22-0.789,0.32-1.24,0.32
				c-0.559,0-1.02-0.14-1.418-0.54c-0.4-0.4-0.621-0.979-0.621-1.609c0-0.649,0.23-1.279,0.67-1.729
				c0.35-0.35,0.811-0.569,1.41-0.569c0.67,0,1.1,0.29,1.35,0.549c0.539,0.56,0.59,1.339,0.59,1.779v0.12h-3.02
				c0.02,0.3,0.15,0.64,0.359,0.85c0.23,0.23,0.51,0.27,0.75,0.27c0.27,0,0.471-0.06,0.67-0.21c0.17-0.13,0.301-0.3,0.391-0.46
				L416.449,286.628z M415.48,284.919c-0.041-0.23-0.15-0.43-0.301-0.57c-0.129-0.12-0.34-0.24-0.658-0.24
				c-0.34,0-0.561,0.14-0.691,0.27c-0.139,0.13-0.248,0.33-0.299,0.54H415.48z"/>
		</g>
		<g>
			<path fill="#FFFFFF" d="M417.803,283.38h0.979v0.379c0.111-0.13,0.271-0.27,0.41-0.35c0.191-0.11,0.381-0.14,0.6-0.14
				c0.24,0,0.5,0.04,0.77,0.2l-0.398,0.89c-0.221-0.14-0.4-0.15-0.5-0.15c-0.211,0-0.42,0.03-0.609,0.229
				c-0.271,0.29-0.271,0.69-0.271,0.97v2.179h-0.979V283.38z"/>
		</g>
		<g>
			<path fill="#FFFFFF" d="M427.111,282.401c-0.061-0.15-0.15-0.29-0.301-0.42c-0.209-0.17-0.43-0.24-0.719-0.24
				c-0.619,0-0.939,0.37-0.939,0.799c0,0.2,0.07,0.55,0.719,0.81l0.67,0.27c1.23,0.5,1.57,1.199,1.57,1.959
				c0,1.269-0.9,2.139-2.15,2.139c-0.77,0-1.229-0.29-1.568-0.669c-0.359-0.4-0.52-0.84-0.561-1.299l1.01-0.22
				c0,0.33,0.121,0.64,0.281,0.85c0.189,0.24,0.469,0.4,0.869,0.4c0.619,0,1.1-0.45,1.1-1.119c0-0.68-0.52-0.959-0.961-1.14
				l-0.639-0.27c-0.551-0.229-1.359-0.689-1.359-1.689c0-0.899,0.699-1.759,1.949-1.759c0.719,0,1.129,0.27,1.34,0.45
				c0.18,0.16,0.369,0.39,0.508,0.669L427.111,282.401z"/>
		</g>
		<g>
			<path fill="#FFFFFF" d="M430.521,284.28v3.308h-0.979v-3.308h-0.41v-0.899h0.41v-1.54h0.979v1.54h0.75v0.899H430.521z"/>
		</g>
		<g>
			<path fill="#FFFFFF" d="M433.211,283.38v2.409c0,0.25,0.012,0.54,0.182,0.759c0.129,0.17,0.359,0.29,0.639,0.29
				s0.51-0.12,0.641-0.29c0.17-0.22,0.18-0.51,0.18-0.759v-2.409h0.979v2.438c0,0.54-0.061,0.989-0.449,1.379
				c-0.381,0.38-0.9,0.52-1.369,0.52c-0.43,0-0.949-0.13-1.33-0.52c-0.389-0.39-0.449-0.84-0.449-1.379v-2.438H433.211z"/>
		</g>
		<g>
			<path fill="#FFFFFF" d="M440.451,280.302h0.98v7.286h-0.98v-0.44c-0.43,0.5-0.959,0.57-1.26,0.57
				c-1.299,0-2.039-1.08-2.039-2.239c0-1.369,0.939-2.208,2.049-2.208c0.311,0,0.85,0.08,1.25,0.6V280.302z M438.152,285.499
				c0,0.729,0.461,1.339,1.17,1.339c0.619,0,1.189-0.45,1.189-1.33c0-0.919-0.57-1.359-1.189-1.359
				C438.613,284.15,438.152,284.75,438.152,285.499z"/>
		</g>
		<g>
			<path fill="#FFFFFF" d="M443.463,281.012c0.359,0,0.629,0.27,0.629,0.629s-0.27,0.63-0.629,0.63s-0.631-0.27-0.631-0.63
				S443.104,281.012,443.463,281.012z M443.951,283.38v4.208h-0.979v-4.208H443.951z"/>
		</g>
		<g>
			<path fill="#FFFFFF" d="M449.26,286.628c-0.18,0.32-0.439,0.6-0.709,0.77c-0.34,0.22-0.789,0.32-1.24,0.32
				c-0.559,0-1.02-0.14-1.418-0.54c-0.4-0.4-0.621-0.979-0.621-1.609c0-0.649,0.23-1.279,0.67-1.729
				c0.35-0.35,0.811-0.569,1.41-0.569c0.67,0,1.1,0.29,1.35,0.549c0.539,0.56,0.59,1.339,0.59,1.779v0.12h-3.02
				c0.02,0.3,0.15,0.64,0.359,0.85c0.23,0.23,0.51,0.27,0.75,0.27c0.27,0,0.471-0.06,0.67-0.21c0.17-0.13,0.301-0.3,0.391-0.46
				L449.26,286.628z M448.291,284.919c-0.041-0.23-0.15-0.43-0.301-0.57c-0.129-0.12-0.34-0.24-0.658-0.24
				c-0.34,0-0.561,0.14-0.691,0.27c-0.139,0.13-0.248,0.33-0.299,0.54H448.291z"/>
		</g>
		<g>
			<path fill="#FFFFFF" d="M452.451,284.49c-0.1-0.16-0.289-0.36-0.6-0.36c-0.141,0-0.24,0.05-0.299,0.11
				c-0.051,0.05-0.092,0.13-0.092,0.22c0,0.11,0.051,0.18,0.141,0.24c0.061,0.04,0.121,0.06,0.33,0.169l0.5,0.25
				c0.219,0.11,0.43,0.22,0.59,0.39c0.229,0.23,0.309,0.49,0.309,0.78c0,0.38-0.139,0.709-0.369,0.959
				c-0.33,0.36-0.74,0.47-1.18,0.47c-0.27,0-0.609-0.04-0.908-0.27c-0.24-0.18-0.441-0.47-0.541-0.77l0.801-0.379
				c0.049,0.14,0.139,0.32,0.229,0.399c0.061,0.06,0.201,0.16,0.43,0.16c0.15,0,0.311-0.05,0.4-0.14
				c0.08-0.08,0.141-0.21,0.141-0.33c0-0.12-0.041-0.22-0.131-0.32c-0.119-0.12-0.26-0.19-0.42-0.26l-0.359-0.17
				c-0.189-0.09-0.42-0.2-0.58-0.36c-0.219-0.21-0.299-0.44-0.299-0.71c0-0.34,0.129-0.669,0.35-0.899
				c0.189-0.2,0.51-0.399,1.029-0.399c0.299,0,0.539,0.06,0.779,0.22c0.141,0.09,0.33,0.25,0.48,0.52L452.451,284.49z"/>
		</g>
		<g>
			<path fill="#FFFFFF" d="M394.906,298.881h-2.318v1.689h2.238v0.959h-2.238v3.058h-1.02v-6.667h3.338V298.881z"/>
		</g>
		<g>
			<path fill="#FFFFFF" d="M397.166,300.38v2.409c0,0.25,0.012,0.54,0.182,0.759c0.129,0.17,0.359,0.29,0.639,0.29
				s0.51-0.12,0.641-0.29c0.17-0.22,0.18-0.51,0.18-0.759v-2.409h0.979v2.438c0,0.54-0.061,0.989-0.449,1.379
				c-0.381,0.38-0.9,0.52-1.369,0.52c-0.43,0-0.949-0.13-1.33-0.52c-0.389-0.39-0.449-0.84-0.449-1.379v-2.438H397.166z"/>
		</g>
		<g>
			<path fill="#FFFFFF" d="M401.316,300.38h0.98v0.39c0.42-0.47,0.898-0.5,1.139-0.5c0.779,0,1.109,0.39,1.24,0.569
				c0.16,0.23,0.26,0.52,0.26,1.169v2.579h-0.98v-2.339c0-1.069-0.398-1.099-0.77-1.099c-0.439,0-0.889,0.06-0.889,1.419v2.019
				h-0.98V300.38z"/>
		</g>
		<g>
			<path fill="#FFFFFF" d="M409.736,301.669c-0.451-0.44-0.891-0.52-1.189-0.52c-0.461,0-0.75,0.19-0.93,0.37
				c-0.18,0.18-0.359,0.5-0.359,0.97c0,0.49,0.189,0.819,0.379,1.009c0.221,0.21,0.529,0.34,0.891,0.34
				c0.398,0,0.869-0.16,1.209-0.54v1.089c-0.24,0.15-0.631,0.33-1.279,0.33c-0.699,0-1.199-0.2-1.6-0.62
				c-0.301-0.31-0.6-0.81-0.6-1.579c0-0.79,0.33-1.319,0.639-1.629c0.33-0.33,0.861-0.62,1.689-0.62c0.32,0,0.699,0.05,1.15,0.3
				V301.669z"/>
		</g>
		<g>
			<path fill="#FFFFFF" d="M411.986,301.28v3.308h-0.979v-3.308h-0.41v-0.899h0.41v-1.54h0.979v1.54h0.75v0.899H411.986z"/>
		</g>
		<g>
			<path fill="#FFFFFF" d="M414.188,298.012c0.359,0,0.629,0.27,0.629,0.629s-0.27,0.63-0.629,0.63s-0.631-0.27-0.631-0.63
				S413.828,298.012,414.188,298.012z M414.676,300.38v4.208h-0.979v-4.208H414.676z"/>
		</g>
		<g>
			<path fill="#FFFFFF" d="M420.494,302.489c0,1.289-0.979,2.229-2.248,2.229s-2.25-0.939-2.25-2.229c0-1.299,0.98-2.219,2.25-2.219
				S420.494,301.19,420.494,302.489z M419.494,302.499c0-0.959-0.629-1.349-1.248-1.349s-1.25,0.39-1.25,1.349
				c0,0.81,0.48,1.339,1.25,1.339S419.494,303.309,419.494,302.499z"/>
		</g>
		<g>
			<path fill="#FFFFFF" d="M421.807,300.38h0.979v0.39c0.42-0.47,0.9-0.5,1.141-0.5c0.779,0,1.109,0.39,1.238,0.569
				c0.16,0.23,0.26,0.52,0.26,1.169v2.579h-0.979v-2.339c0-1.069-0.4-1.099-0.77-1.099c-0.439,0-0.891,0.06-0.891,1.419v2.019
				h-0.979V300.38z"/>
		</g>
		<g>
			<path fill="#FFFFFF" d="M433.695,302.979h-2.85l-0.729,1.609h-1.1l3.318-7.056l3.158,7.056h-1.1L433.695,302.979z
				 M433.285,302.02l-0.99-2.259l-1.029,2.259H433.285z"/>
		</g>
		<g>
			<path fill="#FFFFFF" d="M436.445,300.38h0.98v0.39c0.42-0.47,0.898-0.5,1.139-0.5c0.779,0,1.109,0.39,1.24,0.569
				c0.16,0.23,0.26,0.52,0.26,1.169v2.579h-0.98v-2.339c0-1.069-0.398-1.099-0.77-1.099c-0.439,0-0.889,0.06-0.889,1.419v2.019
				h-0.98V300.38z"/>
		</g>
		<g>
			<path fill="#FFFFFF" d="M444.684,300.38h0.98v4.208h-0.98v-0.44c-0.43,0.5-0.959,0.57-1.26,0.57c-1.299,0-2.039-1.08-2.039-2.239
				c0-1.369,0.939-2.208,2.049-2.208c0.311,0,0.85,0.08,1.25,0.6V300.38z M442.385,302.499c0,0.729,0.461,1.339,1.17,1.339
				c0.619,0,1.189-0.45,1.189-1.33c0-0.919-0.57-1.359-1.189-1.359C442.846,301.15,442.385,301.75,442.385,302.499z"/>
		</g>
		<g>
			<path fill="#FFFFFF" d="M448.184,297.302v7.286h-0.979v-7.286H448.184z"/>
		</g>
		<g>
			<path fill="#FFFFFF" d="M450.965,303.928l-1.799-3.548h1.18l1.199,2.458l1.219-2.458h1.1l-3.348,6.496h-1.1L450.965,303.928z"/>
		</g>
		<g>
			<path fill="#FFFFFF" d="M456.586,301.49c-0.102-0.16-0.291-0.36-0.6-0.36c-0.141,0-0.24,0.05-0.301,0.11
				c-0.051,0.05-0.09,0.13-0.09,0.22c0,0.11,0.051,0.18,0.141,0.24c0.059,0.04,0.119,0.06,0.328,0.169l0.5,0.25
				c0.221,0.11,0.43,0.22,0.59,0.39c0.23,0.23,0.311,0.49,0.311,0.78c0,0.38-0.141,0.709-0.369,0.959
				c-0.33,0.36-0.74,0.47-1.18,0.47c-0.27,0-0.609-0.04-0.91-0.27c-0.24-0.18-0.439-0.47-0.539-0.77l0.799-0.379
				c0.051,0.14,0.141,0.32,0.23,0.399c0.061,0.06,0.199,0.16,0.43,0.16c0.15,0,0.309-0.05,0.4-0.14
				c0.078-0.08,0.139-0.21,0.139-0.33c0-0.12-0.039-0.22-0.129-0.32c-0.121-0.12-0.26-0.19-0.42-0.26l-0.359-0.17
				c-0.191-0.09-0.42-0.2-0.58-0.36c-0.221-0.21-0.301-0.44-0.301-0.71c0-0.34,0.131-0.669,0.35-0.899
				c0.191-0.2,0.51-0.399,1.029-0.399c0.301,0,0.541,0.06,0.781,0.22c0.139,0.09,0.328,0.25,0.479,0.52L456.586,301.49z"/>
		</g>
		<g>
			<path fill="#FFFFFF" d="M459.135,298.012c0.359,0,0.631,0.27,0.631,0.629s-0.271,0.63-0.631,0.63s-0.629-0.27-0.629-0.63
				S458.775,298.012,459.135,298.012z M459.625,300.38v4.208h-0.979v-4.208H459.625z"/>
		</g>
		<g>
			<path fill="#FFFFFF" d="M463.004,301.49c-0.1-0.16-0.289-0.36-0.6-0.36c-0.141,0-0.24,0.05-0.299,0.11
				c-0.051,0.05-0.092,0.13-0.092,0.22c0,0.11,0.051,0.18,0.141,0.24c0.061,0.04,0.121,0.06,0.33,0.169l0.5,0.25
				c0.219,0.11,0.43,0.22,0.59,0.39c0.229,0.23,0.309,0.49,0.309,0.78c0,0.38-0.139,0.709-0.369,0.959
				c-0.33,0.36-0.74,0.47-1.18,0.47c-0.27,0-0.609-0.04-0.908-0.27c-0.24-0.18-0.441-0.47-0.541-0.77l0.801-0.379
				c0.049,0.14,0.139,0.32,0.229,0.399c0.061,0.06,0.201,0.16,0.43,0.16c0.15,0,0.311-0.05,0.4-0.14
				c0.08-0.08,0.141-0.21,0.141-0.33c0-0.12-0.041-0.22-0.131-0.32c-0.119-0.12-0.26-0.19-0.42-0.26l-0.359-0.17
				c-0.189-0.09-0.42-0.2-0.58-0.36c-0.219-0.21-0.299-0.44-0.299-0.71c0-0.34,0.129-0.669,0.35-0.899
				c0.189-0.2,0.51-0.399,1.029-0.399c0.299,0,0.539,0.06,0.779,0.22c0.141,0.09,0.33,0.25,0.48,0.52L463.004,301.49z"/>
		</g>
		<g>
			<path fill="#FFFFFF" d="M405.107,314.921l1.76,4.458l1.799-4.777l1.738,4.777l1.82-4.458h1.098l-2.977,7.096l-1.74-4.728
				l-1.76,4.728l-2.838-7.096H405.107z"/>
		</g>
		<g>
			<path fill="#FFFFFF" d="M418.266,319.489c0,1.289-0.98,2.229-2.25,2.229s-2.248-0.939-2.248-2.229
				c0-1.299,0.979-2.219,2.248-2.219S418.266,318.19,418.266,319.489z M417.266,319.499c0-0.959-0.629-1.349-1.25-1.349
				c-0.619,0-1.248,0.39-1.248,1.349c0,0.81,0.479,1.339,1.248,1.339S417.266,320.309,417.266,319.499z"/>
		</g>
		<g>
			<path fill="#FFFFFF" d="M419.588,317.38h0.979v0.379c0.109-0.13,0.27-0.27,0.41-0.35c0.189-0.11,0.379-0.14,0.6-0.14
				c0.24,0,0.5,0.04,0.77,0.2l-0.4,0.89c-0.219-0.14-0.4-0.15-0.5-0.15c-0.209,0-0.42,0.03-0.609,0.229
				c-0.27,0.29-0.27,0.69-0.27,0.97v2.179h-0.979V317.38z"/>
		</g>
		<g>
			<path fill="#FFFFFF" d="M424.188,314.302v4.488l1.369-1.409h1.299l-1.809,1.749l1.939,2.458h-1.24l-1.379-1.799l-0.18,0.18v1.619
				h-0.979v-7.286H424.188z"/>
		</g>
		<g>
			<path fill="#FFFFFF" d="M429.656,318.49c-0.1-0.16-0.289-0.36-0.6-0.36c-0.141,0-0.24,0.05-0.299,0.11
				c-0.051,0.05-0.092,0.13-0.092,0.22c0,0.11,0.051,0.18,0.141,0.24c0.061,0.04,0.121,0.06,0.33,0.169l0.5,0.25
				c0.219,0.11,0.43,0.22,0.59,0.39c0.229,0.23,0.309,0.49,0.309,0.78c0,0.38-0.139,0.709-0.369,0.959
				c-0.33,0.36-0.74,0.47-1.18,0.47c-0.27,0-0.609-0.04-0.908-0.27c-0.24-0.18-0.441-0.47-0.541-0.77l0.801-0.379
				c0.049,0.14,0.139,0.32,0.229,0.399c0.061,0.06,0.201,0.16,0.43,0.16c0.15,0,0.311-0.05,0.4-0.14
				c0.08-0.08,0.141-0.21,0.141-0.33c0-0.12-0.041-0.22-0.131-0.32c-0.119-0.12-0.26-0.19-0.42-0.26l-0.359-0.17
				c-0.189-0.09-0.42-0.2-0.58-0.36c-0.219-0.21-0.299-0.44-0.299-0.71c0-0.34,0.129-0.669,0.35-0.899
				c0.189-0.2,0.51-0.399,1.029-0.399c0.299,0,0.539,0.06,0.779,0.22c0.141,0.09,0.33,0.25,0.48,0.52L429.656,318.49z"/>
		</g>
		<g>
			<path fill="#FFFFFF" d="M431.717,314.302h0.979v3.438c0.42-0.43,0.881-0.47,1.131-0.47c0.77,0,1.119,0.399,1.238,0.569
				c0.26,0.38,0.27,0.87,0.27,1.169v2.579h-0.979v-2.489c0-0.25,0-0.52-0.189-0.729c-0.111-0.12-0.301-0.22-0.551-0.22
				c-0.33,0-0.59,0.16-0.719,0.35c-0.141,0.2-0.201,0.52-0.201,1.06v2.029h-0.979V314.302z"/>
		</g>
		<g>
			<path fill="#FFFFFF" d="M441.045,319.489c0,1.289-0.979,2.229-2.248,2.229s-2.25-0.939-2.25-2.229c0-1.299,0.98-2.219,2.25-2.219
				S441.045,318.19,441.045,319.489z M440.045,319.499c0-0.959-0.629-1.349-1.248-1.349s-1.25,0.39-1.25,1.349
				c0,0.81,0.48,1.339,1.25,1.339S440.045,320.309,440.045,319.499z"/>
		</g>
		<g>
			<path fill="#FFFFFF" d="M443.346,323.876h-0.979v-6.496h0.979v0.459c0.361-0.43,0.83-0.569,1.25-0.569
				c1.109,0,2.049,0.849,2.049,2.188c0,1.419-1.039,2.259-2.039,2.259c-0.229,0-0.818-0.08-1.26-0.62V323.876z M443.287,319.509
				c0,0.88,0.568,1.33,1.189,1.33c0.709,0,1.168-0.61,1.168-1.339c0-0.75-0.459-1.349-1.168-1.349
				C443.855,318.15,443.287,318.589,443.287,319.509z"/>
		</g>
		<g>
			<path fill="#FFFFFF" d="M449.807,318.49c-0.1-0.16-0.289-0.36-0.6-0.36c-0.141,0-0.24,0.05-0.299,0.11
				c-0.051,0.05-0.092,0.13-0.092,0.22c0,0.11,0.051,0.18,0.141,0.24c0.061,0.04,0.121,0.06,0.33,0.169l0.5,0.25
				c0.219,0.11,0.43,0.22,0.59,0.39c0.229,0.23,0.309,0.49,0.309,0.78c0,0.38-0.139,0.709-0.369,0.959
				c-0.33,0.36-0.74,0.47-1.18,0.47c-0.27,0-0.609-0.04-0.908-0.27c-0.24-0.18-0.441-0.47-0.541-0.77l0.801-0.379
				c0.049,0.14,0.139,0.32,0.229,0.399c0.061,0.06,0.201,0.16,0.43,0.16c0.15,0,0.311-0.05,0.4-0.14
				c0.08-0.08,0.141-0.21,0.141-0.33c0-0.12-0.041-0.22-0.131-0.32c-0.119-0.12-0.26-0.19-0.42-0.26l-0.359-0.17
				c-0.189-0.09-0.42-0.2-0.58-0.36c-0.219-0.21-0.299-0.44-0.299-0.71c0-0.34,0.129-0.669,0.35-0.899
				c0.189-0.2,0.51-0.399,1.029-0.399c0.299,0,0.539,0.06,0.779,0.22c0.141,0.09,0.33,0.25,0.48,0.52L449.807,318.49z"/>
		</g>
		<g>
			<path fill="#FFFFFF" d="M400.525,332.881h-2.658v1.689h2.578v0.959h-2.578v2.099h2.658v0.959h-3.678v-6.667h3.678V332.881z"/>
		</g>
		<g>
			<path fill="#FFFFFF" d="M403.268,336.309l-1.5-1.929h1.16l0.93,1.229l0.939-1.229h1.199l-1.549,1.929l1.799,2.279h-1.18
				l-1.209-1.569l-1.25,1.569h-1.199L403.268,336.309z"/>
		</g>
		<g>
			<path fill="#FFFFFF" d="M408.207,340.876h-0.979v-6.496h0.979v0.459c0.359-0.43,0.83-0.569,1.25-0.569
				c1.109,0,2.049,0.849,2.049,2.188c0,1.419-1.041,2.259-2.039,2.259c-0.23,0-0.82-0.08-1.26-0.62V340.876z M408.146,336.509
				c0,0.88,0.57,1.33,1.189,1.33c0.711,0,1.17-0.61,1.17-1.339c0-0.75-0.459-1.349-1.17-1.349
				C408.717,335.15,408.146,335.589,408.146,336.509z"/>
		</g>
		<g>
			<path fill="#FFFFFF" d="M416.596,337.628c-0.18,0.32-0.439,0.6-0.709,0.77c-0.34,0.22-0.789,0.32-1.24,0.32
				c-0.559,0-1.02-0.14-1.418-0.54c-0.4-0.4-0.621-0.979-0.621-1.609c0-0.649,0.23-1.279,0.67-1.729
				c0.35-0.35,0.811-0.569,1.41-0.569c0.67,0,1.1,0.29,1.35,0.549c0.539,0.56,0.59,1.339,0.59,1.779v0.12h-3.02
				c0.02,0.3,0.15,0.64,0.359,0.85c0.23,0.23,0.51,0.27,0.75,0.27c0.27,0,0.471-0.06,0.67-0.21c0.17-0.13,0.301-0.3,0.391-0.46
				L416.596,337.628z M415.627,335.919c-0.041-0.23-0.15-0.43-0.301-0.57c-0.129-0.12-0.34-0.24-0.658-0.24
				c-0.34,0-0.561,0.14-0.691,0.27c-0.139,0.13-0.248,0.33-0.299,0.54H415.627z"/>
		</g>
		<g>
			<path fill="#FFFFFF" d="M417.949,334.38h0.979v0.379c0.109-0.13,0.27-0.27,0.41-0.35c0.189-0.11,0.379-0.14,0.6-0.14
				c0.24,0,0.5,0.04,0.77,0.2l-0.4,0.89c-0.219-0.14-0.4-0.15-0.5-0.15c-0.209,0-0.42,0.03-0.609,0.229
				c-0.27,0.29-0.27,0.69-0.27,0.97v2.179h-0.979V334.38z"/>
		</g>
		<g>
			<path fill="#FFFFFF" d="M422.777,335.28v3.308h-0.979v-3.308h-0.41v-0.899h0.41v-1.54h0.979v1.54h0.75v0.899H422.777z"/>
		</g>
		<g>
			<path fill="#FFFFFF" d="M424.979,332.012c0.359,0,0.629,0.27,0.629,0.629s-0.27,0.63-0.629,0.63s-0.631-0.27-0.631-0.63
				S424.619,332.012,424.979,332.012z M425.467,334.38v4.208h-0.979v-4.208H425.467z"/>
		</g>
		<g>
			<path fill="#FFFFFF" d="M428.848,335.49c-0.102-0.16-0.291-0.36-0.6-0.36c-0.141,0-0.24,0.05-0.301,0.11
				c-0.051,0.05-0.09,0.13-0.09,0.22c0,0.11,0.051,0.18,0.141,0.24c0.059,0.04,0.119,0.06,0.328,0.169l0.5,0.25
				c0.221,0.11,0.43,0.22,0.59,0.39c0.23,0.23,0.311,0.49,0.311,0.78c0,0.38-0.141,0.709-0.369,0.959
				c-0.33,0.36-0.74,0.47-1.18,0.47c-0.27,0-0.609-0.04-0.91-0.27c-0.24-0.18-0.439-0.47-0.539-0.77l0.799-0.379
				c0.051,0.14,0.141,0.32,0.23,0.399c0.061,0.06,0.199,0.16,0.43,0.16c0.15,0,0.309-0.05,0.4-0.14
				c0.078-0.08,0.139-0.21,0.139-0.33c0-0.12-0.039-0.22-0.129-0.32c-0.121-0.12-0.26-0.19-0.42-0.26l-0.359-0.17
				c-0.191-0.09-0.42-0.2-0.58-0.36c-0.221-0.21-0.301-0.44-0.301-0.71c0-0.34,0.131-0.669,0.35-0.899
				c0.191-0.2,0.51-0.399,1.029-0.399c0.301,0,0.541,0.06,0.781,0.22c0.139,0.09,0.328,0.25,0.479,0.52L428.848,335.49z"/>
		</g>
		<g>
			<path fill="#FFFFFF" d="M434.676,337.628c-0.18,0.32-0.439,0.6-0.709,0.77c-0.34,0.22-0.789,0.32-1.24,0.32
				c-0.559,0-1.02-0.14-1.418-0.54c-0.4-0.4-0.621-0.979-0.621-1.609c0-0.649,0.23-1.279,0.67-1.729
				c0.35-0.35,0.811-0.569,1.41-0.569c0.67,0,1.1,0.29,1.35,0.549c0.539,0.56,0.59,1.339,0.59,1.779v0.12h-3.02
				c0.02,0.3,0.15,0.64,0.359,0.85c0.23,0.23,0.51,0.27,0.75,0.27c0.27,0,0.471-0.06,0.67-0.21c0.17-0.13,0.301-0.3,0.391-0.46
				L434.676,337.628z M433.707,335.919c-0.041-0.23-0.15-0.43-0.301-0.57c-0.129-0.12-0.34-0.24-0.658-0.24
				c-0.34,0-0.561,0.14-0.691,0.27c-0.139,0.13-0.248,0.33-0.299,0.54H433.707z"/>
		</g>
		<g>
			<path fill="#FFFFFF" d="M439.148,332.012c0.359,0,0.629,0.27,0.629,0.629s-0.27,0.63-0.629,0.63s-0.631-0.27-0.631-0.63
				S438.789,332.012,439.148,332.012z M439.637,334.38v4.208h-0.979v-4.208H439.637z"/>
		</g>
		<g>
			<path fill="#FFFFFF" d="M441.168,334.38h0.979v0.39c0.42-0.47,0.9-0.5,1.141-0.5c0.779,0,1.109,0.39,1.238,0.569
				c0.16,0.23,0.26,0.52,0.26,1.169v2.579h-0.979v-2.339c0-1.069-0.4-1.099-0.77-1.099c-0.439,0-0.891,0.06-0.891,1.419v2.019
				h-0.979V334.38z"/>
		</g>
		<g>
			<path fill="#FFFFFF" d="M447.307,340.876h-0.979v-6.496h0.979v0.459c0.359-0.43,0.83-0.569,1.25-0.569
				c1.109,0,2.049,0.849,2.049,2.188c0,1.419-1.041,2.259-2.039,2.259c-0.23,0-0.82-0.08-1.26-0.62V340.876z M447.246,336.509
				c0,0.88,0.57,1.33,1.189,1.33c0.711,0,1.17-0.61,1.17-1.339c0-0.75-0.459-1.349-1.17-1.349
				C447.816,335.15,447.246,335.589,447.246,336.509z"/>
		</g>
		<g>
			<path fill="#FFFFFF" d="M452.906,334.38v2.409c0,0.25,0.012,0.54,0.182,0.759c0.129,0.17,0.359,0.29,0.639,0.29
				s0.51-0.12,0.641-0.29c0.17-0.22,0.18-0.51,0.18-0.759v-2.409h0.979v2.438c0,0.54-0.061,0.989-0.449,1.379
				c-0.381,0.38-0.9,0.52-1.369,0.52c-0.43,0-0.949-0.13-1.33-0.52c-0.389-0.39-0.449-0.84-0.449-1.379v-2.438H452.906z"/>
		</g>
		<g>
			<path fill="#FFFFFF" d="M458.076,335.28v3.308h-0.979v-3.308h-0.41v-0.899h0.41v-1.54h0.979v1.54h0.75v0.899H458.076z"/>
		</g>
	</g>
	<g>
		<g>
			<path fill="#FFFFFF" d="M412.943,226.44h-2.275l-0.422,1.053h-1.721l2.406-6.27h1.775l2.359,6.27h-1.738L412.943,226.44z
				 M412.51,225.2l-0.705-2.03l-0.686,2.03H412.51z"/>
		</g>
		<g>
			<path fill="#FFFFFF" d="M415.775,223.292h1.504v0.526c0.414-0.545,0.969-0.62,1.336-0.62c0.432,0,0.893,0.104,1.24,0.451
				c0.357,0.357,0.395,0.714,0.395,1.175v2.669h-1.504v-2.125c0-0.244,0.01-0.611-0.188-0.817c-0.141-0.15-0.33-0.179-0.48-0.179
				c-0.234,0-0.432,0.084-0.553,0.197c-0.15,0.141-0.246,0.414-0.246,0.667v2.256h-1.504V223.292z"/>
		</g>
		<g>
			<path fill="#FFFFFF" d="M424.652,223.292h1.504v4.202h-1.504v-0.46c-0.348,0.479-0.893,0.602-1.307,0.602
				c-0.451,0-1.006-0.132-1.514-0.667c-0.404-0.432-0.602-0.912-0.602-1.542c0-0.79,0.311-1.344,0.648-1.683
				c0.357-0.357,0.912-0.592,1.514-0.592c0.678,0,1.082,0.348,1.26,0.545V223.292z M423.074,224.702
				c-0.207,0.197-0.301,0.47-0.301,0.686c0,0.245,0.102,0.507,0.291,0.686c0.16,0.15,0.422,0.282,0.676,0.282
				c0.244,0,0.488-0.104,0.678-0.292c0.131-0.131,0.281-0.338,0.281-0.677c0-0.197-0.057-0.46-0.291-0.686
				c-0.141-0.132-0.357-0.272-0.678-0.272C423.543,224.429,423.289,224.495,423.074,224.702z"/>
		</g>
		<g>
			<path fill="#FFFFFF" d="M428.82,220.641v6.852h-1.504v-6.852H428.82z"/>
		</g>
		<g>
			<path fill="#FFFFFF" d="M431.482,226.92l-2.029-3.628h1.748l1.119,2.152l1.09-2.152h1.719l-3.373,6.354h-1.684L431.482,226.92z"
				/>
		</g>
		<g>
			<path fill="#FFFFFF" d="M435.697,226.102c0.178,0.132,0.395,0.244,0.602,0.31c0.188,0.066,0.424,0.104,0.582,0.104
				c0.113,0,0.293-0.028,0.387-0.113c0.064-0.066,0.074-0.122,0.074-0.197c0-0.066-0.01-0.132-0.074-0.188
				c-0.094-0.084-0.244-0.113-0.395-0.15l-0.396-0.094c-0.205-0.047-0.506-0.122-0.732-0.366c-0.16-0.169-0.273-0.404-0.273-0.724
				c0-0.404,0.16-0.78,0.396-1.024c0.318-0.329,0.883-0.507,1.504-0.507c0.619,0,1.1,0.169,1.344,0.272l-0.508,0.958
				c-0.207-0.094-0.518-0.207-0.789-0.207c-0.15,0-0.254,0.028-0.348,0.084c-0.086,0.047-0.133,0.113-0.133,0.207
				c0,0.132,0.086,0.198,0.18,0.235c0.141,0.056,0.262,0.056,0.498,0.122l0.271,0.075c0.197,0.057,0.498,0.207,0.621,0.329
				c0.207,0.197,0.32,0.526,0.32,0.836c0,0.507-0.217,0.846-0.424,1.043c-0.488,0.489-1.203,0.526-1.551,0.526
				c-0.377,0-0.969-0.047-1.691-0.489L435.697,226.102z"/>
		</g>
		<g>
			<path fill="#FFFFFF" d="M440.475,220.697c0.471,0,0.846,0.376,0.846,0.846c0,0.47-0.375,0.846-0.846,0.846
				s-0.846-0.376-0.846-0.846C439.629,221.073,440.004,220.697,440.475,220.697z M441.227,223.292v4.202h-1.504v-4.202H441.227z"/>
		</g>
		<g>
			<path fill="#FFFFFF" d="M442.646,226.102c0.18,0.132,0.396,0.244,0.602,0.31c0.189,0.066,0.424,0.104,0.584,0.104
				c0.113,0,0.291-0.028,0.385-0.113c0.066-0.066,0.076-0.122,0.076-0.197c0-0.066-0.01-0.132-0.076-0.188
				c-0.094-0.084-0.244-0.113-0.395-0.15l-0.395-0.094c-0.207-0.047-0.508-0.122-0.732-0.366c-0.16-0.169-0.273-0.404-0.273-0.724
				c0-0.404,0.16-0.78,0.395-1.024c0.32-0.329,0.883-0.507,1.504-0.507s1.1,0.169,1.344,0.272l-0.508,0.958
				c-0.205-0.094-0.516-0.207-0.789-0.207c-0.15,0-0.254,0.028-0.348,0.084c-0.084,0.047-0.131,0.113-0.131,0.207
				c0,0.132,0.084,0.198,0.178,0.235c0.141,0.056,0.264,0.056,0.498,0.122l0.273,0.075c0.197,0.057,0.498,0.207,0.619,0.329
				c0.207,0.197,0.32,0.526,0.32,0.836c0,0.507-0.217,0.846-0.424,1.043c-0.488,0.489-1.203,0.526-1.551,0.526
				c-0.375,0-0.967-0.047-1.691-0.489L442.646,226.102z"/>
		</g>
	</g>
	<g>
		<g>
			<path fill="#FFFFFF" d="M356.221,201.031c-2.221-2.539-2.697-5.872-2.697-8.633c0-2.729,0.477-6.125,2.697-8.665
				c1.334-1.523,2.92-2.285,4.793-2.285s3.459,0.762,4.793,2.285c2.221,2.539,2.697,5.935,2.697,8.665
				c0,2.761-0.477,6.094-2.697,8.633c-1.334,1.523-2.889,2.285-4.793,2.285S357.555,202.554,356.221,201.031z M358.158,186.05
				c-1.176,1.746-1.461,4.475-1.461,6.316c0,1.873,0.285,4.57,1.461,6.348c0.92,1.396,2.031,1.746,2.855,1.746
				c0.826,0,1.936-0.349,2.857-1.746c1.174-1.777,1.459-4.475,1.459-6.348c0-1.841-0.285-4.57-1.459-6.316
				c-0.922-1.396-2.031-1.746-2.857-1.746C360.189,184.305,359.078,184.654,358.158,186.05z"/>
		</g>
		<g>
			<path fill="#FFFFFF" d="M385.742,202.967h-14.219l7.332-8.887c0.73-0.889,1.84-2.285,2.539-3.301
				c0.604-0.889,1.111-1.809,1.111-3.047c0-1.777-1.176-3.428-3.523-3.428c-2.381,0-3.619,1.841-3.746,3.84h-3.109
				c0.096-2.063,0.951-3.713,1.777-4.634c0.762-0.857,2.285-2.063,4.951-2.063c4.506,0,6.824,3.079,6.824,6.379
				c0,1.746-0.668,3.174-1.523,4.443c-0.762,1.143-1.746,2.317-3.016,3.809l-3.301,3.904h7.902V202.967z"/>
		</g>
	</g>
</g>
<g>
	<g>
		<g>
			<path fill="#FFFFFF" d="M199.647,530.98c-0.74-0.67-1.43-0.739-1.81-0.739c-1.449,0-2.429,1.069-2.429,2.538
				c0,1.41,1.02,2.499,2.438,2.499c0.8,0,1.42-0.409,1.8-0.77v1.21c-0.67,0.398-1.37,0.499-1.829,0.499
				c-1.21,0-1.97-0.55-2.359-0.919c-0.779-0.73-1.069-1.58-1.069-2.52c0-1.229,0.51-2.078,1.069-2.608
				c0.689-0.649,1.489-0.869,2.409-0.869c0.609,0,1.199,0.11,1.779,0.479V530.98z"/>
		</g>
		<g>
			<path fill="#FFFFFF" d="M205.308,533.989c0,1.289-0.979,2.229-2.249,2.229s-2.249-0.939-2.249-2.229
				c0-1.3,0.979-2.219,2.249-2.219S205.308,532.689,205.308,533.989z M204.308,533.999c0-0.96-0.629-1.349-1.249-1.349
				c-0.619,0-1.249,0.389-1.249,1.349c0,0.81,0.479,1.339,1.249,1.339S204.308,534.809,204.308,533.999z"/>
		</g>
		<g>
			<path fill="#FFFFFF" d="M206.619,531.881h0.979v0.389c0.42-0.469,0.899-0.499,1.14-0.499c0.779,0,1.109,0.39,1.239,0.569
				c0.16,0.23,0.26,0.52,0.26,1.17v2.578h-0.979v-2.339c0-1.069-0.399-1.099-0.77-1.099c-0.439,0-0.89,0.06-0.89,1.418v2.02h-0.979
				V531.881z"/>
		</g>
		<g>
			<path fill="#FFFFFF" d="M212.789,532.779v3.309h-0.979v-3.309H211.4v-0.898h0.409v-1.54h0.979v1.54h0.75v0.898H212.789z"/>
		</g>
		<g>
			<path fill="#FFFFFF" d="M218.268,535.129c-0.18,0.319-0.439,0.6-0.71,0.77c-0.34,0.219-0.789,0.319-1.239,0.319
				c-0.56,0-1.02-0.14-1.419-0.54c-0.399-0.399-0.62-0.979-0.62-1.609c0-0.648,0.23-1.279,0.67-1.729
				c0.35-0.35,0.81-0.569,1.409-0.569c0.67,0,1.1,0.29,1.35,0.55c0.539,0.56,0.59,1.339,0.59,1.779v0.119h-3.019
				c0.02,0.3,0.149,0.64,0.359,0.85c0.23,0.23,0.51,0.27,0.75,0.27c0.27,0,0.47-0.06,0.67-0.209c0.17-0.131,0.3-0.301,0.39-0.461
				L218.268,535.129z M217.298,533.42c-0.04-0.23-0.149-0.43-0.3-0.57c-0.13-0.12-0.34-0.24-0.659-0.24
				c-0.34,0-0.56,0.141-0.69,0.271c-0.14,0.13-0.249,0.329-0.3,0.54H217.298z"/>
		</g>
		<g>
			<path fill="#FFFFFF" d="M220.709,533.809l-1.499-1.928h1.159l0.93,1.229l0.939-1.229h1.199l-1.549,1.928l1.799,2.279h-1.18
				l-1.209-1.569l-1.249,1.569h-1.2L220.709,533.809z"/>
		</g>
		<g>
			<path fill="#FFFFFF" d="M225.679,532.779v3.309h-0.979v-3.309h-0.409v-0.898h0.409v-1.54h0.979v1.54h0.75v0.898H225.679z"/>
		</g>
		<g>
			<path fill="#FFFFFF" d="M196.568,546.422c0.41,0,0.979,0.039,1.459,0.359c0.561,0.37,0.83,1.01,0.83,1.619
				c0,0.39-0.1,0.99-0.649,1.459c-0.53,0.45-1.14,0.52-1.63,0.52h-0.459v2.709h-1.02v-6.666H196.568z M196.119,549.439h0.459
				c0.88,0,1.3-0.43,1.3-1.049c0-0.37-0.15-1.029-1.31-1.029h-0.449V549.439z"/>
		</g>
		<g>
			<path fill="#FFFFFF" d="M200.02,548.881h0.979v0.379c0.11-0.13,0.271-0.27,0.41-0.35c0.19-0.109,0.38-0.14,0.6-0.14
				c0.24,0,0.5,0.04,0.77,0.2l-0.399,0.889c-0.22-0.14-0.4-0.149-0.5-0.149c-0.21,0-0.42,0.03-0.609,0.229
				c-0.271,0.29-0.271,0.689-0.271,0.97v2.179h-0.979V548.881z"/>
		</g>
		<g>
			<path fill="#FFFFFF" d="M207.717,550.989c0,1.289-0.979,2.229-2.249,2.229s-2.249-0.939-2.249-2.229
				c0-1.3,0.979-2.219,2.249-2.219S207.717,549.689,207.717,550.989z M206.717,550.999c0-0.96-0.629-1.349-1.249-1.349
				c-0.619,0-1.249,0.389-1.249,1.349c0,0.81,0.479,1.339,1.249,1.339S206.717,551.809,206.717,550.999z"/>
		</g>
		<g>
			<path fill="#FFFFFF" d="M212.118,545.802h0.979v7.286h-0.979v-0.439c-0.43,0.5-0.96,0.569-1.26,0.569
				c-1.299,0-2.039-1.079-2.039-2.239c0-1.369,0.939-2.208,2.049-2.208c0.311,0,0.85,0.079,1.25,0.6V545.802z M209.819,550.999
				c0,0.729,0.46,1.339,1.169,1.339c0.62,0,1.189-0.449,1.189-1.329c0-0.919-0.569-1.358-1.189-1.358
				C210.279,549.65,209.819,550.25,209.819,550.999z"/>
		</g>
		<g>
			<path fill="#FFFFFF" d="M215.619,548.881v2.408c0,0.25,0.01,0.539,0.18,0.76c0.13,0.17,0.359,0.289,0.64,0.289
				c0.279,0,0.51-0.119,0.64-0.289c0.17-0.221,0.18-0.51,0.18-0.76v-2.408h0.979v2.438c0,0.54-0.06,0.99-0.45,1.38
				c-0.38,0.38-0.899,0.52-1.369,0.52c-0.43,0-0.949-0.13-1.329-0.52c-0.39-0.39-0.449-0.84-0.449-1.38v-2.438H215.619z"/>
		</g>
		<g>
			<path fill="#FFFFFF" d="M223.037,550.17c-0.45-0.44-0.89-0.52-1.189-0.52c-0.46,0-0.75,0.189-0.93,0.369s-0.359,0.5-0.359,0.97
				c0,0.489,0.189,0.819,0.38,1.009c0.22,0.211,0.529,0.34,0.89,0.34c0.399,0,0.869-0.16,1.209-0.539v1.09
				c-0.24,0.149-0.63,0.329-1.279,0.329c-0.699,0-1.199-0.2-1.6-0.62c-0.3-0.31-0.6-0.809-0.6-1.578c0-0.79,0.33-1.32,0.64-1.629
				c0.33-0.33,0.86-0.62,1.689-0.62c0.319,0,0.699,0.05,1.149,0.3V550.17z"/>
		</g>
		<g>
			<path fill="#FFFFFF" d="M225.288,549.779v3.309h-0.979v-3.309h-0.409v-0.898h0.409v-1.54h0.979v1.54h0.75v0.898H225.288z"/>
		</g>
		<g>
			<path fill="#FFFFFF" d="M193.363,564.381v5.707h-1.02v-5.707h-1.529v-0.959h4.078v0.959H193.363z"/>
		</g>
		<g>
			<path fill="#FFFFFF" d="M199.282,569.129c-0.18,0.319-0.439,0.6-0.71,0.77c-0.34,0.219-0.789,0.319-1.239,0.319
				c-0.56,0-1.02-0.14-1.419-0.54c-0.399-0.399-0.62-0.979-0.62-1.609c0-0.648,0.23-1.279,0.67-1.729
				c0.35-0.35,0.81-0.569,1.409-0.569c0.67,0,1.1,0.29,1.35,0.55c0.539,0.56,0.59,1.339,0.59,1.779v0.119h-3.019
				c0.02,0.3,0.149,0.64,0.359,0.85c0.23,0.23,0.51,0.27,0.75,0.27c0.27,0,0.47-0.06,0.67-0.209c0.17-0.131,0.3-0.301,0.39-0.461
				L199.282,569.129z M198.313,567.42c-0.04-0.23-0.149-0.43-0.3-0.57c-0.13-0.12-0.34-0.24-0.659-0.24
				c-0.34,0-0.56,0.141-0.69,0.271c-0.14,0.13-0.249,0.329-0.3,0.54H198.313z"/>
		</g>
		<g>
			<path fill="#FFFFFF" d="M203.893,567.17c-0.45-0.44-0.89-0.52-1.189-0.52c-0.46,0-0.75,0.189-0.93,0.369s-0.359,0.5-0.359,0.97
				c0,0.489,0.189,0.819,0.38,1.009c0.22,0.211,0.529,0.34,0.89,0.34c0.399,0,0.869-0.16,1.209-0.539v1.09
				c-0.24,0.149-0.63,0.329-1.279,0.329c-0.699,0-1.199-0.2-1.6-0.62c-0.3-0.31-0.6-0.809-0.6-1.578c0-0.79,0.33-1.32,0.64-1.629
				c0.33-0.33,0.86-0.62,1.689-0.62c0.319,0,0.699,0.05,1.149,0.3V567.17z"/>
		</g>
		<g>
			<path fill="#FFFFFF" d="M205.136,562.802h0.979v3.438c0.419-0.43,0.879-0.47,1.129-0.47c0.77,0,1.119,0.399,1.239,0.569
				c0.26,0.38,0.27,0.869,0.27,1.17v2.578h-0.979V567.6c0-0.25,0-0.52-0.189-0.73c-0.11-0.119-0.3-0.219-0.55-0.219
				c-0.33,0-0.59,0.159-0.72,0.35c-0.14,0.199-0.199,0.52-0.199,1.059v2.029h-0.979V562.802z"/>
		</g>
		<g>
			<path fill="#FFFFFF" d="M210.285,565.881h0.979v0.389c0.42-0.469,0.899-0.499,1.14-0.499c0.779,0,1.109,0.39,1.239,0.569
				c0.16,0.23,0.26,0.52,0.26,1.17v2.578h-0.979v-2.339c0-1.069-0.399-1.099-0.77-1.099c-0.439,0-0.89,0.06-0.89,1.418v2.02h-0.979
				V565.881z"/>
		</g>
		<g>
			<path fill="#FFFFFF" d="M215.935,563.512c0.359,0,0.63,0.27,0.63,0.629c0,0.36-0.271,0.631-0.63,0.631s-0.63-0.271-0.63-0.631
				C215.305,563.781,215.575,563.512,215.935,563.512z M216.424,565.881v4.207h-0.979v-4.207H216.424z"/>
		</g>
		<g>
			<path fill="#FFFFFF" d="M221.223,567.17c-0.45-0.44-0.89-0.52-1.189-0.52c-0.46,0-0.75,0.189-0.93,0.369s-0.359,0.5-0.359,0.97
				c0,0.489,0.189,0.819,0.38,1.009c0.22,0.211,0.529,0.34,0.89,0.34c0.399,0,0.869-0.16,1.209-0.539v1.09
				c-0.24,0.149-0.63,0.329-1.279,0.329c-0.699,0-1.199-0.2-1.6-0.62c-0.3-0.31-0.6-0.809-0.6-1.578c0-0.79,0.33-1.32,0.64-1.629
				c0.33-0.33,0.86-0.62,1.689-0.62c0.319,0,0.699,0.05,1.149,0.3V567.17z"/>
		</g>
		<g>
			<path fill="#FFFFFF" d="M225.543,565.881h0.979v4.207h-0.979v-0.439c-0.43,0.5-0.96,0.569-1.26,0.569
				c-1.299,0-2.039-1.079-2.039-2.239c0-1.369,0.939-2.208,2.049-2.208c0.311,0,0.85,0.079,1.25,0.6V565.881z M223.244,567.999
				c0,0.729,0.46,1.339,1.169,1.339c0.62,0,1.189-0.449,1.189-1.329c0-0.919-0.569-1.358-1.189-1.358
				C223.704,566.65,223.244,567.25,223.244,567.999z"/>
		</g>
		<g>
			<path fill="#FFFFFF" d="M229.045,562.802v7.286h-0.979v-7.286H229.045z"/>
		</g>
		<g>
			<path fill="#FFFFFF" d="M202.419,580.422v4.018c0,0.359,0.01,0.799,0.21,1.149c0.199,0.34,0.649,0.689,1.239,0.689
				c0.589,0,1.039-0.35,1.239-0.689c0.199-0.351,0.21-0.79,0.21-1.149v-4.018h1.02v4.287c0,0.529-0.11,1.17-0.62,1.729
				c-0.35,0.38-0.939,0.779-1.849,0.779c-0.91,0-1.5-0.399-1.85-0.779c-0.51-0.56-0.619-1.2-0.619-1.729v-4.287H202.419z"/>
		</g>
		<g>
			<path fill="#FFFFFF" d="M209.898,583.99c-0.101-0.16-0.29-0.36-0.6-0.36c-0.141,0-0.24,0.05-0.3,0.11
				c-0.051,0.049-0.091,0.129-0.091,0.219c0,0.11,0.051,0.181,0.141,0.24c0.06,0.04,0.12,0.061,0.329,0.17l0.5,0.25
				c0.22,0.109,0.43,0.221,0.59,0.39c0.229,0.229,0.31,0.489,0.31,0.78c0,0.379-0.14,0.709-0.369,0.959
				c-0.33,0.359-0.74,0.47-1.18,0.47c-0.27,0-0.609-0.04-0.909-0.271c-0.24-0.18-0.44-0.469-0.54-0.77l0.8-0.379
				c0.05,0.14,0.14,0.32,0.229,0.399c0.061,0.06,0.2,0.16,0.43,0.16c0.15,0,0.31-0.05,0.4-0.14c0.079-0.08,0.14-0.211,0.14-0.33
				c0-0.12-0.04-0.221-0.13-0.32c-0.12-0.119-0.26-0.189-0.42-0.26l-0.359-0.17c-0.19-0.09-0.42-0.199-0.58-0.359
				c-0.22-0.21-0.3-0.439-0.3-0.71c0-0.34,0.13-0.669,0.35-0.899c0.19-0.199,0.51-0.399,1.029-0.399c0.3,0,0.54,0.06,0.78,0.22
				c0.14,0.09,0.329,0.25,0.479,0.52L209.898,583.99z"/>
		</g>
		<g>
			<path fill="#FFFFFF" d="M215.727,586.129c-0.18,0.319-0.439,0.6-0.71,0.77c-0.34,0.219-0.789,0.319-1.239,0.319
				c-0.56,0-1.02-0.14-1.419-0.54c-0.399-0.399-0.62-0.979-0.62-1.609c0-0.648,0.23-1.279,0.67-1.729
				c0.35-0.35,0.81-0.569,1.409-0.569c0.67,0,1.1,0.29,1.35,0.55c0.539,0.56,0.59,1.339,0.59,1.779v0.119h-3.019
				c0.02,0.3,0.149,0.64,0.359,0.85c0.23,0.23,0.51,0.27,0.75,0.27c0.27,0,0.47-0.06,0.67-0.209c0.17-0.131,0.3-0.301,0.39-0.461
				L215.727,586.129z M214.757,584.42c-0.04-0.23-0.149-0.43-0.3-0.57c-0.13-0.12-0.34-0.24-0.659-0.24
				c-0.34,0-0.56,0.141-0.69,0.271c-0.14,0.13-0.249,0.329-0.3,0.54H214.757z"/>
		</g>
		<g>
			<path fill="#FFFFFF" d="M217.08,582.881h0.979v0.379c0.11-0.13,0.271-0.27,0.41-0.35c0.19-0.109,0.38-0.14,0.6-0.14
				c0.24,0,0.5,0.04,0.77,0.2l-0.399,0.889c-0.22-0.14-0.4-0.149-0.5-0.149c-0.21,0-0.42,0.03-0.609,0.229
				c-0.271,0.29-0.271,0.689-0.271,0.97v2.179h-0.979V582.881z"/>
		</g>
		<g>
			<path fill="#FFFFFF" d="M190.393,598.98c-0.74-0.67-1.43-0.739-1.81-0.739c-1.449,0-2.429,1.069-2.429,2.538
				c0,1.41,1.02,2.499,2.438,2.499c0.8,0,1.42-0.409,1.8-0.77v1.21c-0.67,0.398-1.37,0.499-1.829,0.499
				c-1.21,0-1.97-0.55-2.359-0.919c-0.779-0.73-1.069-1.58-1.069-2.52c0-1.229,0.51-2.078,1.069-2.608
				c0.69-0.649,1.489-0.869,2.409-0.869c0.609,0,1.199,0.11,1.779,0.479V598.98z"/>
		</g>
		<g>
			<path fill="#FFFFFF" d="M196.053,601.989c0,1.289-0.979,2.229-2.249,2.229s-2.249-0.939-2.249-2.229
				c0-1.3,0.979-2.219,2.249-2.219S196.053,600.689,196.053,601.989z M195.053,601.999c0-0.96-0.629-1.349-1.249-1.349
				c-0.619,0-1.249,0.389-1.249,1.349c0,0.81,0.479,1.339,1.249,1.339S195.053,602.809,195.053,601.999z"/>
		</g>
		<g>
			<path fill="#FFFFFF" d="M197.375,599.881h0.979v0.389c0.33-0.399,0.72-0.499,1.04-0.499c0.439,0,0.85,0.21,1.089,0.62
				c0.351-0.5,0.88-0.62,1.25-0.62c0.51,0,0.959,0.239,1.199,0.659c0.08,0.141,0.22,0.45,0.22,1.06v2.599h-0.979v-2.318
				c0-0.471-0.05-0.66-0.09-0.75c-0.06-0.16-0.21-0.369-0.56-0.369c-0.24,0-0.45,0.129-0.58,0.309c-0.17,0.24-0.189,0.6-0.189,0.96
				v2.169h-0.979v-2.318c0-0.471-0.05-0.66-0.09-0.75c-0.061-0.16-0.21-0.369-0.56-0.369c-0.24,0-0.45,0.129-0.58,0.309
				c-0.17,0.24-0.19,0.6-0.19,0.96v2.169h-0.979V599.881z"/>
		</g>
		<g>
			<path fill="#FFFFFF" d="M205.674,606.377h-0.979v-6.496h0.979v0.459c0.36-0.43,0.83-0.569,1.25-0.569
				c1.109,0,2.049,0.849,2.049,2.188c0,1.42-1.04,2.259-2.039,2.259c-0.229,0-0.819-0.08-1.26-0.62V606.377z M205.614,602.009
				c0,0.88,0.569,1.329,1.189,1.329c0.71,0,1.169-0.609,1.169-1.339c0-0.749-0.459-1.349-1.169-1.349
				C206.184,600.65,205.614,601.09,205.614,602.009z"/>
		</g>
		<g>
			<path fill="#FFFFFF" d="M214.063,603.129c-0.18,0.319-0.439,0.6-0.71,0.77c-0.34,0.219-0.789,0.319-1.239,0.319
				c-0.56,0-1.02-0.14-1.419-0.54c-0.399-0.399-0.62-0.979-0.62-1.609c0-0.648,0.23-1.279,0.67-1.729
				c0.35-0.35,0.81-0.569,1.409-0.569c0.67,0,1.1,0.29,1.35,0.55c0.539,0.56,0.59,1.339,0.59,1.779v0.119h-3.019
				c0.02,0.3,0.149,0.64,0.359,0.85c0.23,0.23,0.51,0.27,0.75,0.27c0.27,0,0.47-0.06,0.67-0.209c0.17-0.131,0.3-0.301,0.39-0.461
				L214.063,603.129z M213.093,601.42c-0.04-0.23-0.149-0.43-0.3-0.57c-0.13-0.12-0.34-0.24-0.659-0.24
				c-0.34,0-0.56,0.141-0.69,0.271c-0.14,0.13-0.249,0.329-0.3,0.54H213.093z"/>
		</g>
		<g>
			<path fill="#FFFFFF" d="M216.424,600.779v3.309h-0.979v-3.309h-0.409v-0.898h0.409v-1.54h0.979v1.54h0.75v0.898H216.424z"/>
		</g>
		<g>
			<path fill="#FFFFFF" d="M218.624,597.512c0.359,0,0.63,0.27,0.63,0.629c0,0.36-0.271,0.631-0.63,0.631s-0.63-0.271-0.63-0.631
				C217.994,597.781,218.265,597.512,218.624,597.512z M219.113,599.881v4.207h-0.979v-4.207H219.113z"/>
		</g>
		<g>
			<path fill="#FFFFFF" d="M221.663,600.779v3.309h-0.979v-3.309h-0.409v-0.898h0.409v-1.54h0.979v1.54h0.75v0.898H221.663z"/>
		</g>
		<g>
			<path fill="#FFFFFF" d="M223.864,597.512c0.359,0,0.63,0.27,0.63,0.629c0,0.36-0.271,0.631-0.63,0.631s-0.63-0.271-0.63-0.631
				C223.234,597.781,223.505,597.512,223.864,597.512z M224.354,599.881v4.207h-0.979v-4.207H224.354z"/>
		</g>
		<g>
			<path fill="#FFFFFF" d="M230.172,601.989c0,1.289-0.979,2.229-2.249,2.229s-2.249-0.939-2.249-2.229
				c0-1.3,0.979-2.219,2.249-2.219S230.172,600.689,230.172,601.989z M229.172,601.999c0-0.96-0.629-1.349-1.249-1.349
				c-0.619,0-1.249,0.389-1.249,1.349c0,0.81,0.479,1.339,1.249,1.339S229.172,602.809,229.172,601.999z"/>
		</g>
		<g>
			<path fill="#FFFFFF" d="M231.483,599.881h0.979v0.389c0.42-0.469,0.899-0.499,1.14-0.499c0.779,0,1.109,0.39,1.239,0.569
				c0.16,0.23,0.26,0.52,0.26,1.17v2.578h-0.979v-2.339c0-1.069-0.399-1.099-0.77-1.099c-0.439,0-0.89,0.06-0.89,1.418v2.02h-0.979
				V599.881z"/>
		</g>
	</g>
	<g>
		<g>
			<path fill="#FFFFFF" d="M192.891,478.224c0.471,0,1.072,0.075,1.532,0.555c0.357,0.366,0.536,0.911,0.536,1.409
				c0,0.537-0.188,1.006-0.498,1.307c-0.244,0.236-0.573,0.377-0.865,0.434l1.965,2.565h-2.021l-1.561-2.406v2.406h-1.626v-6.27
				H192.891z M191.979,481.034h0.31c0.245,0,0.593-0.065,0.79-0.254c0.122-0.122,0.207-0.329,0.207-0.526
				c0-0.188-0.075-0.395-0.217-0.526c-0.15-0.15-0.423-0.244-0.78-0.244h-0.31V481.034z"/>
		</g>
		<g>
			<path fill="#FFFFFF" d="M200.688,482.67h-3.131c0,0.225,0.085,0.525,0.264,0.705c0.094,0.094,0.282,0.207,0.62,0.207
				c0.038,0,0.301-0.01,0.489-0.113c0.094-0.057,0.197-0.15,0.263-0.282h1.438c-0.066,0.235-0.197,0.563-0.508,0.864
				s-0.799,0.584-1.711,0.584c-0.555,0-1.222-0.123-1.738-0.64c-0.272-0.272-0.621-0.79-0.621-1.589c0-0.705,0.264-1.269,0.63-1.626
				c0.349-0.339,0.894-0.61,1.721-0.61c0.488,0,1.118,0.104,1.616,0.572c0.593,0.564,0.668,1.298,0.668,1.768V482.67z
				 M199.306,481.805c-0.038-0.16-0.132-0.338-0.245-0.451c-0.197-0.197-0.47-0.225-0.62-0.225c-0.254,0-0.451,0.064-0.61,0.225
				c-0.104,0.113-0.197,0.264-0.226,0.451H199.306z"/>
		</g>
		<g>
			<path fill="#FFFFFF" d="M201.949,483.102c0.179,0.133,0.396,0.244,0.602,0.311c0.188,0.066,0.424,0.104,0.583,0.104
				c0.113,0,0.292-0.028,0.386-0.113c0.065-0.065,0.075-0.121,0.075-0.197c0-0.065-0.01-0.131-0.075-0.188
				c-0.094-0.084-0.244-0.113-0.395-0.15l-0.396-0.094c-0.206-0.047-0.507-0.123-0.732-0.367c-0.16-0.169-0.272-0.404-0.272-0.724
				c0-0.403,0.159-0.78,0.395-1.024c0.319-0.329,0.883-0.508,1.504-0.508c0.62,0,1.1,0.17,1.344,0.273l-0.508,0.958
				c-0.206-0.094-0.517-0.206-0.789-0.206c-0.15,0-0.254,0.027-0.348,0.084c-0.085,0.047-0.132,0.113-0.132,0.207
				c0,0.131,0.085,0.197,0.179,0.234c0.141,0.057,0.263,0.057,0.498,0.123l0.272,0.074c0.197,0.057,0.498,0.207,0.62,0.33
				c0.207,0.197,0.32,0.525,0.32,0.836c0,0.508-0.217,0.846-0.424,1.043c-0.488,0.489-1.203,0.527-1.551,0.527
				c-0.376,0-0.968-0.047-1.691-0.489L201.949,483.102z"/>
		</g>
		<g>
			<path fill="#FFFFFF" d="M210.432,482.67h-3.131c0,0.225,0.085,0.525,0.264,0.705c0.094,0.094,0.282,0.207,0.62,0.207
				c0.038,0,0.301-0.01,0.489-0.113c0.094-0.057,0.197-0.15,0.263-0.282h1.438c-0.066,0.235-0.197,0.563-0.508,0.864
				s-0.799,0.584-1.711,0.584c-0.555,0-1.222-0.123-1.738-0.64c-0.272-0.272-0.621-0.79-0.621-1.589c0-0.705,0.264-1.269,0.63-1.626
				c0.349-0.339,0.894-0.61,1.721-0.61c0.488,0,1.118,0.104,1.616,0.572c0.593,0.564,0.668,1.298,0.668,1.768V482.67z
				 M209.05,481.805c-0.038-0.16-0.132-0.338-0.245-0.451c-0.197-0.197-0.47-0.225-0.62-0.225c-0.254,0-0.451,0.064-0.61,0.225
				c-0.104,0.113-0.197,0.264-0.226,0.451H209.05z"/>
		</g>
		<g>
			<path fill="#FFFFFF" d="M214.675,480.291h1.504v4.202h-1.504v-0.46c-0.349,0.479-0.894,0.602-1.307,0.602
				c-0.451,0-1.006-0.133-1.514-0.668c-0.404-0.432-0.602-0.912-0.602-1.541c0-0.79,0.311-1.345,0.648-1.684
				c0.357-0.356,0.912-0.592,1.514-0.592c0.677,0,1.081,0.348,1.26,0.545V480.291z M213.096,481.701
				c-0.207,0.197-0.301,0.471-0.301,0.687c0,0.245,0.104,0.507,0.291,0.687c0.16,0.15,0.423,0.281,0.677,0.281
				c0.244,0,0.489-0.104,0.677-0.291c0.132-0.131,0.282-0.338,0.282-0.677c0-0.197-0.057-0.46-0.292-0.687
				c-0.141-0.131-0.356-0.271-0.677-0.271C213.565,481.43,213.312,481.494,213.096,481.701z"/>
		</g>
		<g>
			<path fill="#FFFFFF" d="M217.338,480.291h1.504v0.688c0.15-0.283,0.367-0.471,0.593-0.584c0.226-0.121,0.498-0.168,0.78-0.168
				c0.037,0,0.104,0.009,0.301,0.018v1.42c-0.075-0.037-0.282-0.15-0.648-0.15c-0.198,0-0.471,0.027-0.687,0.226
				c-0.319,0.292-0.339,0.733-0.339,0.958v1.796h-1.504V480.291z"/>
		</g>
		<g>
			<path fill="#FFFFFF" d="M224.296,484.398c-0.404,0.198-0.733,0.236-1.044,0.236c-0.817,0-1.354-0.348-1.654-0.64
				c-0.395-0.386-0.648-0.95-0.648-1.569c0-0.621,0.254-1.213,0.677-1.627c0.395-0.375,0.978-0.639,1.692-0.639
				c0.263,0,0.602,0.047,0.978,0.234v1.26c-0.198-0.141-0.461-0.272-0.78-0.272c-0.357,0-0.583,0.142-0.733,0.292
				c-0.207,0.207-0.291,0.479-0.291,0.723c0,0.236,0.084,0.508,0.263,0.705c0.141,0.15,0.386,0.32,0.771,0.32
				c0.217,0,0.499-0.047,0.771-0.282V484.398z"/>
		</g>
		<g>
			<path fill="#FFFFFF" d="M225.275,477.641h1.504v3.178c0.113-0.141,0.292-0.311,0.471-0.414c0.291-0.169,0.602-0.207,0.864-0.207
				c0.593,0,0.987,0.197,1.241,0.451c0.376,0.377,0.395,0.771,0.395,1.176v2.669h-1.504v-2.124c0-0.311-0.019-0.63-0.188-0.818
				c-0.141-0.16-0.329-0.178-0.479-0.178c-0.159,0-0.375,0.027-0.545,0.178c-0.131,0.123-0.254,0.348-0.254,0.687v2.256h-1.504
				V477.641z"/>
		</g>
	</g>
	<g>
		<g>
			<path fill="#FFFFFF" d="M138.953,458.031c-2.223-2.539-2.698-5.872-2.698-8.633c0-2.73,0.476-6.126,2.698-8.665
				c1.332-1.523,2.92-2.285,4.792-2.285s3.46,0.762,4.792,2.285c2.223,2.539,2.698,5.935,2.698,8.665
				c0,2.761-0.476,6.094-2.698,8.633c-1.332,1.523-2.888,2.285-4.792,2.285S140.285,459.555,138.953,458.031z M140.889,443.051
				c-1.174,1.745-1.46,4.475-1.46,6.315c0,1.872,0.286,4.57,1.46,6.348c0.92,1.396,2.031,1.745,2.856,1.745s1.937-0.349,2.856-1.745
				c1.174-1.777,1.46-4.476,1.46-6.348c0-1.841-0.286-4.57-1.46-6.315c-0.92-1.396-2.031-1.746-2.856-1.746
				S141.809,441.654,140.889,443.051z"/>
		</g>
		<g>
			<path fill="#FFFFFF" d="M155.334,444.193c0.096-1.715,0.825-3.174,1.809-4.127c1.461-1.396,3.238-1.618,4.635-1.618
				c1.618,0,3.205,0.317,4.57,1.745c1.11,1.143,1.523,2.508,1.523,4.031c0,1.016-0.191,1.904-0.73,2.793
				c-0.571,0.92-1.301,1.46-1.904,1.777c1.079,0.412,1.746,1.143,2.095,1.682c0.603,0.889,0.889,2.063,0.889,3.27
				c0,2.095-0.794,3.713-1.81,4.729c-1.523,1.523-3.522,1.842-5.173,1.842c-1.618,0-3.364-0.318-4.729-1.777
				c-0.951-1.016-1.65-2.698-1.809-4.316h3.11c0.159,0.951,0.603,1.777,1.143,2.285c0.444,0.412,1.237,0.951,2.571,0.951
				c0.983,0,1.904-0.381,2.475-0.889c0.604-0.57,1.111-1.555,1.111-2.982c0-0.699-0.127-1.715-0.952-2.508
				c-0.921-0.889-2.063-0.952-2.729-0.952h-0.635v-2.729h0.444c1.364,0,2.222-0.444,2.698-0.92c0.508-0.508,0.824-1.302,0.824-2.254
				c0-1.111-0.476-1.777-0.824-2.127c-0.73-0.697-1.619-0.793-2.254-0.793c-0.762,0-1.65,0.127-2.349,0.857
				c-0.729,0.762-0.889,1.904-0.889,2.031H155.334z"/>
		</g>
	</g>
</g>
<g>
	<polygon fill-rule="evenodd" clip-rule="evenodd" fill="#FFFFFF" points="321.888,283.186 316.694,286.699 316.694,279.674 	"/>
</g>
<g>
	<polygon fill-rule="evenodd" clip-rule="evenodd" fill="#FFFFFF" points="540.555,283.186 535.36,286.699 535.36,279.674 	"/>
</g>
<g>
	<polygon fill-rule="evenodd" clip-rule="evenodd" fill="#FFFFFF" points="540.555,540.186 535.36,543.699 535.36,536.674 	"/>
</g>
<g>
	<polygon fill-rule="evenodd" clip-rule="evenodd" fill="#FFFFFF" points="323.193,540.186 317.999,543.699 317.999,536.674 	"/>
</g>
<g>
	<g>
		<g>
			<path fill="#FFFFFF" d="M412.867,532.121v2.077h-1.626v-6.27h2.594c0.546,0,1.109,0.104,1.589,0.563
				c0.488,0.471,0.583,0.997,0.583,1.523c0,0.498-0.066,1.08-0.555,1.561c-0.489,0.479-1.071,0.545-1.561,0.545H412.867z
				 M412.867,530.805h0.545c0.169,0,0.489-0.019,0.687-0.197c0.197-0.169,0.206-0.423,0.206-0.573c0-0.169-0.019-0.395-0.188-0.563
				c-0.188-0.197-0.488-0.227-0.695-0.227h-0.555V530.805z"/>
		</g>
		<g>
			<path fill="#FFFFFF" d="M416.855,529.996h1.504v0.688c0.15-0.283,0.367-0.471,0.593-0.584c0.226-0.121,0.498-0.168,0.78-0.168
				c0.037,0,0.104,0.009,0.301,0.018v1.42c-0.075-0.037-0.282-0.15-0.648-0.15c-0.198,0-0.471,0.027-0.687,0.226
				c-0.319,0.292-0.339,0.733-0.339,0.958v1.796h-1.504V529.996z"/>
		</g>
		<g>
			<path fill="#FFFFFF" d="M424.866,533.644c-0.555,0.546-1.203,0.696-1.88,0.696c-0.611,0-1.288-0.123-1.871-0.696
				c-0.46-0.451-0.648-0.987-0.648-1.551c0-0.752,0.339-1.241,0.648-1.542c0.348-0.338,0.959-0.695,1.871-0.695
				c0.93,0,1.531,0.367,1.88,0.695c0.31,0.301,0.648,0.79,0.648,1.542C425.515,532.656,425.326,533.192,424.866,533.644z
				 M422.318,531.406c-0.188,0.18-0.291,0.441-0.291,0.687c0,0.254,0.122,0.498,0.291,0.667c0.179,0.18,0.423,0.282,0.677,0.282
				c0.245,0,0.489-0.103,0.668-0.282c0.188-0.178,0.291-0.422,0.291-0.667c0-0.226-0.104-0.498-0.291-0.687
				c-0.17-0.16-0.433-0.271-0.668-0.271C422.751,531.135,422.488,531.246,422.318,531.406z"/>
		</g>
		<g>
			<path fill="#FFFFFF" d="M428.01,527.346v3.055c0.273-0.291,0.677-0.545,1.25-0.545c0.518,0,1.072,0.17,1.485,0.564
				c0.386,0.366,0.687,0.949,0.687,1.664c0,0.666-0.254,1.259-0.677,1.672c-0.395,0.387-0.874,0.584-1.476,0.584
				c-0.292,0-0.846-0.057-1.27-0.602v0.46h-1.504v-6.853H428.01z M429.599,532.779c0.197-0.197,0.291-0.441,0.291-0.658
				c0-0.282-0.122-0.545-0.291-0.715c-0.132-0.131-0.348-0.271-0.667-0.271c-0.282,0-0.518,0.103-0.687,0.281
				c-0.15,0.16-0.282,0.441-0.282,0.677c0,0.254,0.122,0.536,0.32,0.714c0.159,0.142,0.403,0.254,0.648,0.254
				C429.147,533.061,429.392,532.986,429.599,532.779z"/>
		</g>
		<g>
			<path fill="#FFFFFF" d="M433.926,527.346v6.853h-1.504v-6.853H433.926z"/>
		</g>
		<g>
			<path fill="#FFFFFF" d="M439.53,532.375h-3.13c0,0.225,0.084,0.525,0.263,0.705c0.094,0.094,0.282,0.207,0.62,0.207
				c0.038,0,0.301-0.01,0.489-0.113c0.094-0.057,0.197-0.15,0.263-0.282h1.438c-0.065,0.235-0.197,0.563-0.508,0.864
				c-0.31,0.301-0.799,0.584-1.711,0.584c-0.554,0-1.222-0.123-1.738-0.64c-0.272-0.272-0.62-0.79-0.62-1.589
				c0-0.705,0.263-1.269,0.629-1.626c0.348-0.339,0.894-0.61,1.721-0.61c0.488,0,1.118,0.104,1.616,0.572
				c0.593,0.564,0.668,1.298,0.668,1.768V532.375z M438.148,531.51c-0.038-0.16-0.132-0.338-0.244-0.451
				c-0.198-0.197-0.471-0.225-0.621-0.225c-0.254,0-0.451,0.064-0.61,0.225c-0.104,0.113-0.198,0.264-0.226,0.451H438.148z"/>
		</g>
		<g>
			<path fill="#FFFFFF" d="M440.521,529.996h1.504v0.508c0.357-0.432,0.847-0.582,1.26-0.582c0.301,0,0.583,0.065,0.809,0.188
				c0.31,0.16,0.479,0.395,0.583,0.602c0.169-0.301,0.385-0.479,0.573-0.582c0.301-0.17,0.592-0.207,0.874-0.207
				c0.311,0,0.817,0.047,1.165,0.385c0.376,0.367,0.396,0.865,0.396,1.156v2.735h-1.504v-2.077c0-0.441-0.047-0.742-0.217-0.902
				c-0.084-0.075-0.197-0.141-0.395-0.141c-0.169,0-0.311,0.047-0.441,0.168c-0.254,0.245-0.273,0.593-0.273,0.8v2.152h-1.504
				v-2.077c0-0.404-0.027-0.725-0.197-0.902c-0.131-0.141-0.301-0.17-0.451-0.17c-0.159,0-0.291,0.029-0.413,0.15
				c-0.264,0.254-0.264,0.658-0.264,0.922v2.077h-1.504V529.996z"/>
		</g>
		<g>
			<path fill="#FFFFFF" d="M408.443,545.485v-6.27h2.134c0.63,0,1.683,0.085,2.49,0.864c0.733,0.705,0.874,1.607,0.874,2.285
				c0,0.826-0.206,1.561-0.817,2.171c-0.498,0.498-1.335,0.949-2.406,0.949H408.443z M410.069,544.104h0.329
				c0.395,0,0.949-0.037,1.372-0.451c0.207-0.197,0.479-0.592,0.479-1.287c0-0.584-0.179-1.082-0.489-1.373
				c-0.385-0.357-0.893-0.395-1.297-0.395h-0.395V544.104z"/>
		</g>
		<g>
			<path fill="#FFFFFF" d="M419.417,543.662h-3.13c0,0.225,0.084,0.525,0.263,0.705c0.094,0.094,0.282,0.207,0.62,0.207
				c0.038,0,0.301-0.01,0.489-0.113c0.094-0.057,0.197-0.15,0.263-0.282h1.438c-0.065,0.235-0.197,0.563-0.508,0.864
				c-0.31,0.301-0.799,0.584-1.711,0.584c-0.554,0-1.222-0.123-1.738-0.64c-0.272-0.272-0.62-0.79-0.62-1.589
				c0-0.705,0.263-1.269,0.629-1.626c0.348-0.339,0.894-0.61,1.721-0.61c0.488,0,1.118,0.104,1.616,0.572
				c0.593,0.564,0.668,1.298,0.668,1.768V543.662z M418.035,542.797c-0.038-0.16-0.132-0.338-0.244-0.451
				c-0.198-0.197-0.471-0.225-0.621-0.225c-0.254,0-0.451,0.064-0.61,0.225c-0.104,0.113-0.198,0.264-0.226,0.451H418.035z"/>
		</g>
		<g>
			<path fill="#FFFFFF" d="M422.024,542.516v2.97h-1.504v-2.97h-0.526v-1.232h0.526v-0.516c0-0.564,0.075-1.166,0.573-1.646
				c0.404-0.396,1.024-0.593,1.654-0.593c0.592,0,1.288,0.18,1.683,0.564c0.263,0.254,0.526,0.715,0.526,1.41v0.216h-1.504v-0.142
				c0-0.037,0-0.375-0.188-0.563c-0.122-0.123-0.329-0.189-0.526-0.189c-0.188,0-0.385,0.076-0.517,0.217
				c-0.179,0.188-0.197,0.414-0.197,0.648v0.592h1.053v1.232H422.024z M424.957,541.283v4.202h-1.504v-4.202H424.957z"/>
		</g>
		<g>
			<path fill="#FFFFFF" d="M426.023,541.283h1.504v0.527c0.414-0.545,0.969-0.621,1.335-0.621c0.433,0,0.894,0.104,1.241,0.451
				c0.356,0.357,0.395,0.715,0.395,1.176v2.669h-1.504v-2.124c0-0.244,0.01-0.611-0.188-0.818c-0.141-0.15-0.329-0.178-0.479-0.178
				c-0.234,0-0.432,0.084-0.554,0.197c-0.15,0.141-0.245,0.413-0.245,0.667v2.256h-1.504V541.283z"/>
		</g>
		<g>
			<path fill="#FFFFFF" d="M432.399,538.689c0.471,0,0.847,0.376,0.847,0.846c0,0.471-0.376,0.846-0.847,0.846
				c-0.47,0-0.846-0.375-0.846-0.846C431.554,539.065,431.93,538.689,432.399,538.689z M433.151,541.283v4.202h-1.504v-4.202
				H433.151z"/>
		</g>
		<g>
			<path fill="#FFFFFF" d="M435.964,542.516v2.97h-1.504v-2.97h-0.479v-1.232h0.479v-1.381h1.504v1.381h0.855v1.232H435.964z"/>
		</g>
		<g>
			<path fill="#FFFFFF" d="M438.259,538.689c0.471,0,0.847,0.376,0.847,0.846c0,0.471-0.376,0.846-0.847,0.846
				c-0.47,0-0.846-0.375-0.846-0.846C437.413,539.065,437.789,538.689,438.259,538.689z M439.011,541.283v4.202h-1.504v-4.202
				H439.011z"/>
		</g>
		<g>
			<path fill="#FFFFFF" d="M444.39,544.931c-0.555,0.546-1.203,0.696-1.88,0.696c-0.611,0-1.288-0.123-1.871-0.696
				c-0.46-0.451-0.648-0.987-0.648-1.551c0-0.752,0.339-1.241,0.648-1.542c0.348-0.338,0.959-0.695,1.871-0.695
				c0.93,0,1.531,0.367,1.88,0.695c0.31,0.301,0.648,0.79,0.648,1.542C445.038,543.943,444.85,544.479,444.39,544.931z
				 M441.842,542.693c-0.188,0.18-0.291,0.441-0.291,0.687c0,0.254,0.122,0.498,0.291,0.667c0.179,0.18,0.423,0.282,0.677,0.282
				c0.245,0,0.489-0.103,0.668-0.282c0.188-0.178,0.291-0.422,0.291-0.667c0-0.226-0.104-0.498-0.291-0.687
				c-0.17-0.16-0.433-0.271-0.668-0.271C442.274,542.422,442.012,542.533,441.842,542.693z"/>
		</g>
		<g>
			<path fill="#FFFFFF" d="M446.029,541.283h1.504v0.527c0.414-0.545,0.969-0.621,1.335-0.621c0.433,0,0.894,0.104,1.241,0.451
				c0.356,0.357,0.395,0.715,0.395,1.176v2.669H449v-2.124c0-0.244,0.01-0.611-0.188-0.818c-0.141-0.15-0.329-0.178-0.479-0.178
				c-0.234,0-0.432,0.084-0.554,0.197c-0.15,0.141-0.245,0.413-0.245,0.667v2.256h-1.504V541.283z"/>
		</g>
	</g>
	<g>
		<g>
			<path fill="#FFFFFF" d="M358.77,458.031c-2.221-2.539-2.697-5.872-2.697-8.633c0-2.73,0.477-6.126,2.697-8.665
				c1.334-1.523,2.92-2.285,4.793-2.285s3.459,0.762,4.793,2.285c2.221,2.539,2.697,5.935,2.697,8.665
				c0,2.761-0.477,6.094-2.697,8.633c-1.334,1.523-2.889,2.285-4.793,2.285S360.104,459.555,358.77,458.031z M360.706,443.051
				c-1.175,1.745-1.46,4.475-1.46,6.315c0,1.872,0.285,4.57,1.46,6.348c0.921,1.396,2.031,1.745,2.856,1.745
				s1.936-0.349,2.856-1.745c1.175-1.777,1.46-4.476,1.46-6.348c0-1.841-0.285-4.57-1.46-6.315
				c-0.921-1.396-2.031-1.746-2.856-1.746S361.627,441.654,360.706,443.051z"/>
		</g>
		<g>
			<path fill="#FFFFFF" d="M386.419,452.984h2.285v2.983h-2.285v3.999h-3.11v-3.999h-10.474l13.584-18.726V452.984z
				 M383.309,453.048v-6.823l-4.824,6.823H383.309z"/>
		</g>
	</g>
</g>
<g>
	<path fill="#FFFFFF" d="M289.5,384.5H130.291V172.324H289.5V384.5z M131.291,383.5H288.5V173.324H131.291V383.5z"/>
</g>
<g>
	<path fill="#FFFFFF" d="M501.699,636.274h-159.21V424.099h159.21V636.274z M343.489,635.274h157.21V425.099h-157.21V635.274z"/>
</g>
<g>
	<path fill="#FFFFFF" d="M265.067,65.584v-6.005h2.043c0.603,0,1.611,0.081,2.386,0.828c0.702,0.675,0.837,1.54,0.837,2.188
		c0,0.792-0.198,1.494-0.783,2.08c-0.478,0.477-1.279,0.909-2.305,0.909H265.067z M266.625,64.261h0.315
		c0.378,0,0.909-0.036,1.314-0.432c0.198-0.189,0.459-0.567,0.459-1.233c0-0.558-0.171-1.036-0.468-1.314
		c-0.369-0.342-0.855-0.378-1.242-0.378h-0.378V64.261z"/>
	<path fill="#FFFFFF" d="M278.154,60.902h-1.854v1h1.756v1.323h-1.756v1.036h1.854v1.323h-3.412v-6.005h3.412V60.902z"/>
	<path fill="#FFFFFF" d="M282.959,63.783c0.333,0.315,0.837,0.612,1.377,0.612c0.315,0,0.504-0.099,0.603-0.207
		c0.09-0.09,0.153-0.225,0.153-0.378c0-0.117-0.045-0.252-0.171-0.36c-0.153-0.135-0.387-0.198-0.774-0.315l-0.405-0.126
		c-0.252-0.081-0.621-0.216-0.864-0.486c-0.306-0.333-0.342-0.756-0.342-1.062c0-0.738,0.288-1.188,0.549-1.45
		c0.306-0.306,0.81-0.567,1.54-0.567c0.594,0,1.287,0.189,1.854,0.486l-0.621,1.215c-0.468-0.369-0.819-0.405-1.026-0.405
		c-0.153,0-0.36,0.036-0.513,0.18c-0.09,0.09-0.153,0.189-0.153,0.324c0,0.108,0.018,0.189,0.081,0.27
		c0.045,0.054,0.153,0.162,0.522,0.27l0.477,0.144c0.378,0.117,0.774,0.252,1.089,0.594c0.306,0.324,0.387,0.657,0.387,1.071
		c0,0.549-0.135,1.081-0.567,1.513c-0.513,0.513-1.134,0.612-1.773,0.612c-0.378,0-0.738-0.036-1.179-0.198
		c-0.099-0.036-0.478-0.18-0.909-0.477L282.959,63.783z"/>
	<path fill="#FFFFFF" d="M292.679,59.579v6.005h-1.557v-6.005H292.679z"/>
	<path fill="#FFFFFF" d="M300.24,62.181h3.097c0,1.188-0.243,2.035-0.963,2.701c-0.631,0.585-1.351,0.756-2.116,0.756
		c-1.08,0-1.818-0.396-2.305-0.892c-0.45-0.45-0.864-1.179-0.864-2.169c0-0.954,0.378-1.738,0.9-2.251
		c0.495-0.495,1.27-0.882,2.332-0.882c0.558,0,1.161,0.126,1.62,0.405c0.469,0.288,0.855,0.765,1.071,1.233l-1.485,0.612
		c-0.108-0.279-0.279-0.477-0.432-0.603c-0.262-0.216-0.541-0.297-0.838-0.297c-0.369,0-0.747,0.135-1.026,0.414
		c-0.351,0.351-0.522,0.91-0.522,1.377c0,0.549,0.198,1,0.477,1.296c0.288,0.306,0.64,0.459,1.099,0.459
		c0.27,0,0.585-0.045,0.864-0.279c0.144-0.117,0.315-0.333,0.369-0.666h-1.278V62.181z"/>
	<path fill="#FFFFFF" d="M307.744,65.584v-6.005h1.558l2.872,3.673v-3.673h1.558v6.005h-1.558l-2.872-3.673v3.673H307.744z"/>
	<path fill="#FFFFFF" d="M325.484,63.594v1.99h-1.558v-6.005h2.485c0.521,0,1.062,0.099,1.521,0.54
		c0.468,0.45,0.558,0.955,0.558,1.458c0,0.477-0.063,1.036-0.531,1.495c-0.468,0.459-1.026,0.522-1.494,0.522H325.484z
		 M325.484,62.334h0.522c0.162,0,0.468-0.018,0.657-0.189c0.188-0.162,0.198-0.405,0.198-0.549c0-0.162-0.019-0.378-0.181-0.54
		c-0.18-0.189-0.468-0.216-0.666-0.216h-0.531V62.334z"/>
	<path fill="#FFFFFF" d="M335.168,59.579c0.45,0,1.026,0.072,1.468,0.531c0.342,0.351,0.514,0.873,0.514,1.351
		c0,0.513-0.181,0.963-0.478,1.251c-0.234,0.225-0.549,0.36-0.828,0.415l1.882,2.458h-1.937l-1.494-2.305v2.305h-1.558v-6.005
		H335.168z M334.295,62.271h0.297c0.234,0,0.567-0.063,0.757-0.243c0.117-0.117,0.198-0.315,0.198-0.504
		c0-0.18-0.072-0.378-0.207-0.504c-0.145-0.144-0.405-0.234-0.748-0.234h-0.297V62.271z"/>
	<path fill="#FFFFFF" d="M347.211,64.828c-0.612,0.585-1.477,0.892-2.368,0.892c-0.891,0-1.755-0.306-2.367-0.892
		c-0.64-0.612-0.945-1.449-0.945-2.242c0-0.801,0.306-1.647,0.945-2.25c0.612-0.585,1.477-0.891,2.367-0.891
		c0.892,0,1.756,0.306,2.368,0.891c0.639,0.603,0.945,1.449,0.945,2.25C348.156,63.378,347.85,64.216,347.211,64.828z
		 M343.628,61.434c-0.324,0.315-0.478,0.756-0.478,1.18c0,0.531,0.252,0.9,0.478,1.116c0.288,0.279,0.693,0.477,1.215,0.477
		c0.531,0,0.928-0.189,1.207-0.468c0.278-0.279,0.485-0.693,0.485-1.152c0-0.468-0.207-0.882-0.485-1.152
		c-0.334-0.315-0.793-0.477-1.207-0.477C344.411,60.957,343.952,61.11,343.628,61.434z"/>
	<path fill="#FFFFFF" d="M356.876,65.422c-0.621,0.225-0.963,0.297-1.351,0.297c-1.044,0-1.827-0.415-2.322-0.9
		c-0.585-0.585-0.909-1.404-0.909-2.188c0-0.855,0.369-1.665,0.909-2.214c0.531-0.54,1.332-0.937,2.269-0.937
		c0.288,0,0.756,0.045,1.404,0.306v1.864c-0.504-0.621-1.099-0.657-1.359-0.657c-0.45,0-0.792,0.135-1.08,0.396
		c-0.369,0.342-0.522,0.811-0.522,1.233c0,0.414,0.171,0.873,0.486,1.17c0.261,0.243,0.675,0.414,1.116,0.414
		c0.234,0,0.811-0.027,1.359-0.63V65.422z"/>
	<path fill="#FFFFFF" d="M364.696,60.902h-1.854v1h1.756v1.323h-1.756v1.036h1.854v1.323h-3.412v-6.005h3.412V60.902z"/>
	<path fill="#FFFFFF" d="M369.502,63.783c0.333,0.315,0.837,0.612,1.377,0.612c0.315,0,0.505-0.099,0.604-0.207
		c0.09-0.09,0.153-0.225,0.153-0.378c0-0.117-0.045-0.252-0.171-0.36c-0.153-0.135-0.388-0.198-0.774-0.315l-0.405-0.126
		c-0.252-0.081-0.621-0.216-0.864-0.486c-0.306-0.333-0.342-0.756-0.342-1.062c0-0.738,0.288-1.188,0.549-1.45
		c0.306-0.306,0.811-0.567,1.539-0.567c0.595,0,1.288,0.189,1.854,0.486l-0.621,1.215c-0.468-0.369-0.819-0.405-1.026-0.405
		c-0.152,0-0.359,0.036-0.513,0.18c-0.09,0.09-0.153,0.189-0.153,0.324c0,0.108,0.019,0.189,0.081,0.27
		c0.045,0.054,0.153,0.162,0.522,0.27l0.477,0.144c0.379,0.117,0.774,0.252,1.09,0.594c0.306,0.324,0.387,0.657,0.387,1.071
		c0,0.549-0.135,1.081-0.566,1.513c-0.514,0.513-1.135,0.612-1.773,0.612c-0.379,0-0.738-0.036-1.18-0.198
		c-0.1-0.036-0.478-0.18-0.909-0.477L369.502,63.783z"/>
	<path fill="#FFFFFF" d="M377.836,63.783c0.333,0.315,0.837,0.612,1.377,0.612c0.315,0,0.505-0.099,0.604-0.207
		c0.09-0.09,0.153-0.225,0.153-0.378c0-0.117-0.045-0.252-0.171-0.36c-0.153-0.135-0.388-0.198-0.774-0.315l-0.405-0.126
		c-0.252-0.081-0.621-0.216-0.864-0.486c-0.306-0.333-0.342-0.756-0.342-1.062c0-0.738,0.288-1.188,0.549-1.45
		c0.306-0.306,0.811-0.567,1.539-0.567c0.595,0,1.288,0.189,1.854,0.486l-0.621,1.215c-0.468-0.369-0.819-0.405-1.026-0.405
		c-0.152,0-0.359,0.036-0.513,0.18c-0.09,0.09-0.153,0.189-0.153,0.324c0,0.108,0.019,0.189,0.081,0.27
		c0.045,0.054,0.153,0.162,0.522,0.27l0.477,0.144c0.379,0.117,0.774,0.252,1.09,0.594c0.306,0.324,0.387,0.657,0.387,1.071
		c0,0.549-0.135,1.081-0.566,1.513c-0.514,0.513-1.135,0.612-1.773,0.612c-0.379,0-0.738-0.036-1.18-0.198
		c-0.1-0.036-0.478-0.18-0.909-0.477L377.836,63.783z"/>
</g>
</svg>
