<?xml version="1.0" encoding="utf-8"?>
<!-- Generator: Adobe Illustrator 16.0.0, SVG Export Plug-In . SVG Version: 6.00 Build 0)  -->
<!DOCTYPE svg PUBLIC "-//W3C//DTD SVG 1.1//EN" "http://www.w3.org/Graphics/SVG/1.1/DTD/svg11.dtd">
<svg version="1.1" xmlns="http://www.w3.org/2000/svg" xmlns:xlink="http://www.w3.org/1999/xlink" x="0px" y="0px" width="600px"
	 height="600px" viewBox="0 0 600 600" enable-background="new 0 0 600 600" xml:space="preserve" stroke="white">
<g id="hidden">
</g>
<g id="BG">
</g>
<g id="content_1_">
	<g>
		<g>
			<g>
				<path fill="none"  d="M298.573,406.927l-9.452,16.798c-1.909,3.394-6.143,6.144-9.454,6.144h-19.156
					c-3.314,0-4.449-2.75-2.539-6.144l9.45-16.798c1.912-3.396,6.145-6.148,9.456-6.148h19.157
					C299.347,400.778,300.485,403.53,298.573,406.927z"/>
			</g>
			<g>
				<path fill="none"  d="M279.986,388.34l-16.798,9.451c-3.394,1.909-6.144,6.143-6.144,9.454v19.156
					c0,3.314,2.75,4.449,6.144,2.539l16.798-9.45c3.396-1.912,6.148-6.145,6.148-9.456v-19.156
					C286.134,387.566,283.382,386.428,279.986,388.34z"/>
			</g>
			<g>
				<path fill="none"  d="M233.103,388.34l16.798,9.451c3.394,1.909,6.144,6.143,6.144,9.454v19.156
					c0,3.314-2.75,4.449-6.144,2.539l-16.798-9.45c-3.396-1.912-6.148-6.145-6.148-9.456v-19.156
					C226.955,387.566,229.707,386.428,233.103,388.34z"/>
			</g>
			<g>
				<path fill="none"  d="M214.515,406.927l9.451,16.798c1.91,3.394,6.143,6.144,9.455,6.144h19.156
					c3.314,0,4.449-2.75,2.539-6.144l-9.451-16.798c-1.912-3.396-6.145-6.148-9.455-6.148h-19.156
					C213.742,400.778,212.603,403.53,214.515,406.927z"/>
			</g>
			<g>
				<path fill="none"  d="M214.516,453.81l9.451-16.798c1.909-3.394,6.143-6.144,9.454-6.144h19.156
					c3.314,0,4.449,2.75,2.539,6.144l-9.45,16.798c-1.912,3.396-6.145,6.148-9.456,6.148h-19.156
					C213.743,459.958,212.604,457.206,214.516,453.81z"/>
			</g>
			<g>
				<path fill="none"  d="M233.103,472.396l16.798-9.451c3.394-1.909,6.144-6.143,6.144-9.454v-19.156
					c0-3.314-2.75-4.449-6.144-2.539l-16.798,9.45c-3.396,1.912-6.148,6.145-6.148,9.456v19.156
					C226.955,473.17,229.707,474.309,233.103,472.396z"/>
			</g>
			<g>
				<path fill="none"  d="M279.986,472.396l-16.798-9.451c-3.394-1.909-6.144-6.143-6.144-9.454v-19.156
					c0-3.314,2.75-4.449,6.144-2.539l16.798,9.45c3.396,1.912,6.148,6.145,6.148,9.456v19.156
					C286.134,473.17,283.382,474.309,279.986,472.396z"/>
			</g>
			<g>
				<path fill="none"  d="M298.573,453.81l-9.452-16.798c-1.909-3.394-6.143-6.144-9.454-6.144h-19.156
					c-3.314,0-4.449,2.75-2.539,6.144l9.45,16.798c1.912,3.396,6.145,6.148,9.456,6.148h19.157
					C299.347,459.958,300.485,457.206,298.573,453.81z"/>
			</g>
		</g>
		<g>
			<g>
				<path fill="none"  d="M559.31,59.278l-9.451,16.798c-1.909,3.394-6.143,6.144-9.454,6.144h-19.156
					c-3.314,0-4.449-2.75-2.539-6.144l9.45-16.798c1.912-3.396,6.145-6.148,9.456-6.148h19.156
					C560.083,53.13,561.222,55.882,559.31,59.278z"/>
			</g>
			<g>
				<path fill="none"  d="M540.723,40.691l-16.798,9.451c-3.394,1.909-6.144,6.143-6.144,9.454v19.156
					c0,3.314,2.75,4.449,6.144,2.539l16.798-9.45c3.396-1.912,6.148-6.145,6.148-9.456V43.229
					C546.871,39.918,544.119,38.779,540.723,40.691z"/>
			</g>
			<g>
				<path fill="none"  d="M493.84,40.691l16.798,9.451c3.394,1.909,6.144,6.143,6.144,9.454v19.156
					c0,3.314-2.75,4.449-6.144,2.539l-16.798-9.45c-3.396-1.912-6.148-6.145-6.148-9.456V43.229
					C487.691,39.918,490.443,38.779,493.84,40.691z"/>
			</g>
			<g>
				<path fill="none"  d="M475.252,59.278l9.451,16.798c1.91,3.394,6.143,6.144,9.455,6.144h19.156
					c3.314,0,4.449-2.75,2.539-6.144l-9.451-16.798c-1.912-3.396-6.145-6.148-9.455-6.148h-19.156
					C474.479,53.13,473.34,55.882,475.252,59.278z"/>
			</g>
			<g>
				<path fill="none"  d="M475.253,106.161l9.451-16.798c1.909-3.394,6.143-6.144,9.454-6.144h19.156
					c3.314,0,4.449,2.75,2.539,6.144l-9.45,16.798c-1.912,3.396-6.145,6.148-9.456,6.148h-19.156
					C474.479,112.31,473.341,109.558,475.253,106.161z"/>
			</g>
			<g>
				<path fill="none"  d="M493.84,124.748l16.798-9.451c3.394-1.909,6.144-6.143,6.144-9.454V86.687
					c0-3.314-2.75-4.449-6.144-2.539l-16.798,9.45c-3.396,1.912-6.148,6.145-6.148,9.456v19.156
					C487.691,125.521,490.443,126.66,493.84,124.748z"/>
			</g>
			<g>
				<path fill="none"  d="M540.723,124.748l-16.798-9.451c-3.394-1.909-6.144-6.143-6.144-9.454V86.687
					c0-3.314,2.75-4.449,6.144-2.539l16.798,9.45c3.396,1.912,6.148,6.145,6.148,9.456v19.156
					C546.871,125.521,544.119,126.66,540.723,124.748z"/>
			</g>
			<g>
				<path fill="none"  d="M559.31,106.161l-9.451-16.798c-1.909-3.394-6.143-6.144-9.454-6.144h-19.156
					c-3.314,0-4.449,2.75-2.539,6.144l9.45,16.798c1.912,3.396,6.145,6.148,9.456,6.148h19.156
					C560.083,112.31,561.222,109.558,559.31,106.161z"/>
			</g>
		</g>
		<g>
			<g>
				<path fill="none"  d="M472.397,59.278l-9.451,16.798c-1.909,3.394-6.143,6.144-9.454,6.144h-19.156
					c-3.314,0-4.449-2.75-2.539-6.144l9.45-16.798c1.912-3.396,6.145-6.148,9.456-6.148h19.156
					C473.171,53.13,474.31,55.882,472.397,59.278z"/>
			</g>
			<g>
				<path fill="none"  d="M453.811,40.691l-16.798,9.451c-3.394,1.909-6.144,6.143-6.144,9.454v19.156
					c0,3.314,2.75,4.449,6.144,2.539l16.798-9.45c3.396-1.912,6.148-6.145,6.148-9.456V43.229
					C459.959,39.918,457.207,38.779,453.811,40.691z"/>
			</g>
			<g>
				<path fill="none"  d="M406.928,40.691l16.798,9.451c3.394,1.909,6.144,6.143,6.144,9.454v19.156
					c0,3.314-2.75,4.449-6.144,2.539l-16.798-9.45c-3.396-1.912-6.148-6.145-6.148-9.456V43.229
					C400.779,39.918,403.531,38.779,406.928,40.691z"/>
			</g>
			<g>
				<path fill="none"  d="M388.34,59.278l9.451,16.798c1.91,3.394,6.143,6.144,9.455,6.144h19.156
					c3.314,0,4.449-2.75,2.539-6.144l-9.451-16.798c-1.912-3.396-6.145-6.148-9.455-6.148h-19.156
					C387.566,53.13,386.428,55.882,388.34,59.278z"/>
			</g>
			<g>
				<path fill="none"  d="M388.341,106.161l9.451-16.798c1.909-3.394,6.143-6.144,9.454-6.144h19.156
					c3.314,0,4.449,2.75,2.539,6.144l-9.45,16.798c-1.912,3.396-6.145,6.148-9.456,6.148h-19.156
					C387.567,112.31,386.429,109.558,388.341,106.161z"/>
			</g>
			<g>
				<path fill="none"  d="M406.928,124.748l16.798-9.451c3.394-1.909,6.144-6.143,6.144-9.454V86.687
					c0-3.314-2.75-4.449-6.144-2.539l-16.798,9.45c-3.396,1.912-6.148,6.145-6.148,9.456v19.156
					C400.779,125.521,403.531,126.66,406.928,124.748z"/>
			</g>
			<g>
				<path fill="none"  d="M453.811,124.748l-16.798-9.451c-3.394-1.909-6.144-6.143-6.144-9.454V86.687
					c0-3.314,2.75-4.449,6.144-2.539l16.798,9.45c3.396,1.912,6.148,6.145,6.148,9.456v19.156
					C459.959,125.521,457.207,126.66,453.811,124.748z"/>
			</g>
			<g>
				<path fill="none"  d="M472.397,106.161l-9.451-16.798c-1.909-3.394-6.143-6.144-9.454-6.144h-19.156
					c-3.314,0-4.449,2.75-2.539,6.144l9.45,16.798c1.912,3.396,6.145,6.148,9.456,6.148h19.156
					C473.171,112.31,474.31,109.558,472.397,106.161z"/>
			</g>
		</g>
		<g>
			<g>
				<path fill="none"  d="M385.485,59.278l-9.451,16.798c-1.909,3.394-6.143,6.144-9.454,6.144h-19.156
					c-3.314,0-4.449-2.75-2.539-6.144l9.45-16.798c1.912-3.396,6.145-6.148,9.456-6.148h19.156
					C386.259,53.13,387.397,55.882,385.485,59.278z"/>
			</g>
			<g>
				<path fill="none"  d="M366.898,40.691l-16.798,9.451c-3.394,1.909-6.144,6.143-6.144,9.454v19.156
					c0,3.314,2.75,4.449,6.144,2.539l16.798-9.45c3.396-1.912,6.148-6.145,6.148-9.456V43.229
					C373.047,39.918,370.295,38.779,366.898,40.691z"/>
			</g>
			<g>
				<path fill="none"  d="M320.016,40.691l16.798,9.451c3.394,1.909,6.144,6.143,6.144,9.454v19.156
					c0,3.314-2.75,4.449-6.144,2.539l-16.798-9.45c-3.396-1.912-6.148-6.145-6.148-9.456V43.229
					C313.867,39.918,316.619,38.779,320.016,40.691z"/>
			</g>
			<g>
				<path fill="none"  d="M301.428,59.278l9.451,16.798c1.91,3.394,6.143,6.144,9.455,6.144h19.156
					c3.314,0,4.449-2.75,2.539-6.144l-9.451-16.798c-1.912-3.396-6.145-6.148-9.455-6.148h-19.156
					C300.654,53.13,299.516,55.882,301.428,59.278z"/>
			</g>
			<g>
				<path fill="none"  d="M301.429,106.161l9.451-16.798c1.909-3.394,6.143-6.144,9.454-6.144h19.156
					c3.314,0,4.449,2.75,2.539,6.144l-9.45,16.798c-1.912,3.396-6.145,6.148-9.456,6.148h-19.156
					C300.655,112.31,299.517,109.558,301.429,106.161z"/>
			</g>
			<g>
				<path fill="none"  d="M320.016,124.748l16.798-9.451c3.394-1.909,6.144-6.143,6.144-9.454V86.687
					c0-3.314-2.75-4.449-6.144-2.539l-16.798,9.45c-3.396,1.912-6.148,6.145-6.148,9.456v19.156
					C313.867,125.521,316.619,126.66,320.016,124.748z"/>
			</g>
			<g>
				<path fill="none"  d="M366.898,124.748l-16.798-9.451c-3.394-1.909-6.144-6.143-6.144-9.454V86.687
					c0-3.314,2.75-4.449,6.144-2.539l16.798,9.45c3.396,1.912,6.148,6.145,6.148,9.456v19.156
					C373.047,125.521,370.295,126.66,366.898,124.748z"/>
			</g>
			<g>
				<path fill="none"  d="M385.485,106.161l-9.451-16.798c-1.909-3.394-6.143-6.144-9.454-6.144h-19.156
					c-3.314,0-4.449,2.75-2.539,6.144l9.45,16.798c1.912,3.396,6.145,6.148,9.456,6.148h19.156
					C386.259,112.31,387.397,109.558,385.485,106.161z"/>
			</g>
		</g>
		<g>
			<g>
				<path fill="none"  d="M298.573,59.278l-9.452,16.798c-1.909,3.394-6.143,6.144-9.454,6.144h-19.156
					c-3.314,0-4.449-2.75-2.539-6.144l9.45-16.798c1.912-3.396,6.145-6.148,9.456-6.148h19.157
					C299.347,53.13,300.485,55.882,298.573,59.278z"/>
			</g>
			<g>
				<path fill="none"  d="M279.986,40.691l-16.798,9.451c-3.394,1.909-6.144,6.143-6.144,9.454v19.156
					c0,3.314,2.75,4.449,6.144,2.539l16.798-9.45c3.396-1.912,6.148-6.145,6.148-9.456V43.229
					C286.134,39.918,283.382,38.779,279.986,40.691z"/>
			</g>
			<g>
				<path fill="none"  d="M233.103,40.691l16.798,9.451c3.394,1.909,6.144,6.143,6.144,9.454v19.156
					c0,3.314-2.75,4.449-6.144,2.539l-16.798-9.45c-3.396-1.912-6.148-6.145-6.148-9.456V43.229
					C226.955,39.918,229.707,38.779,233.103,40.691z"/>
			</g>
			<g>
				<path fill="none"  d="M214.515,59.278l9.451,16.798c1.91,3.394,6.143,6.144,9.455,6.144h19.156
					c3.314,0,4.449-2.75,2.539-6.144l-9.451-16.798c-1.912-3.396-6.145-6.148-9.455-6.148h-19.156
					C213.742,53.13,212.603,55.882,214.515,59.278z"/>
			</g>
			<g>
				<path fill="none"  d="M214.516,106.161l9.451-16.798c1.909-3.394,6.143-6.144,9.454-6.144h19.156
					c3.314,0,4.449,2.75,2.539,6.144l-9.45,16.798c-1.912,3.396-6.145,6.148-9.456,6.148h-19.156
					C213.743,112.31,212.604,109.558,214.516,106.161z"/>
			</g>
			<g>
				<path fill="none"  d="M233.103,124.748l16.798-9.451c3.394-1.909,6.144-6.143,6.144-9.454V86.687
					c0-3.314-2.75-4.449-6.144-2.539l-16.798,9.45c-3.396,1.912-6.148,6.145-6.148,9.456v19.156
					C226.955,125.521,229.707,126.66,233.103,124.748z"/>
			</g>
			<g>
				<path fill="none"  d="M279.986,124.748l-16.798-9.451c-3.394-1.909-6.144-6.143-6.144-9.454V86.687
					c0-3.314,2.75-4.449,6.144-2.539l16.798,9.45c3.396,1.912,6.148,6.145,6.148,9.456v19.156
					C286.134,125.521,283.382,126.66,279.986,124.748z"/>
			</g>
			<g>
				<path fill="none"  d="M298.573,106.161l-9.452-16.798c-1.909-3.394-6.143-6.144-9.454-6.144h-19.156
					c-3.314,0-4.449,2.75-2.539,6.144l9.45,16.798c1.912,3.396,6.145,6.148,9.456,6.148h19.157
					C299.347,112.31,300.485,109.558,298.573,106.161z"/>
			</g>
		</g>
		<g>
			<g>
				<path fill="none"  d="M559.31,146.19l-9.451,16.798c-1.909,3.394-6.143,6.144-9.454,6.144h-19.156
					c-3.314,0-4.449-2.75-2.539-6.144l9.45-16.798c1.912-3.396,6.145-6.148,9.456-6.148h19.156
					C560.083,140.042,561.222,142.794,559.31,146.19z"/>
			</g>
			<g>
				<path fill="none"  d="M540.723,127.604l-16.798,9.451c-3.394,1.909-6.144,6.143-6.144,9.454v19.156
					c0,3.314,2.75,4.449,6.144,2.539l16.798-9.45c3.396-1.912,6.148-6.145,6.148-9.456v-19.156
					C546.871,126.83,544.119,125.691,540.723,127.604z"/>
			</g>
			<g>
				<path fill="none"  d="M493.84,127.604l16.798,9.451c3.394,1.909,6.144,6.143,6.144,9.454v19.156
					c0,3.314-2.75,4.449-6.144,2.539l-16.798-9.45c-3.396-1.912-6.148-6.145-6.148-9.456v-19.156
					C487.691,126.83,490.443,125.691,493.84,127.604z"/>
			</g>
			<g>
				<path fill="none"  d="M475.252,146.19l9.451,16.798c1.91,3.394,6.143,6.144,9.455,6.144h19.156
					c3.314,0,4.449-2.75,2.539-6.144l-9.451-16.798c-1.912-3.396-6.145-6.148-9.455-6.148h-19.156
					C474.479,140.042,473.34,142.794,475.252,146.19z"/>
			</g>
			<g>
				<path fill="none"  d="M475.253,193.073l9.451-16.798c1.909-3.394,6.143-6.144,9.454-6.144h19.156
					c3.314,0,4.449,2.75,2.539,6.144l-9.45,16.798c-1.912,3.396-6.145,6.148-9.456,6.148h-19.156
					C474.479,199.222,473.341,196.47,475.253,193.073z"/>
			</g>
			<g>
				<path fill="none"  d="M493.84,211.66l16.798-9.451c3.394-1.909,6.144-6.143,6.144-9.454v-19.156
					c0-3.314-2.75-4.449-6.144-2.539l-16.798,9.45c-3.396,1.912-6.148,6.145-6.148,9.456v19.156
					C487.691,212.434,490.443,213.572,493.84,211.66z"/>
			</g>
			<g>
				<path fill="none"  d="M540.723,211.66l-16.798-9.451c-3.394-1.909-6.144-6.143-6.144-9.454v-19.156
					c0-3.314,2.75-4.449,6.144-2.539l16.798,9.45c3.396,1.912,6.148,6.145,6.148,9.456v19.156
					C546.871,212.434,544.119,213.572,540.723,211.66z"/>
			</g>
			<g>
				<path fill="none"  d="M559.31,193.073l-9.451-16.798c-1.909-3.394-6.143-6.144-9.454-6.144h-19.156
					c-3.314,0-4.449,2.75-2.539,6.144l9.45,16.798c1.912,3.396,6.145,6.148,9.456,6.148h19.156
					C560.083,199.222,561.222,196.47,559.31,193.073z"/>
			</g>
		</g>
		<g>
			<g>
				<path fill="none"  d="M472.397,146.19l-9.451,16.798c-1.909,3.394-6.143,6.144-9.454,6.144h-19.156
					c-3.314,0-4.449-2.75-2.539-6.144l9.45-16.798c1.912-3.396,6.145-6.148,9.456-6.148h19.156
					C473.171,140.042,474.31,142.794,472.397,146.19z"/>
			</g>
			<g>
				<path fill="none"  d="M453.811,127.604l-16.798,9.451c-3.394,1.909-6.144,6.143-6.144,9.454v19.156
					c0,3.314,2.75,4.449,6.144,2.539l16.798-9.45c3.396-1.912,6.148-6.145,6.148-9.456v-19.156
					C459.959,126.83,457.207,125.691,453.811,127.604z"/>
			</g>
			<g>
				<path fill="none"  d="M406.928,127.604l16.798,9.451c3.394,1.909,6.144,6.143,6.144,9.454v19.156
					c0,3.314-2.75,4.449-6.144,2.539l-16.798-9.45c-3.396-1.912-6.148-6.145-6.148-9.456v-19.156
					C400.779,126.83,403.531,125.691,406.928,127.604z"/>
			</g>
			<g>
				<path fill="none"  d="M388.34,146.19l9.451,16.798c1.91,3.394,6.143,6.144,9.455,6.144h19.156
					c3.314,0,4.449-2.75,2.539-6.144l-9.451-16.798c-1.912-3.396-6.145-6.148-9.455-6.148h-19.156
					C387.566,140.042,386.428,142.794,388.34,146.19z"/>
			</g>
			<g>
				<path fill="none"  d="M388.341,193.073l9.451-16.798c1.909-3.394,6.143-6.144,9.454-6.144h19.156
					c3.314,0,4.449,2.75,2.539,6.144l-9.45,16.798c-1.912,3.396-6.145,6.148-9.456,6.148h-19.156
					C387.567,199.222,386.429,196.47,388.341,193.073z"/>
			</g>
			<g>
				<path fill="none"  d="M406.928,211.66l16.798-9.451c3.394-1.909,6.144-6.143,6.144-9.454v-19.156
					c0-3.314-2.75-4.449-6.144-2.539l-16.798,9.45c-3.396,1.912-6.148,6.145-6.148,9.456v19.156
					C400.779,212.434,403.531,213.572,406.928,211.66z"/>
			</g>
			<g>
				<path fill="none"  d="M453.811,211.66l-16.798-9.451c-3.394-1.909-6.144-6.143-6.144-9.454v-19.156
					c0-3.314,2.75-4.449,6.144-2.539l16.798,9.45c3.396,1.912,6.148,6.145,6.148,9.456v19.156
					C459.959,212.434,457.207,213.572,453.811,211.66z"/>
			</g>
			<g>
				<path fill="none"  d="M472.397,193.073l-9.451-16.798c-1.909-3.394-6.143-6.144-9.454-6.144h-19.156
					c-3.314,0-4.449,2.75-2.539,6.144l9.45,16.798c1.912,3.396,6.145,6.148,9.456,6.148h19.156
					C473.171,199.222,474.31,196.47,472.397,193.073z"/>
			</g>
		</g>
		<g>
			<g>
				<path fill="none"  d="M385.485,146.19l-9.451,16.798c-1.909,3.394-6.143,6.144-9.454,6.144h-19.156
					c-3.314,0-4.449-2.75-2.539-6.144l9.45-16.798c1.912-3.396,6.145-6.148,9.456-6.148h19.156
					C386.259,140.042,387.397,142.794,385.485,146.19z"/>
			</g>
			<g>
				<path fill="none"  d="M366.898,127.604l-16.798,9.451c-3.394,1.909-6.144,6.143-6.144,9.454v19.156
					c0,3.314,2.75,4.449,6.144,2.539l16.798-9.45c3.396-1.912,6.148-6.145,6.148-9.456v-19.156
					C373.047,126.83,370.295,125.691,366.898,127.604z"/>
			</g>
			<g>
				<path fill="none"  d="M320.016,127.604l16.798,9.451c3.394,1.909,6.144,6.143,6.144,9.454v19.156
					c0,3.314-2.75,4.449-6.144,2.539l-16.798-9.45c-3.396-1.912-6.148-6.145-6.148-9.456v-19.156
					C313.867,126.83,316.619,125.691,320.016,127.604z"/>
			</g>
			<g>
				<path fill="none"  d="M301.428,146.19l9.451,16.798c1.91,3.394,6.143,6.144,9.455,6.144h19.156
					c3.314,0,4.449-2.75,2.539-6.144l-9.451-16.798c-1.912-3.396-6.145-6.148-9.455-6.148h-19.156
					C300.654,140.042,299.516,142.794,301.428,146.19z"/>
			</g>
			<g>
				<path fill="none"  d="M301.429,193.073l9.451-16.798c1.909-3.394,6.143-6.144,9.454-6.144h19.156
					c3.314,0,4.449,2.75,2.539,6.144l-9.45,16.798c-1.912,3.396-6.145,6.148-9.456,6.148h-19.156
					C300.655,199.222,299.517,196.47,301.429,193.073z"/>
			</g>
			<g>
				<path fill="none"  d="M320.016,211.66l16.798-9.451c3.394-1.909,6.144-6.143,6.144-9.454v-19.156
					c0-3.314-2.75-4.449-6.144-2.539l-16.798,9.45c-3.396,1.912-6.148,6.145-6.148,9.456v19.156
					C313.867,212.434,316.619,213.572,320.016,211.66z"/>
			</g>
			<g>
				<path fill="none"  d="M366.898,211.66l-16.798-9.451c-3.394-1.909-6.144-6.143-6.144-9.454v-19.156
					c0-3.314,2.75-4.449,6.144-2.539l16.798,9.45c3.396,1.912,6.148,6.145,6.148,9.456v19.156
					C373.047,212.434,370.295,213.572,366.898,211.66z"/>
			</g>
			<g>
				<path fill="none"  d="M385.485,193.073l-9.451-16.798c-1.909-3.394-6.143-6.144-9.454-6.144h-19.156
					c-3.314,0-4.449,2.75-2.539,6.144l9.45,16.798c1.912,3.396,6.145,6.148,9.456,6.148h19.156
					C386.259,199.222,387.397,196.47,385.485,193.073z"/>
			</g>
		</g>
		<g>
			<g>
				<path fill="none"  d="M298.573,146.19l-9.452,16.798c-1.909,3.394-6.143,6.144-9.454,6.144h-19.156
					c-3.314,0-4.449-2.75-2.539-6.144l9.45-16.798c1.912-3.396,6.145-6.148,9.456-6.148h19.157
					C299.347,140.042,300.485,142.794,298.573,146.19z"/>
			</g>
			<g>
				<path fill="none"  d="M279.986,127.604l-16.798,9.451c-3.394,1.909-6.144,6.143-6.144,9.454v19.156
					c0,3.314,2.75,4.449,6.144,2.539l16.798-9.45c3.396-1.912,6.148-6.145,6.148-9.456v-19.156
					C286.134,126.83,283.382,125.691,279.986,127.604z"/>
			</g>
			<g>
				<path fill="none"  d="M233.103,127.604l16.798,9.451c3.394,1.909,6.144,6.143,6.144,9.454v19.156
					c0,3.314-2.75,4.449-6.144,2.539l-16.798-9.45c-3.396-1.912-6.148-6.145-6.148-9.456v-19.156
					C226.955,126.83,229.707,125.691,233.103,127.604z"/>
			</g>
			<g>
				<path fill="none"  d="M214.515,146.19l9.451,16.798c1.91,3.394,6.143,6.144,9.455,6.144h19.156
					c3.314,0,4.449-2.75,2.539-6.144l-9.451-16.798c-1.912-3.396-6.145-6.148-9.455-6.148h-19.156
					C213.742,140.042,212.603,142.794,214.515,146.19z"/>
			</g>
			<g>
				<path fill="none"  d="M214.516,193.073l9.451-16.798c1.909-3.394,6.143-6.144,9.454-6.144h19.156
					c3.314,0,4.449,2.75,2.539,6.144l-9.45,16.798c-1.912,3.396-6.145,6.148-9.456,6.148h-19.156
					C213.743,199.222,212.604,196.47,214.516,193.073z"/>
			</g>
			<g>
				<path fill="none"  d="M233.103,211.66l16.798-9.451c3.394-1.909,6.144-6.143,6.144-9.454v-19.156
					c0-3.314-2.75-4.449-6.144-2.539l-16.798,9.45c-3.396,1.912-6.148,6.145-6.148,9.456v19.156
					C226.955,212.434,229.707,213.572,233.103,211.66z"/>
			</g>
			<g>
				<path fill="none"  d="M279.986,211.66l-16.798-9.451c-3.394-1.909-6.144-6.143-6.144-9.454v-19.156
					c0-3.314,2.75-4.449,6.144-2.539l16.798,9.45c3.396,1.912,6.148,6.145,6.148,9.456v19.156
					C286.134,212.434,283.382,213.572,279.986,211.66z"/>
			</g>
			<g>
				<path fill="none"  d="M298.573,193.073l-9.452-16.798c-1.909-3.394-6.143-6.144-9.454-6.144h-19.156
					c-3.314,0-4.449,2.75-2.539,6.144l9.45,16.798c1.912,3.396,6.145,6.148,9.456,6.148h19.157
					C299.347,199.222,300.485,196.47,298.573,193.073z"/>
			</g>
		</g>
		<g>
			<g>
				<path fill="none"  d="M559.31,233.103l-9.451,16.798c-1.909,3.394-6.143,6.144-9.454,6.144h-19.156
					c-3.314,0-4.449-2.75-2.539-6.144l9.45-16.798c1.912-3.396,6.145-6.148,9.456-6.148h19.156
					C560.083,226.954,561.222,229.706,559.31,233.103z"/>
			</g>
			<g>
				<path fill="none"  d="M540.723,214.516l-16.798,9.451c-3.394,1.909-6.144,6.143-6.144,9.454v19.156
					c0,3.314,2.75,4.449,6.144,2.539l16.798-9.45c3.396-1.912,6.148-6.145,6.148-9.456v-19.156
					C546.871,213.742,544.119,212.604,540.723,214.516z"/>
			</g>
			<g>
				<path fill="none"  d="M493.84,214.516l16.798,9.451c3.394,1.909,6.144,6.143,6.144,9.454v19.156
					c0,3.314-2.75,4.449-6.144,2.539l-16.798-9.45c-3.396-1.912-6.148-6.145-6.148-9.456v-19.156
					C487.691,213.742,490.443,212.604,493.84,214.516z"/>
			</g>
			<g>
				<path fill="none"  d="M475.252,233.103l9.451,16.798c1.91,3.394,6.143,6.144,9.455,6.144h19.156
					c3.314,0,4.449-2.75,2.539-6.144l-9.451-16.798c-1.912-3.396-6.145-6.148-9.455-6.148h-19.156
					C474.479,226.954,473.34,229.706,475.252,233.103z"/>
			</g>
			<g>
				<path fill="none"  d="M475.253,279.985l9.451-16.798c1.909-3.394,6.143-6.144,9.454-6.144h19.156
					c3.314,0,4.449,2.75,2.539,6.144l-9.45,16.798c-1.912,3.396-6.145,6.148-9.456,6.148h-19.156
					C474.479,286.134,473.341,283.382,475.253,279.985z"/>
			</g>
			<g>
				<path fill="none"  d="M493.84,298.572l16.798-9.451c3.394-1.909,6.144-6.143,6.144-9.454v-19.156
					c0-3.314-2.75-4.449-6.144-2.539l-16.798,9.45c-3.396,1.912-6.148,6.145-6.148,9.456v19.156
					C487.691,299.346,490.443,300.484,493.84,298.572z"/>
			</g>
			<g>
				<path fill="none"  d="M540.723,298.572l-16.798-9.451c-3.394-1.909-6.144-6.143-6.144-9.454v-19.156
					c0-3.314,2.75-4.449,6.144-2.539l16.798,9.45c3.396,1.912,6.148,6.145,6.148,9.456v19.156
					C546.871,299.346,544.119,300.484,540.723,298.572z"/>
			</g>
			<g>
				<path fill="none"  d="M559.31,279.985l-9.451-16.798c-1.909-3.394-6.143-6.144-9.454-6.144h-19.156
					c-3.314,0-4.449,2.75-2.539,6.144l9.45,16.798c1.912,3.396,6.145,6.148,9.456,6.148h19.156
					C560.083,286.134,561.222,283.382,559.31,279.985z"/>
			</g>
		</g>
		<g>
			<g>
				<path fill="none"  d="M472.397,233.103l-9.451,16.798c-1.909,3.394-6.143,6.144-9.454,6.144h-19.156
					c-3.314,0-4.449-2.75-2.539-6.144l9.45-16.798c1.912-3.396,6.145-6.148,9.456-6.148h19.156
					C473.171,226.954,474.31,229.706,472.397,233.103z"/>
			</g>
			<g>
				<path fill="none"  d="M453.811,214.516l-16.798,9.451c-3.394,1.909-6.144,6.143-6.144,9.454v19.156
					c0,3.314,2.75,4.449,6.144,2.539l16.798-9.45c3.396-1.912,6.148-6.145,6.148-9.456v-19.156
					C459.959,213.742,457.207,212.604,453.811,214.516z"/>
			</g>
			<g>
				<path fill="none"  d="M406.928,214.516l16.798,9.451c3.394,1.909,6.144,6.143,6.144,9.454v19.156
					c0,3.314-2.75,4.449-6.144,2.539l-16.798-9.45c-3.396-1.912-6.148-6.145-6.148-9.456v-19.156
					C400.779,213.742,403.531,212.604,406.928,214.516z"/>
			</g>
			<g>
				<path fill="none"  d="M388.34,233.103l9.451,16.798c1.91,3.394,6.143,6.144,9.455,6.144h19.156
					c3.314,0,4.449-2.75,2.539-6.144l-9.451-16.798c-1.912-3.396-6.145-6.148-9.455-6.148h-19.156
					C387.566,226.954,386.428,229.706,388.34,233.103z"/>
			</g>
			<g>
				<path fill="none"  d="M388.341,279.985l9.451-16.798c1.909-3.394,6.143-6.144,9.454-6.144h19.156
					c3.314,0,4.449,2.75,2.539,6.144l-9.45,16.798c-1.912,3.396-6.145,6.148-9.456,6.148h-19.156
					C387.567,286.134,386.429,283.382,388.341,279.985z"/>
			</g>
			<g>
				<path fill="none"  d="M406.928,298.572l16.798-9.451c3.394-1.909,6.144-6.143,6.144-9.454v-19.156
					c0-3.314-2.75-4.449-6.144-2.539l-16.798,9.45c-3.396,1.912-6.148,6.145-6.148,9.456v19.156
					C400.779,299.346,403.531,300.484,406.928,298.572z"/>
			</g>
			<g>
				<path fill="none"  d="M453.811,298.572l-16.798-9.451c-3.394-1.909-6.144-6.143-6.144-9.454v-19.156
					c0-3.314,2.75-4.449,6.144-2.539l16.798,9.45c3.396,1.912,6.148,6.145,6.148,9.456v19.156
					C459.959,299.346,457.207,300.484,453.811,298.572z"/>
			</g>
			<g>
				<path fill="none"  d="M472.397,279.985l-9.451-16.798c-1.909-3.394-6.143-6.144-9.454-6.144h-19.156
					c-3.314,0-4.449,2.75-2.539,6.144l9.45,16.798c1.912,3.396,6.145,6.148,9.456,6.148h19.156
					C473.171,286.134,474.31,283.382,472.397,279.985z"/>
			</g>
		</g>
		<g>
			<g>
				<path fill="none"  d="M385.485,233.103l-9.451,16.798c-1.909,3.394-6.143,6.144-9.454,6.144h-19.156
					c-3.314,0-4.449-2.75-2.539-6.144l9.45-16.798c1.912-3.396,6.145-6.148,9.456-6.148h19.156
					C386.259,226.954,387.397,229.706,385.485,233.103z"/>
			</g>
			<g>
				<path fill="none"  d="M366.898,214.516l-16.798,9.451c-3.394,1.909-6.144,6.143-6.144,9.454v19.156
					c0,3.314,2.75,4.449,6.144,2.539l16.798-9.45c3.396-1.912,6.148-6.145,6.148-9.456v-19.156
					C373.047,213.742,370.295,212.604,366.898,214.516z"/>
			</g>
			<g>
				<path fill="none"  d="M320.016,214.516l16.798,9.451c3.394,1.909,6.144,6.143,6.144,9.454v19.156
					c0,3.314-2.75,4.449-6.144,2.539l-16.798-9.45c-3.396-1.912-6.148-6.145-6.148-9.456v-19.156
					C313.867,213.742,316.619,212.604,320.016,214.516z"/>
			</g>
			<g>
				<path fill="none"  d="M301.428,233.103l9.451,16.798c1.91,3.394,6.143,6.144,9.455,6.144h19.156
					c3.314,0,4.449-2.75,2.539-6.144l-9.451-16.798c-1.912-3.396-6.145-6.148-9.455-6.148h-19.156
					C300.654,226.954,299.516,229.706,301.428,233.103z"/>
			</g>
			<g>
				<path fill="none"  d="M301.429,279.985l9.451-16.798c1.909-3.394,6.143-6.144,9.454-6.144h19.156
					c3.314,0,4.449,2.75,2.539,6.144l-9.45,16.798c-1.912,3.396-6.145,6.148-9.456,6.148h-19.156
					C300.655,286.134,299.517,283.382,301.429,279.985z"/>
			</g>
			<g>
				<path fill="none"  d="M320.016,298.572l16.798-9.451c3.394-1.909,6.144-6.143,6.144-9.454v-19.156
					c0-3.314-2.75-4.449-6.144-2.539l-16.798,9.45c-3.396,1.912-6.148,6.145-6.148,9.456v19.156
					C313.867,299.346,316.619,300.484,320.016,298.572z"/>
			</g>
			<g>
				<path fill="none"  d="M366.898,298.572l-16.798-9.451c-3.394-1.909-6.144-6.143-6.144-9.454v-19.156
					c0-3.314,2.75-4.449,6.144-2.539l16.798,9.45c3.396,1.912,6.148,6.145,6.148,9.456v19.156
					C373.047,299.346,370.295,300.484,366.898,298.572z"/>
			</g>
			<g>
				<path fill="none"  d="M385.485,279.985l-9.451-16.798c-1.909-3.394-6.143-6.144-9.454-6.144h-19.156
					c-3.314,0-4.449,2.75-2.539,6.144l9.45,16.798c1.912,3.396,6.145,6.148,9.456,6.148h19.156
					C386.259,286.134,387.397,283.382,385.485,279.985z"/>
			</g>
		</g>
		<g>
			<g>
				<path fill="none"  d="M298.573,233.103l-9.452,16.798c-1.909,3.394-6.143,6.144-9.454,6.144h-19.156
					c-3.314,0-4.449-2.75-2.539-6.144l9.45-16.798c1.912-3.396,6.145-6.148,9.456-6.148h19.157
					C299.347,226.954,300.485,229.706,298.573,233.103z"/>
			</g>
			<g>
				<path fill="none"  d="M279.986,214.516l-16.798,9.451c-3.394,1.909-6.144,6.143-6.144,9.454v19.156
					c0,3.314,2.75,4.449,6.144,2.539l16.798-9.45c3.396-1.912,6.148-6.145,6.148-9.456v-19.156
					C286.134,213.742,283.382,212.604,279.986,214.516z"/>
			</g>
			<g>
				<path fill="none"  d="M233.103,214.516l16.798,9.451c3.394,1.909,6.144,6.143,6.144,9.454v19.156
					c0,3.314-2.75,4.449-6.144,2.539l-16.798-9.45c-3.396-1.912-6.148-6.145-6.148-9.456v-19.156
					C226.955,213.742,229.707,212.604,233.103,214.516z"/>
			</g>
			<g>
				<path fill="none"  d="M214.515,233.103l9.451,16.798c1.91,3.394,6.143,6.144,9.455,6.144h19.156
					c3.314,0,4.449-2.75,2.539-6.144l-9.451-16.798c-1.912-3.396-6.145-6.148-9.455-6.148h-19.156
					C213.742,226.954,212.603,229.706,214.515,233.103z"/>
			</g>
			<g>
				<path fill="none"  d="M214.516,279.985l9.451-16.798c1.909-3.394,6.143-6.144,9.454-6.144h19.156
					c3.314,0,4.449,2.75,2.539,6.144l-9.45,16.798c-1.912,3.396-6.145,6.148-9.456,6.148h-19.156
					C213.743,286.134,212.604,283.382,214.516,279.985z"/>
			</g>
			<g>
				<path fill="none"  d="M233.103,298.572l16.798-9.451c3.394-1.909,6.144-6.143,6.144-9.454v-19.156
					c0-3.314-2.75-4.449-6.144-2.539l-16.798,9.45c-3.396,1.912-6.148,6.145-6.148,9.456v19.156
					C226.955,299.346,229.707,300.484,233.103,298.572z"/>
			</g>
			<g>
				<path fill="none"  d="M279.986,298.572l-16.798-9.451c-3.394-1.909-6.144-6.143-6.144-9.454v-19.156
					c0-3.314,2.75-4.449,6.144-2.539l16.798,9.45c3.396,1.912,6.148,6.145,6.148,9.456v19.156
					C286.134,299.346,283.382,300.484,279.986,298.572z"/>
			</g>
			<g>
				<path fill="none"  d="M298.573,279.985l-9.452-16.798c-1.909-3.394-6.143-6.144-9.454-6.144h-19.156
					c-3.314,0-4.449,2.75-2.539,6.144l9.45,16.798c1.912,3.396,6.145,6.148,9.456,6.148h19.157
					C299.347,286.134,300.485,283.382,298.573,279.985z"/>
			</g>
		</g>
		<g>
			<g>
				<path fill="none"  d="M559.31,320.015l-9.451,16.798c-1.909,3.394-6.143,6.144-9.454,6.144h-19.156
					c-3.314,0-4.449-2.75-2.539-6.144l9.45-16.798c1.912-3.396,6.145-6.148,9.456-6.148h19.156
					C560.083,313.866,561.222,316.618,559.31,320.015z"/>
			</g>
			<g>
				<path fill="none"  d="M540.723,301.428l-16.798,9.451c-3.394,1.909-6.144,6.143-6.144,9.454v19.156
					c0,3.314,2.75,4.449,6.144,2.539l16.798-9.45c3.396-1.912,6.148-6.145,6.148-9.456v-19.156
					C546.871,300.654,544.119,299.516,540.723,301.428z"/>
			</g>
			<g>
				<path fill="none"  d="M493.84,301.428l16.798,9.451c3.394,1.909,6.144,6.143,6.144,9.454v19.156
					c0,3.314-2.75,4.449-6.144,2.539l-16.798-9.45c-3.396-1.912-6.148-6.145-6.148-9.456v-19.156
					C487.691,300.654,490.443,299.516,493.84,301.428z"/>
			</g>
			<g>
				<path fill="none"  d="M475.252,320.015l9.451,16.798c1.91,3.394,6.143,6.144,9.455,6.144h19.156
					c3.314,0,4.449-2.75,2.539-6.144l-9.451-16.798c-1.912-3.396-6.145-6.148-9.455-6.148h-19.156
					C474.479,313.866,473.34,316.618,475.252,320.015z"/>
			</g>
			<g>
				<path fill="none"  d="M475.253,366.897l9.451-16.798c1.909-3.394,6.143-6.144,9.454-6.144h19.156
					c3.314,0,4.449,2.75,2.539,6.144l-9.45,16.798c-1.912,3.396-6.145,6.148-9.456,6.148h-19.156
					C474.479,373.046,473.341,370.294,475.253,366.897z"/>
			</g>
			<g>
				<path fill="none"  d="M493.84,385.484l16.798-9.451c3.394-1.909,6.144-6.143,6.144-9.454v-19.156
					c0-3.314-2.75-4.449-6.144-2.539l-16.798,9.45c-3.396,1.912-6.148,6.145-6.148,9.456v19.156
					C487.691,386.258,490.443,387.396,493.84,385.484z"/>
			</g>
			<g>
				<path fill="none"  d="M540.723,385.484l-16.798-9.451c-3.394-1.909-6.144-6.143-6.144-9.454v-19.156
					c0-3.314,2.75-4.449,6.144-2.539l16.798,9.45c3.396,1.912,6.148,6.145,6.148,9.456v19.156
					C546.871,386.258,544.119,387.396,540.723,385.484z"/>
			</g>
			<g>
				<path fill="none"  d="M559.31,366.897l-9.451-16.798c-1.909-3.394-6.143-6.144-9.454-6.144h-19.156
					c-3.314,0-4.449,2.75-2.539,6.144l9.45,16.798c1.912,3.396,6.145,6.148,9.456,6.148h19.156
					C560.083,373.046,561.222,370.294,559.31,366.897z"/>
			</g>
		</g>
		<g>
			<g>
				<path fill="none"  d="M472.397,320.015l-9.451,16.798c-1.909,3.394-6.143,6.144-9.454,6.144h-19.156
					c-3.314,0-4.449-2.75-2.539-6.144l9.45-16.798c1.912-3.396,6.145-6.148,9.456-6.148h19.156
					C473.171,313.866,474.31,316.618,472.397,320.015z"/>
			</g>
			<g>
				<path fill="none"  d="M453.811,301.428l-16.798,9.451c-3.394,1.909-6.144,6.143-6.144,9.454v19.156
					c0,3.314,2.75,4.449,6.144,2.539l16.798-9.45c3.396-1.912,6.148-6.145,6.148-9.456v-19.156
					C459.959,300.654,457.207,299.516,453.811,301.428z"/>
			</g>
			<g>
				<path fill="none"  d="M406.928,301.428l16.798,9.451c3.394,1.909,6.144,6.143,6.144,9.454v19.156
					c0,3.314-2.75,4.449-6.144,2.539l-16.798-9.45c-3.396-1.912-6.148-6.145-6.148-9.456v-19.156
					C400.779,300.654,403.531,299.516,406.928,301.428z"/>
			</g>
			<g>
				<path fill="none"  d="M388.34,320.015l9.451,16.798c1.91,3.394,6.143,6.144,9.455,6.144h19.156
					c3.314,0,4.449-2.75,2.539-6.144l-9.451-16.798c-1.912-3.396-6.145-6.148-9.455-6.148h-19.156
					C387.566,313.866,386.428,316.618,388.34,320.015z"/>
			</g>
			<g>
				<path fill="none"  d="M388.341,366.897l9.451-16.798c1.909-3.394,6.143-6.144,9.454-6.144h19.156
					c3.314,0,4.449,2.75,2.539,6.144l-9.45,16.798c-1.912,3.396-6.145,6.148-9.456,6.148h-19.156
					C387.567,373.046,386.429,370.294,388.341,366.897z"/>
			</g>
			<g>
				<path fill="none"  d="M406.928,385.484l16.798-9.451c3.394-1.909,6.144-6.143,6.144-9.454v-19.156
					c0-3.314-2.75-4.449-6.144-2.539l-16.798,9.45c-3.396,1.912-6.148,6.145-6.148,9.456v19.156
					C400.779,386.258,403.531,387.396,406.928,385.484z"/>
			</g>
			<g>
				<path fill="none"  d="M453.811,385.484l-16.798-9.451c-3.394-1.909-6.144-6.143-6.144-9.454v-19.156
					c0-3.314,2.75-4.449,6.144-2.539l16.798,9.45c3.396,1.912,6.148,6.145,6.148,9.456v19.156
					C459.959,386.258,457.207,387.396,453.811,385.484z"/>
			</g>
			<g>
				<path fill="none"  d="M472.397,366.897l-9.451-16.798c-1.909-3.394-6.143-6.144-9.454-6.144h-19.156
					c-3.314,0-4.449,2.75-2.539,6.144l9.45,16.798c1.912,3.396,6.145,6.148,9.456,6.148h19.156
					C473.171,373.046,474.31,370.294,472.397,366.897z"/>
			</g>
		</g>
		<g>
			<g>
				<path fill="none"  d="M385.485,320.015l-9.451,16.798c-1.909,3.394-6.143,6.144-9.454,6.144h-19.156
					c-3.314,0-4.449-2.75-2.539-6.144l9.45-16.798c1.912-3.396,6.145-6.148,9.456-6.148h19.156
					C386.259,313.866,387.397,316.618,385.485,320.015z"/>
			</g>
			<g>
				<path fill="none"  d="M366.898,301.428l-16.798,9.451c-3.394,1.909-6.144,6.143-6.144,9.454v19.156
					c0,3.314,2.75,4.449,6.144,2.539l16.798-9.45c3.396-1.912,6.148-6.145,6.148-9.456v-19.156
					C373.047,300.654,370.295,299.516,366.898,301.428z"/>
			</g>
			<g>
				<path fill="none"  d="M320.016,301.428l16.798,9.451c3.394,1.909,6.144,6.143,6.144,9.454v19.156
					c0,3.314-2.75,4.449-6.144,2.539l-16.798-9.45c-3.396-1.912-6.148-6.145-6.148-9.456v-19.156
					C313.867,300.654,316.619,299.516,320.016,301.428z"/>
			</g>
			<g>
				<path fill="none"  d="M301.428,320.015l9.451,16.798c1.91,3.394,6.143,6.144,9.455,6.144h19.156
					c3.314,0,4.449-2.75,2.539-6.144l-9.451-16.798c-1.912-3.396-6.145-6.148-9.455-6.148h-19.156
					C300.654,313.866,299.516,316.618,301.428,320.015z"/>
			</g>
			<g>
				<path fill="none"  d="M301.429,366.897l9.451-16.798c1.909-3.394,6.143-6.144,9.454-6.144h19.156
					c3.314,0,4.449,2.75,2.539,6.144l-9.45,16.798c-1.912,3.396-6.145,6.148-9.456,6.148h-19.156
					C300.655,373.046,299.517,370.294,301.429,366.897z"/>
			</g>
			<g>
				<path fill="none"  d="M320.016,385.484l16.798-9.451c3.394-1.909,6.144-6.143,6.144-9.454v-19.156
					c0-3.314-2.75-4.449-6.144-2.539l-16.798,9.45c-3.396,1.912-6.148,6.145-6.148,9.456v19.156
					C313.867,386.258,316.619,387.396,320.016,385.484z"/>
			</g>
			<g>
				<path fill="none"  d="M366.898,385.484l-16.798-9.451c-3.394-1.909-6.144-6.143-6.144-9.454v-19.156
					c0-3.314,2.75-4.449,6.144-2.539l16.798,9.45c3.396,1.912,6.148,6.145,6.148,9.456v19.156
					C373.047,386.258,370.295,387.396,366.898,385.484z"/>
			</g>
			<g>
				<path fill="none"  d="M385.485,366.897l-9.451-16.798c-1.909-3.394-6.143-6.144-9.454-6.144h-19.156
					c-3.314,0-4.449,2.75-2.539,6.144l9.45,16.798c1.912,3.396,6.145,6.148,9.456,6.148h19.156
					C386.259,373.046,387.397,370.294,385.485,366.897z"/>
			</g>
		</g>
		<g>
			<g>
				<path fill="none"  d="M298.573,320.015l-9.452,16.798c-1.909,3.394-6.143,6.144-9.454,6.144h-19.156
					c-3.314,0-4.449-2.75-2.539-6.144l9.45-16.798c1.912-3.396,6.145-6.148,9.456-6.148h19.157
					C299.347,313.866,300.485,316.618,298.573,320.015z"/>
			</g>
			<g>
				<path fill="none"  d="M279.986,301.428l-16.798,9.451c-3.394,1.909-6.144,6.143-6.144,9.454v19.156
					c0,3.314,2.75,4.449,6.144,2.539l16.798-9.45c3.396-1.912,6.148-6.145,6.148-9.456v-19.156
					C286.134,300.654,283.382,299.516,279.986,301.428z"/>
			</g>
			<g>
				<path fill="none"  d="M233.103,301.428l16.798,9.451c3.394,1.909,6.144,6.143,6.144,9.454v19.156
					c0,3.314-2.75,4.449-6.144,2.539l-16.798-9.45c-3.396-1.912-6.148-6.145-6.148-9.456v-19.156
					C226.955,300.654,229.707,299.516,233.103,301.428z"/>
			</g>
			<g>
				<path fill="none"  d="M214.515,320.015l9.451,16.798c1.91,3.394,6.143,6.144,9.455,6.144h19.156
					c3.314,0,4.449-2.75,2.539-6.144l-9.451-16.798c-1.912-3.396-6.145-6.148-9.455-6.148h-19.156
					C213.742,313.866,212.603,316.618,214.515,320.015z"/>
			</g>
			<g>
				<path fill="none"  d="M214.516,366.897l9.451-16.798c1.909-3.394,6.143-6.144,9.454-6.144h19.156
					c3.314,0,4.449,2.75,2.539,6.144l-9.45,16.798c-1.912,3.396-6.145,6.148-9.456,6.148h-19.156
					C213.743,373.046,212.604,370.294,214.516,366.897z"/>
			</g>
			<g>
				<path fill="none"  d="M233.103,385.484l16.798-9.451c3.394-1.909,6.144-6.143,6.144-9.454v-19.156
					c0-3.314-2.75-4.449-6.144-2.539l-16.798,9.45c-3.396,1.912-6.148,6.145-6.148,9.456v19.156
					C226.955,386.258,229.707,387.396,233.103,385.484z"/>
			</g>
			<g>
				<path fill="none"  d="M279.986,385.484l-16.798-9.451c-3.394-1.909-6.144-6.143-6.144-9.454v-19.156
					c0-3.314,2.75-4.449,6.144-2.539l16.798,9.45c3.396,1.912,6.148,6.145,6.148,9.456v19.156
					C286.134,386.258,283.382,387.396,279.986,385.484z"/>
			</g>
			<g>
				<path fill="none"  d="M298.573,366.897l-9.452-16.798c-1.909-3.394-6.143-6.144-9.454-6.144h-19.156
					c-3.314,0-4.449,2.75-2.539,6.144l9.45,16.798c1.912,3.396,6.145,6.148,9.456,6.148h19.157
					C299.347,373.046,300.485,370.294,298.573,366.897z"/>
			</g>
		</g>
		<g>
			<g>
				<path fill="none"  d="M559.31,406.927l-9.451,16.798c-1.909,3.394-6.143,6.144-9.454,6.144h-19.156
					c-3.314,0-4.449-2.75-2.539-6.144l9.45-16.798c1.912-3.396,6.145-6.148,9.456-6.148h19.156
					C560.083,400.778,561.222,403.53,559.31,406.927z"/>
			</g>
			<g>
				<path fill="none"  d="M540.723,388.34l-16.798,9.451c-3.394,1.909-6.144,6.143-6.144,9.454v19.156
					c0,3.314,2.75,4.449,6.144,2.539l16.798-9.45c3.396-1.912,6.148-6.145,6.148-9.456v-19.156
					C546.871,387.566,544.119,386.428,540.723,388.34z"/>
			</g>
			<g>
				<path fill="none"  d="M493.84,388.34l16.798,9.451c3.394,1.909,6.144,6.143,6.144,9.454v19.156
					c0,3.314-2.75,4.449-6.144,2.539l-16.798-9.45c-3.396-1.912-6.148-6.145-6.148-9.456v-19.156
					C487.691,387.566,490.443,386.428,493.84,388.34z"/>
			</g>
			<g>
				<path fill="none"  d="M475.252,406.927l9.451,16.798c1.91,3.394,6.143,6.144,9.455,6.144h19.156
					c3.314,0,4.449-2.75,2.539-6.144l-9.451-16.798c-1.912-3.396-6.145-6.148-9.455-6.148h-19.156
					C474.479,400.778,473.34,403.53,475.252,406.927z"/>
			</g>
			<g>
				<path fill="none"  d="M475.253,453.81l9.451-16.798c1.909-3.394,6.143-6.144,9.454-6.144h19.156
					c3.314,0,4.449,2.75,2.539,6.144l-9.45,16.798c-1.912,3.396-6.145,6.148-9.456,6.148h-19.156
					C474.479,459.958,473.341,457.206,475.253,453.81z"/>
			</g>
			<g>
				<path fill="none"  d="M493.84,472.396l16.798-9.451c3.394-1.909,6.144-6.143,6.144-9.454v-19.156
					c0-3.314-2.75-4.449-6.144-2.539l-16.798,9.45c-3.396,1.912-6.148,6.145-6.148,9.456v19.156
					C487.691,473.17,490.443,474.309,493.84,472.396z"/>
			</g>
			<g>
				<path fill="none"  d="M540.723,472.396l-16.798-9.451c-3.394-1.909-6.144-6.143-6.144-9.454v-19.156
					c0-3.314,2.75-4.449,6.144-2.539l16.798,9.45c3.396,1.912,6.148,6.145,6.148,9.456v19.156
					C546.871,473.17,544.119,474.309,540.723,472.396z"/>
			</g>
			<g>
				<path fill="none"  d="M559.31,453.81l-9.451-16.798c-1.909-3.394-6.143-6.144-9.454-6.144h-19.156
					c-3.314,0-4.449,2.75-2.539,6.144l9.45,16.798c1.912,3.396,6.145,6.148,9.456,6.148h19.156
					C560.083,459.958,561.222,457.206,559.31,453.81z"/>
			</g>
		</g>
		<g>
			<g>
				<path fill="none"  d="M472.397,406.927l-9.451,16.798c-1.909,3.394-6.143,6.144-9.454,6.144h-19.156
					c-3.314,0-4.449-2.75-2.539-6.144l9.45-16.798c1.912-3.396,6.145-6.148,9.456-6.148h19.156
					C473.171,400.778,474.31,403.53,472.397,406.927z"/>
			</g>
			<g>
				<path fill="none"  d="M453.811,388.34l-16.798,9.451c-3.394,1.909-6.144,6.143-6.144,9.454v19.156
					c0,3.314,2.75,4.449,6.144,2.539l16.798-9.45c3.396-1.912,6.148-6.145,6.148-9.456v-19.156
					C459.959,387.566,457.207,386.428,453.811,388.34z"/>
			</g>
			<g>
				<path fill="none"  d="M406.928,388.34l16.798,9.451c3.394,1.909,6.144,6.143,6.144,9.454v19.156
					c0,3.314-2.75,4.449-6.144,2.539l-16.798-9.45c-3.396-1.912-6.148-6.145-6.148-9.456v-19.156
					C400.779,387.566,403.531,386.428,406.928,388.34z"/>
			</g>
			<g>
				<path fill="none"  d="M388.34,406.927l9.451,16.798c1.91,3.394,6.143,6.144,9.455,6.144h19.156
					c3.314,0,4.449-2.75,2.539-6.144l-9.451-16.798c-1.912-3.396-6.145-6.148-9.455-6.148h-19.156
					C387.566,400.778,386.428,403.53,388.34,406.927z"/>
			</g>
			<g>
				<path fill="none"  d="M388.341,453.81l9.451-16.798c1.909-3.394,6.143-6.144,9.454-6.144h19.156
					c3.314,0,4.449,2.75,2.539,6.144l-9.45,16.798c-1.912,3.396-6.145,6.148-9.456,6.148h-19.156
					C387.567,459.958,386.429,457.206,388.341,453.81z"/>
			</g>
			<g>
				<path fill="none"  d="M406.928,472.396l16.798-9.451c3.394-1.909,6.144-6.143,6.144-9.454v-19.156
					c0-3.314-2.75-4.449-6.144-2.539l-16.798,9.45c-3.396,1.912-6.148,6.145-6.148,9.456v19.156
					C400.779,473.17,403.531,474.309,406.928,472.396z"/>
			</g>
			<g>
				<path fill="none"  d="M453.811,472.396l-16.798-9.451c-3.394-1.909-6.144-6.143-6.144-9.454v-19.156
					c0-3.314,2.75-4.449,6.144-2.539l16.798,9.45c3.396,1.912,6.148,6.145,6.148,9.456v19.156
					C459.959,473.17,457.207,474.309,453.811,472.396z"/>
			</g>
			<g>
				<path fill="none"  d="M472.397,453.81l-9.451-16.798c-1.909-3.394-6.143-6.144-9.454-6.144h-19.156
					c-3.314,0-4.449,2.75-2.539,6.144l9.45,16.798c1.912,3.396,6.145,6.148,9.456,6.148h19.156
					C473.171,459.958,474.31,457.206,472.397,453.81z"/>
			</g>
		</g>
		<g>
			<g>
				<path fill="none"  d="M385.485,406.927l-9.451,16.798c-1.909,3.394-6.143,6.144-9.454,6.144h-19.156
					c-3.314,0-4.449-2.75-2.539-6.144l9.45-16.798c1.912-3.396,6.145-6.148,9.456-6.148h19.156
					C386.259,400.778,387.397,403.53,385.485,406.927z"/>
			</g>
			<g>
				<path fill="none"  d="M366.898,388.34l-16.798,9.451c-3.394,1.909-6.144,6.143-6.144,9.454v19.156
					c0,3.314,2.75,4.449,6.144,2.539l16.798-9.45c3.396-1.912,6.148-6.145,6.148-9.456v-19.156
					C373.047,387.566,370.295,386.428,366.898,388.34z"/>
			</g>
			<g>
				<path fill="none"  d="M320.016,388.34l16.798,9.451c3.394,1.909,6.144,6.143,6.144,9.454v19.156
					c0,3.314-2.75,4.449-6.144,2.539l-16.798-9.45c-3.396-1.912-6.148-6.145-6.148-9.456v-19.156
					C313.867,387.566,316.619,386.428,320.016,388.34z"/>
			</g>
			<g>
				<path fill="none"  d="M301.428,406.927l9.451,16.798c1.91,3.394,6.143,6.144,9.455,6.144h19.156
					c3.314,0,4.449-2.75,2.539-6.144l-9.451-16.798c-1.912-3.396-6.145-6.148-9.455-6.148h-19.156
					C300.654,400.778,299.516,403.53,301.428,406.927z"/>
			</g>
			<g>
				<path fill="none"  d="M301.429,453.81l9.451-16.798c1.909-3.394,6.143-6.144,9.454-6.144h19.156
					c3.314,0,4.449,2.75,2.539,6.144l-9.45,16.798c-1.912,3.396-6.145,6.148-9.456,6.148h-19.156
					C300.655,459.958,299.517,457.206,301.429,453.81z"/>
			</g>
			<g>
				<path fill="none"  d="M320.016,472.396l16.798-9.451c3.394-1.909,6.144-6.143,6.144-9.454v-19.156
					c0-3.314-2.75-4.449-6.144-2.539l-16.798,9.45c-3.396,1.912-6.148,6.145-6.148,9.456v19.156
					C313.867,473.17,316.619,474.309,320.016,472.396z"/>
			</g>
			<g>
				<path fill="none"  d="M366.898,472.396l-16.798-9.451c-3.394-1.909-6.144-6.143-6.144-9.454v-19.156
					c0-3.314,2.75-4.449,6.144-2.539l16.798,9.45c3.396,1.912,6.148,6.145,6.148,9.456v19.156
					C373.047,473.17,370.295,474.309,366.898,472.396z"/>
			</g>
			<g>
				<path fill="none"  d="M385.485,453.81l-9.451-16.798c-1.909-3.394-6.143-6.144-9.454-6.144h-19.156
					c-3.314,0-4.449,2.75-2.539,6.144l9.45,16.798c1.912,3.396,6.145,6.148,9.456,6.148h19.156
					C386.259,459.958,387.397,457.206,385.485,453.81z"/>
			</g>
		</g>
		<g>
			<g>
				<path fill="none"  d="M559.31,493.839l-9.451,16.798c-1.909,3.394-6.143,6.144-9.454,6.144h-19.156
					c-3.314,0-4.449-2.75-2.539-6.144l9.45-16.798c1.912-3.396,6.145-6.148,9.456-6.148h19.156
					C560.083,487.69,561.222,490.442,559.31,493.839z"/>
			</g>
			<g>
				<path fill="none"  d="M540.723,475.252l-16.798,9.451c-3.394,1.909-6.144,6.143-6.144,9.454v19.156
					c0,3.314,2.75,4.449,6.144,2.539l16.798-9.45c3.396-1.912,6.148-6.145,6.148-9.456V477.79
					C546.871,474.479,544.119,473.34,540.723,475.252z"/>
			</g>
			<g>
				<path fill="none"  d="M493.84,475.252l16.798,9.451c3.394,1.909,6.144,6.143,6.144,9.454v19.156
					c0,3.314-2.75,4.449-6.144,2.539l-16.798-9.45c-3.396-1.912-6.148-6.145-6.148-9.456V477.79
					C487.691,474.479,490.443,473.34,493.84,475.252z"/>
			</g>
			<g>
				<path fill="none"  d="M475.252,493.839l9.451,16.798c1.91,3.394,6.143,6.144,9.455,6.144h19.156
					c3.314,0,4.449-2.75,2.539-6.144l-9.451-16.798c-1.912-3.396-6.145-6.148-9.455-6.148h-19.156
					C474.479,487.69,473.34,490.442,475.252,493.839z"/>
			</g>
			<g>
				<path fill="none"  d="M475.253,540.722l9.451-16.798c1.909-3.394,6.143-6.144,9.454-6.144h19.156
					c3.314,0,4.449,2.75,2.539,6.144l-9.45,16.798c-1.912,3.396-6.145,6.148-9.456,6.148h-19.156
					C474.479,546.87,473.341,544.118,475.253,540.722z"/>
			</g>
			<g>
				<path fill="none"  d="M493.84,559.309l16.798-9.451c3.394-1.909,6.144-6.143,6.144-9.454v-19.156
					c0-3.314-2.75-4.449-6.144-2.539l-16.798,9.45c-3.396,1.912-6.148,6.145-6.148,9.456v19.156
					C487.691,560.082,490.443,561.221,493.84,559.309z"/>
			</g>
			<g>
				<path fill="none"  d="M540.723,559.309l-16.798-9.451c-3.394-1.909-6.144-6.143-6.144-9.454v-19.156
					c0-3.314,2.75-4.449,6.144-2.539l16.798,9.45c3.396,1.912,6.148,6.145,6.148,9.456v19.156
					C546.871,560.082,544.119,561.221,540.723,559.309z"/>
			</g>
			<g>
				<path fill="none"  d="M559.31,540.722l-9.451-16.798c-1.909-3.394-6.143-6.144-9.454-6.144h-19.156
					c-3.314,0-4.449,2.75-2.539,6.144l9.45,16.798c1.912,3.396,6.145,6.148,9.456,6.148h19.156
					C560.083,546.87,561.222,544.118,559.31,540.722z"/>
			</g>
		</g>
		<g>
			<g>
				<path fill="none"  d="M472.397,493.839l-9.451,16.798c-1.909,3.394-6.143,6.144-9.454,6.144h-19.156
					c-3.314,0-4.449-2.75-2.539-6.144l9.45-16.798c1.912-3.396,6.145-6.148,9.456-6.148h19.156
					C473.171,487.69,474.31,490.442,472.397,493.839z"/>
			</g>
			<g>
				<path fill="none"  d="M453.811,475.252l-16.798,9.451c-3.394,1.909-6.144,6.143-6.144,9.454v19.156
					c0,3.314,2.75,4.449,6.144,2.539l16.798-9.45c3.396-1.912,6.148-6.145,6.148-9.456V477.79
					C459.959,474.479,457.207,473.34,453.811,475.252z"/>
			</g>
			<g>
				<path fill="none"  d="M406.928,475.252l16.798,9.451c3.394,1.909,6.144,6.143,6.144,9.454v19.156
					c0,3.314-2.75,4.449-6.144,2.539l-16.798-9.45c-3.396-1.912-6.148-6.145-6.148-9.456V477.79
					C400.779,474.479,403.531,473.34,406.928,475.252z"/>
			</g>
			<g>
				<path fill="none"  d="M388.34,493.839l9.451,16.798c1.91,3.394,6.143,6.144,9.455,6.144h19.156
					c3.314,0,4.449-2.75,2.539-6.144l-9.451-16.798c-1.912-3.396-6.145-6.148-9.455-6.148h-19.156
					C387.566,487.69,386.428,490.442,388.34,493.839z"/>
			</g>
			<g>
				<path fill="none"  d="M388.341,540.722l9.451-16.798c1.909-3.394,6.143-6.144,9.454-6.144h19.156
					c3.314,0,4.449,2.75,2.539,6.144l-9.45,16.798c-1.912,3.396-6.145,6.148-9.456,6.148h-19.156
					C387.567,546.87,386.429,544.118,388.341,540.722z"/>
			</g>
			<g>
				<path fill="none"  d="M406.928,559.309l16.798-9.451c3.394-1.909,6.144-6.143,6.144-9.454v-19.156
					c0-3.314-2.75-4.449-6.144-2.539l-16.798,9.45c-3.396,1.912-6.148,6.145-6.148,9.456v19.156
					C400.779,560.082,403.531,561.221,406.928,559.309z"/>
			</g>
			<g>
				<path fill="none"  d="M453.811,559.309l-16.798-9.451c-3.394-1.909-6.144-6.143-6.144-9.454v-19.156
					c0-3.314,2.75-4.449,6.144-2.539l16.798,9.45c3.396,1.912,6.148,6.145,6.148,9.456v19.156
					C459.959,560.082,457.207,561.221,453.811,559.309z"/>
			</g>
			<g>
				<path fill="none"  d="M472.397,540.722l-9.451-16.798c-1.909-3.394-6.143-6.144-9.454-6.144h-19.156
					c-3.314,0-4.449,2.75-2.539,6.144l9.45,16.798c1.912,3.396,6.145,6.148,9.456,6.148h19.156
					C473.171,546.87,474.31,544.118,472.397,540.722z"/>
			</g>
		</g>
		<g>
			<g>
				<path fill="none"  d="M385.485,493.839l-9.451,16.798c-1.909,3.394-6.143,6.144-9.454,6.144h-19.156
					c-3.314,0-4.449-2.75-2.539-6.144l9.45-16.798c1.912-3.396,6.145-6.148,9.456-6.148h19.156
					C386.259,487.69,387.397,490.442,385.485,493.839z"/>
			</g>
			<g>
				<path fill="none"  d="M366.898,475.252l-16.798,9.451c-3.394,1.909-6.144,6.143-6.144,9.454v19.156
					c0,3.314,2.75,4.449,6.144,2.539l16.798-9.45c3.396-1.912,6.148-6.145,6.148-9.456V477.79
					C373.047,474.479,370.295,473.34,366.898,475.252z"/>
			</g>
			<g>
				<path fill="none"  d="M320.016,475.252l16.798,9.451c3.394,1.909,6.144,6.143,6.144,9.454v19.156
					c0,3.314-2.75,4.449-6.144,2.539l-16.798-9.45c-3.396-1.912-6.148-6.145-6.148-9.456V477.79
					C313.867,474.479,316.619,473.34,320.016,475.252z"/>
			</g>
			<g>
				<path fill="none"  d="M301.428,493.839l9.451,16.798c1.91,3.394,6.143,6.144,9.455,6.144h19.156
					c3.314,0,4.449-2.75,2.539-6.144l-9.451-16.798c-1.912-3.396-6.145-6.148-9.455-6.148h-19.156
					C300.654,487.69,299.516,490.442,301.428,493.839z"/>
			</g>
			<g>
				<path fill="none"  d="M301.429,540.722l9.451-16.798c1.909-3.394,6.143-6.144,9.454-6.144h19.156
					c3.314,0,4.449,2.75,2.539,6.144l-9.45,16.798c-1.912,3.396-6.145,6.148-9.456,6.148h-19.156
					C300.655,546.87,299.517,544.118,301.429,540.722z"/>
			</g>
			<g>
				<path fill="none"  d="M320.016,559.309l16.798-9.451c3.394-1.909,6.144-6.143,6.144-9.454v-19.156
					c0-3.314-2.75-4.449-6.144-2.539l-16.798,9.45c-3.396,1.912-6.148,6.145-6.148,9.456v19.156
					C313.867,560.082,316.619,561.221,320.016,559.309z"/>
			</g>
			<g>
				<path fill="none"  d="M366.898,559.309l-16.798-9.451c-3.394-1.909-6.144-6.143-6.144-9.454v-19.156
					c0-3.314,2.75-4.449,6.144-2.539l16.798,9.45c3.396,1.912,6.148,6.145,6.148,9.456v19.156
					C373.047,560.082,370.295,561.221,366.898,559.309z"/>
			</g>
			<g>
				<path fill="none"  d="M385.485,540.722l-9.451-16.798c-1.909-3.394-6.143-6.144-9.454-6.144h-19.156
					c-3.314,0-4.449,2.75-2.539,6.144l9.45,16.798c1.912,3.396,6.145,6.148,9.456,6.148h19.156
					C386.259,546.87,387.397,544.118,385.485,540.722z"/>
			</g>
		</g>
		<g>
			<g>
				<path fill="none"  d="M298.573,493.839l-9.452,16.798c-1.909,3.394-6.143,6.144-9.454,6.144h-19.156
					c-3.314,0-4.449-2.75-2.539-6.144l9.45-16.798c1.912-3.396,6.145-6.148,9.456-6.148h19.157
					C299.347,487.69,300.485,490.442,298.573,493.839z"/>
			</g>
			<g>
				<path fill="none"  d="M279.986,475.252l-16.798,9.451c-3.394,1.909-6.144,6.143-6.144,9.454v19.156
					c0,3.314,2.75,4.449,6.144,2.539l16.798-9.45c3.396-1.912,6.148-6.145,6.148-9.456V477.79
					C286.134,474.479,283.382,473.34,279.986,475.252z"/>
			</g>
			<g>
				<path fill="none"  d="M233.103,475.252l16.798,9.451c3.394,1.909,6.144,6.143,6.144,9.454v19.156
					c0,3.314-2.75,4.449-6.144,2.539l-16.798-9.45c-3.396-1.912-6.148-6.145-6.148-9.456V477.79
					C226.955,474.479,229.707,473.34,233.103,475.252z"/>
			</g>
			<g>
				<path fill="none"  d="M214.515,493.839l9.451,16.798c1.91,3.394,6.143,6.144,9.455,6.144h19.156
					c3.314,0,4.449-2.75,2.539-6.144l-9.451-16.798c-1.912-3.396-6.145-6.148-9.455-6.148h-19.156
					C213.742,487.69,212.603,490.442,214.515,493.839z"/>
			</g>
			<g>
				<path fill="none"  d="M214.516,540.722l9.451-16.798c1.909-3.394,6.143-6.144,9.454-6.144h19.156
					c3.314,0,4.449,2.75,2.539,6.144l-9.45,16.798c-1.912,3.396-6.145,6.148-9.456,6.148h-19.156
					C213.743,546.87,212.604,544.118,214.516,540.722z"/>
			</g>
			<g>
				<path fill="none"  d="M233.103,559.309l16.798-9.451c3.394-1.909,6.144-6.143,6.144-9.454v-19.156
					c0-3.314-2.75-4.449-6.144-2.539l-16.798,9.45c-3.396,1.912-6.148,6.145-6.148,9.456v19.156
					C226.955,560.082,229.707,561.221,233.103,559.309z"/>
			</g>
			<g>
				<path fill="none"  d="M279.986,559.309l-16.798-9.451c-3.394-1.909-6.144-6.143-6.144-9.454v-19.156
					c0-3.314,2.75-4.449,6.144-2.539l16.798,9.45c3.396,1.912,6.148,6.145,6.148,9.456v19.156
					C286.134,560.082,283.382,561.221,279.986,559.309z"/>
			</g>
			<g>
				<path fill="none"  d="M298.573,540.722l-9.452-16.798c-1.909-3.394-6.143-6.144-9.454-6.144h-19.156
					c-3.314,0-4.449,2.75-2.539,6.144l9.45,16.798c1.912,3.396,6.145,6.148,9.456,6.148h19.157
					C299.347,546.87,300.485,544.118,298.573,540.722z"/>
			</g>
		</g>
		<g>
			<g>
				<g>
					<path fill="none"  d="M211.66,59.278l-9.451,16.798c-1.909,3.394-6.143,6.144-9.454,6.144h-19.156
						c-3.314,0-4.449-2.75-2.539-6.144l9.45-16.798c1.912-3.396,6.145-6.148,9.456-6.148h19.156
						C212.433,53.13,213.572,55.882,211.66,59.278z"/>
				</g>
				<g>
					<path fill="none"  d="M193.073,40.691l-16.798,9.451c-3.394,1.909-6.144,6.143-6.144,9.454v19.156
						c0,3.314,2.75,4.449,6.144,2.539l16.798-9.45c3.396-1.912,6.148-6.145,6.148-9.456V43.229
						C199.221,39.918,196.469,38.779,193.073,40.691z"/>
				</g>
				<g>
					<path fill="none"  d="M146.19,40.691l16.798,9.451c3.394,1.909,6.144,6.143,6.144,9.454v19.156
						c0,3.314-2.75,4.449-6.144,2.539l-16.798-9.45c-3.396-1.912-6.148-6.145-6.148-9.456V43.229
						C140.042,39.918,142.793,38.779,146.19,40.691z"/>
				</g>
				<g>
					<path fill="none"  d="M127.602,59.278l9.451,16.798c1.91,3.394,6.143,6.144,9.455,6.144h19.156
						c3.314,0,4.449-2.75,2.539-6.144l-9.451-16.798c-1.912-3.396-6.145-6.148-9.455-6.148h-19.156
						C126.829,53.13,125.69,55.882,127.602,59.278z"/>
				</g>
				<g>
					<path fill="none"  d="M127.603,106.161l9.451-16.798c1.909-3.394,6.143-6.144,9.454-6.144h19.156
						c3.314,0,4.449,2.75,2.539,6.144l-9.45,16.798c-1.912,3.396-6.145,6.148-9.456,6.148h-19.156
						C126.83,112.31,125.691,109.558,127.603,106.161z"/>
				</g>
				<g>
					<path fill="none"  d="M146.19,124.748l16.798-9.451c3.394-1.909,6.144-6.143,6.144-9.454V86.687
						c0-3.314-2.75-4.449-6.144-2.539l-16.798,9.45c-3.396,1.912-6.148,6.145-6.148,9.456v19.156
						C140.042,125.521,142.793,126.66,146.19,124.748z"/>
				</g>
				<g>
					<path fill="none"  d="M193.073,124.748l-16.798-9.451c-3.394-1.909-6.144-6.143-6.144-9.454V86.687
						c0-3.314,2.75-4.449,6.144-2.539l16.798,9.45c3.396,1.912,6.148,6.145,6.148,9.456v19.156
						C199.221,125.521,196.469,126.66,193.073,124.748z"/>
				</g>
				<g>
					<path fill="none"  d="M211.66,106.161l-9.451-16.798c-1.909-3.394-6.143-6.144-9.454-6.144h-19.156
						c-3.314,0-4.449,2.75-2.539,6.144l9.45,16.798c1.912,3.396,6.145,6.148,9.456,6.148h19.156
						C212.433,112.31,213.572,109.558,211.66,106.161z"/>
				</g>
			</g>
			<g>
				<g>
					<path fill="none"  d="M124.748,59.278l-9.451,16.798c-1.909,3.394-6.143,6.144-9.454,6.144H86.686
						c-3.314,0-4.449-2.75-2.539-6.144l9.45-16.798c1.912-3.396,6.145-6.148,9.456-6.148h19.156
						C125.521,53.13,126.66,55.882,124.748,59.278z"/>
				</g>
				<g>
					<path fill="none"  d="M106.161,40.691l-16.798,9.451c-3.394,1.909-6.144,6.143-6.144,9.454v19.156
						c0,3.314,2.75,4.449,6.144,2.539l16.798-9.45c3.396-1.912,6.148-6.145,6.148-9.456V43.229
						C112.309,39.918,109.557,38.779,106.161,40.691z"/>
				</g>
				<g>
					<path fill="none"  d="M59.278,40.691l16.798,9.451c3.394,1.909,6.144,6.143,6.144,9.454v19.156
						c0,3.314-2.75,4.449-6.144,2.539l-16.798-9.45c-3.396-1.912-6.148-6.145-6.148-9.456V43.229
						C53.129,39.918,55.881,38.779,59.278,40.691z"/>
				</g>
				<g>
					<path fill="none"  d="M40.69,59.278l9.451,16.798c1.91,3.394,6.143,6.144,9.455,6.144h19.156
						c3.314,0,4.449-2.75,2.539-6.144L71.84,59.278c-1.912-3.396-6.145-6.148-9.455-6.148H43.229
						C39.917,53.13,38.778,55.882,40.69,59.278z"/>
				</g>
				<g>
					<path fill="none"  d="M40.691,106.161l9.451-16.798c1.909-3.394,6.143-6.144,9.454-6.144h19.156
						c3.314,0,4.449,2.75,2.539,6.144l-9.45,16.798c-1.912,3.396-6.145,6.148-9.456,6.148H43.229
						C39.917,112.31,38.779,109.558,40.691,106.161z"/>
				</g>
				<g>
					<path fill="none"  d="M59.278,124.748l16.798-9.451c3.394-1.909,6.144-6.143,6.144-9.454V86.687
						c0-3.314-2.75-4.449-6.144-2.539l-16.798,9.45c-3.396,1.912-6.148,6.145-6.148,9.456v19.156
						C53.129,125.521,55.881,126.66,59.278,124.748z"/>
				</g>
				<g>
					<path fill="none"  d="M106.161,124.748l-16.798-9.451c-3.394-1.909-6.144-6.143-6.144-9.454V86.687
						c0-3.314,2.75-4.449,6.144-2.539l16.798,9.45c3.396,1.912,6.148,6.145,6.148,9.456v19.156
						C112.309,125.521,109.557,126.66,106.161,124.748z"/>
				</g>
				<g>
					<path fill="none"  d="M124.748,106.161l-9.451-16.798c-1.909-3.394-6.143-6.144-9.454-6.144H86.686
						c-3.314,0-4.449,2.75-2.539,6.144l9.45,16.798c1.912,3.396,6.145,6.148,9.456,6.148h19.156
						C125.521,112.31,126.66,109.558,124.748,106.161z"/>
				</g>
			</g>
			<g>
				<g>
					<path fill="none"  d="M211.66,146.19l-9.451,16.798c-1.909,3.394-6.143,6.144-9.454,6.144h-19.156
						c-3.314,0-4.449-2.75-2.539-6.144l9.45-16.798c1.912-3.396,6.145-6.148,9.456-6.148h19.156
						C212.433,140.042,213.572,142.794,211.66,146.19z"/>
				</g>
				<g>
					<path fill="none"  d="M193.073,127.604l-16.798,9.451c-3.394,1.909-6.144,6.143-6.144,9.454v19.156
						c0,3.314,2.75,4.449,6.144,2.539l16.798-9.45c3.396-1.912,6.148-6.145,6.148-9.456v-19.156
						C199.221,126.83,196.469,125.691,193.073,127.604z"/>
				</g>
				<g>
					<path fill="none"  d="M146.19,127.604l16.798,9.451c3.394,1.909,6.144,6.143,6.144,9.454v19.156
						c0,3.314-2.75,4.449-6.144,2.539l-16.798-9.45c-3.396-1.912-6.148-6.145-6.148-9.456v-19.156
						C140.042,126.83,142.793,125.691,146.19,127.604z"/>
				</g>
				<g>
					<path fill="none"  d="M127.602,146.19l9.451,16.798c1.91,3.394,6.143,6.144,9.455,6.144h19.156
						c3.314,0,4.449-2.75,2.539-6.144l-9.451-16.798c-1.912-3.396-6.145-6.148-9.455-6.148h-19.156
						C126.829,140.042,125.69,142.794,127.602,146.19z"/>
				</g>
				<g>
					<path fill="none"  d="M127.603,193.073l9.451-16.798c1.909-3.394,6.143-6.144,9.454-6.144h19.156
						c3.314,0,4.449,2.75,2.539,6.144l-9.45,16.798c-1.912,3.396-6.145,6.148-9.456,6.148h-19.156
						C126.83,199.222,125.691,196.47,127.603,193.073z"/>
				</g>
				<g>
					<path fill="none"  d="M146.19,211.66l16.798-9.451c3.394-1.909,6.144-6.143,6.144-9.454v-19.156
						c0-3.314-2.75-4.449-6.144-2.539l-16.798,9.45c-3.396,1.912-6.148,6.145-6.148,9.456v19.156
						C140.042,212.434,142.793,213.572,146.19,211.66z"/>
				</g>
				<g>
					<path fill="none"  d="M193.073,211.66l-16.798-9.451c-3.394-1.909-6.144-6.143-6.144-9.454v-19.156
						c0-3.314,2.75-4.449,6.144-2.539l16.798,9.45c3.396,1.912,6.148,6.145,6.148,9.456v19.156
						C199.221,212.434,196.469,213.572,193.073,211.66z"/>
				</g>
				<g>
					<path fill="none"  d="M211.66,193.073l-9.451-16.798c-1.909-3.394-6.143-6.144-9.454-6.144h-19.156
						c-3.314,0-4.449,2.75-2.539,6.144l9.45,16.798c1.912,3.396,6.145,6.148,9.456,6.148h19.156
						C212.433,199.222,213.572,196.47,211.66,193.073z"/>
				</g>
			</g>
			<g>
				<g>
					<path fill="none"  d="M124.748,146.19l-9.451,16.798c-1.909,3.394-6.143,6.144-9.454,6.144H86.686
						c-3.314,0-4.449-2.75-2.539-6.144l9.45-16.798c1.912-3.396,6.145-6.148,9.456-6.148h19.156
						C125.521,140.042,126.66,142.794,124.748,146.19z"/>
				</g>
				<g>
					<path fill="none"  d="M106.161,127.604l-16.798,9.451c-3.394,1.909-6.144,6.143-6.144,9.454v19.156
						c0,3.314,2.75,4.449,6.144,2.539l16.798-9.45c3.396-1.912,6.148-6.145,6.148-9.456v-19.156
						C112.309,126.83,109.557,125.691,106.161,127.604z"/>
				</g>
				<g>
					<path fill="none"  d="M59.278,127.604l16.798,9.451c3.394,1.909,6.144,6.143,6.144,9.454v19.156
						c0,3.314-2.75,4.449-6.144,2.539l-16.798-9.45c-3.396-1.912-6.148-6.145-6.148-9.456v-19.156
						C53.129,126.83,55.881,125.691,59.278,127.604z"/>
				</g>
				<g>
					<path fill="none"  d="M40.69,146.19l9.451,16.798c1.91,3.394,6.143,6.144,9.455,6.144h19.156
						c3.314,0,4.449-2.75,2.539-6.144L71.84,146.19c-1.912-3.396-6.145-6.148-9.455-6.148H43.229
						C39.917,140.042,38.778,142.794,40.69,146.19z"/>
				</g>
				<g>
					<path fill="none"  d="M40.691,193.073l9.451-16.798c1.909-3.394,6.143-6.144,9.454-6.144h19.156
						c3.314,0,4.449,2.75,2.539,6.144l-9.45,16.798c-1.912,3.396-6.145,6.148-9.456,6.148H43.229
						C39.917,199.222,38.779,196.47,40.691,193.073z"/>
				</g>
				<g>
					<path fill="none"  d="M59.278,211.66l16.798-9.451c3.394-1.909,6.144-6.143,6.144-9.454v-19.156
						c0-3.314-2.75-4.449-6.144-2.539l-16.798,9.45c-3.396,1.912-6.148,6.145-6.148,9.456v19.156
						C53.129,212.434,55.881,213.572,59.278,211.66z"/>
				</g>
				<g>
					<path fill="none"  d="M106.161,211.66l-16.798-9.451c-3.394-1.909-6.144-6.143-6.144-9.454v-19.156
						c0-3.314,2.75-4.449,6.144-2.539l16.798,9.45c3.396,1.912,6.148,6.145,6.148,9.456v19.156
						C112.309,212.434,109.557,213.572,106.161,211.66z"/>
				</g>
				<g>
					<path fill="none"  d="M124.748,193.073l-9.451-16.798c-1.909-3.394-6.143-6.144-9.454-6.144H86.686
						c-3.314,0-4.449,2.75-2.539,6.144l9.45,16.798c1.912,3.396,6.145,6.148,9.456,6.148h19.156
						C125.521,199.222,126.66,196.47,124.748,193.073z"/>
				</g>
			</g>
			<g>
				<g>
					<path fill="none"  d="M211.66,233.103l-9.451,16.798c-1.909,3.394-6.143,6.144-9.454,6.144h-19.156
						c-3.314,0-4.449-2.75-2.539-6.144l9.45-16.798c1.912-3.396,6.145-6.148,9.456-6.148h19.156
						C212.433,226.954,213.572,229.706,211.66,233.103z"/>
				</g>
				<g>
					<path fill="none"  d="M193.073,214.516l-16.798,9.451c-3.394,1.909-6.144,6.143-6.144,9.454v19.156
						c0,3.314,2.75,4.449,6.144,2.539l16.798-9.45c3.396-1.912,6.148-6.145,6.148-9.456v-19.156
						C199.221,213.742,196.469,212.604,193.073,214.516z"/>
				</g>
				<g>
					<path fill="none"  d="M146.19,214.516l16.798,9.451c3.394,1.909,6.144,6.143,6.144,9.454v19.156
						c0,3.314-2.75,4.449-6.144,2.539l-16.798-9.45c-3.396-1.912-6.148-6.145-6.148-9.456v-19.156
						C140.042,213.742,142.793,212.604,146.19,214.516z"/>
				</g>
				<g>
					<path fill="none"  d="M127.602,233.103l9.451,16.798c1.91,3.394,6.143,6.144,9.455,6.144h19.156
						c3.314,0,4.449-2.75,2.539-6.144l-9.451-16.798c-1.912-3.396-6.145-6.148-9.455-6.148h-19.156
						C126.829,226.954,125.69,229.706,127.602,233.103z"/>
				</g>
				<g>
					<path fill="none"  d="M127.603,279.985l9.451-16.798c1.909-3.394,6.143-6.144,9.454-6.144h19.156
						c3.314,0,4.449,2.75,2.539,6.144l-9.45,16.798c-1.912,3.396-6.145,6.148-9.456,6.148h-19.156
						C126.83,286.134,125.691,283.382,127.603,279.985z"/>
				</g>
				<g>
					<path fill="none"  d="M146.19,298.572l16.798-9.451c3.394-1.909,6.144-6.143,6.144-9.454v-19.156
						c0-3.314-2.75-4.449-6.144-2.539l-16.798,9.45c-3.396,1.912-6.148,6.145-6.148,9.456v19.156
						C140.042,299.346,142.793,300.484,146.19,298.572z"/>
				</g>
				<g>
					<path fill="none"  d="M193.073,298.572l-16.798-9.451c-3.394-1.909-6.144-6.143-6.144-9.454v-19.156
						c0-3.314,2.75-4.449,6.144-2.539l16.798,9.45c3.396,1.912,6.148,6.145,6.148,9.456v19.156
						C199.221,299.346,196.469,300.484,193.073,298.572z"/>
				</g>
				<g>
					<path fill="none"  d="M211.66,279.985l-9.451-16.798c-1.909-3.394-6.143-6.144-9.454-6.144h-19.156
						c-3.314,0-4.449,2.75-2.539,6.144l9.45,16.798c1.912,3.396,6.145,6.148,9.456,6.148h19.156
						C212.433,286.134,213.572,283.382,211.66,279.985z"/>
				</g>
			</g>
			<g>
				<g>
					<path fill="none"  d="M124.748,233.103l-9.451,16.798c-1.909,3.394-6.143,6.144-9.454,6.144H86.686
						c-3.314,0-4.449-2.75-2.539-6.144l9.45-16.798c1.912-3.396,6.145-6.148,9.456-6.148h19.156
						C125.521,226.954,126.66,229.706,124.748,233.103z"/>
				</g>
				<g>
					<path fill="none"  d="M106.161,214.516l-16.798,9.451c-3.394,1.909-6.144,6.143-6.144,9.454v19.156
						c0,3.314,2.75,4.449,6.144,2.539l16.798-9.45c3.396-1.912,6.148-6.145,6.148-9.456v-19.156
						C112.309,213.742,109.557,212.604,106.161,214.516z"/>
				</g>
				<g>
					<path fill="none"  d="M59.278,214.516l16.798,9.451c3.394,1.909,6.144,6.143,6.144,9.454v19.156
						c0,3.314-2.75,4.449-6.144,2.539l-16.798-9.45c-3.396-1.912-6.148-6.145-6.148-9.456v-19.156
						C53.129,213.742,55.881,212.604,59.278,214.516z"/>
				</g>
				<g>
					<path fill="none"  d="M40.69,233.103l9.451,16.798c1.91,3.394,6.143,6.144,9.455,6.144h19.156
						c3.314,0,4.449-2.75,2.539-6.144l-9.451-16.798c-1.912-3.396-6.145-6.148-9.455-6.148H43.229
						C39.917,226.954,38.778,229.706,40.69,233.103z"/>
				</g>
				<g>
					<path fill="none"  d="M40.691,279.985l9.451-16.798c1.909-3.394,6.143-6.144,9.454-6.144h19.156
						c3.314,0,4.449,2.75,2.539,6.144l-9.45,16.798c-1.912,3.396-6.145,6.148-9.456,6.148H43.229
						C39.917,286.134,38.779,283.382,40.691,279.985z"/>
				</g>
				<g>
					<path fill="none"  d="M59.278,298.572l16.798-9.451c3.394-1.909,6.144-6.143,6.144-9.454v-19.156
						c0-3.314-2.75-4.449-6.144-2.539l-16.798,9.45c-3.396,1.912-6.148,6.145-6.148,9.456v19.156
						C53.129,299.346,55.881,300.484,59.278,298.572z"/>
				</g>
				<g>
					<path fill="none"  d="M106.161,298.572l-16.798-9.451c-3.394-1.909-6.144-6.143-6.144-9.454v-19.156
						c0-3.314,2.75-4.449,6.144-2.539l16.798,9.45c3.396,1.912,6.148,6.145,6.148,9.456v19.156
						C112.309,299.346,109.557,300.484,106.161,298.572z"/>
				</g>
				<g>
					<path fill="none"  d="M124.748,279.985l-9.451-16.798c-1.909-3.394-6.143-6.144-9.454-6.144H86.686
						c-3.314,0-4.449,2.75-2.539,6.144l9.45,16.798c1.912,3.396,6.145,6.148,9.456,6.148h19.156
						C125.521,286.134,126.66,283.382,124.748,279.985z"/>
				</g>
			</g>
			<g>
				<g>
					<path fill="none"  d="M211.66,320.015l-9.451,16.798c-1.909,3.394-6.143,6.144-9.454,6.144h-19.156
						c-3.314,0-4.449-2.75-2.539-6.144l9.45-16.798c1.912-3.396,6.145-6.148,9.456-6.148h19.156
						C212.433,313.866,213.572,316.618,211.66,320.015z"/>
				</g>
				<g>
					<path fill="none"  d="M193.073,301.428l-16.798,9.451c-3.394,1.909-6.144,6.143-6.144,9.454v19.156
						c0,3.314,2.75,4.449,6.144,2.539l16.798-9.45c3.396-1.912,6.148-6.145,6.148-9.456v-19.156
						C199.221,300.654,196.469,299.516,193.073,301.428z"/>
				</g>
				<g>
					<path fill="none"  d="M146.19,301.428l16.798,9.451c3.394,1.909,6.144,6.143,6.144,9.454v19.156
						c0,3.314-2.75,4.449-6.144,2.539l-16.798-9.45c-3.396-1.912-6.148-6.145-6.148-9.456v-19.156
						C140.042,300.654,142.793,299.516,146.19,301.428z"/>
				</g>
				<g>
					<path fill="none"  d="M127.602,320.015l9.451,16.798c1.91,3.394,6.143,6.144,9.455,6.144h19.156
						c3.314,0,4.449-2.75,2.539-6.144l-9.451-16.798c-1.912-3.396-6.145-6.148-9.455-6.148h-19.156
						C126.829,313.866,125.69,316.618,127.602,320.015z"/>
				</g>
				<g>
					<path fill="none"  d="M127.603,366.897l9.451-16.798c1.909-3.394,6.143-6.144,9.454-6.144h19.156
						c3.314,0,4.449,2.75,2.539,6.144l-9.45,16.798c-1.912,3.396-6.145,6.148-9.456,6.148h-19.156
						C126.83,373.046,125.691,370.294,127.603,366.897z"/>
				</g>
				<g>
					<path fill="none"  d="M146.19,385.484l16.798-9.451c3.394-1.909,6.144-6.143,6.144-9.454v-19.156
						c0-3.314-2.75-4.449-6.144-2.539l-16.798,9.45c-3.396,1.912-6.148,6.145-6.148,9.456v19.156
						C140.042,386.258,142.793,387.396,146.19,385.484z"/>
				</g>
				<g>
					<path fill="none"  d="M193.073,385.484l-16.798-9.451c-3.394-1.909-6.144-6.143-6.144-9.454v-19.156
						c0-3.314,2.75-4.449,6.144-2.539l16.798,9.45c3.396,1.912,6.148,6.145,6.148,9.456v19.156
						C199.221,386.258,196.469,387.396,193.073,385.484z"/>
				</g>
				<g>
					<path fill="none"  d="M211.66,366.897l-9.451-16.798c-1.909-3.394-6.143-6.144-9.454-6.144h-19.156
						c-3.314,0-4.449,2.75-2.539,6.144l9.45,16.798c1.912,3.396,6.145,6.148,9.456,6.148h19.156
						C212.433,373.046,213.572,370.294,211.66,366.897z"/>
				</g>
			</g>
			<g>
				<g>
					<path fill="none"  d="M124.748,320.015l-9.451,16.798c-1.909,3.394-6.143,6.144-9.454,6.144H86.686
						c-3.314,0-4.449-2.75-2.539-6.144l9.45-16.798c1.912-3.396,6.145-6.148,9.456-6.148h19.156
						C125.521,313.866,126.66,316.618,124.748,320.015z"/>
				</g>
				<g>
					<path fill="none"  d="M106.161,301.428l-16.798,9.451c-3.394,1.909-6.144,6.143-6.144,9.454v19.156
						c0,3.314,2.75,4.449,6.144,2.539l16.798-9.45c3.396-1.912,6.148-6.145,6.148-9.456v-19.156
						C112.309,300.654,109.557,299.516,106.161,301.428z"/>
				</g>
				<g>
					<path fill="none"  d="M59.278,301.428l16.798,9.451c3.394,1.909,6.144,6.143,6.144,9.454v19.156
						c0,3.314-2.75,4.449-6.144,2.539l-16.798-9.45c-3.396-1.912-6.148-6.145-6.148-9.456v-19.156
						C53.129,300.654,55.881,299.516,59.278,301.428z"/>
				</g>
				<g>
					<path fill="none"  d="M40.69,320.015l9.451,16.798c1.91,3.394,6.143,6.144,9.455,6.144h19.156
						c3.314,0,4.449-2.75,2.539-6.144l-9.451-16.798c-1.912-3.396-6.145-6.148-9.455-6.148H43.229
						C39.917,313.866,38.778,316.618,40.69,320.015z"/>
				</g>
				<g>
					<path fill="none"  d="M40.691,366.897l9.451-16.798c1.909-3.394,6.143-6.144,9.454-6.144h19.156
						c3.314,0,4.449,2.75,2.539,6.144l-9.45,16.798c-1.912,3.396-6.145,6.148-9.456,6.148H43.229
						C39.917,373.046,38.779,370.294,40.691,366.897z"/>
				</g>
				<g>
					<path fill="none"  d="M59.278,385.484l16.798-9.451c3.394-1.909,6.144-6.143,6.144-9.454v-19.156
						c0-3.314-2.75-4.449-6.144-2.539l-16.798,9.45c-3.396,1.912-6.148,6.145-6.148,9.456v19.156
						C53.129,386.258,55.881,387.396,59.278,385.484z"/>
				</g>
				<g>
					<path fill="none"  d="M106.161,385.484l-16.798-9.451c-3.394-1.909-6.144-6.143-6.144-9.454v-19.156
						c0-3.314,2.75-4.449,6.144-2.539l16.798,9.45c3.396,1.912,6.148,6.145,6.148,9.456v19.156
						C112.309,386.258,109.557,387.396,106.161,385.484z"/>
				</g>
				<g>
					<path fill="none"  d="M124.748,366.897l-9.451-16.798c-1.909-3.394-6.143-6.144-9.454-6.144H86.686
						c-3.314,0-4.449,2.75-2.539,6.144l9.45,16.798c1.912,3.396,6.145,6.148,9.456,6.148h19.156
						C125.521,373.046,126.66,370.294,124.748,366.897z"/>
				</g>
			</g>
			<g>
				<g>
					<path fill="none"  d="M211.66,406.927l-9.451,16.798c-1.909,3.394-6.143,6.144-9.454,6.144h-19.156
						c-3.314,0-4.449-2.75-2.539-6.144l9.45-16.798c1.912-3.396,6.145-6.148,9.456-6.148h19.156
						C212.433,400.778,213.572,403.53,211.66,406.927z"/>
				</g>
				<g>
					<path fill="none"  d="M193.073,388.34l-16.798,9.451c-3.394,1.909-6.144,6.143-6.144,9.454v19.156
						c0,3.314,2.75,4.449,6.144,2.539l16.798-9.45c3.396-1.912,6.148-6.145,6.148-9.456v-19.156
						C199.221,387.566,196.469,386.428,193.073,388.34z"/>
				</g>
				<g>
					<path fill="none"  d="M146.19,388.34l16.798,9.451c3.394,1.909,6.144,6.143,6.144,9.454v19.156
						c0,3.314-2.75,4.449-6.144,2.539l-16.798-9.45c-3.396-1.912-6.148-6.145-6.148-9.456v-19.156
						C140.042,387.566,142.793,386.428,146.19,388.34z"/>
				</g>
				<g>
					<path fill="none"  d="M127.602,406.927l9.451,16.798c1.91,3.394,6.143,6.144,9.455,6.144h19.156
						c3.314,0,4.449-2.75,2.539-6.144l-9.451-16.798c-1.912-3.396-6.145-6.148-9.455-6.148h-19.156
						C126.829,400.778,125.69,403.53,127.602,406.927z"/>
				</g>
				<g>
					<path fill="none"  d="M127.603,453.81l9.451-16.798c1.909-3.394,6.143-6.144,9.454-6.144h19.156
						c3.314,0,4.449,2.75,2.539,6.144l-9.45,16.798c-1.912,3.396-6.145,6.148-9.456,6.148h-19.156
						C126.83,459.958,125.691,457.206,127.603,453.81z"/>
				</g>
				<g>
					<path fill="none"  d="M146.19,472.396l16.798-9.451c3.394-1.909,6.144-6.143,6.144-9.454v-19.156
						c0-3.314-2.75-4.449-6.144-2.539l-16.798,9.45c-3.396,1.912-6.148,6.145-6.148,9.456v19.156
						C140.042,473.17,142.793,474.309,146.19,472.396z"/>
				</g>
				<g>
					<path fill="none"  d="M193.073,472.396l-16.798-9.451c-3.394-1.909-6.144-6.143-6.144-9.454v-19.156
						c0-3.314,2.75-4.449,6.144-2.539l16.798,9.45c3.396,1.912,6.148,6.145,6.148,9.456v19.156
						C199.221,473.17,196.469,474.309,193.073,472.396z"/>
				</g>
				<g>
					<path fill="none"  d="M211.66,453.81l-9.451-16.798c-1.909-3.394-6.143-6.144-9.454-6.144h-19.156
						c-3.314,0-4.449,2.75-2.539,6.144l9.45,16.798c1.912,3.396,6.145,6.148,9.456,6.148h19.156
						C212.433,459.958,213.572,457.206,211.66,453.81z"/>
				</g>
			</g>
			<g>
				<g>
					<path fill="none"  d="M124.748,406.927l-9.451,16.798c-1.909,3.394-6.143,6.144-9.454,6.144H86.686
						c-3.314,0-4.449-2.75-2.539-6.144l9.45-16.798c1.912-3.396,6.145-6.148,9.456-6.148h19.156
						C125.521,400.778,126.66,403.53,124.748,406.927z"/>
				</g>
				<g>
					<path fill="none"  d="M106.161,388.34l-16.798,9.451c-3.394,1.909-6.144,6.143-6.144,9.454v19.156
						c0,3.314,2.75,4.449,6.144,2.539l16.798-9.45c3.396-1.912,6.148-6.145,6.148-9.456v-19.156
						C112.309,387.566,109.557,386.428,106.161,388.34z"/>
				</g>
				<g>
					<path fill="none"  d="M59.278,388.34l16.798,9.451c3.394,1.909,6.144,6.143,6.144,9.454v19.156
						c0,3.314-2.75,4.449-6.144,2.539l-16.798-9.45c-3.396-1.912-6.148-6.145-6.148-9.456v-19.156
						C53.129,387.566,55.881,386.428,59.278,388.34z"/>
				</g>
				<g>
					<path fill="none"  d="M40.69,406.927l9.451,16.798c1.91,3.394,6.143,6.144,9.455,6.144h19.156
						c3.314,0,4.449-2.75,2.539-6.144l-9.451-16.798c-1.912-3.396-6.145-6.148-9.455-6.148H43.229
						C39.917,400.778,38.778,403.53,40.69,406.927z"/>
				</g>
				<g>
					<path fill="none"  d="M40.691,453.81l9.451-16.798c1.909-3.394,6.143-6.144,9.454-6.144h19.156
						c3.314,0,4.449,2.75,2.539,6.144l-9.45,16.798c-1.912,3.396-6.145,6.148-9.456,6.148H43.229
						C39.917,459.958,38.779,457.206,40.691,453.81z"/>
				</g>
				<g>
					<path fill="none"  d="M59.278,472.396l16.798-9.451c3.394-1.909,6.144-6.143,6.144-9.454v-19.156
						c0-3.314-2.75-4.449-6.144-2.539l-16.798,9.45c-3.396,1.912-6.148,6.145-6.148,9.456v19.156
						C53.129,473.17,55.881,474.309,59.278,472.396z"/>
				</g>
				<g>
					<path fill="none"  d="M106.161,472.396l-16.798-9.451c-3.394-1.909-6.144-6.143-6.144-9.454v-19.156
						c0-3.314,2.75-4.449,6.144-2.539l16.798,9.45c3.396,1.912,6.148,6.145,6.148,9.456v19.156
						C112.309,473.17,109.557,474.309,106.161,472.396z"/>
				</g>
				<g>
					<path fill="none"  d="M124.748,453.81l-9.451-16.798c-1.909-3.394-6.143-6.144-9.454-6.144H86.686
						c-3.314,0-4.449,2.75-2.539,6.144l9.45,16.798c1.912,3.396,6.145,6.148,9.456,6.148h19.156
						C125.521,459.958,126.66,457.206,124.748,453.81z"/>
				</g>
			</g>
		</g>
		<g>
			<g>
				<path fill="none"  d="M211.66,493.839l-9.451,16.798c-1.909,3.394-6.143,6.144-9.454,6.144h-19.156
					c-3.314,0-4.449-2.75-2.539-6.144l9.45-16.798c1.912-3.396,6.145-6.148,9.456-6.148h19.156
					C212.433,487.69,213.572,490.442,211.66,493.839z"/>
			</g>
			<g>
				<path fill="none"  d="M193.073,475.252l-16.798,9.451c-3.394,1.909-6.144,6.143-6.144,9.454v19.156
					c0,3.314,2.75,4.449,6.144,2.539l16.798-9.45c3.396-1.912,6.148-6.145,6.148-9.456V477.79
					C199.221,474.479,196.469,473.34,193.073,475.252z"/>
			</g>
			<g>
				<path fill="none"  d="M146.19,475.252l16.798,9.451c3.394,1.909,6.144,6.143,6.144,9.454v19.156
					c0,3.314-2.75,4.449-6.144,2.539l-16.798-9.45c-3.396-1.912-6.148-6.145-6.148-9.456V477.79
					C140.042,474.479,142.793,473.34,146.19,475.252z"/>
			</g>
			<g>
				<path fill="none"  d="M127.602,493.839l9.451,16.798c1.91,3.394,6.143,6.144,9.455,6.144h19.156
					c3.314,0,4.449-2.75,2.539-6.144l-9.451-16.798c-1.912-3.396-6.145-6.148-9.455-6.148h-19.156
					C126.829,487.69,125.69,490.442,127.602,493.839z"/>
			</g>
			<g>
				<path fill="none"  d="M127.603,540.722l9.451-16.798c1.909-3.394,6.143-6.144,9.454-6.144h19.156
					c3.314,0,4.449,2.75,2.539,6.144l-9.45,16.798c-1.912,3.396-6.145,6.148-9.456,6.148h-19.156
					C126.83,546.87,125.691,544.118,127.603,540.722z"/>
			</g>
			<g>
				<path fill="none"  d="M146.19,559.309l16.798-9.451c3.394-1.909,6.144-6.143,6.144-9.454v-19.156
					c0-3.314-2.75-4.449-6.144-2.539l-16.798,9.45c-3.396,1.912-6.148,6.145-6.148,9.456v19.156
					C140.042,560.082,142.793,561.221,146.19,559.309z"/>
			</g>
			<g>
				<path fill="none"  d="M193.073,559.309l-16.798-9.451c-3.394-1.909-6.144-6.143-6.144-9.454v-19.156
					c0-3.314,2.75-4.449,6.144-2.539l16.798,9.45c3.396,1.912,6.148,6.145,6.148,9.456v19.156
					C199.221,560.082,196.469,561.221,193.073,559.309z"/>
			</g>
			<g>
				<path fill="none"  d="M211.66,540.722l-9.451-16.798c-1.909-3.394-6.143-6.144-9.454-6.144h-19.156
					c-3.314,0-4.449,2.75-2.539,6.144l9.45,16.798c1.912,3.396,6.145,6.148,9.456,6.148h19.156
					C212.433,546.87,213.572,544.118,211.66,540.722z"/>
			</g>
		</g>
		<g>
			<g>
				<path fill="none"  d="M124.748,493.839l-9.451,16.798c-1.909,3.394-6.143,6.144-9.454,6.144H86.686
					c-3.314,0-4.449-2.75-2.539-6.144l9.45-16.798c1.912-3.396,6.145-6.148,9.456-6.148h19.156
					C125.521,487.69,126.66,490.442,124.748,493.839z"/>
			</g>
			<g>
				<path fill="none"  d="M106.161,475.252l-16.798,9.451c-3.394,1.909-6.144,6.143-6.144,9.454v19.156
					c0,3.314,2.75,4.449,6.144,2.539l16.798-9.45c3.396-1.912,6.148-6.145,6.148-9.456V477.79
					C112.309,474.479,109.557,473.34,106.161,475.252z"/>
			</g>
			<g>
				<path fill="none"  d="M59.278,475.252l16.798,9.451c3.394,1.909,6.144,6.143,6.144,9.454v19.156
					c0,3.314-2.75,4.449-6.144,2.539l-16.798-9.45c-3.396-1.912-6.148-6.145-6.148-9.456V477.79
					C53.129,474.479,55.881,473.34,59.278,475.252z"/>
			</g>
			<g>
				<path fill="none"  d="M40.69,493.839l9.451,16.798c1.91,3.394,6.143,6.144,9.455,6.144h19.156
					c3.314,0,4.449-2.75,2.539-6.144l-9.451-16.798c-1.912-3.396-6.145-6.148-9.455-6.148H43.229
					C39.917,487.69,38.778,490.442,40.69,493.839z"/>
			</g>
			<g>
				<path fill="none"  d="M40.691,540.722l9.451-16.798c1.909-3.394,6.143-6.144,9.454-6.144h19.156
					c3.314,0,4.449,2.75,2.539,6.144l-9.45,16.798c-1.912,3.396-6.145,6.148-9.456,6.148H43.229
					C39.917,546.87,38.779,544.118,40.691,540.722z"/>
			</g>
			<g>
				<path fill="none"  d="M59.278,559.309l16.798-9.451c3.394-1.909,6.144-6.143,6.144-9.454v-19.156
					c0-3.314-2.75-4.449-6.144-2.539l-16.798,9.45c-3.396,1.912-6.148,6.145-6.148,9.456v19.156
					C53.129,560.082,55.881,561.221,59.278,559.309z"/>
			</g>
			<g>
				<path fill="none"  d="M106.161,559.309l-16.798-9.451c-3.394-1.909-6.144-6.143-6.144-9.454v-19.156
					c0-3.314,2.75-4.449,6.144-2.539l16.798,9.45c3.396,1.912,6.148,6.145,6.148,9.456v19.156
					C112.309,560.082,109.557,561.221,106.161,559.309z"/>
			</g>
			<g>
				<path fill="none"  d="M124.748,540.722l-9.451-16.798c-1.909-3.394-6.143-6.144-9.454-6.144H86.686
					c-3.314,0-4.449,2.75-2.539,6.144l9.45,16.798c1.912,3.396,6.145,6.148,9.456,6.148h19.156
					C125.521,546.87,126.66,544.118,124.748,540.722z"/>
			</g>
		</g>
	</g>
</g>
<g id="working">
</g>
<g id="header">
</g>
</svg>
