<?xml version="1.0" encoding="utf-8"?>
<!-- Generator: Adobe Illustrator 16.0.0, SVG Export Plug-In . SVG Version: 6.00 Build 0)  -->
<!DOCTYPE svg PUBLIC "-//W3C//DTD SVG 1.1//EN" "http://www.w3.org/Graphics/SVG/1.1/DTD/svg11.dtd">
<svg version="1.1" id="curves" xmlns="http://www.w3.org/2000/svg" xmlns:xlink="http://www.w3.org/1999/xlink" x="0px" y="0px"
	  viewBox="296.642 552.453 176.438 44.049"
	 enable-background="new 296.642 552.453 176.438 44.049" xml:space="preserve">
<g>
	<path d="M383.326,588.406c2.372,0,4.56-0.922,6.562-2.769c0.982-0.907,2.52-0.831,3.409,0.168c0.713,0.802,1.426,1.604,2.14,2.405
		c0.882,0.991,0.788,2.512-0.209,3.388c-3.752,3.274-7.739,4.911-11.963,4.91c-4.914,0-9.065-1.556-12.454-4.663
		c-3.39-3.108-5.083-7.169-5.082-12.184c0.001-5.014,1.717-9.094,5.148-12.24c3.431-3.147,7.502-4.721,12.212-4.72
		c2.355,0,4.743,0.488,7.157,1.464c1.694,0.684,3.245,1.599,4.653,2.745c1.002,0.816,1.175,2.282,0.388,3.31
		c-0.604,0.791-1.211,1.583-1.817,2.375c-0.802,1.047-2.299,1.248-3.35,0.449c-0.651-0.495-1.361-0.917-2.13-1.267
		c-1.522-0.69-3.035-1.037-4.536-1.038c-2.396,0-4.458,0.781-6.185,2.346c-1.727,1.563-2.59,3.734-2.591,6.518
		s0.861,4.945,2.588,6.488C378.991,587.635,381.012,588.406,383.326,588.406z"/>
	<path d="M349.193,553.436c1.321,0,2.392,1.072,2.392,2.393c-0.002,9.558-0.004,19.115-0.007,28.673
		c0,1.257,0.325,2.241,0.975,2.952c0.649,0.712,1.42,1.068,2.312,1.068c0.891,0,1.708-0.209,2.454-0.629
		c1.171-0.658,2.653-0.226,3.284,0.961c0.36,0.674,0.718,1.348,1.077,2.021c0.56,1.054,0.26,2.357-0.704,3.06
		c-2.377,1.713-4.831,2.567-7.359,2.567c-3.147,0-5.809-1.037-7.979-3.108c-2.171-2.072-3.256-4.894-3.255-8.468
		c0.001-9.699,0.004-19.399,0.006-29.1c0-1.321,1.07-2.392,2.394-2.392C346.25,553.435,347.722,553.436,349.193,553.436z"/>
	<path d="M328.233,557.3c-3.187-3.229-7.643-4.845-13.368-4.847c-5.725-0.001-10.192,1.633-13.401,4.9s-4.814,8.049-4.816,14.342
		c-0.001,7.305-0.003,14.607-0.005,21.911c0,1.322,1.071,2.394,2.392,2.394c1.573,0,3.146,0,4.72,0c1.32,0,2.393-1.07,2.394-2.393
		c0-1.734,0-3.469,0.001-5.203c0-1.32,1.071-2.392,2.393-2.391c4.172,0.001,8.343,0.001,12.514,0.003
		c1.321,0,2.393,1.072,2.392,2.393c0,1.734,0,3.47-0.001,5.203c0,1.321,1.07,2.394,2.393,2.394c1.593,0,3.186,0,4.776,0.001
		c1.321,0,2.394-1.07,2.394-2.393c0.001-7.424,0.003-14.849,0.005-22.273C333.012,565.209,331.419,560.528,328.233,557.3z
		 M323.448,575.219c-0.001,1.322-1.072,2.393-2.393,2.393c-4.171-0.001-8.342-0.002-12.515-0.003c-1.32,0-2.391-1.071-2.391-2.393
		c0-1.273,0-2.547,0.001-3.821c0-3.369,0.763-5.956,2.286-7.763c1.522-1.807,3.634-2.708,6.333-2.708s4.82,0.943,6.364,2.831
		c1.544,1.887,2.313,4.536,2.313,7.947C323.448,572.875,323.448,574.047,323.448,575.219z"/>
	<path d="M430.834,567.617c-3.287-3.27-7.418-4.904-12.394-4.905c-4.975-0.001-9.104,1.632-12.395,4.899
		c-3.289,3.269-4.936,7.278-4.937,12.029c-0.001,4.75,1.644,8.751,4.93,12.001c3.288,3.25,7.418,4.876,12.394,4.877
		c4.974,0.001,9.105-1.623,12.396-4.871c3.289-3.249,4.936-7.247,4.937-11.997C435.767,574.897,434.123,570.887,430.834,567.617z
		 M424.284,586.193c-1.522,1.685-3.473,2.525-5.85,2.525c-2.375,0-4.325-0.844-5.847-2.528c-1.522-1.685-2.284-3.867-2.283-6.546
		c0-2.68,0.763-4.873,2.286-6.578c1.522-1.705,3.472-2.557,5.848-2.557c2.377,0.001,4.326,0.854,5.848,2.56
		c1.522,1.706,2.283,3.899,2.282,6.578C426.569,582.328,425.808,584.51,424.284,586.193z"/>
	<path d="M451.576,577.764c-0.001,5.293-0.003,10.586-0.004,15.879c0,1.321-1.07,2.392-2.393,2.392c-1.45,0-2.901-0.001-4.352-0.001
		c-1.32,0-2.393-1.071-2.393-2.394c0.003-9.328,0.005-18.656,0.007-27.984c0-1.32,1.071-2.392,2.394-2.391
		c1.449,0,2.9,0,4.352,0.001c0.831,0,1.368,0.261,1.881,0.915c0.749,0.954,2.092,1.197,3.127,0.565
		c2.068-1.352,4.303-2.027,6.703-2.026c3.452,0,6.345,1.22,8.68,3.657c2.335,2.437,3.501,5.686,3.501,9.745
		c-0.001,5.843-0.003,11.684-0.004,17.525c-0.001,1.321-1.071,2.393-2.394,2.393c-1.451,0-2.901,0-4.352-0.002
		c-1.32,0-2.393-1.071-2.393-2.393c0.002-5.375,0.003-10.749,0.004-16.124c0.001-5.033-1.846-7.55-5.541-7.551
		c-1.828,0-3.422,0.658-4.784,1.977C452.259,573.267,451.577,575.206,451.576,577.764z"/>
</g>
</svg>
