<?xml version="1.0" encoding="utf-8"?>
<!-- Generator: Adobe Illustrator 16.0.0, SVG Export Plug-In . SVG Version: 6.00 Build 0)  -->
<!DOCTYPE svg PUBLIC "-//W3C//DTD SVG 1.1//EN" "http://www.w3.org/Graphics/SVG/1.1/DTD/svg11.dtd">
<svg version="1.1" id="Layer_1" xmlns="http://www.w3.org/2000/svg" xmlns:xlink="http://www.w3.org/1999/xlink" x="0px" y="0px"
	  viewBox="0 0 240 521" enable-background="new 0 0 240 521" xml:space="preserve">
<path  d="M75.006,390.395c0.244-0.431-0.308-1.293-0.498-1.684c-0.788-1.616-3.325-2.141-3.145-4.175
	c0.187-2.094,2.691-5.905-0.115-6.154c-1.285-0.114-3.534,0.397-3.81-1.145c-0.18-0.99,0.02-2.734,0.766-3.656
	c0.422-0.532,1.836-0.734,2.027-1.327c0.377-1.185,1.485-1.494,1.845-2.438c0.715-1.872,0.571-3.596,0.019-5.603
	c-0.274-0.989,0.042-2.249,1.197-2.733c1.231-0.532,2.288-2.384,2.446-3.649c0.444-3.549-0.089-6.93,2.096-10.33
	c0.603-0.929-1.177-1.178-2.099-1.71c-0.737-0.418-0.34-1.232,0.52-1.906c-0.693,0.964,0.655,0.829,0.739,1.374
	c0.561-0.593,1.471-1.165,1.517-1.805c0.076-1.063,0.648-2.08,0.816-3.063c1.044-6.074,3.037-14.04,6.621-16.72l0.2-0.007
	c0.098,0.868,0.786,1.569,0.768,2.472c-0.904-0.135-1.195-0.351-1.959,0.396c0.547,0.458,0.056,1.563,0.633,1.59
	c0.9,0.047,1.843,0.201,2.782,0.121c0.913-0.067,1.453,0.922,2.167,1.124c1.786,0.499,1.384-1.622,1.975-2.7
	c-0.988-0.417-0.446-1.407-0.606-2.101c-0.075-0.33-0.021-1.367,0.016-1.737c0.168-1.845-2.352-3.771-1.707-5.838
	c0.33-1.071,0.856-2.102,0.801-3.192c-0.152-2.922,1.202-5.806,0.183-8.727c1.231,0.072,2.375-0.526,3.389-0.97
	c1.623-0.715,0.979-3.217,2.389-4.431c-0.566-0.577,0.171-1.5-0.71-2.138c-0.734-0.527,1.012-0.956,0.252-1.686
	c0.379-0.04,0.999,0.104,0.95-0.373c-0.106-1.074-0.65-2.137-0.838-3.157c-0.091-0.503-0.587-1.803,0.444-1.964
	c0.884-0.139,1.116-0.872,1.72-1.151c0.31-0.146,0.968-0.214,0.943,0.264c-0.091,1.754,1.086,3.106,1.163,4.855
	c0.025,0.53,0.258,1.73,1.222,2.045c0.943,0.3,1.556-0.323,1.591-1.084c0.041-1.01-0.301-2.103-0.208-3.111
	c0.045-0.42,0.917-0.424,1.325-0.555c1.791-0.578,2.367,2.725,4.141,1.696c1.343-0.784,0.229-4.427,0.268-4.854
	c0.052-0.555-0.541-0.936-1.165-1.14c-1.047-0.343-1.798-1.343-3.118-1.273c-0.354,0.018-0.5-1.049-0.49-1.223
	c0.19-3.059-1.386-4.396-3.544-5.856c0.228-0.239,0.414-0.588,0.692-0.662c1.411-0.354,2.547,0.995,3.821,0.737
	c1.3-0.262,3.027-0.565,3.288-2.075c0.19-1.104-0.114-2.5-0.791-3.3c-0.998-1.182-1.439-2.25-1.877-3.616
	c-0.471-1.466,1.18-2.847,0.761-4.513c1.64-0.303,1.858,1.367,2.786,2.094c0.184,0.146,0.236,0.741-0.252,0.975
	c1.565,0.944,1.129,3.49,2.944,3.971c1.506,0.397,3.19,0.645,4.358,1.338c1.104,0.66,1.158,2.836,2.481,3.674
	c0.869,0.555,1.574,1.053,2.693,0.725c1.018-0.291,0.127-1.228,0.097-1.684c-0.106-1.722-1.648-3.227-1.702-5.2
	c-0.111-3.907-1.087-7.609-2.182-11.414c-0.2-0.697-1.121-1.076-1.609-1.766c-0.328-0.461-0.495-0.978-0.749-1.454
	c-0.946-1.779,0.451-4.121,1.005-6.103c1.483,1.264,1.111,4.382,3.027,4.378c2.259-0.01,4.607-2.378,5.257-4.207
	c0.653-1.832,1.677-4.975-0.657-6.754c-0.343-0.263-1.08-0.387-1.134-0.83c-0.071-0.591,0.593-1.197,0.724-1.715
	c0.539-2.104-0.379-4.234-0.83-6.343c1.076-0.034,1.702-0.619,2.628-0.891c0.626-0.183,1.66-0.308,2.081-1.128
	c1.396,0.953,1.293,2.785,1.101,4.379c-0.054,0.451,0.754,0.402,0.814,0.279c0.795-1.7,1.455-3.52,1.99-5.146
	c0.407-1.237-0.616-3.532-1.549-5.229c0.663-0.232,0.609-1.106,0.521-1.272c-1.384-2.776,2.974-12.321,5.565-8.021
	c-0.494-0.832-0.444-2.072-0.434-2.81c0.02-1.394-0.148-3.296,0.592-4.607c0.627-1.111,2.697,0.171,3.047-1.479
	c0.418-1.953,1.485-3.66,1.132-5.689c1.552-0.091,1.959-1.645,3.03-2.357c-0.498-0.623-1.656-1.104-1.488-1.613
	c0.279-0.82-0.431-1.64-0.812-1.838c-0.088-0.039,0.058-0.012,0,0c-0.047,0.015,0.044-0.023,0,0c-1.849,1.12-3.36,3.111-5.491,3.542
	c-1.054,0.207-2.414,0.729-2.744,1.374c-0.663,1.316-1.73,2.224-2.69,2.679c-6.222,2.958-11.26,8.523-16.876,12.171
	c-2.512,1.629-5.887,3.192-8.503,4.677c-0.29,0.163-0.537,0.984-0.074,1.543c-0.363,0.025-0.929-0.143-0.942,0.34
	c-0.049,1.613-1.045,2.779-2.157,3.15c-1.422,0.478-2.678,1.187-3.099,2.303c-0.543,1.441-1.66,2.108-2.663,2.778
	c-1.153,0.774-2.569,0.896-3.877,1.113c-2,0.335-1.631,3.096-3.397,4.454c-4.922,3.79-10.269,6.023-14.666,10.227
	c-0.756,0.724-0.938,2.37-1.887,2.673c-1.389,0.446-2.281,1.592-3.493,2.176c-2.759,1.335-7.459,6.569-10.141,8.271
	c-1.51,0.55-3.162,2.438-4.268,3.387c-1.409,1.212-3.49,1.298-5.274,2.093c-0.567,0.254-1.407,0.29-1.924-0.014
	c-0.707-0.411-1.217-0.576-1.906-0.741c-0.84-0.199-1.475-0.857-2.071-1.328c-1.296-1.022-2.468-2.123-3.585-3.274
	c-2.729-2.813-5.131-5.836-8.169-8.452c-2.357-2.032-4.389-4.12-6.348-6.434c-2.83-3.352-5.785-6.362-7.961-10.105
	c-0.593-1.005-1.631-1.692-2.194-2.739c-0.862-1.606-2.491-2.84-3.378-4.543c-1.248-2.397-3.607-4.291-3.623-7.013
	c-0.017-3.535,1.204-6.966,2.298-10.387c0.219-0.68,1.138-1.077,1.493-1.756c1.794-3.439,4.123-8.542,5.715-11.92
	c0.499-1.052,1.569-1.987,2.768-1.872c1.653,0.155,2.323-1.465,2.802-2.424c0.345-0.699-0.266-1.944-0.668-2.968
	c-0.296-0.761,0.242-1.746-0.116-2.643c1.771-0.237,3.4-2.442,4.454-1.14c0.943,1.17,1.959,1.992,3.286,2.057
	c1.131,0.054,0.864-0.863,1.729-1.515c0.301-0.219,0.858,0.007,1.277-0.114c1.207-0.355,1.197-2.286-0.006-2.584
	c-2.069-0.521-3.056-2.576-3.104-4.107c-0.072-2.537,1.21-6.542,3.508-8.027c0.453-0.293,1.981-0.862,2.237-0.636
	c1.332,1.195-0.179,4.05,2.12,4.439c1.266,0.216,3.54,0.014,3.334-1.439c-0.182-1.278-2.446-2.221-2.486-3.754
	c-0.065-2.615,3.62-2.228,4.486-3.875c1.88-3.576,2.35-8.254,0.958-12.351c-0.344-1.036,1.623-0.732,2.495-1.025
	c1.699-0.567,1.251,2.714,2.951,3.466c0.241-0.631,1.232-0.021,1.279-0.675l0.248-3.422c0.396-1.505,0.411-3,0.917-4.39
	c0.251-0.679,0.946-2.212,1.729-2.315c0.806-0.107,2.323-1.151,2.38-2.104c0.059-1.115-1.259-2.056-1.146-3.35
	c0.23-2.522,3.938-1.468,5.001-3.705c0.229,0.224,0.539,0.626,0.626,0.584c1.578-0.823,2.626-2.369,4.419-2.939
	c0.857-0.272,1.387,0.457,2.037,0.541c0.337,0.044,1.342,0.089,1.202-0.51c-0.079-0.343-0.061-0.799-0.078-1.131
	c-0.032-0.707-0.015-1.271,0.042-1.908c0.194-2.225-0.727-3.496-2.192-4.722c0.355-0.387,1.47-1.638,2.138-1.655
	c0.523-0.726,1.557-5.576,4.656-2.45c0.682,0.684,1.468-0.289,2.256-0.434c1.182-0.221,0.463-1.706,0.508-2.535
	c0.047-0.874,0.003-1.862,0.301-2.641c0.396-1.046,1.522-1.609,2.583-2.061c-0.114-0.111-0.226-0.223-0.333-0.333
	c0.445,0,0.943,0.111,1.318-0.057c1.833-0.845,1.397-2.759,1.707-4.316c0.113,0.113,0.224,0.298,0.336,0.298
	c0.111,0,0.221-0.261,0.333-0.261c0.111,0,0.224,0.185,0.335,0.296c0.343-1.512,1.707-2.512,2.022-4.035
	c1.168,0.357,0.503-1.002,1.358-1.313c0.332-0.122,0.862,0.134,0.949-0.374c0.021-0.091-0.178-0.214-0.29-0.332
	c1.38-0.023,2.025-1.194,2.549-2.096c0.389-0.679,0.316-1.714,0.316-2.609c0-2.286,1.045-4.643,2.173-6.528
	c0.687-1.143,2.724-2.706,4.042-0.537c1.028-1.175,0.096-3.246,1.71-3.522c0.627-0.106,1.04,0.988,1.941,1.3
	c1.609,0.545-0.825,3.022,1.089,3.399c1.827,0.365,1.552-0.981,2.18-2.439c0.377-0.872,1.869-0.375,2.769-0.629
	c1.135-0.325-0.106-1.864-0.609-2.478c-0.112,0.113-0.224,0.224-0.34,0.333c-0.021-0.362,0.165-0.893-0.34-0.957
	c-2.773-0.362-0.893-2.997-0.423-4.453c0.049-0.136-0.431-0.385-0.542-0.662c-0.146-0.34,1.142-0.34,0.296-0.988
	c1.076-0.153,2.555-0.064,2.83-1.066c0.116-0.409,0.138-1.067,0.199-1.629c0.325,0.094,0.576-0.273,0.642-0.244
	c1.33,0.503,3.249,2.788,3.478,0.887c0.158-1.357,0.484-3.748,1.719-4.475c0.321-0.19,1.345-0.188,1.398-0.559
	c0.197-1.323-0.975-2.459-1.374-3.725c-0.05-0.164,0.307-1.05,0.601-0.955c1.113,0.372,2.692,0.535,3.27-0.041
	c0.025-0.025-0.021,0.051,0,0c0.611-1.626-2.404-2.027-4.017-2.325c0.113-0.113,0.307-0.232,0.295-0.328
	c-0.041-0.259-0.303-0.435-0.635-0.342c0.38-0.651,0.325-1.537,1.035-1.985c0.167-0.101,0.495,0.044,0.616-0.071
	c0.988-0.936,1.47-2.512,0.389-3.676c-0.418-0.458,1.303-0.292,0.321-0.993c0.67,0,1.407,0.163,1.981-0.083
	c1.332-0.572,2.816-1.305,3.512-2.413c0.614-0.983,0.942-2.374,1.961-2.71c1.198-0.397,2.479-0.326,3.303-1.523
	c-0.559-0.336-0.263-0.885-0.333-1.345c0.454,0.071,1.007-0.222,1.343,0.336c1.411-1.118,1.169-3.219,2.458-4.242
	c0.765-0.606,2.502,0.106,2.788-1.173c0.528-2.367,1.687-4.127,3.3-5.521c0.952-0.832,2.656-0.922,3.384-1.971
	c0.565-0.805,0.006-2.254,0.363-3.16c0.707-1.786,2.814-2.423,3.656-4.204c0.266-0.572-0.377-1.66,0.563-2.214
	c1.057-0.614,2.249-0.076,2.996,0.961c1.107-1.527,0.172-3.434,1-5.052c0.906-1.776,1.542-3.986,3.158-4.784
	c1.259-0.618,2.515-1.226,3.094-2.343c0.569-1.092,1.276-2.271,1.155-3.626c0.367-0.027,0.798,0.136,1.01-0.337
	c0.825,0.423,0.913,2.017,1.142,1.798c2.205-2.062-0.229-5.794,1.088-8.417c0.552-1.114,2.38,0.029,3.417-0.57
	c0.279-0.164,0.993-0.298,0.966-1.224c-0.017-0.825,0.401,0.377,0.785,0.342c-0.213,1.01,0.131,1.979,1.043,2.239
	c0.701,0.195,1.822-0.372,2.172,0.207c0.492,0.823-0.377,2.096-0.246,2.887c0.216,1.259,1.276,2.527,1.943,3.814
	c0.373,0.721-0.956,1.441-0.765,2.258c0.684,2.83,1.556,5.555,1.017,8.397c-0.242,1.289-1.633,2.198-1.814,3.739
	c-0.182,1.594,1.565,2.343,1.559,4.039c-0.014,1.479,0.158,3.069-1.263,3.506c-0.505,0.155-1.249,0.111-1.545,0.579
	c-0.431,0.68,1.044,1.067,0.593,1.966c1.263,0.456,2.451,1.281,2.871,2.409c1.024,2.727-0.592,7.542,3.519,8.016
	c0.26,2.739,2.27,5.224,1.977,7.687c-0.465,3.852-4.505,9.976-7.434,12.749c-1.407-0.653-4.071,3.442-4.974,4.118
	c0.229,0.222,0.451,0.446,0.678,0.673c-0.728,0.616-0.502,1.599-1.023,2.345c-0.606,0.869-2.048,0.687-2.216,1.709
	c-0.364,2.103-2.283,3.636-3.488,5.36c0.656,0.45-0.04,1.039-0.151,1.276c-1.303,2.675-4.38,3.106-5.182,6.391
	c-0.186,0.761-2.38,0.625-2.542,1.779c-0.303,2.14-2.306,2.968-2.649,5.001c-0.192,1.134-1.737,0.226-2.195,1.054
	c-0.155,0.276,0.094,0.724,0.125,1c0.158,1.285-1.071,1.884-2.199,2.333c0.111,0.111,0.223,0.229,0.334,0.337
	c-1.297-0.153-1.435,1.313-2.354,1.685c0.552,1.163-0.543,2.365-1.377,2.51c-0.62,0.109-1.532-0.397-1.987-1.167
	c-0.134,0.527-0.952,0.14-0.973,0.673c-0.047,1.409,1.465,2.724,0.802,3.944c-0.583,1.072-1.316,2.18-2.26,3.035
	c-1.172,1.064-3.438,1.003-3.945,1.951c-0.641,1.185-0.273,3.193-0.748,4.84c-0.568,1.977-3.478,0.424-3.747,2.074
	c-0.132,0.819,0.835,2.695-0.284,3.193c-1.425,0.633-2.975,1.237-3.458,2.557c-0.497,1.365-2.384,2.21-1.977,3.515
	c0.044,0.152-0.005-0.128,0,0c0.03,0.833-0.658,1.463-0.821,2.061c-0.714,2.618-3.414,3.963-5.277,5.956
	c-0.256,0.274,0.405,1.479,0.047,2.126c-0.697,1.278-3.017,0.672-3.328,1.815c-0.256,0.931-0.549,2.312-0.109,3.215
	c0.928,1.892,3.724,1.838,4.891,3.771c1.163-0.882,0.658-2.961,0.259-4.121c-0.392-1.148,1.736-1.662,3.091-1.985
	c0.273-0.063,0.558-0.567,0.638-0.525c1.406,0.751,2.153,2.566,3.768,2.788c1.576,0.22,1.864-1.409,2.59-2.593
	c0.423-0.692-0.714-1.083-0.756-1.958c-0.038-0.716-0.096-1.391,0.53-1.603c0.816-0.271,1.79-0.25,2.642-0.01
	c1.023,0.284,1.142,2.091,1.643,1.991c2.192-0.439-0.592-3.242,0.172-5.052c0.273-0.665,1.458-0.77,1.754-0.292
	c0.479,0.787,0.653,1.902,1.529,2.131c0.438,0.109,1.377,0.012,1.498-0.269c1.088-2.47,3.286-2.448,5.478-2.884
	c2.148-0.433-1.677-4.306,0.229-4.365l3.582-0.059c0.216,0.089,0.421,0.194,0.616,0.312c0.084-0.217,0.636-0.466,0.838-0.479
	c-0.158-0.68,0.771-1.778-0.168-2.212c0.579-0.781,1.751-0.868,2.656-0.964c1.351-0.14,1.721-2.65,3.417-2.944
	c0.788-0.135,1.556,1.15,2.25,0.737c1.225-0.727,2.612,0.074,3.303-0.665c0.626-0.665,1.394-1.431,1.689-2.268
	c0.374-1.057-0.717-3.035,0.546-3.432c1.165-0.371,2.131,1.633,3.286,1.589c0.966-0.034,0.003-1.377,0.111-2.177
	c0.219-1.634,1.04-2.688,2.02-3.537c0.475-0.422,1.323-0.104,1.979,0.464c0.256,0.229,0.902,0.221,1.226,0.009
	c1.034-0.668,1.519-1.867,1.6-2.968c0.063-0.822-0.441-1.82,0.508-2.256c1.199-0.554,2.499-0.063,3.108,0.749
	c0.454,0.603-1.239,1.517-1.229,2.187c0.018,0.85,1.276,1.844,2.186,2.173c0.461,0.173,0.875-0.88,0.852-1.493
	c-0.027-0.815-0.761-1.641-0.751-2.355c0.014-1.722,0.853-3.7,2.535-3.818c1.135-0.078,2.014,1.852,3.323,1.626
	c1.283-0.222,1.283-2.372,2.435-2.648c1.084-0.268,1.521-1.067,1.801-1.635c0.374-0.747,0.63-1.856,1.239-2.098
	c0.7-0.276,1.861-0.5,2.532-0.04c0.889,0.614,1.084,1.973,2.138,2.501c0.491,0.246,1.107,0.27,1.656,0.305
	c1.023,0.072,2.32-0.111,2.563-1.286c0.172-0.843,0.649-1.36,1.172-1.537c0.531-0.183,0.949-0.392,1.306-0.791
	c1.202,1.219,4.151,0.389,4.812-0.646c0.3-0.468,2.175-1.087,2.175-1.706c-0.007-1.264,2.205-2.146,3.643-2.88
	c0.93-0.33,3.714,0.204,4.846,0.527c-0.118,0.111-0.428,0.527-0.415,0.62c0.095,0.513,0.836,0.557,1.202,0.587
	c-0.208,1.747,1.048,2.439,1.853,3.643c2.017,3.027,4.036,6.498,5.895,9.468c2.202,3.521,4.219,7.653,6.303,11.215
	c1.525,2.592,3.623,5.222,4.603,7.917c0.077,0.206-0.081-0.213,0,0c1.441,3.884,3.216,8.146,2.33,12.197
	c-0.69,3.153-3.959,4.989-5.852,7.902c-0.831,1.286-1.293,2.66-2.021,4.015c-0.612,1.136-1.356,1.715-2.303,2.495
	c-1.447,1.192-2.959,2.889-3.017,4.853c-0.037,1.059-0.845,1.973-1.179,2.456c-3.564,5.187-10.309,17.46-14.13,22.511
	c-1.249,1.651-6.286,11.092-7.307,12.895c-0.878,1.552-1.515,3.422-3.114,4.51c0.855,0.929-0.431,1.559-0.592,2.298
	c-0.239,1.069-0.934,2.372-2.102,3.086c0.858,0.926-0.441,1.528-0.575,2.313c-0.364,2.05-1.946,3.463-2.974,5.319
	c-0.871,1.576-2.182,3.155-2.811,4.63c-0.755,1.784-1.646,3.491-2.593,5.163l-0.337,0.584c-3.111,5.678-6.438,11.154-8.687,17.361
	c-0.34,0.926-1.761,1.587-1.946,2.468c-0.249,1.17-1.531,1.614-1.42,2.989c0.101,1.273-1.627,1.981-1.99,3.074
	c-0.397,1.2-0.67,2.497-1.326,3.562c-0.146,0.237-0.323,0.583-0.469,0.801c0,0-3.817,6.9-3.938,7.385
	c-0.121,0.48,0.337,1.379,0.215,1.788c-0.121,0.409-1.087,1.523-1.34,2.586c-0.256,1.062-1.458,2.465-1.946,3.168
	c-0.48,0.702-3.036,5.058-3.48,7.057c-0.445,2-6.202,12.537-6.899,13.505c-0.693,0.963-6.845,13.987-7.212,14.688
	c-0.363,0.707,0.092,1.778-0.403,3.192s-5.542,16.295-5.946,17.197c-0.407,0.896-0.858,1.226-1.212,1.758
	c-0.354,0.525-2.249,7.663-2.733,8.599c-0.488,0.942-0.963,0.937-1.102,2.114c-0.135,1.186-1.057,7.326-1.531,7.556
	c-0.481,0.229-1.563,1.158-1.572,1.75c-0.007,0.593-0.62,1.886-0.983,2.707c-0.374,0.829-2.404,2.095-1.514,5.784
	c0.894,3.684-1.589,3.293-1.85,4.943c-0.265,1.649-1.923,1.629-0.899,4.484c1.023,2.854-0.283,3.077-0.298,4.02
	c-0.015,0.943-1.528,11.38-1.904,12.673c-0.505,1.744,0.134,4.04,0,5.812c-0.182,2.403-0.805,5.178-2.294,7.434
	c0.922,0.397-0.28,1.219,0.336,1.677c-1.01,1.03-1.039,2.586-1.369,3.784c-0.33,1.192-0.431,2.802-0.227,4.323
	c0.133,0.963,0.543,2.356-0.422,3.326c0.792,0.485,0.409,1.542,0.4,2.021c-0.014,3.091,0.131,5.933-0.436,9.138
	c-0.73,4.128-0.365,8.255-0.372,12.39c0,0.479-0.392,1.535,0.408,2.014c-0.933,1.394-0.133,2.956-0.142,4.377
	c-0.015,2.882,0.409,5.798,0.737,8.706c0.29,2.62,1.389,5.158,1.828,7.818c0.224,1.313-0.64,2.949-0.514,4.303
	c0.49,5.238,3.219,9.892,3.986,15.178c0.369,2.552,3.063,3.185,3.412,5.373c0.165,1.051-0.322,2.047-0.773,3.071
	c-0.241,0.538,0.48,1.259,0.738,1.885c0.486,1.199,2.823,0.465,3.362,1.812c0.293,0.721-0.937,1.367-1.011,1.986
	c-0.147,1.226,1.832,2.067,1.633,3.313c-0.09,0.552,0.236,1.036,0.344,1.313c0.529,1.381,2.979,0.963,3.387,2.458
	c0.482,1.798,1.744,2.909,2.323,4.403c0.536,1.388,1.357,7.912-0.643,7.468c-3.942-0.875-7.191-4.235-6.886-7.757
	c0.189-2.175-2.316-3.865-3.443-5.515c-2.482-3.623-4.911-4.606-6.012-9.01c-0.17-0.667-1.078-0.041-1.32-0.674
	c-0.382,0.357-1.409,0.142-1.197,0.6c0.402,0.868-0.433,0.93-0.528,0.963c-3.05,1.104-5.333-3.057-6.761-5.468
	c-0.785-1.326-1.397-2.707-2.682-3.428c-2.459-1.373-2.657-4.201-4.995-5.932c-1.435-1.064-1.441-3.926-1.052-6.31
	c0.333-2.054-2.764-1.576-2.735-3.017c0.015-0.916-0.838-0.815-0.901-1.347c-0.67,0.814-1.345-0.566-2.019,0
	c-0.279-0.525-0.131-1.172-0.397-1.644c-0.392-0.687-1.101-1.084-1.589-1.744c-3.261-4.41-4.858-9.15-7.239-13.864
	c-0.369-0.728,0.965-2.081-0.192-2.923c-0.214,0.472-0.791,0.438-0.929,0.27c-0.904-1.098-2.803-0.545-2.81-1.623
	c-0.003-1.003-0.715-2.652-1.35-2.761c-1.185-0.195-2.284-0.801-3.214-1.191c-0.939-0.391-0.825-2.768-2.143-2.889
	c-1.005-0.088-1.914-0.626-2-1.563c0.226,0,0.527,0.074,0.633-0.04c0.578-0.627,1.266-1.435,0.638-2.256
	c-0.667-0.869-1.566-0.855-2.583-1.179c-1.043-0.33-0.363-1.421-0.397-2.242c-0.049-1.253-1.34-1.979-1.498-3.051
	c-0.121-0.801-1.057-1.589-0.417-2.262c0.857-0.909,0.283-1.886,0.441-2.788c0.323-1.865-2.227-3.185-1.658-4.949
	c0.083-0.263,0.921-0.814,1.857-0.532c0.525,0.148,0.422-0.989,0.417-1.212c-0.096-2.7-1.028-5.333-1.565-8.121
	c-0.258-1.354,0.576-2.949,0.547-4.316c-0.101-3.912,0.549-8.073-1.291-11.696c-0.284-0.559-0.944-1.205-1.032-1.784
	c-0.206-1.407,1.5-1.421,2.299-2.033h2.428c0.16,0.417,0.4,0.801,0.796,1.11c0.374,0.29,0.694,0.236,1.059,0.27
	C71.143,391.95,74.398,391.459,75.006,390.395L75.006,390.395z"/>
</svg>
