
<svg version="1.1" id="Layer_1" xmlns="http://www.w3.org/2000/svg" xmlns:xlink="http://www.w3.org/1999/xlink" x="0px" y="0px"
	 width="100%" height="100%	" viewBox="0 0 565.5 81.5" enable-background="new 0 0 565.5 81.5" xml:space="preserve">
<path d="M293.395,25.147L282.696,43.3h8.823L293.395,25.147L293.395,25.147z M111.353,9.77l-8.595,0.008L86.814,46.963
	c2.431-0.395,9.822-1.487,11.614-2.017c2.206-0.655,3.967-2.832,6.485-8.252c2.517-5.438,6.332-15.202,8.359-20.193
	C115.302,11.509,113.462,9.77,111.353,9.77L111.353,9.77z M448.183,4.534c4.631,0,6.761,3.924,2.265,8.487
	c-4.491,4.563-50.047,54.287-51.576,56.026c-1.533,1.739-2.219,3.479,0.521,3.479l27.609-0.024l-2.441,6.294l-42.795,0.025
	c-5.059,0.008-6.883-3.463-2.08-8.681c4.803-5.211,50.993-54.942,52.766-56.893c1.773-1.958,1.273-2.823-0.411-2.823l-25.038,0.017
	l2.13-5.891L448.183,4.534L448.183,4.534z M356.337,4.584c0,0-24.875,59.086-26.774,63.212c-1.895,4.126,0.534,4.773,2.85,4.773
	l16.23-0.009l-2.445,6.294l-29.551,0.009c-5.483,0.009-7.441-3.681-4.479-10.622c2.958-6.95,27.475-63.657,27.475-63.657H356.337
	L356.337,4.584z M310.601,4.601l-6.244,74.279l-16.487,0.009l3.193-30.169l-13.488,0.008l-19.929,30.178l-15.854,0.008
	c0,0,45.442-67.085,47.072-69.472c1.631-2.387,5.08-4.832,7.396-4.832L310.601,4.601L310.601,4.601z M266.837,4.618l-31.579,74.304
	l-17.33,0.009l32.208-74.305L266.837,4.618L266.837,4.618z M401.371,4.56l-31.576,74.304l-17.328,0.009l32.207-74.305L401.371,4.56
	L401.371,4.56z M241.248,4.635l-2.412,5.269l-21.962,0.018c-5.481,0-6.061,2.395-7.303,4.991
	c-1.242,2.613-21.658,50.589-22.899,53.194s-1.118,4.563,2.464,4.555l17.237-0.008h5.105l-1.981,6.285l-35.5,0.025
	c-6.324,0-7.584-4.117-5.277-9.546c2.307-5.421,23.591-54.926,25.309-59.271c1.717-4.336,6.399-5.496,11.458-5.504L241.248,4.635
	L241.248,4.635z M189.154,4.66l-2.605,5.067l-19.857,0.008c-5.479,0.009-7.399,1.521-9.296,5.647
	c-1.895,4.126-9.916,23.295-9.916,23.295l21.334-0.017l-2.844,5.386l-20.656,0.018c0,0-7.956,18.219-9.918,22.773
	c-1.964,4.563-1.532,5.865,1.84,5.865l17.24-0.017h5.103l-2.653,6.294l-34.826,0.017c-4.849,0-8.059-2.378-5.032-9.765
	c3.027-7.378,21.723-51.018,24.307-56.875c2.584-5.865,6.662-7.681,12.563-7.689L189.154,4.66L189.154,4.66z M507.924,4.509
	l-2.605,5.067l-19.854,0.008c-5.482,0.009-7.403,1.53-9.298,5.656c-1.896,4.117-9.916,23.286-9.916,23.286l21.332-0.009
	l-2.841,5.378l-20.66,0.018c0,0-7.953,18.219-9.916,22.773c-1.966,4.563-1.533,5.865,1.841,5.865l17.235-0.008l5.105-0.009
	l-2.651,6.294l-34.828,0.018c-4.845,0.008-8.06-2.379-5.034-9.757c3.029-7.378,21.728-51.018,24.312-56.884
	c2.584-5.865,6.664-7.681,12.563-7.681L507.924,4.509L507.924,4.509z M124.945,4.685c6.111,0,8.87,4.647,6.363,11.379
	c-2.506,6.723-5.338,12.799-9.544,22.354c-4.202,9.555-7.109,10.639-15.074,11.731c-7.962,1.084-22.864,3.159-22.864,3.159
	L72.545,79.031L56.267,79.04L89.14,4.702L124.945,4.685L124.945,4.685z M80.453,4.71l-2.559,5.169L53.998,9.812
	c-3.162,0-4.937,1.958-6.632,4.773c-1.697,2.823-2.242,5-3.826,8.471c-1.588,3.471-1.521,7.168,1.487,9.546
	c3.006,2.387,6.553,5.773,9.664,8.462c5.769,4.992,7.362,7.328,2.721,18.01c-3.582,8.26-1.752,4.563-4.924,11.513
	c-3.17,6.949-6.78,8.471-12.261,8.471L2.449,79.073l3.288-6.294l23.397-0.009c4.216,0,5.393-2.177,7.221-5.865
	c1.83-3.689,2.418-4.782,4.727-10.202c2.305-5.429,2.914-8.034-0.204-11.076c-3.12-3.033-7.223-6.504-11.86-10.63
	c-4.639-4.118-4.473-5.202-2.099-11.068c2.37-5.856,3.305-7.814,5.611-13.243c2.305-5.421,6.624-5.958,11.051-5.967L80.453,4.71
	L80.453,4.71z M510.491,72.451h4.177c4.219-0.009,5.391-2.177,6.907-5.219c1.521-3.033,19.773-45.16,21.841-50.37
	c2.059-5.211,0.576-6.514-2.588-6.505h-10.916l-26.581,62.094h5.265H510.491L510.491,72.451z M483.986,78.653l31.887-74.438
	l40.48-0.009c5.899-0.008,7.042,6.067,5.319,10.412c-1.719,4.345-21.206,49.244-23.513,54.665
	c-2.308,5.437-5.647,9.345-11.337,9.345L483.986,78.653L483.986,78.653z"/>
</svg>
