<?xml version="1.0" encoding="utf-8"?>
<!-- Generator: Adobe Illustrator 16.0.0, SVG Export Plug-In . SVG Version: 6.00 Build 0)  -->
<!DOCTYPE svg PUBLIC "-//W3C//DTD SVG 1.1//EN" "http://www.w3.org/Graphics/SVG/1.1/DTD/svg11.dtd" [
	<!ENTITY ns_flows "http://ns.adobe.com/Flows/1.0/">
	<!ENTITY ns_extend "http://ns.adobe.com/Extensibility/1.0/">
	<!ENTITY ns_ai "http://ns.adobe.com/AdobeIllustrator/10.0/">
	<!ENTITY ns_graphs "http://ns.adobe.com/Graphs/1.0/">
]>
<svg version="1.1" xmlns:x="&ns_extend;" xmlns:i="&ns_ai;" xmlns:graph="&ns_graphs;"
	 xmlns="http://www.w3.org/2000/svg" xmlns:xlink="http://www.w3.org/1999/xlink" xmlns:a="http://ns.adobe.com/AdobeSVGViewerExtensions/3.0/"
	 x="0px" y="0px" width="683px" height="768px" viewBox="0 0 683 768" enable-background="new 0 0 683 768" xml:space="preserve">

<g id="content">
	<g>
		<path fill="none" stroke="#FFFFFF" stroke-linecap="round" stroke-linejoin="round" d="M432.62,439.17
			c-0.78-0.07-1.56-0.11-2.34-0.14c-0.75-0.02-1.66-0.05-2.41-0.04c-0.35,0-0.69,0.02-1.04,0.03c-0.44,0.02-0.88,0.03-1.31,0.05
			c-0.81,0.04-1.62,0.12-2.43,0.2c-0.78,0.08-1.56,0.18-2.34,0.29c-0.79,0.12-1.59,0.24-2.37,0.38c-0.38,0.07-0.76,0.15-1.15,0.23
			c-0.45,0.09-0.89,0.19-1.33,0.28c-0.74,0.16-1.47,0.36-2.2,0.56c-0.4,0.1-0.79,0.2-1.18,0.32c-0.36,0.1-0.72,0.21-1.08,0.32
			c-0.76,0.23-1.52,0.48-2.27,0.74c-1.36,0.46-3.2,1.15-4.52,1.71c-0.34,0.14-0.68,0.29-1.02,0.45c-0.39,0.17-0.78,0.34-1.17,0.51
			c-0.7,0.31-1.39,0.65-2.08,0.99c-1.46,0.72-2.89,1.46-4.3,2.25c-0.67,0.38-1.35,0.75-2.01,1.15c-0.31,0.19-1.78,1.08-2.08,1.27
			c-1.16,0.73-2.9,1.9-4.02,2.69c-1.14,0.81-2.69,1.95-3.81,2.8c-0.64,0.5-1.27,1.01-1.91,1.52c-0.63,0.51-1.25,1.02-1.87,1.55
			c-1.2,1.03-2.39,2.08-3.55,3.15c-0.58,0.54-1.15,1.08-1.73,1.62c-0.6,0.57-1.19,1.16-1.77,1.75c-1.57,1.59-1.79,1.8-3.31,3.45
			c-1.09,1.18-2.16,2.39-3.2,3.61"/>
		<path fill="none" stroke="#FFFFFF" stroke-linecap="round" stroke-linejoin="round" d="M439.14,439.91
			c-0.85-0.24-1.71-0.47-2.57-0.66c-0.43-0.1-0.86-0.19-1.3-0.28c-0.43-0.09-0.86-0.18-1.3-0.26c-0.87-0.15-1.74-0.28-2.62-0.4
			c-0.88-0.11-1.75-0.21-2.64-0.28"/>
		<path fill="none" stroke="#FFFFFF" stroke-linecap="round" stroke-linejoin="round" d="M449.43,443.99
			c-0.82-0.43-1.65-0.84-2.49-1.23c-0.42-0.19-0.85-0.37-1.27-0.55c-0.43-0.18-0.85-0.37-1.28-0.54c-0.86-0.34-1.73-0.65-2.61-0.95
			c-0.87-0.3-1.75-0.57-2.64-0.82"/>
		<path fill="none" stroke="#FFFFFF" stroke-linecap="round" stroke-linejoin="round" d="M447.79,443.17
			c-0.42-0.2-0.84-0.37-1.26-0.56c-0.42-0.18-0.84-0.36-1.27-0.53c-0.73-0.28-1.84-0.67-2.59-0.91c-0.87-0.28-1.75-0.53-2.64-0.76
			c-0.88-0.23-1.78-0.41-2.68-0.6"/>
		<path fill="none" stroke="#FFFFFF" stroke-linecap="round" stroke-linejoin="round" d="M510.96,442.35L510.96,442.35
			c0,0,0,0.01,0.01,0.01c0,0.01,0.01,0.02,0.01,0.03c0.02,0.04,0.04,0.08,0.06,0.13c0.07,0.15,0.14,0.3,0.21,0.45
			c0.1,0.21,0.2,0.41,0.31,0.61c0.21,0.4,0.43,0.8,0.65,1.2c0.45,0.8,0.92,1.57,1.41,2.33"/>
		<path fill="none" stroke="#FFFFFF" stroke-linecap="round" stroke-linejoin="round" d="M439.14,439.91
			c-2.27-0.64-4.56-1.13-6.9-1.47"/>
		<path fill="none" stroke="#FFFFFF" stroke-linecap="round" stroke-linejoin="round" d="M448.97,443.76c-2.1-1.08-4.25-2-6.48-2.79
			"/>
		<path fill="none" stroke="#FFFFFF" stroke-linecap="round" stroke-linejoin="round" d="M476.17,543.55
			c4.45-17.54,5.89-36.8,2.36-54.79c-0.45-2.32-0.99-4.61-1.62-6.88c-0.6-2.17-1.28-4.31-2.05-6.42c-0.82-2.23-1.72-4.41-2.74-6.56
			c-0.96-2.02-2-3.98-3.16-5.89c-4.75-7.88-11.2-14.64-19.44-18.97"/>
		<path fill="none" stroke="#FFFFFF" stroke-linecap="round" stroke-linejoin="round" d="M463.36,399.58
			c1.64,0.54,3.92,1.59,5.47,2.33c1.79,0.85,3.56,1.77,5.3,2.72"/>
		<path fill="none" stroke="#FFFFFF" stroke-linecap="round" stroke-linejoin="round" d="M421.89,624.29
			c1.7-1.11,3.36-2.28,4.99-3.49c1.69-1.26,3.33-2.56,4.93-3.91c1.56-1.32,3.09-2.67,4.58-4.07c1.52-1.43,3.01-2.9,4.46-4.41
			c1.42-1.48,2.8-2.99,4.15-4.54c1.37-1.58,2.7-3.18,4-4.82c1.28-1.62,2.52-3.26,3.72-4.93c1.22-1.69,2.4-3.41,3.54-5.16
			c2.27-3.47,4.39-7.03,6.36-10.68c1.97-3.66,3.79-7.38,5.46-11.18c1.67-3.8,3.17-7.67,4.53-11.6c1.35-3.93,2.54-7.9,3.57-11.94"/>
		<path fill="none" stroke="#FFFFFF" stroke-linecap="round" stroke-linejoin="round" d="M391.36,446.21
			c-1.34,0.69-2.66,1.41-3.96,2.16c-0.64,0.37-1.28,0.76-1.91,1.15c-0.65,0.4-1.3,0.79-1.94,1.21c-1.26,0.82-2.5,1.67-3.73,2.55
			c-0.71,0.5-1.41,1.02-2.1,1.54c-0.52,0.38-1.02,0.77-1.53,1.17c-0.52,0.41-1.03,0.83-1.55,1.24c-0.66,0.53-1.31,1.07-1.95,1.63
			c-1.14,0.98-2.27,1.98-3.38,3.01c-1.11,1.03-2.2,2.07-3.26,3.14c-0.44,0.44-0.87,0.88-1.31,1.33c-0.62,0.63-1.22,1.28-1.82,1.94"
			/>
		<path fill="none" stroke="#FFFFFF" stroke-linecap="round" stroke-linejoin="round" d="M399.68,442.49
			c-1.65,0.63-2.02,0.79-3.64,1.5c-1.54,0.68-2.06,0.92-3.57,1.67"/>
		<path fill="none" stroke="#FFFFFF" stroke-linecap="round" stroke-linejoin="round" d="M414.28,438.57
			c-0.93,0.15-1.86,0.29-2.78,0.49c-0.57,0.12-2.2,0.46-2.76,0.59c-0.44,0.1-2.3,0.61-2.72,0.72c-0.91,0.25-1.8,0.54-2.7,0.83"/>
		<path fill="none" stroke="#FFFFFF" stroke-linecap="round" stroke-linejoin="round" d="M458.01,449.54
			c-0.67-0.52-1.33-1.04-2.03-1.53c-0.26-0.19-1.82-1.25-2.09-1.43c-1.31-0.85-2.99-1.82-4.38-2.55"/>
		<path fill="none" stroke="#FFFFFF" stroke-linecap="round" stroke-linejoin="round" d="M458.01,449.54
			c-1.9-1.49-3.86-2.84-5.93-4.07"/>
		<path fill="none" stroke="#FFFFFF" stroke-linecap="round" stroke-linejoin="round" d="M368.69,462.45
			c-1.99,1.87-3.91,3.81-5.76,5.81"/>
		<path fill="none" stroke="#FFFFFF" stroke-linecap="round" stroke-linejoin="round" d="M378.52,454.22
			c-2.28,1.69-4.49,3.46-6.63,5.32"/>
		<path fill="none" stroke="#FFFFFF" stroke-linecap="round" stroke-linejoin="round" d="M388.92,447.52
			c-2.4,1.33-4.71,2.76-6.98,4.29"/>
		<path fill="none" stroke="#FFFFFF" stroke-linecap="round" stroke-linejoin="round" d="M428.71,438.03
			c-3.23-0.27-6.43-0.27-9.66-0.02c-3.23,0.25-6.4,0.75-9.56,1.48c-3.16,0.73-6.23,1.66-9.27,2.79c-3.04,1.13-5.97,2.44-8.86,3.93"
			/>
		<path fill="none" stroke="#FFFFFF" stroke-linecap="round" stroke-linejoin="round" d="M175.3,343.95
			c-0.39-0.01-0.78-0.01-1.16-0.02c-0.19,0-0.39-0.01-0.58-0.01c-0.19,0-0.38,0-0.58-0.04c-0.83-0.14-1.38-0.7-1.6-1.51"/>
		<path fill="none" stroke="#FFFFFF" stroke-linecap="round" stroke-linejoin="round" d="M381.63,236.67
			c6.38,0.55,12.73,1.27,19.07,2.16"/>
		<path fill="none" stroke="#FFFFFF" stroke-linecap="round" stroke-linejoin="round" d="M511.15,350.53
			c0.57-0.29,1.04-0.72,1.39-1.25"/>
		<path fill="none" stroke="#FFFFFF" stroke-linecap="round" stroke-linejoin="round" d="M167.89,360.86
			c-0.57,1.32-0.92,2.45-1.03,3.9"/>
		<path fill="none" stroke="#FFFFFF" stroke-linecap="round" stroke-linejoin="round" d="M168.58,359.28
			c-0.21,0.53-0.46,1.05-0.69,1.58"/>
		<path fill="none" stroke="#FFFFFF" stroke-linecap="round" stroke-linejoin="round" d="M499.01,356.9
			c0.09-0.97,0.11-1.92-0.01-2.89"/>
		<path fill="none" stroke="#FFFFFF" stroke-linecap="round" stroke-linejoin="round" d="M272.17,659.97
			c4.53-2.07,7.88-5.57,10.14-9.96c2.22-4.32,3.27-9.23,3.61-14.01c0.68-9.54-1.32-19.74-4.19-28.66"/>
		<path fill="none" stroke="#FFFFFF" stroke-linecap="round" stroke-linejoin="round" d="M164.79,565.14
			c0.66-2.43,1.58-4.78,2.87-6.95c0.64-1.09,1.37-2.1,2.19-3.06c0.41-0.48,0.84-0.93,1.27-1.38c0.43-0.46,0.86-0.91,1.3-1.37"/>
		<path fill="none" stroke="#FFFFFF" stroke-linecap="round" stroke-linejoin="round" d="M252.09,669.14
			c-0.57,0.26-1.13,0.52-1.7,0.78c-0.57,0.26-1.13,0.52-1.71,0.75c-1.17,0.46-2.35,0.81-3.58,1.06c-2.45,0.5-4.95,0.58-7.43,0.36"/>
		<path fill="none" stroke="#FFFFFF" stroke-linecap="round" stroke-linejoin="round" d="M272.17,659.97
			c-5.82,2.66-11.64,5.32-17.46,7.97"/>
		<path fill="none" stroke="#FFFFFF" stroke-linecap="round" stroke-linejoin="round" d="M215.15,531.62
			c-1.84-0.57-3.69-1.02-5.59-1.34"/>
		<path fill="none" stroke="#FFFFFF" stroke-linecap="round" stroke-linejoin="round" d="M147,378.29c0.87-2.49,2.06-4.95,3.67-7.06
			c1.6-2.1,3.66-3.91,6.16-4.89"/>
		<path fill="none" stroke="#FFFFFF" stroke-linecap="round" stroke-linejoin="round" d="M148.11,409
			c-1.86-4.83-2.91-10.11-3.14-15.27c-0.23-5.12,0.34-10.55,2.03-15.44"/>
		<path fill="none" stroke="#FFFFFF" stroke-linecap="round" stroke-linejoin="round" d="M169.14,364.49
			c4.3-0.52,8.23,1.51,11.24,4.25c3.05,2.77,5.41,6.46,7.1,10.17"/>
		
			<line fill="none" stroke="#FFFFFF" stroke-linecap="round" stroke-linejoin="round" x1="182.72" y1="411.77" x2="194.85" y2="412.73"/>
		<path fill="none" stroke="#FFFFFF" stroke-linecap="round" stroke-linejoin="round" d="M203.78,412.56
			c-2.58,0.21-6.33,0.38-8.93,0.17"/>
		<path fill="none" stroke="#FFFFFF" stroke-linecap="round" stroke-linejoin="round" d="M474.92,396.12
			c-1.84-2.1-3.25-4.58-4.25-7.18"/>
		<path fill="none" stroke="#FFFFFF" stroke-linecap="round" stroke-linejoin="round" d="M489.04,353.27c3.52,0.26,6.7,1.8,9.3,4.14
			c2.58,2.33,4.5,5.35,5.77,8.57"/>
		
			<line fill="none" stroke="#FFFFFF" stroke-linecap="round" stroke-linejoin="round" x1="489.04" y1="353.27" x2="490.07" y2="353.34"/>
		<path fill="none" stroke="#FFFFFF" stroke-linecap="round" stroke-linejoin="round" d="M489.55,353.32
			c0.17,0.01,0.34,0.02,0.51,0.03"/>
		
			<line fill="none" stroke="#FFFFFF" stroke-linecap="round" stroke-linejoin="round" x1="498.56" y1="356.84" x2="502.2" y2="357.11"/>
		
			<line fill="none" stroke="#FFFFFF" stroke-linecap="round" stroke-linejoin="round" x1="504.11" y1="365.98" x2="516.26" y2="366.41"/>
		<path fill="none" stroke="#FFFFFF" stroke-linecap="round" stroke-linejoin="round" d="M471.82,364.84
			c1.23-2.51,2.87-4.85,4.9-6.79"/>
		<path fill="none" stroke="#FFFFFF" stroke-linecap="round" stroke-linejoin="round" d="M515.09,391.18
			c1.79,0.09,3.57,0.17,5.36,0.26"/>
		<path fill="none" stroke="#FFFFFF" stroke-linecap="round" stroke-linejoin="round" d="M521.61,366.64
			c-1.78-0.09-3.57-0.16-5.35-0.23"/>
		
			<line fill="none" stroke="#FFFFFF" stroke-linecap="round" stroke-linejoin="round" x1="515.09" y1="391.18" x2="502.95" y2="390.57"/>
		<path fill="none" stroke="#FFFFFF" stroke-linecap="round" stroke-linejoin="round" d="M160.62,424.61
			c-3.07-1.46-5.65-3.95-7.65-6.62c-2.04-2.72-3.65-5.82-4.86-8.98"/>
		<path fill="none" stroke="#FFFFFF" stroke-linecap="round" stroke-linejoin="round" d="M170.11,341.97
			c-0.31-0.24-0.52-0.56-0.65-0.92c-0.16-0.46-0.2-0.95-0.16-1.43c0.04-0.58,0.17-1.12,0.37-1.67c0.18-0.51,0.54-1.28,0.76-1.77
			c0.86-1.89,1.75-3.76,2.66-5.62c0.92-1.86,1.85-3.71,2.82-5.54c0.97-1.84,1.96-3.66,2.99-5.46c4.1-7.24,8.59-14.15,13.59-20.79"/>
		<path fill="none" stroke="#FFFFFF" stroke-linecap="round" stroke-linejoin="round" d="M187.9,342.76
			c-2.98-0.09-5.96-0.16-8.94-0.23c-1.49-0.04-2.98-0.07-4.47-0.1c-0.75-0.01-1.49-0.03-2.24-0.04c-0.19-0.01-0.39-0.01-0.58-0.01
			c-0.2,0-0.4,0-0.59-0.02c-0.36-0.05-0.69-0.17-0.97-0.39"/>
		<path fill="none" stroke="#FFFFFF" stroke-linecap="round" stroke-linejoin="round" d="M381.32,233.88
			c-18.06-1.53-36.24,0.32-53.73,4.89c-17.51,4.57-34.26,11.85-49.75,21.23c-15.51,9.39-29.73,20.88-42.35,33.94
			c-12.64,13.08-23.63,27.7-32.83,43.43"/>
		<path fill="none" stroke="#FFFFFF" stroke-linecap="round" stroke-linejoin="round" d="M471.4,339.28
			c-1.34-0.08-2.38-0.46-3.48-1.23c-1-0.7-1.92-1.64-2.7-2.58c-1.65-2-2.8-4.09-3.99-6.36"/>
		<path fill="none" stroke="#FFFFFF" stroke-linecap="round" stroke-linejoin="round" d="M493.22,339.7
			c-1.94-0.02-3.86,0.07-5.78,0.32c-0.96,0.12-1.91,0.29-2.86,0.5c-0.94,0.2-1.88,0.44-2.82,0.65c-1.95,0.45-3.7,0.75-5.73,0.23
			c-0.95-0.24-1.83-0.61-2.71-1.02c-0.66-0.31-1.31-0.64-1.97-0.94c-0.17-0.07-0.33-0.15-0.5-0.21c-0.04-0.02-0.08-0.03-0.13-0.05
			c-0.01,0-0.02-0.01-0.03-0.01c-0.01,0-0.01,0-0.01,0l0,0"/>
		<path fill="none" stroke="#FFFFFF" stroke-linecap="round" stroke-linejoin="round" d="M337.43,692.71
			c6.29-5.22,10.64-12.12,13.47-19.68c2.82-7.54,4.13-15.69,4.47-23.67c0.68-15.93-2.4-32.6-7-47.65"/>
		<path fill="none" stroke="#FFFFFF" stroke-linecap="round" stroke-linejoin="round" d="M184.53,461.62
			c-3.55,2.83-6.55,6.21-9.04,10"/>
		<path fill="none" stroke="#FFFFFF" stroke-linecap="round" stroke-linejoin="round" d="M208.26,448.63
			c2.13-0.11,4.26-0.1,6.4,0.02c2.2,0.12,4.38,0.35,6.56,0.68c4.91,0.74,9.65,1.95,14.36,3.51c8.78,2.93,17.21,7.07,25.11,11.85
			c15.74,9.53,30.29,22.14,42.76,35.59c12.6,13.57,23.88,28.84,33.3,44.81c9.39,15.92,17.38,33.32,22.75,51.09"/>
		<path fill="none" stroke="#FFFFFF" stroke-linecap="round" stroke-linejoin="round" d="M186.52,455.06
			c2.53-1.55,5.15-2.78,7.94-3.77"/>
		<path fill="none" stroke="#FFFFFF" stroke-linecap="round" stroke-linejoin="round" d="M209.16,454.02
			c4.14,0.42,8.17,1.21,12.19,2.28c4.63,1.24,9.11,2.83,13.52,4.7c8.2,3.49,16.06,7.93,23.46,12.9
			c14.72,9.89,28.31,22.34,40.07,35.57c11.86,13.33,22.51,28.13,31.45,43.6c8.91,15.41,16.52,32.17,21.73,49.27"/>
		
			<line fill="none" stroke="#FFFFFF" stroke-linecap="round" stroke-linejoin="round" x1="178.29" y1="460.09" x2="186.52" y2="455.06"/>
		<path fill="none" stroke="#FFFFFF" stroke-linecap="round" stroke-linejoin="round" d="M195.7,458.28
			c-5.46,0.88-10.69,2.7-15.44,5.62"/>
		<path fill="none" stroke="#FFFFFF" stroke-linecap="round" stroke-linejoin="round" d="M348.38,601.7
			c-5.08-16.6-12.47-32.86-21.13-47.82c-8.7-15.02-19.06-29.41-30.59-42.35c-11.45-12.84-24.66-24.92-38.98-34.5
			c-7.19-4.8-14.82-9.1-22.8-12.46c-4.3-1.81-8.65-3.34-13.16-4.52c-3.91-1.03-7.84-1.76-11.86-2.15"/>
		<path fill="none" stroke="#FFFFFF" stroke-linecap="round" stroke-linejoin="round" d="M359.5,596.19
			c4.69,15.49,7.78,32.63,7,49.01c-0.39,8.21-1.79,16.58-4.73,24.31c-2.95,7.76-7.44,14.83-13.89,20.2"/>
		<path fill="none" stroke="#FFFFFF" stroke-linecap="round" stroke-linejoin="round" d="M351.58,602.35
			c4.72,15.49,7.89,32.64,7.18,49.04c-0.36,8.21-1.7,16.61-4.61,24.36c-2.91,7.78-7.38,14.88-13.83,20.27"/>
		
			<line fill="none" stroke="#FFFFFF" stroke-linecap="round" stroke-linejoin="round" x1="211.55" y1="534" x2="215.14" y2="531.59"/>
		<path fill="none" stroke="#FFFFFF" stroke-linecap="round" stroke-linejoin="round" d="M287.18,587.29
			c3.65,7.69,6.72,15.89,8.76,24.18c2,8.14,3.16,17.09,2.34,25.55c-0.41,4.26-1.34,8.52-3.04,12.47c-1.71,3.96-4.18,7.5-7.58,10.21
			c-3.41,2.72-7.38,4.29-11.64,4.91c-4.23,0.62-8.55,0.28-12.68-0.61"/>
		<path fill="none" stroke="#FFFFFF" stroke-linecap="round" stroke-linejoin="round" d="M259.07,546.46
			c1.43,1.49,2.83,3.02,4.2,4.58c1.37,1.56,2.7,3.14,4.01,4.75c2.62,3.23,5.09,6.55,7.45,9.97s4.57,6.93,6.65,10.52
			c2.08,3.6,4.02,7.26,5.8,11.02"/>
		<path fill="none" stroke="#FFFFFF" stroke-linecap="round" stroke-linejoin="round" d="M259.07,546.46
			c5.31,5.54,10.22,11.54,14.64,17.82c4.42,6.28,8.43,12.93,11.89,19.8"/>
		<path fill="none" stroke="#FFFFFF" stroke-linecap="round" stroke-linejoin="round" d="M226.04,522.22
			c12.35,5.35,23.85,14.65,33.03,24.23"/>
		<path fill="none" stroke="#FFFFFF" stroke-linecap="round" stroke-linejoin="round" d="M510.55,351.21
			c0.24-0.21,0.44-0.44,0.62-0.71"/>
		<path fill="none" stroke="#FFFFFF" stroke-linecap="round" stroke-linejoin="round" d="M401.6,241.75
			c-26.73-3.86-54,0.03-79.06,9.44"/>
		<path fill="none" stroke="#FFFFFF" stroke-linecap="round" stroke-linejoin="round" d="M420.97,243.17
			c-4.93-1.45-9.9-2.61-14.95-3.5c-5.06-0.89-10.12-1.5-15.24-1.84c-10.24-0.69-20.46-0.32-30.63,1.02
			c-10.15,1.34-20.18,3.63-29.94,6.76c-4.89,1.57-9.68,3.33-14.42,5.31c-2.34,0.98-4.67,2-6.97,3.07c-2.35,1.09-4.67,2.23-6.97,3.42
			"/>
		<path fill="none" stroke="#FFFFFF" stroke-linecap="round" stroke-linejoin="round" d="M467.18,268.08
			c-2.56-2.19-5.2-4.27-7.93-6.24c-2.73-1.98-5.53-3.83-8.42-5.57"/>
		<path fill="none" stroke="#FFFFFF" stroke-linecap="round" stroke-linejoin="round" d="M479.29,351.35c3.2,0.08,6.4,0.16,9.6,0.25
			c3.21,0.09,6.41,0.18,9.61,0.28"/>
		<path fill="none" stroke="#FFFFFF" stroke-linecap="round" stroke-linejoin="round" d="M466.51,351.09
			c3.41,0.06,6.82,0.13,10.23,0.2"/>
		<path fill="none" stroke="#FFFFFF" stroke-linecap="round" stroke-linejoin="round" d="M507.55,352.19c0.29,0.01,0.59,0,0.88-0.04
			"/>
		<path fill="none" stroke="#FFFFFF" stroke-linecap="round" stroke-linejoin="round" d="M296.83,132.65
			c-25.19,3.33-48.01,13.64-67.68,29.71c-4.75,3.88-9.23,8.02-13.49,12.44c-2.2,2.28-4.33,4.61-6.4,7.02
			c-2.11,2.45-4.15,4.96-6.13,7.53c-7.65,9.95-14.24,20.67-19.86,31.91c-11.23,22.45-18.58,46.95-23.11,71.54
			c-1.14,6.17-2.1,12.37-2.9,18.59c-0.81,6.26-1.46,12.53-1.96,18.83c-1,12.57-1.41,25.11-1.31,37.71"/>
		<path fill="none" stroke="#FFFFFF" stroke-linecap="round" stroke-linejoin="round" d="M159.04,485.44
			c2.03,7.62,4.24,15.17,6.64,22.67"/>
		<path fill="none" stroke="#FFFFFF" stroke-linecap="round" stroke-linejoin="round" d="M143.49,377.26
			c0.01,0.28,0.02,0.56,0.03,0.84"/>
		<path fill="none" stroke="#FFFFFF" stroke-linecap="round" stroke-linejoin="round" d="M168.86,517.74
			c0.88,2.56,1.75,5.12,2.62,7.68"/>
		<path fill="none" stroke="#FFFFFF" stroke-linecap="round" stroke-linejoin="round" d="M314.98,131.47
			c-6.09,0-12.12,0.38-18.16,1.18"/>
		<path fill="none" stroke="#FFFFFF" stroke-linecap="round" stroke-linejoin="round" d="M156.83,366.34
			c-0.01-2.47,0-4.94,0.03-7.41"/>
		<path fill="none" stroke="#FFFFFF" stroke-linecap="round" stroke-linejoin="round" d="M171.01,480.15
			c-0.96-3.81-1.86-7.62-2.72-11.45"/>
		<path fill="none" stroke="#FFFFFF" stroke-linecap="round" stroke-linejoin="round" d="M182.14,517.85
			c-1.97-5.8-3.83-11.64-5.58-17.51c-1.75-5.88-3.39-11.78-4.92-17.71"/>
		<path fill="none" stroke="#FFFFFF" stroke-linecap="round" stroke-linejoin="round" d="M184.76,525.58
			c-0.87-2.58-1.75-5.15-2.62-7.73"/>
		<path fill="none" stroke="#FFFFFF" stroke-linecap="round" stroke-linejoin="round" d="M508.31,366.13
			c0.06-2.82,0.11-5.64,0.13-8.46"/>
		<path fill="none" stroke="#FFFFFF" stroke-linecap="round" stroke-linejoin="round" d="M506.45,399.51
			c0.25-2.91,0.48-5.82,0.69-8.73"/>
		
			<line fill="none" stroke="#FFFFFF" stroke-linecap="round" stroke-linejoin="round" x1="171.08" y1="524.23" x2="169.23" y2="525.43"/>
		<polyline fill="none" stroke="#FFFFFF" stroke-linecap="round" stroke-linejoin="round" points="188.67,524.52 195.29,540.03 
			188.97,544.04 181.92,528.93 		"/>
		<path fill="none" stroke="#FFFFFF" stroke-linecap="round" stroke-linejoin="round" d="M363.3,558.57
			c-7.25-16.3-16.53-32.02-27.12-46.31"/>
		<path fill="none" stroke="#FFFFFF" stroke-linecap="round" stroke-linejoin="round" d="M172.7,486.7
			c4.08-11.72,11.6-21.49,23.36-26.44"/>
		<path fill="none" stroke="#FFFFFF" stroke-linecap="round" stroke-linejoin="round" d="M363.3,558.57
			c0.32,0.72,0.65,1.45,0.96,2.18c0.7,1.6,1.38,3.2,2.04,4.81c1.3,3.17,2.54,6.37,3.69,9.6c2.01,5.63,3.77,11.32,5.27,17.11
			c2.95,11.46,4.88,23.53,4.98,35.42c0.11,11.75-1.55,24.05-6.38,34.97c-1.24,2.8-2.66,5.47-4.33,8.03
			c-1.6,2.46-3.37,4.74-5.36,6.88c-4.09,4.39-8.9,7.88-14.33,10.38"/>
		<path fill="none" stroke="#FFFFFF" stroke-linecap="round" stroke-linejoin="round" d="M207.24,442.02
			c9.35-3.18,19.33-3.4,28.9-1.88c9.6,1.53,19.02,4.84,27.74,9.02c8.77,4.2,17.19,9.45,25.01,15.22c3.94,2.91,7.75,5.96,11.47,9.16
			c2.19,1.89,4.34,3.82,6.45,5.79c1.47,1.37,2.91,2.77,4.35,4.17"/>
		<path fill="none" stroke="#FFFFFF" stroke-linecap="round" stroke-linejoin="round" d="M191.56,431.82
			c1.02,7.92,2.23,15.8,3.64,23.66c1.4,7.86,3,15.67,4.79,23.46c0.89,3.88,1.84,7.75,2.83,11.62c0.99,3.86,2.02,7.71,3.11,11.56
			c2.16,7.68,4.51,15.29,7.02,22.86"/>
		<path fill="none" stroke="#FFFFFF" stroke-linecap="round" stroke-linejoin="round" d="M189.4,412.06
			c0.25,2.8,0.52,5.59,0.82,8.38"/>
		<path fill="none" stroke="#FFFFFF" stroke-linecap="round" stroke-linejoin="round" d="M187.31,367.71
			c0.01,4.24,0.08,8.47,0.21,12.7"/>
		<path fill="none" stroke="#FFFFFF" stroke-linecap="round" stroke-linejoin="round" d="M194.2,289.1
			c-1.14,5.97-2.12,11.96-2.96,17.99c-0.84,6.02-1.53,12.05-2.09,18.11c-1.12,12.12-1.7,24.24-1.82,36.42"/>
		<path fill="none" stroke="#FFFFFF" stroke-linecap="round" stroke-linejoin="round" d="M314.98,131.47
			c-4.95,1.3-9.78,2.88-14.54,4.76"/>
		<path fill="none" stroke="#FFFFFF" stroke-linecap="round" stroke-linejoin="round" d="M317.03,136.71
			c2.39-0.86,4.8-1.65,7.23-2.36c2.43-0.71,4.88-1.36,7.36-1.92"/>
		<path fill="none" stroke="#FFFFFF" stroke-linecap="round" stroke-linejoin="round" d="M212.29,272.67
			c1.79-7.27,3.83-14.45,6.17-21.56c1.18-3.57,2.42-7.12,3.75-10.64c1.31-3.47,2.69-6.9,4.15-10.3c1.48-3.47,3.06-6.89,4.71-10.28
			c1.63-3.32,3.33-6.6,5.12-9.83c1.83-3.3,3.75-6.54,5.76-9.74c1.97-3.12,4.01-6.17,6.15-9.17c17.36-24.29,40.42-44.16,68.92-54.44"
			/>
		<path fill="none" stroke="#FFFFFF" stroke-linecap="round" stroke-linejoin="round" d="M201.75,362.28
			c0.07-7.54,0.32-15.07,0.76-22.6c0.45-7.53,1.08-15.03,1.93-22.52c0.85-7.49,1.91-14.95,3.22-22.37
			c1.3-7.43,2.83-14.79,4.63-22.12"/>
		<path fill="none" stroke="#FFFFFF" stroke-linecap="round" stroke-linejoin="round" d="M226.99,525.14
			c-1.41-4.3-2.78-8.62-4.08-12.96c-1.3-4.33-2.55-8.69-3.74-13.06c-1.19-4.37-2.32-8.76-3.39-13.16c-1.07-4.4-2.07-8.81-3.02-13.24
			c-1.89-8.87-3.53-17.78-4.93-26.75c-1.4-8.96-2.54-17.95-3.45-26.97"/>
		<path fill="none" stroke="#FFFFFF" stroke-linecap="round" stroke-linejoin="round" d="M229.62,533.13
			c-0.88-2.66-1.75-5.33-2.63-7.99"/>
		<path fill="none" stroke="#FFFFFF" stroke-linecap="round" stroke-linejoin="round" d="M212.94,524.97
			c0.88,2.65,1.75,5.29,2.63,7.93"/>
		<path fill="none" stroke="#FFFFFF" stroke-linecap="round" stroke-linejoin="round" d="M499.01,354.03
			c3.5,0.08,6.74,1.43,9.42,3.63"/>
		
			<line fill="none" stroke="#FFFFFF" stroke-linecap="round" stroke-linejoin="round" x1="187.31" y1="368.18" x2="180.53" y2="368.88"/>
		
			<line fill="none" stroke="#FFFFFF" stroke-linecap="round" stroke-linejoin="round" x1="139.39" y1="377.66" x2="143.51" y2="377.89"/>
		<path fill="none" stroke="#FFFFFF" stroke-linecap="round" stroke-linejoin="round" d="M226.24,522.31
			c0.75,2.77,1.57,5.52,2.47,8.25"/>
		<path fill="none" stroke="#FFFFFF" stroke-linecap="round" stroke-linejoin="round" d="M167.89,360.86
			c-2.49-0.08-4.98-0.16-7.46-0.23"/>
		<path fill="none" stroke="#FFFFFF" stroke-linecap="round" stroke-linejoin="round" d="M425.15,437.83
			c-0.6-0.01-1.21-0.02-1.81-0.02c-0.6,0-1.21,0.03-1.81,0.05c-0.6,0.02-1.21,0.05-1.81,0.09c-0.6,0.05-1.2,0.1-1.8,0.16"/>
		<path fill="none" stroke="#FFFFFF" stroke-linecap="round" stroke-linejoin="round" d="M311.17,483.5c2.27,2.22,4.5,4.49,6.68,6.8
			c2.18,2.31,4.31,4.67,6.39,7.07c4.18,4.81,8.15,9.76,11.94,14.89"/>
		<path fill="none" stroke="#FFFFFF" stroke-linecap="round" stroke-linejoin="round" d="M178.29,460.09
			c5.13-3.13,10.78-5.02,16.68-5.87"/>
		<path fill="none" stroke="#FFFFFF" stroke-linecap="round" stroke-linejoin="round" d="M474.13,404.63
			c0.42,0.23,0.85,0.46,1.27,0.7"/>
		<path fill="none" stroke="#FFFFFF" stroke-linecap="round" stroke-linejoin="round" d="M461.88,398.98
			c0.54,0.23,1.09,0.45,1.64,0.66"/>
		<path fill="none" stroke="#FFFFFF" stroke-linecap="round" stroke-linejoin="round" d="M513.33,437.66
			c1.04-6.5,1.95-13.01,2.74-19.55c1.08-8.9,1.92-17.81,2.55-26.75"/>
		<path fill="none" stroke="#FFFFFF" stroke-linecap="round" stroke-linejoin="round" d="M503.5,425.69
			c1.21-8.7,2.19-17.42,2.95-26.18"/>
		<path fill="none" stroke="#FFFFFF" stroke-linecap="round" stroke-linejoin="round" d="M461.88,398.98
			c0.32-3.48,0.61-6.96,0.85-10.45"/>
		<path fill="none" stroke="#FFFFFF" stroke-linecap="round" stroke-linejoin="round" d="M472.36,403.69
			c0.33-3.25,0.62-6.5,0.89-9.75"/>
		<path fill="none" stroke="#FFFFFF" stroke-linecap="round" stroke-linejoin="round" d="M437.36,439.81
			c-0.2-0.04-0.39-0.07-0.59-0.11c-0.2-0.03-0.39-0.06-0.59-0.09c-0.39-0.06-0.79-0.12-1.19-0.18c-0.79-0.1-1.58-0.19-2.38-0.26"/>
		<path fill="none" stroke="#FFFFFF" stroke-linecap="round" stroke-linejoin="round" d="M449.52,444.04
			c-0.03-0.02-0.06-0.03-0.09-0.05"/>
		<path fill="none" stroke="#FFFFFF" stroke-linecap="round" stroke-linejoin="round" d="M181.83,516.95
			c-1.16-8.9-1.5-18.13-0.51-27.09c0.99-8.9,3.33-17.91,7.79-25.79"/>
		<path fill="none" stroke="#FFFFFF" stroke-linecap="round" stroke-linejoin="round" d="M241.21,672.18
			c13.29,10.92,29.17,21.03,45.78,26.32c8.32,2.65,17.28,4.22,26.09,3.59c8.91-0.65,17.33-3.55,24.35-9.38"/>
		<path fill="none" stroke="#FFFFFF" stroke-linecap="round" stroke-linejoin="round" d="M180.26,463.9
			c-4.2,2.58-7.81,5.88-10.82,9.8"/>
		
			<line fill="none" stroke="#FFFFFF" stroke-linecap="round" stroke-linejoin="round" x1="227.07" y1="534.85" x2="229.62" y2="533.13"/>
		
			<line fill="none" stroke="#FFFFFF" stroke-linecap="round" stroke-linejoin="round" x1="215.57" y1="532.9" x2="227.07" y2="534.85"/>
		<polyline fill="none" stroke="#FFFFFF" stroke-linecap="round" stroke-linejoin="round" points="226.88,536.62 211.55,534 
			212.67,548.75 		"/>
		<path fill="none" stroke="#FFFFFF" stroke-linecap="round" stroke-linejoin="round" d="M157.5,422.67
			c0.99,8.24,2.18,16.44,3.6,24.62c1.42,8.18,3.05,16.3,4.9,24.39c1.85,8.09,3.92,16.11,6.19,24.09c1.14,3.99,2.33,7.96,3.56,11.91
			c1.23,3.96,2.52,7.89,3.85,11.82"/>
		
			<line fill="none" stroke="#FFFFFF" stroke-linecap="round" stroke-linejoin="round" x1="182.23" y1="527.24" x2="171.49" y2="525.42"/>
		
			<line fill="none" stroke="#FFFFFF" stroke-linecap="round" stroke-linejoin="round" x1="167.61" y1="526.48" x2="181.92" y2="528.93"/>
		<path fill="none" stroke="#FFFFFF" stroke-linecap="round" stroke-linejoin="round" d="M200.91,412.75
			c0.43,4.85,0.92,9.69,1.48,14.52c0.56,4.84,1.19,9.66,1.89,14.48c0.7,4.81,1.47,9.61,2.31,14.41c0.84,4.79,1.75,9.57,2.74,14.34
			c0.99,4.77,2.04,9.52,3.16,14.25c1.13,4.73,2.32,9.45,3.58,14.15c1.27,4.7,2.6,9.38,3.99,14.04c1.39,4.66,2.85,9.29,4.38,13.91"/>
		
			<line fill="none" stroke="#FFFFFF" stroke-linecap="round" stroke-linejoin="round" x1="373.01" y1="664.53" x2="373.01" y2="664.53"/>
		<path fill="none" stroke="#FFFFFF" stroke-linecap="round" stroke-linejoin="round" d="M175.49,471.62
			c-1.77,2.71-3.24,5.54-4.48,8.53"/>
		<path fill="none" stroke="#FFFFFF" stroke-linecap="round" stroke-linejoin="round" d="M235.45,535.54
			c-0.12-0.06-0.24-0.12-0.37-0.18"/>
		<path fill="none" stroke="#FFFFFF" stroke-linecap="round" stroke-linejoin="round" d="M175.21,473.65
			c0.62-1.26,1.28-2.48,1.99-3.69c0.82-1.38,1.37-2.19,2.26-3.52"/>
		<path fill="none" stroke="#FFFFFF" stroke-linecap="round" stroke-linejoin="round" d="M183.69,456.96
			c0.92-0.67,1.86-1.3,2.83-1.9"/>
		<path fill="none" stroke="#FFFFFF" stroke-linecap="round" stroke-linejoin="round" d="M204.39,418.99
			c-0.21-2.14-0.42-4.28-0.61-6.43"/>
		<path fill="none" stroke="#FFFFFF" stroke-linecap="round" stroke-linejoin="round" d="M216.17,487.52
			c-0.05,0.22-0.09,0.43-0.13,0.65"/>
		<path fill="none" stroke="#FFFFFF" stroke-linecap="round" stroke-linejoin="round" d="M183.67,456.8c0,0.05,0,0.11,0.01,0.16"/>
		<path fill="none" stroke="#FFFFFF" stroke-linecap="round" stroke-linejoin="round" d="M175.2,473.64
			c0.08-0.68,0.18-1.35,0.29-2.02"/>
		<path fill="none" stroke="#FFFFFF" stroke-linecap="round" stroke-linejoin="round" d="M381.63,236.67
			c-18.2-1.57-36.51,0.32-54.12,4.99c-17.64,4.68-34.5,12.14-50.03,21.73c-15.55,9.6-29.76,21.33-42.31,34.65
			c-6.29,6.69-12.12,13.7-17.55,21.12c-2.68,3.66-5.24,7.38-7.7,11.19c-1.25,1.94-2.47,3.9-3.66,5.87c-0.6,1-1.19,2-1.78,3
			c-0.34,0.59-0.52,0.91-0.92,1.46c-0.36,0.48-0.74,0.94-1.16,1.37"/>
		<path fill="none" stroke="#FFFFFF" stroke-linecap="round" stroke-linejoin="round" d="M168.58,359.28
			c2.07-5.19,4.3-10.3,6.72-15.33"/>
		<path fill="none" stroke="#FFFFFF" stroke-linecap="round" stroke-linejoin="round" d="M498.56,356.84
			c0.06-0.85,0.07-1.68-0.03-2.53c-0.1-0.9-0.29-1.6-0.58-2.45"/>
		<path fill="none" stroke="#FFFFFF" stroke-linecap="round" stroke-linejoin="round" d="M159.59,365.64
			c3.63-0.44,7.02,0.97,9.8,3.09c2.79,2.13,5.05,5.04,6.79,8.05c3.49,6.05,5.38,13.36,5.79,20.27"/>
		<path fill="none" stroke="#FFFFFF" stroke-linecap="round" stroke-linejoin="round" d="M189.32,412.29
			c-1.02,2.75-2.48,5.46-4.48,7.65c-2,2.2-4.55,3.85-7.55,4.33"/>
		
			<line fill="none" stroke="#FFFFFF" stroke-linecap="round" stroke-linejoin="round" x1="147" y1="378.29" x2="143.51" y2="378.1"/>
		
			<line fill="none" stroke="#FFFFFF" stroke-linecap="round" stroke-linejoin="round" x1="199.06" y1="381.17" x2="187.56" y2="380.53"/>
		
			<line fill="none" stroke="#FFFFFF" stroke-linecap="round" stroke-linejoin="round" x1="146.65" y1="379.36" x2="137.58" y2="378.85"/>
		
			<line fill="none" stroke="#FFFFFF" stroke-linecap="round" stroke-linejoin="round" x1="180.93" y1="381.28" x2="187.52" y2="380.42"/>
		<path fill="none" stroke="#FFFFFF" stroke-linecap="round" stroke-linejoin="round" d="M184.37,396.71
			c-0.3-5.23-1.45-10.57-3.44-15.43"/>
		<path fill="none" stroke="#FFFFFF" stroke-linecap="round" stroke-linejoin="round" d="M182.72,411.77
			c1.49-4.81,1.94-10.07,1.65-15.05"/>
		<path fill="none" stroke="#FFFFFF" stroke-linecap="round" stroke-linejoin="round" d="M193.07,381.97c3.55,0.2,9.49-0.17,13-0.63
			"/>
		
			<line fill="none" stroke="#FFFFFF" stroke-linecap="round" stroke-linejoin="round" x1="193.07" y1="381.97" x2="180.93" y2="381.28"/>
		<path fill="none" stroke="#FFFFFF" stroke-linecap="round" stroke-linejoin="round" d="M490.07,353.34
			c3.16,0.24,6.05,1.51,8.49,3.5"/>
		<path fill="none" stroke="#FFFFFF" stroke-linecap="round" stroke-linejoin="round" d="M507.07,391.68
			c-1.63,2.94-3.85,5.6-6.63,7.52c-2.79,1.93-6.04,3.03-9.46,2.9"/>
		<path fill="none" stroke="#FFFFFF" stroke-linecap="round" stroke-linejoin="round" d="M502.95,390.57
			c-1.59,3.15-3.83,6.04-6.69,8.15c-2.87,2.11-6.27,3.35-9.88,3.21"/>
		<path fill="none" stroke="#FFFFFF" stroke-linecap="round" stroke-linejoin="round" d="M181.97,397.05
			c0.33,5.65-0.29,11.77-2.36,17.13c-1.03,2.67-2.48,5.29-4.44,7.41c-1.97,2.13-4.46,3.72-7.38,4.18"/>
		<path fill="none" stroke="#FFFFFF" stroke-linecap="round" stroke-linejoin="round" d="M211.06,277.88c2.55-2.42,5.17-4.75,7.88-7
			c2.7-2.24,5.48-4.39,8.32-6.44c2.85-2.05,5.76-4,8.74-5.85c2.99-1.85,6.02-3.59,9.13-5.22"/>
		<path fill="none" stroke="#FFFFFF" stroke-linecap="round" stroke-linejoin="round" d="M391.78,240.67
			c3.22,0.52,6.41,1.14,9.59,1.88c3.13,0.73,6.22,1.57,9.29,2.53c3.1,0.97,6.15,2.04,9.16,3.24c3.01,1.2,5.96,2.5,8.87,3.92
			c5.85,2.86,11.38,6.13,16.71,9.89c2.64,1.86,5.2,3.82,7.69,5.88c2.51,2.09,4.93,4.26,7.27,6.54c2.31,2.25,4.53,4.58,6.66,7.01
			c2.17,2.46,4.23,4.99,6.21,7.62c1.94,2.57,3.79,5.2,5.55,7.9c1.8,2.76,3.49,5.57,5.11,8.45c1.57,2.81,3.04,5.67,4.46,8.56
			c0.72,1.48,1.42,2.96,2.09,4.47c0.67,1.51,1.3,3.04,1.92,4.57c0.77,1.91,1.26,3.12,2.07,5.01c0.7,1.63,1.46,3.39,1.9,5.12
			c0.21,0.83,0.35,1.65,0.38,2.5c0.02,0.71-0.03,1.48-0.28,2.15c-0.21,0.58-0.56,1.09-1.13,1.39c-0.61,0.33-1.39,0.39-2.05,0.38"/>
		<path fill="none" stroke="#FFFFFF" stroke-linecap="round" stroke-linejoin="round" d="M461.22,329.11
			c-0.74-1.41-1.33-2.54-2.13-3.92c-0.77-1.32-1.59-2.61-2.42-3.9c-1.62-2.51-3.27-4.99-4.98-7.43c-1.74-2.48-3.55-4.91-5.42-7.29
			c-1.83-2.33-3.72-4.62-5.67-6.86c-7.86-9.03-16.68-17.23-26.31-24.32c-2.45-1.81-4.94-3.53-7.49-5.19
			c-2.47-1.6-4.97-3.12-7.53-4.57c-5.21-2.95-10.55-5.55-16.1-7.8c-11.02-4.46-22.72-7.45-34.61-8.31"/>
		<path fill="none" stroke="#FFFFFF" stroke-linecap="round" stroke-linejoin="round" d="M511.62,346.08
			c-0.93-3.28-1.93-6.54-3.01-9.78c-1.06-3.16-2.2-6.3-3.42-9.4c-1.25-3.18-2.59-6.32-4.02-9.42c-1.4-3.02-2.89-6-4.48-8.93
			c-6.44-11.89-14.36-22.78-24-32.25c-2.41-2.37-4.91-4.63-7.5-6.79c-2.57-2.14-5.22-4.17-7.95-6.08c-2.75-1.93-5.57-3.74-8.46-5.44
			c-2.9-1.69-5.85-3.26-8.87-4.71c-6.07-2.92-12.27-5.3-18.71-7.23c-6.44-1.93-12.94-3.34-19.58-4.3"/>
		<path fill="none" stroke="#FFFFFF" stroke-linecap="round" stroke-linejoin="round" d="M156.86,358.93
			c0.04-3.57,0.13-7.14,0.26-10.71"/>
		
			<line fill="none" stroke="#FFFFFF" stroke-linecap="round" stroke-linejoin="round" x1="182.23" y1="527.24" x2="184.76" y2="525.58"/>
		
			<line fill="none" stroke="#FFFFFF" stroke-linecap="round" stroke-linejoin="round" x1="181.92" y1="528.93" x2="188.67" y2="524.52"/>
		<path fill="none" stroke="#FFFFFF" stroke-linecap="round" stroke-linejoin="round" d="M344.14,126.74
			c-27.01,3.26-51.17,14.72-71.62,32.52c-10.08,8.77-18.98,18.83-26.73,29.73c-1.88,2.65-3.69,5.34-5.44,8.07
			c-1.78,2.79-3.5,5.63-5.14,8.51c-1.68,2.93-3.28,5.91-4.82,8.92c-1.56,3.07-3.06,6.17-4.48,9.3c-1.36,2.99-2.66,6.01-3.89,9.06
			c-1.25,3.09-2.45,6.2-3.58,9.33c-2.31,6.39-4.37,12.85-6.22,19.4c-1.81,6.42-3.4,12.88-4.8,19.4c-1.42,6.61-2.64,13.25-3.67,19.93
			c-4.11,26.4-5.42,53.6-4.67,80.27"/>
		<path fill="none" stroke="#FFFFFF" stroke-linecap="round" stroke-linejoin="round" d="M201.92,380.79
			c-0.01-0.34-0.02-0.68-0.03-1.02"/>
		<path fill="none" stroke="#FFFFFF" stroke-linecap="round" stroke-linejoin="round" d="M224.44,526.85c0.88,2.67,1.75,5.33,2.63,8
			"/>
		<path fill="none" stroke="#FFFFFF" stroke-linecap="round" stroke-linejoin="round" d="M391.57,237.88
			c-3.23-0.51-6.47-0.9-9.73-1.19"/>
		<path fill="none" stroke="#FFFFFF" stroke-linecap="round" stroke-linejoin="round" d="M168.43,359.64
			c-3.36-0.12-6.72-0.23-10.09-0.33"/>
		<path fill="none" stroke="#FFFFFF" stroke-linecap="round" stroke-linejoin="round" d="M349.35,234.57
			c0.58-0.01,1.16-0.01,1.74-0.01"/>
		<path fill="none" stroke="#FFFFFF" stroke-linecap="round" stroke-linejoin="round" d="M301.84,257.4
			c-20.08,10.33-38.28,24.14-53.97,40.43c-15.73,16.33-28.81,35.03-39.05,55.3"/>
		<path fill="none" stroke="#FFFFFF" stroke-linecap="round" stroke-linejoin="round" d="M506.45,399.51
			c-0.59,0.4-1.2,0.76-1.84,1.09"/>
		<path fill="none" stroke="#FFFFFF" stroke-linecap="round" stroke-linejoin="round" d="M254.71,667.94
			c-0.87,0.4-1.75,0.79-2.62,1.2"/>
		<path fill="none" stroke="#FFFFFF" stroke-linecap="round" stroke-linejoin="round" d="M237.67,672.09
			c-2.73-0.24-5.44-0.84-8.04-1.67c-2.94-0.94-5.73-2.14-8.47-3.56c-2.5-1.3-4.9-2.75-7.24-4.33c-2.5-1.69-4.9-3.5-7.23-5.43
			c-4.47-3.71-8.68-7.85-12.55-12.19c-3.89-4.38-7.46-8.98-10.76-13.83c-6.47-9.53-12.05-20.32-15.67-31.32
			c-1.82-5.52-3.22-11.33-3.86-17.13c-0.34-3.09-0.47-6.16-0.31-9.26c0.15-2.79,0.52-5.5,1.25-8.21"/>
		<path fill="none" stroke="#FFFFFF" stroke-linecap="round" stroke-linejoin="round" d="M172.41,552.39
			c0.44-0.46,0.88-0.92,1.32-1.39"/>
		<path fill="none" stroke="#FFFFFF" stroke-linecap="round" stroke-linejoin="round" d="M507.69,328.52
			c-8.62-23.16-21.51-44.17-40.52-60.44"/>
		<path fill="none" stroke="#FFFFFF" stroke-linecap="round" stroke-linejoin="round" d="M157.12,348.22
			c4.41-10.85,9.65-21.36,15.82-31.31c3.09-4.98,6.38-9.79,9.94-14.45c3.55-4.66,7.31-9.1,11.33-13.36"/>
		<path fill="none" stroke="#FFFFFF" stroke-linecap="round" stroke-linejoin="round" d="M212.29,272.67
			c7.26-5.62,14.99-10.55,23.15-14.75"/>
		<path fill="none" stroke="#FFFFFF" stroke-linecap="round" stroke-linejoin="round" d="M157.89,359.28
			c-0.37-0.05-0.7-0.17-1.03-0.34"/>
		
			<line fill="none" stroke="#FFFFFF" stroke-linecap="round" stroke-linejoin="round" x1="201.77" y1="360.39" x2="201.77" y2="360.39"/>
		<path fill="none" stroke="#FFFFFF" stroke-linecap="round" stroke-linejoin="round" d="M201.77,360.39
			c1.54-0.67,2.97-1.83,4.1-3.04c1.16-1.24,2.17-2.7,2.94-4.22"/>
		<path fill="none" stroke="#FFFFFF" stroke-linecap="round" stroke-linejoin="round" d="M479.29,351.35
			c0.24,0.68,0.43,1.36,0.54,2.08c0.11,0.71,0.13,1.42,0.11,2.14"/>
		
			<line fill="none" stroke="#FFFFFF" stroke-linecap="round" stroke-linejoin="round" x1="148.11" y1="409.01" x2="148.11" y2="409"/>
		<path fill="none" stroke="#FFFFFF" stroke-linecap="round" stroke-linejoin="round" d="M156.83,366.34c0.9-0.35,1.8-0.59,2.76-0.7
			"/>
		
			<line fill="none" stroke="#FFFFFF" stroke-linecap="round" stroke-linejoin="round" x1="145.43" y1="408.79" x2="148.11" y2="409"/>
		
			<line fill="none" stroke="#FFFFFF" stroke-linecap="round" stroke-linejoin="round" x1="462.74" y1="388.53" x2="459.19" y2="388.35"/>
		<path fill="none" stroke="#FFFFFF" stroke-linecap="round" stroke-linejoin="round" d="M476.72,358.05c1-0.95,2.06-1.77,3.23-2.48
			"/>
		
			<line fill="none" stroke="#FFFFFF" stroke-linecap="round" stroke-linejoin="round" x1="463.87" y1="364.56" x2="471.82" y2="364.84"/>
		<path fill="none" stroke="#FFFFFF" stroke-linecap="round" stroke-linejoin="round" d="M520.45,391.45
			c1.68,0.08,3.37,0.16,5.05,0.24"/>
		<path fill="none" stroke="#FFFFFF" stroke-linecap="round" stroke-linejoin="round" d="M164.79,565.14
			c-4.42-12.64-7.79-26.12-9.18-39.51c-1.36-13.1-0.93-27.45,3.44-40.2"/>
		<path fill="none" stroke="#FFFFFF" stroke-linecap="round" stroke-linejoin="round" d="M145.42,408.79
			c0.61,6.47,1.33,12.92,2.2,19.36c0.86,6.44,1.86,12.86,2.99,19.25c1.13,6.4,2.4,12.76,3.81,19.11c1.41,6.34,2.94,12.65,4.61,18.92
			"/>
		<path fill="none" stroke="#FFFFFF" stroke-linecap="round" stroke-linejoin="round" d="M504.62,400.6
			c-2.33,1.2-4.89,1.83-7.52,1.73"/>
		<path fill="none" stroke="#FFFFFF" stroke-linecap="round" stroke-linejoin="round" d="M214.87,530.79
			c-0.58,0.06-1.17,0.15-1.75,0.26"/>
		
			<line fill="none" stroke="#FFFFFF" stroke-linecap="round" stroke-linejoin="round" x1="285.83" y1="637.03" x2="285.83" y2="637.03"/>
		<path fill="none" stroke="#FFFFFF" stroke-linecap="round" stroke-linejoin="round" d="M235.44,257.92
			c3.17-1.63,6.4-3.15,9.69-4.55"/>
		<path fill="none" stroke="#FFFFFF" stroke-linecap="round" stroke-linejoin="round" d="M187.33,361.62c-0.03,0-0.06,0-0.08-0.01"
			/>
		<path fill="none" stroke="#FFFFFF" stroke-linecap="round" stroke-linejoin="round" d="M498.5,351.88c3.02,0.1,6.03,0.2,9.04,0.3"
			/>
		<path fill="none" stroke="#FFFFFF" stroke-linecap="round" stroke-linejoin="round" d="M474.92,396.12
			c-0.24,2.84-0.5,5.68-0.8,8.52"/>
		<path fill="none" stroke="#FFFFFF" stroke-linecap="round" stroke-linejoin="round" d="M463.87,364.56
			c0.1-4.69,0.14-9.37,0.1-14.06"/>
		<path fill="none" stroke="#FFFFFF" stroke-linecap="round" stroke-linejoin="round" d="M474.85,360.08
			c0.04-2.94,0.04-5.88,0.03-8.83"/>
		<path fill="none" stroke="#FFFFFF" stroke-linecap="round" stroke-linejoin="round" d="M519.78,366.55
			c0.3-12.69,0.13-25.33-0.61-38c-0.37-6.34-0.88-12.67-1.55-18.99c-0.67-6.29-1.49-12.54-2.49-18.79
			c-1.01-6.3-2.19-12.55-3.58-18.78c-1.37-6.15-2.93-12.24-4.72-18.28c-1.82-6.15-3.85-12.2-6.14-18.18
			c-2.24-5.85-4.71-11.58-7.44-17.22c-2.81-5.79-5.87-11.42-9.22-16.9c-3.26-5.32-6.75-10.44-10.55-15.39
			c-1.97-2.57-4-5.08-6.11-7.52c-2.08-2.41-4.22-4.75-6.44-7.02c-2.18-2.24-4.43-4.4-6.74-6.5c-2.28-2.07-4.62-4.06-7.03-5.97
			c-2.51-2-5.08-3.9-7.71-5.71c-2.61-1.8-5.26-3.49-7.99-5.1c-5.38-3.18-10.91-5.95-16.67-8.34c-11.66-4.85-23.81-7.97-36.31-9.54"
			/>
		<path fill="none" stroke="#FFFFFF" stroke-linecap="round" stroke-linejoin="round" d="M520.45,391.45
			c-0.65,9.33-1.54,18.64-2.68,27.92c-0.84,6.85-1.81,13.68-2.92,20.49"/>
		
			<line fill="none" stroke="#FFFFFF" stroke-linecap="round" stroke-linejoin="round" x1="196.07" y1="460.26" x2="196.07" y2="460.26"/>
		
			<line fill="none" stroke="#FFFFFF" stroke-linecap="round" stroke-linejoin="round" x1="201.9" y1="379.77" x2="207.36" y2="380.07"/>
		
			<line fill="none" stroke="#FFFFFF" stroke-linecap="round" stroke-linejoin="round" x1="168.44" y1="359.64" x2="168.43" y2="359.64"/>
		<path fill="none" stroke="#FFFFFF" stroke-linecap="round" stroke-linejoin="round" d="M281.73,607.34
			c-0.95-2.94-2.01-5.82-3.19-8.67c-1.17-2.85-2.45-5.65-3.82-8.4c-2.75-5.53-5.84-10.82-9.28-15.95
			c-6.75-10.07-15.05-19.69-24.31-27.52"/>
		
			<line fill="none" stroke="#FFFFFF" stroke-linecap="round" stroke-linejoin="round" x1="166.87" y1="364.76" x2="169.14" y2="364.49"/>
		<path fill="none" stroke="#FFFFFF" stroke-linecap="round" stroke-linejoin="round" d="M479.95,355.57
			c2.74-1.67,5.86-2.54,9.09-2.3"/>
		<path fill="none" stroke="#FFFFFF" stroke-linecap="round" stroke-linejoin="round" d="M499.08,355.11c1.12,0.55,2.15,1.21,3.12,2
			"/>
		
			<line fill="none" stroke="#FFFFFF" stroke-linecap="round" stroke-linejoin="round" x1="499.01" y1="354.01" x2="499.75" y2="354.07"/>
		<path fill="none" stroke="#FFFFFF" stroke-linecap="round" stroke-linejoin="round" d="M499.01,354.01
			c-0.09-0.73-0.26-1.43-0.5-2.13"/>
		<path fill="none" stroke="#FFFFFF" stroke-linecap="round" stroke-linejoin="round" d="M512.98,344.8
			c-1.55-5.5-3.29-10.92-5.29-16.28"/>
		<path fill="none" stroke="#FFFFFF" stroke-linecap="round" stroke-linejoin="round" d="M512.55,349.28
			c0.88-1.34,0.84-3.05,0.43-4.48"/>
		
			<line fill="none" stroke="#FFFFFF" stroke-linecap="round" stroke-linejoin="round" x1="508.2" y1="390.81" x2="512.13" y2="391"/>
		
			<line fill="none" stroke="#FFFFFF" stroke-linecap="round" stroke-linejoin="round" x1="497.1" y1="402.33" x2="490.99" y2="402.1"/>
		<path fill="none" stroke="#FFFFFF" stroke-linecap="round" stroke-linejoin="round" d="M527.07,391.76L527.07,391.76
			c0,0-0.01,0-0.01,0c-0.01,0-0.02,0-0.04,0c-0.05-0.01-0.1-0.01-0.15-0.01c-0.06,0-0.13-0.01-0.2-0.01c-0.13,0-0.26-0.01-0.39-0.02
			c-0.26-0.02-0.52-0.03-0.79-0.04"/>
		<path fill="none" stroke="#FFFFFF" stroke-linecap="round" stroke-linejoin="round" d="M528.24,367.06c0-0.01-0.01-0.01-0.01-0.01
			c-0.01,0-0.02-0.01-0.04-0.01c-0.05-0.01-0.1-0.02-0.14-0.02c-0.07-0.01-0.13-0.01-0.2-0.02c-0.13-0.01-0.26-0.02-0.39-0.03
			c-0.27-0.02-0.53-0.04-0.79-0.06"/>
		
			<line fill="none" stroke="#FFFFFF" stroke-linecap="round" stroke-linejoin="round" x1="528.24" y1="367.06" x2="527.07" y2="391.76"/>
		<path fill="none" stroke="#FFFFFF" stroke-linecap="round" stroke-linejoin="round" d="M525.5,391.69
			c0.27,0.01,0.52,0.02,0.79,0.04c0.13,0,0.26,0.01,0.39,0.02c0.06,0,0.13,0.01,0.2,0.01c0.05,0.01,0.1,0.01,0.15,0.01
			c0.01,0,0.03,0,0.04,0c0,0,0.01,0,0.01,0c0,0,0,0,0,0"/>
		<path fill="none" stroke="#FFFFFF" stroke-linecap="round" stroke-linejoin="round" d="M209.56,530.28
			c-5.81-0.98-12.02-0.63-17.36,2.46"/>
		
			<line fill="none" stroke="#FFFFFF" stroke-linecap="round" stroke-linejoin="round" x1="189.32" y1="412.29" x2="189.32" y2="412.29"/>
		<path fill="none" stroke="#FFFFFF" stroke-linecap="round" stroke-linejoin="round" d="M507.55,390.78
			c-0.01,0.01-0.01,0.01-0.01,0.02"/>
		<path fill="none" stroke="#FFFFFF" stroke-linecap="round" stroke-linejoin="round" d="M167.79,425.77
			c-2.49,0.39-4.93-0.09-7.17-1.17"/>
		
			<line fill="none" stroke="#FFFFFF" stroke-linecap="round" stroke-linejoin="round" x1="177.29" y1="424.27" x2="167.79" y2="425.77"/>
		
			<line fill="none" stroke="#FFFFFF" stroke-linecap="round" stroke-linejoin="round" x1="159.59" y1="365.64" x2="166.87" y2="364.76"/>
		<path fill="none" stroke="#FFFFFF" stroke-linecap="round" stroke-linejoin="round" d="M135.83,378.5c0,0.08,0.12,0.12,0.17,0.14
			c0.07,0.02,0.14,0.04,0.22,0.06c0.15,0.03,0.3,0.06,0.45,0.07c0.31,0.04,0.61,0.06,0.91,0.08"/>
		
			<line fill="none" stroke="#FFFFFF" stroke-linecap="round" stroke-linejoin="round" x1="137.63" y1="407.86" x2="135.83" y2="378.5"/>
		
			<line fill="none" stroke="#FFFFFF" stroke-linecap="round" stroke-linejoin="round" x1="200.25" y1="381.01" x2="199.06" y2="381.17"/>
		<path fill="none" stroke="#FFFFFF" stroke-linecap="round" stroke-linejoin="round" d="M139.39,408.31
			c-0.31-0.02-0.62-0.05-0.92-0.11c-0.15-0.02-0.31-0.06-0.46-0.1c-0.08-0.02-0.15-0.05-0.22-0.08c-0.06-0.03-0.15-0.08-0.16-0.16"
			/>
		<path fill="none" stroke="#FFFFFF" stroke-linecap="round" stroke-linejoin="round" d="M139.39,377.66
			c-0.62,0.08-1.23,0.16-1.84,0.27c-0.3,0.05-0.61,0.11-0.91,0.19c-0.15,0.04-0.3,0.08-0.45,0.13c-0.1,0.04-0.19,0.07-0.28,0.13
			c-0.04,0.02-0.09,0.07-0.09,0.12"/>
		
			<line fill="none" stroke="#FFFFFF" stroke-linecap="round" stroke-linejoin="round" x1="139.39" y1="408.31" x2="145.43" y2="408.79"/>
		<path fill="none" stroke="#FFFFFF" stroke-linecap="round" stroke-linejoin="round" d="M207.83,412.1
			c-1.35,0.21-2.7,0.35-4.05,0.46"/>
		
			<line fill="none" stroke="#FFFFFF" stroke-linecap="round" stroke-linejoin="round" x1="200.25" y1="381.01" x2="206.08" y2="381.33"/>
		
			<line fill="none" stroke="#FFFFFF" stroke-linecap="round" stroke-linejoin="round" x1="206.08" y1="381.33" x2="207.83" y2="412.1"/>
		<path fill="none" stroke="#FFFFFF" stroke-linecap="round" stroke-linejoin="round" d="M486.37,401.92
			c-4.55-0.17-8.52-2.47-11.45-5.81"/>
		
			<line fill="none" stroke="#FFFFFF" stroke-linecap="round" stroke-linejoin="round" x1="490.99" y1="402.1" x2="486.37" y2="401.92"/>
		<path fill="none" stroke="#FFFFFF" stroke-linecap="round" stroke-linejoin="round" d="M456.72,388.22L456.72,388.22
			c0.01,0,0.02,0,0.02,0c0.02,0,0.04,0,0.06,0c0.08,0.01,0.15,0.01,0.23,0.01c0.1,0.01,0.21,0.01,0.31,0.02
			c0.2,0.01,0.41,0.03,0.61,0.03c0.41,0.02,0.82,0.04,1.23,0.06"/>
		
			<line fill="none" stroke="#FFFFFF" stroke-linecap="round" stroke-linejoin="round" x1="456.72" y1="388.22" x2="457.85" y2="364.39"/>
		<path fill="none" stroke="#FFFFFF" stroke-linecap="round" stroke-linejoin="round" d="M502.2,357.11c2.7,2.17,4.74,5.1,6.13,8.25
			"/>
		
			<line fill="none" stroke="#FFFFFF" stroke-linecap="round" stroke-linejoin="round" x1="470.68" y1="388.93" x2="462.74" y2="388.53"/>
		
			<line fill="none" stroke="#FFFFFF" stroke-linecap="round" stroke-linejoin="round" x1="502.95" y1="390.57" x2="507.12" y2="390.76"/>
		<path fill="none" stroke="#FFFFFF" stroke-linecap="round" stroke-linejoin="round" d="M460.32,364.43
			c-0.41-0.01-0.82-0.03-1.24-0.04c-0.21-0.01-0.41-0.01-0.62-0.01c-0.1,0-0.21,0-0.31,0c-0.08,0-0.15,0-0.23,0
			c-0.02,0-0.04,0-0.06,0c0,0-0.02,0-0.02,0.01"/>
		
			<line fill="none" stroke="#FFFFFF" stroke-linecap="round" stroke-linejoin="round" x1="460.32" y1="364.43" x2="463.87" y2="364.56"/>
		<path fill="none" stroke="#FFFFFF" stroke-linecap="round" stroke-linejoin="round" d="M526.66,366.92
			c-1.68-0.11-3.37-0.2-5.05-0.28"/>
		
			<line fill="none" stroke="#FFFFFF" stroke-linecap="round" stroke-linejoin="round" x1="526.66" y1="366.92" x2="525.5" y2="391.69"/>
		<path fill="none" stroke="#FFFFFF" stroke-linecap="round" stroke-linejoin="round" d="M340.33,696.01
			c-7.54,6.29-16.63,9.28-26.21,9.79c-9.46,0.51-19.06-1.4-27.91-4.43c-17.7-6.06-34.53-17.27-48.54-29.29"/>
		<path fill="none" stroke="#FFFFFF" stroke-linecap="round" stroke-linejoin="round" d="M158.78,360.15
			c-0.37-0.23-0.65-0.51-0.9-0.87"/>
		<path fill="none" stroke="#FFFFFF" stroke-linecap="round" stroke-linejoin="round" d="M158.34,359.32c-0.15,0-0.3-0.02-0.45-0.04
			"/>
		<path fill="none" stroke="#FFFFFF" stroke-linecap="round" stroke-linejoin="round" d="M179.6,519.5
			c0.87,2.58,1.75,5.16,2.62,7.74"/>
		
			<line fill="none" stroke="#FFFFFF" stroke-linecap="round" stroke-linejoin="round" x1="169.23" y1="525.43" x2="167.61" y2="526.48"/>
		<path fill="none" stroke="#FFFFFF" stroke-linecap="round" stroke-linejoin="round" d="M188.76,453.78
			c1.66-1.74,3.42-3.32,5.32-4.77"/>
		<path fill="none" stroke="#FFFFFF" stroke-linecap="round" stroke-linejoin="round" d="M169.23,525.43
			c-0.42-3.12-0.74-6.25-0.95-9.39"/>
		<path fill="none" stroke="#FFFFFF" stroke-linecap="round" stroke-linejoin="round" d="M168.28,516.04
			c0.19,0.55,0.38,1.11,0.57,1.66"/>
		<path fill="none" stroke="#FFFFFF" stroke-linecap="round" stroke-linejoin="round" d="M168.85,517.7c0,0.01,0.01,0.02,0.01,0.03"
			/>
		<path fill="none" stroke="#FFFFFF" stroke-linecap="round" stroke-linejoin="round" d="M171.64,482.63
			c-0.21-0.83-0.42-1.65-0.63-2.48"/>
		
			<line fill="none" stroke="#FFFFFF" stroke-linecap="round" stroke-linejoin="round" x1="214.87" y1="530.79" x2="214.87" y2="530.79"/>
		
			<line fill="none" stroke="#FFFFFF" stroke-linecap="round" stroke-linejoin="round" x1="229" y1="531.24" x2="233.67" y2="532.02"/>
		<path fill="none" stroke="#FFFFFF" stroke-linecap="round" stroke-linejoin="round" d="M188.97,525.2
			c5.85-6.11,13.76-7.91,21.72-7.16"/>
		<path fill="none" stroke="#FFFFFF" stroke-linecap="round" stroke-linejoin="round" d="M450.83,256.27
			c-4.68-2.83-9.5-5.32-14.51-7.52c-5.01-2.19-10.1-4.04-15.34-5.59"/>
		
			<line fill="none" stroke="#FFFFFF" stroke-linecap="round" stroke-linejoin="round" x1="187.33" y1="361.62" x2="187.33" y2="361.62"/>
		<path fill="none" stroke="#FFFFFF" stroke-linecap="round" stroke-linejoin="round" d="M463.97,350.5
			c-0.75-0.33-1.43-0.75-2.08-1.25"/>
		<path fill="none" stroke="#FFFFFF" stroke-linecap="round" stroke-linejoin="round" d="M476.73,351.29
			c0.85,0.02,1.71,0.04,2.56,0.06"/>
		<path fill="none" stroke="#FFFFFF" stroke-linecap="round" stroke-linejoin="round" d="M508.43,352.14
			c0.78-0.11,1.52-0.4,2.12-0.93"/>
		<path fill="none" stroke="#FFFFFF" stroke-linecap="round" stroke-linejoin="round" d="M201.75,362.28
			c2.02-0.12,4.01-1.45,5.4-2.74c1.49-1.37,2.78-3.12,3.7-4.93"/>
		<path fill="none" stroke="#FFFFFF" stroke-linecap="round" stroke-linejoin="round" d="M317.03,136.71
			c1.55,0.13,3.1,0.29,4.65,0.47"/>
		<path fill="none" stroke="#FFFFFF" stroke-linecap="round" stroke-linejoin="round" d="M322.36,134.92
			c3.46,0.17,6.9,0.46,10.34,0.86"/>
		<path fill="none" stroke="#FFFFFF" stroke-linecap="round" stroke-linejoin="round" d="M300.44,136.23
			c-3.7,1.46-7.31,3.08-10.87,4.88c-3.66,1.84-7.21,3.84-10.68,6.01c-3.37,2.1-6.64,4.35-9.83,6.73c-3.28,2.46-6.45,5.04-9.53,7.76
			c-12.12,10.71-22.51,23.31-31.21,36.94c-17.47,27.38-28.09,58.98-34.12,90.56"/>
		<path fill="none" stroke="#FFFFFF" stroke-linecap="round" stroke-linejoin="round" d="M187.33,361.62
			c-0.02,2.03-0.03,4.06-0.02,6.1"/>
		<path fill="none" stroke="#FFFFFF" stroke-linecap="round" stroke-linejoin="round" d="M507.69,328.52
			c-0.65-11.05-1.73-22.02-3.34-32.96c-0.81-5.49-1.75-10.95-2.84-16.4c-1.08-5.39-2.3-10.75-3.69-16.07
			c-1.41-5.39-2.97-10.72-4.71-16.01c-1.72-5.2-3.6-10.33-5.68-15.39c-1.06-2.6-2.18-5.17-3.35-7.72c-1.15-2.53-2.36-5.02-3.61-7.5
			c-2.46-4.87-5.12-9.61-7.98-14.25c-11.59-18.78-26.43-35.36-44.74-47.84c-18.44-12.57-38.97-20.01-60.97-22.73"/>
		<path fill="none" stroke="#FFFFFF" stroke-linecap="round" stroke-linejoin="round" d="M450.83,256.27
			c-1.15-3.76-2.39-7.48-3.73-11.17c-1.32-3.65-2.74-7.26-4.25-10.83c-1.54-3.63-3.17-7.2-4.92-10.72
			c-1.72-3.48-3.53-6.89-5.45-10.26c-1.95-3.41-4-6.76-6.16-10.04c-2.13-3.22-4.35-6.37-6.69-9.44c-2.38-3.13-4.87-6.17-7.47-9.11
			c-2.56-2.9-5.2-5.69-7.96-8.38c-2.81-2.74-5.71-5.36-8.73-7.87c-2.97-2.47-6.02-4.8-9.18-7.02c-3.2-2.24-6.47-4.34-9.85-6.3
			c-3.33-1.94-6.74-3.73-10.23-5.38c-14.13-6.68-29.06-10.77-44.52-12.55"/>
		<path fill="none" stroke="#FFFFFF" stroke-linecap="round" stroke-linejoin="round" d="M464.63,265.96
			c-2.09-8.03-4.54-15.91-7.42-23.68c-1.45-3.9-3.01-7.76-4.68-11.58c-1.65-3.76-3.41-7.46-5.28-11.11
			c-1.9-3.72-3.92-7.36-6.06-10.94c-2.1-3.52-4.32-6.96-6.65-10.32c-2.38-3.42-4.88-6.75-7.5-10c-2.57-3.17-5.26-6.24-8.07-9.21
			c-5.7-6.01-11.76-11.48-18.37-16.45c-3.31-2.49-6.72-4.83-10.24-7.02c-3.48-2.16-7.03-4.15-10.68-5.99
			c-14.81-7.44-30.58-11.96-46.96-13.89"/>
		<path fill="none" stroke="#FFFFFF" stroke-linecap="round" stroke-linejoin="round" d="M171.64,482.63
			c0.96-3.09,2.13-6.08,3.57-8.98"/>
		<path fill="none" stroke="#FFFFFF" stroke-linecap="round" stroke-linejoin="round" d="M331.62,132.42
			c2.55-0.58,5.11-1.09,7.7-1.52"/>
		<path fill="none" stroke="#FFFFFF" stroke-linecap="round" stroke-linejoin="round" d="M476.73,351.29
			c0.01,2.25,0.01,4.51-0.01,6.76"/>
		<path fill="none" stroke="#FFFFFF" stroke-linecap="round" stroke-linejoin="round" d="M143.49,377.26
			c-1.37,0.1-2.74,0.23-4.1,0.4"/>
		<path fill="none" stroke="#FFFFFF" stroke-linecap="round" stroke-linejoin="round" d="M168.29,468.7
			c-1.64-7.28-3.09-14.59-4.37-21.95c-1.28-7.35-2.38-14.73-3.3-22.14"/>
		<path fill="none" stroke="#FFFFFF" stroke-linecap="round" stroke-linejoin="round" d="M348.57,249.54
			c-8.87-0.64-17.31-0.03-26.03,1.65"/>
		<path fill="none" stroke="#FFFFFF" stroke-linecap="round" stroke-linejoin="round" d="M245.13,253.37
			c3.29-1.73,6.63-3.33,10.03-4.81c3.4-1.48,6.85-2.83,10.36-4.04c3.5-1.22,7.04-2.31,10.62-3.26c3.58-0.96,7.2-1.77,10.84-2.46"/>
		<path fill="none" stroke="#FFFFFF" stroke-linecap="round" stroke-linejoin="round" d="M420.97,243.17
			c-3.17-1.27-6.37-2.42-9.63-3.44c-3.26-1.02-6.54-1.92-9.86-2.69c-3.32-0.77-6.66-1.42-10.03-1.95
			c-3.37-0.53-6.74-0.93-10.14-1.22"/>
		<path fill="none" stroke="#FFFFFF" stroke-linecap="round" stroke-linejoin="round" d="M160.71,491.54
			c-3.26,11.36-3.56,23.81-2.4,35.39c1.18,11.77,3.95,23.6,7.61,34.79"/>
		<path fill="none" stroke="#FFFFFF" stroke-linecap="round" stroke-linejoin="round" d="M165.68,508.11
			c-0.31,14.84,2.52,30.22,6.73,44.29"/>
		<path fill="none" stroke="#FFFFFF" stroke-linecap="round" stroke-linejoin="round" d="M168.29,468.7c2.87-3.39,6.2-6.28,9.98-8.6
			"/>
		<path fill="none" stroke="#FFFFFF" stroke-linecap="round" stroke-linejoin="round" d="M322.54,251.19
			c-24.28,9.12-46.47,23.38-65.39,41.13c-2.35,2.2-4.64,4.45-6.89,6.76c-2.28,2.35-4.52,4.75-6.7,7.2
			c-4.32,4.87-8.41,9.9-12.28,15.13c-1.92,2.6-3.79,5.23-5.6,7.91c-1.83,2.71-3.61,5.46-5.33,8.25c-3.41,5.55-6.58,11.23-9.52,17.05
			"/>
		<path fill="none" stroke="#FFFFFF" stroke-linecap="round" stroke-linejoin="round" d="M348.57,249.54
			c6.03,1.66,11.91,3.65,17.71,5.99c2.89,1.16,5.73,2.4,8.55,3.73c2.84,1.33,5.63,2.74,8.39,4.24c2.74,1.48,5.42,3.03,8.07,4.66
			c2.68,1.64,5.3,3.36,7.88,5.16c2.55,1.77,5.06,3.61,7.5,5.53c2.48,1.94,4.9,3.93,7.28,6c4.73,4.13,9.2,8.49,13.45,13.11
			c4.25,4.62,8.22,9.44,11.96,14.49c3.73,5.06,7.18,10.29,10.37,15.72c3.18,5.42,6.07,10.98,8.69,16.71"/>
		<path fill="none" stroke="#FFFFFF" stroke-linecap="round" stroke-linejoin="round" d="M165.68,508.11
			c0.84,2.65,1.71,5.29,2.6,7.93"/>
		
			<line fill="none" stroke="#FFFFFF" stroke-linecap="round" stroke-linejoin="round" x1="334.81" y1="239.89" x2="334.81" y2="239.89"/>
		<path fill="none" stroke="#FFFFFF" stroke-linecap="round" stroke-linejoin="round" d="M172.09,343.5
			c-0.66-0.51-1.32-1.03-1.98-1.53"/>
		<path fill="none" stroke="#FFFFFF" stroke-linecap="round" stroke-linejoin="round" d="M286.98,238.79
			c15.57-2.95,31.17-4.85,47-5.68c7.89-0.41,15.78-0.55,23.68-0.42c7.9,0.13,15.78,0.53,23.65,1.19"/>
		<path fill="none" stroke="#FFFFFF" stroke-linecap="round" stroke-linejoin="round" d="M470.7,339.17
			C470.7,339.17,470.7,339.17,470.7,339.17c0.01,0,0.01,0.01,0.02,0.01c0.02,0.01,0.04,0.01,0.06,0.02
			c0.03,0.01,0.06,0.02,0.09,0.02c0.06,0.02,0.12,0.03,0.17,0.03c0.12,0.02,0.23,0.03,0.35,0.04"/>
		<path fill="none" stroke="#FFFFFF" stroke-linecap="round" stroke-linejoin="round" d="M182.54,457.83
			c0.08-0.06,0.17-0.13,0.25-0.19"/>
		
			<line fill="none" stroke="#FFFFFF" stroke-linecap="round" stroke-linejoin="round" x1="178.27" y1="460.1" x2="178.29" y2="460.09"/>
		
			<line fill="none" stroke="#FFFFFF" stroke-linecap="round" stroke-linejoin="round" x1="233.67" y1="532.02" x2="226.88" y2="536.62"/>
		
			<line fill="none" stroke="#FFFFFF" stroke-linecap="round" stroke-linejoin="round" x1="235.08" y1="535.36" x2="233.67" y2="532.02"/>
		
			<line fill="none" stroke="#FFFFFF" stroke-linecap="round" stroke-linejoin="round" x1="226.88" y1="536.62" x2="244.45" y2="578.01"/>
		
			<line fill="none" stroke="#FFFFFF" stroke-linecap="round" stroke-linejoin="round" x1="251.12" y1="573.27" x2="235.08" y2="535.36"/>
		<path fill="none" stroke="#FFFFFF" stroke-linecap="round" stroke-linejoin="round" d="M157.12,348.22
			c0.42-11.38,1.28-22.69,2.66-33.99c0.7-5.67,1.52-11.31,2.49-16.94c0.96-5.58,2.06-11.12,3.31-16.64
			c1.27-5.59,2.7-11.13,4.29-16.63c1.57-5.42,3.3-10.77,5.21-16.07c0.98-2.72,2.01-5.42,3.08-8.11c1.07-2.65,2.18-5.28,3.34-7.89
			c1.15-2.58,2.34-5.13,3.59-7.66c1.23-2.5,2.5-4.96,3.83-7.41c10.79-19.87,24.97-38.06,42.64-52.3
			c17.81-14.35,38.28-23.98,60.82-27.87"/>
		<path fill="none" stroke="#FFFFFF" stroke-linecap="round" stroke-linejoin="round" d="M511.9,350.02
			c-0.45,0.4-0.9,0.79-1.35,1.19"/>
		<path fill="none" stroke="#FFFFFF" stroke-linecap="round" stroke-linejoin="round" d="M158.78,360.15
			c-0.64-0.4-1.28-0.81-1.93-1.21"/>
		<path fill="none" stroke="#FFFFFF" stroke-linecap="round" stroke-linejoin="round" d="M160.43,360.62
			c-0.58-0.02-1.15-0.16-1.65-0.48"/>
		<path fill="none" stroke="#FFFFFF" stroke-linecap="round" stroke-linejoin="round" d="M461.89,349.25
			c-1.46-1.13-2.71-2.68-3.49-4.37"/>
		<path fill="none" stroke="#FFFFFF" stroke-linecap="round" stroke-linejoin="round" d="M466.51,351.09
			c-0.87-0.01-1.74-0.25-2.53-0.6"/>
		<path fill="none" stroke="#FFFFFF" stroke-linecap="round" stroke-linejoin="round" d="M511.17,350.5c0.88-1.31,0.85-3,0.45-4.42"
			/>
		<path fill="none" stroke="#FFFFFF" stroke-linecap="round" stroke-linejoin="round" d="M292.4,136.7
			c2.68-0.24,5.35-0.39,8.04-0.47"/>
		<path fill="none" stroke="#FFFFFF" stroke-linecap="round" stroke-linejoin="round" d="M291.37,133.48
			c-1.85,0.17-3.69,0.38-5.53,0.62"/>
		<path fill="none" stroke="#FFFFFF" stroke-linecap="round" stroke-linejoin="round" d="M285.84,134.1
			c-25.87,3.42-49.24,14.15-69.23,30.88c-2.38,2-4.7,4.06-6.96,6.2c-2.31,2.18-4.55,4.43-6.73,6.75c-4.51,4.8-8.7,9.83-12.63,15.12
			c-1.87,2.51-3.67,5.06-5.41,7.67c-1.77,2.65-3.48,5.35-5.11,8.09c-3.37,5.63-6.45,11.4-9.27,17.33c-1.36,2.86-2.66,5.74-3.9,8.65
			c-1.25,2.95-2.45,5.93-3.59,8.93c-1.15,3.04-2.24,6.09-3.28,9.17c-1.04,3.11-2.03,6.24-2.96,9.38
			c-1.82,6.16-3.42,12.36-4.83,18.63c-1.43,6.34-2.65,12.71-3.7,19.14c-1.04,6.36-1.89,12.74-2.59,19.15
			c-0.7,6.44-1.23,12.88-1.61,19.35c-0.76,12.92-0.91,25.8-0.54,38.73"/>
		<path fill="none" stroke="#FFFFFF" stroke-linecap="round" stroke-linejoin="round" d="M285.84,134.1
			c3.66-0.49,7.32-0.97,10.98-1.45"/>
		<path fill="none" stroke="#FFFFFF" stroke-linecap="round" stroke-linejoin="round" d="M332.69,132.54
			c-0.36-0.04-0.71-0.08-1.07-0.12"/>
		<path fill="none" stroke="#FFFFFF" stroke-linecap="round" stroke-linejoin="round" d="M332.41,128.15
			c-5.89,0.71-11.67,1.81-17.42,3.32"/>
		<path fill="none" stroke="#FFFFFF" stroke-linecap="round" stroke-linejoin="round" d="M345.14,130.08
			c11.11-1.31,22.27-1.17,33.35,0.22"/>
		<path fill="none" stroke="#FFFFFF" stroke-linecap="round" stroke-linejoin="round" d="M190.22,420.44
			c-1.71,1.39-3.68,2.37-5.88,2.72"/>
		<path fill="none" stroke="#FFFFFF" stroke-linecap="round" stroke-linejoin="round" d="M508.43,357.66c0.01-1.84,0.01-3.68,0-5.52
			"/>
		<path fill="none" stroke="#FFFFFF" stroke-linecap="round" stroke-linejoin="round" d="M169.44,525.29
			c-0.27-2.52-0.47-5.05-0.59-7.59"/>
		<path fill="none" stroke="#FFFFFF" stroke-linecap="round" stroke-linejoin="round" d="M378.5,126.96
			c12.67,1.62,24.98,4.81,36.78,9.76c5.83,2.45,11.42,5.26,16.86,8.49c2.75,1.64,5.44,3.36,8.08,5.19c2.67,1.85,5.27,3.78,7.81,5.81
			c2.43,1.95,4.8,3.96,7.11,6.06c2.34,2.13,4.62,4.33,6.83,6.6c2.24,2.31,4.42,4.69,6.52,7.13c2.14,2.48,4.2,5.03,6.2,7.64
			c3.83,5.02,7.37,10.21,10.67,15.61c3.4,5.56,6.5,11.26,9.34,17.13c2.77,5.71,5.27,11.53,7.54,17.46
			c2.32,6.06,4.38,12.2,6.22,18.42c1.81,6.13,3.4,12.3,4.79,18.54c1.41,6.31,2.61,12.64,3.63,19.02c1.02,6.33,1.85,12.68,2.53,19.05
			c0.68,6.4,1.2,12.81,1.58,19.24c0.75,12.84,0.92,25.66,0.61,38.52"/>
		
			<line fill="none" stroke="#FFFFFF" stroke-linecap="round" stroke-linejoin="round" x1="188.67" y1="524.52" x2="184.14" y2="523.76"/>
		
			<line fill="none" stroke="#FFFFFF" stroke-linecap="round" stroke-linejoin="round" x1="167.61" y1="526.48" x2="173.73" y2="551"/>
		<path fill="none" stroke="#FFFFFF" stroke-linecap="round" stroke-linejoin="round" d="M190.22,420.44
			c0.4,3.8,0.85,7.59,1.33,11.38"/>
		<path fill="none" stroke="#FFFFFF" stroke-linecap="round" stroke-linejoin="round" d="M201.9,379.77
			c-0.15-5.83-0.2-11.66-0.15-17.49"/>
		<path fill="none" stroke="#FFFFFF" stroke-linecap="round" stroke-linejoin="round" d="M339.32,130.91
			c4.59-0.33,9.15-0.43,13.75-0.3c4.59,0.13,9.15,0.48,13.71,1.05"/>
		<path fill="none" stroke="#FFFFFF" stroke-linecap="round" stroke-linejoin="round" d="M339.32,130.91
			c1.94-0.32,3.88-0.59,5.82-0.82"/>
		<path fill="none" stroke="#FFFFFF" stroke-linecap="round" stroke-linejoin="round" d="M332.41,128.15
			c3.91-0.47,7.82-0.94,11.73-1.41"/>
		<path fill="none" stroke="#FFFFFF" stroke-linecap="round" stroke-linejoin="round" d="M378.5,126.96
			c-11.42-1.46-22.92-1.61-34.36-0.23"/>
		<path fill="none" stroke="#FFFFFF" stroke-linecap="round" stroke-linejoin="round" d="M332.69,132.54
			c4.21,0.51,8.38,1.18,12.54,2.03c4.14,0.85,8.23,1.88,12.28,3.09c4.05,1.21,8.02,2.6,11.95,4.17c3.95,1.58,7.8,3.34,11.59,5.29
			c3.74,1.92,7.38,4.01,10.94,6.26c3.61,2.29,7.1,4.74,10.49,7.35c3.33,2.57,6.54,5.27,9.65,8.11c3.16,2.9,6.19,5.92,9.11,9.08
			c2.86,3.1,5.59,6.29,8.2,9.61c2.67,3.38,5.2,6.85,7.61,10.42c2.36,3.5,4.6,7.07,6.72,10.72c2.16,3.72,4.19,7.5,6.11,11.36
			c3.8,7.66,7.09,15.48,9.96,23.53c1.43,4,2.75,8.04,3.96,12.11c1.23,4.11,2.35,8.25,3.38,12.41"/>
		
			<line fill="none" stroke="#FFFFFF" stroke-linecap="round" stroke-linejoin="round" x1="184.34" y1="423.16" x2="177.29" y2="424.27"/>
		<path fill="none" stroke="#FFFFFF" stroke-linecap="round" stroke-linejoin="round" d="M211.19,411.09c0,0.06-0.04,0.11-0.07,0.15
			c-0.07,0.06-0.15,0.11-0.24,0.15c-0.14,0.06-0.28,0.11-0.42,0.16c-0.29,0.09-0.57,0.17-0.87,0.24c-0.58,0.13-1.17,0.23-1.76,0.32"
			/>
		<path fill="none" stroke="#FFFFFF" stroke-linecap="round" stroke-linejoin="round" d="M209.45,380.48
			c-0.01-0.09-0.15-0.14-0.21-0.16c-0.09-0.03-0.17-0.05-0.26-0.07c-0.18-0.04-0.36-0.06-0.54-0.09c-0.36-0.04-0.72-0.07-1.08-0.09"
			/>
		
			<line fill="none" stroke="#FFFFFF" stroke-linecap="round" stroke-linejoin="round" x1="209.45" y1="380.48" x2="211.19" y2="411.09"/>
		
			<line fill="none" stroke="#FFFFFF" stroke-linecap="round" stroke-linejoin="round" x1="201.92" y1="380.79" x2="200.25" y2="381.01"/>
		<path fill="none" stroke="#FFFFFF" stroke-linecap="round" stroke-linejoin="round" d="M206.08,381.33
			c0.58-0.08,1.17-0.17,1.75-0.28c0.29-0.05,0.58-0.12,0.86-0.19c0.14-0.04,0.28-0.08,0.42-0.13c0.09-0.04,0.18-0.07,0.26-0.13
			c0.03-0.03,0.09-0.07,0.08-0.12"/>
		<path fill="none" stroke="#FFFFFF" stroke-linecap="round" stroke-linejoin="round" d="M244.76,456.05
			C244.76,456.05,244.76,456.05,244.76,456.05c-0.01,0-0.02,0-0.02,0c-0.02,0-0.04,0-0.06,0c-0.03,0-0.06,0.01-0.09,0.01
			c-0.05,0-0.11,0.01-0.17,0.01c-0.11,0.01-0.23,0.01-0.34,0.02"/>
		<path fill="none" stroke="#FFFFFF" stroke-linecap="round" stroke-linejoin="round" d="M421.93,597.34c0-0.02,0-0.03-0.01-0.05
			c0-0.01,0-0.02,0-0.03c0,0,0-0.01,0-0.01v-0.01v0"/>
		<path fill="none" stroke="#FFFFFF" stroke-linecap="round" stroke-linejoin="round" d="M421.1,626.72
			C421.1,626.72,421.1,626.72,421.1,626.72c0.01-0.01,0.01-0.02,0.01-0.03c0.01-0.02,0.02-0.05,0.02-0.08
			c0.01-0.04,0.02-0.07,0.03-0.11c0.02-0.07,0.03-0.15,0.04-0.22c0.01-0.07,0.03-0.14,0.04-0.22c0.01-0.04,0.01-0.07,0.02-0.11
			c0.01-0.03,0.01-0.05,0.01-0.08c0-0.01,0-0.01,0-0.02c0,0,0-0.01,0-0.01"/>
		<path fill="none" stroke="#FFFFFF" stroke-linecap="round" stroke-linejoin="round" d="M204.39,419.73
			c2.21-1.99,4.57-3.81,7.07-5.47c45.48-30.13,122.3,6.96,171.57,82.84c49.27,75.89,52.34,161.83,6.86,191.97
			c-14.8,9.8-32.91,12.49-52.31,9.04"/>
		<path fill="none" stroke="#FFFFFF" stroke-linecap="round" stroke-linejoin="round" d="M182.86,457.3
			c2.11-8.19,5.14-15.7,9.11-22.35"/>
		<path fill="none" stroke="#FFFFFF" stroke-linecap="round" stroke-linejoin="round" d="M471.39,403.18
			c58.5,25.13,82.54,104.92,53.63,180.05c-24.14,62.76-77.7,102.72-129.63,101.73"/>
		<path fill="none" stroke="#FFFFFF" stroke-linecap="round" stroke-linejoin="round" d="M331.29,438.11
			c35.53-39.54,85.53-56.86,129.12-39.75c60.53,23.76,85.79,104.88,56.44,181.2c-22.17,57.64-69.16,96.05-116.9,101.16"/>
		<path fill="none" stroke="#FFFFFF" stroke-linecap="round" stroke-linejoin="round" d="M212.43,548.61
			c11.23,6.49,22.4,16.81,32.02,29.88l6.67-5.22"/>
		<path fill="none" stroke="#FFFFFF" stroke-linecap="round" stroke-linejoin="round" d="M237.52,594.15
			c18.66,29.24,22.03,60.58,7.54,70.02c-14.49,9.44-41.36-6.62-60.01-35.85c-18.66-29.23-22.03-60.58-7.54-70.02
			C192,548.86,218.87,564.91,237.52,594.15z"/>
		<polyline fill="none" stroke="#FFFFFF" stroke-linecap="round" stroke-linejoin="round" points="514.85,439.86 513.33,437.66 
			503.5,425.68 		"/>
		<path fill="none" stroke="#FFFFFF" stroke-linecap="round" stroke-linejoin="round" d="M174.19,551c0,0,5.74-6.21,14.42-6.67"/>
	</g>
</g>
<g id="text" opacity="0.9">
	<g>
		<polygon fill="#C9B8A0" points="326.72,51.92 331.03,51.92 331.03,57.1 331.49,57.1 336.92,51.92 342.78,51.92 335.17,58.82 
			343.67,66.03 337.7,66.03 331.49,60.61 331.03,60.61 331.03,66.03 326.72,66.03 		"/>
		<path fill="#C9B8A0" d="M313.97,60.49h4.84l-2.46-5.3L313.97,60.49z M313.97,60.49h4.84l-2.46-5.3L313.97,60.49z M313.97,60.49
			h4.84l-2.46-5.3L313.97,60.49z M313.89,51.92h4.93l6.79,14.1h-4.21l-1.18-2.49h-7.68l-1.11,2.49h-4.23L313.89,51.92z
			 M313.89,51.92h4.93l6.79,14.1h-4.21l-1.18-2.49h-7.68l-1.11,2.49h-4.23L313.89,51.92z M313.89,51.92h4.93l6.79,14.1h-4.21
			l-1.18-2.49h-7.68l-1.11,2.49h-4.23L313.89,51.92z"/>
		<path fill="#C9B8A0" d="M358.28,55.79l0.56-3.53c-1.97-0.39-3.96-0.62-5.96-0.7c-2.38-0.06-4.42,0.19-5.04,0.3
			c-1.16,0.2-2.13,0.58-2.89,1.14c-0.78,0.57-1.38,1.36-1.71,2.27c-0.38,0.97-0.57,2.19-0.57,3.7c0,1.5,0.19,2.73,0.57,3.67
			c0.34,0.89,0.93,1.67,1.7,2.24c0.76,0.54,1.72,0.91,2.88,1.1c1.39,0.21,2.79,0.31,4.2,0.3c3.03,0,6.41-0.85,7.04-1.11v-6.54h-6.51
			v2.67h2.83v1.16c-1.11,0.22-2.23,0.35-3.36,0.38c-5.03,0.13-5.38-1.83-5.38-3.91c0-1.85,0.65-3.37,2.97-3.67
			C351.93,54.95,354.88,55.1,358.28,55.79"/>
	</g>
	<g>
		<g>
			<g>
				
					<line fill="none" stroke="#FFFFFF" stroke-width="0.75" stroke-miterlimit="10" x1="509.87" y1="465.03" x2="611.64" y2="465.03"/>
				<g>
					<circle fill="#FFFFFF" cx="509.96" cy="465.03" r="1.97"/>
				</g>
				<g>
					<circle fill="#FFFFFF" cx="611.13" cy="465.03" r="10.24"/>
				</g>
			</g>
		</g>
		<g>
			<g>
				<path fill="#3F3F3F" d="M614.08,458.81l-3.61,4.31c0.51-0.23,1.14-0.4,1.77-0.4c0.95,0,2.03,0.38,2.87,1.22
					c0.89,0.89,1.2,1.94,1.2,3.02c0,1.18-0.32,2.32-1.31,3.31c-1.25,1.25-2.83,1.5-4.05,1.5c-2.18,0-3.46-0.82-4.16-1.54
					c-0.61-0.63-1.16-1.6-1.16-2.96c0-1.73,0.87-3.4,1.88-4.73l2.83-3.72H614.08z M612.35,468.58c0.36-0.36,0.59-0.87,0.59-1.44
					c0-0.4-0.13-0.89-0.59-1.33c-0.51-0.49-1.08-0.59-1.46-0.59c-0.49,0-1.04,0.21-1.42,0.55c-0.4,0.36-0.63,0.88-0.63,1.31
					c0,0.53,0.19,1.06,0.55,1.44c0.49,0.51,1.08,0.64,1.5,0.64C611.59,469.17,612.07,468.86,612.35,468.58z"/>
			</g>
		</g>
	</g>
	<g>
		<g>
			<g>
				
					<line fill="none" stroke="#FFFFFF" stroke-width="0.75" stroke-miterlimit="10" x1="472.92" y1="315.43" x2="611.64" y2="315.43"/>
				<g>
					<circle fill="#FFFFFF" cx="473.02" cy="315.43" r="1.97"/>
				</g>
				<g>
					<circle fill="#FFFFFF" cx="611.13" cy="315.43" r="10.24"/>
				</g>
			</g>
		</g>
		<g>
			<g>
				<path fill="#3F3F3F" d="M614.67,312h-4.39l-0.23,1.41c0.48-0.08,0.86-0.1,1.03-0.1c1.69,0,2.75,0.65,3.34,1.25
					c0.57,0.57,1.16,1.54,1.16,3c0,1.52-0.61,2.55-1.22,3.17c-1.18,1.22-2.74,1.42-3.95,1.42c-1.92,0-3.25-0.49-4.27-1.14l0.49-3.08
					c0.66,0.61,1.31,0.93,1.52,1.03c0.57,0.27,1.27,0.44,1.9,0.44c0.67,0,1.27-0.23,1.65-0.63c0.28-0.3,0.49-0.76,0.49-1.29
					c0-0.66-0.32-1.12-0.61-1.37c-0.68-0.61-1.86-0.63-2.28-0.63c-0.89,0-1.65,0.19-2.34,0.53l1.1-6.82h6.59V312z"/>
			</g>
		</g>
	</g>
	<g>
		<g>
			<g>
				
					<line fill="none" stroke="#FFFFFF" stroke-width="0.75" stroke-miterlimit="10" x1="257.21" y1="259.4" x2="611.64" y2="259.4"/>
				<g>
					<circle fill="#FFFFFF" cx="257.3" cy="259.4" r="1.97"/>
				</g>
				<g>
					<circle fill="#FFFFFF" cx="611.13" cy="259.4" r="10.24"/>
				</g>
			</g>
		</g>
		<g>
			<g>
				<path fill="#3F3F3F" d="M614.65,260.93h1.54v2.53h-1.54v2.39h-3.04v-2.39h-6.14v-2.11l4.88-8.17h4.29V260.93z M611.61,260.93
					v-5.17l-2.98,5.17H611.61z"/>
			</g>
		</g>
	</g>
	<g>
		<g>
			<g>
				
					<line fill="none" stroke="#FFFFFF" stroke-width="0.75" stroke-miterlimit="10" x1="437.77" y1="531.62" x2="611.64" y2="531.62"/>
				<g>
					<circle fill="#FFFFFF" cx="437.87" cy="531.62" r="1.97"/>
				</g>
				<g>
					<circle fill="#FFFFFF" cx="611.13" cy="531.62" r="10.24"/>
				</g>
			</g>
		</g>
		<g>
			<g>
				<path fill="#3F3F3F" d="M612.14,528.19h-5.28v-2.79h10.39L610,538.07h-3.63L612.14,528.19z"/>
			</g>
		</g>
	</g>
	<g>
		<g>
			<g>
				
					<line fill="none" stroke="#FFFFFF" stroke-width="0.75" stroke-miterlimit="10" x1="368.7" y1="604.12" x2="611.64" y2="604.12"/>
				<g>
					<circle fill="#FFFFFF" cx="368.79" cy="604.12" r="1.97"/>
				</g>
				<g>
					<circle fill="#FFFFFF" cx="611.13" cy="604.12" r="10.24"/>
				</g>
			</g>
		</g>
		<g>
			<g>
				<path fill="#3F3F3F" d="M614.84,604.87c0.78,0.76,0.97,1.61,0.97,2.24c0,0.86-0.36,1.73-1.03,2.39
					c-0.44,0.44-1.58,1.35-3.84,1.35c-2.17,0-3.29-0.84-3.78-1.33c-0.68-0.68-1.04-1.6-1.04-2.41c0-0.84,0.4-1.75,0.93-2.28
					c0.4-0.4,1.04-0.76,1.6-0.93c-0.44-0.17-0.86-0.44-1.14-0.72c-0.4-0.4-0.85-1.04-0.85-2.01c0-0.95,0.42-1.8,1.04-2.39
					c0.78-0.72,2-1.16,3.38-1.16c1.37,0,2.53,0.46,3.27,1.22c0.47,0.48,0.93,1.24,0.93,2.32c0,0.91-0.34,1.54-0.78,1.98
					c-0.3,0.3-0.8,0.61-1.29,0.78C613.89,604.11,614.44,604.47,614.84,604.87z M609.9,605.66c-0.3,0.3-0.46,0.68-0.46,1.04
					c0,0.34,0.11,0.74,0.44,1.06c0.27,0.27,0.65,0.46,1.08,0.46c0.46,0,0.78-0.15,1.06-0.44c0.3-0.3,0.46-0.65,0.46-1.08
					c0-0.42-0.15-0.76-0.46-1.04c-0.34-0.32-0.74-0.44-1.06-0.44C610.6,605.23,610.2,605.38,609.9,605.66z M609.96,600.25
					c-0.25,0.27-0.38,0.63-0.38,0.97c0,0.32,0.17,0.67,0.4,0.91c0.29,0.3,0.67,0.42,1.01,0.42c0.29,0,0.63-0.08,0.93-0.38
					c0.28-0.28,0.44-0.64,0.44-0.97c0-0.34-0.15-0.74-0.44-1.01c-0.27-0.25-0.55-0.38-0.91-0.38
					C610.53,599.81,610.18,600,609.96,600.25z"/>
			</g>
		</g>
	</g>
	<g>
		<g>
			<g>
				
					<line fill="none" stroke="#FFFFFF" stroke-width="0.75" stroke-miterlimit="10" x1="164.04" y1="392.89" x2="42.07" y2="392.89"/>
				<g>
					<circle fill="#FFFFFF" cx="163.94" cy="392.89" r="1.97"/>
				</g>
				<g>
					<circle fill="#FFFFFF" cx="42.58" cy="392.89" r="10.24"/>
				</g>
			</g>
		</g>
		<g>
			<g>
				<path fill="#3F3F3F" d="M47.1,399.34H36.94l3.21-3.36c1.14-1.2,2-2.24,2.6-3.21c0.34-0.53,0.68-1.16,0.68-1.98
					c0-0.13,0-0.8-0.38-1.22c-0.19-0.21-0.51-0.38-0.93-0.38c-0.53,0-0.89,0.25-1.1,0.51c-0.3,0.4-0.44,1.12-0.46,1.56h-3.4
					c0.02-1.65,0.74-2.85,1.41-3.51c0.85-0.86,2.01-1.37,3.59-1.37c1.9,0,3,0.74,3.57,1.31c0.51,0.51,1.23,1.48,1.23,3.12
					c0,1.6-0.74,2.7-1.88,3.76l-2.13,1.97h4.14V399.34z"/>
			</g>
		</g>
	</g>
	<g>
		<g>
			<g>
				
					<line fill="none" stroke="#FFFFFF" stroke-width="0.75" stroke-miterlimit="10" x1="173.05" y1="226.87" x2="42.07" y2="226.87"/>
				<g>
					<circle fill="#FFFFFF" cx="172.95" cy="226.87" r="1.97"/>
				</g>
				<g>
					<circle fill="#FFFFFF" cx="42.58" cy="226.87" r="10.24"/>
				</g>
			</g>
		</g>
		<g>
			<g>
				<path fill="#3F3F3F" d="M40.89,223.44h-1.8v-2.79h5.09v12.67h-3.29V223.44z"/>
			</g>
		</g>
	</g>
	<g>
		<g>
			<g>
				<line fill="none" stroke="#FFFFFF" stroke-width="0.75" stroke-miterlimit="10" x1="209.41" y1="608" x2="42.07" y2="608"/>
				<g>
					<circle fill="#FFFFFF" cx="209.31" cy="608" r="1.97"/>
				</g>
				<g>
					<circle fill="#FFFFFF" cx="42.58" cy="608" r="10.24"/>
				</g>
			</g>
		</g>
		<g>
			<g>
				<path fill="#3F3F3F" d="M40.34,610.12c0.02,0.48,0.21,0.97,0.51,1.27c0.29,0.3,0.74,0.49,1.29,0.49c0.65,0,1.04-0.29,1.29-0.55
					c0.29-0.32,0.38-0.67,0.38-1.04c0-0.55-0.27-0.93-0.49-1.12c-0.32-0.27-0.82-0.36-1.22-0.36c-0.21,0-0.38,0.02-0.55,0.08v-2.22
					c0.67,0.1,1.08-0.09,1.35-0.32c0.3-0.27,0.42-0.61,0.42-0.89c0-0.34-0.15-0.72-0.34-0.91c-0.21-0.21-0.57-0.34-0.93-0.34
					c-0.4,0-0.72,0.13-0.91,0.32c-0.29,0.27-0.44,0.72-0.44,1.12h-3.06c0.08-1.33,0.66-2.34,1.23-2.91
					c0.93-0.97,2.13-1.24,3.34-1.24c0.95,0,2.2,0.19,3.15,1.12c0.63,0.63,1.03,1.48,1.03,2.45c0,0.55-0.09,1.04-0.38,1.56
					c-0.23,0.42-0.51,0.74-0.97,0.97c0.78,0.28,1.24,0.78,1.5,1.16c0.36,0.53,0.53,1.14,0.53,1.86c0,1.35-0.59,2.24-1.12,2.77
					c-0.68,0.68-1.9,1.35-3.78,1.35c-1.22,0-2.53-0.29-3.63-1.31c-0.65-0.59-1.42-1.67-1.58-3.31H40.34z"/>
			</g>
		</g>
	</g>
</g>
</svg>
