<?xml version="1.0" encoding="utf-8"?>
<!-- Generator: Adobe Illustrator 16.0.0, SVG Export Plug-In . SVG Version: 6.00 Build 0)  -->
<!DOCTYPE svg PUBLIC "-//W3C//DTD SVG 1.1//EN" "http://www.w3.org/Graphics/SVG/1.1/DTD/svg11.dtd">
<svg version="1.1" id="Layer_1" xmlns="http://www.w3.org/2000/svg" xmlns:xlink="http://www.w3.org/1999/xlink" x="0px" y="0px"
	  viewBox="416.861 328.653 599.987 168.16"
	 enable-background="new 416.861 328.653 599.987 168.16" xml:space="preserve">
<polygon points="644.205,332.813 693.394,332.813 693.394,392.054 698.604,392.054 760.632,332.813 827.614,332.813 
	740.677,411.632 837.784,494.01 769.529,494.01 698.604,432.099 693.394,432.099 693.394,494.01 644.205,494.01 "/>
<path d="M498.545,430.7h55.289l-28.089-60.512L498.545,430.7z M498.545,430.7h55.289l-28.089-60.512L498.545,430.7z M498.545,430.7
	h55.289l-28.089-60.512L498.545,430.7z M497.654,332.813h56.307l77.533,161.07H583.45l-13.473-28.476h-87.702l-12.71,28.476h-48.298
	L497.654,332.813z M497.654,332.813h56.307l77.533,161.07H583.45l-13.473-28.476h-87.702l-12.71,28.476h-48.298L497.654,332.813z
	 M497.654,332.813h56.307l77.533,161.07H583.45l-13.473-28.476h-87.702l-12.71,28.476h-48.298L497.654,332.813z"/>
<path d="M1004.671,377.053l6.354-40.299c-22.465-4.444-45.244-7.122-68.128-8.009c-27.2-0.636-50.46,2.161-57.578,3.432
	c-13.218,2.289-24.277,6.612-33.047,12.968c-8.92,6.544-15.726,15.561-19.574,25.933c-4.322,11.06-6.481,25.043-6.481,42.206
	s2.16,31.147,6.481,41.953c3.89,10.21,10.642,19.082,19.447,25.552c8.642,6.102,19.701,10.425,32.92,12.586
	c15.858,2.391,31.879,3.538,47.917,3.432c34.573,0,73.212-9.662,80.457-12.713v-74.75h-74.354v30.51h32.284v13.221
	c-12.652,2.513-25.492,3.958-38.386,4.323c-57.45,1.525-61.39-20.849-61.39-44.622c0-21.104,7.372-38.52,33.936-41.952
	C932.094,367.391,965.904,369.172,1004.671,377.053"/>
<rect x="416.861" y="328.653" fill="none" width="599.988" height="168.161"/>
</svg>
