<?xml version="1.0" encoding="utf-8"?>
<!-- Generator: Adobe Illustrator 16.0.0, SVG Export Plug-In . SVG Version: 6.00 Build 0)  -->
<!DOCTYPE svg PUBLIC "-//W3C//DTD SVG 1.1//EN" "http://www.w3.org/Graphics/SVG/1.1/DTD/svg11.dtd">
<svg version="1.1" xmlns="http://www.w3.org/2000/svg" xmlns:xlink="http://www.w3.org/1999/xlink" x="0px" y="0px"
	  viewBox="0 0 589.015 581.104" enable-background="new 0 0 589.015 581.104"
	 xml:space="preserve" fill="#fff">
<g id="bg">
</g>
<g id="content">
</g>
<g id="text" opacity="0.9">
	<g>
		<path  d="M578.54,343.881c0.703,0,1.178-0.303,1.463-0.588c0.361-0.361,0.589-0.874,0.589-1.444
			c0-0.399-0.133-0.893-0.589-1.329c-0.513-0.494-1.083-0.59-1.463-0.59c-0.494,0-1.045,0.209-1.425,0.551
			c-0.398,0.361-0.627,0.875-0.627,1.312c0,0.532,0.19,1.063,0.551,1.444C577.533,343.748,578.122,343.881,578.54,343.881z"/>
		<path  d="M578.778,200.387c5.652,0,10.236-4.584,10.236-10.236s-4.584-10.236-10.236-10.236
			c-5.525,0-10.018,4.384-10.217,9.861h-80.383c-0.188-2.09-0.387-4.174-0.605-6.234c-0.696-6.542-1.549-12.961-2.533-19.079
			c-1.044-6.513-2.268-12.923-3.638-19.054c-0.817-3.668-1.714-7.315-2.666-10.92h89.825c0.199,5.478,4.691,9.861,10.217,9.861
			c5.652,0,10.236-4.584,10.236-10.236s-4.584-10.236-10.236-10.236c-5.525,0-10.018,4.384-10.217,9.861h-90.025
			c-0.621-2.324-1.26-4.633-1.931-6.904c-1.866-6.324-3.964-12.535-6.234-18.46c-2.301-6.01-4.844-11.896-7.558-17.496
			c-2.878-5.932-6.029-11.709-9.365-17.171c-3.352-5.479-6.953-10.745-10.704-15.653c-2.097-2.737-4.13-5.242-6.215-7.658
			c-2.088-2.425-4.288-4.831-6.54-7.152c-2.256-2.314-4.561-4.543-6.852-6.625c-2.291-2.08-4.692-4.126-7.138-6.081
			c-2.519-2.013-5.157-3.974-7.84-5.83c-2.612-1.811-5.34-3.563-8.107-5.207c-5.478-3.254-11.014-6.042-16.924-8.522
			c-11.581-4.852-24.001-8.146-36.914-9.794c-11.723-1.497-23.325-1.574-34.484-0.228L299.998,2.37
			c-5.98,0.724-11.681,1.81-17.426,3.315c-0.002,0-0.004-0.001-0.007-0.001c-6.197,0-12.136,0.388-18.15,1.185l-10.984,1.454
			c-25.566,3.381-48.945,13.807-69.489,30.988c-2.386,1.997-4.734,4.089-6.98,6.216c-2.258,2.13-4.53,4.408-6.754,6.771
			c-4.432,4.717-8.695,9.82-12.672,15.167c-1.86,2.497-3.688,5.084-5.429,7.689c-1.77,2.649-3.495,5.377-5.127,8.106
			c-3.301,5.513-6.429,11.357-9.296,17.372c-0.09,0.188-0.177,0.385-0.267,0.574H20.453c-0.199-5.478-4.691-9.861-10.217-9.861
			C4.584,91.346,0,95.93,0,101.582s4.584,10.236,10.236,10.236c5.525,0,10.018-4.384,10.217-9.861h116.616
			c-1.125,2.4-2.234,4.857-3.299,7.35c-1.265,2.978-2.474,5.988-3.595,8.946c-1.125,2.968-2.229,6.06-3.283,9.191
			c-1.035,3.085-2.033,6.248-2.967,9.401c-1.777,6.019-3.406,12.296-4.84,18.659c-1.397,6.205-2.645,12.653-3.707,19.165
			c-1.014,6.217-1.886,12.67-2.592,19.179c-0.692,6.384-1.234,12.9-1.609,19.371c-0.729,12.382-0.911,25.266-0.548,38.3
			c-1.27,0.097-2.477,0.213-3.649,0.359c0,0,0,0-0.001,0c0,0-0.001,0-0.002,0c-0.625,0.081-1.245,0.166-1.857,0.278
			c-0.317,0.055-0.636,0.118-0.951,0.197c-0.164,0.043-0.324,0.087-0.506,0.152c-0.107,0.039-0.241,0.088-0.378,0.181
			c-0.265,0.185-0.312,0.399-0.305,0.551c0,0.001,0,0.001,0,0.002c0,0,0,0,0,0.001s0,0.002,0,0.003c0,0,0,0,0,0.001v0.001
			l0.859,13.986H20.453c-0.199-5.478-4.691-9.861-10.217-9.861C4.584,257.371,0,261.955,0,267.607s4.584,10.236,10.236,10.236
			c5.525,0,10.018-4.384,10.217-9.861h83.433l0.898,14.611v0.001c0,0.001,0,0.001,0,0.002l0.001,0.011
			c0,0.004,0.002,0.006,0.003,0.01c0.012,0.172,0.096,0.401,0.428,0.57c0.098,0.049,0.191,0.08,0.309,0.117
			c0.167,0.046,0.34,0.082,0.507,0.108c0.32,0.055,0.647,0.088,0.971,0.112c0.004,0,0.009,0,0.013,0l5.605,0.448
			c0.609,6.441,1.336,12.819,2.164,18.964c0.852,6.375,1.859,12.86,2.996,19.274c1.136,6.411,2.419,12.848,3.813,19.13
			c1.405,6.34,2.946,12.663,4.58,18.799c-3.857,11.336-5.007,24.879-3.413,40.261c1.294,12.48,4.376,25.763,9.159,39.478
			c-0.671,2.529-1.075,5.199-1.23,8.157c-0.159,2.966-0.057,6.023,0.311,9.346c0.6,5.43,1.904,11.228,3.879,17.233
			c0.842,2.561,1.807,5.143,2.876,7.73H20.453c-0.199-5.478-4.691-9.861-10.217-9.861C4.584,472.484,0,477.068,0,482.721
			s4.584,10.236,10.236,10.236c5.525,0,10.018-4.384,10.217-9.861h117.62c3.277,7.777,7.527,15.587,12.538,22.968
			c3.311,4.88,6.943,9.552,10.796,13.887c4.042,4.546,8.281,8.666,12.602,12.246c2.387,1.979,4.833,3.816,7.271,5.465
			c2.488,1.677,4.873,3.102,7.291,4.355c2.943,1.523,5.74,2.7,8.553,3.596c2.762,0.876,5.446,1.435,7.986,1.67
			c16.089,13.782,32.887,23.907,48.587,29.282c8.807,3.018,17.197,4.54,24.992,4.54c1.048,0,2.085-0.027,3.11-0.083
			c9.007-0.483,16.912-3.063,23.56-7.672c5.288,0.927,10.446,1.393,15.439,1.393c13.875-0.001,26.475-3.561,37.018-10.545
			c1.88-1.245,3.669-2.596,5.384-4.027c0.563,0.01,1.124,0.017,1.688,0.017c24.967,0,51.063-9.574,73.694-27.078
			c18.216-14.088,33.479-32.472,44.919-53.902h85.061c0.199,5.478,4.691,9.861,10.217,9.861c5.652,0,10.236-4.584,10.236-10.236
			s-4.584-10.236-10.236-10.236c-5.525,0-10.018,4.384-10.217,9.861h-84.671c3.438-6.515,6.542-13.296,9.249-20.334
			c6.488-16.868,10.42-34.24,11.767-51.407h63.655c0.199,5.478,4.691,9.861,10.217,9.861c5.652,0,10.236-4.584,10.236-10.236
			s-4.584-10.236-10.236-10.236c-5.525,0-10.018,4.384-10.217,9.861h-63.595c1.452-19.615-0.479-38.948-5.857-56.938
			c-0.908-3.038-1.909-6.004-2.992-8.901h72.444c0.199,5.478,4.691,9.861,10.217,9.861c5.652,0,10.236-4.584,10.236-10.236
			s-4.584-10.236-10.236-10.236c-5.525,0-10.018,4.384-10.217,9.861h-72.727c-3.449-9.063-7.746-17.415-12.805-24.956
			c1.084-6.695,2.057-13.513,2.887-20.272c1.104-9.008,1.992-18.244,2.644-27.462l4.562,0.221c0.001,0,0.002,0.001,0.004,0.001
			l1.174,0.052c0.074,0.005,0.155,0.007,0.16,0.002c0.063,0.009,0.125,0.011,0.217,0.013c0.016,0.002,0.031,0.003,0.048,0.003
			c0.108,0,0.212-0.043,0.302-0.112c0.014-0.011,0.031-0.017,0.044-0.029c0.003-0.002,0.006-0.003,0.008-0.005
			c0.021-0.021,0.029-0.046,0.046-0.069c0.02-0.027,0.043-0.054,0.057-0.086c0.014-0.031,0.017-0.063,0.023-0.096
			c0.006-0.027,0.019-0.053,0.02-0.081l1.164-24.702c0.001-0.02-0.008-0.037-0.009-0.057c-0.002-0.029-0.006-0.056-0.013-0.084
			c-0.011-0.045-0.028-0.086-0.051-0.125c-0.01-0.018-0.01-0.037-0.021-0.054c-0.007-0.009-0.018-0.015-0.025-0.023
			c-0.014-0.017-0.031-0.03-0.048-0.046c-0.03-0.027-0.062-0.053-0.098-0.072c-0.018-0.01-0.036-0.016-0.056-0.022
			c-0.027-0.011-0.052-0.027-0.08-0.033c-0.016-0.004-0.035-0.008-0.057-0.011c-0.043-0.009-0.093-0.016-0.189-0.028l-0.306-0.027
			c-0.102-0.009-0.202-0.018-0.287-0.021c-0.241-0.021-0.477-0.036-0.8-0.058c0,0,0,0-0.001,0c-1.524-0.1-3.05-0.178-4.575-0.254
			c0.296-13.027,0.09-25.836-0.622-38.074c-0.238-4.104-0.546-8.21-0.905-12.279h80.316
			C568.761,196.003,573.253,200.387,578.778,200.387z M574.285,192.667c0.664,0.608,1.311,0.931,1.52,1.026
			c0.569,0.266,1.272,0.437,1.899,0.437c0.665,0,1.273-0.228,1.653-0.627c0.284-0.304,0.493-0.76,0.493-1.292
			c0-0.664-0.322-1.121-0.607-1.367c-0.684-0.608-1.862-0.627-2.279-0.627c-0.894,0-1.653,0.189-2.337,0.531l1.102-6.819h6.592
			v2.792h-4.388l-0.229,1.406c0.476-0.076,0.855-0.096,1.026-0.096c1.69,0,2.754,0.646,3.343,1.254
			c0.57,0.57,1.159,1.539,1.159,3.002c0,1.52-0.607,2.546-1.216,3.173c-1.178,1.216-2.735,1.425-3.951,1.425
			c-1.919,0-3.249-0.494-4.274-1.141L574.285,192.667z M573.126,136.061l4.882-8.169h4.294v7.751h1.539v2.526h-1.539v2.394h-3.04
			v-2.394h-6.136V136.061z M11.829,108.031H8.543v-9.879H6.738V95.36h5.091V108.031z M14.755,274.057H4.592l3.21-3.362
			c1.141-1.197,1.995-2.241,2.603-3.211c0.343-0.532,0.685-1.159,0.685-1.976c0-0.133,0-0.798-0.38-1.216
			c-0.19-0.209-0.514-0.38-0.932-0.38c-0.531,0-0.893,0.247-1.102,0.514c-0.304,0.398-0.437,1.12-0.456,1.557h-3.4
			c0.02-1.652,0.741-2.85,1.406-3.514c0.854-0.855,2.014-1.368,3.59-1.368c1.9,0,3.002,0.741,3.572,1.311
			c0.513,0.513,1.234,1.481,1.234,3.116c0,1.596-0.741,2.697-1.881,3.762l-2.128,1.975h4.142V274.057z M13.615,488.105
			c-0.684,0.685-1.899,1.35-3.78,1.35c-1.216,0-2.526-0.285-3.629-1.311c-0.646-0.59-1.425-1.672-1.576-3.307h3.362
			c0.019,0.476,0.209,0.97,0.513,1.273c0.285,0.305,0.741,0.494,1.292,0.494c0.646,0,1.045-0.285,1.292-0.551
			c0.285-0.323,0.38-0.665,0.38-1.045c0-0.551-0.267-0.932-0.494-1.121c-0.323-0.266-0.816-0.361-1.216-0.361
			c-0.209,0-0.38,0.02-0.551,0.076v-2.223c0.665,0.096,1.083-0.095,1.349-0.322c0.304-0.267,0.418-0.608,0.418-0.894
			c0-0.342-0.152-0.722-0.342-0.911c-0.209-0.209-0.57-0.342-0.931-0.342c-0.399,0-0.723,0.133-0.912,0.322
			c-0.285,0.266-0.437,0.722-0.437,1.121H5.295c0.075-1.33,0.664-2.337,1.234-2.906c0.931-0.969,2.128-1.235,3.344-1.235
			c0.949,0,2.203,0.19,3.153,1.12c0.627,0.627,1.025,1.482,1.025,2.451c0,0.551-0.095,1.045-0.38,1.559
			c-0.228,0.418-0.513,0.74-0.969,0.969c0.779,0.284,1.235,0.778,1.501,1.158c0.361,0.532,0.532,1.14,0.532,1.861
			C14.736,486.682,14.147,487.574,13.615,488.105z M575.158,477.891c-0.398-0.399-0.854-1.045-0.854-2.014
			c0-0.95,0.418-1.805,1.045-2.395c0.779-0.721,1.995-1.158,3.382-1.158c1.367,0,2.526,0.456,3.268,1.216
			c0.475,0.476,0.931,1.235,0.931,2.317c0,0.912-0.342,1.539-0.779,1.977c-0.304,0.303-0.798,0.607-1.292,0.778
			c0.685,0.209,1.235,0.569,1.634,0.969c0.779,0.76,0.969,1.614,0.969,2.241c0,0.855-0.36,1.729-1.025,2.395
			c-0.437,0.437-1.577,1.349-3.838,1.349c-2.165,0-3.286-0.836-3.78-1.33c-0.684-0.684-1.045-1.596-1.045-2.413
			c0-0.836,0.399-1.747,0.932-2.279c0.398-0.398,1.045-0.76,1.596-0.931C575.861,478.441,575.443,478.176,575.158,477.891z
			 M574.513,402.91v-2.792h10.392l-7.257,12.671h-3.629l5.775-9.879H574.513z M575.158,337.252l2.831-3.724h3.742l-3.609,4.312
			c0.513-0.228,1.14-0.398,1.767-0.398c0.95,0,2.033,0.38,2.869,1.216c0.893,0.894,1.196,1.938,1.196,3.021
			c0,1.178-0.322,2.318-1.311,3.306c-1.254,1.254-2.831,1.501-4.047,1.501c-2.185,0-3.457-0.816-4.16-1.539
			c-0.607-0.627-1.158-1.596-1.158-2.963C573.278,340.253,574.151,338.582,575.158,337.252z M480.426,145.626
			c1.366,6.111,2.586,12.502,3.627,18.994c0.981,6.102,1.831,12.503,2.526,19.026c0.215,2.026,0.41,4.074,0.596,6.129h-0.861
			c-0.17-1.863-0.35-3.72-0.545-5.557c-0.68-6.402-1.517-12.732-2.489-18.813c-1.02-6.368-2.226-12.695-3.584-18.808
			c-0.91-4.085-1.915-8.133-2.985-12.109h0.99C478.675,138.163,479.593,141.883,480.426,145.626z M469.651,232.311
			c2.391,1.955,4.399,4.666,5.82,7.862c-0.002,0.05-0.002,0.101-0.003,0.151l-3.372-0.119c-1.303-3.187-3.157-5.965-5.393-8.093
			c0.019-0.001,0.036-0.007,0.055-0.011L469.651,232.311z M467.203,231.131c0.01-0.154,0.019-0.307,0.024-0.455
			c0.304,0.17,0.611,0.331,0.906,0.521L467.203,231.131z M470.179,231.445c-0.004-0.004-0.006-0.008-0.01-0.012
			c-0.949-0.762-1.918-1.388-2.945-1.915c-0.004-0.077-0.007-0.155-0.012-0.231c2.974,0.189,5.852,1.332,8.371,3.338
			c-0.014,1.769-0.039,3.569-0.07,5.381C474.095,235.384,472.279,233.137,470.179,231.445z M467.498,228.305
			c-0.021-0.004-0.038-0.015-0.06-0.017l-0.355-0.027c-0.062-0.378-0.146-0.759-0.253-1.14c2.786,0.089,5.567,0.182,8.354,0.281
			c0.001,0,0.003,0,0.004,0c0.063,0.002,0.124,0.002,0.185,0.002c0.075,0,0.141-0.012,0.214-0.014c0.007,1.328,0.005,2.656,0,3.983
			C473.119,229.577,470.356,228.529,467.498,228.305z M475.216,226.402c-3.014-0.108-6.026-0.209-9.043-0.305
			c-0.181-0.006-0.361-0.01-0.542-0.016c-0.001,0-0.003,0-0.004,0c-3.02-0.096-6.038-0.185-9.063-0.268
			c-3.204-0.087-6.402-0.17-9.606-0.246h-0.001l-2.562-0.058h-0.001c-0.616-0.014-1.232-0.023-1.849-0.036
			c-0.006-0.001-0.01-0.004-0.017-0.004c-0.005,0-0.01,0.003-0.015,0.003c-2.781-0.059-5.563-0.114-8.348-0.164
			c-0.747-0.013-1.533-0.199-2.339-0.556c-0.001,0-0.002-0.002-0.003-0.002c-0.673-0.291-1.316-0.68-1.971-1.185
			c0-0.001,0-0.001-0.001-0.002c-1.426-1.104-2.61-2.591-3.338-4.183c-2.619-5.73-5.55-11.367-8.71-16.753
			c-3.201-5.449-6.699-10.754-10.396-15.765c-3.759-5.083-7.793-9.973-11.989-14.532c-4.227-4.603-8.765-9.027-13.486-13.152
			c-2.343-2.045-4.798-4.071-7.297-6.021c-2.405-1.881-4.938-3.746-7.525-5.545c-2.557-1.781-5.217-3.521-7.906-5.174
			c-2.64-1.624-5.364-3.196-8.098-4.672c-2.113-1.144-4.27-2.231-6.431-3.281h9.4c4.264,1.871,8.492,3.98,12.607,6.312
			c2.479,1.4,5.002,2.932,7.499,4.55c2.537,1.645,5.049,3.384,7.468,5.168c9.442,6.951,18.267,15.107,26.227,24.244
			c1.936,2.226,3.836,4.526,5.648,6.837c1.911,2.432,3.73,4.875,5.407,7.265c1.49,2.123,3.069,4.479,4.969,7.416
			c0.681,1.051,1.57,2.44,2.413,3.879c0.762,1.307,1.319,2.372,2.026,3.722l0.091,0.175l0.001,0.001
			c1.166,2.231,2.354,4.403,4.048,6.447c0.935,1.13,1.877,2.03,2.801,2.675c0.987,0.689,1.933,1.064,3.036,1.229
			c0.005,0.002,0.016,0.006,0.018,0.007c0.12,0.047,0.238,0.1,0.356,0.152l0.113,0.051c0.36,0.165,0.717,0.338,1.073,0.512
			c0.297,0.145,0.594,0.289,0.893,0.429c0.802,0.375,1.762,0.793,2.797,1.054c0.802,0.204,1.564,0.285,2.303,0.285
			c1.266,0,2.46-0.239,3.66-0.516c0.354-0.081,0.708-0.165,1.062-0.25c0.583-0.14,1.166-0.278,1.754-0.403
			c0.97-0.209,1.891-0.369,2.816-0.488c1.652-0.217,3.386-0.322,5.286-0.322c0.139,0,0.246-0.002,0.422,0.002
			c0.033,0,0.066,0,0.101,0c0.62,0,1.483-0.056,2.194-0.44c0.632-0.34,1.09-0.901,1.359-1.662c0.238-0.65,0.339-1.416,0.309-2.345
			c-0.031-0.824-0.162-1.678-0.399-2.608c-0.447-1.776-1.23-3.593-1.921-5.195c-0.79-1.833-1.273-3.03-2.008-4.847l-0.06-0.148
			c-0.509-1.267-1.188-2.932-1.924-4.587c-0.358-0.806-0.751-1.658-1.177-2.56h10.108c0.302,0.629,0.614,1.25,0.908,1.883
			c1.421,3.076,2.771,6.236,4.014,9.395c1.172,2.972,2.32,6.127,3.412,9.38c1.056,3.151,2.066,6.433,3.003,9.753
			c0.254,0.904,0.54,2.625-0.382,4.001l-0.001,0.001c-0.157,0.233-0.327,0.428-0.536,0.61c0,0,0,0.001-0.001,0.001
			c-0.499,0.44-1.122,0.714-1.854,0.813c-0.001,0-0.002,0-0.002,0C475.769,226.397,475.507,226.415,475.216,226.402z
			 M465.739,230.577c-2.416-1.76-5.155-2.803-7.982-3.016c0,0,0,0-0.001,0l-1.021-0.074c-0.001,0-0.002,0-0.002,0
			c-2.934-0.21-5.903,0.463-8.642,1.951c-0.014-0.478-0.044-0.938-0.108-1.371c-0.072-0.465-0.199-0.959-0.354-1.481
			c2.97,0.072,5.938,0.148,8.908,0.229c2.9,0.08,5.796,0.166,8.693,0.256c0.209,0.641,0.368,1.258,0.452,2.019
			C465.734,229.551,465.746,230.053,465.739,230.577z M447.098,230.017c-0.774,0.487-1.512,1.024-2.224,1.632
			c0.011-1.709,0.016-3.417,0.009-5.126l1.692,0.038c0.196,0.605,0.342,1.151,0.42,1.657
			C447.077,228.768,447.105,229.366,447.098,230.017z M443.034,226.484c0.283,0.006,0.566,0.011,0.849,0.017
			c0.008,2.024,0.007,4.047-0.011,6.068c-0.294,0.286-0.574,0.591-0.854,0.896C443.04,231.218,443.046,228.916,443.034,226.484z
			 M442.005,234.65c-1.061,1.324-2.011,2.787-2.824,4.394l-7.15-0.253c0.093-4.354,0.125-8.667,0.099-12.848
			c0.687,0.232,1.364,0.355,2.021,0.366c2.629,0.048,5.257,0.101,7.885,0.155C442.048,229.333,442.038,232.021,442.005,234.65z
			 M424.352,263.437c0.008,0.001,0.016,0.001,0.023,0.001c0.007,0,0.013-0.004,0.02-0.004c0.008,0.001,0.014,0.006,0.021,0.006
			l0.546,0.03c0.206,0.013,0.419,0.025,0.621,0.033l1.236,0.063c0.005,0,0.01,0,0.015,0l3.016,0.153
			c-0.218,3.021-0.472,6.121-0.755,9.238c-0.283-0.114-0.563-0.236-0.848-0.349c-21.177-8.312-44.662-8.791-67.917-1.382
			c-22.623,7.208-43.978,21.477-61.756,41.264c-0.014,0.016-0.019,0.034-0.029,0.05c-1.023-0.823-2.048-1.646-3.079-2.443
			c-20.109-15.573-41.213-25.981-61.03-30.1c-21.261-4.42-40.485-1.458-55.601,8.556c-2.202,1.459-4.32,3.083-6.323,4.82
			c-0.187-1.879-0.363-3.759-0.533-5.641c1.33-0.117,2.484-0.251,3.574-0.42c0.002,0,0.005,0,0.007,0
			c0.602-0.089,1.201-0.196,1.799-0.328c0.309-0.071,0.612-0.148,0.909-0.247c0.158-0.052,0.32-0.109,0.475-0.183
			c0.113-0.053,0.244-0.122,0.393-0.262c0.055-0.06,0.218-0.238,0.205-0.507c0-0.003,0.001-0.005,0.001-0.008v-0.003
			c0-0.001,0-0.001,0-0.002v-0.001l-1.743-30.609c0-0.001-0.001-0.002-0.001-0.003c0-0.002,0.001-0.004,0.001-0.006
			c-0.004-0.055-0.021-0.114-0.045-0.176c-0.004-0.01-0.01-0.018-0.015-0.027c-0.065-0.143-0.196-0.289-0.477-0.393
			c-0.111-0.04-0.221-0.069-0.314-0.088c-0.186-0.044-0.373-0.069-0.594-0.098c-0.367-0.045-0.742-0.072-1.111-0.09
			c0,0,0-0.001-0.001-0.001l-5-0.271c-0.141-5.522-0.188-11.093-0.14-16.58c2.233-0.314,4.219-1.86,5.238-2.804
			c1.496-1.378,2.847-3.179,3.803-5.072c2.913-5.772,6.108-11.497,9.497-17.014c1.697-2.755,3.485-5.526,5.313-8.235
			c1.782-2.635,3.663-5.289,5.59-7.889c3.862-5.21,7.985-10.289,12.255-15.097c2.117-2.385,4.365-4.801,6.68-7.181
			c2.251-2.312,4.562-4.58,6.869-6.744c14.333-13.445,30.001-24.459,46.752-32.907h70.495c2.766,1.3,5.536,2.698,8.239,4.161
			c2.717,1.467,5.426,3.029,8.05,4.644c2.673,1.643,5.316,3.373,7.858,5.143c2.573,1.789,5.091,3.643,7.481,5.513
			c2.484,1.938,4.925,3.952,7.254,5.986c4.695,4.101,9.206,8.5,13.408,13.075c4.173,4.534,8.184,9.396,11.921,14.449
			c3.676,4.983,7.154,10.258,10.338,15.677c3.144,5.357,6.058,10.963,8.662,16.663c0.794,1.736,2.084,3.354,3.635,4.558
			c0.001,0.001,0.001,0,0.002,0.001c0.622,0.481,1.244,0.852,1.885,1.158c0.032,4.301-0.001,8.75-0.096,13.24l-3.039-0.107
			c-0.001,0-0.001,0-0.002,0s-0.002,0-0.003,0l-1.867-0.052l-0.595,0.007c-0.048,0-0.091,0.016-0.136,0.027
			c-0.02,0.005-0.039,0.005-0.059,0.012c-0.012,0.006-0.021,0.016-0.034,0.021c-0.048,0.023-0.093,0.05-0.131,0.087
			c-0.013,0.011-0.02,0.026-0.03,0.039c-0.031,0.036-0.062,0.072-0.081,0.116c-0.014,0.028-0.017,0.061-0.024,0.092
			c-0.008,0.03-0.021,0.058-0.023,0.089l-1.131,23.827C423.862,263.189,424.075,263.424,424.352,263.437z M430.75,274.722
			c0.021,0.009,0.04,0.019,0.061,0.027c0.016,0.007,0.026,0.019,0.043,0.024c0.018,0.006,0.037,0.014,0.055,0.02
			c27.026,11.704,46.632,35.234,56.962,64.582h-8.316c-0.176-0.91-0.975-1.599-1.937-1.599c-1.09,0-1.974,0.884-1.974,1.974
			s0.884,1.974,1.974,1.974c0.962,0,1.761-0.688,1.937-1.599h8.579c6.884,19.927,9.507,42.492,7.296,65.84h-48.541
			c2.426-14.862,2.376-29.388-0.215-42.584c-0.462-2.361-1.011-4.688-1.628-6.917c-0.612-2.214-1.305-4.387-2.06-6.46
			c-0.829-2.269-1.758-4.49-2.76-6.602c-0.974-2.054-2.044-4.052-3.181-5.938c-3.124-5.18-6.774-9.563-10.893-13.142
			c0.023-0.17-0.033-0.348-0.179-0.462c-0.014-0.011-0.028-0.021-0.042-0.031c-0.001-0.001-0.001-0.002-0.002-0.003
			c-0.646-0.505-1.313-1.027-2.002-1.508c-0.112-0.079-0.455-0.315-0.833-0.575c-0.029-0.02-0.057-0.039-0.086-0.059
			c-0.5-0.342-1.038-0.708-1.188-0.804c-0.488-0.315-1.043-0.653-1.613-0.993c-0.072-0.044-0.142-0.09-0.215-0.133
			c-0.006-0.004-0.013-0.004-0.02-0.007c-0.858-0.506-1.75-1.009-2.566-1.438c-0.011-0.006-0.022-0.005-0.034-0.011
			c-0.008-0.004-0.012-0.012-0.02-0.017c-0.007-0.005-0.015-0.005-0.021-0.009s-0.011-0.01-0.018-0.014
			c-0.997-0.52-1.772-0.901-2.513-1.237c-0.332-0.152-0.67-0.297-1.006-0.439l-0.107-0.046c-0.034-0.015-0.069-0.029-0.103-0.044
			l-0.455-0.194c-0.3-0.128-0.599-0.256-0.902-0.377c-0.54-0.212-1.127-0.426-1.741-0.644c-0.059-0.021-0.115-0.044-0.174-0.064
			c-0.006-0.002-0.013-0.001-0.019-0.003c-0.232-0.08-0.451-0.16-0.696-0.243c-0.844-0.287-1.716-0.558-2.666-0.825l-0.001-0.001
			c-0.002-0.001-0.002-0.001-0.004-0.002c-0.817-0.23-1.698-0.471-2.595-0.669c-0.343-0.078-0.688-0.151-1.035-0.225l-0.523-0.109
			c-0.353-0.073-0.706-0.147-1.063-0.209c-0.303-0.053-0.608-0.09-0.911-0.139c-0.277-0.045-0.554-0.095-0.832-0.136
			c-0.017-0.002-0.031,0.004-0.047,0.003c-0.285-0.041-0.566-0.091-0.853-0.129c-0.884-0.115-1.77-0.214-2.661-0.286
			c-1.18-0.1-2.357-0.15-3.538-0.179c-0.021-0.003-0.04-0.014-0.062-0.014c-0.605-0.012-1.211-0.023-1.819-0.023
			c-0.56,0.004-1.119,0.025-1.677,0.047l-0.146,0.006c-0.605,0.023-1.217,0.048-1.826,0.089c-0.222,0.017-0.44,0.039-0.661,0.058
			c-0.005,0-0.011,0-0.016,0.001c-0.016,0.001-0.031,0.003-0.047,0.005c-0.363,0.031-0.728,0.061-1.09,0.095
			c-0.018,0.002-0.032,0.012-0.05,0.015c-1.236,0.119-2.469,0.266-3.706,0.459c-0.894,0.14-1.816,0.286-2.723,0.477l-0.345,0.073
			c-0.72,0.151-1.951,0.411-2.426,0.524c-0.438,0.105-2.31,0.611-2.742,0.729c-0.225,0.063-0.445,0.14-0.669,0.205
			c-0.478,0.141-0.956,0.29-1.435,0.44c-0.205,0.066-0.413,0.123-0.619,0.19c-0.012,0.004-0.02,0.013-0.031,0.018
			c-1.021,0.333-2.046,0.683-3.081,1.069c-0.174,0.064-0.344,0.136-0.517,0.202c-0.011,0.003-0.021,0.001-0.031,0.005
			c-1.688,0.645-2.067,0.804-3.665,1.504c-0.068,0.03-0.126,0.056-0.19,0.084c-0.043,0.02-0.087,0.039-0.131,0.058
			c-1.269,0.561-1.826,0.819-3.269,1.54c-0.009,0.005-0.015,0.014-0.023,0.019c-0.361,0.18-0.722,0.353-1.085,0.538
			c0,0.001-0.001,0-0.002,0.001c-0.801,0.413-1.621,0.857-2.459,1.321c-0.001,0-0.002,0-0.002,0c-0.018,0.01-0.034,0.02-0.052,0.029
			c-0.484,0.269-0.966,0.535-1.473,0.825c-0.511,0.297-1.027,0.612-1.55,0.934c-0.304,0.185-0.608,0.372-0.912,0.562
			c-0.472,0.289-0.945,0.576-1.405,0.878c-0.477,0.312-0.928,0.616-1.381,0.921c-0.083,0.057-0.165,0.107-0.248,0.164
			c-0.002,0.002-0.003,0.004-0.005,0.006c-0.722,0.488-1.427,0.976-2.114,1.468c-0.43,0.308-0.853,0.622-1.277,0.936
			c-0.01,0.006-0.021,0.007-0.03,0.014c-0.07,0.052-0.139,0.108-0.209,0.161c-0.195,0.145-0.396,0.286-0.59,0.432
			c-0.519,0.387-1.031,0.776-1.541,1.176c-0.292,0.23-0.581,0.464-0.87,0.698l-0.679,0.547c-0.665,0.532-1.318,1.078-1.965,1.637
			c-0.243,0.21-0.476,0.411-0.707,0.613c-0.033,0.028-0.067,0.056-0.101,0.084c-0.003,0.003-0.004,0.007-0.007,0.01
			c-0.939,0.819-1.79,1.583-2.576,2.311c-1.311,1.215-2.352,2.218-3.275,3.155l-0.255,0.258c-0.017,0.017-0.032,0.033-0.049,0.049
			l-1.009,1.021c-0.624,0.636-1.23,1.292-1.836,1.95c-0.019,0.021-0.026,0.046-0.041,0.069c-0.022,0.033-0.049,0.064-0.062,0.101
			c-0.007,0.021-0.005,0.042-0.01,0.063c-0.009,0.042-0.021,0.083-0.019,0.126c0.002,0.063,0.017,0.125,0.043,0.184
			c0,0.001,0,0.001,0,0.002c0.02,0.044,0.053,0.081,0.086,0.118c0.012,0.014,0.017,0.03,0.03,0.043c0,0,0,0,0.001,0v0.001
			c0.032,0.029,0.07,0.047,0.107,0.066c0.019,0.01,0.034,0.025,0.053,0.032c0.058,0.022,0.118,0.033,0.179,0.033
			c0.135,0,0.269-0.054,0.367-0.16c0,0,0.001,0,0.001-0.001c0.001-0.001,0.002-0.002,0.002-0.003
			c0.929-1.003,1.871-1.986,2.819-2.945l0.043-0.043c0.952-0.96,1.91-1.894,2.869-2.794c0.207-0.194,0.411-0.387,0.634-0.593
			c0.814-0.755,1.703-1.55,2.687-2.406c2.05-1.777,4.163-3.473,6.288-5.049c0.491-0.363,0.982-0.727,1.479-1.083
			c0.8-0.572,1.627-1.139,2.477-1.709c0.992-0.662,1.974-1.296,2.952-1.898c0.071-0.044,0.139-0.086,0.211-0.13
			c0.134-0.083,0.27-0.16,0.402-0.242c0.975-0.59,1.948-1.16,2.933-1.705c0.853-0.474,1.688-0.927,2.503-1.347
			c0.001,0,0.001-0.001,0.002-0.001c1.445-0.743,2.878-1.429,4.315-2.067c0.048-0.021,0.096-0.042,0.146-0.063
			c1.434-0.635,2.875-1.222,4.341-1.77c1.226-0.458,2.437-0.866,3.646-1.249c0.48-0.155,0.964-0.302,1.447-0.445
			c1.365-0.401,2.73-0.765,4.112-1.082c1.583-0.363,3.137-0.662,4.681-0.902l0.072-0.011c0.004,0,0.006-0.003,0.009-0.004
			c1.509-0.232,3.011-0.406,4.523-0.528c0.089-0.008,0.179-0.016,0.269-0.023c0.785-0.061,1.563-0.106,2.334-0.137
			c0.016-0.001,0.031-0.002,0.046-0.002c2.251-0.087,4.454-0.04,6.668,0.128c-0.114,0.001-0.231,0-0.34,0.002
			c-0.261,0.002-0.52,0.012-0.779,0.021l-0.709,0.026c-0.296,0.011-0.591,0.021-0.886,0.037c-0.822,0.043-1.639,0.118-2.459,0.201
			c-0.788,0.082-1.574,0.177-2.356,0.289c-0.801,0.117-1.599,0.239-2.391,0.388c-0.386,0.071-0.771,0.149-1.157,0.229l-1.332,0.28
			c-0.667,0.144-1.327,0.32-1.982,0.497l-0.474,0.125c-0.323,0.084-0.646,0.168-0.963,0.26c-0.364,0.103-0.727,0.21-1.088,0.322
			c-0.764,0.235-1.524,0.483-2.285,0.741c-1.478,0.505-3.308,1.194-4.553,1.716c-0.32,0.132-0.641,0.274-1.031,0.449l-1.18,0.513
			c-0.705,0.313-1.403,0.652-2.103,0.994c-1.496,0.736-2.95,1.499-4.321,2.265c-0.68,0.379-1.359,0.76-2.023,1.161
			c-0.308,0.187-1.781,1.086-2.082,1.275c-1.192,0.747-2.936,1.925-4.042,2.702c-1.198,0.845-2.734,1.978-3.822,2.817
			c-0.459,0.353-0.911,0.716-1.363,1.079l-0.558,0.447c-0.634,0.512-1.26,1.028-1.876,1.558c-1.312,1.126-2.477,2.16-3.562,3.161
			c-0.552,0.509-1.095,1.024-1.639,1.54l-0.094,0.089c-0.604,0.576-1.195,1.163-1.779,1.757l-0.332,0.335
			c-1.278,1.29-1.583,1.597-2.989,3.128c-1.111,1.209-2.192,2.427-3.213,3.62c-0.18,0.21-0.155,0.525,0.055,0.705
			c0.095,0.081,0.21,0.12,0.325,0.12c0.141,0,0.281-0.06,0.38-0.175c1.013-1.185,2.086-2.394,3.189-3.595
			c1.394-1.517,1.695-1.82,2.964-3.1l0.333-0.337c0.577-0.587,1.16-1.166,1.756-1.734l0.094-0.088
			c0.54-0.513,1.08-1.025,1.628-1.531c1.076-0.992,2.232-2.019,3.534-3.136c0.61-0.523,1.229-1.034,1.852-1.538l0.558-0.447
			c0.447-0.358,0.894-0.717,1.348-1.066c1.078-0.833,2.601-1.955,3.787-2.791c1.096-0.77,2.82-1.935,3.999-2.674
			c0.3-0.188,1.764-1.082,2.068-1.268c0.653-0.395,1.321-0.77,1.992-1.143c1.356-0.758,2.795-1.512,4.274-2.24
			c0.687-0.335,1.373-0.669,2.066-0.977l1.252-0.546c0.313-0.14,0.624-0.278,0.938-0.408c1.229-0.514,3.034-1.194,4.491-1.692
			c0.751-0.255,1.504-0.499,2.259-0.732c0.354-0.11,0.707-0.214,1.066-0.315c0.312-0.09,0.626-0.172,0.94-0.254l0.481-0.127
			c0.64-0.172,1.282-0.346,1.929-0.484l1.33-0.28c0.378-0.078,0.757-0.154,1.137-0.226c0.778-0.145,1.564-0.265,2.351-0.38
			c0.768-0.11,1.542-0.203,2.315-0.285c0.802-0.081,1.603-0.154,2.408-0.197c0.289-0.015,0.579-0.025,0.87-0.036l0.711-0.026
			c0.249-0.009,0.498-0.019,0.752-0.021c0.747-0.011,1.643,0.014,2.381,0.037c0.775,0.028,1.547,0.075,2.319,0.141
			c0.788,0.068,1.572,0.156,2.351,0.258l2.345,0.372c0,0,0,0,0.001,0l0.479,0.101c0.724,0.151,1.446,0.302,2.161,0.488
			c0.964,0.252,1.818,0.499,2.614,0.756c0.729,0.232,1.831,0.622,2.56,0.902c0.42,0.166,0.836,0.346,1.252,0.525l0.147,0.063
			c0.317,0.137,0.632,0.274,0.946,0.419c0.439,0.21,0.879,0.423,1.316,0.646c0.005,0.002,0.01,0.001,0.015,0.004
			c0.144,0.073,0.283,0.145,0.437,0.225c0.001,0,0.002,0,0.003,0.001c0.029,0.016,0.061,0.032,0.07,0.038
			c0.003,0.002,0.007,0.001,0.011,0.003c0.002,0.001,0.004,0.005,0.007,0.006c7.684,4.029,14.159,10.35,19.247,18.784
			c1.12,1.858,2.174,3.826,3.133,5.851c0.99,2.084,1.906,4.276,2.725,6.516c0.745,2.048,1.43,4.195,2.035,6.384
			c0.611,2.204,1.153,4.506,1.611,6.843c2.576,13.128,2.615,27.59,0.182,42.392h-38.412c-0.176-0.91-0.975-1.599-1.937-1.599
			c-1.09,0-1.974,0.884-1.974,1.974s0.884,1.974,1.974,1.974c0.962,0,1.761-0.688,1.937-1.599h38.291
			c-0.646,3.795-1.445,7.61-2.415,11.432c-1.01,3.97-2.206,7.972-3.556,11.896c-1.337,3.883-2.855,7.771-4.514,11.558
			c-1.665,3.796-3.496,7.547-5.44,11.147c-1.977,3.657-4.109,7.239-6.34,10.646c-1.133,1.729-2.32,3.459-3.529,5.14
			c-1.182,1.646-2.428,3.298-3.703,4.91c-1.31,1.657-2.649,3.274-3.981,4.806c-0.061,0.07-0.125,0.139-0.186,0.208h-22.381
			c-0.156-2.064-0.357-4.147-0.593-6.245c0.064,0.201,0.245,0.35,0.468,0.35c0.276,0,0.5-0.224,0.5-0.5
			c0-0.027-0.002-0.084-0.007-0.111c0-0.276-0.224-0.472-0.5-0.472c-0.257,0-0.46,0.22-0.489,0.472
			c-3.618-31.727-16.345-67.07-37.989-100.408c-14.709-22.654-32.54-42.747-51.777-58.385
			c36.349-40.455,86.814-56.008,128.562-39.616c0.466,0.183,0.923,0.38,1.384,0.569c0.021,0.013,0.04,0.024,0.062,0.034
			c0.009,0.004,0.015,0.012,0.023,0.016C429.814,274.353,430.281,274.542,430.75,274.722z M430.064,273.355
			c0.296-3.235,0.558-6.453,0.785-9.586l7.144,0.364c0.661,1.671,1.469,3.208,2.399,4.616c-0.247,3.029-0.516,5.997-0.798,8.846
			c-0.117-0.051-0.231-0.105-0.348-0.156c-0.873-0.447-1.719-0.865-2.55-1.26c-2.341-1.113-4.089-1.861-5.347-2.293
			c-0.004,0-0.005-0.003-0.008-0.004c-0.062-0.023-0.121-0.051-0.184-0.074C430.798,273.653,430.429,273.508,430.064,273.355z
			 M440.556,278.025c0.26-2.58,0.505-5.267,0.734-8.007c0.251,0.329,0.504,0.657,0.771,0.968c-0.212,2.492-0.444,4.974-0.688,7.404
			C441.102,278.267,440.828,278.147,440.556,278.025z M474.595,274.325c0.001-0.009,0-0.017,0.002-0.026
			c0.001-0.01,0.002-0.021,0.003-0.031c0.224-2.574,0.431-5.193,0.62-7.803c0.002-0.011,0.002-0.021,0.003-0.032
			c0.01-0.138,0.021-0.276,0.03-0.415l7.464,0.38c0.001,0,0.003,0,0.005,0l3.006,0.147c-0.623,8.802-1.465,17.62-2.507,26.22
			c-0.731,6.053-1.595,12.194-2.551,18.282c-2.792-3.851-5.79-7.472-8.987-10.845C472.86,291.681,473.841,282.978,474.595,274.325z
			 M473.624,273.938c-0.535,0.351-1.057,0.662-1.584,0.935c-2.342,1.204-4.784,1.769-7.271,1.672l-0.734-0.027
			c1.503-0.503,2.965-1.234,4.348-2.191c2.153-1.487,4.09-3.511,5.688-5.907C473.93,270.268,473.782,272.113,473.624,273.938z
			 M474.233,266.251c-1.687,3.007-3.903,5.514-6.42,7.252c-2.575,1.781-5.434,2.75-8.305,2.812c1.629-0.558,3.208-1.389,4.694-2.482
			c2.668-1.961,4.971-4.739,6.686-8.035l3.365,0.17C474.247,266.062,474.239,266.156,474.233,266.251z M464.731,277.544
			c0.19,0.007,0.381,0.011,0.571,0.011c2.46,0,4.877-0.603,7.194-1.794c0.339-0.175,0.675-0.364,1.012-0.566
			c-0.717,8.056-1.628,16.146-2.713,24.087c-8.282-8.526-17.84-15.428-28.463-20.443c0.229-2.253,0.442-4.554,0.644-6.867
			c3.122,3.182,6.993,5.02,11.027,5.17l4.619,0.176L464.731,277.544z M478.708,317.072c0-0.001,0-0.002,0-0.002h0.405
			L478.708,317.072z M389.757,479.206h21.663c-1.071,1.205-2.164,2.402-3.276,3.564c-1.486,1.547-2.979,3.025-4.439,4.395
			c-1.474,1.385-3.008,2.75-4.561,4.056c-1.626,1.371-3.278,2.681-4.909,3.896c-1.39,1.036-2.829,2.041-4.282,3.009
			C390.287,492.029,390.22,485.705,389.757,479.206z M389.871,499.388c1.684-1.104,3.353-2.271,4.961-3.47
			c1.646-1.226,3.314-2.549,4.956-3.932c1.566-1.318,3.114-2.695,4.601-4.093c1.472-1.381,2.978-2.871,4.477-4.431
			c1.326-1.385,2.632-2.816,3.894-4.257h59.404c-23.865,42.003-62.28,70.634-103.262,75.556
			C381.464,541.238,388.423,521.908,389.871,499.388z M413.409,478.456c1.217-1.411,2.437-2.882,3.632-4.394
			c1.284-1.624,2.539-3.288,3.73-4.946c1.217-1.692,2.412-3.435,3.553-5.176c2.246-3.43,4.394-7.036,6.383-10.719
			c1.958-3.624,3.801-7.399,5.478-11.221c1.669-3.812,3.197-7.726,4.543-11.633c1.358-3.95,2.563-7.979,3.579-11.976
			c0.991-3.903,1.805-7.801,2.459-11.678h48.593c-1.551,15.639-5.262,31.617-11.325,47.378c-3.279,8.524-7.126,16.663-11.454,24.363
			H413.409z M327.635,470.76c-5.166-17.085-12.838-34.311-22.801-51.198c-9.598-16.274-20.824-31.381-33.369-44.899
			c-13.468-14.522-28.291-26.861-42.866-35.682c-5.268-3.188-10.516-5.93-15.688-8.207c0-0.004,0.002-0.008,0.002-0.012
			c0-0.302-0.269-0.544-0.581-0.494v-0.002c-0.009,0-0.107,0.006-0.116,0.007l-0.164,0.012c-0.083,0.004-0.165,0.011-0.247,0.017
			c-2.832-1.212-5.643-2.295-8.417-3.22c-4.995-1.664-9.719-2.82-14.441-3.534c-2.265-0.34-4.487-0.569-6.606-0.682
			c-2.036-0.111-4.044-0.114-5.989-0.029c-0.119-0.745-0.248-1.492-0.363-2.236c-0.182-1.164-0.349-2.345-0.522-3.518
			c8.428-2.789,17.929-3.381,28.252-1.734c8.822,1.406,18.109,4.428,27.604,8.981c8.272,3.963,16.661,9.068,24.934,15.172
			c3.807,2.808,7.655,5.881,11.437,9.134c2.163,1.863,4.328,3.808,6.438,5.78c1.554,1.448,3.064,2.915,4.337,4.159
			c0.004,0.004,0.008,0.004,0.012,0.008c2.246,2.193,4.486,4.473,6.658,6.776c2.135,2.271,4.281,4.646,6.379,7.06
			c4.133,4.759,8.142,9.757,11.914,14.855c0.001,0.001,0.002,0.001,0.002,0.002c10.816,14.602,19.92,30.152,27.061,46.218
			c0,0.001,0,0.001,0.001,0.001c0,0,0,0,0,0.001c0.323,0.721,0.646,1.446,0.963,2.173c0.698,1.596,1.38,3.194,2.04,4.805
			c1.316,3.202,2.556,6.425,3.682,9.577c2.035,5.699,3.804,11.442,5.256,17.069c0.988,3.836,1.813,7.613,2.508,11.337h-6.559
			c-0.176-0.91-0.975-1.599-1.936-1.599c-1.09,0-1.974,0.884-1.974,1.974s0.884,1.974,1.974,1.974c0.961,0,1.76-0.688,1.936-1.599
			h6.697c1.465,8.057,2.255,15.832,2.322,23.214c0.121,13.279-2.012,24.977-6.339,34.767c-1.268,2.867-2.67,5.472-4.288,7.963
			c-1.622,2.494-3.358,4.723-5.311,6.813c-3.36,3.604-7.222,6.585-11.494,8.906c4.139-4.511,7.469-10.024,9.92-16.468
			c2.726-7.172,4.328-15.403,4.763-24.465C335.367,505.044,333.006,488.499,327.635,470.76z M264.072,486.066
			c-1.942-7.907-4.899-16.072-8.789-24.271c-0.507-1.067-1.035-2.137-1.575-3.206c-0.003-0.008-0.002-0.016-0.006-0.023
			c-0.064-0.128-0.137-0.254-0.201-0.382c-0.734-1.444-1.494-2.887-2.282-4.323c-0.15-0.275-0.303-0.549-0.456-0.823
			c-0.428-0.769-0.858-1.536-1.3-2.299c-0.3-0.519-0.61-1.034-0.917-1.55c-0.209-0.353-0.413-0.706-0.625-1.057
			c-0.784-1.299-1.594-2.584-2.414-3.86c-0.26-0.402-0.517-0.806-0.779-1.206c-0.637-0.971-1.28-1.934-1.935-2.885
			c-0.175-0.255-0.356-0.506-0.534-0.76c-0.165-0.237-0.319-0.482-0.486-0.719c-0.144-0.204-0.297-0.399-0.441-0.603
			c-0.846-1.188-1.707-2.364-2.582-3.525c-0.311-0.411-0.623-0.82-0.937-1.228c-0.822-1.07-1.651-2.13-2.492-3.167
			c-0.093-0.114-0.192-0.231-0.286-0.346c-0.267-0.327-0.535-0.649-0.805-0.974c-0.948-1.145-1.92-2.296-2.93-3.445
			c-0.069-0.078-0.14-0.154-0.209-0.232c-0.146-0.166-0.296-0.328-0.443-0.492c-1.19-1.333-2.386-2.637-3.563-3.866
			c-7.41-7.735-19.134-18.198-32.981-24.249c-1.074-3.336-2.1-6.63-3.06-9.827c-1.329-4.427-2.585-8.817-3.731-13.05
			c-1.173-4.3-2.313-8.725-3.386-13.15c-1.077-4.444-2.092-8.896-3.017-13.229c-0.996-4.672-1.924-9.389-2.786-14.113
			c3.636,0.384,7.278,1.051,11.117,2.057c4.313,1.132,8.596,2.603,13.094,4.498c7.433,3.13,15.075,7.307,22.714,12.413
			c13.478,9.011,26.562,20.589,38.889,34.413c11.482,12.883,21.755,27.103,30.533,42.264c9.13,15.773,16.222,31.826,21.08,47.714
			c5.243,17.164,7.59,33.141,6.976,47.486c-0.374,8.736-1.868,16.649-4.441,23.521c-3.035,8.098-7.517,14.648-13.322,19.472
			c-6.573,5.463-14.67,8.578-24.064,9.262c-7.948,0.58-16.66-0.624-25.9-3.564c-14.322-4.559-29.729-13.348-44.627-25.428
			c0.919-0.079,1.815-0.202,2.684-0.378c1.295-0.267,2.493-0.621,3.667-1.086c0.556-0.224,1.1-0.474,1.729-0.764l1.7-0.776
			c0.001-0.001,0.001-0.001,0.002-0.001l2.615-1.194l8.479-3.872c2.834,0.598,5.572,0.902,8.18,0.902
			c1.553,0,3.061-0.106,4.517-0.319c4.536-0.663,8.532-2.352,11.879-5.018c3.268-2.602,5.866-6.101,7.726-10.4
			c1.593-3.687,2.629-7.933,3.081-12.62C267.171,504.116,266.379,495.462,264.072,486.066z M179.931,347.528
			c0.927,4.343,1.943,8.803,3.022,13.257c0.118,0.486,0.244,0.969,0.364,1.455l-0.111,0.546c-0.055,0.271,0.12,0.534,0.391,0.59
			c0.002,0,0.003,0,0.004,0.001c0.887,3.564,1.8,7.117,2.746,10.585c1.148,4.24,2.406,8.64,3.739,13.074
			c1.26,4.2,2.634,8.565,4.083,12.977l0.402,1.225c0.42,1.401,0.86,2.804,1.319,4.198c0.021,0.063,0.07,0.104,0.111,0.15
			l0.159,0.484c0,0.002,0.001,0.003,0.001,0.005l0.515,1.564l-1.687,1.14c-0.811-2.453-1.62-4.912-2.428-7.368
			c-1.534-4.658-3.005-9.333-4.37-13.896c-1.386-4.632-2.727-9.353-3.987-14.03c-1.229-4.583-2.434-9.338-3.576-14.131
			c-1.118-4.722-2.182-9.512-3.16-14.236c-0.971-4.715-1.891-9.533-2.733-14.323c-0.845-4.818-1.622-9.661-2.311-14.395
			c-0.696-4.803-1.33-9.67-1.885-14.469c-0.534-4.58-1.014-9.287-1.433-13.998c0.656-0.035,1.283-0.075,1.874-0.12
			c0.179,1.981,0.364,3.962,0.563,5.941c0,0.001,0,0.001,0,0.001c0.016,0.155,0.034,0.31,0.05,0.465
			c-0.082,0.168-0.063,0.369,0.057,0.523c0.764,7.406,1.688,14.771,2.75,21.979c-0.001,0.056,0.003,0.112,0.021,0.169
			c0.001,0.003,0.003,0.005,0.005,0.008c0.189,1.286,0.374,2.578,0.572,3.854c0.134,0.862,0.282,1.729,0.422,2.592
			c0,0.009-0.004,0.017-0.004,0.025c0.002,0.039,0.017,0.075,0.026,0.113c0.286,1.775,0.579,3.553,0.887,5.332
			c0.005,0.026,0.006,0.053,0.014,0.076c0.222,1.279,0.448,2.559,0.68,3.838c0.004,0.02,0.004,0.04,0.011,0.059
			C177.928,337.723,178.891,342.65,179.931,347.528z M197.748,407.716c-0.003-0.01-0.001-0.02-0.004-0.029l-0.362-1.101l2.626,0.439
			l-5.59,3.783l-13.897-2.377l1.998-1.34c0.075,0.228,0.15,0.453,0.226,0.681c0.003,0.011,0.015,0.015,0.019,0.024
			c0.032,0.082,0.083,0.152,0.152,0.207c0.008,0.007,0.014,0.016,0.022,0.021c0.058,0.04,0.123,0.07,0.197,0.083l11.504,1.949
			c0.028,0.005,0.056,0.007,0.083,0.007c0.001,0,0.001,0,0.001,0c0.001,0,0.001,0,0.001,0c0.003,0,0.006-0.002,0.009-0.002
			c0.049,0,0.098-0.007,0.147-0.023c0.003-0.001,0.004-0.003,0.007-0.004c0.032-0.012,0.061-0.031,0.09-0.049
			c0.009-0.005,0.019-0.002,0.026-0.008l2.547-1.722c0.009-0.006,0.014-0.016,0.021-0.022c0.028-0.021,0.05-0.046,0.072-0.072
			c0.02-0.023,0.041-0.046,0.056-0.072c0.017-0.027,0.025-0.058,0.035-0.088c0.011-0.03,0.021-0.06,0.026-0.092
			c0.004-0.029,0.001-0.059,0-0.089C197.759,407.785,197.757,407.751,197.748,407.716z M218.165,447.829l-5.71,4.465l-17.303-40.774
			l5.948-4.026l1.176,2.776c0,0,0,0.001,0,0.002L218.165,447.829z M210.509,450.266c-8.973-11.598-19.185-20.914-29.705-27.094
			l-1.056-13.858l14.431,2.47L210.509,450.266z M139.506,426.974l-1.311,1.381c-0.365,0.384-0.73,0.77-1.077,1.174
			c-0.843,0.984-1.575,2.007-2.239,3.125c-0.446,0.751-0.848,1.555-1.228,2.382c-3.702-11.6-6.13-22.844-7.194-33.435
			c-1.249-12.476-0.583-23.7,1.932-33.437c1.4,4.918,2.882,9.85,4.445,14.737C132.56,396.376,134.806,411.202,139.506,426.974z
			 M133.819,385.951c0.527,1.62,1.066,3.255,1.623,4.906c0.192,2.941,0.501,5.98,0.907,9.036l-1.359,0.881
			c-0.002,0.001-0.003,0.004-0.005,0.005c-0.007,0.005-0.013,0.008-0.02,0.013c-0.019,0.015-0.03,0.034-0.047,0.05
			c-0.011,0.011-0.021,0.021-0.029,0.031c-0.006,0.007-0.015,0.012-0.021,0.02C134.206,395.758,133.856,390.771,133.819,385.951z
			 M135.114,402.668l5.716,22.908c-0.176,0.186-0.352,0.371-0.528,0.557C137.916,418.037,136.185,410.197,135.114,402.668z
			 M135.933,401.816l13.303,2.277l6.746,14.48c-7.716,0.512-13.028,5.332-14.236,6.534L135.933,401.816z M138.469,399.714
			l0.197,0.578c0.004,0.011,0.016,0.017,0.021,0.026c0.033,0.08,0.083,0.149,0.15,0.202c0.009,0.007,0.014,0.016,0.023,0.021
			c0.058,0.04,0.122,0.069,0.195,0.082l10.739,1.823c0.028,0.005,0.056,0.007,0.083,0.007c0.001,0,0.001,0,0.001,0
			c0.001,0,0.001,0,0.001,0c0.004,0,0.007-0.002,0.011-0.002c0.05-0.001,0.1-0.009,0.148-0.024c0.002-0.001,0.003-0.002,0.005-0.003
			c0.029-0.011,0.054-0.028,0.08-0.043c0.009-0.005,0.02-0.003,0.028-0.009l2.534-1.653c0.012-0.007,0.018-0.019,0.027-0.027
			c0.027-0.021,0.048-0.044,0.07-0.068c0.021-0.024,0.042-0.048,0.058-0.076c0.016-0.027,0.025-0.056,0.036-0.086
			s0.021-0.06,0.025-0.092c0.004-0.03,0.002-0.062,0.001-0.093c-0.002-0.034-0.004-0.066-0.013-0.101
			c-0.003-0.012-0.001-0.024-0.005-0.036l-0.351-1.034l2.441,0.407l-5.509,3.604l-12.859-2.2l0.527-0.342
			c0.001-0.001,0.001-0.002,0.002-0.002l0.019-0.012L138.469,399.714z M137.234,396.102l0.901,2.637l-0.621,0.402
			C137.412,398.12,137.312,397.101,137.234,396.102z M143.88,382.243c-1.225-3.917-2.422-7.921-3.56-11.899
			c-2.269-7.964-4.348-16.061-6.181-24.064c-1.844-8.054-3.492-16.252-4.897-24.364c-1.33-7.687-2.485-15.574-3.45-23.463
			c0.664,0.454,1.34,0.852,2.021,1.192c0.925,7.368,2.023,14.736,3.271,21.907c1.279,7.366,2.749,14.759,4.369,21.971
			c0.363,1.626,0.749,3.28,1.141,4.941c0.001,0.014,0.007,0.026,0.009,0.04c0.507,2.148,1.029,4.311,1.574,6.484
			c0,0.001,0.001,0.001,0.001,0.002l0.629,2.475c0,0,0,0,0,0.001c1.496,5.822,3.153,11.788,4.925,17.734
			c1.641,5.49,3.412,11.041,5.258,16.524c0,0,0,0,0,0.001c0.009,0.063,0.029,0.123,0.059,0.177c0.093,0.274,0.179,0.553,0.271,0.826
			l2.495,7.365l-1.67,1.089l-2.416-7.13c0,0,0,0,0-0.001C146.374,390.061,145.079,386.088,143.88,382.243z M129.659,267.982
			c0.176,0.91,0.975,1.599,1.937,1.599c1.09,0,1.974-0.884,1.974-1.974s-0.884-1.974-1.974-1.974c-0.962,0-1.761,0.688-1.937,1.599
			h-16.563c-0.1-5.057,0.589-9.897,2.027-14.06c0-0.001,0.001-0.001,0.001-0.001c0.934-2.689,2.144-5.019,3.598-6.921
			c1.729-2.266,3.729-3.856,5.941-4.728c0.001-0.001,0.001-0.001,0.002-0.001c0.877-0.345,1.74-0.563,2.638-0.671
			c0.001,0,0.002,0,0.002,0c3.944-0.465,7.31,1.366,9.438,2.995c2.462,1.883,4.765,4.615,6.66,7.901
			c3.264,5.656,5.296,12.777,5.724,20.052c0.254,4.313,0.057,10.748-2.323,16.919c-1.126,2.917-2.587,5.355-4.344,7.245
			c-2.063,2.23-4.516,3.624-7.093,4.03c-2.27,0.355-4.582-0.023-6.877-1.123c-0.001,0-0.001,0-0.002,0
			c-2.657-1.268-5.236-3.504-7.459-6.464c-1.888-2.517-3.499-5.492-4.79-8.844c0-0.001-0.001-0.002-0.001-0.003
			c-0.002-0.004-0.004-0.009-0.006-0.013c-0.001-0.003,0-0.005-0.001-0.007c-1.799-4.681-2.874-9.907-3.107-15.114
			c-0.007-0.149-0.005-0.296-0.011-0.444H129.659z M141.011,191.884c3.094-4.995,6.428-9.842,9.908-14.406
			c3.203-4.199,6.608-8.235,10.124-12.043c-0.478,2.573-0.936,5.186-1.366,7.835c-4.922,6.536-9.357,13.324-13.56,20.751
			c-1.015,1.793-2.021,3.635-2.992,5.475c-0.935,1.772-1.86,3.59-2.829,5.558c-0.912,1.857-1.81,3.754-2.669,5.635l-0.081,0.177
			c-0.223,0.487-0.528,1.155-0.697,1.633c-0.229,0.647-0.354,1.22-0.393,1.798c-0.044,0.603,0.02,1.15,0.19,1.634
			c0.172,0.474,0.444,0.859,0.808,1.146c0.001,0.001,0.002,0,0.002,0.001c0.001,0.001,0.002,0.002,0.003,0.003
			s0.001,0.001,0.001,0.001h0.001l1.979,1.532c0.026,0.021,0.061,0.017,0.09,0.03c0.296,0.212,0.628,0.377,1.016,0.442
			c0.221,0.037,0.439,0.044,0.652,0.044c0.001,0,0.002,0,0.003,0l0.577,0.009c0.132,0.003,0.264,0.005,0.396,0.009
			c-2.264,4.754-4.419,9.68-6.402,14.665c-0.005,0.013-0.011,0.024-0.016,0.036c-3.248-0.112-6.496-0.217-9.75-0.315h-0.001h-0.001
			c-0.128-0.003-0.258-0.015-0.385-0.035c-0.002,0-0.003,0.001-0.004,0h-0.001c-0.214-0.032-0.407-0.095-0.599-0.173
			c0.046-3.514,0.13-6.972,0.252-10.285C129.797,211.912,135.094,201.43,141.011,191.884z M125.401,220.126
			c0.458-10.611,1.294-21.072,2.525-31.12c0.703-5.714,1.541-11.404,2.49-16.911c0.969-5.624,2.082-11.214,3.306-16.614
			c1.288-5.656,2.73-11.244,4.285-16.606c1.579-5.445,3.329-10.841,5.204-16.037c0.977-2.71,2.013-5.432,3.078-8.089
			c1.047-2.604,2.168-5.255,3.333-7.876c1.16-2.605,2.365-5.178,3.581-7.645c1.177-2.398,2.462-4.886,3.818-7.393
			c11.465-21.109,25.77-38.656,42.516-52.152c18.125-14.608,38.507-23.951,60.58-27.768c1.657-0.146,3.374-0.253,5.11-0.341
			c-2.771,1.166-5.527,2.438-8.228,3.8c-3.645,1.838-7.252,3.867-10.722,6.03c-3.322,2.071-6.642,4.342-9.865,6.75
			c-3.271,2.448-6.488,5.068-9.563,7.787c-11.663,10.312-22.194,22.777-31.303,37.051c-15.944,24.986-27.437,55.467-34.162,90.592
			c-3.924,4.164-7.713,8.634-11.263,13.287c-3.501,4.59-6.853,9.464-9.963,14.485C134.667,200.22,129.714,209.891,125.401,220.126z
			 M173.704,255.545l-3.633-0.201l-0.009-0.331l4.924,0.268c0.002,0,0.003,0,0.005,0c0.079,0.004,0.164,0.015,0.244,0.021
			C174.727,255.396,174.217,255.475,173.704,255.545z M175.565,256.261c0.303-0.056,0.603-0.122,0.9-0.201
			c0.06-0.017,0.119-0.04,0.179-0.058l1.688,29.64c-0.005,0.003-0.015,0.007-0.018,0.009c-0.115,0.056-0.236,0.098-0.358,0.137
			c-0.271,0.09-0.545,0.159-0.817,0.222c-0.392,0.086-0.789,0.149-1.186,0.216l-1.7-29.756
			C174.692,256.406,175.132,256.345,175.565,256.261z M173.26,256.607l1.701,29.78c-1.077,0.155-2.222,0.283-3.568,0.394
			c-0.001,0-0.002,0-0.002,0c-0.001,0-0.001,0-0.002,0s-0.001,0-0.001,0c-2.626,0.216-6.325,0.373-8.842,0.169c0,0,0,0-0.001,0
			l-5.047-0.401c-0.091-0.174-0.279-0.281-0.488-0.271c-0.147,0.013-0.271,0.093-0.353,0.203l-5.635-0.448
			c1.283-4.423,1.808-9.463,1.503-14.635c-0.3-5.14-1.407-10.254-3.196-14.855l11.366,0.638c0.003,0,0.006,0,0.009,0
			c0.688,0.038,1.458,0.056,2.281,0.056C166.303,257.236,170.437,256.953,173.26,256.607z M148.458,386.904
			c-1.305-3.999-2.578-8.008-3.767-11.99c-1.343-4.507-2.619-9.025-3.81-13.482c3.107-8.859,8.014-15.943,14.402-20.926
			c-3.502,6.854-5.801,14.906-6.81,24.006C147.706,371.477,147.71,378.994,148.458,386.904z M150.126,271.741
			c-0.437-7.427-2.516-14.705-5.855-20.493c-1.988-3.447-4.316-6.205-6.919-8.196c-1.351-1.032-3.174-2.143-5.327-2.769l2.556-0.309
			l2.272-0.271c4.606-0.55,8.438,1.938,10.847,4.127c2.688,2.444,5.088,5.877,6.942,9.929c0.008,0.313,0.013,0.624,0.021,0.937
			l-6.143,0.809c-0.012,0.002-0.021,0.009-0.033,0.012c-0.126,0.02-0.227,0.082-0.295,0.177c-0.002,0.003-0.004,0.007-0.007,0.01
			c-0.022,0.032-0.045,0.063-0.06,0.102c-0.004,0.011-0.004,0.022-0.008,0.034c-0.009,0.025-0.014,0.051-0.018,0.078
			c-0.004,0.02-0.013,0.036-0.014,0.056c0,0.003,0.002,0.007,0.002,0.01c-0.001,0.017,0.003,0.031,0.004,0.048
			c0,0.012-0.005,0.023-0.003,0.036c0.003,0.021,0.014,0.038,0.019,0.058c0.005,0.019,0.006,0.037,0.013,0.055
			c0.001,0.004,0.001,0.008,0.002,0.012c1.918,4.686,3.096,9.965,3.404,15.268c0.312,5.285-0.251,10.43-1.628,14.878
			c-0.006,0.02-0.002,0.038-0.006,0.058c-0.004,0.018-0.014,0.031-0.015,0.05c-0.001,0.015,0.005,0.028,0.005,0.044
			c0,0.035,0.005,0.068,0.013,0.102c0.007,0.031,0.015,0.06,0.026,0.088c0.013,0.029,0.028,0.057,0.047,0.083
			c0.018,0.026,0.036,0.052,0.06,0.074c0.021,0.021,0.046,0.039,0.071,0.057c0.028,0.02,0.058,0.036,0.09,0.049
			c0.014,0.006,0.024,0.017,0.039,0.021c0.025,0.008,0.051,0.008,0.076,0.012c0.011,0.001,0.02,0.008,0.031,0.009l5.908,0.471
			c-1.085,2.73-2.461,5.053-4.12,6.872c-2.102,2.311-4.612,3.753-7.259,4.171l-4.821,0.762c1.116-0.693,2.177-1.561,3.149-2.611
			c1.843-1.983,3.372-4.529,4.544-7.566C150.183,282.74,150.386,276.152,150.126,271.741z M136.001,235.783
			c0.001-0.003,0.002-0.005,0.003-0.007c0-0.001,0-0.001,0-0.001c0.001-0.001,0.001-0.001,0.002-0.002l0.242-0.545
			c0.096-0.215,0.187-0.432,0.279-0.647c0.009-0.018,0.017-0.035,0.023-0.054c0.05-0.116,0.103-0.229,0.149-0.347
			c2.071-5.207,4.327-10.355,6.704-15.302c0.001-0.003,0.001-0.006,0.003-0.01c0.013-0.028,0.016-0.061,0.022-0.092
			c0.009-0.034,0.021-0.066,0.022-0.101c0-0.002,0.001-0.005,0.001-0.007c0-0.022-0.009-0.042-0.012-0.064
			c-0.005-0.041-0.008-0.082-0.022-0.12c-0.011-0.027-0.029-0.05-0.044-0.074c-0.018-0.03-0.033-0.062-0.058-0.089
			c-0.023-0.024-0.053-0.041-0.081-0.061c-0.022-0.017-0.04-0.038-0.066-0.051c-0.003-0.002-0.006-0.001-0.009-0.002
			c-0.03-0.014-0.064-0.017-0.098-0.024c-0.031-0.007-0.062-0.02-0.093-0.021c-0.004,0-0.007-0.002-0.01-0.002
			c-0.388-0.006-0.773-0.015-1.171-0.024l-0.582-0.009c-0.165,0-0.328-0.002-0.495-0.03c-0.412-0.069-0.685-0.265-0.874-0.498
			c0.021,0,0.041,0.001,0.062,0.001l6.702,0.141c2.81,0.066,5.616,0.139,8.426,0.219c-0.297,5.973-0.476,12.018-0.537,18.092
			c-0.039,0.059-0.068,0.125-0.08,0.199c-0.019,0.123,0.014,0.238,0.074,0.336c-0.018,1.948-0.024,3.893-0.019,5.843
			c0,0,0,0,0,0.001c0,0.006,0,0.012,0,0.018l-6.108,0.629c-2.563-2.326-6.663-4.972-11.625-4.367l-1.643,0.196
			C135.224,237.887,135.492,236.955,136.001,235.783z M128.1,234.84L128.1,234.84c-0.419-0.012-0.784-0.119-1.119-0.275
			c2.785,0.086,5.567,0.175,8.348,0.271l-0.102,0.228C132.849,234.986,130.474,234.912,128.1,234.84z M154.589,251.398
			c-1.52-2.885-3.314-5.406-5.291-7.413l5.179-0.532C154.491,246.083,154.532,248.736,154.589,251.398z M156.745,288.844
			c0.192,2.06,0.393,4.1,0.602,6.081c-1.68,1.319-3.502,2.155-5.427,2.457c-0.001,0-0.001,0-0.001,0l-2.352,0.371
			c1.172-0.725,2.282-1.641,3.297-2.756C154.392,293.322,155.685,291.246,156.745,288.844z M145.022,299.482l7.053-1.112
			c0,0,0.001,0,0.001-0.001c1.907-0.299,3.72-1.063,5.398-2.271c0.38,3.521,0.793,7.051,1.237,10.503
			c0.127,0.982,0.266,1.966,0.398,2.95c-3.873,6.52-6.911,13.967-9.032,22.142l-4.399,2.689c-0.001,0.001-0.001,0.001-0.002,0.001
			c-0.004,0.003-0.008,0.002-0.012,0.005c-3.5,2.142-6.67,4.818-9.444,7.952c-1.533-6.892-2.931-13.935-4.151-20.96
			c-1.211-6.96-2.278-14.108-3.186-21.261c1.604,0.654,3.219,1.005,4.823,1.005c0.606,0,1.212-0.047,1.814-0.142
			c0.001,0,0.002,0,0.003,0L145.022,299.482z M158.923,326.744c0.792-0.729,1.61-1.425,2.457-2.097
			c0.058,0.347,0.119,0.688,0.178,1.034C160.656,326.01,159.781,326.367,158.923,326.744z M161.731,326.687
			c0.105,0.615,0.211,1.229,0.318,1.843c-2.818,0.436-5.524,1.096-8.104,1.983c0.163-0.103,0.322-0.211,0.486-0.311
			C156.738,328.789,159.137,327.643,161.731,326.687z M156.101,328.104c-0.739,0.394-1.47,0.804-2.189,1.244l-2.587,1.581
			c1.958-7.224,4.646-13.854,8.007-19.748c0.57,4.124,1.192,8.243,1.864,12.334C159.38,324.922,157.708,326.425,156.101,328.104z
			 M146.187,335.241c0.001-0.001,0.002-0.002,0.003-0.003c0.003-0.002,0.008-0.001,0.011-0.003
			c4.739-2.896,10.129-4.813,16.02-5.721c0.045,0.255,0.086,0.512,0.132,0.766c0.138,0.771,0.286,1.544,0.429,2.315
			c-3.801,0.653-7.383,1.748-10.712,3.261c-0.063,0.015-0.124,0.041-0.181,0.081c-1.461,0.673-2.878,1.417-4.235,2.251
			c-3.884,2.385-7.341,5.45-10.302,9.103c-0.292-1.251-0.586-2.504-0.861-3.734C139.311,340.256,142.568,337.455,146.187,335.241z
			 M148.176,339.04c0.196-0.12,0.399-0.229,0.598-0.347c-2.232,2.184-4.262,4.646-6.049,7.372c-0.002,0.003-0.004,0.006-0.006,0.009
			c-0.001,0.002-0.001,0.003-0.003,0.005c-1.482,2.266-2.765,4.654-3.916,7.237c-0.396-1.602-0.788-3.2-1.164-4.787
			C140.632,344.692,144.175,341.498,148.176,339.04z M141.483,350.119c-0.785,1.748-1.486,3.556-2.128,5.443l-0.165-0.652
			C139.894,353.229,140.657,351.643,141.483,350.119z M143.308,348.583C143.308,348.582,143.308,348.582,143.308,348.583
			l0.001-0.002c0.611-1.249,1.275-2.478,1.973-3.651c0.732-1.234,1.231-1.981,1.986-3.113l0.225-0.336
			c1.525-1.715,3.167-3.28,4.916-4.681c3.275-1.496,6.806-2.577,10.554-3.222c0.067,0.365,0.134,0.731,0.203,1.098
			c-2.319,1.004-4.507,2.219-6.563,3.628c-0.077,0.026-0.143,0.074-0.2,0.136c-7.048,4.894-12.481,12.126-15.962,21.311
			c-0.21-0.799-0.423-1.599-0.627-2.392C140.797,354.227,141.939,351.352,143.308,348.583z M149.469,364.621
			c1.085-9.785,3.662-18.349,7.655-25.462c1.954-1.343,4.031-2.504,6.229-3.47c1.152,6.051,2.423,12.107,3.797,18.07
			c0.86,3.745,1.813,7.658,2.828,11.63c1.002,3.909,2.048,7.802,3.109,11.568c1.415,5.023,2.948,10.127,4.563,15.243
			c-8.46-0.625-15.643,1.732-20.862,6.848l-0.006-0.014c-0.007-0.016-0.019-0.024-0.026-0.039c-0.007-0.012-0.008-0.026-0.016-0.038
			c-0.002-0.003-0.004-0.004-0.006-0.006c-0.011-0.017-0.025-0.028-0.038-0.042c-0.021-0.025-0.043-0.046-0.067-0.065
			c-0.013-0.01-0.021-0.022-0.034-0.031s-0.029-0.012-0.044-0.019c-0.029-0.016-0.058-0.027-0.09-0.037
			c-0.016-0.005-0.03-0.013-0.047-0.016c-0.004-0.001-0.006-0.004-0.01-0.004l-4.23-0.707l-1.905-5.623
			c-0.101-0.298-0.194-0.6-0.295-0.898C148.728,381.932,148.558,372.885,149.469,364.621z M174.05,376.687
			c-1.06-3.759-2.104-7.644-3.104-11.545c-1.014-3.964-1.964-7.868-2.822-11.606c-1.78-7.726-3.392-15.608-4.788-23.431
			c-1.391-7.77-2.612-15.721-3.632-23.631c-0.48-3.735-0.93-7.561-1.334-11.367c-0.26-2.446-0.507-4.983-0.74-7.545l4.834,0.385
			c0.852,0.069,1.832,0.099,2.859,0.099c0.911,0,1.856-0.025,2.784-0.064c0.421,4.734,0.902,9.465,1.438,14.066
			c0.557,4.808,1.192,9.685,1.889,14.497c0.69,4.743,1.47,9.597,2.316,14.424c0.844,4.8,1.766,9.628,2.739,14.353
			c0.979,4.734,2.045,9.534,3.166,14.266c1.146,4.803,2.351,9.566,3.584,14.159c1.263,4.688,2.606,9.417,3.994,14.058
			c1.367,4.57,2.841,9.255,4.379,13.921c0.79,2.402,1.582,4.807,2.375,7.209l-10.39-1.761c-0.205-0.62-0.411-1.239-0.616-1.859
			c-0.001,0-0.001-0.001-0.001-0.002c-0.639-1.929-1.277-3.856-1.918-5.786C178.523,391.878,176.164,384.194,174.05,376.687z
			 M160.752,256.183l-6.813-0.383l1.012-0.133c0.07,0.044,0.147,0.077,0.235,0.082l8.723,0.479
			C162.756,256.246,161.675,256.233,160.752,256.183z M155.087,216.961c-2.821-0.08-5.64-0.152-8.461-0.219l-6.701-0.141
			c-0.193-0.006-0.393-0.01-0.58-0.012l-0.168-0.003c-0.128-0.001-0.257-0.002-0.372-0.014c-0.294-0.04-0.534-0.134-0.734-0.286
			c-0.214-0.17-0.377-0.405-0.482-0.696c-0.123-0.348-0.169-0.759-0.134-1.226c0.032-0.487,0.14-0.976,0.338-1.536
			c0.153-0.435,0.448-1.078,0.663-1.548l0.082-0.178c0.854-1.873,1.749-3.761,2.656-5.609c0.965-1.959,1.886-3.769,2.816-5.532
			c0.966-1.831,1.968-3.664,2.979-5.449c3.853-6.81,7.907-13.077,12.351-19.107c-0.328,2.099-0.647,4.207-0.943,6.332
			c-0.83,5.945-1.533,12.046-2.091,18.133C155.788,205.473,155.387,211.186,155.087,216.961z M126.169,235.287
			c0.547,0.345,1.186,0.531,1.898,0.553c0.001,0,0.001,0,0.001,0c2.249,0.068,4.499,0.139,6.751,0.212
			c-0.406,1.045-0.64,1.978-0.749,2.978l-6.884,0.83h-0.001c-0.749,0.089-1.474,0.273-2.2,0.51
			c-0.005-1.939,0.003-3.876,0.021-5.813L126.169,235.287z M150.213,403.825l5.883-3.849l6.223,14.573l-5.487,3.481L150.213,403.825
			z M157.21,400.038c6.409-6.503,14.746-7.327,20.76-6.813c0.701,2.205,1.413,4.41,2.145,6.614c0.583,1.754,1.163,3.507,1.743,5.259
			c-0.359,0.049-0.721,0.094-1.07,0.157c-1.188-0.306-2.346-0.56-3.493-0.753c-6.629-1.113-12.411-0.342-17.209,2.271
			L157.21,400.038z M343.401,466.869c-1.46-5.656-3.237-11.428-5.283-17.155c-1.131-3.168-2.376-6.405-3.698-9.621
			c-0.663-1.617-1.347-3.224-2.048-4.824c-0.317-0.729-0.642-1.457-0.967-2.181c0-0.001,0-0.001,0-0.001
			c-7.169-16.132-16.311-31.745-27.17-46.405c-0.001-0.001-0.001-0.003-0.002-0.004c-3.789-5.119-7.813-10.138-11.964-14.916
			c-2.105-2.424-4.261-4.809-6.406-7.089c-2.184-2.316-4.436-4.608-6.694-6.813c-0.004-0.004-0.008-0.004-0.012-0.008
			c-1.275-1.246-2.788-2.716-4.346-4.168c-2.118-1.981-4.294-3.935-6.468-5.807c-3.801-3.27-7.668-6.358-11.495-9.181
			c-8.323-6.142-16.767-11.278-25.096-15.27c-9.581-4.595-18.961-7.646-27.878-9.067c-10.419-1.66-20.017-1.07-28.56,1.723
			c-1.03-7.055-1.931-14.256-2.677-21.497c2.122-1.885,4.389-3.636,6.749-5.198c14.889-9.864,33.854-12.773,54.844-8.41
			c41.165,8.554,84.54,42.613,116.028,91.109c23.032,35.477,35.938,73.216,38.472,106.37h-42.773
			C345.252,474.65,344.411,470.789,343.401,466.869z M479.755,220.666c0-0.001,0-0.002,0-0.002c-0.941-3.336-1.956-6.633-3.019-9.8
			c-1.097-3.269-2.251-6.441-3.43-9.428c-1.249-3.176-2.606-6.354-4.036-9.449c-0.228-0.491-0.473-0.973-0.705-1.462h0.936
			c1.924,4.146,3.722,8.439,5.377,12.889c0,0,0,0,0.001,0.001c1.911,5.142,3.686,10.604,5.271,16.235
			c0.234,0.829,0.489,2.337-0.149,3.66C480.112,222.27,479.932,221.297,479.755,220.666z M295.285,116.855
			c17.374-4.61,34.745-6.334,51.674-5.144c-6.367,0.059-12.798,0.511-19.224,1.355c-9.99,1.315-20.091,3.597-30.022,6.781
			c-4.861,1.56-9.728,3.351-14.463,5.321c-2.337,0.973-4.688,2.009-6.99,3.078c-2.339,1.086-4.691,2.238-6.993,3.424
			c-0.001,0-0.001,0.001-0.002,0.002c-1.307,0.672-2.606,1.361-3.898,2.064h-11.777C267.014,126.315,281,120.646,295.285,116.855z
			 M251.536,133.738h-3.434c15.128-8.883,31.014-15.533,47.264-19.774c7.247-1.893,14.491-3.28,21.7-4.178
			c0.556-0.006,1.112-0.009,1.669-0.009c0.182,0,0.332-0.102,0.42-0.245c10.027-1.116,19.979-1.267,29.771-0.44
			c3.41,0.287,6.81,0.695,10.103,1.214c3.38,0.528,6.742,1.181,9.993,1.939c3.178,0.737,6.347,1.603,9.437,2.564
			c-1.56-0.331-3.123-0.645-4.694-0.922c-1.742-0.307-3.509-0.57-5.283-0.813c-0.021-0.006-0.039-0.019-0.062-0.021
			c-6.353-0.893-12.777-1.621-19.096-2.167c-17.765-1.529-36.029,0.155-54.294,5.003
			C280.107,119.848,265.511,125.845,251.536,133.738z M269.724,132.561c0.001,0,0.002,0,0.002,0c2.289-1.18,4.629-2.325,6.956-3.406
			c2.289-1.063,4.629-2.094,6.953-3.061c4.71-1.961,9.549-3.741,14.383-5.293c9.875-3.166,19.918-5.434,29.849-6.741
			c10.262-1.352,20.534-1.695,30.535-1.021c5.125,0.345,10.235,0.962,15.188,1.833c5.047,0.892,10.058,2.065,14.892,3.49
			c5.201,1.533,10.344,3.406,15.284,5.565c4.997,2.188,9.861,4.708,14.456,7.488c1.238,0.748,2.46,1.53,3.672,2.322h-2.833
			c-0.794-0.49-1.581-0.994-2.386-1.465c-2.849-1.665-5.846-3.258-8.907-4.733c-6.06-2.91-12.205-5.283-18.787-7.255
			c-6.418-1.92-12.846-3.332-19.653-4.318c-3.231-0.467-6.492-0.819-9.777-1.064c-0.012-0.002-0.023-0.004-0.035-0.006
			c-0.015-0.002-0.027,0.003-0.042,0.002c-22.684-1.677-46.493,1.913-69.456,10.54c-6.422,2.413-12.705,5.19-18.846,8.3h-3.676
			C268.237,133.344,268.977,132.945,269.724,132.561z M417.149,133.738h-7.826c-4.096-2.654-8.306-5.034-12.766-7.218
			c-2.871-1.406-5.866-2.731-8.9-3.938c-2.938-1.171-6.031-2.267-9.197-3.257c-2.453-0.765-4.975-1.449-7.51-2.081
			c6.104,0.961,11.936,2.262,17.743,3.999c6.531,1.957,12.629,4.312,18.641,7.198c3.037,1.464,6.011,3.044,8.836,4.695
			C416.5,133.33,416.821,133.541,417.149,133.738z M290.325,126.391c8.884-1.709,17.326-2.244,25.809-1.635
			c5.926,1.633,11.85,3.635,17.609,5.955c2.367,0.952,4.707,1.975,7.005,3.027h-67.355
			C278.924,131.01,284.569,128.556,290.325,126.391z M334.116,129.783c-4.135-1.665-8.355-3.16-12.601-4.482
			c9.604,1.203,19.378,3.782,29.13,7.728c0.558,0.226,1.112,0.476,1.669,0.71h-9.178c-0.148-0.07-0.297-0.147-0.445-0.217
			C339.906,132.209,337.021,130.951,334.116,129.783z M351.021,132.102c-11.66-4.717-23.357-7.523-34.766-8.341
			c-6.835-0.493-13.644-0.24-20.668,0.749c21.209-7.222,43.005-10.156,63.841-8.612c3.205,0.515,6.396,1.14,9.481,1.862
			c3.125,0.731,6.238,1.58,9.253,2.521c3.142,0.982,6.211,2.069,9.125,3.231c3.011,1.197,5.982,2.512,8.831,3.907
			c3.938,1.928,7.67,4.028,11.31,6.319h-52.559C353.589,133.172,352.306,132.623,351.021,132.102z M408.638,134.488
			c1.386,0.895,2.758,1.819,4.121,2.78c2.615,1.839,5.19,3.81,7.655,5.858c2.489,2.066,4.925,4.259,7.239,6.518
			c2.288,2.229,4.52,4.578,6.634,6.98c2.149,2.44,4.23,4.993,6.188,7.587c1.887,2.491,3.745,5.14,5.525,7.873
			c1.739,2.662,3.403,5.416,5.088,8.417c1.467,2.619,2.92,5.412,4.441,8.538c0.122,0.252,0.237,0.491,0.354,0.735h-13.274
			c-0.176-0.91-0.975-1.599-1.936-1.599c-1.09,0-1.974,0.884-1.974,1.974s0.884,1.974,1.974,1.974c0.961,0,1.76-0.688,1.936-1.599
			h13.633c0.502,1.058,0.956,2.041,1.368,2.966c0.73,1.641,1.404,3.295,1.91,4.555l0.061,0.148c0.736,1.825,1.223,3.027,2.017,4.869
			c0.676,1.567,1.441,3.345,1.87,5.044c0.22,0.863,0.34,1.648,0.368,2.398c0.026,0.784-0.058,1.445-0.25,1.971
			c-0.186,0.524-0.485,0.901-0.894,1.121c-0.516,0.279-1.209,0.32-1.719,0.32c-0.033,0-0.073,0.004-0.096,0
			c-2.12-0.015-4.023,0.09-5.842,0.328c-0.953,0.123-1.901,0.288-2.896,0.503c-0.595,0.126-1.186,0.267-1.777,0.408
			c-0.351,0.084-0.701,0.168-1.053,0.248c-1.844,0.425-3.532,0.732-5.494,0.236c-0.954-0.241-1.859-0.637-2.618-0.991
			c-0.295-0.138-0.587-0.279-0.878-0.422c-0.263-0.127-0.528-0.253-0.794-0.378c-0.003-0.009-0.003-0.018-0.006-0.025
			c-0.009-0.024-0.026-0.044-0.039-0.067c-0.019-0.033-0.033-0.068-0.059-0.097c-0.02-0.021-0.045-0.034-0.067-0.052
			c-0.028-0.022-0.053-0.048-0.085-0.063c-0.023-0.011-0.05-0.013-0.074-0.021c-0.038-0.012-0.073-0.027-0.114-0.03
			c-0.147-0.009-0.278-0.034-0.417-0.052c-0.031-0.006-0.059-0.01-0.062-0.011l-0.001,0.003c-0.007,0-0.015-0.001-0.021-0.002
			c-0.014-0.006-0.025-0.01-0.04-0.016c-0.022-0.009-0.046-0.016-0.069-0.021c-0.021-0.005-0.039,0.002-0.059-0.001
			c-0.019-0.002-0.035-0.014-0.055-0.014h-0.006c-0.023,0-0.043,0.01-0.064,0.014c-0.005,0-0.01-0.002-0.014-0.001
			c-0.868-0.155-1.611-0.476-2.417-1.038c-0.85-0.593-1.726-1.432-2.604-2.492c-1.633-1.969-2.792-4.091-3.931-6.273
			c-0.001,0-0.001-0.001-0.001-0.002l-0.092-0.174c-0.685-1.307-1.275-2.435-2.049-3.763c-0.853-1.456-1.75-2.858-2.437-3.917
			c-1.907-2.947-3.492-5.314-4.99-7.447c-1.687-2.404-3.517-4.863-5.438-7.308c-1.823-2.324-3.734-4.638-5.682-6.876
			c-8.008-9.192-16.886-17.398-26.387-24.393c-2.435-1.797-4.964-3.547-7.518-5.203c-2.514-1.629-5.055-3.17-7.551-4.581
			c-3.491-1.978-7.067-3.787-10.674-5.44H408.638z M456.429,188.604c-1.53-3.145-2.992-5.954-4.469-8.591
			c-1.695-3.021-3.371-5.793-5.122-8.474c-1.793-2.753-3.666-5.421-5.565-7.93c-1.972-2.614-4.069-5.186-6.235-7.645
			c-2.13-2.422-4.38-4.789-6.686-7.036c-2.334-2.277-4.789-4.488-7.299-6.571c-2.485-2.065-5.082-4.053-7.718-5.906
			c-0.961-0.678-1.932-1.318-2.902-1.963h7.939c2.119,1.303,4.213,2.648,6.223,4.062c2.733,1.915,5.397,3.953,7.92,6.058
			c2.572,2.14,5.086,4.415,7.47,6.761c9.249,9.088,17.295,19.9,23.916,32.136c1.102,2.038,2.16,4.145,3.192,6.271h-10.101
			C456.812,189.395,456.624,189.006,456.429,188.604z M464.779,183.028c-6.668-12.323-14.774-23.216-24.094-32.373
			c-2.403-2.365-4.938-4.659-7.531-6.816c-2.543-2.122-5.229-4.177-7.985-6.107c-1.588-1.116-3.227-2.192-4.887-3.243h2.746
			c1.209,0.81,2.409,1.63,3.575,2.474c2.696,1.949,5.354,4.041,7.901,6.218c14.191,12.148,25.81,27.781,34.654,46.596h-0.956
			C467.101,187.486,465.963,185.218,464.779,183.028z M470.259,189.775c-8.903-19.076-20.632-34.93-34.982-47.248
			c-0.672-2.717-1.386-5.404-2.125-8.039h30.912c0.314,1.144,0.625,2.29,0.927,3.444c1.354,5.203,2.593,10.601,3.683,16.043
			c1.058,5.28,2.013,10.789,2.836,16.373c0.928,6.292,1.683,12.801,2.297,19.427H470.259z M473.874,190.525
			c0.284,3.125,0.533,6.275,0.746,9.452c-1.269-3.231-2.607-6.384-4.021-9.452H473.874z M433.972,141.449
			c-0.41-0.342-0.824-0.68-1.24-1.018c-0.521-1.996-1.063-3.979-1.625-5.943h1.006C432.756,136.772,433.377,139.098,433.972,141.449
			z M431.396,139.337c-1.386-1.095-2.79-2.161-4.207-3.186c-0.784-0.567-1.6-1.11-2.404-1.663h5.279
			C430.525,136.092,430.963,137.713,431.396,139.337z M474.811,189.775c-0.618-6.676-1.378-13.233-2.312-19.573
			c-0.827-5.6-1.784-11.126-2.846-16.424c-1.094-5.46-2.337-10.876-3.695-16.098c-0.279-1.07-0.569-2.132-0.859-3.192h10.577
			c1.093,4.046,2.116,8.167,3.043,12.326c1.354,6.093,2.557,12.4,3.572,18.749c0.971,6.063,1.806,12.376,2.483,18.761
			c0.191,1.803,0.367,3.623,0.535,5.451H474.811z M464.896,133.738c-1.146-4.137-2.372-8.191-3.662-12.096
			c-1.745-5.285-3.661-10.476-5.694-15.427c-1.045-2.55-2.173-5.154-3.354-7.74c-1.15-2.52-2.368-5.047-3.619-7.514
			c-2.483-4.9-5.175-9.707-8-14.286c-12.294-19.919-27.395-36.065-44.884-47.99c-18.139-12.364-38.728-20.038-61.193-22.809
			c-4.552-0.567-9.18-0.922-13.757-1.055c-0.812-0.023-1.626-0.03-2.439-0.039c9.075-0.684,18.397-0.451,27.794,0.729
			c12.673,1.589,24.844,4.787,36.177,9.506c5.766,2.396,11.197,5.115,16.606,8.312c2.697,1.593,5.374,3.304,7.957,5.085
			c2.613,1.8,5.199,3.716,7.685,5.694c2.369,1.883,4.726,3.885,7.004,5.949c2.306,2.091,4.566,4.271,6.72,6.481
			c2.199,2.254,4.358,4.607,6.418,6.996c2.089,2.419,4.14,4.941,6.095,7.499c3.695,4.82,7.234,9.984,10.517,15.349
			c3.273,5.351,6.369,11.022,9.201,16.857c2.686,5.546,5.183,11.326,7.421,17.181c2.222,5.802,4.282,11.906,6.125,18.145
			c0.503,1.704,0.988,3.433,1.464,5.173H464.896z M320.703,5.822c4.546,0.131,9.143,0.483,13.663,1.047
			c22.308,2.751,42.748,10.369,60.754,22.643c17.371,11.846,32.375,27.891,44.595,47.689c2.812,4.555,5.489,9.337,7.959,14.213
			c1.245,2.454,2.457,4.97,3.602,7.478c1.177,2.573,2.3,5.165,3.339,7.704c2.025,4.93,3.934,10.098,5.671,15.361
			c1.257,3.805,2.454,7.753,3.574,11.781h-30.917c-0.334-1.176-0.672-2.343-1.017-3.492c-1.23-4.112-2.566-8.194-3.972-12.132
			c-2.971-8.323-6.237-16.038-9.985-23.588c-1.924-3.873-3.982-7.705-6.121-11.389c-2.144-3.688-4.41-7.304-6.738-10.748
			c-2.433-3.601-5.001-7.115-7.633-10.445c-2.638-3.343-5.405-6.585-8.226-9.637c-2.905-3.146-5.98-6.212-9.138-9.11
			c-3.113-2.851-6.37-5.59-9.68-8.14c-3.392-2.608-6.934-5.089-10.526-7.371c-3.563-2.26-7.259-4.374-10.981-6.284
			c-3.779-1.941-7.693-3.728-11.632-5.307c-3.894-1.563-7.927-2.972-11.988-4.186c-4.038-1.211-8.185-2.256-12.323-3.104
			c-3.478-0.717-7.073-1.314-10.708-1.796c1.593-0.327,3.183-0.633,4.752-0.891C311.545,5.792,316.148,5.69,320.703,5.822z
			 M312.781,9.785c4.11,0.843,8.228,1.88,12.237,3.083c4.033,1.205,8.037,2.604,11.902,4.155c3.911,1.568,7.796,3.341,11.548,5.269
			c3.696,1.896,7.365,3.996,10.902,6.238c3.568,2.267,7.085,4.729,10.452,7.32c3.287,2.532,6.521,5.252,9.614,8.084
			c3.137,2.88,6.191,5.925,9.079,9.051c2.803,3.033,5.553,6.256,8.175,9.578c2.617,3.312,5.171,6.806,7.59,10.387
			c2.315,3.425,4.569,7.021,6.701,10.689c2.128,3.665,4.177,7.478,6.09,11.332c3.73,7.514,6.982,15.193,9.94,23.479
			c1.398,3.922,2.729,7.987,3.955,12.083c0.316,1.057,0.628,2.126,0.936,3.205h-1.02c-1.685-5.816-3.541-11.487-5.558-16.916
			c-1.455-3.914-3.033-7.819-4.692-11.607c-1.687-3.836-3.468-7.585-5.294-11.14c-1.892-3.695-3.937-7.386-6.079-10.969
			c-2.13-3.559-4.374-7.041-6.672-10.35c-2.406-3.455-4.938-6.828-7.524-10.024c-2.598-3.202-5.32-6.312-8.091-9.24
			c-5.845-6.171-11.875-11.57-18.436-16.507c-3.325-2.503-6.783-4.872-10.278-7.041c-3.492-2.168-7.099-4.189-10.72-6.007
			C333.068,16.666,317.212,11.977,300.41,10c-2.527-0.299-5.056-0.511-7.567-0.68c2.155-0.617,4.324-1.186,6.464-1.676l0.978,0.112
			C304.529,8.27,308.734,8.951,312.781,9.785z M300.293,10.992c16.686,1.964,32.431,6.619,46.798,13.839
			c3.595,1.805,7.175,3.811,10.642,5.963c3.47,2.153,6.902,4.505,10.204,6.99c6.516,4.903,12.505,10.267,18.311,16.396
			c2.754,2.91,5.459,6,8.04,9.183c2.571,3.177,5.089,6.53,7.48,9.966c2.285,3.29,4.518,6.752,6.636,10.292
			c2.131,3.564,4.165,7.235,6.047,10.911c1.817,3.538,3.59,7.268,5.268,11.085c1.651,3.771,3.223,7.658,4.671,11.554
			c1.976,5.318,3.794,10.873,5.451,16.568h-6.139c-1.576-1.058-3.174-2.09-4.799-3.074c-1.155-3.755-2.394-7.461-3.685-11.019
			c-1.331-3.673-2.766-7.326-4.264-10.858c-1.547-3.649-3.205-7.267-4.927-10.751c-1.743-3.528-3.583-6.988-5.468-10.285
			c-1.952-3.416-4.031-6.804-6.182-10.067c-2.164-3.273-4.422-6.459-6.711-9.469c-2.413-3.17-4.934-6.245-7.489-9.143
			c-2.575-2.921-5.264-5.75-7.989-8.409c-2.802-2.737-5.748-5.394-8.759-7.896c-2.959-2.46-6.059-4.831-9.213-7.047
			c-3.215-2.255-6.541-4.383-9.884-6.324c-3.338-1.945-6.791-3.762-10.264-5.4c-13.793-6.525-28.823-10.765-44.674-12.599
			c-0.002,0-0.003,0-0.004,0c-0.785-0.092-1.569-0.178-2.348-0.257c1.019-0.347,2.038-0.679,3.064-0.997
			C293.462,10.307,296.887,10.591,300.293,10.992z M289.276,12.39c0.001,0,0.002,0.001,0.004,0.001
			c15.742,1.82,30.667,6.029,44.362,12.509c3.446,1.626,6.874,3.43,10.188,5.36c3.319,1.928,6.621,4.04,9.813,6.278
			c3.132,2.2,6.21,4.555,9.148,6.998c2.989,2.485,5.916,5.124,8.698,7.842c2.709,2.643,5.379,5.454,7.938,8.356
			c2.54,2.879,5.045,5.936,7.443,9.086c2.276,2.992,4.521,6.159,6.672,9.414c2.139,3.246,4.207,6.614,6.148,10.013
			c1.875,3.279,3.705,6.722,5.439,10.232c1.714,3.467,3.363,7.066,4.903,10.698c1.49,3.516,2.918,7.152,4.244,10.81
			c1.164,3.209,2.282,6.542,3.34,9.92c-4.303-2.54-8.815-4.865-13.452-6.896c-4.979-2.177-10.16-4.063-15.401-5.608c0,0,0,0-0.001,0
			c-3.128-1.258-6.364-2.413-9.619-3.435c-3.234-1.017-6.563-1.925-9.896-2.698c-3.274-0.764-6.661-1.421-10.064-1.953
			c-3.316-0.521-6.739-0.933-10.174-1.222c-7.947-0.668-15.917-1.07-23.688-1.195c-7.883-0.126-15.862,0.013-23.712,0.42
			c-15.607,0.818-31.443,2.732-47.068,5.689c-3.659,0.693-7.317,1.525-10.874,2.473c-3.576,0.955-7.162,2.057-10.658,3.273
			c-3.483,1.211-6.98,2.576-10.394,4.058c-3.387,1.47-6.769,3.091-10.053,4.819c-3.313,1.419-6.574,2.952-9.695,4.558
			c-7.708,3.967-15.128,8.655-22.084,13.934c1.723-6.87,3.667-13.644,5.804-20.145c1.188-3.606,2.447-7.18,3.744-10.622
			c1.308-3.468,2.702-6.928,4.146-10.285c1.467-3.428,3.049-6.879,4.701-10.259c1.635-3.343,3.354-6.643,5.112-9.808
			c1.813-3.272,3.746-6.54,5.745-9.711c1.961-3.11,4.025-6.188,6.136-9.146c18.551-25.962,42.265-44.707,68.584-54.219
			C286.235,12.057,287.755,12.211,289.276,12.39z M201.795,133.89c-2.403,1.532-4.81,3.159-7.174,4.86
			c-2.846,2.051-5.655,4.226-8.352,6.463c-2.269,1.887-4.506,3.879-6.695,5.912c0.27-1.154,0.537-2.312,0.817-3.451
			C187.126,142.475,194.321,137.848,201.795,133.89z M186.908,145.982c2.679-2.223,5.471-4.384,8.297-6.421
			c2.87-2.065,5.803-4.028,8.715-5.832c3.001-1.858,6.06-3.608,9.094-5.204c0.001,0,0.001,0,0.002,0
			c3.266-1.72,6.63-3.333,9.999-4.794c3.39-1.472,6.863-2.828,10.323-4.03c3.474-1.21,7.036-2.304,10.588-3.252
			c3.532-0.941,7.167-1.768,10.802-2.457c15.581-2.948,31.372-4.857,46.936-5.674c7.826-0.405,15.78-0.543,23.644-0.418
			c0.233,0.004,0.47,0.014,0.702,0.018c-10.231,0.686-20.561,2.379-30.895,5.079c-16.86,4.399-33.329,11.38-48.97,20.741h-19.251
			c-0.176-0.91-0.975-1.599-1.937-1.599c-1.09,0-1.974,0.884-1.974,1.974s0.884,1.974,1.974,1.974c0.962,0,1.761-0.688,1.937-1.599
			h18.008c-15.199,9.245-29.37,20.614-42.118,33.809c-12.037,12.457-22.728,26.502-31.829,41.749
			c0.426-6.141,0.972-12.218,1.642-18.114c0.856-7.555,1.937-15.073,3.211-22.345c0.991-5.667,2.116-11.272,3.357-16.729
			C181.677,150.482,184.28,148.168,186.908,145.982z M203.502,168.992c12.783-13.229,26.997-24.621,42.249-33.857
			c0.361-0.219,0.727-0.43,1.089-0.646h3.381c-1.796,1.032-3.583,2.092-5.356,3.187c-15.361,9.482-29.631,21.169-42.413,34.736
			c-6.236,6.626-12.154,13.746-17.591,21.164c-2.678,3.658-5.273,7.433-7.714,11.218c-1.258,1.95-2.494,3.929-3.672,5.88
			c-0.604,0.998-1.196,2.004-1.784,3.011l-0.087,0.148c-0.285,0.488-0.457,0.783-0.809,1.266c-0.057,0.077-0.118,0.148-0.177,0.223
			c0.018-0.296,0.029-0.596,0.047-0.893c0.044-0.739,0.098-1.475,0.146-2.213C180.083,196.389,191.081,181.846,203.502,168.992z
			 M171.601,215.688c0.384-0.524,0.576-0.854,0.867-1.354l0.086-0.147c0.586-1.002,1.175-2.003,1.776-2.997
			c1.174-1.943,2.404-3.913,3.656-5.856c2.431-3.768,5.015-7.525,7.681-11.168c5.412-7.385,11.305-14.473,17.513-21.069
			c12.722-13.503,26.923-25.135,42.21-34.57c2.267-1.399,4.553-2.741,6.855-4.038h11.771c-17.789,9.846-34.204,22.506-48.853,37.712
			c-15.546,16.144-28.714,34.788-39.137,55.417c-0.001,0.001-0.002,0.001-0.002,0.002c-0.754,1.487-1.744,2.906-2.862,4.102
			c-0.742,0.795-1.873,1.81-3.218,2.547c0.089-5.793,0.286-11.589,0.589-17.31C170.915,216.554,171.271,216.139,171.601,215.688z
			 M173.893,232.404c1.182-1.264,2.228-2.762,3.024-4.332c0-0.001,0-0.002,0.001-0.002c10.378-20.541,23.488-39.104,38.966-55.177
			c15.013-15.583,31.881-28.488,50.191-38.405h3.633c-16.182,8.37-31.341,19.134-45.245,32.178
			c-2.318,2.174-4.641,4.454-6.902,6.776c-2.325,2.391-4.583,4.817-6.711,7.214c-4.289,4.829-8.431,9.932-12.31,15.165
			c-1.936,2.611-3.825,5.277-5.615,7.925c-1.837,2.721-3.633,5.504-5.337,8.271c-3.403,5.54-6.613,11.289-9.538,17.086
			c-0.903,1.789-2.178,3.489-3.589,4.788c-0.908,0.843-2.646,2.208-4.551,2.53c0.004-0.339,0.012-0.678,0.017-1.016
			C171.612,234.599,173.009,233.35,173.893,232.404z M476.474,240.083c0-0.011,0.001-0.021,0-0.032
			c0.056-2.582,0.095-5.159,0.112-7.668c0-0.001,0-0.001,0-0.001c0.011-1.705,0.009-3.411,0-5.117
			c0.744-0.167,1.401-0.483,1.946-0.964c0,0,0,0,0.001-0.001c0.003-0.003,0.005-0.005,0.007-0.007
			c0.449-0.393,0.894-0.784,1.34-1.182c0.279-0.245,0.528-0.526,0.735-0.839c0.001-0.001,0-0.001,0.001-0.002
			c1.144-1.741,0.802-3.813,0.497-4.892c-1.587-5.632-3.36-11.097-5.272-16.244c-0.25-4.248-0.585-8.446-0.963-12.609h10.498
			c0.379,4.221,0.7,8.49,0.947,12.767c0.701,12.041,0.904,24.644,0.615,37.46c-1.003-0.043-2.004-0.092-3.01-0.128l-7.461-0.265
			C476.47,240.268,476.472,240.176,476.474,240.083z M311.85,1.948c11.077-1.335,22.597-1.259,34.238,0.228
			c12.824,1.636,25.157,4.907,36.654,9.724c5.867,2.463,11.362,5.23,16.8,8.46c2.747,1.633,5.455,3.372,8.049,5.17
			c2.665,1.844,5.284,3.791,7.784,5.789c2.43,1.941,4.814,3.974,7.091,6.04c2.275,2.068,4.565,4.282,6.806,6.581
			c2.238,2.308,4.425,4.699,6.5,7.109c2.073,2.401,4.095,4.892,6.179,7.612c3.729,4.88,7.311,10.118,10.645,15.567
			c3.319,5.435,6.455,11.183,9.318,17.085c2.702,5.575,5.233,11.436,7.524,17.418c2.261,5.901,4.35,12.087,6.209,18.386
			c0.644,2.179,1.257,4.394,1.854,6.621h-0.99c-0.499-1.836-1.009-3.66-1.539-5.456c-1.851-6.264-3.92-12.394-6.15-18.219
			c-2.248-5.881-4.756-11.688-7.454-17.26c-2.848-5.864-5.959-11.565-9.248-16.942c-3.302-5.395-6.859-10.588-10.576-15.436
			c-1.967-2.572-4.03-5.11-6.132-7.544c-2.072-2.404-4.245-4.773-6.459-7.041c-2.168-2.225-4.443-4.42-6.764-6.523
			c-2.294-2.08-4.667-4.096-7.053-5.992c-2.504-1.992-5.108-3.922-7.74-5.734c-2.602-1.795-5.299-3.519-8.017-5.123
			c-5.448-3.22-10.921-5.959-16.73-8.374c-11.415-4.753-23.674-7.975-36.436-9.574c-11.366-1.425-22.628-1.5-33.476-0.218
			c-1.959,0.232-3.926,0.511-5.846,0.826c-2.546,0.418-5.146,0.93-7.728,1.522h-0.001c-0.007,0.002-0.013,0.004-0.019,0.005
			c-0.004,0.001-0.008,0.002-0.012,0.003c-2.434,0.556-4.909,1.202-7.356,1.921c-0.61,0.179-1.22,0.378-1.83,0.567
			c-0.068,0.006-0.13,0.024-0.186,0.057c-1.76,0.549-3.518,1.125-5.245,1.748c-26.55,9.57-50.464,28.456-69.157,54.617
			c-2.121,2.974-4.196,6.067-6.167,9.193c-2.009,3.188-3.952,6.471-5.774,9.759c-1.766,3.181-3.493,6.495-5.136,9.854
			c-1.659,3.395-3.248,6.861-4.722,10.305c-1.449,3.37-2.85,6.844-4.162,10.325c-1.302,3.456-2.566,7.044-3.758,10.663
			c-2.289,6.961-4.367,14.228-6.178,21.598c-1.756,7.137-3.317,14.589-4.639,22.15c-1.278,7.291-2.361,14.829-3.221,22.403
			c-0.743,6.553-1.335,13.328-1.777,20.167c-0.005,0.023-0.004,0.046-0.005,0.069c-0.05,0.771-0.106,1.541-0.152,2.314
			c-0.045,0.777-0.081,1.563-0.123,2.344c-0.002,0.029-0.006,0.057-0.004,0.085c-0.32,6.036-0.525,12.157-0.608,18.27
			c-0.001,0.014-0.008,0.024-0.008,0.038c0,0.012,0.006,0.021,0.007,0.032c-0.009,0.617-0.023,1.235-0.029,1.853
			c-0.056,5.791-0.006,11.681,0.147,17.507c0,0,0,0,0,0.001l0.015,0.567l-1.229,0.163c-0.001,0-0.001,0-0.001,0l-0.629,0.084
			c-0.761-27.988,0.807-54.777,4.672-79.628c1.027-6.644,2.262-13.339,3.668-19.897c1.426-6.631,3.039-13.148,4.795-19.37
			c1.873-6.646,3.96-13.16,6.205-19.362c1.103-3.052,2.306-6.187,3.575-9.314c1.242-3.056,2.55-6.097,3.885-9.037
			c1.434-3.15,2.939-6.273,4.475-9.282c1.563-3.062,3.183-6.055,4.812-8.897c1.636-2.862,3.361-5.718,5.128-8.484
			c1.728-2.701,3.554-5.408,5.426-8.047c8-11.24,16.967-21.213,26.652-29.642C261.563,16.019,285.569,5.117,311.85,1.948z
			 M282.764,6.668c4.127-1.084,8.233-1.941,12.435-2.609c-20.073,5.107-38.641,14.99-55.358,29.538
			c-9.745,8.479-18.765,18.511-26.812,29.816c-1.882,2.651-3.717,5.373-5.453,8.087c-1.775,2.781-3.51,5.65-5.153,8.526
			c-1.637,2.856-3.263,5.864-4.834,8.939c-1.542,3.022-3.054,6.159-4.494,9.323c-1.341,2.953-2.653,6.007-3.9,9.074
			c-1.275,3.141-2.483,6.287-3.59,9.352c-2.253,6.224-4.348,12.762-6.228,19.431c-1.761,6.242-3.38,12.779-4.811,19.432
			c-1.41,6.578-2.647,13.292-3.678,19.954c-3.874,24.915-5.447,51.771-4.684,79.823l-10.539-0.58
			c-0.116-4.126-0.184-8.276-0.198-12.347c-0.006-2.031,0-4.059,0.02-6.089c0.117-12.363,0.728-24.603,1.814-36.377
			c0.556-6.072,1.258-12.157,2.085-18.086c0.854-6.126,1.848-12.17,2.955-17.964c6.697-35.06,18.154-65.469,34.052-90.383
			c9.058-14.194,19.528-26.589,31.121-36.838c3.054-2.701,6.25-5.304,9.499-7.736c3.201-2.392,6.497-4.646,9.796-6.702
			c3.444-2.147,7.025-4.161,10.643-5.986c3.543-1.785,7.185-3.42,10.824-4.856C273.003,9.546,277.878,7.951,282.764,6.668z
			 M264.546,7.861c4.732-0.628,9.421-0.989,14.224-1.117c-3.637,1.074-7.248,2.315-10.778,3.705
			c-2.73,0.086-5.418,0.244-7.986,0.472c-0.007,0.001-0.012,0.005-0.02,0.006c-0.007,0.001-0.014-0.002-0.021-0.001
			c-22.249,3.845-42.79,13.258-61.053,27.978c-16.851,13.58-31.239,31.229-42.768,52.455c-1.363,2.519-2.654,5.019-3.837,7.428
			c-1.221,2.478-2.432,5.062-3.598,7.68c-1.169,2.633-2.295,5.293-3.347,7.909c-1.07,2.669-2.11,5.401-3.092,8.122
			c-1.881,5.217-3.639,10.633-5.224,16.098c-1.56,5.382-3.007,10.988-4.299,16.664c-1.229,5.418-2.345,11.025-3.317,16.666
			c-0.951,5.522-1.792,11.229-2.496,16.96c-1.345,10.969-2.241,22.417-2.665,34.028c-0.127,3.452-0.215,7.062-0.26,10.728
			c-0.027,2.363-0.034,4.725-0.025,7.09c-0.629,0.268-1.241,0.59-1.834,0.965c-0.072-12.496,0.362-24.854,1.307-36.74
			c0.502-6.336,1.159-12.662,1.953-18.8c0.81-6.269,1.785-12.515,2.899-18.564c4.889-26.548,12.649-50.572,23.065-71.406
			c5.752-11.511,12.416-22.219,19.809-31.826c1.965-2.558,4.02-5.084,6.109-7.509c2.034-2.365,4.181-4.719,6.378-6.994
			c4.285-4.438,8.811-8.608,13.449-12.398C217.158,21.087,239.844,11.129,264.546,7.861z M112.176,213.278
			c0.375-6.454,0.915-12.955,1.605-19.322c0.704-6.491,1.573-12.926,2.584-19.126c1.06-6.491,2.303-12.92,3.695-19.105
			c1.43-6.342,3.053-12.598,4.824-18.596c0.931-3.142,1.925-6.293,2.955-9.366c1.05-3.119,2.15-6.199,3.271-9.155
			c1.115-2.946,2.32-5.944,3.579-8.909c1.121-2.627,2.293-5.219,3.48-7.741h0.498c0.176,0.91,0.975,1.599,1.937,1.599
			c1.09,0,1.974-0.884,1.974-1.974s-0.884-1.974-1.974-1.974c-0.962,0-1.761,0.688-1.937,1.599h-0.15
			c0.023-0.047,0.045-0.098,0.067-0.145c2.854-5.986,5.967-11.803,9.251-17.288c1.624-2.716,3.341-5.43,5.102-8.064
			c1.731-2.591,3.548-5.164,5.399-7.647c3.954-5.317,8.192-10.391,12.598-15.079c2.21-2.349,4.468-4.612,6.712-6.729
			c2.232-2.113,4.565-4.191,6.936-6.175c18.646-15.595,39.647-25.564,62.501-29.727c-18.231,4.937-35.193,13.746-50.597,26.33
			c-4.669,3.814-9.224,8.013-13.535,12.478c-2.212,2.29-4.37,4.658-6.417,7.037c-2.102,2.439-4.169,4.979-6.145,7.552
			c-7.431,9.658-14.13,20.421-19.91,31.988c-10.458,20.918-18.249,45.032-23.155,71.672c-1.117,6.067-2.096,12.331-2.907,18.617
			c-0.796,6.155-1.454,12.497-1.957,18.85c-0.966,12.133-1.405,24.753-1.313,37.513c-1.153,0.877-2.231,1.96-3.221,3.255
			c-1.452,1.9-2.66,4.208-3.611,6.845l-2.666-0.146l-0.012-0.379C111.259,238.797,111.439,225.782,112.176,213.278z
			 M107.067,252.877l3.684,0.203c0.001,0.002,0.002,0.004,0.004,0.006c0.017,0.025,0.031,0.052,0.053,0.074
			c0.022,0.023,0.05,0.039,0.076,0.059c0.025,0.018,0.049,0.037,0.077,0.05c0.032,0.015,0.068,0.02,0.104,0.027
			c0.025,0.005,0.047,0.017,0.073,0.019l2.845,0.157c-0.009,0.027-0.018,0.056-0.026,0.083l-8.309-0.466
			C106.118,253.011,106.591,252.939,107.067,252.877z M104.025,253.949c0.078,0.013,0.157,0.029,0.233,0.038
			c0.317,0.039,0.629,0.059,0.944,0.078c0.002,0,0.003,0,0.005,0l8.438,0.474c-1.113,3.861-1.639,8.194-1.551,12.693h-7.253
			L104.025,253.949z M107.078,282.528c-0.002,0-0.003-0.001-0.004-0.001c-0.292-0.021-0.586-0.052-0.881-0.102
			c-0.136-0.021-0.271-0.05-0.388-0.081c-0.012-0.003-0.024-0.009-0.035-0.012l-0.883-14.351h7.227
			c0.006,0.164,0.006,0.325,0.013,0.489c0.226,5.042,1.234,10.101,2.906,14.69l-1.913-0.151L107.078,282.528z M122.569,341.125
			c-1.391-6.269-2.671-12.69-3.805-19.087c-1.134-6.4-2.14-12.872-2.99-19.233c-0.818-6.076-1.537-12.383-2.141-18.751l1.787,0.141
			c1.306,3.324,2.919,6.293,4.81,8.813c1.367,1.822,2.872,3.375,4.45,4.624c0.988,8.22,2.19,16.446,3.576,24.454
			c1.408,8.131,3.06,16.346,4.908,24.417c1.837,8.021,3.921,16.135,6.194,24.116c1.139,3.987,2.339,7.999,3.565,11.923
			c1.202,3.853,2.5,7.833,3.857,11.833c0,0.001,0,0.001,0.001,0.001l2.354,6.945l-9.62-1.633l-2.525-7.391
			c-0.001-0.002-0.001-0.002-0.001-0.003c-0.003-0.008-0.007-0.021-0.012-0.034v-0.001c-0.188-0.556-0.378-1.112-0.57-1.667
			l-0.001-0.001c-0.904-2.682-1.777-5.345-2.596-7.915c0-0.001,0-0.002,0-0.002c-2.405-7.514-4.638-15.134-6.635-22.648
			C125.532,353.859,123.981,347.5,122.569,341.125z M123.754,400.298c-1.511-14.589-0.532-27.492,2.897-38.394
			c0.392,1.449,0.785,2.9,1.192,4.355c-2.909,10.223-3.713,22.144-2.381,35.44c1.104,10.999,3.657,22.688,7.583,34.748
			c-0.226,0.574-0.438,1.161-0.632,1.765C127.921,425.046,124.997,412.295,123.754,400.298z M197.427,544.659
			c-2.757-0.878-5.504-2.033-8.396-3.531c-2.383-1.235-4.735-2.641-7.191-4.296c-2.411-1.629-4.831-3.448-7.192-5.405
			c-4.282-3.548-8.484-7.633-12.492-12.141c-3.824-4.303-7.43-8.94-10.716-13.784c-4.891-7.204-9.045-14.818-12.275-22.406h2.722
			c2.645,6.66,6.112,13.488,10.395,20.199c14.805,23.201,35.196,38.79,50.743,38.79c3.774,0,7.127-0.938,9.964-2.785
			c14.696-9.568,11.381-41.287-7.392-70.705c-14.806-23.201-35.199-38.788-50.747-38.788c-3.773,0-7.125,0.937-9.962,2.783
			c-11.218,7.304-11.929,27.516-3.294,49.756h-2.756c-1.125-2.692-2.134-5.38-3.01-8.043c-1.952-5.939-3.242-11.67-3.834-17.03
			c-0.361-3.268-0.462-6.271-0.307-9.184c0.155-2.947,0.559-5.598,1.233-8.104c0.683-2.527,1.631-4.822,2.818-6.821
			c0.635-1.068,1.335-2.046,2.14-2.985c0.335-0.392,0.689-0.764,1.042-1.136l1.508-1.588c0.001-0.001,0.001-0.001,0.001-0.001
			c0.406-0.427,0.81-0.853,1.214-1.281c0.064,0.029,0.132,0.048,0.202,0.048c0.134,0,0.269-0.054,0.367-0.16
			c0.056-0.061,5.718-6.065,14.075-6.512c0.204-0.011,0.371-0.143,0.439-0.322c0.054-0.012,0.11-0.016,0.159-0.046l6.327-4.015
			c0.207-0.131,0.288-0.393,0.192-0.618l-2.927-6.854c4.612-2.539,10.202-3.295,16.649-2.205c1.456,0.245,2.93,0.584,4.467,1.02
			l-2.672,1.79c-0.012,0.008-0.017,0.02-0.027,0.027c-0.01,0.008-0.022,0.01-0.031,0.018c-0.014,0.013-0.019,0.031-0.031,0.046
			c-0.029,0.033-0.054,0.066-0.072,0.105c-0.012,0.023-0.021,0.047-0.03,0.072c-0.013,0.043-0.019,0.086-0.021,0.132
			c0,0.018-0.009,0.034-0.008,0.053l1.079,14.176c-0.051,0.039-0.096,0.088-0.13,0.146c-0.139,0.239-0.057,0.545,0.183,0.683
			c11.356,6.564,22.375,16.85,31.866,29.745c0.08,0.109,0.2,0.181,0.334,0.199c0.023,0.003,0.046,0.005,0.068,0.005
			c0.111,0,0.22-0.037,0.308-0.106l6.672-5.219c0.009-0.007,0.013-0.017,0.021-0.024c0.027-0.024,0.049-0.052,0.07-0.081
			c0.018-0.024,0.035-0.047,0.048-0.073c0.015-0.03,0.022-0.062,0.03-0.094c0.008-0.03,0.016-0.059,0.018-0.09
			s-0.002-0.063-0.007-0.095c-0.004-0.032-0.009-0.064-0.02-0.097c-0.004-0.012-0.002-0.023-0.007-0.034l-15.752-37.235
			c0.019-0.023,0.047-0.037,0.062-0.064c0.129-0.245,0.034-0.547-0.21-0.675l-0.209-0.104l-1.343-3.17
			c-0.007-0.016-0.019-0.025-0.026-0.039c-0.009-0.016-0.01-0.031-0.02-0.046c-0.001-0.002-0.004-0.003-0.005-0.005
			c-0.01-0.014-0.024-0.023-0.035-0.036c-0.021-0.024-0.043-0.046-0.068-0.065c-0.013-0.011-0.023-0.025-0.037-0.035
			c-0.005-0.002-0.011-0.003-0.016-0.006c-0.009-0.005-0.019-0.007-0.027-0.012c-0.027-0.014-0.054-0.024-0.083-0.033
			c-0.02-0.006-0.037-0.016-0.057-0.02c-0.002,0-0.003-0.001-0.004-0.001l-4.376-0.731l-1.5-4.563
			c-0.302-1.008-0.581-2.013-0.859-3.015c13.272,6.04,24.519,16.095,31.691,23.581c1.19,1.241,2.359,2.519,3.517,3.815
			c0.159,0.178,0.318,0.351,0.477,0.529c1.048,1.186,2.076,2.398,3.094,3.624c0.271,0.328,0.547,0.657,0.813,0.982
			c0.937,1.148,1.856,2.316,2.766,3.497c0.308,0.4,0.614,0.802,0.919,1.206c0.876,1.162,1.738,2.339,2.585,3.529
			c0.299,0.421,0.595,0.844,0.89,1.267c0.841,1.207,1.667,2.423,2.474,3.65c0.261,0.397,0.516,0.799,0.773,1.199
			c0.814,1.266,1.617,2.539,2.393,3.824c0.215,0.355,0.422,0.713,0.633,1.068c0.742,1.251,1.469,2.508,2.174,3.772
			c0.168,0.302,0.335,0.604,0.501,0.905c0.759,1.387,1.494,2.781,2.206,4.181c0.621,1.22,1.229,2.44,1.806,3.657
			c0,0,0.001,0,0.001,0.001c3.861,8.138,6.795,16.239,8.722,24.079c2.279,9.286,3.063,17.827,2.33,25.386
			c-0.441,4.583-1.452,8.729-3.003,12.319c-1.793,4.146-4.293,7.517-7.431,10.016c-3.206,2.554-7.042,4.172-11.4,4.809
			c-3.397,0.496-7.087,0.392-10.989-0.307l7.419-3.388c0.001-0.001,0.001-0.001,0.002-0.002c4.453-2.031,7.943-5.457,10.376-10.184
			c1.904-3.696,3.095-8.111,3.565-13.122c0.005-0.027,0.016-0.053,0.016-0.08c0-0.01-0.005-0.018-0.006-0.027
			c0.03-0.324,0.066-0.644,0.09-0.973c0.759-10.669-1.874-21.577-4.217-28.85c-0.929-2.877-2.005-5.807-3.199-8.708
			c-1.159-2.813-2.449-5.651-3.833-8.437c-2.716-5.46-5.85-10.844-9.313-16.001c-7.088-10.567-15.527-20.12-24.406-27.626
			c-0.212-0.177-0.526-0.15-0.705,0.059c-0.179,0.211-0.151,0.526,0.059,0.705c8.81,7.446,17.186,16.928,24.223,27.419
			c3.439,5.122,6.552,10.468,9.248,15.89c1.374,2.764,2.653,5.581,3.805,8.372c1.184,2.877,2.251,5.782,3.172,8.634
			c2.315,7.188,4.918,17.963,4.17,28.472c-0.381,5.327-1.577,9.976-3.556,13.815c-2.328,4.523-5.66,7.797-9.903,9.732
			c-0.001,0.001-0.001,0.001-0.002,0.001l-17.461,7.974l-2.617,1.196c-0.001,0-0.001,0.001-0.002,0.001l-1.784,0.815
			c-0.53,0.244-1.06,0.487-1.598,0.704c-1.116,0.442-2.26,0.78-3.496,1.034c-2.258,0.458-4.709,0.573-7.291,0.352
			C202.847,546.085,200.177,545.531,197.427,544.659z M175.028,483.096c0.176,0.91,0.975,1.599,1.936,1.599
			c1.09,0,1.974-0.884,1.974-1.974s-0.884-1.974-1.974-1.974c-0.961,0-1.76,0.688-1.936,1.599h-32.379
			c-8.639-21.929-8.117-41.821,2.782-48.918c2.672-1.739,5.841-2.621,9.417-2.621c15.221,0,35.275,15.401,49.903,38.325
			c18.479,28.959,21.929,60.06,7.69,69.33c-2.673,1.74-5.842,2.623-9.419,2.623c-15.219,0-35.271-15.403-49.899-38.327
			c-4.172-6.537-7.569-13.182-10.179-19.662H175.028z M304.978,572.398c-0.021,0.014-0.041,0.027-0.06,0.043
			c-6.521,4.558-14.298,7.105-23.171,7.582c-8.532,0.454-17.858-1.024-27.726-4.404c-15.247-5.22-31.549-14.975-47.227-28.227
			c0.356,0.013,0.712,0.023,1.063,0.023c0.276,0,0.549-0.012,0.821-0.02c15.259,12.52,31.098,21.611,45.814,26.297
			c7.838,2.494,15.311,3.752,22.274,3.752c1.353,0,2.688-0.048,4.001-0.143c9.607-0.699,17.895-3.893,24.631-9.49
			c5.941-4.937,10.523-11.628,13.619-19.89c2.611-6.971,4.127-14.987,4.506-23.829c0.618-14.46-1.743-30.549-7.019-47.822
			c-4.881-15.96-12.004-32.083-21.172-47.922c-8.812-15.22-19.125-29.495-30.652-42.429c-12.383-13.887-25.53-25.521-39.078-34.579
			c-7.692-5.141-15.392-9.348-22.882-12.503c-4.543-1.913-8.87-3.399-13.229-4.543c-3.989-1.046-7.771-1.734-11.553-2.118
			c-0.173-0.955-0.341-1.91-0.508-2.865c3.735,0.42,7.486,1.129,11.445,2.188c4.435,1.185,8.837,2.716,13.457,4.68
			c7.653,3.253,15.518,7.578,23.373,12.854c13.871,9.319,27.321,21.259,39.979,35.487c11.818,13.283,22.378,27.926,31.388,43.522
			c9.401,16.267,16.696,32.81,21.684,49.169c5.386,17.661,7.795,34.103,7.159,48.869c-0.39,8.995-1.93,17.14-4.576,24.207
			c-3.112,8.327-7.716,15.075-13.682,20.057C306.792,571.069,305.897,571.754,304.978,572.398z M357.264,563.363
			c-13.886,9.199-31.419,12.344-50.757,9.155c0.607-0.453,1.209-0.918,1.794-1.406c6.102-5.094,10.804-11.982,13.978-20.474
			c2.684-7.166,4.244-15.414,4.64-24.515c0.64-14.88-1.783-31.435-7.202-49.203c-5.01-16.433-12.336-33.046-21.775-49.378
			c-9.043-15.655-19.643-30.354-31.505-43.687c-12.714-14.292-26.229-26.287-40.169-35.653c-7.908-5.311-15.828-9.666-23.54-12.943
			c-4.663-1.983-9.108-3.529-13.59-4.727c-4.11-1.099-8.003-1.831-11.885-2.25c-0.256-1.486-0.498-2.969-0.739-4.452
			c1.877-0.077,3.811-0.073,5.773,0.032c2.088,0.111,4.278,0.338,6.511,0.672c4.665,0.706,9.335,1.849,14.274,3.495
			c8.124,2.707,16.538,6.68,25.01,11.806c14.497,8.772,29.245,21.051,42.651,35.506c12.495,13.467,23.679,28.515,33.24,44.728
			c9.923,16.819,17.562,33.971,22.705,50.979c5.338,17.631,7.686,34.062,6.977,48.838c-0.43,8.957-2.011,17.085-4.7,24.158
			c-3.155,8.297-7.778,15.024-13.741,19.996c-0.212,0.177-0.24,0.492-0.063,0.704c0.099,0.118,0.241,0.18,0.384,0.18
			c0.113,0,0.227-0.038,0.32-0.116c0.649-0.542,1.276-1.114,1.895-1.696c5.457-2.517,10.318-6.039,14.447-10.469
			c1.991-2.132,3.764-4.405,5.417-6.949c1.284-1.978,2.432-4.027,3.487-6.214c0.015-0.027,0.027-0.052,0.037-0.08
			c0.285-0.595,0.567-1.193,0.84-1.81c4.386-9.921,6.548-21.758,6.425-35.181c-0.067-7.383-0.851-15.154-2.305-23.204h42.686
			c0.518,7.2,0.545,14.182,0.076,20.872c-0.14,0.019-0.27,0.084-0.352,0.201c-0.059,0.085-0.089,0.187-0.089,0.288
			c-0.004,0.02-0.021,0.14-0.023,0.154l-0.033,0.196c-0.011,0.06-0.022,0.124-0.036,0.178c-0.001,0.003-0.028,0.118-0.029,0.122
			c-0.011,0.027-0.021,0.058-0.026,0.088c-0.031,0.112-0.023,0.234,0.025,0.343c0.079,0.17,0.243,0.266,0.417,0.28
			C386.438,528.879,376.019,550.938,357.264,563.363z M364.921,559.187c-0.187,0-0.374-0.004-0.561-0.005
			c1.191-1.047,2.346-2.136,3.454-3.271c41.906-4.555,81.259-33.748,105.493-76.704h9.014
			C456.183,527.409,410.531,559.191,364.921,559.187z M492.206,457.763c-2.762,7.178-5.942,14.086-9.484,20.693h-9.003
			c4.241-7.599,8.021-15.613,11.248-24.004c6.108-15.88,9.843-31.979,11.394-47.737h7.543
			C502.559,423.761,498.65,441.011,492.206,457.763z M498.151,349.313c5.35,17.896,7.267,37.133,5.813,56.652h-7.533
			c2.195-23.329-0.408-45.885-7.246-65.84h5.869C496.18,343.111,497.214,346.176,498.151,349.313z M494.762,339.375h-5.84
			c-2.083-5.965-4.544-11.693-7.372-17.136c0.223-0.152,0.288-0.452,0.142-0.681c-0.522-0.815-0.979-1.57-1.396-2.314
			c-0.223-0.388-0.434-0.783-0.643-1.177c-0.102-0.197-0.204-0.398-0.308-0.613c-0.07-0.136-0.137-0.275-0.206-0.432l-0.073-0.165
			c-0.024-0.048-0.056-0.092-0.094-0.13l-0.299,0.285c-8.409-14.418-19.528-26.558-33.036-35.403
			c9.302,4.903,17.719,11.315,25.094,19.049c0.012,0.018,0.02,0.037,0.033,0.055c0.001,0.001,0.001,0.002,0.002,0.004l9.8,11.938
			l0.006,0.009c0,0,0.001,0.001,0.001,0.002l1.517,2.193c0.001,0,0.001,0.001,0.001,0.001c0.024,0.034,0.057,0.061,0.088,0.088
			C487.138,322.335,491.358,330.511,494.762,339.375z M484.925,294.025c-0.786,6.396-1.707,12.84-2.722,19.188
			c-0.231-0.337-0.459-0.679-0.694-1.013c1.021-6.425,1.932-12.921,2.704-19.316c1.046-8.623,1.89-17.465,2.514-26.29l0.834,0.041
			C486.911,275.829,486.026,285.041,484.925,294.025z M494.79,242.167c0.097,0.007,0.188,0.013,0.29,0.021l0.288,0.023
			l-1.119,23.736l-0.279-0.017c-0.099-0.007-0.199-0.01-0.298-0.016L494.79,242.167z M489.241,241.851
			c0.004,0,0.008,0.001,0.012,0.001c0,0,0,0,0.001,0c0.002,0,0.003,0,0.005,0c1.512,0.074,3.022,0.156,4.534,0.252l-1.12,23.779
			l-4.537-0.219c-0.001,0-0.001-0.001-0.002-0.001s-0.002,0.001-0.002,0h-0.007l-5.357-0.264l-2.79-0.142
			c-0.055-0.023-0.112-0.041-0.175-0.044l-3.93-0.185c-0.034-0.002-0.065,0.01-0.099,0.015l-0.405-0.021
			c-0.081-0.027-0.166-0.028-0.249-0.013l-0.245-0.013c-0.027-0.006-0.051-0.019-0.079-0.02l-4.147-0.195h-0.015
			c-0.001,0-0.002,0-0.003,0l-0.007-0.001h-0.002c-0.074-0.013-0.145,0.001-0.211,0.026c-0.132,0.047-0.224,0.146-0.272,0.272
			c-1.657,3.275-3.914,6.023-6.527,7.946c-2.94,2.16-6.252,3.247-9.57,3.113c-4.094-0.151-8.032-2.154-11.089-5.639
			c-1.727-1.967-3.125-4.332-4.156-7.03c-0.008-0.021-0.023-0.034-0.034-0.054c-0.021-0.037-0.038-0.076-0.067-0.107
			c-0.022-0.023-0.051-0.039-0.078-0.058c-0.025-0.019-0.049-0.041-0.078-0.055c-0.036-0.017-0.076-0.022-0.116-0.03
			c-0.023-0.004-0.044-0.016-0.067-0.017l-7.93-0.403c0,0-0.001-0.001-0.002-0.001s-0.002,0.001-0.002,0.001l-0.008-0.001
			l-3.548-0.181h-0.001c-0.002,0-0.003-0.001-0.004-0.001l-1.234-0.062c-0.198-0.007-0.403-0.02-0.609-0.032l-0.119-0.007
			l1.085-22.864l1.974,0.048c0.001,0,0.001,0,0.001,0l3.547,0.125l7.949,0.281c0.006,0,0.012,0,0.018,0
			c0.086,0,0.163-0.027,0.233-0.065c0.019-0.01,0.033-0.021,0.05-0.032c0.063-0.045,0.117-0.101,0.154-0.17
			c0.003-0.005,0.009-0.007,0.011-0.012c1.275-2.591,2.89-4.826,4.798-6.644c0.001-0.001,0.001-0.002,0.002-0.003
			s0.003-0.002,0.004-0.003s0.001-0.001,0.002-0.002c0.996-0.943,2.021-1.732,3.137-2.412c2.761-1.68,5.816-2.451,8.798-2.227
			c3.238,0.241,6.352,1.629,9.001,4.01c2.363,2.13,4.311,5.025,5.634,8.375c0,0.001,0.001,0.002,0.002,0.003
			c0,0.002,0,0.003,0.001,0.004c0.001,0.002,0.003,0.002,0.003,0.004c0.033,0.082,0.093,0.148,0.163,0.202
			c0.016,0.013,0.028,0.023,0.046,0.033c0.07,0.042,0.147,0.074,0.235,0.077l12.149,0.431
			C485.679,241.688,487.46,241.763,489.241,241.851z M488.772,240.83c-0.277-0.013-0.557-0.022-0.834-0.035
			c0.29-12.851,0.086-25.486-0.617-37.561c-0.246-4.257-0.564-8.508-0.941-12.709h0.861c0.361,4.088,0.671,8.213,0.911,12.338
			C488.862,215.065,489.067,227.838,488.772,240.83z"/>
		<polygon  points="579.262,130.475 576.279,135.643 579.262,135.643 		"/>
		<path  d="M578.635,477.264c0.285,0,0.627-0.076,0.932-0.381c0.284-0.284,0.437-0.645,0.437-0.969
			c0-0.342-0.152-0.74-0.437-1.006c-0.267-0.248-0.552-0.381-0.912-0.381c-0.475,0-0.817,0.19-1.045,0.438
			c-0.247,0.266-0.38,0.627-0.38,0.969c0,0.323,0.171,0.665,0.398,0.912C577.913,477.149,578.293,477.264,578.635,477.264z"/>
		<path  d="M578.616,482.943c0.456,0,0.779-0.152,1.063-0.437c0.305-0.304,0.456-0.646,0.456-1.083
			c0-0.418-0.151-0.76-0.456-1.045c-0.342-0.322-0.74-0.438-1.063-0.438c-0.361,0-0.76,0.152-1.063,0.438
			c-0.305,0.305-0.456,0.684-0.456,1.045c0,0.342,0.113,0.74,0.437,1.064C577.799,482.754,578.18,482.943,578.616,482.943z"/>
	</g>
</g>
</svg>
