<svg height="512pt" viewBox="0 -66 512 512" width="512pt" xmlns="http://www.w3.org/2000/svg"><path d="m138.664062 230.164062c26.601563 0 48.070313-11.78125 48.070313-42.941406v-3.609375c0-15.390625-8.167969-23.75-19.378906-27.929687 9.5-4.371094 14.628906-17.292969 14.628906-31.160156 0-25.652344-18.238281-34.390626-42.371094-34.390626-32.679687 0-43.316406 19.1875-43.316406 34.007813 0 9.121094 1.707031 11.972656 15.386719 11.972656 11.019531 0 13.871094-4.371093 13.871094-10.832031 0-7.410156 4.75-9.6875 14.058593-9.6875 7.792969 0 14.0625 2.660156 14.0625 13.679688 0 15.390624-7.601562 16.339843-14.820312 16.339843-6.460938 0-8.550781 5.699219-8.550781 11.402344 0 5.699219 2.089843 11.398437 8.550781 11.398437 10.449219 0 18.242187 2.46875 18.242187 15.199219v3.609375c0 12.351563-4.5625 17.101563-17.480468 17.101563-8.550782 0-16.910157-2.089844-16.910157-11.019531 0-7.222657-3.042969-9.882813-15.199219-9.882813-10.453124 0-14.0625 2.28125-14.0625 10.832031 0 15.960938 12.539063 35.910156 45.21875 35.910156zm0 0"/><path d="m256.273438 115.972656c8.929687 0 16.53125 3.800782 16.53125 11.019532 0 8.738281 7.21875 10.828124 15.390624 10.828124 9.5 0 13.871094-2.847656 13.871094-11.96875 0-15.769531-12.730468-35.71875-44.839844-35.71875-27.363281 0-48.453124 12.160157-48.453124 44.839844v50.351563c0 32.679687 20.519531 44.839843 46.742187 44.839843 26.21875 0 46.550781-12.160156 46.550781-44.839843v-1.710938c0-30.398437-18.242187-39.898437-39.902344-39.898437-9.117187 0-17.667968 1.707031-23.75 8.355468v-17.097656c0-13.113281 6.652344-19 17.859376-19zm-.949219 50.539063c10.832031 0 17.101562 5.320312 17.101562 19.191406v1.710937c0 13.109376-6.269531 18.808594-16.910156 18.808594s-17.101563-5.699218-17.101563-18.808594v-3.421874c0-12.539063 6.652344-17.480469 16.910157-17.480469zm0 0"/><path d="m371.796875 169.933594c5.886719 0 9.5-3.992188 9.5-9.691406 0-5.890626-3.613281-9.5-9.5-9.5-6.082031 0-9.691406 3.609374-9.691406 9.5 0 5.699218 3.609375 9.691406 9.691406 9.691406zm0 0"/><path d="m371.605469 230.164062c26.21875 0 46.738281-12.160156 46.738281-44.84375v-50.347656c0-32.683594-20.519531-44.839844-46.738281-44.839844-26.222657 0-46.550781 12.15625-46.550781 44.839844v50.347656c0 32.683594 20.328124 44.84375 46.550781 44.84375zm-16.910157-95.191406c0-13.109375 6.269532-19 16.910157-19s17.097656 5.890625 17.097656 19v50.351563c0 13.109375-6.457031 19-17.097656 19s-16.910157-5.890625-16.910157-19zm0 0"/><path d="m454.351562 90c24.8125 0 45-20.1875 45-45s-20.1875-45-45-45c-24.816406 0-45 20.1875-45 45s20.183594 45 45 45zm0-60c8.269532 0 15 6.730469 15 15s-6.730468 15-15 15c-8.273437 0-15-6.730469-15-15s6.726563-15 15-15zm0 0"/><path d="m466.847656 146.503906c-6.824218-4.691406-16.164062-2.96875-20.859375 3.859375-4.695312 6.824219-2.96875 16.164063 3.855469 20.859375 14.667969 10.089844 32.15625 26.269532 32.15625 46.039063 0 17.9375-14.941406 36.519531-42.078125 52.332031-29.671875 17.285156-72.117187 30.132812-119.515625 36.167969-8.21875 1.046875-14.03125 8.558593-12.984375 16.777343.964844 7.574219 7.421875 13.105469 14.859375 13.105469.632812 0 1.273438-.039062 1.917969-.121093 52.039062-6.628907 97.277343-20.464844 130.824219-40.011719 37.273437-21.714844 56.976562-48.773438 56.976562-78.25 0-25.96875-15.613281-50.4375-45.152344-70.757813zm0 0"/><path d="m226.605469 274.15625c-5.855469-5.859375-15.355469-5.859375-21.210938 0-5.859375 5.855469-5.859375 15.355469 0 21.210938l13.0625 13.066406c-47.960937-3.417969-92.023437-13.363282-126.761719-28.855469-39.207031-17.492187-61.695312-40.203125-61.695312-62.316406 0-17.652344 14.554688-36 40.980469-51.664063 7.128906-4.226562 9.480469-13.425781 5.257812-20.550781-4.226562-7.128906-13.425781-9.480469-20.554687-5.257813-46.023438 27.28125-55.683594 57.1875-55.683594 77.472657 0 34.992187 28.226562 66.851562 79.476562 89.714843 38.949219 17.371094 88.226563 28.324219 141.414063 31.679688l-15.496094 15.5c-5.859375 5.855469-5.859375 15.355469 0 21.210938 2.929688 2.929687 6.765625 4.394531 10.605469 4.394531s7.679688-1.464844 10.605469-4.394531l40-40c5.859375-5.855469 5.859375-15.351563 0-21.210938zm0 0"/></svg>