<?xml version="1.0" encoding="utf-8"?>
<!-- Generator: Adobe Illustrator 16.0.0, SVG Export Plug-In . SVG Version: 6.00 Build 0)  -->
<!DOCTYPE svg PUBLIC "-//W3C//DTD SVG 1.1//EN" "http://www.w3.org/Graphics/SVG/1.1/DTD/svg11.dtd">
<svg version="1.1" id="Layer_1" xmlns="http://www.w3.org/2000/svg" xmlns:xlink="http://www.w3.org/1999/xlink" x="0px" y="0px"
	 width="58.744px" height="43.571px" viewBox="226.629 168.095 58.744 43.571"
	 enable-background="new 226.629 168.095 58.744 43.571" xml:space="preserve">
<path d="M242.538,194.503c3.052,0,5.516-1.352,5.516-4.927v-0.415c0-1.766-0.938-2.725-2.224-3.205
	c1.09-0.501,1.678-1.984,1.678-3.575c0-2.943-2.092-3.945-4.861-3.945c-3.75,0-4.97,2.202-4.97,3.902
	c0,1.046,0.196,1.374,1.765,1.374c1.264,0,1.592-0.501,1.592-1.243c0-0.85,0.545-1.111,1.613-1.111c0.894,0,1.613,0.306,1.613,1.57
	c0,1.766-0.872,1.875-1.7,1.875c-0.741,0-0.981,0.654-0.981,1.308c0,0.654,0.24,1.308,0.981,1.308c1.199,0,2.093,0.283,2.093,1.744
	v0.415c0,1.417-0.523,1.962-2.005,1.962c-0.981,0-1.94-0.24-1.94-1.264c0-0.829-0.349-1.134-1.744-1.134
	c-1.199,0-1.613,0.262-1.613,1.243C237.35,192.214,238.788,194.503,242.538,194.503z"/>
<path d="M256.031,181.401c1.024,0,1.896,0.436,1.896,1.264c0,1.002,0.828,1.242,1.766,1.242c1.09,0,1.592-0.327,1.592-1.373
	c0-1.81-1.46-4.098-5.145-4.098c-3.14,0-5.559,1.395-5.559,5.145v5.777c0,3.75,2.354,5.145,5.363,5.145
	c3.008,0,5.341-1.396,5.341-5.145v-0.196c0-3.487-2.093-4.577-4.578-4.577c-1.046,0-2.027,0.195-2.725,0.958v-1.962
	C253.983,182.076,254.746,181.401,256.031,181.401z M255.923,187.199c1.243,0,1.962,0.61,1.962,2.202v0.196
	c0,1.504-0.72,2.158-1.94,2.158c-1.221,0-1.962-0.654-1.962-2.158v-0.393C253.983,187.766,254.746,187.199,255.923,187.199z"/>
<path d="M269.286,187.592c0.676,0,1.09-0.458,1.09-1.112c0-0.676-0.414-1.09-1.09-1.09c-0.698,0-1.112,0.414-1.112,1.09
	C268.174,187.134,268.588,187.592,269.286,187.592z"/>
<path d="M269.264,194.503c3.008,0,5.362-1.396,5.362-5.145v-5.777c0-3.75-2.354-5.145-5.362-5.145c-3.009,0-5.341,1.395-5.341,5.145
	v5.777C263.923,193.107,266.255,194.503,269.264,194.503z M267.323,183.581c0-1.504,0.72-2.18,1.94-2.18s1.962,0.675,1.962,2.18
	v5.777c0,1.504-0.741,2.18-1.962,2.18s-1.94-0.676-1.94-2.18V183.581z"/>
<path d="M278.758,178.421c2.847,0,5.163-2.316,5.163-5.163c0-2.847-2.316-5.163-5.163-5.163c-2.848,0-5.163,2.316-5.163,5.163
	C273.595,176.105,275.91,178.421,278.758,178.421z M278.758,171.537c0.948,0,1.721,0.772,1.721,1.721s-0.772,1.721-1.721,1.721
	c-0.95,0-1.722-0.772-1.722-1.721S277.808,171.537,278.758,171.537z"/>
<path d="M280.192,184.904c-0.783-0.539-1.854-0.341-2.394,0.442s-0.34,1.854,0.442,2.394c1.684,1.158,3.689,3.014,3.689,5.282
	c0,2.058-1.714,4.19-4.827,6.004c-3.404,1.983-8.274,3.458-13.714,4.15c-0.942,0.12-1.609,0.982-1.488,1.925
	c0.11,0.869,0.851,1.504,1.704,1.504c0.072,0,0.146-0.005,0.221-0.014c5.97-0.76,11.16-2.348,15.01-4.591
	c4.276-2.491,6.537-5.596,6.537-8.978C285.372,190.042,283.58,187.235,280.192,184.904z"/>
<path d="M252.628,199.55c-0.672-0.672-1.762-0.672-2.434,0c-0.672,0.671-0.672,1.762,0,2.433l1.499,1.5
	c-5.502-0.392-10.558-1.533-14.544-3.311c-4.498-2.007-7.078-4.613-7.078-7.15c0-2.025,1.67-4.13,4.702-5.928
	c0.818-0.485,1.088-1.541,0.604-2.358c-0.485-0.818-1.541-1.087-2.358-0.604c-5.28,3.13-6.389,6.562-6.389,8.889
	c0,4.015,3.238,7.67,9.119,10.293c4.469,1.993,10.122,3.25,16.225,3.634l-1.778,1.779c-0.672,0.671-0.672,1.761,0,2.433
	c0.336,0.336,0.776,0.504,1.217,0.504s0.881-0.168,1.217-0.504l4.589-4.589c0.672-0.671,0.672-1.761,0-2.433L252.628,199.55z"/>
</svg>