<?xml version="1.0" encoding="utf-8"?>
<!-- Generator: Adobe Illustrator 16.0.0, SVG Export Plug-In . SVG Version: 6.00 Build 0)  -->
<!DOCTYPE svg PUBLIC "-//W3C//DTD SVG 1.1//EN" "http://www.w3.org/Graphics/SVG/1.1/DTD/svg11.dtd">
<svg version="1.1" id="Layer_1" xmlns="http://www.w3.org/2000/svg" xmlns:xlink="http://www.w3.org/1999/xlink" x="0px" y="0px"
	 width="83.129px" height="61.659px" viewBox="214.436 108.051 83.129 61.659"
	 enable-background="new 214.436 108.051 83.129 61.659" xml:space="preserve"
	 fill="white">
<path d="M236.949,145.421c4.319,0,7.805-1.913,7.805-6.972v-0.586c0-2.499-1.326-3.856-3.146-4.535
	c1.542-0.71,2.375-2.808,2.375-5.06c0-4.165-2.961-5.583-6.879-5.583c-5.306,0-7.033,3.115-7.033,5.521
	c0,1.481,0.277,1.944,2.499,1.944c1.789,0,2.252-0.71,2.252-1.759c0-1.203,0.771-1.573,2.283-1.573c1.265,0,2.283,0.432,2.283,2.221
	c0,2.499-1.234,2.653-2.406,2.653c-1.049,0-1.389,0.925-1.389,1.851c0,0.925,0.339,1.851,1.389,1.851
	c1.696,0,2.961,0.401,2.961,2.468v0.586c0,2.005-0.741,2.777-2.838,2.777c-1.388,0-2.746-0.339-2.746-1.789
	c0-1.173-0.494-1.604-2.468-1.604c-1.697,0-2.283,0.37-2.283,1.758C229.608,142.182,231.643,145.421,236.949,145.421z"/>
<path d="M256.045,126.881c1.45,0,2.684,0.617,2.684,1.789c0,1.419,1.172,1.758,2.498,1.758c1.543,0,2.253-0.462,2.253-1.943
	c0-2.561-2.067-5.799-7.28-5.799c-4.443,0-7.867,1.975-7.867,7.28v8.175c0,5.306,3.332,7.28,7.589,7.28
	c4.257,0,7.558-1.975,7.558-7.28v-0.278c0-4.936-2.962-6.478-6.479-6.478c-1.48,0-2.869,0.277-3.856,1.356v-2.776
	C253.145,127.837,254.225,126.881,256.045,126.881z M255.891,135.087c1.758,0,2.776,0.863,2.776,3.116v0.278
	c0,2.128-1.019,3.054-2.746,3.054c-1.728,0-2.776-0.926-2.776-3.054v-0.556C253.145,135.889,254.225,135.087,255.891,135.087z"/>
<path d="M274.801,135.642c0.956,0,1.543-0.648,1.543-1.574c0-0.956-0.587-1.542-1.543-1.542c-0.987,0-1.573,0.586-1.573,1.542
	C273.228,134.994,273.814,135.642,274.801,135.642z"/>
<path d="M274.77,145.421c4.258,0,7.589-1.975,7.589-7.281v-8.174c0-5.307-3.331-7.28-7.589-7.28s-7.558,1.974-7.558,7.28v8.174
	C267.212,143.447,270.512,145.421,274.77,145.421z M272.025,129.966c0-2.128,1.019-3.085,2.745-3.085
	c1.728,0,2.776,0.957,2.776,3.085v8.175c0,2.128-1.049,3.085-2.776,3.085c-1.727,0-2.745-0.957-2.745-3.085V129.966z"/>
<path d="M288.204,122.664c4.029,0,7.307-3.278,7.307-7.307c0-4.028-3.277-7.306-7.307-7.306s-7.306,3.278-7.306,7.306
	C280.899,119.386,284.175,122.664,288.204,122.664z M288.204,112.922c1.344,m0,2.436,1.093,2.436,2.435
	c0,1.343-1.092,2.436-2.436,2.436c-1.343,0-2.436-1.092-2.436-2.436C285.769,114.015,286.862,112.922,288.204,112.922z"/>
<path d="M290.234,131.838c-1.108-0.762-2.624-0.482-3.387,0.627c-0.763,1.108-0.482,2.624,0.626,3.387
	c2.381,1.638,5.221,4.265,5.221,7.475c0,2.912-2.425,5.929-6.831,8.497c-4.818,2.806-11.709,4.893-19.405,5.873
	c-1.334,0.169-2.278,1.389-2.107,2.724c0.156,1.23,1.204,2.128,2.411,2.128c0.104,0,0.208-0.006,0.312-0.02
	c8.449-1.076,15.795-3.322,21.241-6.496c6.052-3.526,9.251-7.919,9.251-12.705C297.565,139.11,295.03,135.137,290.234,131.838z"/>
<path d="M251.228,152.564c-0.951-0.952-2.493-0.952-3.444,0c-0.951,0.951-0.951,2.493,0,3.444l2.121,2.121
	c-7.788-0.555-14.941-2.169-20.582-4.685c-6.366-2.84-10.017-6.527-10.017-10.118c0-2.866,2.363-5.845,6.653-8.388
	c1.158-0.687,1.54-2.18,0.854-3.337s-2.179-1.539-3.337-0.854c-7.473,4.429-9.041,9.285-9.041,12.579
	c0,5.681,4.583,10.854,12.904,14.566c6.324,2.82,14.325,4.599,22.96,5.144l-2.516,2.517c-0.951,0.951-0.951,2.493,0,3.444
	c0.476,0.476,1.099,0.714,1.722,0.714c0.624,0,1.247-0.238,1.722-0.714l6.494-6.495c0.952-0.951,0.952-2.492,0-3.443
	L251.228,152.564z"/>
</svg>
