<?xml version="1.0" encoding="utf-8"?>
<!-- Generator: Adobe Illustrator 16.0.0, SVG Export Plug-In . SVG Version: 6.00 Build 0)  -->
<!DOCTYPE svg PUBLIC "-//W3C//DTD SVG 1.1//EN" "http://www.w3.org/Graphics/SVG/1.1/DTD/svg11.dtd">
<svg version="1.1" id="Layer_1" xmlns="http://www.w3.org/2000/svg" xmlns:xlink="http://www.w3.org/1999/xlink" x="0px" y="0px"
	 width="300px" height="300px" viewBox="0 0 300 300" enable-background="new 0 0 300 300" xml:space="preserve"
	  class="customlogo">
<path  fill="#212121" d="M145.86,195.703c-0.083,25.396-0.184,50.104-0.267,73.689c-20.301-19.709-40.193-40.094-61.313-59.1
	c-11.418-10.291-15.005-21.441-14.619-36.541c1.123-43.732,0.659-87.512,0.807-131.268c0.023-3.592,0.036-7.179,0.054-11.875
	c12.879,0.042,24.921-0.053,36.957,0.184c18.212,0.345,36.713-1.033,54.556,1.776c43.002,6.787,70.696,43.631,67.936,87.523
	c-2.524,40.182-36.312,72.667-78.118,75.114C150.354,195.299,148.847,195.455,145.86,195.703z M81.061,45.875
	c19.844,18.835,39.576,37.776,59.586,56.421c4.429,4.127,5.807,8.521,5.718,14.393c-0.375,22.131-0.279,44.26-0.363,66.913
	c35.596,2.41,68.041-25.965,72.791-62.257c4.68-35.686-21.083-72.786-56.865-77.298c-25.461-3.213-55.102-1.574-80.896-2.049"/>
</svg>
