<?xml version="1.0" encoding="utf-8"?>
<!-- Generator: Adobe Illustrator 16.0.0, SVG Export Plug-In . SVG Version: 6.00 Build 0)  -->
<!DOCTYPE svg PUBLIC "-//W3C//DTD SVG 1.1//EN" "http://www.w3.org/Graphics/SVG/1.1/DTD/svg11.dtd">
<svg fill="#fff" version="1.1" xmlns="http://www.w3.org/2000/svg" xmlns:xlink="http://www.w3.org/1999/xlink" x="0px" y="0px"
	 width="389.667px" height="150.999px" viewBox="0 0 389.667 150.999" enable-background="new 0 0 389.667 150.999"
	 xml:space="preserve">
<g id="bg">
</g>
<g id="Layer_1">
	<g>
		<g>
			<g>
				<path d="M365.81,67.053l-0.286-0.056c0.261-1.306,0.363-2.564,0.313-3.853l0.293-0.01
					C366.179,64.445,366.074,65.726,365.81,67.053z"/>
			</g>
		</g>
		<g>
			<g>
				<path d="M361.265,53.797c-0.934-0.666-1.924-1.128-3.025-1.413l0.075-0.283c1.136,0.294,2.155,0.772,3.12,1.459L361.265,53.797z
					"/>
			</g>
		</g>
		<g>
			<g>
				<path d="M358.241,52.384c-0.333-0.086-0.667-0.157-1.002-0.229l0.059-0.284c0.341,0.07,0.679,0.144,1.014,0.229L358.241,52.384z
					"/>
			</g>
		</g>
		<g>
			<g>
				<rect x="356.248" y="51.76" transform="matrix(0.9784 0.2065 -0.2065 0.9784 18.4066 -72.5486)" width="1.031" height="0.292"/>
			</g>
		</g>
		<g>
			<g>
				<path d="M356.229,51.942c-5.694-1.208-12.408-2.627-19.022-4.001l0.06-0.287c6.613,1.374,13.329,2.796,19.023,4.003
					L356.229,51.942z"/>
			</g>
		</g>
		<g>
			<g>
				<path d="M250.702,35.071c-9.889-0.293-20.563-0.027-32.627,0.81l-0.021-0.293c12.075-0.839,22.758-1.102,32.657-0.808
					L250.702,35.071z"/>
			</g>
		</g>
		<g>
			<g>
				<path d="M217.528,35.918c-0.443,0.029-0.889,0.06-1.332,0.089l-0.317,0.021l-0.019-0.293l0.318-0.019
					c0.443-0.029,0.886-0.058,1.329-0.089L217.528,35.918z"/>
			</g>
		</g>
		<g>
			<g>
				<path d="M68.032,138.458c-5.199,0.73-10.752,0.459-14.144-3.017l0.21-0.203c5.92,6.067,18.724,2.12,24.19,0.436l8.289-2.575
					l0.086,0.277l-8.288,2.577C75.952,136.7,72.102,137.886,68.032,138.458z"/>
			</g>
		</g>
		<g>
			<g>
				<path d="M53.858,135.41c-1.088-1.129-1.986-2.372-2.796-3.548l0.241-0.166c0.803,1.165,1.691,2.397,2.766,3.513L53.858,135.41z"
					/>
			</g>
		</g>
		<g>
			<g>
				<path d="M84.286,90.756l-0.29,0.036c-0.143-1.142-0.291-2.718-0.461-4.542c-0.758-8.077-2.024-21.597-5.604-26.401
					c-5.994-8.041-25.89-7.88-29.818-7.766c-6.386,0.315-7.962,0.748-7.977,0.754c-3.743,0.689-7.694,1.963-8.718,6.193
					l-0.283-0.069c1.069-4.418,5.336-5.745,8.934-6.408c0.049-0.016,1.588-0.444,8.032-0.763c3.956-0.113,23.984-0.271,30.063,7.884
					c3.629,4.869,4.9,18.441,5.661,26.549C83.996,88.045,84.145,89.618,84.286,90.756z"/>
			</g>
		</g>
		<g>
			<g>
				<path d="M67.418,134.062c-2.012,0.282-3.852,0.41-5.655,0.399c-4.393-0.025-7.239-1.292-9.826-4.374l0.225-0.189
					c2.559,3.049,5.251,4.246,9.602,4.271c3.253,0.019,6.62-0.413,10.919-1.399l3.536-0.931l0.823-0.248
					c3.605-1.081,7.008-2.102,9.753-5.248c2.456-2.818,1.675-7.3,1.104-10.575c-0.06-0.341-0.117-0.668-0.167-0.979
					c-0.294-1.799-0.594-3.595-0.894-5.393c-1.017-6.082-2.065-12.372-2.841-18.604l0.29-0.036
					c0.774,6.226,1.824,12.512,2.838,18.595c0.3,1.796,0.6,3.594,0.896,5.393c0.049,0.309,0.106,0.634,0.164,0.975
					c0.583,3.332,1.378,7.895-1.17,10.816c-2.799,3.212-6.244,4.242-9.889,5.337l-0.829,0.248l-3.546,0.933
					C70.809,133.5,69.056,133.831,67.418,134.062z"/>
			</g>
		</g>
		<g>
			<g>
				<rect x="48.504" y="115.216" transform="matrix(0.1942 0.981 -0.981 0.1942 155.558 47.8571)" width="0.292" height="6.796"/>
			</g>
		</g>
		<g>
			<g>
				<path d="M29.522,57.845l-0.292-0.011c0.05-1.498,0.398-2.768,1.096-3.991l0.256,0.146
					C29.907,55.169,29.571,56.396,29.522,57.845z"/>
			</g>
		</g>
		<g>
			<g>
				<polygon points="29.516,58.076 29.396,58.048 29.23,58.071 29.231,58.01 29.374,58.043 29.519,58.03 29.396,58.048 				"/>
			</g>
		</g>
		<g>
			<g>
				<path d="M30.643,53.885l-0.251-0.152c1.643-2.685,5.432-4.382,11.612-5.228l0.039,0.291
					C35.968,49.62,32.232,51.28,30.643,53.885z"/>
			</g>
		</g>
		<g>
			<g>
				<rect x="42.022" y="48.475" transform="matrix(0.9914 -0.1306 0.1306 0.9914 -5.9868 5.9318)" width="0.441" height="0.294"/>
			</g>
		</g>
		<g>
			<g>
				<rect x="50.157" y="47.783" transform="matrix(0.9996 -0.0297 0.0297 0.9996 -1.398 1.6068)" width="6.618" height="0.293"/>
			</g>
		</g>
		<g>
			<g>
				
					<rect x="82.915" y="130.271" transform="matrix(0.2962 0.9551 -0.9551 0.2962 186.7682 15.2129)" width="0.293" height="8.131"/>
			</g>
		</g>
		<g>
			<g>
				<rect x="82.604" y="132.782" transform="matrix(0.2898 0.9571 -0.9571 0.2898 187.4685 16.3034)" width="0.29" height="3.383"/>
			</g>
		</g>
		<g>
			<g>
				<rect x="82.313" y="134.232" transform="matrix(0.2901 0.957 -0.957 0.2901 187.3152 16.6136)" width="0.293" height="0.664"/>
			</g>
		</g>
		<g>
			<g>
				<rect x="82.842" y="134.218" transform="matrix(0.284 0.9588 -0.9588 0.284 188.2943 16.6661)" width="0.292" height="0.375"/>
			</g>
		</g>
		<g>
			<g>
				<rect x="79.015" y="135.533" transform="matrix(0.291 0.9567 -0.9567 0.291 185.8079 20.3689)" width="0.292" height="0.04"/>
			</g>
		</g>
		<g>
			<g>
				<rect x="83.356" y="133.488" transform="matrix(0.284 0.9588 -0.9588 0.284 188.5107 16.0599)" width="0.292" height="1.518"/>
			</g>
		</g>
		<g>
			<g>
				<rect x="38.612" y="70.565" transform="matrix(0.9953 -0.0972 0.0972 0.9953 -6.6845 4.101)" width="0.291" height="0.213"/>
			</g>
		</g>
		<g>
			<g>
				<rect x="39.017" y="74.019" transform="matrix(0.9915 -0.1298 0.1298 0.9915 -9.2926 5.7092)" width="0.293" height="0.286"/>
			</g>
		</g>
		<g>
			<g>
				<path d="M39.407,76.948c-0.137-0.9-0.26-1.782-0.37-2.623l0.29-0.036c0.11,0.836,0.233,1.716,0.368,2.616L39.407,76.948z"/>
			</g>
		</g>
		<g>
			<g>
				<path d="M50.725,113.755c-0.103-0.211-0.199-0.424-0.288-0.638l0.268-0.113c0.089,0.209,0.184,0.418,0.282,0.621L50.725,113.755
					z"/>
			</g>
		</g>
		<g>
			<g>
				<path d="M50.436,113.115c-0.262-0.63-0.41-1.191-0.278-1.882c0.06-0.307,0.174-0.593,0.357-0.9
					c0.097-0.164,0.398-0.542,0.57-0.755l-0.005-0.005c0.037-0.043,0.067-0.081,0.097-0.11c0.002-0.003,0.004-0.003,0.004-0.005
					h0.002c0.076-0.074,0.132-0.096,0.212-0.03c0.083,0.067,0.066,0.131,0.009,0.216l0,0c0,0-0.001,0.002-0.001,0.004
					c-0.021,0.029-0.049,0.063-0.077,0.1c-0.154,0.189-0.47,0.585-0.561,0.736c-0.167,0.277-0.267,0.532-0.319,0.806
					c-0.118,0.62,0.018,1.134,0.259,1.713L50.436,113.115z"/>
			</g>
		</g>
		<g>
			<g>
				<rect x="51.301" y="109.302" transform="matrix(0.7505 0.6609 -0.6609 0.7505 85.1161 -6.7121)" width="0.294" height="0.145"/>
			</g>
		</g>
		<g>
			<g>
				<path d="M53.866,106.395l-0.256-0.136l0.13-0.243c0.156-0.29,0.319-0.587,0.45-0.894l0.269,0.114
					c-0.137,0.319-0.301,0.624-0.463,0.919L53.866,106.395z"/>
			</g>
		</g>
		<g>
			<g>
				<rect x="54.335" y="104.604" transform="matrix(0.94 0.3412 -0.3412 0.94 39.0219 -12.3011)" width="0.292" height="0.358"/>
			</g>
		</g>
		<g>
			<g>
				<path d="M54.717,104.549l-0.283-0.066l0.073-0.31c0.119-0.5,0.232-0.972,0.262-1.475l0.293,0.018
					c-0.031,0.527-0.152,1.035-0.271,1.525L54.717,104.549z"/>
			</g>
		</g>
		<g>
			<g>
				<path d="M55.061,102.71l-0.292-0.016c0.014-0.249,0.018-0.506,0.008-0.786l0.292-0.008
					C55.077,102.187,55.075,102.453,55.061,102.71z"/>
			</g>
		</g>
		<g>
			<g>
				<polygon points="55.067,101.891 54.777,101.901 54.77,101.72 55.061,101.702 				"/>
			</g>
		</g>
		<g>
			<g>
				<path d="M55.034,101.288l-0.291,0.038c-0.021-0.156-0.042-0.313-0.06-0.469c-0.057-0.434-0.114-0.881-0.199-1.317l0.286-0.056
					c0.088,0.443,0.146,0.896,0.202,1.337C54.992,100.976,55.012,101.131,55.034,101.288z"/>
			</g>
		</g>
		<g>
			<g>
				<rect x="51.146" y="90.865" transform="matrix(0.4438 0.8961 -0.8961 0.4438 110.1643 4.5322)" width="0.57" height="0.291"/>
			</g>
		</g>
		<g>
			<g>
				<path d="M46.737,83.328c-0.221-0.297-0.422-0.559-0.649-0.803l0.215-0.199c0.237,0.255,0.442,0.523,0.669,0.827L46.737,83.328z"
					/>
			</g>
		</g>
		<g>
			<g>
				<polygon points="45.762,82.195 45.48,81.948 45.657,81.717 45.562,81.826 45.671,81.729 45.954,81.977 				"/>
			</g>
		</g>
		<g>
			<g>
				<path d="M41.178,79.976c-1.433-0.564-1.58-1.643-1.736-2.782l-0.031-0.24l0.288-0.04l0.033,0.24
					c0.157,1.146,0.28,2.049,1.554,2.551L41.178,79.976z"/>
			</g>
		</g>
		<g>
			<g>
				<path d="M39.41,76.951c-0.136-0.894-0.261-1.779-0.371-2.626l0.288-0.036c0.111,0.844,0.237,1.726,0.37,2.62L39.41,76.951z"/>
			</g>
		</g>
		<g>
			<g>
				<rect x="39.019" y="74.017" transform="matrix(0.9922 -0.1244 0.1244 0.9922 -8.925 5.4505)" width="0.29" height="0.291"/>
			</g>
		</g>
		<g>
			<g>
				<path d="M39.291,74l-0.288,0.038c-0.057-0.424-0.107-0.847-0.159-1.271l0.291-0.034C39.184,73.155,39.235,73.578,39.291,74z"/>
			</g>
		</g>
		<g>
			<g>
				<path d="M39.135,72.734l-0.291,0.032c-0.386-3.245-0.632-6.248-0.75-9.18l0.29-0.014C38.505,66.497,38.749,69.494,39.135,72.734
					z"/>
			</g>
		</g>
		<g>
			<g>
				<path d="M38.384,63.573l-0.29,0.012c-0.026-0.622-0.043-1.259-0.053-1.893l0.293-0.005
					C38.342,62.321,38.36,62.956,38.384,63.573z"/>
			</g>
		</g>
		<g>
			<g>
				<path d="M38.334,61.688l-0.293,0.005c-0.007-0.555-0.005-1.044,0.008-1.5l0.291,0.007
					C38.328,60.652,38.326,61.138,38.334,61.688z"/>
			</g>
		</g>
		<g>
			<g>
				<path d="M38.34,60.199l-0.293-0.006c0.009-0.333,0.023-0.662,0.04-0.992l0.292,0.017C38.36,59.544,38.347,59.871,38.34,60.199z"
					/>
			</g>
		</g>
		<g>
			<g>
				<polygon points="38.382,59.193 38.234,59.208 38.089,59.199 38.094,59.136 38.383,59.157 				"/>
			</g>
		</g>
		<g>
			<g>
				<path d="M38.385,59.155l-0.292-0.016c0.033-0.563,0.086-1.081,0.165-1.59l0.288,0.045C38.47,58.095,38.417,58.604,38.385,59.155
					z"/>
			</g>
		</g>
		<g>
			<g>
				<path d="M38.55,57.568l-0.288-0.042c0.075-0.494,0.174-0.94,0.306-1.361l0.279,0.088C38.719,56.661,38.623,57.091,38.55,57.568z
					"/>
			</g>
		</g>
		<g>
			<g>
				<path d="M59.947,128.941c-1.301-1.442-2.38-3.042-3.264-4.417l0.244-0.158c0.878,1.365,1.949,2.952,3.237,4.381L59.947,128.941z
					"/>
			</g>
		</g>
		<g>
			<g>
				<path d="M56.684,124.524c-2.087-3.257-4.029-6.769-5.942-10.738l0.263-0.126c1.909,3.959,3.847,7.459,5.924,10.708
					L56.684,124.524z"/>
			</g>
		</g>
		<g>
			<g>
				<path d="M38.859,56.205l-0.28-0.085c1.126-3.748,8.338-4.161,11.42-4.338l0.393-0.023l0.018,0.291l-0.395,0.024
					C47.255,52.23,39.927,52.653,38.859,56.205z"/>
			</g>
		</g>
		<g>
			<g>
				<path d="M73.878,132.27c-2.328,0.327-4.778,0.453-7.362,0.159l0.034-0.291c4.396,0.501,8.415-0.229,12.103-1.091l0.067,0.284
					C77.166,131.693,75.553,132.034,73.878,132.27z"/>
			</g>
		</g>
		<g>
			<g>
				<path d="M66.516,132.429c-2.474-0.285-4.251-1.131-5.94-2.826l0.207-0.204c1.64,1.643,3.364,2.464,5.768,2.739L66.516,132.429z"
					/>
			</g>
		</g>
		<g>
			<g>
				<rect x="60.521" y="129.289" transform="matrix(0.7123 0.7018 -0.7018 0.7123 108.2808 -5.307)" width="0.186" height="0.291"/>
			</g>
		</g>
		<g>
			<g>
				<path d="M60.444,129.472c-0.164-0.167-0.324-0.338-0.479-0.511l0.215-0.194c0.154,0.17,0.313,0.337,0.471,0.5L60.444,129.472z"
					/>
			</g>
		</g>
		<g>
			<g>
				<path d="M40.284,79.344c-0.65-0.739-0.758-1.533-0.874-2.372c-0.017-0.138-0.036-0.275-0.058-0.414l0.287-0.045
					c0.022,0.142,0.042,0.28,0.062,0.42c0.107,0.793,0.209,1.544,0.803,2.217L40.284,79.344z"/>
			</g>
		</g>
		<g>
			<g>
				<polygon points="38.465,65.203 38.172,65.209 38.171,65.157 38.315,65.132 38.462,65.139 				"/>
			</g>
		</g>
		<g>
			<g>
				<path d="M50.679,110.635l-0.253-0.146c0.485-0.84,1.101-1.589,1.694-2.313c1.008-1.226,2.05-2.497,2.467-4.228l0.284,0.068
					c-0.432,1.796-1.496,3.092-2.525,4.345C51.76,109.077,51.151,109.817,50.679,110.635z"/>
			</g>
		</g>
		<g>
			<g>
				<rect x="38.168" y="65.024" transform="matrix(0.9986 -0.0534 0.0534 0.9986 -3.4247 2.1403)" width="0.292" height="0.183"/>
			</g>
		</g>
		<g>
			<g>
				<path d="M103.04,69.806c-0.014,0.002-0.025,0.003-0.036,0.005l-0.031-0.291c0.071-0.009,0.135-0.025,0.196-0.05
					c0.062-0.026,0.125-0.064,0.184-0.112c0.12-0.098,0.223-0.236,0.303-0.407c0.084-0.178,0.14-0.385,0.169-0.614
					c0.014-0.114,0.019-0.233,0.017-0.356c-0.004-0.124-0.011-0.247-0.028-0.369l0.29-0.039c0.018,0.134,0.028,0.269,0.031,0.402
					c0,0.138-0.005,0.271-0.021,0.397c-0.03,0.261-0.096,0.496-0.191,0.701c-0.102,0.214-0.229,0.386-0.383,0.512
					c-0.082,0.064-0.168,0.116-0.255,0.153C103.205,69.771,103.123,69.794,103.04,69.806z"/>
			</g>
		</g>
		<g>
			<g>
				<rect x="38.179" y="65.22" transform="matrix(0.9982 -0.0603 0.0603 0.9982 -3.868 2.4296)" width="0.292" height="0.182"/>
			</g>
		</g>
		<g>
			<g>
				<path d="M39.314,74.166l-0.289,0.037c-0.377-2.894-0.658-5.849-0.839-8.781l0.291-0.018
					C38.658,68.33,38.94,71.278,39.314,74.166z"/>
			</g>
		</g>
		<g>
			<g>
				<rect x="39.048" y="74.186" transform="matrix(0.9909 -0.1344 0.1344 0.9909 -9.6367 5.9405)" width="0.291" height="0.359"/>
			</g>
		</g>
		<g>
			<g>
				<path d="M35.553,58.68c-0.134,0.019-0.27,0.038-0.409,0.054l-0.034-0.289c1.728-0.211,2.902-0.484,3.472-2.324l0.278,0.085
					C38.287,58.053,37.127,58.458,35.553,58.68z"/>
			</g>
		</g>
		<g>
			<g>
				<path d="M36.948,58.324l-0.112-0.269c0.359-0.151,0.661-0.348,0.946-0.618l0.201,0.212
					C37.676,57.941,37.338,58.163,36.948,58.324z"/>
			</g>
		</g>
		<g>
			<g>
				<path d="M36.159,58.575l-0.063-0.285c0.063-0.015,0.128-0.03,0.188-0.045l0.075,0.282C36.295,58.544,36.228,58.56,36.159,58.575
					z"/>
			</g>
		</g>
		<g>
			<g>
				<path d="M41.544,80.127c-0.129-0.047-0.252-0.099-0.374-0.154l0.122-0.266c0.116,0.053,0.231,0.102,0.352,0.146L41.544,80.127z"
					/>
			</g>
		</g>
		<g>
			<g>
				<path d="M44.71,81.404c-0.653-0.397-1.401-0.721-2.354-1.019l0.087-0.278c0.977,0.307,1.747,0.638,2.42,1.046L44.71,81.404z"/>
			</g>
		</g>
		<g>
			<g>
				<path d="M45.47,81.94c-0.212-0.172-0.436-0.334-0.67-0.482l0.157-0.246c0.242,0.152,0.478,0.323,0.698,0.503L45.47,81.94z"/>
			</g>
		</g>
		<g>
			<g>
				<path d="M45.685,82.127c-0.038-0.036-0.078-0.072-0.116-0.104l0.189-0.224c0.042,0.036,0.085,0.073,0.126,0.112L45.685,82.127z"
					/>
			</g>
		</g>
		<g>
			<g>
				<path d="M46.088,82.525c-0.104-0.117-0.215-0.226-0.328-0.332l0.198-0.214c0.12,0.111,0.233,0.227,0.345,0.347L46.088,82.525z"
					/>
			</g>
		</g>
		<g>
			<g>
				<path d="M100.995,51.997c-0.038-0.179-0.096-0.35-0.166-0.512c-0.07-0.165-0.149-0.306-0.24-0.432
					c-0.091-0.127-0.19-0.233-0.296-0.321c-0.049-0.04-0.104-0.078-0.159-0.111c-0.05-0.03-0.104-0.055-0.16-0.074l0.102-0.274
					c0.07,0.027,0.14,0.059,0.206,0.097c0.069,0.04,0.135,0.088,0.197,0.139c0.125,0.103,0.241,0.228,0.347,0.375
					c0.103,0.142,0.194,0.304,0.273,0.486c0.076,0.179,0.139,0.367,0.182,0.562L100.995,51.997z"/>
			</g>
		</g>
		<g>
			<g>
				<polygon points="46.883,83.532 46.752,83.348 46.857,83.244 46.976,83.158 46.857,83.244 46.99,83.178 47.122,83.366 				"/>
			</g>
		</g>
		<g>
			<g>
				<path d="M51.175,90.82c-1.346-2.696-2.74-5.068-4.268-7.252l0.239-0.168c1.535,2.196,2.938,4.579,4.288,7.289L51.175,90.82z"/>
			</g>
		</g>
		<g>
			<g>
				<rect x="97.26" y="49.781" transform="matrix(0.9411 0.3382 -0.3382 0.9411 22.6971 -30.4298)" width="2.847" height="0.293"/>
			</g>
		</g>
		<g>
			<g>
				<path d="M215.879,36.027c-3.653,0.231-7.512,0.51-11.469,0.825c-3.927,0.313-8.028,0.668-12.188,1.056
					c-8.578,0.797-17.597,1.743-27.568,2.888c-9.992,1.147-20.428,2.437-31.904,3.938c-11.124,1.456-22.697,3.043-35.384,4.855
					l-0.042-0.288c12.686-1.812,24.263-3.401,35.387-4.857c11.479-1.503,21.917-2.792,31.911-3.938
					c9.973-1.146,18.993-2.091,27.573-2.888c4.162-0.39,8.264-0.745,12.192-1.059c3.959-0.315,7.819-0.592,11.474-0.825
					L215.879,36.027z"/>
			</g>
		</g>
		<g>
			<g>
				<path d="M335.608,47.605c-5.238-1.095-11.449-2.386-17.79-3.662c-4.691-0.946-8.798-1.75-12.558-2.458
					c-3.947-0.743-7.545-1.39-10.996-1.976c-0.851-0.145-1.701-0.288-2.555-0.428c-1.137-0.188-2.275-0.371-3.415-0.552
					c-1.857-0.295-3.538-0.552-5.142-0.784c-3.068-0.449-5.89-0.819-8.628-1.135c-2.765-0.317-5.544-0.588-8.263-0.806
					c-2.729-0.216-5.528-0.391-8.321-0.517c-2.747-0.123-5.635-0.209-8.585-0.252l0.004-0.292c2.953,0.043,5.845,0.127,8.594,0.254
					c2.799,0.125,5.6,0.3,8.33,0.516c2.723,0.217,5.507,0.488,8.275,0.806c2.74,0.315,5.565,0.686,8.637,1.136
					c1.603,0.234,3.285,0.49,5.146,0.785c1.14,0.182,2.277,0.364,3.417,0.554c0.852,0.139,1.704,0.281,2.555,0.426
					c3.453,0.588,7.053,1.234,11.001,1.979c3.761,0.709,7.869,1.512,12.56,2.456c6.344,1.278,12.555,2.569,17.795,3.665
					L335.608,47.605z"/>
			</g>
		</g>
		<g>
			<g>
				<path d="M366.066,62.188l-0.292,0.029c-0.037-0.396-0.094-0.797-0.167-1.191c-0.079-0.435-0.18-0.86-0.294-1.267
					c-0.238-0.84-0.559-1.642-0.95-2.383c-0.368-0.696-0.804-1.341-1.294-1.921c-0.487-0.578-1.033-1.092-1.623-1.527l0.174-0.235
					c0.607,0.449,1.17,0.979,1.671,1.574c0.504,0.596,0.952,1.261,1.329,1.973c0.402,0.76,0.729,1.582,0.972,2.441
					c0.119,0.413,0.222,0.849,0.304,1.292C365.968,61.374,366.025,61.784,366.066,62.188z"/>
			</g>
		</g>
		<g>
			<g>
				<path d="M356.607,76.646c-0.371,0.052-0.75,0.082-1.125,0.091c-0.351,0.01-0.704,0.001-1.054-0.027
					c-0.484-0.038-0.971-0.112-1.444-0.219c-0.289-0.064-0.576-0.143-0.856-0.229c-0.133-0.042-0.264-0.087-0.396-0.131
					l-1.251-0.479l-3.022-1.169c-5.728-2.217-11.454-4.432-17.185-6.643c-2.859-1.101-5.718-2.2-8.576-3.301
					c-2.354-0.906-4.71-1.809-7.064-2.71c-3.16-1.209-6.324-2.415-9.492-3.61c-2.715-1.023-4.81-1.806-6.783-2.534
					c-2.021-0.743-3.685-1.347-5.234-1.89c-1.549-0.544-2.842-0.983-4.067-1.379c-1.188-0.386-2.435-0.767-3.705-1.137
					c-1.383-0.403-2.784-0.79-4.164-1.148c-2.661-0.695-5.362-1.319-8.024-1.862c-2.856-0.579-5.745-1.078-8.592-1.481
					c-2.883-0.409-5.812-0.733-8.706-0.966c-2.91-0.229-5.869-0.374-8.793-0.425c-3.373-0.059-6.792,0.008-10.163,0.195
					c-3.228,0.18-6.498,0.476-9.723,0.881c-3.217,0.406-6.466,0.933-9.667,1.563c-1.599,0.315-3.213,0.663-4.796,1.033
					c-0.796,0.187-1.592,0.379-2.386,0.577c-0.836,0.213-1.612,0.414-2.374,0.622c-1.009,0.275-1.921,0.54-2.786,0.808
					c-0.841,0.26-1.697,0.54-2.544,0.835c-1.816,0.626-3.726,1.355-5.84,2.23c-1.168,0.483-2.409,1.015-3.903,1.671
					c-1.479,0.651-3.081,1.372-4.894,2.2c-1.679,0.769-3.484,1.606-5.679,2.632c-1.077,0.507-2.157,1.014-3.233,1.523
					c-0.966,0.455-1.93,0.912-2.893,1.369l-2.158,1.021c-0.304,0.143-0.607,0.286-0.91,0.428c-0.607,0.284-1.219,0.565-1.834,0.835
					c-0.554,0.242-1.012,0.437-1.447,0.608c-0.424,0.168-0.803,0.308-1.156,0.427c-0.373,0.127-0.71,0.226-1.027,0.308
					c-0.33,0.084-0.665,0.154-0.996,0.211c-0.344,0.057-0.7,0.101-1.064,0.132c-0.188,0.017-0.373,0.029-0.563,0.04
					c-0.131,0.008-0.263,0.013-0.392,0.02h-0.046c-0.115,0.007-0.23,0.011-0.347,0.014c-0.818,0.032-1.639,0.063-2.456,0.093
					l-3.572,0.129c-21.484,0.786-39.402,1.476-56.391,2.174l-0.011-0.292c16.988-0.696,34.906-1.388,56.391-2.174l3.573-0.13
					c0.818-0.028,1.637-0.059,2.454-0.091c0.116-0.004,0.231-0.009,0.346-0.013l0.045-0.002c0.131-0.007,0.261-0.012,0.39-0.02
					c0.184-0.01,0.37-0.022,0.553-0.04c0.358-0.029,0.708-0.072,1.043-0.129c0.322-0.053,0.647-0.123,0.971-0.205
					c0.311-0.08,0.641-0.177,1.006-0.3c0.35-0.118,0.725-0.258,1.144-0.423c0.432-0.171,0.888-0.363,1.438-0.604
					c0.611-0.269,1.221-0.548,1.826-0.832c0.304-0.142,0.606-0.284,0.91-0.428l2.156-1.021c0.965-0.457,1.929-0.913,2.892-1.368
					c1.079-0.509,2.157-1.018,3.238-1.522c2.194-1.028,3.998-1.865,5.681-2.634c1.813-0.831,3.413-1.551,4.896-2.203
					c1.497-0.658,2.738-1.189,3.91-1.674c2.118-0.875,4.033-1.607,5.855-2.236c0.851-0.295,1.708-0.576,2.553-0.836
					c0.87-0.271,1.783-0.535,2.796-0.812c0.762-0.207,1.542-0.412,2.382-0.622c0.794-0.203,1.591-0.396,2.388-0.58
					c1.587-0.371,3.204-0.719,4.807-1.035c3.207-0.634,6.466-1.161,9.688-1.566c3.232-0.406,6.51-0.705,9.743-0.884
					c3.378-0.188,6.805-0.254,10.183-0.196c2.933,0.052,5.897,0.195,8.812,0.429c2.9,0.231,5.838,0.557,8.726,0.968
					c2.852,0.403,5.748,0.902,8.608,1.482c2.668,0.542,5.373,1.172,8.041,1.866c1.382,0.359,2.785,0.746,4.172,1.151
					c1.271,0.369,2.521,0.752,3.711,1.137c1.229,0.397,2.524,0.837,4.074,1.383c1.552,0.545,3.217,1.147,5.24,1.891
					c1.976,0.729,4.068,1.511,6.785,2.535c3.166,1.196,6.332,2.402,9.494,3.612c2.355,0.9,4.709,1.804,7.064,2.708
					c2.858,1.101,5.717,2.2,8.576,3.304c5.729,2.21,11.458,4.425,17.186,6.64l4.264,1.646c0.129,0.045,0.258,0.088,0.388,0.129
					c0.27,0.084,0.551,0.159,0.832,0.223c0.46,0.104,0.932,0.175,1.404,0.213c0.337,0.027,0.682,0.036,1.021,0.027
					c0.376-0.009,0.758-0.039,1.127-0.095c0.348-0.051,0.687-0.12,1.013-0.205c0.363-0.093,0.731-0.212,1.096-0.355
					c0.677-0.267,1.33-0.613,1.939-1.03l0.214-0.15c2.607-1.855,3.958-4.061,4.66-7.612l0.286,0.056
					c-0.719,3.634-2.104,5.892-4.778,7.796l-0.216,0.152c-0.63,0.43-1.301,0.786-2,1.063c-0.376,0.147-0.755,0.27-1.128,0.365
					c-0.335,0.087-0.686,0.159-1.046,0.212C356.631,76.643,356.619,76.644,356.607,76.646z"/>
			</g>
		</g>
		<g>
			<g>
				<rect x="101.852" y="69.576" transform="matrix(0.9948 -0.102 0.102 0.9948 -6.5754 10.8066)" width="1.14" height="0.294"/>
			</g>
		</g>
		<g>
			<g>
				<path d="M104.103,67.571l-0.29,0.039c-0.725-5.272-1.673-10.528-2.817-15.613l0.285-0.066
					C102.426,57.026,103.375,62.289,104.103,67.571z"/>
			</g>
		</g>
		<g>
			<g>
				<rect x="96.97" y="49.775" transform="matrix(0.2338 0.9723 -0.9723 0.2338 123.2071 -56.5087)" width="0.977" height="0.293"/>
			</g>
		</g>
		<g>
			<g>
				<path d="M54.484,99.54c-0.563-2.786-1.628-5.297-3.057-8.209l0.263-0.127c1.438,2.93,2.513,5.461,3.08,8.278L54.484,99.54z"/>
			</g>
		</g>
		<g>
			<g>
				<path d="M55.061,101.702l-0.291,0.018c-0.033-0.629-0.109-1.257-0.226-1.872l0.286-0.054
					C54.949,100.42,55.026,101.062,55.061,101.702z"/>
			</g>
		</g>
		<g>
			<g>
				<path d="M54.682,104.66l-0.277-0.093c0.146-0.423,0.244-0.841,0.306-1.275l0.29,0.04
					C54.936,103.787,54.831,104.222,54.682,104.66z"/>
			</g>
		</g>
		<g>
			<g>
				<path d="M54.459,105.238l-0.269-0.118c0.031-0.071,0.063-0.146,0.092-0.224l0.272,0.107
					C54.524,105.083,54.491,105.161,54.459,105.238z"/>
			</g>
		</g>
		<g>
			<g>
				<path d="M51.609,109.411l-0.219-0.193c0.945-1.066,1.917-2.252,2.628-3.719l0.262,0.127
					C53.557,107.124,52.568,108.33,51.609,109.411z"/>
			</g>
		</g>
		<g>
			<g>
				<path d="M30.308,72.056l-0.291,0.028c-0.223-2.083-0.401-4.215-0.531-6.335l0.293-0.02
					C29.908,67.848,30.085,69.975,30.308,72.056z"/>
			</g>
		</g>
		<g>
			<g>
				<path d="M29.778,65.729l-0.293,0.02c-0.154-2.557-0.242-5.144-0.257-7.689l0.292-0.002
					C29.536,60.598,29.623,63.18,29.778,65.729z"/>
			</g>
		</g>
		<g>
			<g>
				<path d="M51.366,131.583c-0.225-0.381-0.288-0.705-0.196-0.99c0.099-0.298,0.366-0.536,0.821-0.734l0.117,0.268
					c-0.376,0.163-0.591,0.345-0.661,0.559c-0.064,0.2-0.009,0.444,0.171,0.753L51.366,131.583z"/>
			</g>
		</g>
		<g>
			<g>
				<path d="M94.308,69.697l-0.29,0.041c-0.779-5.546-1.559-11.089-2.336-16.634l0.29-0.041
					C92.749,58.609,93.528,64.152,94.308,69.697z"/>
			</g>
		</g>
		<g>
			<g>
				<path d="M51.379,131.603c-6.993-8.39-13.687-25.622-16.477-35.158c-2.089-7.137-7.119-29.514-4.854-38.482l0.282,0.073
					c-2.249,8.909,2.771,31.211,4.853,38.326c2.679,9.15,9.504,26.759,16.421,35.057L51.379,131.603z"/>
			</g>
		</g>
		<g>
			<g>
				<path d="M53.733,135.25c-6.094-6.283-13.411-22.929-15.999-30.005c-3.63-9.922-6.154-20.766-7.718-33.157l0.291-0.036
					c1.561,12.367,4.079,23.192,7.701,33.094c2.583,7.057,9.873,23.651,15.933,29.902L53.733,135.25z"/>
			</g>
		</g>
		<g>
			<g>
				<path d="M53.715,135.229c-0.795-1.194-1.587-2.42-2.349-3.643l0.249-0.155c0.761,1.221,1.548,2.443,2.343,3.635L53.715,135.229z
					"/>
			</g>
		</g>
		<g>
			<g>
				<path d="M65.513,135.896c-2.83,0.397-5.656,0.466-8.705-0.438c-2.093-0.619-3.666-1.737-5.429-3.856l0.225-0.185
					c1.725,2.07,3.254,3.159,5.287,3.762c4.452,1.319,8.455,0.531,12.692-0.305l0.699-0.136c3.401-0.667,14.732-3.247,17.698-8.546
					c1.645-2.933,1.179-5.593,0.684-8.409c-0.081-0.466-0.165-0.938-0.238-1.418c-0.349-2.241-0.74-4.512-1.118-6.711
					c-0.188-1.09-0.374-2.18-0.559-3.271c-1.211-7.228-2.133-13.79-2.817-20.064c-0.179-1.64-0.332-3.307-0.48-4.919
					c-0.456-4.977-0.929-10.123-2.223-15.118c-1.917-7.397-5.71-11.101-13.528-13.211c-5.934-1.603-12.302-2.262-20.044-2.075
					l-0.521,0.012c-5.287,0.116-15.128,0.335-16.805,7.026l-0.282-0.073c1.729-6.905,11.716-7.127,17.081-7.246l0.52-0.012
					c7.772-0.187,14.169,0.477,20.128,2.085c7.938,2.143,11.788,5.905,13.735,13.42c1.299,5.019,1.773,10.177,2.229,15.166
					c0.149,1.61,0.303,3.274,0.481,4.912c0.683,6.271,1.604,12.827,2.815,20.048c0.183,1.093,0.371,2.183,0.559,3.272
					c0.377,2.197,0.768,4.472,1.117,6.715c0.074,0.477,0.156,0.948,0.237,1.412c0.504,2.87,0.979,5.578-0.716,8.603
					c-3.027,5.406-14.465,8.017-17.897,8.687l-0.698,0.138C68.246,135.436,66.88,135.705,65.513,135.896z"/>
			</g>
		</g>
		<g>
			<g>
				<path d="M30.335,57.999L30.043,58c-0.007-1.056-0.002-2.105,0.013-3.122l0.293,0.005C30.333,55.896,30.328,56.944,30.335,57.999
					z"/>
			</g>
		</g>
		<g>
			<g>
				<path d="M90.937,71.003l-0.29,0.041c-0.827-5.903-1.659-11.81-2.488-17.713l0.288-0.04C89.277,59.193,90.109,65.1,90.937,71.003
					z"/>
			</g>
		</g>
		<g>
			<g>
				<path d="M66.799,137.911c-4.893,0.688-10.051,0.448-13.065-2.661l0.208-0.202c5.498,5.665,18.445,1.53,23.319-0.026
					c4.277-1.368,7.814-2.607,11.127-5.061c3.877-2.868,4.265-5.901,3.632-10.84c-0.55-4.307-1.327-8.649-2.079-12.849
					c-0.67-3.744-1.362-7.615-1.894-11.452l-0.028-0.199c-0.821-5.918-2.528-18.233,2.668-23.697l0.212,0.201
					c-5.099,5.361-3.404,17.582-2.589,23.456l0.025,0.199c0.53,3.83,1.225,7.699,1.893,11.441c0.752,4.202,1.53,8.548,2.083,12.863
					c0.532,4.165,0.618,7.877-3.748,11.109c-3.35,2.48-6.91,3.729-11.214,5.104C75.066,136.027,71.031,137.316,66.799,137.911z"/>
			</g>
		</g>
		<g>
			<g>
				<path d="M51.937,130.087c-6.417-7.686-12.81-22.977-16.033-33.932c-2.361-8.019-6.841-28.515-4.769-37.194l0.283,0.069
					c-2.059,8.622,2.409,29.049,4.764,37.043c3.218,10.926,9.589,26.172,15.979,33.824L51.937,130.087z"/>
			</g>
		</g>
		<g>
			<g>
				<path d="M91.848,53.229c-1.285,0.173-2.444,0.249-3.548,0.229l0.004-0.292c1.09,0.019,2.235-0.054,3.505-0.227L91.848,53.229z"
					/>
			</g>
		</g>
		<g>
			<g>
				<path d="M99.081,52.279c-2.414,0.315-4.823,0.631-7.235,0.95l-0.037-0.291c2.411-0.317,4.822-0.634,7.233-0.949L99.081,52.279z"
					/>
			</g>
		</g>
		<g>
			<g>
				<path d="M91.973,53.065l-0.291,0.037c-0.071-0.551-0.141-1.103-0.209-1.655l0.291-0.035
					C91.829,51.963,91.899,52.516,91.973,53.065z"/>
			</g>
		</g>
		<g>
			<g>
				<polygon points="29.521,58.04 29.229,58.063 29.519,58.013 				"/>
			</g>
		</g>
		<g>
			<g>
				<rect x="29.228" y="57.929" transform="matrix(0.9996 0.0268 -0.0268 0.9996 1.5665 -0.7674)" width="0.291" height="0.098"/>
			</g>
		</g>
		<g>
			<g>
				<path d="M88.447,53.326l-0.29-0.03c0.087-0.854,0.211-1.497,1.025-1.977l0.148,0.254C88.631,51.982,88.531,52.51,88.447,53.326z
					"/>
			</g>
		</g>
		<g>
			<g>
				<path d="M88.284,53.456c-9.092-1.212-19.395-2.583-29.556-3.135l-0.529-0.028c-16.107-0.898-25.486,0.67-27.872,4.663
					l-0.25-0.151c3.688-6.167,22.091-5.142,28.139-4.805l0.528,0.03c10.172,0.551,20.481,1.925,29.578,3.136L88.284,53.456z"/>
			</g>
		</g>
		<g>
			<g>
				<path d="M30.349,54.885l-0.293-0.007c0.01-0.421,0.117-0.785,0.337-1.144l0.25,0.15C30.446,54.204,30.357,54.513,30.349,54.885z
					"/>
			</g>
		</g>
		<g>
			<g>
				<path d="M97.867,50.73c-2.075,0.279-4.153,0.562-6.229,0.844l-0.041-0.29c2.077-0.282,4.155-0.564,6.232-0.843L97.867,50.73z"/>
			</g>
		</g>
		<g>
			<g>
				<path d="M91.639,51.574c-0.867,0.117-1.653,0.124-2.401,0.018l0.04-0.29c0.732,0.104,1.47,0.1,2.32-0.018L91.639,51.574z"/>
			</g>
		</g>
		<g>
			<g>
				<path d="M89.237,51.592l-0.564-0.08c-12.547-1.797-25.521-3.654-38.583-3.338l-0.454,0.013c-2.655,0.079-4.997,0.26-7.155,0.552
					l-0.041-0.29c2.172-0.294,4.521-0.474,7.187-0.553l0.456-0.013c13.085-0.317,26.073,1.541,38.632,3.339l0.563,0.08
					L89.237,51.592z"/>
			</g>
		</g>
		<g>
			<g>
				<path d="M79.803,135.498l-0.092-0.276c16.302-5.388,15.366-10.428,13.105-22.603c-0.306-1.653-0.623-3.364-0.933-5.249
					c-0.869-5.282-1.849-11.541-2.537-17.911l-0.021-0.198c-0.48-4.414-1.478-13.599,2.788-17.172l0.187,0.224
					c-4.146,3.474-3.122,12.894-2.686,16.917l0.021,0.196c0.689,6.364,1.669,12.619,2.535,17.896
					c0.31,1.884,0.627,3.593,0.934,5.243C95.398,124.919,96.348,130.031,79.803,135.498z"/>
			</g>
		</g>
		<g>
			<g>
				<path d="M92.3,72.313l-0.187-0.224c0.681-0.571,1.4-0.787,2.344-0.951l0.048,0.289C93.611,71.58,92.932,71.782,92.3,72.313z"/>
			</g>
		</g>
		<g>
			<g>
				<path d="M94.505,71.427l-0.048-0.289l0.094-0.018c2.217-0.382,4.51-0.779,6.762-1.19l0.052,0.289
					c-2.254,0.411-4.547,0.807-6.765,1.19L94.505,71.427z"/>
			</g>
		</g>
		<g>
			<g>
				<rect x="31.266" y="58.645" transform="matrix(0.9945 -0.1051 0.1051 0.9945 -5.9925 3.813)" width="3.867" height="0.294"/>
			</g>
		</g>
		<g>
			<g>
				<rect x="49.826" y="51.756" width="0.451" height="0.292"/>
			</g>
		</g>
		<g>
			<g>
				<path d="M77.468,131.756l-0.09-0.277c0.4-0.13,0.797-0.265,1.189-0.404l0.101,0.276C78.27,131.491,77.87,131.626,77.468,131.756
					z"/>
			</g>
		</g>
		<g>
			<g>
				
					<rect x="55.346" y="125.772" transform="matrix(0.1981 0.9802 -0.9802 0.1981 171.2257 49.2883)" width="0.291" height="7.028"/>
			</g>
		</g>
		<g>
			<g>
				<rect x="51.15" y="109.388" transform="matrix(0.754 0.6568 -0.6568 0.754 84.5732 -6.7472)" width="0.291" height="0.32"/>
			</g>
		</g>
		<g>
			<g>
				<path d="M49.73,113.879c-1.085-2.194-0.903-3.733,0.655-5.488l0.218,0.194c-1.48,1.669-1.646,3.071-0.611,5.164L49.73,113.879z"
					/>
			</g>
		</g>
		<g>
			<g>
				<path d="M94.192,69.861l-0.06-0.285c2.124-0.435,4.922-1.018,7.755-1.672l0.065,0.285
					C99.118,68.844,96.316,69.425,94.192,69.861z"/>
			</g>
		</g>
		<g>
			<g>
				<path d="M90.88,71.142l-0.176-0.234c1.106-0.819,2.304-1.124,3.432-1.334l0.053,0.289C93.095,70.063,91.937,70.357,90.88,71.142
					z"/>
			</g>
		</g>
		<g>
			<g>
				<path d="M53.889,135.441c-0.064-0.065-0.122-0.135-0.172-0.213l0.241-0.162c0.042,0.062,0.088,0.118,0.141,0.172L53.889,135.441
					z"/>
			</g>
		</g>
		<g>
			<g>
				<path d="M94.337,71.313c-0.108-0.521-0.214-1.045-0.316-1.567l0.286-0.056c0.103,0.521,0.209,1.042,0.318,1.563L94.337,71.313z"
					/>
			</g>
		</g>
		<g>
			<g>
				<path d="M92.147,72.334c-0.593-0.262-1.047-0.64-1.474-1.223l0.236-0.174c0.394,0.541,0.813,0.888,1.355,1.128L92.147,72.334z"
					/>
			</g>
		</g>
		<g>
			<g>
				<path d="M357.326,74.939c-1.284,0.18-2.655,0.023-4.076-0.473l0.096-0.276c2.606,0.91,5.036,0.638,7.03-0.79
					c2.575-1.846,4.215-5.574,4.179-9.504c-0.028-3.292-0.617-5.783-3.453-8.031c-1.918-1.518-3.982-1.837-6.168-2.175
					c-0.689-0.108-1.403-0.217-2.104-0.369c-11.911-2.555-23.59-5.044-35.529-7.428c-21.346-4.26-46.267-8.827-71.889-9.091
					c-33.826-0.348-85.598,7.008-123.397,12.379c-7.449,1.059-14.483,2.059-20.856,2.927l-0.039-0.289
					c6.371-0.867,13.406-1.867,20.854-2.926c37.81-5.372,89.593-12.729,123.441-12.381c25.647,0.262,50.584,4.832,71.941,9.096
					c11.942,2.383,23.623,4.873,35.534,7.429c0.695,0.148,1.403,0.258,2.088,0.363c2.128,0.33,4.327,0.67,6.305,2.238
					c2.928,2.318,3.535,4.877,3.564,8.256c0.037,4.081-1.611,7.815-4.302,9.742C359.563,74.343,358.48,74.776,357.326,74.939z"/>
			</g>
		</g>
		<g>
			<g>
				<path d="M218.075,35.881c-29.092,2.007-58.34,6.207-86.625,10.267c-10.286,1.479-20.926,3.006-31.407,4.407l-0.038-0.29
					c10.479-1.4,21.118-2.929,31.403-4.405c28.292-4.062,57.545-8.261,86.646-10.271L218.075,35.881z"/>
			</g>
		</g>
		<g>
			<g>
				<path d="M337.206,47.941l-2.309-0.48c-27.262-5.673-55.449-11.538-84.195-12.39l0.009-0.291
					c28.77,0.853,56.974,6.72,84.247,12.394l2.308,0.48L337.206,47.941z"/>
			</g>
		</g>
		<g>
			<g>
				<path d="M360.501,53.309c-0.063-0.037-0.126-0.073-0.192-0.107l0.138-0.258c0.07,0.035,0.137,0.073,0.203,0.113L360.501,53.309z
					"/>
			</g>
		</g>
		<g>
			<g>
				<path d="M51.637,109.364l-0.138-0.052l-0.14,0.029c-0.016-0.011-0.039-0.037-0.063-0.062c-0.083-0.085-0.17-0.162-0.26-0.238
					c-0.093-0.073-0.188-0.145-0.284-0.214c-0.109-0.075-0.223-0.146-0.334-0.216l0.151-0.25c0.119,0.074,0.236,0.146,0.35,0.228
					c0.104,0.072,0.204,0.148,0.303,0.229c0.096,0.079,0.19,0.164,0.28,0.252c0.039,0.042,0.069,0.075,0.094,0.109l0.033,0.053
					C51.643,109.267,51.657,109.313,51.637,109.364z"/>
			</g>
		</g>
		<g>
			<g>
				<path d="M50.604,108.585l-0.218-0.194c4.351-4.868,2.094-8.479-0.764-13.053l-0.636-1.015c-1.067-1.706-2.174-3.47-3.209-5.239
					c-0.224-0.381-0.43-0.766-0.63-1.141c-0.916-1.719-1.783-3.343-4.086-4.024l0.082-0.282c2.421,0.719,3.315,2.394,4.261,4.17
					c0.198,0.371,0.403,0.754,0.624,1.13c1.033,1.766,2.139,3.527,3.207,5.231l0.634,1.016
					C52.792,99.861,55.102,103.554,50.604,108.585z"/>
			</g>
		</g>
		<g>
			<g>
				<path d="M366.129,63.135l-0.293,0.012c-0.037-0.983-0.171-1.946-0.395-2.866c-0.22-0.903-0.528-1.768-0.918-2.563
					c-0.396-0.807-0.873-1.549-1.418-2.203c-0.271-0.327-0.561-0.634-0.86-0.915c-0.309-0.288-0.641-0.559-0.98-0.803l0.17-0.237
					c0.351,0.251,0.691,0.53,1.012,0.828c0.307,0.289,0.605,0.605,0.883,0.939c0.561,0.673,1.05,1.435,1.456,2.263
					c0.398,0.813,0.716,1.696,0.94,2.623C365.954,61.151,366.089,62.134,366.129,63.135z"/>
			</g>
		</g>
		<g>
			<g>
				<path d="M41.243,83.822l-0.279-0.089l0.034-0.107c0.179-0.568,0.359-1.136,0.547-1.698c0.102-0.303,0.203-0.601,0.312-0.9
					c0.056-0.149,0.111-0.299,0.172-0.448c0.007-0.019,0.011-0.074,0.012-0.113c0.004-0.054,0.007-0.115,0.021-0.171l-0.356-0.113
					c-0.04-0.015-0.075-0.029-0.11-0.042l-0.059-0.023l0.104-0.272l0.064,0.026c0.031,0.011,0.061,0.022,0.092,0.034l0.646,0.203
					l-0.087,0.278c-0.004-0.001-0.008-0.003-0.012-0.002c-0.006,0.026-0.009,0.068-0.011,0.096c-0.001,0.071-0.007,0.146-0.033,0.21
					c-0.059,0.146-0.113,0.292-0.167,0.438c-0.108,0.298-0.209,0.594-0.309,0.892c-0.188,0.563-0.366,1.129-0.545,1.694
					L41.243,83.822z"/>
			</g>
		</g>
		<g>
			<g>
				<path d="M41.062,83.919l-0.141-0.042c-0.197-0.059-0.395-0.116-0.589-0.178c-0.184-0.059-0.366-0.122-0.545-0.191
					c-0.376-0.145-0.711-0.301-1.025-0.476c-0.645-0.36-1.209-0.809-1.677-1.332c-0.484-0.541-0.876-1.169-1.162-1.868
					c-0.134-0.334-0.249-0.696-0.345-1.08c-0.088-0.36-0.16-0.748-0.232-1.261l0.288-0.041c0.072,0.503,0.144,0.882,0.229,1.232
					c0.092,0.37,0.201,0.72,0.331,1.04c0.273,0.666,0.646,1.267,1.108,1.781c0.447,0.501,0.986,0.929,1.602,1.274
					c0.304,0.168,0.626,0.318,0.987,0.457c0.177,0.067,0.351,0.128,0.53,0.186c0.192,0.062,0.388,0.119,0.581,0.175l0.142,0.041
					L41.062,83.919z"/>
			</g>
		</g>
		<g>
			<g>
				<rect x="39.081" y="74.302" transform="matrix(0.9906 -0.1368 0.1368 0.9906 -9.8377 6.0655)" width="0.293" height="0.664"/>
			</g>
		</g>
		<g>
			<g>
				<polygon points="39.327,74.289 39.038,74.321 39.023,74.203 39.167,74.185 39.317,74.201 				"/>
			</g>
		</g>
		<g>
			<g>
				<rect x="38.186" y="65.393" transform="matrix(0.9987 -0.0504 0.0504 0.9987 -3.2528 2.0168)" width="0.29" height="0.123"/>
			</g>
		</g>
		<g>
			<g>
				<polygon points="38.469,65.315 38.177,65.326 38.17,65.197 38.462,65.178 				"/>
			</g>
		</g>
		<g>
			<g>
				<rect x="38.164" y="65.013" transform="matrix(0.9992 -0.0404 0.0404 0.9992 -2.5958 1.5997)" width="0.29" height="0.118"/>
			</g>
		</g>
		<g>
			<g>
				<rect x="38.111" y="63.861" transform="matrix(0.9986 -0.0534 0.0534 0.9986 -3.3675 2.1358)" width="0.292" height="0.364"/>
			</g>
		</g>
		<g>
			<g>
				<path d="M35.511,77.616l-0.042-0.288l0.18-0.027c0.616-0.093,1.233-0.188,1.853-0.276c0.339-0.048,0.679-0.096,1.02-0.142
					c0.171-0.021,0.339-0.043,0.51-0.063c0.037,0.001,0.097-0.043,0.139-0.068c0.126-0.071,0.267-0.152,0.398-0.082
					c0.081,0.046,0.125,0.133,0.133,0.26l-0.266,0.014c-0.034,0.015-0.087,0.044-0.122,0.063c-0.08,0.047-0.163,0.088-0.247,0.104
					c-0.169,0.021-0.338,0.042-0.506,0.065c-0.339,0.046-0.678,0.093-1.018,0.141c-0.617,0.089-1.235,0.182-1.852,0.274
					L35.511,77.616z"/>
			</g>
		</g>
		<g>
			<g>
				<path d="M35.346,77.493c-0.672-4.574-1.468-14.827-0.363-18.942l0.282,0.077c-1.094,4.072-0.298,14.27,0.369,18.822
					L35.346,77.493z"/>
			</g>
		</g>
		<g>
			<g>
				<path d="M49.922,113.948l-0.118-0.268c0.07-0.031,0.149-0.086,0.234-0.143c0.188-0.125,0.401-0.271,0.623-0.21
					c0.142,0.037,0.253,0.146,0.343,0.332l-0.263,0.126c-0.035-0.07-0.09-0.159-0.155-0.178c-0.093-0.026-0.249,0.08-0.386,0.173
					C50.109,113.841,50.017,113.905,49.922,113.948z"/>
			</g>
		</g>
		<g>
			<g>
				<path d="M58.823,128.677c-3.904-4.405-6.43-9.309-9.093-14.798l0.263-0.128c2.655,5.471,5.168,10.354,9.05,14.731
					L58.823,128.677z"/>
			</g>
		</g>
		<g>
			<g>
				<path d="M59.966,128.961c-0.299-0.329-0.594-0.308-1.008-0.237l-0.051-0.289c0.465-0.077,0.879-0.107,1.273,0.332
					L59.966,128.961z"/>
			</g>
		</g>
		<g>
			<g>
				<path d="M35.269,58.623l-0.286-0.068c1.478-6.008,10.538-6.526,14.894-6.777l0.342-0.021l0.018,0.294l-0.342,0.019
					C45.608,52.314,36.692,52.825,35.269,58.623z"/>
			</g>
		</g>
		<g>
			<g>
				<path d="M73.826,132.279c-1.954,0.274-3.796,0.399-5.615,0.383c-4.281-0.042-6.913-1.159-9.388-3.986l0.22-0.193
					c2.413,2.758,4.983,3.847,9.173,3.887c3.203,0.029,6.484-0.381,10.329-1.29l0.065,0.285
					C76.923,131.763,75.341,132.066,73.826,132.279z"/>
			</g>
		</g>
		<g>
			<g>
				<path d="M353.248,74.467c-0.14-0.052-0.278-0.103-0.417-0.156l0.106-0.273c0.136,0.054,0.272,0.104,0.408,0.153L353.248,74.467z
					"/>
			</g>
		</g>
		<g>
			<g>
				<path d="M352.831,74.311c-5.769-2.233-11.618-4.547-17.273-6.784c-14.005-5.54-28.488-11.269-42.986-16.263
					c-21.412-7.373-41.599-9.665-63.531-7.212c-12.064,1.35-21.999,3.704-31.264,7.406c-5.089,2.037-9.991,4.341-14.733,6.569
					c-1.508,0.709-3.022,1.47-4.484,2.206c-3.253,1.637-6.617,3.328-10.153,4.566c-2.408,0.844-10.611,1.065-14.555,1.172
					c-0.631,0.018-1.153,0.031-1.53,0.043l-0.875,0.032c-5.081,0.178-10.161,0.357-15.241,0.538
					c-10.747,0.38-21.496,0.765-32.241,1.152l-0.01-0.291c10.746-0.39,21.494-0.771,32.239-1.153
					c5.081-0.182,10.162-0.36,15.243-0.538l0.874-0.03c0.378-0.014,0.902-0.028,1.534-0.044c3.927-0.108,12.099-0.329,14.464-1.157
					c3.519-1.231,6.875-2.92,10.119-4.552c1.467-0.736,2.98-1.497,4.492-2.209c4.746-2.23,9.652-4.535,14.75-6.575
					c9.289-3.714,19.249-6.071,31.34-7.426c21.976-2.458,42.203-0.162,63.656,7.225c14.506,4.997,28.991,10.727,43,16.269
					c5.655,2.237,11.503,4.55,17.272,6.782L352.831,74.311z"/>
			</g>
		</g>
		<g>
			<g>
				<path d="M86.991,133.264l-0.098-0.276c1.011-0.359,1.984-0.73,2.895-1.104c0.936-0.384,1.762-0.75,2.526-1.122
					c0.751-0.363,1.417-0.72,2.04-1.089c0.613-0.364,1.182-0.746,1.689-1.131c0.495-0.379,0.924-0.753,1.31-1.146
					c0.406-0.412,0.766-0.844,1.066-1.286c0.287-0.423,0.533-0.866,0.728-1.319s0.354-0.945,0.472-1.459
					c0.165-0.736,0.253-1.538,0.265-2.449c0.007-0.448-0.004-0.914-0.035-1.423c-0.03-0.49-0.079-1.021-0.148-1.616
					c-0.088-0.747-0.202-1.537-0.371-2.564c-0.058-0.355-0.116-0.706-0.178-1.061c-0.098-0.567-0.193-1.124-0.291-1.679
					c-0.097-0.557-0.194-1.112-0.29-1.669c-0.122-0.715-0.242-1.428-0.362-2.143l-0.021-0.135c-0.411-2.465-0.804-4.881-1.169-7.185
					c-0.561-3.557-0.997-6.47-1.368-9.165c-0.207-1.503-0.439-3.251-0.575-4.989c-0.109-1.411-0.145-2.668-0.109-3.841
					c0.021-0.741,0.074-1.464,0.153-2.147c0.077-0.672,0.185-1.326,0.319-1.942c0.124-0.586,0.284-1.164,0.467-1.717
					c0.184-0.558,0.402-1.105,0.649-1.625c0.407-0.86,0.9-1.659,1.462-2.381c0.188-0.24,0.385-0.477,0.59-0.701
					c0.062-0.065,0.122-0.131,0.182-0.194c0.13-0.141,0.265-0.278,0.397-0.417c0.129-0.135,0.256-0.269,0.385-0.405
					c0.137-0.147,0.275-0.299,0.41-0.45c0.087-0.097,0.173-0.196,0.258-0.299c0.069-0.082,0.136-0.169,0.205-0.253l0.146-0.183
					c0.069-0.085,0.14-0.17,0.211-0.252c0.14-0.162,0.282-0.322,0.435-0.476l0.208,0.205c-0.146,0.149-0.286,0.305-0.422,0.462
					c-0.071,0.081-0.139,0.163-0.205,0.244l-0.144,0.182c-0.068,0.087-0.138,0.171-0.208,0.258
					c-0.087,0.103-0.177,0.206-0.265,0.306c-0.137,0.153-0.277,0.305-0.416,0.455c-0.128,0.138-0.258,0.272-0.389,0.407
					c-0.13,0.139-0.263,0.275-0.395,0.414c-0.061,0.066-0.118,0.13-0.177,0.193c-0.2,0.219-0.395,0.449-0.576,0.684
					c-0.55,0.703-1.03,1.486-1.429,2.327c-0.24,0.509-0.455,1.044-0.636,1.593c-0.181,0.542-0.335,1.109-0.46,1.686
					c-0.131,0.608-0.238,1.252-0.314,1.914c-0.078,0.676-0.128,1.389-0.149,2.121c-0.036,1.163-0.001,2.408,0.109,3.81
					c0.132,1.73,0.363,3.475,0.57,4.973c0.373,2.695,0.808,5.604,1.369,9.158c0.365,2.302,0.759,4.72,1.167,7.183l0.023,0.135
					c0.12,0.715,0.238,1.429,0.362,2.143c0.094,0.557,0.191,1.113,0.289,1.667c0.096,0.555,0.194,1.111,0.29,1.668
					c0.062,0.368,0.123,0.72,0.18,1.073c0.169,1.033,0.283,1.828,0.373,2.58c0.068,0.601,0.117,1.134,0.148,1.633
					c0.031,0.516,0.044,0.987,0.037,1.444c-0.013,0.933-0.103,1.752-0.274,2.508c-0.12,0.533-0.284,1.042-0.488,1.512
					c-0.202,0.469-0.455,0.93-0.752,1.368c-0.313,0.454-0.683,0.902-1.1,1.326c-0.396,0.402-0.835,0.786-1.341,1.173
					c-0.518,0.394-1.095,0.781-1.718,1.15c-0.63,0.374-1.303,0.733-2.063,1.103c-0.771,0.372-1.6,0.741-2.542,1.128
					C88.983,132.53,88.006,132.902,86.991,133.264z"/>
			</g>
		</g>
		<g>
			<g>
				<rect x="86.613" y="133.044" transform="matrix(0.3262 0.9453 -0.9453 0.3262 184.363 7.7299)" width="0.293" height="0.291"/>
			</g>
		</g>
		<g>
			<g>
				<path d="M84.41,134.125l-0.086-0.278c0.746-0.234,1.49-0.483,2.21-0.732l0.097,0.274C85.909,133.643,85.16,133.89,84.41,134.125
					z"/>
			</g>
		</g>
		<g>
			<g>
				<path d="M101.443,70.176l-0.21-0.203c0.05-0.053,0.098-0.108,0.141-0.166c0.047-0.062,0.087-0.126,0.123-0.192
					c0.077-0.14,0.142-0.296,0.19-0.467c0.102-0.346,0.132-0.721,0.089-1.083l0.289-0.035c0.048,0.401,0.014,0.816-0.097,1.199
					c-0.056,0.192-0.129,0.371-0.216,0.527c-0.042,0.076-0.091,0.152-0.146,0.226C101.558,70.049,101.502,70.114,101.443,70.176z"/>
			</g>
		</g>
		<g>
			<g>
				<path d="M102.064,68.027l-0.288,0.039c-0.701-5.31-1.662-10.66-2.857-15.9l0.285-0.063
					C100.4,57.351,101.364,62.708,102.064,68.027z"/>
			</g>
		</g>
		<g>
			<g>
				<path d="M98.919,52.17c-0.021-0.087-0.048-0.175-0.078-0.261c-0.028-0.079-0.062-0.159-0.098-0.239
					c-0.075-0.152-0.162-0.296-0.264-0.424c-0.099-0.13-0.209-0.241-0.326-0.329c-0.114-0.087-0.232-0.152-0.353-0.193l0.096-0.275
					c0.149,0.05,0.294,0.13,0.434,0.236c0.137,0.104,0.265,0.231,0.381,0.381c0.113,0.146,0.213,0.308,0.294,0.481
					c0.042,0.087,0.078,0.174,0.11,0.265c0.035,0.096,0.063,0.19,0.088,0.289L98.919,52.17z"/>
			</g>
		</g>
		<g>
			<g>
				<path d="M56.94,47.973c-0.053-0.001-0.106,0.001-0.161,0.005l-0.013-0.292c0.057-0.002,0.113-0.004,0.173-0.005L56.94,47.973z"
					/>
			</g>
		</g>
		<g>
			<g>
				<path d="M97.801,50.724c-0.335-0.114-0.673-0.225-1.009-0.331c-0.198-0.062-0.396-0.122-0.594-0.18l-0.32-0.093
					c-0.189-0.046-0.383-0.086-0.575-0.12c-0.234-0.04-0.47-0.07-0.705-0.095l-0.367-0.03c-0.288-0.023-0.577-0.046-0.863-0.066
					l-0.144-0.01c-1.894-0.14-3.788-0.286-5.682-0.433c-1.448-0.111-2.896-0.222-4.343-0.332c-0.847-0.063-1.694-0.125-2.543-0.188
					c-0.99-0.071-1.982-0.142-2.972-0.209c-2.227-0.148-4.235-0.271-6.147-0.371c-1.87-0.101-3.6-0.175-5.288-0.231
					c-3.402-0.109-6.417-0.132-9.214-0.066l-0.008-0.292c2.803-0.066,5.822-0.043,9.229,0.067c1.692,0.056,3.425,0.13,5.297,0.229
					c1.911,0.102,3.925,0.224,6.148,0.374c0.992,0.068,1.984,0.138,2.977,0.209c0.847,0.063,1.693,0.125,2.541,0.188
					c1.449,0.108,2.896,0.221,4.344,0.332c1.895,0.146,3.787,0.293,5.68,0.431l0.146,0.012c0.288,0.022,0.576,0.043,0.863,0.063
					l0.374,0.035c0.246,0.024,0.486,0.056,0.728,0.097c0.198,0.035,0.399,0.076,0.597,0.125l0.331,0.094
					c0.2,0.061,0.399,0.119,0.598,0.185c0.341,0.105,0.678,0.216,1.018,0.332L97.801,50.724z"/>
			</g>
		</g>
		<g>
			<g>
				<path d="M31.282,59.142c-0.432,0.014-0.726-0.067-0.93-0.26c-0.198-0.188-0.3-0.475-0.31-0.88l0.291-0.007
					c0.008,0.324,0.08,0.543,0.22,0.675c0.141,0.132,0.376,0.192,0.717,0.18L31.282,59.142z"/>
			</g>
		</g>
	</g>
</g>
</svg>
