<?xml version="1.0" encoding="utf-8"?>
<!-- Generator: Adobe Illustrator 16.0.0, SVG Export Plug-In . SVG Version: 6.00 Build 0)  -->
<!DOCTYPE svg PUBLIC "-//W3C//DTD SVG 1.1//EN" "http://www.w3.org/Graphics/SVG/1.1/DTD/svg11.dtd">
<svg version="1.1" xmlns="http://www.w3.org/2000/svg" xmlns:xlink="http://www.w3.org/1999/xlink" x="0px" y="0px"
	  viewBox="0 0 288.076 358" enable-background="new 0 0 288.076 358" xml:space="preserve"  fill="#fff">
<g id="bg">
</g>
<g id="Layer_1">
	<g>
		<g>
			<g>
				<path d="M231.238,301.635l0.205,0.088c-0.105,0.246-0.211,0.492-0.316,0.738l-0.203-0.088
					C231.029,302.129,231.135,301.881,231.238,301.635z"/>
			</g>
		</g>
		<g>
			<g>
				<path d="M230.924,302.373l0.203,0.088l-0.076,0.18c-0.072,0.168-0.145,0.336-0.219,0.504l-0.203-0.09
					c0.074-0.166,0.146-0.334,0.217-0.502L230.924,302.373z"/>
			</g>
		</g>
		<g>
			<g>
				<path d="M230.629,303.055l0.203,0.09l-0.096,0.225c-0.631,1.463-1.943,4.508-3.895,4.525l-0.002-0.223
					c1.807-0.016,3.127-3.082,3.691-4.391L230.629,303.055z"/>
			</g>
		</g>
		<g>
			<g>
				<path d="M224.174,307.787"/>
			</g>
		</g>
		<g>
			<g>
				<rect x="224.197" y="307.674" width="2.629" height="0.223"/>
			</g>
		</g>
		<g>
			<g>
				<path d="M57.654,303.055l0.098,0.227c0.563,1.309,1.885,4.375,3.693,4.391l-0.002,0.223c-1.955-0.018-3.266-3.063-3.896-4.525
					l-0.098-0.225L57.654,303.055z"/>
			</g>
		</g>
		<g>
			<g>
				<path d="M57.361,302.373l0.078,0.186c0.07,0.166,0.143,0.33,0.215,0.496l-0.205,0.09c-0.072-0.166-0.143-0.332-0.215-0.5
					l-0.078-0.184L57.361,302.373z"/>
			</g>
		</g>
		<g>
			<g>
				
					<rect x="56.699" y="301.936" transform="matrix(-0.3939 -0.9191 0.9191 -0.3939 -198.0322 473.514)" width="0.803" height="0.223"/>
			</g>
		</g>
		<g>
			<g>
				<rect x="61.459" y="307.674" width="2.629" height="0.223"/>
			</g>
		</g>
		<g>
			<g>
				<path d="M255.77,99.438c0.6,0.854,0.871,1.699,0.877,2.742h-0.223c-0.006-0.994-0.264-1.801-0.836-2.613L255.77,99.438z"/>
			</g>
		</g>
		<g>
			<g>
				<rect x="253.539" y="105.082" transform="matrix(-0.0058 -1 1 -0.0058 152.8575 362.3553)" width="6.027" height="0.223"/>
			</g>
		</g>
		<g>
			<g>
				<path d="M253.514,120.539c0.016,0.359,0.031,0.742,0.018,1.133l-0.223-0.008c0.016-0.383,0-0.76-0.018-1.115L253.514,120.539z"
					/>
			</g>
		</g>
		<g>
			<g>
				<polygon points="250.861,93.006 250.811,93.068 250.875,93.02 250.881,93.029 250.795,93.088 250.723,93.18 250.699,93.154 
					250.807,93.072 				"/>
			</g>
		</g>
		<g>
			<g>
				<path d="M175.781,55.086c14.668,1.611,28.057,5.592,40.934,12.166c6.408,3.271,12.334,7.023,18.113,11.471
					c2.748,2.113,5.512,4.436,8.215,6.902c0.07,0.063,6.99,6.385,7.811,7.369l-0.17,0.143c-0.813-0.973-7.721-7.285-7.789-7.348
					c-2.701-2.463-5.459-4.781-8.201-6.891c-5.77-4.438-11.684-8.182-18.078-11.447c-12.854-6.564-26.219-10.537-40.857-12.146
					L175.781,55.086z"/>
			</g>
		</g>
		<g>
			<g>
				<path d="M193.416,68.193c8.723,2.793,16.762,6.342,24.578,10.846c3.477,2.006,7.084,4.301,11.35,7.225
					c0.316,0.217,0.699,0.488,1.131,0.795c2.666,1.889,7.631,5.408,10.498,5.523l-0.01,0.221c-2.934-0.117-7.742-3.527-10.617-5.563
					c-0.432-0.307-0.813-0.576-1.127-0.793c-4.262-2.92-7.863-5.213-11.336-7.215c-7.801-4.498-15.826-8.039-24.535-10.828
					L193.416,68.193z"/>
			</g>
		</g>
		<g>
			<g>
				
					<rect x="250.499" y="107.056" transform="matrix(-0.852 -0.5235 0.5235 -0.852 408.8098 329.8834)" width="1.052" height="0.222"/>
			</g>
		</g>
		<g>
			<g>
				
					<rect x="249.558" y="108.659" transform="matrix(-0.8522 -0.5232 0.5232 -0.8522 407.3391 332.602)" width="2.173" height="0.223"/>
			</g>
		</g>
		<g>
			<g>
				<path d="M177.629,63.764c1.113,0.301,2.227,0.598,3.34,0.895c4.098,1.09,8.334,2.217,12.447,3.535l-0.068,0.211
					c-4.107-1.314-8.342-2.441-12.436-3.531c-1.113-0.297-2.227-0.594-3.34-0.895L177.629,63.764z"/>
			</g>
		</g>
		<g>
			<g>
				<path d="M175.898,63.287c0.576,0.162,1.154,0.32,1.732,0.477l-0.059,0.215c-0.578-0.156-1.156-0.314-1.732-0.477L175.898,63.287
					z"/>
			</g>
		</g>
		<g>
			<g>
				<path d="M171.283,61.709c1.586,0.693,3.221,1.186,4.613,1.578l-0.061,0.213c-1.398-0.393-3.043-0.889-4.643-1.588
					L171.283,61.709z"/>
			</g>
		</g>
		<g>
			<g>
				<path d="M249.014,105.986c0.559,0,0.818,0.26,0.818,0.82c0,0.559-0.26,0.818-0.818,0.818c-0.561,0-0.82-0.26-0.82-0.818
					C248.193,106.246,248.453,105.986,249.014,105.986z M249.014,107.402c0.439,0,0.596-0.156,0.596-0.596
					c0-0.441-0.156-0.598-0.596-0.598c-0.441,0-0.598,0.156-0.598,0.598C248.416,107.246,248.572,107.402,249.014,107.402z"/>
			</g>
		</g>
		<g>
			<g>
				<path d="M158.967,53.58c0.041,0.006,0.082,0.01,0.123,0.014c0.1,0.01,0.205,0.021,0.311,0.061l-0.076,0.207
					c-0.08-0.029-0.166-0.037-0.256-0.045c-0.045-0.006-0.09-0.01-0.135-0.016L158.967,53.58z"/>
			</g>
		</g>
		<g>
			<g>
				<path d="M159.402,53.654c0.475,0.182,0.943,0.197,1.441,0.213c0.189,0.006,0.381,0.012,0.572,0.027l-0.018,0.223
					c-0.188-0.016-0.375-0.021-0.563-0.027c-0.494-0.018-1.004-0.033-1.514-0.229L159.402,53.654z"/>
			</g>
		</g>
		<g>
			<g>
				<path d="M161.416,53.895c0.594,0.051,1.186,0.098,1.781,0.141l-0.018,0.221c-0.594-0.043-1.188-0.09-1.781-0.139L161.416,53.895
					z"/>
			</g>
		</g>
		<g>
			<g>
				<path d="M163.197,54.035l2.008,0.148c3.459,0.256,7.033,0.52,10.543,0.896l-0.023,0.223c-3.506-0.379-7.08-0.643-10.535-0.896
					l-2.01-0.15L163.197,54.035z"/>
			</g>
		</g>
		<g>
			<g>
				<path d="M175.736,55.191c0.008,0,0.014,0.002,0.021,0.002"/>
			</g>
		</g>
		<g>
			<g>
				<path d="M249.014,105.131c0.922,0,1.674,0.75,1.676,1.676h-0.223c0-0.803-0.652-1.455-1.453-1.455
					c-0.801,0.002-1.453,0.654-1.455,1.455h-0.223C247.338,105.883,248.09,105.131,249.014,105.131z"/>
			</g>
		</g>
		<g>
			<g>
				<path d="M151.883,53.533c2.346,0.006,4.723,0.02,7.066,0.045l-0.002,0.223c-2.344-0.025-4.721-0.041-7.064-0.045V53.533z"/>
			</g>
		</g>
		<g>
			<g>
				<path d="M250.879,93.025c1.705,2.07,3.35,4.227,4.891,6.412l-0.182,0.129c-1.537-2.182-3.18-4.334-4.881-6.4L250.879,93.025z"/>
			</g>
		</g>
		<g>
			<g>
				<path d="M247.336,106.807h0.223c0,0.801,0.652,1.453,1.453,1.453c0.803,0,1.455-0.652,1.455-1.453h0.223
					c0,0.924-0.752,1.676-1.678,1.676C248.088,108.482,247.336,107.73,247.336,106.807z"/>
			</g>
		</g>
		<g>
			<g>
				
					<rect x="165.439" y="63.32" transform="matrix(-0.0295 -0.9996 0.9996 -0.0295 108.8227 232.5226)" width="3.709" height="0.223"/>
			</g>
		</g>
		<g>
			<g>
				<rect x="158.463" y="69.143" width="2.363" height="0.223"/>
			</g>
		</g>
		<g>
			<g>
				<path d="M164.664,64.453c0.027,0,0.053,0.01,0.074,0.031c0.076,0.074,0.02,0.148-0.051,0.242
					c-0.023,0.031-0.068,0.092-0.076,0.111c-0.029,0.07-0.055,0.141-0.078,0.215c-0.047,0.148-0.088,0.299-0.127,0.451l-0.215-0.057
					c0.041-0.154,0.082-0.309,0.131-0.463c0.025-0.078,0.051-0.156,0.084-0.232c0.016-0.039,0.051-0.09,0.104-0.158
					c0.021-0.029,0.043-0.057,0.051-0.07l0.031,0.018l-0.037-0.041C164.594,64.469,164.631,64.453,164.664,64.453z"/>
			</g>
		</g>
		<g>
			<g>
				<path d="M164.191,65.451l0.215,0.055c-0.127,0.492-0.258,0.926-0.398,1.33l-0.209-0.072
					C163.938,66.365,164.064,65.936,164.191,65.451z"/>
			</g>
		</g>
		<g>
			<g>
				<path d="M163.797,66.766l0.211,0.07c-0.035,0.102-0.072,0.203-0.109,0.305l-0.209-0.078
					C163.727,66.963,163.764,66.863,163.797,66.766z"/>
			</g>
		</g>
		<g>
			<g>
				<path d="M163.689,67.061l0.209,0.08c-0.16,0.414-0.35,0.852-0.648,1.252l-0.178-0.135
					C163.355,67.881,163.537,67.461,163.689,67.061z"/>
			</g>
		</g>
		<g>
			<g>
				<path d="M163.072,68.26l0.178,0.133c-0.242,0.324-0.512,0.549-0.85,0.709l-0.096-0.201
					C162.613,68.754,162.85,68.557,163.072,68.26z"/>
			</g>
		</g>
		<g>
			<g>
				<path d="M162.305,68.902l0.094,0.201c-0.152,0.07-0.309,0.125-0.473,0.164l-0.051-0.217
					C162.023,69.016,162.164,68.967,162.305,68.902z"/>
			</g>
		</g>
		<g>
			<g>
				<path d="M161.867,69.053l0.051,0.217c-0.34,0.08-0.672,0.102-1.064,0.096l0.002-0.223c0.006,0,0.01,0,0.016,0
					C161.24,69.143,161.553,69.127,161.867,69.053z"/>
			</g>
		</g>
		<g>
			<g>
				<path d="M153.301,61.236l0.061,0.357c0.207,1.238,0.402,2.406,0.93,3.551l-0.201,0.092c-0.539-1.17-0.746-2.408-0.947-3.605
					l-0.061-0.357L153.301,61.236z"/>
			</g>
		</g>
		<g>
			<g>
				
					<rect x="250.084" y="104.171" transform="matrix(-0.6289 -0.7774 0.7774 -0.6289 326.0154 365.3593)" width="0.224" height="1.42"/>
			</g>
		</g>
		<g>
			<g>
				
					<rect x="251.009" y="105.476" transform="matrix(-0.6332 -0.774 0.774 -0.6332 327.9852 367.7203)" width="0.222" height="1.344"/>
			</g>
		</g>
		<g>
			<g>
				<path d="M163.957,66.729c5.205,3.395,10.955,4.736,16.518,6.031c1.764,0.412,3.588,0.836,5.377,1.322
					c7.9,2.141,15.039,4.766,21.83,8.025c6.6,3.168,13.115,7.094,19.92,12.004c0.789,0.568,1.572,1.166,2.332,1.742
					c2.26,1.717,4.596,3.494,7.289,4.734c1.873,0.861,3.648,0.928,5.906,0.752c0.639-0.049,1.277-0.092,1.916-0.133
					c0.307-0.02,0.613-0.055,0.912-0.09c0.877-0.1,1.781-0.203,2.732,0.082l-0.064,0.213c-0.906-0.271-1.75-0.176-2.643-0.072
					c-0.301,0.033-0.611,0.068-0.924,0.088c-0.637,0.043-1.275,0.084-1.912,0.133c-2.295,0.178-4.102,0.111-6.016-0.771
					c-2.717-1.25-5.063-3.033-7.332-4.758c-0.758-0.576-1.541-1.172-2.326-1.738c-6.795-4.902-13.299-8.824-19.889-11.986
					c-6.775-3.252-13.904-5.873-21.791-8.01c-1.785-0.484-3.607-0.91-5.369-1.32c-5.58-1.301-11.352-2.645-16.588-6.063
					L163.957,66.729z"/>
			</g>
		</g>
		<g>
			<g>
				<path d="M254.371,106.982c0.242,0.162,0.486,0.316,0.732,0.473l0.201,0.127l-0.117,0.188l-0.203-0.127
					c-0.246-0.156-0.494-0.313-0.736-0.475L254.371,106.982z"/>
			</g>
		</g>
		<g>
			<g>
				<path d="M149.75,61.133c19.109,0,35.916,0.328,54.986,7.807c9.73,3.816,18.449,8.775,26.658,15.16
					c4.121,3.207,7.85,6.578,11.404,10.309c1.773,1.863,3.486,3.805,5.092,5.77c0.16,0.195,0.426,0.539,0.756,0.965
					c1.162,1.502,3.326,4.299,4.17,4.842l-0.121,0.188c-0.875-0.564-2.973-3.273-4.225-4.893c-0.328-0.424-0.592-0.766-0.752-0.961
					c-1.602-1.961-3.311-3.898-5.082-5.756c-3.545-3.723-7.268-7.088-11.379-10.287c-8.191-6.373-16.893-11.322-26.604-15.129
					c-19.938-7.82-37.418-7.799-57.65-7.789l-2.863,0.002v-0.223l2.861-0.002C147.924,61.135,148.84,61.133,149.75,61.133z"/>
			</g>
		</g>
		<g>
			<g>
				<path d="M249.588,105.348c-0.008,0-0.014-0.002-0.021-0.004"/>
			</g>
		</g>
		<g>
			<g>
				<path d="M256.459,108.205l0.223,0.006c0,0.01,0.004,0.027,0.006,0.045c0.014,0.061,0.045,0.199-0.109,0.283
					c-0.15,0.082-0.355-0.078-0.393-0.127l-0.059-0.072l0.059-0.078c0.043-0.049,0.104-0.051,0.18-0.002l-0.008,0.014
					c0.023,0.023,0.098,0.078,0.125,0.066c-0.004,0-0.008-0.021-0.012-0.037C256.465,108.275,256.457,108.242,256.459,108.205z"/>
			</g>
		</g>
		<g>
			<g>
				<path d="M250.568,106.623c0,0.006,0,0.012,0,0.018"/>
			</g>
		</g>
		<g>
			<g>
				<path d="M154.67,65.871c0.771,1.395,2,3.252,3.748,3.271l-0.002,0.223c-1.865-0.021-3.143-1.943-3.941-3.387L154.67,65.871z"/>
			</g>
		</g>
		<g>
			<g>
				<path d="M154.328,65.221c0.109,0.219,0.223,0.436,0.342,0.65l-0.195,0.107c-0.119-0.217-0.234-0.438-0.346-0.66L154.328,65.221z
					"/>
			</g>
		</g>
		<g>
			<g>
				<path d="M32.516,99.438l0.18,0.129c-0.572,0.814-0.83,1.621-0.836,2.613h-0.223C31.643,101.137,31.914,100.291,32.516,99.438z"
					/>
			</g>
		</g>
		<g>
			<g>
				<rect x="31.619" y="102.18" width="0.223" height="6.027"/>
			</g>
		</g>
		<g>
			<g>
				<path d="M39.271,105.986c0.559,0,0.818,0.26,0.818,0.82c0,0.559-0.26,0.818-0.818,0.818c-0.561,0-0.82-0.26-0.82-0.818
					C38.451,106.246,38.711,105.986,39.271,105.986z M39.271,107.402c0.439,0,0.596-0.156,0.596-0.596
					c0-0.441-0.156-0.598-0.596-0.598c-0.441,0-0.6,0.156-0.6,0.598C38.672,107.246,38.83,107.402,39.271,107.402z"/>
			</g>
		</g>
		<g>
			<g>
				<polygon points="31.604,108.207 31.824,108.207 31.604,108.207 				"/>
			</g>
		</g>
		<g>
			<g>
				<path d="M112.502,55.086l0.023,0.219c-14.639,1.609-28.002,5.582-40.855,12.146c-6.396,3.266-12.311,7.01-18.078,11.447
					c-2.74,2.107-5.5,4.424-8.203,6.891c-1.465,1.336-7.08,6.5-7.787,7.348l-0.172-0.143c0.824-0.988,7.74-7.307,7.809-7.369
					c2.709-2.471,5.473-4.793,8.217-6.902c5.779-4.445,11.705-8.197,18.113-11.471C84.447,60.676,97.836,56.697,112.502,55.086z"/>
			</g>
		</g>
		<g>
			<g>
				<path d="M94.867,68.193l0.068,0.211c-8.711,2.789-16.736,6.332-24.533,10.828c-3.484,2.008-7.086,4.301-11.338,7.215
					c-0.313,0.215-0.693,0.484-1.125,0.789c-2.873,2.039-7.686,5.449-10.619,5.566l-0.008-0.221c2.867-0.115,7.832-3.635,10.5-5.525
					c0.432-0.307,0.813-0.576,1.127-0.793c4.256-2.918,7.863-5.213,11.352-7.225C78.102,74.535,86.143,70.986,94.867,68.193z"/>
			</g>
		</g>
		<g>
			<g>
				<path d="M110.652,63.764l0.059,0.215c-1.117,0.303-2.236,0.6-3.355,0.898c-4.088,1.088-8.316,2.213-12.42,3.527l-0.068-0.211
					c4.109-1.316,8.34-2.441,12.432-3.531C108.416,64.363,109.535,64.066,110.652,63.764z"/>
			</g>
		</g>
		<g>
			<g>
				<path d="M112.385,63.287l0.059,0.215c-0.576,0.162-1.154,0.32-1.732,0.477l-0.059-0.215
					C111.23,63.607,111.809,63.449,112.385,63.287z"/>
			</g>
		</g>
		<g>
			<g>
				<path d="M39.271,105.131c0.924,0,1.676,0.752,1.676,1.676h-0.223c0-0.801-0.652-1.453-1.453-1.455
					c-0.803,0-1.455,0.652-1.455,1.455h-0.223C37.594,105.881,38.346,105.131,39.271,105.131z"/>
			</g>
		</g>
		<g>
			<g>
				<path d="M117,61.709l0.09,0.203c-1.598,0.699-3.244,1.195-4.641,1.588l-0.061-0.213C113.779,62.895,115.414,62.402,117,61.709z"
					/>
			</g>
		</g>
		<g>
			<g>
				<path d="M129.316,53.58l0.033,0.221c-0.045,0.006-0.09,0.01-0.135,0.016c-0.09,0.008-0.176,0.016-0.254,0.045l-0.078-0.207
					c0.107-0.039,0.211-0.051,0.311-0.061C129.234,53.59,129.275,53.586,129.316,53.58z"/>
			</g>
		</g>
		<g>
			<g>
				<path d="M37.594,106.807h0.223c0,0.801,0.652,1.453,1.455,1.453c0.801,0,1.453-0.652,1.453-1.453h0.223
					c0,0.924-0.752,1.676-1.676,1.676C38.346,108.482,37.594,107.73,37.594,106.807z"/>
			</g>
		</g>
		<g>
			<g>
				<path d="M128.883,53.654l0.078,0.207c-0.508,0.195-1.02,0.211-1.514,0.229c-0.186,0.006-0.373,0.012-0.561,0.027l-0.02-0.223
					c0.191-0.016,0.383-0.021,0.574-0.027C127.938,53.852,128.408,53.836,128.883,53.654z"/>
			</g>
		</g>
		<g>
			<g>
				<path d="M126.867,53.895l0.02,0.223c-0.596,0.049-1.189,0.096-1.783,0.139l-0.016-0.221
					C125.68,53.992,126.275,53.945,126.867,53.895z"/>
			</g>
		</g>
		<g>
			<g>
				<path d="M125.088,54.035l0.016,0.221l-2.008,0.15c-3.457,0.254-7.029,0.518-10.535,0.896l-0.023-0.223
					c3.508-0.377,7.084-0.641,10.543-0.896L125.088,54.035z"/>
			</g>
		</g>
		<g>
			<g>
				<path d="M112.525,55.193c0.008,0,0.016-0.002,0.023-0.002"/>
			</g>
		</g>
		<g>
			<g>
				<path d="M136.4,53.533v0.223c-2.344,0.004-4.721,0.02-7.064,0.045l-0.002-0.223C131.678,53.553,134.055,53.539,136.4,53.533z"/>
			</g>
		</g>
		<g>
			<g>
				<path d="M37.406,93.025l0.172,0.141c-1.693,2.055-3.336,4.207-4.881,6.4l-0.182-0.129
					C34.064,97.242,35.709,95.084,37.406,93.025z"/>
			</g>
		</g>
		<g>
			<g>
				
					<rect x="120.879" y="61.577" transform="matrix(-0.9994 -0.0351 0.0351 -0.9994 239.6817 131.067)" width="0.223" height="3.709"/>
			</g>
		</g>
		<g>
			<g>
				<rect x="127.457" y="69.143" width="2.363" height="0.223"/>
			</g>
		</g>
		<g>
			<g>
				<path d="M123.738,64.508c0.225,0.221,0.268,0.471,0.309,0.713c0.014,0.076,0.025,0.152,0.045,0.227l-0.215,0.057
					c-0.021-0.082-0.035-0.164-0.049-0.246c-0.039-0.225-0.072-0.42-0.246-0.59L123.738,64.508z"/>
			</g>
		</g>
		<g>
			<g>
				<path d="M124.094,65.451c0.127,0.494,0.256,0.924,0.391,1.313l-0.209,0.072c-0.139-0.395-0.268-0.83-0.396-1.33L124.094,65.451z
					"/>
			</g>
		</g>
		<g>
			<g>
				
					<rect x="37.378" y="104.771" transform="matrix(-0.7756 -0.6312 0.6312 -0.7756 1.4263 210.2707)" width="1.42" height="0.222"/>
			</g>
		</g>
		<g>
			<g>
				
					<rect x="36.491" y="106.036" transform="matrix(-0.7753 -0.6316 0.6316 -0.7753 -1.0623 211.917)" width="1.345" height="0.222"/>
			</g>
		</g>
		<g>
			<g>
				<path d="M124.484,66.764c0.035,0.1,0.072,0.199,0.109,0.297l-0.207,0.08c-0.039-0.102-0.076-0.201-0.111-0.305L124.484,66.764z"
					/>
			</g>
		</g>
		<g>
			<g>
				<path d="M124.594,67.061c0.178,0.463,0.352,0.844,0.617,1.197l-0.178,0.135c-0.297-0.396-0.486-0.836-0.646-1.252
					L124.594,67.061z"/>
			</g>
		</g>
		<g>
			<g>
				<path d="M125.211,68.258c0.225,0.299,0.461,0.498,0.766,0.643l-0.096,0.201c-0.334-0.16-0.605-0.385-0.848-0.709L125.211,68.258
					z"/>
			</g>
		</g>
		<g>
			<g>
				<polygon points="38.689,105.236 38.691,105.271 38.75,105.449 38.703,105.459 38.682,105.238 38.691,105.271 				"/>
			</g>
		</g>
		<g>
			<g>
				<path d="M125.979,68.902c0.141,0.064,0.281,0.113,0.432,0.148l-0.051,0.217c-0.164-0.039-0.32-0.094-0.475-0.164L125.979,68.902
					z"/>
			</g>
		</g>
		<g>
			<g>
				<path d="M37.715,106.625c0,0.006,0,0.012,0,0.016"/>
			</g>
		</g>
		<g>
			<g>
				<polygon points="37.604,106.623 37.826,106.623 37.604,106.629 				"/>
			</g>
		</g>
		<g>
			<g>
				<path d="M126.416,69.053c0.316,0.074,0.627,0.09,0.996,0.09c0.006,0,0.012,0,0.018,0v0.223c-0.006,0-0.012,0-0.018,0
					c-0.383,0-0.711-0.018-1.047-0.096L126.416,69.053z"/>
			</g>
		</g>
		<g>
			<g>
				<path d="M134.982,61.236l0.219,0.037l-0.061,0.354c-0.199,1.199-0.406,2.438-0.945,3.609l-0.203-0.092
					c0.527-1.146,0.723-2.316,0.93-3.555L134.982,61.236z"/>
			</g>
		</g>
		<g>
			<g>
				<path d="M31.824,108.207c0.002,0.035-0.006,0.066-0.012,0.096c-0.004,0.014-0.008,0.037-0.008,0.043
					c0.023-0.004,0.1-0.049,0.123-0.074l-0.01-0.012c0.076-0.049,0.137-0.047,0.18,0.002l0.002,0.15
					c-0.039,0.049-0.244,0.209-0.396,0.127c-0.152-0.084-0.121-0.225-0.107-0.285c0.004-0.018,0.008-0.035,0.008-0.045
					L31.824,108.207z"/>
			</g>
		</g>
		<g>
			<g>
				<path d="M33.912,106.982l0.123,0.186c-0.24,0.16-0.486,0.316-0.732,0.471l-0.207,0.131l-0.119-0.188l0.207-0.131
					C33.428,107.297,33.672,107.143,33.912,106.982z"/>
			</g>
		</g>
		<g>
			<g>
				<path d="M124.328,66.729l0.121,0.186c-5.238,3.418-11.01,4.762-16.59,6.063c-1.762,0.41-3.582,0.836-5.369,1.32
					c-7.889,2.139-15.016,4.758-21.791,8.01c-6.592,3.164-13.096,7.084-19.887,11.986c-0.789,0.568-1.574,1.164-2.332,1.74
					c-2.268,1.725-4.613,3.508-7.328,4.756c-1.914,0.883-3.721,0.949-6.016,0.771c-0.637-0.049-1.275-0.09-1.914-0.133
					c-0.311-0.02-0.621-0.055-0.922-0.088c-0.893-0.104-1.736-0.199-2.643,0.072l-0.064-0.213c0.951-0.285,1.857-0.182,2.732-0.082
					c0.299,0.035,0.605,0.07,0.912,0.09c0.639,0.041,1.277,0.084,1.916,0.133c2.26,0.176,4.035,0.109,5.906-0.752
					c2.691-1.24,5.027-3.016,7.285-4.73c0.76-0.578,1.547-1.176,2.336-1.746c6.803-4.908,13.318-8.836,19.92-12.004
					c6.789-3.26,13.93-5.883,21.832-8.025c1.789-0.486,3.613-0.91,5.377-1.322C113.371,71.465,119.121,70.123,124.328,66.729z"/>
			</g>
		</g>
		<g>
			<g>
				<path d="M34.771,120.539l0.223,0.01c-0.018,0.357-0.033,0.736-0.02,1.115l-0.221,0.008
					C34.738,121.283,34.754,120.9,34.771,120.539z"/>
			</g>
		</g>
		<g>
			<g>
				<path d="M138.533,61.133c0.912,0,1.824,0.002,2.748,0.002l2.859,0.002v0.223l-2.859-0.002
					c-20.248-0.01-37.715-0.031-57.652,7.789c-9.709,3.807-18.41,8.756-26.604,15.129c-4.109,3.199-7.832,6.563-11.379,10.287
					c-1.766,1.854-3.475,3.789-5.082,5.756c-0.16,0.197-0.43,0.545-0.762,0.975c-1.25,1.615-3.342,4.316-4.215,4.879l-0.119-0.188
					c0.84-0.541,2.998-3.33,4.158-4.828c0.334-0.432,0.604-0.781,0.766-0.979c1.609-1.971,3.322-3.912,5.094-5.77
					c3.555-3.73,7.285-7.104,11.402-10.309c8.209-6.387,16.93-11.346,26.66-15.16C102.615,61.461,119.426,61.133,138.533,61.133z"/>
			</g>
		</g>
		<g>
			<g>
				<path d="M133.613,65.871l0.195,0.107c-0.799,1.443-2.078,3.365-3.941,3.387l-0.004-0.223
					C131.611,69.123,132.842,67.266,133.613,65.871z"/>
			</g>
		</g>
		<g>
			<g>
				<path d="M133.955,65.221l0.199,0.098c-0.109,0.223-0.225,0.443-0.346,0.66l-0.195-0.107
					C133.732,65.656,133.846,65.439,133.955,65.221z"/>
			</g>
		</g>
		<g>
			<g>
				
					<rect x="37.147" y="106.641" transform="matrix(-0.5261 -0.8505 0.8505 -0.5261 -34.2815 195.2293)" width="0.223" height="1.052"/>
			</g>
		</g>
		<g>
			<g>
				
					<rect x="37.527" y="107.684" transform="matrix(-0.5261 -0.8505 0.8505 -0.5261 -35.0655 197.9994)" width="0.223" height="2.173"/>
			</g>
		</g>
		<g>
			<g>
				<path d="M248.834,253.076l0.215,0.059c-4.164,14.77-9.758,30.207-17.605,48.588l-0.205-0.088
					C239.084,283.264,244.674,267.834,248.834,253.076z"/>
			</g>
		</g>
		<g>
			<g>
				
					<rect x="32.024" y="109.102" transform="matrix(-0.5261 -0.8505 0.8505 -0.5261 -44.1268 194.5102)" width="0.223" height="0.897"/>
			</g>
		</g>
		<g>
			<g>
				<path d="M36.619,106.719l0.223,0.012c-0.168,3.432-0.371,7.102-0.623,11.217c-0.27,4.416-0.566,8.906-0.854,13.248
					c-0.471,7.123-0.957,14.49-1.338,21.74c-0.428,8.129-0.674,15.246-0.75,21.758c-0.094,7.801,0.045,14.91,0.424,21.734
					c0.193,3.486,0.451,6.898,0.764,10.143c0.305,3.17,0.688,6.447,1.139,9.738c0.516,3.764,1.141,7.676,1.859,11.627
					c0.715,3.914,1.521,7.865,2.398,11.746c0.221,0.979,0.445,1.957,0.678,2.936c0.574,2.141,1.17,4.23,1.766,6.211
					c0.576,1.908,1.205,3.881,1.869,5.863c1.383,4.123,2.926,8.311,4.715,12.801c1.588,3.984,3.289,8,5.201,12.279
					c1.115,2.498,2.277,5.025,3.549,7.727c0.563,1.191,1.129,2.381,1.701,3.566c0.352,0.73,0.707,1.461,1.063,2.189
					c0.154,0.318,0.311,0.639,0.467,0.957l0.672,1.367c0.115,0.236,0.227,0.473,0.336,0.711c0.48,1.039,0.92,2.105,1.307,3.168
					c0.381,1.041,0.691,2.018,0.951,2.986c0.123,0.459,0.232,0.914,0.324,1.35c0.094,0.441,0.166,0.848,0.221,1.246
					c0.051,0.373,0.082,0.709,0.096,1.025c0.006,0.143,0.008,0.283,0.004,0.426c-0.002,0.133-0.012,0.266-0.027,0.398
					c-0.014,0.119-0.035,0.234-0.061,0.344c-0.025,0.104-0.057,0.193-0.094,0.277c-0.035,0.084-0.082,0.16-0.135,0.221
					c-0.057,0.063-0.121,0.109-0.191,0.137c-0.031,0.014-0.07,0.023-0.111,0.027c-0.051,0.006-0.105,0.004-0.16-0.01
					c-0.076-0.016-0.154-0.047-0.242-0.102c-0.084-0.051-0.166-0.117-0.256-0.199c-0.086-0.082-0.174-0.176-0.273-0.295
					c-0.105-0.129-0.211-0.268-0.32-0.43c-0.111-0.162-0.217-0.328-0.318-0.498c-0.117-0.193-0.23-0.393-0.34-0.592
					c-0.123-0.225-0.24-0.451-0.357-0.682c-0.199-0.4-0.402-0.826-0.617-1.305c-0.107-0.236-0.213-0.477-0.316-0.717l-0.189-0.443
					c-0.264-0.619-0.525-1.238-0.785-1.857c-0.955-2.262-1.889-4.52-2.781-6.711c-0.943-2.324-1.805-4.482-2.629-6.596
					c-1.283-3.283-2.51-6.535-3.646-9.666c-0.9-2.479-1.764-4.941-2.57-7.316c-0.85-2.504-1.662-4.988-2.412-7.387
					c-0.568-1.811-1.141-3.691-1.699-5.596c-0.613-2.094-1.207-4.207-1.764-6.277c-0.754-2.805-1.479-5.668-2.16-8.547
					c0-0.006-0.002-0.012-0.004-0.018l0,0c-0.23-0.973-0.455-1.947-0.676-2.922c-0.875-3.883-1.684-7.838-2.398-11.756
					c-0.719-3.953-1.346-7.869-1.861-11.635c-0.451-3.295-0.834-6.574-1.139-9.748c-0.313-3.248-0.57-6.662-0.766-10.15
					c-0.377-6.83-0.516-13.945-0.424-21.752c0.078-6.514,0.322-13.633,0.75-21.766c0.381-7.252,0.869-14.619,1.34-21.744
					c0.287-4.342,0.584-8.83,0.854-13.246C36.25,113.818,36.453,110.15,36.619,106.719z M64.111,307.676
					c0.008,0,0.016,0,0.023-0.002c0.021-0.002,0.039-0.006,0.055-0.012c0.039-0.016,0.074-0.043,0.105-0.08
					c0.039-0.041,0.072-0.096,0.1-0.16c0.033-0.074,0.059-0.152,0.08-0.244c0.025-0.1,0.045-0.205,0.059-0.314
					c0.014-0.127,0.021-0.252,0.025-0.379c0.002-0.137,0-0.273-0.006-0.412c-0.012-0.309-0.043-0.637-0.094-1.004
					c-0.053-0.393-0.125-0.795-0.217-1.229s-0.199-0.885-0.322-1.34c-0.258-0.961-0.566-1.932-0.945-2.967
					c-0.385-1.057-0.822-2.117-1.299-3.15c-0.109-0.236-0.221-0.473-0.336-0.707l-0.67-1.367c-0.156-0.318-0.313-0.639-0.467-0.957
					c-0.357-0.729-0.711-1.459-1.063-2.189c-0.572-1.188-1.139-2.379-1.703-3.57c-1.273-2.701-2.434-5.229-3.551-7.729
					c-1.914-4.283-3.615-8.303-5.205-12.287c-1.791-4.496-3.334-8.688-4.719-12.814c-0.652-1.945-1.27-3.883-1.838-5.762
					c0.189,0.723,0.379,1.443,0.572,2.158c0.557,2.07,1.15,4.182,1.764,6.273c0.557,1.902,1.127,3.783,1.695,5.592
					c0.752,2.396,1.563,4.881,2.41,7.383c0.807,2.373,1.672,4.834,2.57,7.311c1.137,3.129,2.361,6.381,3.645,9.662
					c0.824,2.111,1.684,4.27,2.629,6.592c0.891,2.189,1.824,4.447,2.777,6.709c0.262,0.619,0.523,1.238,0.787,1.857l0.188,0.443
					c0.104,0.238,0.209,0.475,0.316,0.713c0.213,0.475,0.414,0.898,0.613,1.295c0.113,0.227,0.23,0.453,0.354,0.676
					c0.107,0.197,0.219,0.391,0.334,0.584c0.1,0.164,0.203,0.328,0.313,0.486c0.105,0.154,0.207,0.291,0.309,0.414
					c0.092,0.111,0.174,0.197,0.254,0.273c0.078,0.072,0.148,0.129,0.219,0.172c0.066,0.039,0.123,0.064,0.174,0.074
					C64.068,307.674,64.09,307.676,64.111,307.676z"/>
			</g>
		</g>
		<g>
			<g>
				
					<rect x="35.061" y="105.853" transform="matrix(-0.5261 -0.8505 0.8505 -0.5261 -37.9033 194.2422)" width="0.223" height="3.658"/>
			</g>
		</g>
		<g>
			<g>
				
					<rect x="32.955" y="108.335" transform="matrix(-0.5261 -0.8505 0.8505 -0.5261 -42.2199 194.4284)" width="0.223" height="1.288"/>
			</g>
		</g>
		<g>
			<g>
				<path d="M258.621,201.33l0.223,0.02c-0.111,1.299-0.234,2.615-0.367,3.916l-0.221-0.021
					C258.387,203.943,258.51,202.627,258.621,201.33z"/>
			</g>
		</g>
		<g>
			<g>
				
					<rect x="255.701" y="109.439" transform="matrix(-0.8507 -0.5257 0.5257 -0.8507 416.4611 337.3956)" width="0.895" height="0.223"/>
			</g>
		</g>
		<g>
			<g>
				<path d="M247.75,242.596l0.215,0.057c-0.576,2.145-1.172,4.244-1.773,6.238c-0.586,1.939-1.215,3.914-1.871,5.871
					c-1.387,4.133-2.93,8.324-4.719,12.814c-1.568,3.934-3.318,8.066-5.205,12.287c-1.113,2.496-2.311,5.096-3.553,7.729
					c-0.561,1.191-1.129,2.383-1.701,3.57c-0.352,0.73-0.705,1.461-1.061,2.189l-1.141,2.324c-0.113,0.234-0.225,0.469-0.332,0.707
					c-0.484,1.043-0.932,2.131-1.33,3.23c-0.385,1.059-0.695,2.051-0.955,3.033c-0.131,0.508-0.238,0.963-0.322,1.391
					c-0.092,0.449-0.158,0.857-0.207,1.252c-0.047,0.398-0.07,0.729-0.07,1.039c-0.002,0.289,0.016,0.523,0.059,0.734
					c0.02,0.107,0.045,0.199,0.074,0.281c0.033,0.09,0.066,0.156,0.109,0.211c0.031,0.043,0.064,0.074,0.1,0.094
					c0.033,0.018,0.063,0.023,0.107,0.027l0.002,0.223c-0.078-0.002-0.15-0.02-0.217-0.057c-0.064-0.035-0.121-0.086-0.172-0.154
					c-0.053-0.072-0.098-0.158-0.139-0.27c-0.033-0.092-0.061-0.193-0.084-0.313c-0.045-0.227-0.064-0.475-0.063-0.779
					c0.002-0.318,0.023-0.656,0.074-1.064c0.047-0.398,0.115-0.814,0.207-1.268c0.086-0.434,0.193-0.893,0.326-1.404
					c0.26-0.988,0.574-1.986,0.961-3.053c0.402-1.105,0.852-2.199,1.336-3.248c0.109-0.238,0.223-0.475,0.336-0.711l1.141-2.324
					c0.354-0.729,0.707-1.459,1.061-2.189c0.57-1.186,1.139-2.375,1.701-3.566c1.24-2.631,2.436-5.23,3.551-7.727
					c1.883-4.217,3.633-8.348,5.199-12.279c1.787-4.486,3.33-8.674,4.715-12.801c0.656-1.955,1.285-3.928,1.869-5.863
					C246.578,246.834,247.176,244.736,247.75,242.596z"/>
			</g>
		</g>
		<g>
			<g>
				<path d="M243.553,258.346l0.213,0.064c-1.395,4.705-2.969,9.588-4.68,14.514c-1.766,5.076-3.678,10.225-5.848,15.738
					c-1.061,2.695-2.199,5.514-3.383,8.379c-0.736,1.781-1.51,3.623-2.295,5.471c-0.129,0.307-0.26,0.613-0.393,0.918
					c-0.125,0.279-0.25,0.557-0.379,0.834c-0.275,0.588-0.531,1.098-0.785,1.559c-0.107,0.197-0.219,0.393-0.336,0.586
					c-0.117,0.191-0.229,0.363-0.344,0.525c-0.113,0.162-0.215,0.293-0.316,0.412c-0.09,0.105-0.178,0.195-0.271,0.277
					c-0.1,0.09-0.195,0.158-0.293,0.205c-0.098,0.049-0.184,0.07-0.27,0.07v-0.223c0.051,0,0.105-0.016,0.174-0.047
					c0.078-0.039,0.154-0.094,0.242-0.172c0.084-0.074,0.166-0.158,0.248-0.256c0.098-0.113,0.195-0.238,0.305-0.396
					c0.111-0.158,0.221-0.326,0.334-0.514c0.117-0.188,0.227-0.381,0.334-0.576c0.25-0.455,0.504-0.961,0.777-1.547
					c0.129-0.273,0.254-0.551,0.377-0.828c0.133-0.303,0.262-0.609,0.391-0.914c0.787-1.848,1.559-3.688,2.295-5.471
					c1.184-2.863,2.32-5.682,3.381-8.375c2.17-5.51,4.08-10.654,5.846-15.73C240.586,267.93,242.16,263.049,243.553,258.346z"/>
			</g>
		</g>
		<g>
			<g>
				<path d="M251.662,106.719c0.178,3.621,0.396,7.512,0.666,11.895c0.258,4.199,0.541,8.469,0.813,12.598
					c0.354,5.334,0.717,10.85,1.035,16.275c0.361,6.203,0.613,11.389,0.787,16.318c0.219,6.121,0.314,11.684,0.289,17.008
					c-0.01,2.576-0.049,5.094-0.115,7.48c-0.066,2.52-0.168,5.031-0.297,7.469c-0.164,3.113-0.381,6.189-0.645,9.143
					c-0.176,1.988-0.385,4.029-0.617,6.066c-0.291,2.531-0.629,5.125-1.008,7.709c-0.373,2.531-0.789,5.104-1.236,7.645
					c-0.934,5.299-2.039,10.678-3.287,15.982c-0.654,2.779-1.352,5.564-2.076,8.279c-0.676,2.535-1.416,5.164-2.201,7.814
					l-0.213-0.063c0.783-2.648,1.523-5.275,2.199-7.811c0.723-2.713,1.422-5.494,2.074-8.271c1.248-5.301,2.352-10.674,3.285-15.971
					c0.447-2.539,0.863-5.109,1.234-7.637c0.379-2.582,0.717-5.174,1.008-7.703c0.232-2.035,0.441-4.074,0.617-6.061
					c0.262-2.951,0.479-6.023,0.645-9.135c0.129-2.436,0.229-4.945,0.297-7.463c0.064-2.385,0.104-4.9,0.115-7.475
					c0.023-5.32-0.072-10.883-0.289-17c-0.176-4.928-0.426-10.111-0.789-16.313c-0.316-5.426-0.682-10.941-1.033-16.273
					c-0.273-4.129-0.557-8.4-0.814-12.6c-0.27-4.383-0.486-8.275-0.664-11.896L251.662,106.719z"/>
			</g>
		</g>
		<g>
			<g>
				
					<rect x="251.28" y="107.572" transform="matrix(-0.8517 -0.524 0.524 -0.8517 412.2534 332.0348)" width="3.66" height="0.222"/>
			</g>
		</g>
		<g>
			<g>
				<path d="M253.781,233.377l0.217,0.047c-1.252,5.742-2.686,11.521-4.379,17.664l-0.215-0.059
					C251.098,244.889,252.529,239.115,253.781,233.377z"/>
			</g>
		</g>
		<g>
			<g>
				<path d="M256.641,109.781c0.355,6.686,0.797,13.477,1.225,20.043c0.967,14.867,1.965,30.24,2.031,45.428h-0.221
					c-0.068-15.18-1.066-30.549-2.033-45.412c-0.426-6.568-0.867-13.361-1.223-20.047L256.641,109.781z"/>
			</g>
		</g>
		<g>
			<g>
				
					<rect x="254.574" y="108.868" transform="matrix(-0.8522 -0.5232 0.5232 -0.8522 415.7082 335.3747)" width="1.288" height="0.222"/>
			</g>
		</g>
		<g>
			<g>
				<line x1="243.664" y1="258.369" x2="243.66" y2="258.377"/>
			</g>
		</g>
		<g>
			<g>
				<path d="M29.662,201.33c0.113,1.326,0.238,2.643,0.365,3.912l-0.221,0.023c-0.129-1.271-0.252-2.59-0.365-3.916L29.662,201.33z"
					/>
			</g>
		</g>
		<g>
			<g>
				
					<rect x="33.642" y="105.107" transform="matrix(-0.5363 -0.844 0.844 -0.5363 -38.6378 193.2046)" width="0.222" height="4.217"/>
			</g>
		</g>
		<g>
			<g>
				<path d="M39.449,253.076c4.156,14.75,9.748,30.18,17.596,48.559l-0.205,0.088c-7.852-18.389-13.445-33.826-17.604-48.588
					L39.449,253.076z"/>
			</g>
		</g>
		<g>
			<g>
				<rect x="144.029" y="60.162" width="0.223" height="1.084"/>
			</g>
		</g>
		<g>
			<g>
				<path d="M31.641,109.781l0.223,0.012c-0.355,6.689-0.797,13.484-1.225,20.055c-0.965,14.861-1.963,30.227-2.031,45.404h-0.223
					c0.068-15.186,1.066-30.555,2.033-45.418C30.844,123.264,31.285,116.469,31.641,109.781z"/>
			</g>
		</g>
		<g>
			<g>
				<path d="M34.502,233.377c1.252,5.74,2.684,11.516,4.377,17.652l-0.215,0.059c-1.693-6.141-3.127-11.918-4.379-17.664
					L34.502,233.377z"/>
			</g>
		</g>
		<g>
			<g>
				<path d="M36.721,107.135c0.088,0,0.152,0.027,0.193,0.08c0.064,0.084,0.039,0.189,0.02,0.275
					c-0.008,0.027-0.014,0.055-0.016,0.078l-0.223-0.012c0.002-0.037,0.012-0.078,0.021-0.119c0.006-0.023,0.014-0.059,0.016-0.08
					l0,0c-0.004,0-0.008-0.002-0.014-0.002L36.721,107.135z"/>
			</g>
		</g>
		<g>
			<g>
				<path d="M36.695,107.557l0.223,0.012c-0.193,3.721-0.41,7.494-0.643,11.217l-0.221-0.014
					C36.287,115.051,36.502,111.277,36.695,107.557z"/>
			</g>
		</g>
		<g>
			<g>
				<path d="M36.055,118.771l0.221,0.014c-0.059,0.957-0.141,1.734-0.262,2.449l-0.219-0.037
					C35.914,120.492,35.996,119.721,36.055,118.771z"/>
			</g>
		</g>
		<g>
			<g>
				<line x1="36.705" y1="107.246" x2="36.719" y2="107.246"/>
			</g>
		</g>
		<g>
			<g>
				<line x1="38.705" y1="105.346" x2="38.711" y2="105.346"/>
			</g>
		</g>
		<g>
			<g>
				<path d="M37.715,106.629c-0.002-0.023-0.01-0.041-0.029-0.057"/>
			</g>
		</g>
		<g>
			<g>
				<rect x="37.606" y="106.619" transform="matrix(-0.996 -0.0889 0.0889 -0.996 65.7991 216.1992)" width="0.22" height="0.029"/>
			</g>
		</g>
		<g>
			<g>
				<path d="M38.688,105.27l-0.049,0.061l0.051-0.061l0.049,0.184c-0.063,0.018-0.119,0.006-0.17-0.037L38.688,105.27z"/>
			</g>
		</g>
		<g>
			<g>
				<path d="M36.648,105.527l0.184,0.127c-0.012,0.016-0.021,0.033-0.031,0.049c-0.039,0.064-0.084,0.137-0.172,0.189l-0.113-0.191
					c0.041-0.023,0.064-0.063,0.094-0.113C36.623,105.568,36.635,105.549,36.648,105.527z"/>
			</g>
		</g>
		<g>
			<g>
				<path d="M36.506,105.707l0.111,0.191c-0.023,0.014-0.045,0.029-0.066,0.045c-0.092,0.066-0.23,0.166-0.422,0.043l0.119-0.188
					c0.061,0.039,0.08,0.031,0.174-0.035C36.449,105.744,36.477,105.723,36.506,105.707z"/>
			</g>
		</g>
		<g>
			<g>
				<path d="M37.719,103.982l0.182,0.129c-0.361,0.51-0.717,1.023-1.068,1.543l-0.184-0.125
					C37,105.01,37.357,104.494,37.719,103.982z"/>
			</g>
		</g>
		<g>
			<g>
				<path d="M39.338,101.494l0.201,0.1c-0.375,0.758-0.865,1.439-1.34,2.1c-0.102,0.139-0.201,0.277-0.299,0.418l-0.182-0.129
					c0.1-0.141,0.199-0.279,0.299-0.418C38.488,102.912,38.973,102.236,39.338,101.494z"/>
			</g>
		</g>
		<g>
			<g>
				
					<rect x="35.978" y="105.701" transform="matrix(-0.7617 -0.6479 0.6479 -0.7617 -4.9753 209.7933)" width="0.223" height="0.222"/>
			</g>
		</g>
		<g>
			<g>
				<path d="M250.529,106.484l0.119,0.15l-0.191-0.016C250.463,106.563,250.486,106.52,250.529,106.484z"/>
			</g>
		</g>
		<g>
			<g>
				<path d="M249.594,105.27l-0.016,0.076l0.018-0.074l0.119,0.145c-0.047,0.039-0.102,0.053-0.16,0.039L249.594,105.27z"/>
			</g>
		</g>
		<g>
			<g>
				<path d="M251.637,105.529c0.012,0.018,0.023,0.037,0.035,0.055c0.029,0.051,0.055,0.092,0.096,0.117l-0.111,0.191
					c-0.092-0.053-0.139-0.131-0.176-0.193l-0.029-0.047L251.637,105.529z"/>
			</g>
		</g>
		<g>
			<g>
				<path d="M251.779,105.707c0.029,0.016,0.055,0.035,0.082,0.055c0.092,0.068,0.113,0.076,0.174,0.037l0.121,0.188
					c-0.193,0.123-0.332,0.023-0.426-0.045c-0.02-0.014-0.041-0.029-0.064-0.043L251.779,105.707z"/>
			</g>
		</g>
		<g>
			<g>
				<path d="M250.566,103.982c0.359,0.512,0.717,1.027,1.07,1.547l-0.186,0.125c-0.35-0.52-0.707-1.033-1.066-1.543L250.566,103.982
					z"/>
			</g>
		</g>
		<g>
			<g>
				<path d="M248.945,101.494c0.363,0.74,0.848,1.412,1.316,2.063c0.102,0.143,0.203,0.283,0.305,0.426l-0.182,0.129
					c-0.102-0.143-0.203-0.283-0.305-0.424c-0.473-0.658-0.963-1.338-1.334-2.094L248.945,101.494z"/>
			</g>
		</g>
		<g>
			<g>
				
					<rect x="252.082" y="105.701" transform="matrix(-0.6385 -0.7697 0.7697 -0.6385 331.7711 367.4696)" width="0.223" height="0.222"/>
			</g>
		</g>
		<g>
			<g>
				<path d="M251.564,107.135l0.002,0.221c-0.023,0.002-0.031,0.004-0.031,0.004c0.008,0.004,0.023,0.049,0.031,0.078
					c0.01,0.041,0.02,0.082,0.021,0.119l-0.223,0.012c0-0.023-0.008-0.051-0.014-0.078c-0.021-0.084-0.047-0.191,0.018-0.275
					C251.41,107.162,251.477,107.135,251.564,107.135z"/>
			</g>
		</g>
		<g>
			<g>
				<path d="M251.588,107.557c0.197,3.795,0.414,7.568,0.643,11.215l-0.223,0.014c-0.229-3.648-0.445-7.422-0.643-11.217
					L251.588,107.557z"/>
			</g>
		</g>
		<g>
			<g>
				<path d="M252.23,118.771c0.059,0.971,0.139,1.721,0.258,2.426l-0.219,0.037c-0.121-0.715-0.201-1.469-0.262-2.449
					L252.23,118.771z"/>
			</g>
		</g>
		<g>
			<g>
				<rect x="144.029" y="56.309" width="0.223" height="3.854"/>
			</g>
		</g>
		<g>
			<g>
				<line x1="251.566" y1="107.246" x2="251.578" y2="107.246"/>
			</g>
		</g>
		<g>
			<g>
				<rect x="144.031" y="54.955" width="0.223" height="0.113"/>
			</g>
		</g>
		<g>
			<g>
				<rect x="144.031" y="55.098" width="0.223" height="0.748"/>
			</g>
		</g>
		<g>
			<g>
				
					<rect x="252.424" y="107.105" transform="matrix(-0.842 -0.5395 0.5395 -0.842 410.991 334.8175)" width="4.217" height="0.222"/>
			</g>
		</g>
		<g>
			<g>
				<line x1="256.57" y1="108.207" x2="256.57" y2="108.207"/>
			</g>
		</g>
		<g>
			<g>
				<rect x="144.029" y="53.699" width="0.223" height="0.889"/>
			</g>
		</g>
		<g>
			<g>
				<path d="M144.029,54.588h0.223c0,0.574,0,1.146,0,1.721h-0.223C144.029,55.734,144.029,55.162,144.029,54.588z"/>
			</g>
		</g>
		<g>
			<g>
				<path d="M144.141,54.477v0.223c-10.334,0.006-21.021,0.012-31.564,0.961l-0.021-0.223
					C123.109,54.488,133.801,54.482,144.141,54.477z"/>
			</g>
		</g>
		<g>
			<g>
				<path d="M32.49,102.07c0.236,0.018,0.479,0.016,0.717,0.016c0.098,0,0.195,0.002,0.291,0.002l-0.002,0.223
					c-0.096-0.002-0.191-0.002-0.289-0.002c-0.238,0-0.486,0-0.732-0.016L32.49,102.07z"/>
			</g>
		</g>
		<g>
			<g>
				<path d="M32.371,102.18l0.223,0.002c-0.012,1.852-0.025,3.701-0.035,5.553l-0.223-0.002
					C32.348,105.881,32.359,104.031,32.371,102.18z"/>
			</g>
		</g>
		<g>
			<g>
				<path d="M33.283,99.436l0.18,0.131c-0.596,0.809-0.863,1.613-0.869,2.615l-0.223-0.002
					C32.377,101.129,32.66,100.283,33.283,99.436z"/>
			</g>
		</g>
		<g>
			<g>
				<path d="M118.371,61.623l0.105,0.197c-1.734,0.928-3.646,1.672-6.014,2.346l-0.061-0.213
					C114.754,63.283,116.65,62.543,118.371,61.623z"/>
			</g>
		</g>
		<g>
			<g>
				<rect x="32.605" y="99.39" width="0.768" height="0.223"/>
			</g>
		</g>
		<g>
			<g>
				<rect x="112.455" y="55.209" width="0.221" height="0.34"/>
			</g>
		</g>
		<g>
			<g>
				<path d="M112.553,55.1l0.025,0.221c-7.16,0.787-14.27,2.221-21.127,4.26c-6.68,1.986-13.176,4.564-19.311,7.66
					c-3.041,1.533-6.064,3.234-8.988,5.055c-2.832,1.762-5.623,3.672-8.301,5.674c-2.58,1.93-5.158,4.027-7.666,6.232
					c-1.047,0.924-2.121,1.898-3.191,2.896c-0.537,0.5-1.07,1.004-1.602,1.51c-0.445,0.426-0.891,0.854-1.336,1.279
					c-0.371,0.355-0.742,0.713-1.113,1.068c-0.215,0.205-0.432,0.412-0.648,0.619c-0.268,0.252-0.537,0.504-0.807,0.752l-0.07,0.066
					c-0.078,0.07-0.154,0.141-0.232,0.211l-0.498,0.453c-0.025,0.023-0.049,0.045-0.072,0.068l-0.041,0.043l-0.166-0.148
					l0.037-0.037c0.037-0.039,0.064-0.064,0.09-0.088l0.502-0.455c0.076-0.07,0.152-0.141,0.23-0.211l0.07-0.066
					c0.27-0.246,0.537-0.498,0.803-0.75c0.219-0.205,0.434-0.412,0.65-0.619c0.371-0.354,0.742-0.711,1.113-1.066
					c0.443-0.428,0.889-0.854,1.336-1.279c0.531-0.508,1.064-1.012,1.602-1.512c1.072-1,2.148-1.977,3.197-2.9
					c2.512-2.211,5.096-4.311,7.68-6.244c2.682-2.006,5.48-3.92,8.316-5.684c2.93-1.824,5.959-3.529,9.006-5.066
					c6.145-3.102,12.654-5.684,19.346-7.672C98.26,57.324,105.381,55.889,112.553,55.1z"/>
			</g>
		</g>
		<g>
			<g>
				<path d="M136.781,53.533c1.223,0,2.459,0.014,3.656,0.027c1.215,0.014,2.467,0.031,3.703,0.027v0.223c-0.018,0-0.033,0-0.053,0
					c-1.217,0-2.455-0.014-3.652-0.027c-1.322-0.016-2.691-0.033-4.035-0.027v-0.223C136.527,53.533,136.654,53.533,136.781,53.533z
					"/>
			</g>
		</g>
		<g>
			<g>
				<path d="M129.326,53.58l0.018,0.221c-1.314,0.105-2.648,0.24-3.939,0.369c-1.455,0.145-2.959,0.295-4.441,0.406
					c-2.674,0.201-5.539,0.43-8.385,0.744l-0.025-0.221c2.85-0.314,5.719-0.545,8.395-0.744c1.479-0.111,2.982-0.262,4.434-0.408
					C126.674,53.818,128.01,53.686,129.326,53.58z"/>
			</g>
		</g>
		<g>
			<g>
				<path d="M33.264,99.482l0.219,0.037c-0.002,0.008-0.025,0.201,0.701,0.813l-0.143,0.17
					C33.207,99.801,33.25,99.561,33.264,99.482z"/>
			</g>
		</g>
		<g>
			<g>
				<path d="M112.389,63.287l0.061,0.213c-0.063,0.018-0.104,0.041-0.113,0.063c-0.018,0.047,0.049,0.162,0.098,0.244
					c0.041,0.074,0.084,0.148,0.105,0.221l-0.213,0.064c-0.014-0.049-0.051-0.111-0.086-0.172c-0.08-0.139-0.17-0.295-0.109-0.441
					C112.168,63.389,112.252,63.324,112.389,63.287z"/>
			</g>
		</g>
		<g>
			<g>
				<path d="M112.566,55.209c-0.014-0.008-0.027-0.012-0.041-0.014"/>
			</g>
		</g>
		<g>
			<g>
				<rect x="31.748" y="102.069" width="0.734" height="0.223"/>
			</g>
		</g>
		<g>
			<g>
				<path d="M112.555,55.438l0.021,0.223C81.475,58.512,51.9,74.926,33.463,99.566l-0.18-0.133
					C51.76,74.742,81.393,58.295,112.555,55.438z"/>
			</g>
		</g>
		<g>
			<g>
				<rect x="163.971" y="66.499" transform="matrix(-0.83 -0.5578 0.5578 -0.83 263.1634 213.4426)" width="0.287" height="0.223"/>
			</g>
		</g>
		<g>
			<g>
				<path d="M163.961,66.563c0.092,0.01,0.184,0.016,0.275,0.018l-0.006,0.221c-0.098-0.002-0.197-0.008-0.295-0.02L163.961,66.563z
					"/>
			</g>
		</g>
		<g>
			<g>
				<path d="M154.291,65.145c0.215,0.469,0.51,0.555,1.012,0.555v0.223c-0.555,0-0.953-0.115-1.213-0.686L154.291,65.145z"/>
			</g>
		</g>
		<g>
			<g>
				<path d="M164.295,66.598c0.498,0.334,0.992,0.65,1.469,0.941c0.484,0.297,0.941,0.563,1.395,0.811
					c0.9,0.492,1.803,0.926,2.684,1.291c0.447,0.188,0.922,0.367,1.41,0.539c0.48,0.17,0.994,0.336,1.525,0.496
					c0.543,0.162,1.109,0.322,1.73,0.484c0.641,0.17,1.322,0.34,2.145,0.535l-0.053,0.217c-0.822-0.197-1.506-0.367-2.148-0.535
					c-0.623-0.164-1.191-0.324-1.738-0.488c-0.533-0.16-1.051-0.328-1.535-0.5c-0.492-0.172-0.969-0.355-1.422-0.543
					c-0.889-0.367-1.799-0.805-2.705-1.301c-0.457-0.25-0.916-0.518-1.404-0.816c-0.479-0.291-0.975-0.611-1.475-0.945
					L164.295,66.598z"/>
			</g>
		</g>
		<g>
			<g>
				<path d="M176.652,71.695c0.498,0.119,0.998,0.236,1.498,0.355c0.572,0.135,1.143,0.27,1.715,0.406
					c0.662,0.158,1.326,0.318,1.986,0.482c1.363,0.336,2.627,0.662,3.863,0.996c2.578,0.695,5.086,1.445,7.455,2.227
					c2.4,0.791,4.787,1.66,7.096,2.58c2.342,0.936,4.674,1.951,6.932,3.023c4.045,1.918,8.043,4.1,11.885,6.484
					c1.863,1.156,3.795,2.428,5.742,3.777c0.799,0.555,1.66,1.164,2.629,1.863c0.768,0.553,1.531,1.113,2.295,1.672
					c0.473,0.346,0.943,0.689,1.414,1.033c0.371,0.271,0.742,0.541,1.115,0.807c0.686,0.492,1.26,0.893,1.805,1.258
					c0.412,0.275,0.756,0.498,1.084,0.703c0.297,0.184,0.588,0.357,0.865,0.516c0.57,0.322,1.09,0.578,1.59,0.781
					c0.512,0.209,0.996,0.363,1.479,0.467c0.457,0.1,0.934,0.16,1.412,0.178c0.297,0.01,0.621,0.004,0.992-0.016
					c0.141-0.008,0.281-0.018,0.422-0.027c0.215-0.016,0.416-0.031,0.617-0.049c0.227-0.018,0.453-0.035,0.68-0.053
					c0.15-0.01,0.301-0.02,0.449-0.029l0.758-0.049c0.512-0.033,1.008-0.063,1.504-0.088c0.311-0.016,0.621-0.031,0.932-0.041
					c0.209-0.006,0.418-0.008,0.627-0.008c0.156,0,0.309,0.002,0.463,0.014c0.109,0.008,0.217,0.02,0.324,0.039
					s0.213,0.047,0.313,0.078l-0.066,0.213c-0.092-0.031-0.188-0.055-0.285-0.072c-0.1-0.018-0.201-0.027-0.303-0.035
					c-0.148-0.012-0.297-0.014-0.445-0.014c-0.207,0-0.412,0.002-0.619,0.008c-0.309,0.01-0.619,0.025-0.928,0.041
					c-0.496,0.025-0.99,0.055-1.486,0.086l-0.771,0.051c-0.15,0.01-0.301,0.018-0.449,0.029c-0.227,0.016-0.451,0.033-0.678,0.053
					c-0.201,0.016-0.402,0.031-0.604,0.047c-0.158,0.012-0.299,0.021-0.441,0.029c-0.377,0.02-0.707,0.023-1.012,0.014
					c-0.492-0.018-0.98-0.078-1.451-0.182c-0.496-0.107-0.99-0.264-1.516-0.477c-0.508-0.209-1.037-0.469-1.615-0.795
					c-0.279-0.16-0.574-0.334-0.873-0.521c-0.33-0.205-0.678-0.43-1.09-0.705c-0.547-0.369-1.123-0.77-1.811-1.262
					c-0.373-0.268-0.746-0.537-1.117-0.809c-0.473-0.344-0.943-0.688-1.414-1.033c-0.764-0.559-1.527-1.117-2.293-1.672
					c-0.969-0.697-1.828-1.307-2.627-1.861c-1.943-1.348-3.871-2.615-5.732-3.77c-3.834-2.381-7.826-4.559-11.861-6.475
					c-2.254-1.068-4.582-2.082-6.92-3.016c-2.305-0.918-4.688-1.785-7.084-2.576c-2.365-0.781-4.869-1.529-7.441-2.223
					c-1.234-0.334-2.498-0.658-3.859-0.994c-0.662-0.164-1.324-0.324-1.986-0.484c-0.57-0.135-1.143-0.27-1.713-0.406
					c-0.5-0.117-1-0.234-1.5-0.354L176.652,71.695z"/>
			</g>
		</g>
		<g>
			<g>
				<path d="M112.475,55.486l0.182,0.127c-0.119,0.172-0.109,0.344-0.096,0.541c0.006,0.092,0.01,0.188,0.002,0.285
					c-0.021,0.281-0.049,0.584-0.096,0.893l-0.221-0.033c0.047-0.301,0.074-0.6,0.096-0.877c0.006-0.082,0.002-0.166-0.004-0.254
					C112.324,55.961,112.311,55.723,112.475,55.486z"/>
			</g>
		</g>
		<g>
			<g>
				<path d="M251.762,105.123c0.09,0.094,0.184,0.184,0.279,0.271l-0.148,0.164c-0.1-0.09-0.197-0.184-0.291-0.281L251.762,105.123z
					"/>
			</g>
		</g>
		<g>
			<g>
				<path d="M144.895,60.051c1.836,0,3.67,0,5.508,0.006c1.477,0.006,2.953,0.014,4.43,0.029c2.861,0.031,5.414,0.088,7.805,0.17
					c2.467,0.084,4.758,0.199,7.002,0.348c1.24,0.082,2.459,0.174,3.621,0.273c1.053,0.092,2.137,0.193,3.225,0.307l-0.023,0.223
					c-1.086-0.113-2.168-0.217-3.221-0.307c-1.16-0.1-2.379-0.193-3.617-0.275c-2.24-0.148-4.529-0.262-6.994-0.348
					c-2.389-0.082-4.941-0.137-7.799-0.168c-1.477-0.016-2.953-0.023-4.43-0.029c-1.963-0.006-3.928-0.006-5.891-0.006h-0.369
					v-0.223h0.369C144.639,60.051,144.766,60.051,144.895,60.051z"/>
			</g>
		</g>
		<g>
			<g>
				<path d="M176.484,61.184c3.697,0.383,7.453,0.984,11.162,1.787c3.719,0.805,7.439,1.82,11.057,3.02
					c3.539,1.174,7.057,2.545,10.453,4.08c3.391,1.529,6.746,3.258,9.973,5.139c6.156,3.586,11.957,7.783,17.242,12.473
					c2.838,2.52,5.557,5.209,8.076,7.992c1.205,1.33,2.393,2.711,3.525,4.104c0.582,0.715,1.174,1.463,1.756,2.221
					c0.273,0.357,0.547,0.715,0.816,1.076l0.344,0.465c0.121,0.162,0.242,0.328,0.363,0.492l0.264,0.359
					c0.119,0.152,0.244,0.295,0.369,0.426c0.246,0.256,0.516,0.488,0.805,0.691c0.059,0.041,0.119,0.082,0.182,0.123
					c0.068,0.047,0.141,0.092,0.209,0.137l1.74,1.123l-0.121,0.186l-1.738-1.121c-0.07-0.047-0.143-0.092-0.213-0.139
					c-0.063-0.041-0.125-0.084-0.188-0.127c-0.299-0.211-0.58-0.453-0.836-0.719c-0.131-0.135-0.26-0.285-0.385-0.445l-0.268-0.363
					c-0.121-0.164-0.24-0.328-0.361-0.492l-0.344-0.463c-0.27-0.359-0.541-0.717-0.814-1.074c-0.582-0.756-1.172-1.502-1.754-2.215
					c-1.129-1.391-2.313-2.768-3.516-4.094c-2.516-2.779-5.227-5.461-8.059-7.977c-5.275-4.68-11.064-8.867-17.207-12.447
					c-3.221-1.877-6.568-3.602-9.953-5.129c-3.389-1.529-6.898-2.9-10.432-4.07c-3.609-1.197-7.322-2.211-11.033-3.014
					c-3.701-0.801-7.449-1.4-11.139-1.781L176.484,61.184z"/>
			</g>
		</g>
		<g>
			<g>
				<path d="M254.82,106.891c0.369,0.238,0.732,0.492,1.084,0.754l-0.133,0.178c-0.348-0.258-0.709-0.51-1.072-0.746L254.82,106.891
					z"/>
			</g>
		</g>
		<g>
			<g>
				<path d="M255.906,107.646l0.271,0.176c0.068,0.047,0.137,0.092,0.205,0.135l0.268,0.178l-0.021,0.018l0.004,0.148l-0.049,0.033
					l-0.148-0.078l-0.174-0.111c-0.066-0.045-0.137-0.09-0.205-0.137l-0.289-0.188L255.906,107.646z"/>
			</g>
		</g>
		<g>
			<g>
				<path d="M154.281,61.242c0.045,0.266,0.082,0.531,0.119,0.797l-0.221,0.031c-0.035-0.266-0.074-0.529-0.117-0.793
					L154.281,61.242z"/>
			</g>
		</g>
		<g>
			<g>
				<path d="M154.4,62.039c0.033,0.242,0.068,0.484,0.107,0.725c0.031,0.205,0.066,0.408,0.104,0.611
					c0.066,0.363,0.131,0.658,0.203,0.928c0.064,0.232,0.133,0.439,0.209,0.629c0.047,0.119,0.1,0.234,0.152,0.35
					c0.072,0.162,0.148,0.322,0.227,0.48l-0.199,0.098c-0.08-0.16-0.156-0.322-0.229-0.486c-0.055-0.117-0.109-0.236-0.156-0.357
					c-0.08-0.197-0.152-0.412-0.219-0.656c-0.074-0.273-0.139-0.574-0.207-0.945c-0.037-0.205-0.072-0.41-0.105-0.615
					c-0.037-0.242-0.072-0.486-0.107-0.729L154.4,62.039z"/>
			</g>
		</g>
		<g>
			<g>
				<path d="M176.654,70.26l2.34,0.637c12.664,3.436,21.027,5.705,33.158,12.246c5.779,3.117,11.123,6.67,16.037,10.045
					c0.488,0.336,0.971,0.678,1.451,1.02c2.121,1.508,4.127,2.932,6.637,3.781c1.826,0.617,3.51,0.242,5.141-0.121
					c1.334-0.299,2.711-0.605,4.168-0.375l-0.035,0.221c-1.412-0.225-2.771,0.078-4.084,0.371c-1.66,0.369-3.377,0.754-5.26,0.115
					c-2.541-0.861-4.654-2.361-6.695-3.813c-0.48-0.34-0.961-0.682-1.447-1.016c-4.91-3.371-10.248-6.92-16.018-10.033
					c-12.107-6.529-20.463-8.795-33.109-12.227l-2.34-0.637L176.654,70.26z"/>
			</g>
		</g>
		<g>
			<g>
				<rect x="176.516" y="70.367" width="0.221" height="1.436"/>
			</g>
		</g>
		<g>
			<g>
				<path d="M176.568,69.291c1.176,0.316,2.316,0.623,3.424,0.922c11.492,3.084,19.795,5.313,31.314,11.223
					c4.977,2.555,10.004,5.564,15.814,9.473c0.641,0.43,1.273,0.869,1.908,1.311c1.85,1.285,3.766,2.615,5.826,3.668
					c2.803,1.434,4.461,0.873,6.563,0.164c0.688-0.232,1.398-0.473,2.219-0.67l0.051,0.217c-0.809,0.195-1.516,0.434-2.197,0.664
					c-2.152,0.725-3.85,1.299-6.736-0.178c-2.074-1.059-3.994-2.393-5.852-3.684c-0.633-0.439-1.266-0.879-1.906-1.309
					c-5.803-3.902-10.82-6.908-15.791-9.459c-11.5-5.9-19.793-8.125-31.27-11.207c-1.109-0.297-2.248-0.604-3.426-0.922
					L176.568,69.291z"/>
			</g>
		</g>
		<g>
			<g>
				<path d="M176.648,69.375c0.074,0.367,0.104,0.684,0.088,0.998l-0.221-0.01c0.014-0.295-0.014-0.596-0.086-0.943L176.648,69.375z
					"/>
			</g>
		</g>
		<g>
			<g>
				<path d="M165.781,64.035c3.355,2.5,6.783,4.17,10.787,5.256l-0.059,0.213c-4.031-1.092-7.482-2.773-10.861-5.291L165.781,64.035
					z"/>
			</g>
		</g>
		<g>
			<g>
				<path d="M165.043,64.814c3.357,2.479,7.047,4.209,11.611,5.445l-0.057,0.215c-4.594-1.244-8.307-2.986-11.688-5.48
					L165.043,64.814z"/>
			</g>
		</g>
		<g>
			<g>
				<path d="M165.604,64.115l0.223,0.018c-0.043,0.563-0.293,0.826-0.84,0.881l-0.021-0.221
					C165.408,64.748,165.568,64.578,165.604,64.115z"/>
			</g>
		</g>
		<g>
			<g>
				<path d="M159.691,61.252l0.158,0.156c-0.74,0.748-1.527,0.748-2.359,0.75c-0.174,0-0.35,0-0.527,0.008l-0.01-0.223
					c0.182-0.006,0.359-0.008,0.535-0.008C158.309,61.934,159.018,61.934,159.691,61.252z"/>
			</g>
		</g>
		<g>
			<g>
				<path d="M157.012,61.273c0.029,0.258,0.049,0.52,0.057,0.777l-0.221,0.008c-0.01-0.252-0.027-0.508-0.057-0.762L157.012,61.273z
					"/>
			</g>
		</g>
		<g>
			<g>
				<path d="M160.213,61.33c0.113,1.771,0.785,3.256,1.525,4.744c0.164,0.334,0.363,0.719,0.639,1.059l0.027,0.033
					c0.174,0.213,0.352,0.432,0.529,0.438c0.002,0,0.004,0,0.006,0c0.096,0,0.197-0.061,0.309-0.182
					c0.51-0.553,0.654-1.188,0.809-1.857c0.031-0.141,0.064-0.283,0.102-0.426l0.215,0.055c-0.035,0.141-0.068,0.281-0.1,0.42
					c-0.154,0.67-0.313,1.363-0.861,1.959c-0.162,0.176-0.322,0.266-0.486,0.252c-0.277-0.008-0.49-0.268-0.693-0.52l-0.027-0.031
					c-0.289-0.357-0.496-0.756-0.666-1.1c-0.75-1.51-1.432-3.016-1.549-4.83L160.213,61.33z"/>
			</g>
		</g>
		<g>
			<g>
				<path d="M164.371,65.131c0.035,0.107,0.072,0.23,0.035,0.375l-0.215-0.055c0.02-0.08,0.002-0.148-0.031-0.252L164.371,65.131z"
					/>
			</g>
		</g>
		<g>
			<g>
				<path d="M157.068,62.051c0.008,0.199,0.014,0.396,0.02,0.594c0.041,1.338,0.078,2.6,0.512,3.885s1.77,2.613,3.254,2.613v0.223
					c-1.584,0-3.006-1.406-3.465-2.764c-0.443-1.316-0.484-2.656-0.523-3.949c-0.006-0.197-0.01-0.395-0.018-0.594L157.068,62.051z"
					/>
			</g>
		</g>
		<g>
			<g>
				<path d="M165.139,63.77c0.195,0,0.412,0.088,0.645,0.268l-0.137,0.176c-0.25-0.191-0.463-0.262-0.633-0.201
					c-0.328,0.113-0.516,0.691-0.641,1.182l-0.215-0.057c0.148-0.576,0.357-1.188,0.783-1.334
					C165.006,63.779,165.07,63.77,165.139,63.77z"/>
			</g>
		</g>
		<g>
			<g>
				<path d="M164.607,64.564c0.174,0.063,0.318,0.162,0.436,0.25l-0.133,0.178c-0.111-0.082-0.232-0.166-0.379-0.219L164.607,64.564
					z"/>
			</g>
		</g>
		<g>
			<g>
				
					<rect x="164.469" y="64.788" transform="matrix(-0.9998 -0.0192 0.0192 -0.9998 328.1671 132.954)" width="0.508" height="0.223"/>
			</g>
		</g>
		<g>
			<g>
				<path d="M155.395,61.943c0.521,0,1.043,0,1.564,0l-0.002,0.223c-0.889-0.002-1.777-0.002-2.666,0l-0.002-0.223
					C154.658,61.943,155.027,61.943,155.395,61.943z"/>
			</g>
		</g>
		<g>
			<g>
				
					<rect x="173.503" y="66.617" transform="matrix(-0.1277 -0.9918 0.9918 -0.1277 132.5197 250.0034)" width="5.382" height="0.223"/>
			</g>
		</g>
		<g>
			<g>
				<path d="M175.883,63.953c2.828,0.813,5.336,1.502,7.762,2.166c9.291,2.549,16.002,4.391,26.447,9.516
					c5.115,2.51,10.238,5.479,15.658,9.076c1.398,0.93,2.801,1.896,4.158,2.834c1.084,0.748,2.205,1.521,3.316,2.27l0.492,0.332
					c2.309,1.564,4.488,3.041,7.68,2.871l0.012,0.223c-3.266,0.166-5.477-1.324-7.816-2.91l-0.49-0.332
					c-1.113-0.748-2.234-1.521-3.318-2.27c-1.357-0.938-2.76-1.904-4.156-2.832c-5.412-3.592-10.525-6.557-15.633-9.063
					c-10.426-5.117-17.129-6.955-26.408-9.5c-2.426-0.666-4.936-1.354-7.766-2.168L175.883,63.953z"/>
			</g>
		</g>
		<g>
			<g>
				
					<rect x="174.191" y="59.194" transform="matrix(-0.1357 -0.9908 0.9908 -0.1357 141.3522 241.9228)" width="4.016" height="0.223"/>
			</g>
		</g>
		<g>
			<g>
				<path d="M144.143,56.197l1.836,0.004c9.816,0.014,19.969,0.027,29.959,1.004l-0.021,0.221
					c-9.979-0.975-20.125-0.988-29.938-1.004l-1.838-0.002L144.143,56.197z"/>
			</g>
		</g>
		<g>
			<g>
				<path d="M175.938,57.205c14.994,1.463,30.055,6.164,43.553,13.598c13.506,7.438,25.529,17.654,34.77,29.547l-0.176,0.137
					c-18.656-24.01-47.877-40.107-78.168-43.061L175.938,57.205z"/>
			</g>
		</g>
		<g>
			<g>
				<path d="M254.26,100.35c0.445,0.574,0.641,1.145,0.637,1.85l-0.223-0.002c0.004-0.66-0.172-1.174-0.59-1.711L254.26,100.35z"/>
			</g>
		</g>
		<g>
			<g>
				<path d="M254.674,102.199h0.223c-0.006,1.596-0.016,3.189-0.025,4.785l-0.223-0.002
					C254.658,105.389,254.668,103.793,254.674,102.199z"/>
			</g>
		</g>
		<g>
			<g>
				<path d="M175.811,55.486c0.164,0.236,0.148,0.475,0.135,0.684c-0.006,0.088-0.01,0.17-0.004,0.252
					c0.027,0.326,0.053,0.6,0.096,0.877l-0.219,0.033c-0.047-0.299-0.076-0.605-0.1-0.893c-0.006-0.098,0-0.193,0.006-0.283
					c0.012-0.199,0.023-0.369-0.098-0.543L175.811,55.486z"/>
			</g>
		</g>
		<g>
			<g>
				<path d="M175.729,55.438c31.162,2.857,60.797,19.305,79.271,43.996l-0.178,0.133c-18.438-24.641-48.014-41.055-79.113-43.906
					L175.729,55.438z"/>
			</g>
		</g>
		<g>
			<g>
				<path d="M255.02,99.482c0.014,0.078,0.057,0.32-0.777,1.02l-0.143-0.17c0.58-0.488,0.715-0.74,0.701-0.813L255.02,99.482z"/>
			</g>
		</g>
		<g>
			<g>
				<path d="M144.141,54.477c10.342,0.006,21.033,0.012,31.588,0.961l-0.02,0.223c-10.545-0.949-21.232-0.955-31.568-0.961V54.477z"
					/>
			</g>
		</g>
		<g>
			<g>
				<path d="M33.607,102.199c0.008,1.594,0.018,3.189,0.027,4.783l-0.223,0.002c-0.01-1.596-0.018-3.189-0.025-4.785H33.607z"/>
			</g>
		</g>
		<g>
			<g>
				<path d="M34.025,100.35l0.176,0.137c-0.418,0.537-0.596,1.049-0.594,1.713h-0.221C33.383,101.492,33.58,100.922,34.025,100.35z"
					/>
			</g>
		</g>
		<g>
			<g>
				<path d="M255.795,102.07l0.016,0.223c-0.246,0.018-0.494,0.016-0.734,0.016c-0.096,0-0.193,0-0.289,0.002l-0.002-0.223
					c0.098-0.002,0.193,0,0.291-0.002C255.311,102.088,255.557,102.088,255.795,102.07z"/>
			</g>
		</g>
		<g>
			<g>
				<rect x="253.044" y="104.846" transform="matrix(-0.0063 -1 1 -0.0063 152.485 361.4367)" width="5.553" height="0.223"/>
			</g>
		</g>
		<g>
			<g>
				<path d="M255,99.436c0.623,0.848,0.904,1.693,0.914,2.744l-0.223,0.002c-0.008-1.002-0.275-1.809-0.869-2.615L255,99.436z"/>
			</g>
		</g>
		<g>
			<g>
				<path d="M169.91,61.623c1.721,0.92,3.617,1.66,5.973,2.33l-0.063,0.213c-2.369-0.674-4.279-1.42-6.014-2.346L169.91,61.623z"/>
			</g>
		</g>
		<g>
			<g>
				<rect x="254.91" y="99.39" width="0.768" height="0.223"/>
			</g>
		</g>
		<g>
			<g>
				<rect x="175.607" y="55.209" width="0.223" height="0.34"/>
			</g>
		</g>
		<g>
			<g>
				<path d="M175.73,55.1c7.172,0.789,14.293,2.225,21.166,4.27c6.693,1.988,13.203,4.57,19.346,7.672
					c3.043,1.535,6.072,3.238,9.008,5.066c2.836,1.766,5.633,3.678,8.314,5.684c2.584,1.932,5.168,4.033,7.68,6.244
					c1.043,0.918,2.09,1.867,3.197,2.9c0.537,0.5,1.07,1.004,1.604,1.512c0.453,0.434,0.906,0.867,1.359,1.303
					c0.363,0.348,0.727,0.697,1.09,1.043c0.215,0.207,0.432,0.414,0.648,0.619c0.266,0.252,0.533,0.502,0.803,0.752
					c0.1,0.092,0.201,0.184,0.303,0.275l0.574,0.523c0.018,0.02,0.035,0.037,0.051,0.055l-0.168,0.146
					c-0.012-0.016-0.027-0.029-0.041-0.043l-0.566-0.518c-0.102-0.092-0.203-0.184-0.303-0.277c-0.27-0.248-0.539-0.5-0.805-0.752
					c-0.219-0.207-0.436-0.414-0.65-0.619c-0.363-0.348-0.727-0.697-1.088-1.045c-0.453-0.434-0.906-0.869-1.361-1.303
					c-0.531-0.506-1.064-1.01-1.602-1.51c-1.105-1.031-2.15-1.979-3.191-2.896c-2.508-2.207-5.088-4.303-7.666-6.232
					c-2.676-2.002-5.469-3.91-8.299-5.674c-2.93-1.822-5.953-3.523-8.99-5.055c-6.133-3.096-12.629-5.672-19.309-7.66
					c-6.859-2.039-13.969-3.473-21.127-4.26L175.73,55.1z"/>
			</g>
		</g>
		<g>
			<g>
				<path d="M151.502,53.533c0.127,0,0.256,0,0.381,0v0.223c-1.344-0.004-2.713,0.012-4.035,0.027
					c-1.215,0.014-2.469,0.023-3.707,0.027v-0.223c1.24,0.012,2.49-0.014,3.705-0.027C149.043,53.547,150.279,53.533,151.502,53.533
					z"/>
			</g>
		</g>
		<g>
			<g>
				<path d="M158.957,53.58c1.092,0.096,2.182,0.203,3.271,0.311c1.674,0.166,3.402,0.336,5.109,0.465
					c2.676,0.199,5.545,0.43,8.393,0.744l-0.023,0.221c-2.846-0.314-5.711-0.543-8.387-0.744c-1.707-0.129-3.439-0.299-5.113-0.465
					c-1.09-0.105-2.178-0.213-3.268-0.311L158.957,53.58z"/>
			</g>
		</g>
		<g>
			<g>
				<path d="M175.896,63.287c0.135,0.037,0.219,0.102,0.256,0.191c0.061,0.146-0.029,0.303-0.109,0.441
					c-0.035,0.061-0.07,0.123-0.086,0.172l-0.211-0.064c0.021-0.072,0.064-0.146,0.105-0.219c0.049-0.084,0.115-0.199,0.096-0.246
					c-0.01-0.021-0.051-0.045-0.111-0.063L175.896,63.287z"/>
			</g>
		</g>
		<g>
			<g>
				<path d="M175.742,55.086l0.033,0.219l-0.115-0.189C175.684,55.1,175.711,55.09,175.742,55.086z"/>
			</g>
		</g>
		<g>
			<g>
				<rect x="255.803" y="102.069" width="0.732" height="0.223"/>
			</g>
		</g>
		<g>
			<g>
				<path d="M112.346,57.205l0.021,0.221c-30.289,2.953-59.512,19.051-78.166,43.061l-0.176-0.137
					c9.24-11.893,21.264-22.109,34.768-29.547C82.291,63.369,97.352,58.668,112.346,57.205z"/>
			</g>
		</g>
		<g>
			<g>
				<path d="M144.141,56.197l0.002,0.223l-1.838,0.002c-9.811,0.016-19.957,0.029-29.938,1.004l-0.021-0.221
					c9.99-0.977,20.143-0.99,29.959-1.004L144.141,56.197z"/>
			</g>
		</g>
		<g>
			<g>
				
					<rect x="111.973" y="57.298" transform="matrix(-0.9901 -0.1402 0.1402 -0.9901 214.7467 133.7392)" width="0.223" height="4.016"/>
			</g>
		</g>
		<g>
			<g>
				<path d="M112.402,63.953l0.061,0.213c-2.828,0.814-5.338,1.502-7.766,2.168c-9.277,2.545-15.982,4.383-26.406,9.5
					c-5.107,2.506-10.221,5.469-15.635,9.063c-1.4,0.93-2.807,1.9-4.166,2.838c-1.08,0.746-2.199,1.518-3.307,2.264l-0.488,0.33
					c-2.344,1.588-4.553,3.082-7.818,2.912l0.012-0.223c3.186,0.174,5.371-1.307,7.682-2.873l0.488-0.33
					c1.107-0.746,2.225-1.518,3.307-2.262c1.359-0.939,2.768-1.91,4.168-2.842c5.422-3.598,10.545-6.566,15.66-9.076
					c10.443-5.125,17.156-6.967,26.445-9.516C107.064,65.455,109.574,64.766,112.402,63.953z"/>
			</g>
		</g>
		<g>
			<g>
				
					<rect x="111.977" y="64.037" transform="matrix(-0.9913 -0.1316 0.1316 -0.9913 214.4204 147.6263)" width="0.223" height="5.382"/>
			</g>
		</g>
		<g>
			<g>
				<path d="M132.889,61.943c0.369,0,0.736,0,1.105,0v0.223c-0.889-0.002-1.779-0.002-2.668,0v-0.223
					C131.846,61.943,132.367,61.943,132.889,61.943z"/>
			</g>
		</g>
		<g>
			<g>
				<rect x="123.308" y="64.788" width="0.508" height="0.223"/>
			</g>
		</g>
		<g>
			<g>
				<path d="M123.678,64.564l0.076,0.209c-0.146,0.053-0.27,0.137-0.379,0.219l-0.135-0.178
					C123.365,64.721,123.504,64.627,123.678,64.564z"/>
			</g>
		</g>
		<g>
			<g>
				<path d="M123.145,63.77c0.068,0,0.135,0.01,0.197,0.033c0.428,0.146,0.637,0.758,0.785,1.334l-0.217,0.057
					c-0.125-0.49-0.311-1.066-0.641-1.182c-0.172-0.061-0.383,0.01-0.633,0.201l-0.137-0.176
					C122.732,63.857,122.949,63.77,123.145,63.77z"/>
			</g>
		</g>
		<g>
			<g>
				<path d="M131.215,62.051l0.223,0.008c-0.008,0.199-0.014,0.398-0.02,0.598c-0.041,1.293-0.08,2.629-0.523,3.945
					c-0.457,1.357-1.879,2.764-3.465,2.764v-0.223c1.486,0,2.822-1.328,3.254-2.613c0.432-1.283,0.471-2.545,0.512-3.879
					C131.201,62.451,131.207,62.252,131.215,62.051z"/>
			</g>
		</g>
		<g>
			<g>
				<path d="M123.912,65.131l0.213,0.068c-0.033,0.104-0.053,0.172-0.031,0.252l-0.215,0.055
					C123.84,65.361,123.879,65.238,123.912,65.131z"/>
			</g>
		</g>
		<g>
			<g>
				<path d="M128.072,61.33l0.221,0.014c-0.117,1.813-0.799,3.318-1.547,4.83c-0.211,0.426-0.406,0.775-0.668,1.1l-0.029,0.033
					c-0.203,0.252-0.414,0.51-0.691,0.518c-0.006,0.002-0.01,0.002-0.016,0.002c-0.16,0-0.314-0.084-0.471-0.254
					c-0.547-0.596-0.707-1.287-0.859-1.957c-0.033-0.141-0.064-0.281-0.102-0.422l0.217-0.055c0.035,0.143,0.068,0.285,0.102,0.428
					c0.154,0.67,0.299,1.303,0.805,1.855c0.113,0.121,0.215,0.182,0.311,0.182c0.002,0,0.004,0,0.006,0
					c0.178-0.006,0.355-0.225,0.527-0.438l0.027-0.033c0.25-0.309,0.438-0.645,0.643-1.059
					C127.285,64.586,127.957,63.102,128.072,61.33z"/>
			</g>
		</g>
		<g>
			<g>
				<path d="M131.271,61.273l0.221,0.023c-0.027,0.248-0.047,0.504-0.055,0.762l-0.223-0.008
					C131.225,61.787,131.244,61.525,131.271,61.273z"/>
			</g>
		</g>
		<g>
			<g>
				<path d="M128.59,61.252c0.676,0.682,1.418,0.682,2.205,0.684c0.176,0,0.355,0.002,0.535,0.008l-0.01,0.223
					c-0.178-0.008-0.354-0.008-0.525-0.008c-0.834-0.002-1.621-0.002-2.361-0.75L128.59,61.252z"/>
			</g>
		</g>
		<g>
			<g>
				<path d="M122.68,64.115c0.035,0.463,0.195,0.633,0.639,0.678l-0.021,0.221c-0.545-0.055-0.797-0.318-0.84-0.881L122.68,64.115z"
					/>
			</g>
		</g>
		<g>
			<g>
				<path d="M123.242,64.814l0.131,0.18c-3.383,2.494-7.096,4.236-11.688,5.48l-0.059-0.215
					C116.191,69.023,119.881,67.293,123.242,64.814z"/>
			</g>
		</g>
		<g>
			<g>
				<path d="M122.502,64.035l0.133,0.178c-3.379,2.518-6.83,4.197-10.861,5.291l-0.059-0.213
					C115.719,68.203,119.146,66.535,122.502,64.035z"/>
			</g>
		</g>
		<g>
			<g>
				<path d="M111.635,69.375l0.217,0.045c-0.07,0.348-0.096,0.648-0.084,0.943l-0.223,0.01
					C111.533,70.059,111.561,69.742,111.635,69.375z"/>
			</g>
		</g>
		<g>
			<g>
				<path d="M111.715,69.291l0.059,0.213c-1.178,0.318-2.316,0.625-3.424,0.922c-11.477,3.08-19.771,5.307-31.271,11.207
					c-4.971,2.551-9.988,5.557-15.791,9.459c-0.639,0.43-1.271,0.869-1.904,1.309c-1.857,1.291-3.777,2.625-5.854,3.684
					c-2.885,1.475-4.582,0.902-6.734,0.178c-0.684-0.23-1.389-0.469-2.199-0.664l0.053-0.217c0.818,0.197,1.529,0.438,2.217,0.67
					c2.102,0.709,3.762,1.268,6.564-0.164c2.061-1.053,3.975-2.383,5.826-3.67c0.633-0.439,1.268-0.879,1.908-1.309
					C66.973,87,71.998,83.99,76.977,81.436c11.521-5.912,19.824-8.141,31.316-11.225C109.4,69.914,110.539,69.607,111.715,69.291z"
					/>
			</g>
		</g>
		<g>
			<g>
				<rect x="111.545" y="70.367" width="0.223" height="1.436"/>
			</g>
		</g>
		<g>
			<g>
				<path d="M111.627,70.26l0.059,0.215l-2.338,0.635c-12.648,3.432-21.004,5.699-33.109,12.229
					C70.465,86.451,65.127,90,60.221,93.371c-0.486,0.334-0.967,0.674-1.445,1.014c-2.043,1.453-4.156,2.953-6.697,3.814
					c-1.885,0.639-3.6,0.254-5.26-0.115c-1.314-0.293-2.672-0.596-4.084-0.371l-0.035-0.221c1.453-0.23,2.834,0.076,4.168,0.375
					c1.629,0.363,3.314,0.738,5.139,0.121c2.51-0.85,4.518-2.275,6.641-3.783c0.479-0.342,0.961-0.682,1.447-1.018
					c4.912-3.373,10.256-6.926,16.037-10.045c12.131-6.541,20.496-8.811,33.158-12.246L111.627,70.26z"/>
			</g>
		</g>
		<g>
			<g>
				<path d="M133.883,62.039l0.221,0.031c-0.033,0.242-0.068,0.486-0.107,0.729c-0.033,0.205-0.068,0.41-0.105,0.615
					c-0.051,0.281-0.117,0.613-0.209,0.947c-0.064,0.24-0.137,0.455-0.215,0.654c-0.049,0.121-0.102,0.24-0.156,0.357
					c-0.074,0.164-0.152,0.326-0.23,0.486l-0.199-0.098c0.078-0.158,0.154-0.318,0.227-0.48c0.055-0.115,0.105-0.23,0.152-0.35
					c0.076-0.189,0.145-0.396,0.209-0.629c0.088-0.326,0.152-0.652,0.203-0.93c0.037-0.201,0.072-0.406,0.104-0.609
					C133.814,62.523,133.85,62.281,133.883,62.039z"/>
			</g>
		</g>
		<g>
			<g>
				<path d="M134,61.242l0.221,0.035c-0.043,0.264-0.082,0.527-0.117,0.791l-0.221-0.029C133.92,61.773,133.959,61.508,134,61.242z"
					/>
			</g>
		</g>
		<g>
			<g>
				<polygon points="32.371,107.65 32.516,107.82 31.771,108.305 31.771,108.303 31.76,108.309 31.715,108.209 31.715,108.207 
					31.715,108.209 31.713,108.205 31.625,108.145 31.645,108.115 31.727,108.068 				"/>
			</g>
		</g>
		<g>
			<g>
				<path d="M33.463,106.891l0.121,0.186c-0.371,0.242-0.73,0.492-1.07,0.746l-0.133-0.178
					C32.725,107.387,33.088,107.135,33.463,106.891z"/>
			</g>
		</g>
		<g>
			<g>
				<path d="M111.801,61.184l0.023,0.223c-3.691,0.381-7.438,0.98-11.139,1.781c-3.713,0.803-7.426,1.816-11.035,3.014
					c-3.531,1.17-7.041,2.541-10.434,4.07c-3.383,1.527-6.73,3.254-9.949,5.129c-6.146,3.58-11.936,7.768-17.207,12.447
					c-2.828,2.51-5.539,5.193-8.061,7.977c-1.215,1.34-2.396,2.717-3.516,4.094c-0.596,0.73-1.186,1.477-1.754,2.215
					c-0.273,0.357-0.545,0.715-0.813,1.074c-0.064,0.086-0.129,0.17-0.191,0.258l-0.152,0.205c-0.121,0.164-0.242,0.328-0.361,0.492
					l-0.182,0.246c-0.029,0.039-0.059,0.08-0.09,0.119c-0.115,0.15-0.244,0.299-0.383,0.443c-0.256,0.266-0.537,0.508-0.836,0.719
					c-0.063,0.043-0.125,0.086-0.188,0.127c-0.07,0.047-0.143,0.092-0.213,0.139l-1.738,1.121l-0.121-0.186l1.738-1.123
					c0.072-0.045,0.143-0.09,0.211-0.137c0.063-0.041,0.123-0.082,0.184-0.123c0.287-0.203,0.557-0.436,0.803-0.691
					c0.133-0.139,0.258-0.281,0.369-0.426c0.029-0.039,0.057-0.076,0.084-0.113l0.182-0.246c0.119-0.164,0.24-0.33,0.361-0.492
					l0.154-0.207c0.063-0.086,0.127-0.172,0.189-0.258c0.27-0.361,0.541-0.719,0.816-1.076c0.568-0.74,1.16-1.488,1.758-2.221
					c1.121-1.379,2.305-2.76,3.523-4.104c2.525-2.789,5.244-5.477,8.076-7.992c5.283-4.689,11.086-8.887,17.242-12.473
					c3.227-1.881,6.582-3.609,9.973-5.139c3.398-1.535,6.916-2.908,10.453-4.08c3.617-1.199,7.338-2.215,11.059-3.02
					C104.348,62.168,108.102,61.566,111.801,61.184z"/>
			</g>
		</g>
		<g>
			<g>
				<path d="M143.389,60.051c0.129,0,0.256,0,0.385,0h0.367v0.223h-0.367c-1.963,0.002-3.926,0-5.891,0.006
					c-1.477,0.006-2.953,0.014-4.43,0.029c-2.859,0.031-5.41,0.086-7.799,0.168c-2.467,0.086-4.756,0.199-6.994,0.348
					c-1.24,0.084-2.457,0.176-3.617,0.275c-1.059,0.09-2.141,0.193-3.219,0.307l-0.023-0.223c1.08-0.111,2.164-0.215,3.223-0.307
					c1.162-0.1,2.379-0.191,3.621-0.273c2.242-0.148,4.531-0.264,7.002-0.348c2.391-0.082,4.943-0.139,7.805-0.17
					c1.477-0.016,2.953-0.023,4.432-0.029C139.719,60.051,141.553,60.051,143.389,60.051z"/>
			</g>
		</g>
		<g>
			<g>
				<path d="M36.523,105.123l0.158,0.154c-0.094,0.098-0.189,0.191-0.291,0.281l-0.148-0.164
					C36.338,105.307,36.432,105.217,36.523,105.123z"/>
			</g>
		</g>
		<g>
			<g>
				<path d="M111.631,71.695l0.051,0.217c-0.512,0.121-1.025,0.242-1.539,0.363c-0.557,0.133-1.113,0.264-1.672,0.396
					c-0.664,0.16-1.324,0.32-1.986,0.484c-1.33,0.328-2.629,0.662-3.857,0.994c-2.574,0.695-5.078,1.441-7.443,2.223
					c-2.4,0.793-4.783,1.658-7.084,2.576c-2.334,0.932-4.662,1.945-6.918,3.016c-4.033,1.914-8.025,4.092-11.863,6.475
					c-1.867,1.158-3.797,2.428-5.73,3.77c-0.834,0.578-1.693,1.188-2.627,1.861c-0.803,0.578-1.602,1.164-2.398,1.748
					c-0.438,0.32-0.873,0.639-1.311,0.957c-0.371,0.271-0.742,0.541-1.117,0.809c-0.703,0.504-1.279,0.904-1.811,1.262
					c-0.404,0.27-0.76,0.5-1.09,0.705c-0.318,0.199-0.605,0.369-0.873,0.521c-0.58,0.326-1.107,0.588-1.615,0.795
					c-0.514,0.209-1.023,0.371-1.514,0.477c-0.471,0.104-0.961,0.164-1.453,0.182c-0.303,0.01-0.633,0.006-1.012-0.014
					c-0.146-0.008-0.293-0.02-0.439-0.029c-0.203-0.016-0.408-0.031-0.611-0.049c-0.223-0.018-0.447-0.035-0.672-0.051
					c-0.148-0.012-0.297-0.02-0.445-0.029l-0.775-0.051c-0.494-0.031-0.99-0.061-1.486-0.086c-0.309-0.016-0.617-0.031-0.926-0.041
					c-0.207-0.006-0.414-0.008-0.621-0.008c-0.148,0-0.297,0.002-0.445,0.014c-0.102,0.008-0.203,0.018-0.303,0.035
					c-0.098,0.018-0.193,0.041-0.283,0.072l-0.068-0.213c0.1-0.031,0.205-0.059,0.313-0.078s0.217-0.031,0.324-0.039
					c0.154-0.012,0.309-0.014,0.463-0.014c0.209,0,0.418,0.002,0.627,0.008c0.311,0.01,0.621,0.025,0.932,0.041
					c0.496,0.025,0.994,0.055,1.49,0.088l0.773,0.049c0.15,0.01,0.299,0.02,0.447,0.029c0.227,0.016,0.451,0.035,0.676,0.053
					c0.201,0.018,0.404,0.033,0.607,0.049c0.145,0.01,0.291,0.02,0.436,0.027c0.371,0.02,0.697,0.025,0.992,0.016
					c0.479-0.018,0.955-0.078,1.414-0.178c0.477-0.104,0.975-0.26,1.477-0.467c0.498-0.203,1.018-0.459,1.59-0.781
					c0.266-0.15,0.549-0.318,0.865-0.516c0.328-0.205,0.682-0.434,1.082-0.703c0.531-0.355,1.104-0.754,1.807-1.258
					c0.373-0.266,0.744-0.535,1.115-0.807c0.438-0.318,0.873-0.637,1.311-0.957c0.799-0.584,1.596-1.17,2.398-1.748
					c0.936-0.676,1.797-1.285,2.631-1.863c1.938-1.346,3.869-2.615,5.74-3.777c3.846-2.387,7.844-4.57,11.885-6.484
					c2.262-1.074,4.594-2.09,6.932-3.023c2.305-0.918,4.691-1.787,7.098-2.58c2.367-0.781,4.875-1.531,7.453-2.227
					c1.23-0.332,2.531-0.668,3.863-0.996c0.662-0.164,1.324-0.324,1.988-0.482c0.557-0.133,1.115-0.266,1.672-0.396
					C110.605,71.939,111.117,71.818,111.631,71.695z"/>
			</g>
		</g>
		<g>
			<g>
				<path d="M123.988,66.598l0.125,0.186c-0.504,0.336-1,0.654-1.477,0.945c-0.477,0.293-0.949,0.566-1.404,0.816
					c-0.906,0.494-1.814,0.932-2.705,1.301c-0.453,0.189-0.932,0.371-1.422,0.543c-0.486,0.172-1.002,0.34-1.535,0.5
					c-0.539,0.162-1.107,0.32-1.738,0.488c-0.639,0.168-1.322,0.338-2.15,0.535l-0.051-0.217c0.826-0.197,1.506-0.365,2.145-0.535
					c0.627-0.164,1.193-0.322,1.73-0.484c0.529-0.16,1.043-0.326,1.527-0.496c0.486-0.17,0.959-0.352,1.41-0.539
					c0.881-0.365,1.783-0.801,2.682-1.291c0.451-0.248,0.922-0.52,1.396-0.811C122.994,67.25,123.488,66.934,123.988,66.598z"/>
			</g>
		</g>
		<g>
			<g>
				<path d="M133.992,65.145l0.203,0.092c-0.262,0.57-0.66,0.686-1.215,0.686v-0.223C133.482,65.699,133.777,65.613,133.992,65.145z
					"/>
			</g>
		</g>
		<g>
			<g>
				<path d="M124.324,66.563l0.025,0.219c-0.1,0.012-0.197,0.018-0.297,0.02l-0.004-0.221
					C124.141,66.578,124.23,66.572,124.324,66.563z"/>
			</g>
		</g>
		<g>
			<g>
				
					<rect x="124.059" y="66.466" transform="matrix(-0.5628 -0.8266 0.8266 -0.5628 138.9916 206.7368)" width="0.222" height="0.288"/>
			</g>
		</g>
		<g>
			<g>
				<path d="M132.881,65.762l0.199,0.098c-0.127,0.26-0.264,0.518-0.402,0.766c-0.119,0.211-0.246,0.422-0.379,0.627
					c-0.146,0.225-0.289,0.432-0.438,0.627c-0.156,0.205-0.301,0.381-0.439,0.535c-0.133,0.146-0.26,0.273-0.391,0.387
					c-0.133,0.117-0.26,0.213-0.389,0.295c-0.139,0.086-0.268,0.148-0.395,0.193c-0.133,0.045-0.26,0.07-0.379,0.074l-0.008-0.223
					c0.098-0.002,0.203-0.023,0.314-0.063c0.111-0.037,0.225-0.094,0.348-0.172c0.119-0.074,0.236-0.162,0.361-0.271
					c0.123-0.109,0.246-0.23,0.371-0.371c0.137-0.148,0.275-0.318,0.428-0.52c0.145-0.191,0.285-0.393,0.43-0.613
					c0.129-0.201,0.254-0.408,0.371-0.615C132.621,66.271,132.756,66.018,132.881,65.762z"/>
			</g>
		</g>
		<g>
			<g>
				<path d="M255.877,109.311c0.416,7.793,0.885,15.221,1.34,22.402c2.668,42.184,4.775,75.502-8.168,121.422l-0.215-0.059
					c12.936-45.885,10.828-79.188,8.16-121.35c-0.453-7.182-0.924-14.609-1.338-22.404L255.877,109.311z"/>
			</g>
		</g>
		<g>
			<g>
				<path d="M254.779,108.635c0.285,4.982,0.602,10.039,0.908,14.93c1.775,28.387,3.611,57.738,0.242,87.004
					c-2.006,17.436-5.426,33.754-10.453,49.893c-2.367,7.594-5.141,15.467-8.484,24.068c-1.457,3.748-3.045,7.689-4.721,11.715
					c-0.715,1.719-1.506,3.59-2.488,5.889c-0.236,0.555-0.443,1.133-0.643,1.691c-0.156,0.441-0.318,0.896-0.496,1.34
					c-0.02,0.051-0.045,0.123-0.078,0.211c-0.463,1.244-1.029,2.518-1.74,2.52v-0.223c0.652,0,1.314-1.787,1.531-2.375
					c0.033-0.09,0.061-0.162,0.082-0.215c0.176-0.439,0.336-0.893,0.492-1.332c0.201-0.563,0.408-1.145,0.646-1.705
					c0.982-2.299,1.773-4.168,2.488-5.887c1.676-4.023,3.264-7.963,4.719-11.711c3.342-8.596,6.113-16.463,8.479-24.053
					c5.023-16.125,8.441-32.432,10.445-49.852c3.367-29.246,1.531-58.588-0.244-86.965c-0.305-4.891-0.621-9.947-0.906-14.93
					L254.779,108.635z"/>
			</g>
		</g>
		<g>
			<g>
				<path d="M259.896,175.252c0.09,20.543-1.838,39.57-5.896,58.17l-0.217-0.047c4.055-18.584,5.98-37.596,5.893-58.123H259.896z"/>
			</g>
		</g>
		<g>
			<g>
				<path d="M28.385,175.252h0.223c-0.09,20.496,1.838,39.508,5.895,58.123l-0.217,0.047
					C30.227,214.791,28.297,195.764,28.385,175.252z"/>
			</g>
		</g>
		<g>
			<g>
				<path d="M33.504,108.635l0.223,0.014c-0.287,4.98-0.602,10.033-0.908,14.922c-1.775,28.379-3.611,57.723-0.244,86.973
					c2.006,17.422,5.422,33.729,10.445,49.854c2.365,7.586,5.139,15.453,8.479,24.051c1.459,3.754,3.002,7.584,4.719,11.711
					c0.73,1.752,1.52,3.623,2.488,5.887c0.238,0.561,0.445,1.141,0.645,1.703c0.156,0.439,0.318,0.895,0.494,1.334
					c0.021,0.053,0.049,0.129,0.084,0.221c0.24,0.648,0.879,2.369,1.531,2.369v0.223c-0.711,0-1.279-1.271-1.74-2.514
					c-0.033-0.09-0.061-0.164-0.082-0.217c-0.176-0.443-0.34-0.9-0.496-1.342c-0.199-0.559-0.404-1.135-0.641-1.689
					c-0.967-2.264-1.758-4.137-2.488-5.889c-1.719-4.129-3.262-7.961-4.721-11.717c-3.342-8.602-6.117-16.473-8.482-24.064
					c-5.027-16.139-8.447-32.459-10.455-49.895c-3.369-29.27-1.533-58.623,0.244-87.012
					C32.902,118.668,33.219,113.615,33.504,108.635z"/>
			</g>
		</g>
		<g>
			<g>
				<path d="M32.406,109.311l0.223,0.012c-0.416,7.793-0.885,15.219-1.34,22.4c-2.668,42.164-4.775,75.467,8.16,121.354
					l-0.213,0.059c-12.947-45.922-10.838-79.242-8.17-121.426C31.521,124.527,31.992,117.104,32.406,109.311z"/>
			</g>
		</g>
		<g>
			<g>
				
					<rect x="37.492" y="107.666" transform="matrix(-0.5197 -0.8544 0.8544 -0.5197 -35.7283 197.3176)" width="0.222" height="2.073"/>
			</g>
		</g>
		<g>
			<g>
				
					<rect x="37.152" y="106.726" transform="matrix(-0.5197 -0.8544 0.8544 -0.5197 -35.0108 194.8323)" width="0.222" height="1.064"/>
			</g>
		</g>
		<g>
			<g>
				<path d="M36.729,107.559c0.027,0,0.053,0.002,0.078,0.004"/>
			</g>
		</g>
		<g>
			<g>
				<line x1="36.746" y1="107.252" x2="36.73" y2="107.246"/>
			</g>
		</g>
		<g>
			<g>
				<path d="M36.746,107.139c0.078,0.02,0.131,0.059,0.156,0.115c0.041,0.09-0.002,0.178-0.035,0.242
					c-0.01,0.023-0.025,0.055-0.027,0.066l-0.223-0.01c0.004-0.055,0.029-0.107,0.051-0.154c0.01-0.02,0.027-0.055,0.029-0.068
					c-0.002,0.01,0.006,0.025,0.014,0.031L36.746,107.139z"/>
			</g>
		</g>
		<g>
			<g>
				<line x1="36.729" y1="107.559" x2="36.691" y2="107.559"/>
			</g>
		</g>
		<g>
			<g>
				<path d="M36.617,107.553l0.223,0.012c-0.059,1.111-0.107,2.221-0.156,3.332c-0.135,3.053-0.275,6.209-0.604,9.309l-0.223-0.023
					c0.33-3.092,0.469-6.246,0.604-9.295C36.512,109.775,36.561,108.664,36.617,107.553z"/>
			</g>
		</g>
		<g>
			<g>
				<path d="M37.775,106.441c0.004,0.035,0.01,0.07,0.02,0.105l-0.217,0.051c-0.01-0.043-0.018-0.086-0.023-0.129L37.775,106.441z"
					/>
			</g>
		</g>
		<g>
			<g>
				<path d="M37.729,106.334c0.027,0,0.059,0.008,0.086,0.033l0.037,0.125l-0.113-0.021h0.004l-0.004,0.004l-0.002,0.08
					c-0.029,0.008-0.059,0.016-0.094,0.01l0.021-0.107l0.057,0.01l-0.057-0.01l0.023-0.111l-0.023,0.109l-0.002-0.109
					C37.68,106.34,37.703,106.334,37.729,106.334z"/>
			</g>
		</g>
		<g>
			<g>
				<path d="M38.477,105.242l0.102,0.197c-0.467,0.236-0.691,0.527-0.805,1.039l-0.217-0.047
					C37.684,105.854,37.951,105.508,38.477,105.242z"/>
			</g>
		</g>
		<g>
			<g>
				<path d="M38.625,105.289c0.018,0.033,0.018,0.064,0.018,0.084c0-0.006-0.008-0.031-0.029-0.051l-0.053,0.061l0.014,0.139
					l-0.109-0.033c-0.045-0.041-0.045-0.096-0.045-0.119l0,0c0.002,0,0.002,0.01,0.01,0.023l0.117-0.063l0.004-0.031l0.004,0.027
					L38.625,105.289z"/>
			</g>
		</g>
		<g>
			<g>
				<path d="M38.637,105.219l0.004,0.223c-0.031,0.002-0.063,0.004-0.096,0.01l-0.035-0.221
					C38.553,105.225,38.594,105.221,38.637,105.219z"/>
			</g>
		</g>
		<g>
			<g>
				
					<rect x="37.342" y="104.809" transform="matrix(-0.7751 -0.6318 0.6318 -0.7751 1.1835 210.2611)" width="1.335" height="0.222"/>
			</g>
		</g>
		<g>
			<g>
				
					<rect x="36.55" y="105.948" transform="matrix(-0.7751 -0.6319 0.6319 -0.7751 -1.0235 211.7529)" width="1.255" height="0.222"/>
			</g>
		</g>
		<g>
			<g>
				<path d="M36.672,105.688c-0.008,0.012-0.016,0.021-0.023,0.033"/>
			</g>
		</g>
		<g>
			<g>
				<polygon points="36.496,105.621 36.545,105.721 36.619,105.803 36.555,105.74 36.594,105.82 36.539,105.725 36.471,105.639 				
					"/>
			</g>
		</g>
		<g>
			<g>
				<path d="M36.533,105.732l0.096,0.16c-0.076,0.045-0.154,0.035-0.219-0.021L36.533,105.732z"/>
			</g>
		</g>
		<g>
			<g>
				<polygon points="36.74,105.457 36.793,105.494 36.676,105.682 36.738,105.592 36.668,105.678 36.609,105.637 				"/>
			</g>
		</g>
		<g>
			<g>
				<path d="M36.586,105.482l0.18,0.129c-0.016,0.021-0.029,0.043-0.043,0.064c-0.043,0.068-0.092,0.145-0.176,0.203l-0.127-0.182
					c0.047-0.033,0.078-0.084,0.115-0.141C36.551,105.531,36.566,105.506,36.586,105.482z"/>
			</g>
		</g>
		<g>
			<g>
				<path d="M36.426,105.691l0.113,0.193c-0.016,0.008-0.035,0.025-0.055,0.045c-0.061,0.057-0.201,0.188-0.381,0.039l0.143-0.17
					c0.016,0.012,0.025,0.016,0.027,0.016c0.01-0.002,0.041-0.031,0.059-0.047C36.359,105.742,36.391,105.713,36.426,105.691z"/>
			</g>
		</g>
		<g>
			<g>
				
					<rect x="36.177" y="105.566" transform="matrix(-0.7664 -0.6424 0.6424 -0.7664 -3.678 210.0159)" width="0.347" height="0.222"/>
			</g>
		</g>
		<g>
			<g>
				<path d="M39.334,101.5l0.197,0.102c-0.057,0.109-0.115,0.219-0.18,0.324l-0.189-0.115
					C39.223,101.709,39.279,101.607,39.334,101.5z"/>
			</g>
		</g>
		<g>
			<g>
				<rect x="36.41" y="105.34" transform="matrix(-0.7693 -0.6389 0.6389 -0.7693 -2.6884 209.9315)" width="0.3" height="0.223"/>
			</g>
		</g>
		<g>
			<g>
				<path d="M39.059,101.848l0.189,0.117c-0.508,0.824-1.072,1.627-1.617,2.402c-0.291,0.412-0.58,0.824-0.863,1.242l-0.184-0.125
					c0.283-0.418,0.574-0.832,0.865-1.246C37.992,103.467,38.555,102.668,39.059,101.848z"/>
			</g>
		</g>
		<g>
			<g>
				<polygon points="40.813,106.695 40.873,106.711 40.826,106.803 40.83,106.807 40.947,106.807 40.891,106.906 40.813,106.918 
					40.813,106.908 40.771,106.908 40.813,106.811 40.725,106.807 40.813,106.807 40.813,106.789 40.775,106.719 40.813,106.779 
									"/>
			</g>
		</g>
		<g>
			<g>
				<polygon points="37.725,106.695 37.729,106.918 37.693,106.695 				"/>
			</g>
		</g>
		<g>
			<g>
				<path d="M39.271,105.42c0.363,0,0.721,0.148,0.98,0.406c0.125,0.127,0.23,0.281,0.299,0.449
					c0.072,0.174,0.107,0.352,0.105,0.531c0.002,0.178-0.033,0.357-0.105,0.529c-0.068,0.168-0.174,0.324-0.299,0.451
					c-0.26,0.258-0.617,0.406-0.98,0.406c-0.367,0-0.725-0.148-0.982-0.406c-0.258-0.26-0.406-0.617-0.406-0.98
					c0-0.359,0.152-0.727,0.406-0.98C38.549,105.568,38.906,105.42,39.271,105.42z M39.271,107.971c0.301,0,0.609-0.127,0.822-0.342
					c0.107-0.105,0.193-0.236,0.252-0.377c0.061-0.145,0.09-0.295,0.088-0.445c0.002-0.148-0.029-0.303-0.088-0.445
					c-0.059-0.141-0.145-0.271-0.252-0.379c-0.213-0.213-0.521-0.34-0.822-0.34c-0.303,0-0.609,0.127-0.824,0.34
					c-0.213,0.213-0.342,0.521-0.342,0.824c0,0.301,0.129,0.609,0.342,0.822C38.66,107.844,38.969,107.971,39.271,107.971z"/>
			</g>
		</g>
		<g>
			<g>
				<path d="M37.617,106.807h0.223c0,0.789,0.643,1.432,1.432,1.432c0.787,0,1.43-0.643,1.43-1.432h0.223
					c0,0.912-0.742,1.652-1.652,1.652C38.359,108.459,37.617,107.719,37.617,106.807z"/>
			</g>
		</g>
		<g>
			<g>
				<path d="M39.27,105.154c0,0,0,0,0.002,0c0.91,0,1.652,0.74,1.652,1.652h-0.223c0-0.789-0.643-1.432-1.43-1.432
					c-0.002,0-0.002,0-0.002,0c-0.381,0-0.74,0.148-1.01,0.418c-0.271,0.271-0.42,0.631-0.42,1.014h-0.223
					c0-0.443,0.174-0.857,0.486-1.17C38.414,105.324,38.828,105.154,39.27,105.154z"/>
			</g>
		</g>
		<g>
			<g>
				<path d="M39.27,105.875h0.006c0.246,0.002,0.488,0.104,0.66,0.281c0.17,0.172,0.266,0.408,0.266,0.65
					c0,0.24-0.096,0.479-0.266,0.65c-0.172,0.176-0.412,0.277-0.66,0.279c-0.246,0-0.492-0.102-0.662-0.273
					c-0.174-0.172-0.273-0.412-0.273-0.656s0.1-0.484,0.271-0.658C38.785,105.975,39.025,105.875,39.27,105.875z M39.271,107.514
					c0.188,0,0.375-0.08,0.506-0.213c0.129-0.131,0.201-0.311,0.201-0.494c0-0.182-0.074-0.367-0.201-0.494
					c-0.131-0.135-0.318-0.213-0.504-0.215l-0.004-0.111v0.111c-0.184,0-0.371,0.078-0.5,0.207
					c-0.129,0.131-0.207,0.318-0.207,0.502s0.078,0.369,0.207,0.5C38.9,107.438,39.086,107.514,39.271,107.514z"/>
			</g>
		</g>
		<g>
			<g>
				<path d="M39.271,105.475L39.271,105.475c0.35,0,0.693,0.143,0.941,0.391s0.389,0.59,0.389,0.941c0,0.35-0.141,0.693-0.389,0.941
					s-0.592,0.389-0.941,0.391c-0.352,0-0.693-0.143-0.941-0.391s-0.391-0.592-0.391-0.941c0-0.352,0.143-0.693,0.391-0.941
					S38.922,105.475,39.271,105.475z M39.271,107.916c0.287,0,0.58-0.123,0.783-0.326c0.205-0.203,0.326-0.496,0.324-0.783
					c0.002-0.289-0.119-0.582-0.324-0.785c-0.203-0.203-0.496-0.324-0.785-0.324c-0.285,0-0.578,0.121-0.783,0.324
					c-0.203,0.203-0.324,0.496-0.324,0.785c0,0.287,0.121,0.58,0.324,0.783C38.689,107.795,38.984,107.916,39.271,107.916z"/>
			</g>
		</g>
		<g>
			<g>
				<path d="M39.27,105.932h0.006c0.232,0.002,0.459,0.098,0.621,0.264c0.158,0.162,0.25,0.385,0.25,0.611
					c0,0.225-0.092,0.447-0.25,0.611c-0.164,0.166-0.389,0.262-0.621,0.264c-0.234,0-0.461-0.094-0.623-0.258
					c-0.164-0.162-0.256-0.389-0.256-0.617c0-0.23,0.092-0.457,0.254-0.619C38.816,106.023,39.041,105.932,39.27,105.932z
					 M39.271,107.459c0.172-0.002,0.346-0.074,0.465-0.197c0.117-0.119,0.188-0.289,0.188-0.455s-0.07-0.338-0.188-0.457
					c-0.119-0.121-0.291-0.195-0.463-0.197l-0.004-0.111v0.111c-0.168,0-0.34,0.072-0.461,0.191
					c-0.119,0.119-0.191,0.293-0.191,0.463c0,0.168,0.072,0.342,0.191,0.461C38.93,107.387,39.102,107.459,39.271,107.459z"/>
			</g>
		</g>
		<g>
			<g>
				<path d="M250.508,106.443l0.221,0.023c-0.006,0.043-0.012,0.086-0.021,0.131l-0.217-0.049
					C250.498,106.514,250.504,106.479,250.508,106.443z"/>
			</g>
		</g>
		<g>
			<g>
				<path d="M250.555,106.334c0.023,0,0.043,0.006,0.057,0.008l0.014,0.104h0.025l-0.023,0.006l0.016,0.111
					c-0.035,0.008-0.066,0-0.086-0.004c0.002,0,0.039-0.002,0.068-0.033l-0.063-0.059l-0.129,0.031l0.033-0.129
					C250.494,106.342,250.527,106.334,250.555,106.334z"/>
			</g>
		</g>
		<g>
			<g>
				<path d="M249.807,105.242c0.527,0.266,0.793,0.611,0.92,1.189l-0.217,0.047c-0.111-0.512-0.338-0.803-0.803-1.039
					L249.807,105.242z"/>
			</g>
		</g>
		<g>
			<g>
				<path d="M249.654,105.293l0.074,0.035l0.004-0.029l-0.004,0.029l0.027,0.014l0.107,0.02c0,0.029,0,0.084-0.045,0.125
					l-0.109,0.035l0.012-0.111l-0.008-0.014l-0.072-0.02C249.641,105.354,249.641,105.324,249.654,105.293z"/>
			</g>
		</g>
		<g>
			<g>
				<path d="M249.646,105.219c0.043,0.002,0.086,0.006,0.127,0.014l-0.037,0.219c-0.031-0.006-0.063-0.008-0.096-0.01
					L249.646,105.219z"/>
			</g>
		</g>
		<g>
			<g>
				
					<rect x="250.162" y="104.252" transform="matrix(-0.6332 -0.774 0.774 -0.6332 327.5525 365.0602)" width="0.222" height="1.335"/>
			</g>
		</g>
		<g>
			<g>
				
					<rect x="250.994" y="105.429" transform="matrix(-0.6289 -0.7774 0.7774 -0.6289 326.5832 367.9837)" width="0.224" height="1.258"/>
			</g>
		</g>
		<g>
			<g>
				<path d="M251.611,105.688c0.008,0.012,0.016,0.021,0.025,0.033"/>
			</g>
		</g>
		<g>
			<g>
				<polygon points="251.809,105.633 251.838,105.666 251.742,105.725 251.67,105.807 251.727,105.734 251.648,105.783 
					251.727,105.734 				"/>
			</g>
		</g>
		<g>
			<g>
				<path d="M251.801,105.787c-0.031,0.027-0.055,0.029-0.088,0.01"/>
			</g>
		</g>
		<g>
			<g>
				<polygon points="251.531,105.465 251.609,105.547 251.672,105.639 251.605,105.684 251.482,105.498 				"/>
			</g>
		</g>
		<g>
			<g>
				<path d="M251.699,105.482c0.018,0.023,0.031,0.047,0.047,0.072c0.037,0.057,0.068,0.107,0.117,0.143l-0.125,0.182
					c-0.088-0.059-0.137-0.137-0.18-0.207c-0.014-0.02-0.025-0.041-0.041-0.061L251.699,105.482z"/>
			</g>
		</g>
		<g>
			<g>
				<path d="M251.857,105.693c0.037,0.02,0.066,0.049,0.092,0.072c0.02,0.018,0.051,0.047,0.063,0.049c0,0,0.01-0.002,0.025-0.016
					l0.143,0.17c-0.178,0.148-0.32,0.016-0.381-0.039c-0.02-0.02-0.039-0.037-0.055-0.047L251.857,105.693z"/>
			</g>
		</g>
		<g>
			<g>
				
					<rect x="251.823" y="105.504" transform="matrix(-0.6428 -0.7661 0.7661 -0.6428 332.9174 366.5977)" width="0.222" height="0.345"/>
			</g>
		</g>
		<g>
			<g>
				<path d="M248.951,101.5c0.053,0.105,0.109,0.209,0.172,0.311l-0.189,0.115c-0.064-0.105-0.125-0.213-0.182-0.324L248.951,101.5z
					"/>
			</g>
		</g>
		<g>
			<g>
				
					<rect x="251.611" y="105.302" transform="matrix(-0.6385 -0.7697 0.7697 -0.6385 331.2772 366.5169)" width="0.223" height="0.298"/>
			</g>
		</g>
		<g>
			<g>
				<path d="M249.225,101.848c0.504,0.818,1.066,1.617,1.609,2.389c0.291,0.414,0.582,0.828,0.867,1.248l-0.184,0.125
					c-0.285-0.418-0.574-0.832-0.865-1.244c-0.545-0.775-1.109-1.576-1.617-2.4L249.225,101.848z"/>
			</g>
		</g>
		<g>
			<g>
				<polygon points="247.471,106.695 247.471,106.773 247.508,106.719 247.471,106.779 247.471,106.807 247.512,106.908 
					247.471,106.908 247.471,106.918 247.471,106.908 247.393,106.906 247.336,106.807 247.447,106.807 247.41,106.711 				"/>
			</g>
		</g>
		<g>
			<g>
				<path d="M250.578,106.807c-0.008,0-0.016,0-0.023,0"/>
			</g>
		</g>
		<g>
			<g>
				<path d="M249.012,105.42c0.365,0,0.723,0.148,0.98,0.406c0.26,0.256,0.406,0.613,0.406,0.98c0,0.365-0.146,0.723-0.404,0.98
					c-0.26,0.258-0.617,0.406-0.982,0.406s-0.721-0.148-0.979-0.406c-0.127-0.125-0.23-0.281-0.301-0.451s-0.105-0.35-0.105-0.529
					c0-0.182,0.035-0.359,0.105-0.529s0.174-0.326,0.301-0.451C248.291,105.568,248.648,105.42,249.012,105.42z M249.012,107.971
					c0.303,0,0.611-0.127,0.826-0.342c0.213-0.213,0.34-0.52,0.34-0.822s-0.129-0.611-0.342-0.824s-0.521-0.34-0.824-0.34
					c-0.301,0-0.609,0.127-0.822,0.34c-0.105,0.105-0.193,0.236-0.252,0.379c-0.059,0.141-0.088,0.295-0.088,0.445
					s0.029,0.301,0.088,0.445c0.059,0.143,0.146,0.273,0.252,0.377C248.402,107.844,248.711,107.971,249.012,107.971z"/>
			</g>
		</g>
		<g>
			<g>
				<path d="M247.582,106.807c0,0.789,0.643,1.432,1.43,1.432c0.791,0,1.432-0.643,1.432-1.432h0.223
					c0,0.912-0.742,1.652-1.654,1.652c-0.91,0-1.65-0.74-1.652-1.652H247.582z"/>
			</g>
		</g>
		<g>
			<g>
				<path d="M249.014,105.154c0.441,0,0.855,0.17,1.168,0.482s0.484,0.729,0.484,1.17h-0.223c0-0.383-0.148-0.742-0.42-1.012
					c-0.27-0.271-0.629-0.42-1.01-0.42c0,0,0,0-0.002,0c-0.787,0-1.43,0.643-1.43,1.432h-0.223c0.002-0.912,0.742-1.652,1.652-1.652
					C249.014,105.154,249.014,105.154,249.014,105.154z"/>
			</g>
		</g>
		<g>
			<g>
				<path d="M249.012,105.875c0.246,0,0.484,0.1,0.658,0.271c0.174,0.174,0.273,0.414,0.273,0.66c0,0.244-0.1,0.484-0.273,0.656
					c-0.172,0.174-0.412,0.273-0.658,0.273c-0.248-0.002-0.496-0.107-0.664-0.281c-0.17-0.172-0.266-0.408-0.264-0.65
					c-0.002-0.238,0.094-0.477,0.264-0.648c0.17-0.174,0.416-0.279,0.66-0.281H249.012z M249.008,107.514
					c0.188,0,0.375-0.076,0.506-0.207c0.131-0.129,0.207-0.316,0.207-0.5c0-0.186-0.078-0.373-0.207-0.502
					c-0.131-0.129-0.318-0.207-0.502-0.207v-0.111l-0.004,0.111c-0.184,0.002-0.373,0.08-0.502,0.213
					c-0.127,0.131-0.201,0.314-0.199,0.494c-0.002,0.182,0.072,0.367,0.199,0.496C248.635,107.434,248.822,107.514,249.008,107.514z
					"/>
			</g>
		</g>
		<g>
			<g>
				<path d="M249.012,105.475L249.012,105.475c0.346,0,0.697,0.146,0.943,0.391c0.248,0.248,0.389,0.59,0.389,0.941
					c0,0.35-0.141,0.693-0.389,0.941s-0.592,0.391-0.943,0.391c-0.35-0.002-0.691-0.143-0.939-0.391
					c-0.25-0.25-0.393-0.594-0.389-0.943c-0.004-0.348,0.139-0.689,0.387-0.939C248.32,105.617,248.662,105.475,249.012,105.475z
					 M249.012,107.916c0.289,0,0.582-0.121,0.785-0.326c0.203-0.203,0.326-0.496,0.326-0.783s-0.123-0.582-0.326-0.785
					s-0.496-0.324-0.785-0.324c-0.291,0-0.576,0.119-0.783,0.324c-0.205,0.205-0.326,0.498-0.324,0.783
					c-0.002,0.289,0.119,0.582,0.324,0.785C248.436,107.797,248.721,107.916,249.012,107.916z"/>
			</g>
		</g>
		<g>
			<g>
				<path d="M249.012,105.932c0.229,0,0.459,0.094,0.619,0.256c0.164,0.162,0.258,0.387,0.258,0.619c0,0.23-0.094,0.455-0.258,0.617
					c-0.162,0.164-0.389,0.258-0.619,0.258c-0.232-0.002-0.465-0.1-0.625-0.264c-0.158-0.164-0.25-0.387-0.248-0.613
					c-0.002-0.225,0.09-0.447,0.248-0.609c0.16-0.164,0.391-0.262,0.621-0.264H249.012z M249.008,107.459
					c0.174,0,0.348-0.072,0.467-0.191s0.191-0.293,0.191-0.461c0-0.17-0.072-0.344-0.191-0.463s-0.293-0.191-0.463-0.191v-0.111
					l-0.004,0.111c-0.17,0.002-0.344,0.076-0.463,0.197c-0.115,0.119-0.186,0.289-0.184,0.455c-0.002,0.168,0.068,0.338,0.184,0.457
					C248.666,107.385,248.838,107.457,249.008,107.459z"/>
			</g>
		</g>
		<g>
			<g>
				
					<rect x="249.645" y="108.591" transform="matrix(-0.8518 -0.5239 0.5239 -0.8518 407.2615 332.6222)" width="2.073" height="0.223"/>
			</g>
		</g>
		<g>
			<g>
				
					<rect x="250.49" y="107.146" transform="matrix(-0.8521 -0.5234 0.5234 -0.8521 408.7802 330.0318)" width="1.064" height="0.223"/>
			</g>
		</g>
		<g>
			<g>
				<polygon points="251.549,107.447 251.561,107.67 251.555,107.559 251.533,107.67 251.48,107.674 251.473,107.451 				"/>
			</g>
		</g>
		<g>
			<g>
				<path d="M251.537,107.252c0.006-0.002,0.01-0.004,0.016-0.006"/>
			</g>
		</g>
		<g>
			<g>
				<path d="M251.537,107.139l0.057,0.213c0.006,0.014,0.016,0.033,0.021,0.047c0.023,0.047,0.049,0.098,0.051,0.154l-0.223,0.01
					c0-0.012-0.018-0.043-0.027-0.066c-0.031-0.064-0.076-0.152-0.035-0.242C251.406,107.197,251.459,107.158,251.537,107.139z"/>
			</g>
		</g>
		<g>
			<g>
				<line x1="251.555" y1="107.559" x2="251.594" y2="107.559"/>
			</g>
		</g>
		<g>
			<g>
				<path d="M155.402,65.762c0.127,0.258,0.262,0.512,0.398,0.754c0.127,0.227,0.248,0.428,0.371,0.615
					c0.133,0.207,0.277,0.412,0.428,0.613c0.146,0.195,0.287,0.365,0.426,0.52c0.131,0.145,0.254,0.266,0.373,0.371
					c0.125,0.109,0.244,0.197,0.361,0.271c0.119,0.076,0.236,0.133,0.35,0.172c0.109,0.039,0.215,0.061,0.313,0.063l-0.008,0.223
					c-0.121-0.004-0.246-0.029-0.379-0.074c-0.129-0.045-0.262-0.111-0.395-0.195c-0.127-0.08-0.254-0.176-0.387-0.293
					c-0.127-0.109-0.256-0.238-0.393-0.387c-0.145-0.16-0.287-0.336-0.438-0.535c-0.156-0.205-0.303-0.416-0.439-0.629
					c-0.125-0.189-0.248-0.395-0.377-0.625c-0.141-0.246-0.275-0.504-0.404-0.766L155.402,65.762z"/>
			</g>
		</g>
		<g>
			<g>
				<path d="M251.666,107.553c0.057,1.1,0.105,2.201,0.154,3.301c0.135,3.061,0.275,6.225,0.604,9.328l-0.221,0.023
					c-0.33-3.109-0.469-6.277-0.605-9.342c-0.049-1.1-0.096-2.199-0.154-3.299L251.666,107.553z"/>
			</g>
		</g>
	</g>
</g>
</svg>
