<?xml version="1.0" encoding="utf-8"?>
<!-- Generator: Adobe Illustrator 16.0.0, SVG Export Plug-In . SVG Version: 6.00 Build 0)  -->
<!DOCTYPE svg PUBLIC "-//W3C//DTD SVG 1.1//EN" "http://www.w3.org/Graphics/SVG/1.1/DTD/svg11.dtd">
<svg version="1.1" id="Layer_1" xmlns="http://www.w3.org/2000/svg" xmlns:xlink="http://www.w3.org/1999/xlink" x="0px" y="0px"
 viewBox="96.5 -4 100 100" enable-background="new 96.5 -4 100 100" xml:space="preserve">
<path fill="#212121" d="M145.697,71.188c-0.025,7.789-0.057,15.365-0.082,22.598c-6.226-6.043-12.326-12.295-18.803-18.123
	c-3.502-3.156-4.602-6.576-4.482-11.207c0.344-13.41,0.201-26.836,0.247-40.254c0.007-1.102,0.011-2.202,0.017-3.642
	c3.949,0.013,7.643-0.016,11.334,0.057c5.584,0.106,11.258-0.317,16.73,0.544c13.187,2.082,21.68,13.38,20.833,26.84
	c-0.774,12.322-11.136,22.285-23.956,23.035C147.075,71.064,146.613,71.111,145.697,71.188z M125.826,25.241
	c6.085,5.776,12.136,11.584,18.272,17.302c1.358,1.266,1.78,2.613,1.753,4.414c-0.115,6.787-0.085,13.572-0.111,20.52
	c10.916,0.738,20.866-7.963,22.323-19.092c1.435-10.944-6.466-22.321-17.438-23.705c-7.809-0.985-16.898-0.483-24.809-0.628"/>
<circle fill="none" cx="146.5" cy="46" r="23.707"/>
<rect x="96.5" y="-4" fill="none" width="100" height="100"/>
</svg>
