<?xml version="1.0" encoding="utf-8"?>
<!-- Generator: Adobe Illustrator 16.0.0, SVG Export Plug-In . SVG Version: 6.00 Build 0)  -->
<!DOCTYPE svg PUBLIC "-//W3C//DTD SVG 1.1//EN" "http://www.w3.org/Graphics/SVG/1.1/DTD/svg11.dtd">
<svg version="1.1" id="Layer_1" xmlns="http://www.w3.org/2000/svg" xmlns:xlink="http://www.w3.org/1999/xlink" x="0px" y="0px"
	 width="100%" height="1080" viewBox="280 100 840 1200" enable-background="new 280 100 840 1200" xml:space="preserve">
<g id="OBJ">
	<g>
		<rect x="280" y="100" fill="#FFFFFF" width="840" height="1200"/>
		<g>
			<polygon fill="#00FFB5" points="1119.1,939.1 1119.1,1300 280,1300 280,100 656.6,476.6 743.4,563.4 			"/>
			<polygon points="1120,939.1 759.1,1300 1120,1300 			"/>
			<polygon fill="#FFFFFF" points="383.199,741.1 360.5,718.4 360.5,763.801 			"/>
			<g>
				<rect x="362.8" y="942.7" width="446.899" height="1.2"/>
			</g>
			<g>
				<rect x="362.8" y="1080.9" width="446.899" height="1.2"/>
			</g>
			<circle cx="449.8" cy="585" r="95.6"/>
		</g>
	</g>
</g>
<g id="TXT">
	<text transform="matrix(1 0 0 1 353.8528 326.8005)" font-family="'ArialMT'" font-size="162.2033">Headline.</text>
	<text transform="matrix(1 0 0 1 677.8669 366.9988)" font-family="'ArialMT'" font-size="31.2346">Place </text>
	<text transform="matrix(1 0 0 1 758.5667 366.9988)" font-family="'ArialMT'" font-size="31.2346">Y</text>
	<text transform="matrix(1 0 0 1 776.2668 366.9988)" font-family="'ArialMT'" font-size="31.2346">our</text>
	<text transform="matrix(1 0 0 1 820.967 366.9988)" font-family="'ArialMT'" font-size="31.2346"> </text>
	<text transform="matrix(1 0 0 1 827.8674 366.9988)" font-family="'ArialMT'" font-size="31.2346">T</text>
	<text transform="matrix(1 0 0 1 844.7668 366.9988)" font-family="'ArialMT'" font-size="31.2346">agline He</text>
	<text transform="matrix(1 0 0 1 969.2668 366.9988)" font-family="'ArialMT'" font-size="31.2346">r</text>
	<text transform="matrix(1 0 0 1 979.467 366.9988)" font-family="'ArialMT'" font-size="31.2346">e</text>
	<text transform="matrix(1 0 0 1 364.2664 177.4001)" font-family="'ArialMT'" font-size="20.3155">V</text>
	<text transform="matrix(1 0 0 1 375.9661 177.4001)" font-family="'ArialMT'" font-size="20.3155">ol. 23 Issue 66 2019</text>
	<text transform="matrix(1 0 0 1 362.197 834.0779)" font-family="'ArialMT'" font-size="69.7362">Minimalism</text>
	<text transform="matrix(1 0 0 1 362.197 899.4773)" font-family="'ArialMT'" font-size="69.7362">Issue</text>
	<text transform="matrix(1 0 0 1 362.197 1003.4568)" font-family="'ArialMT'" font-size="42.5689">Less is </text>
	<text transform="matrix(1 0 0 1 498.2971 1003.4568)" fill="#FFFFFF" font-family="'ArialMT'" font-size="42.5689">Mo</text>
	<text transform="matrix(1 0 0 1 559.697 1003.4568)" fill="#FFFFFF" font-family="'ArialMT'" font-size="42.5689">r</text>
	<text transform="matrix(1 0 0 1 574.7971 1003.4568)" fill="#FFFFFF" font-family="'ArialMT'" font-size="42.5689">e</text>
	<text transform="matrix(1 0 0 1 597.7971 1003.4568)" font-family="'ArialMT'" font-size="42.5689"> </text>
	<text transform="matrix(1 0 0 1 608.3967 1003.4568)" font-family="'ArialMT'" font-size="42.5689">with</text>
	<text transform="matrix(1 0 0 1 362.197 1131.7927)" fill="#FFFFFF" font-family="'ArialMT'" font-size="29.9254">John Doe</text>
	<rect x="362.199" y="1150.1" fill="none" width="200.9" height="103.399"/>
	<text transform="matrix(1 0 0 1 362.197 1163.6423)" font-family="'ArialMT'" font-size="18.0511">“Neque por</text>
	<text transform="matrix(1 0 0 1 447.4968 1163.6423)" font-family="'ArialMT'" font-size="18.0511">r</text>
	<text transform="matrix(1 0 0 1 453.3967 1163.6423)" font-family="'ArialMT'" font-size="18.0511">o quisquam </text>
	<text transform="matrix(1 0 0 1 362.197 1191.4431)" font-family="'ArialMT'" font-size="18.0511">est qui dolo</text>
	<text transform="matrix(1 0 0 1 451.5969 1191.4431)" font-family="'ArialMT'" font-size="18.0511">r</text>
	<text transform="matrix(1 0 0 1 457.3967 1191.4431)" font-family="'ArialMT'" font-size="18.0511">em ipsum </text>
	<text transform="matrix(1 0 0 1 362.197 1219.2429)" font-family="'ArialMT'" font-size="18.0511">quia dolor sit amet, </text>
	<text transform="matrix(1 0 0 1 362.197 1247.0427)" font-family="'ArialMT'" font-size="18.0511">consectetu</text>
	<text transform="matrix(1 0 0 1 448.7971 1247.0427)" font-family="'ArialMT'" font-size="18.0511">r</text>
	<text transform="matrix(1 0 0 1 453.7971 1247.0427)" font-family="'ArialMT'" font-size="18.0511">, adipisci </text>
	<text transform="matrix(1 0 0 1 524.3967 1247.0427)" font-family="'ArialMT'" font-size="18.0511">v</text>
	<text transform="matrix(1 0 0 1 532.8967 1247.0427)" font-family="'ArialMT'" font-size="18.0511">elit</text>
	<text transform="matrix(1 0 0 1 555.0969 1247.0427)" font-family="'ArialMT'" font-size="18.0511">.</text>
	<text transform="matrix(1 0 0 1 557.4968 1247.0427)" font-family="'ArialMT'" font-size="18.0511">”</text>
	<text transform="matrix(1 0 0 1 596.1003 1131.7927)" fill="#FFFFFF" font-family="'ArialMT'" font-size="29.9254">Jane Smith</text>
	<text transform="matrix(1 0 0 1 362.7654 1049.9392)" font-family="'ArialMT'" font-size="42.5689">Michael Smith</text>
	<rect x="596.1" y="1150.1" fill="none" width="200.9" height="103.399"/>
	<text transform="matrix(1 0 0 1 596.1003 1163.6423)" font-family="'ArialMT'" font-size="18.0511">“Quia dolor sit amet, </text>
	<text transform="matrix(1 0 0 1 596.1003 1191.4431)" font-family="'ArialMT'" font-size="18.0511">consectetu</text>
	<text transform="matrix(1 0 0 1 682.7004 1191.4431)" font-family="'ArialMT'" font-size="18.0511">r</text>
	<text transform="matrix(1 0 0 1 687.7004 1191.4431)" font-family="'ArialMT'" font-size="18.0511">, adipisci </text>
	<text transform="matrix(1 0 0 1 758.3 1191.4431)" font-family="'ArialMT'" font-size="18.0511">v</text>
	<text transform="matrix(1 0 0 1 766.8 1191.4431)" font-family="'ArialMT'" font-size="18.0511">elit</text>
	<text transform="matrix(1 0 0 1 789.0002 1191.4431)" font-family="'ArialMT'" font-size="18.0511">.</text>
	<text transform="matrix(1 0 0 1 791.4006 1191.4431)" font-family="'ArialMT'" font-size="18.0511">”</text>
	<text transform="matrix(1 0 0 1 401.0813 626.3206)" fill="#FFFFFF" font-family="'ArialMT'" font-size="28.3943">Content</text>
	<text transform="matrix(1 0 0 1 387.3855 584.6365)" fill="#FFFFFF" font-family="'ArialMT'" font-size="58.2221">NEW</text>
	<text transform="matrix(1 0 0 1 986.2073 1131.7927)" fill="#FFFFFF" font-family="'ArialMT'" font-size="28.3943">Bonus</text>
	<text transform="matrix(1 0 0 1 995.8831 1232.5916)" fill="#FFFFFF" font-family="'ArialMT'" font-size="28.3943">Video</text>
	<text transform="matrix(1 0 0 1 951.0471 1190.9099)" fill="#FFFFFF" font-family="'ArialMT'" font-size="58.2221">D</text>
	<text transform="matrix(1 0 0 1 988.2473 1190.9099)" fill="#FFFFFF" font-family="'ArialMT'" font-size="58.2221">VD</text>
</g>
</svg>
