<?xml version="1.0" encoding="utf-8"?>
<!-- Generator: Adobe Illustrator 16.0.0, SVG Export Plug-In . SVG Version: 6.00 Build 0)  -->
<!DOCTYPE svg PUBLIC "-//W3C//DTD SVG 1.1//EN" "http://www.w3.org/Graphics/SVG/1.1/DTD/svg11.dtd">
<svg version="1.1" id="Layer_1" xmlns="http://www.w3.org/2000/svg" xmlns:xlink="http://www.w3.org/1999/xlink" x="0px" y="0px"
	  viewBox="0 0 100 100" enable-background="new 0 0 100 100" xml:space="preserve">
<path fill-rule="evenodd" clip-rule="evenodd"  d="M80.587,99.999c-20.438,0-40.876,0-61.314,0
	c-0.033-0.244-0.213-0.268-0.41-0.276c-1.355-0.062-2.671-0.376-3.928-0.84C8.222,96.401,4.083,91.674,2.655,84.627
	c-0.037-0.188-0.034-0.376-0.281-0.41c0-22.858,0-45.716,0-68.574c0.247-0.033,0.252-0.219,0.281-0.411
	c0.159-1.081,0.43-2.133,0.835-3.148C6.071,5.61,10.762,1.656,17.607,0.281c0.189-0.037,0.377-0.034,0.41-0.281
	c21.322,0,42.644,0,63.964,0c0.044,0.293,0.277,0.25,0.48,0.283c7.424,1.225,13.695,7.527,14.878,14.95
	c0.033,0.215-0.051,0.492,0.285,0.549c0,22.766,0,45.53,0,68.294c-0.521,0.202-0.271,0.696-0.349,1.036
	c-0.963,4.25-3.062,7.804-6.441,10.567c-2.574,2.102-5.505,3.411-8.799,3.936C81.562,99.691,80.949,99.441,80.587,99.999z
	 M82.397,96.651c0.011,0.042,0.019,0.086,0.027,0.128c0.023-0.012,0.046-0.026,0.068-0.038c-0.03-0.032-0.059-0.063-0.087-0.096
	c-0.032-0.158-0.046-0.322-0.097-0.474c-1.775-5.242-3.558-10.479-5.331-15.721c-2.473-7.312-4.938-14.627-7.415-21.938
	c-0.122-0.359-0.093-0.605,0.217-0.844c0.959-0.733,1.905-1.478,2.853-2.228c2.8-2.216,5.599-4.437,8.398-6.655
	c3.49-2.766,6.982-5.53,10.472-8.298c1.169-0.928,2.335-1.864,3.536-2.823c-0.313-0.157-0.569-0.092-0.814-0.092
	c-10.382-0.004-20.762-0.006-31.141,0.007c-0.517,0-0.775-0.121-0.951-0.647c-1.683-5.025-3.402-10.039-5.097-15.062
	c-1.992-5.904-3.967-11.813-5.958-17.719c-0.124-0.367-0.179-0.768-0.459-1.131c-0.068,0.127-0.135,0.217-0.168,0.32
	c-2.177,6.842-4.348,13.686-6.524,20.528c-1.36,4.273-2.744,8.54-4.076,12.823c-0.208,0.672-0.497,0.896-1.206,0.895
	c-11.009-0.023-22.018-0.017-33.026-0.013c-0.243,0-0.502-0.072-0.807,0.104c0.338,0.285,0.634,0.561,0.957,0.805
	c4.603,3.492,9.207,6.983,13.816,10.469c4.22,3.191,8.441,6.38,12.674,9.552c0.37,0.276,0.434,0.522,0.288,0.938
	c-0.308,0.876-0.565,1.77-0.85,2.653c-1.525,4.76-3.048,9.518-4.578,14.274c-1.856,5.775-3.724,11.547-5.58,17.32
	c-0.3,0.937-0.575,1.88-0.861,2.82c1.459-0.992,2.808-2.046,4.145-3.114c4.022-3.216,8.037-6.441,12.063-9.653
	c4.515-3.602,9.041-7.187,13.553-10.792c0.445-0.356,0.79-0.356,1.226,0.004c0.877,0.722,1.783,1.409,2.682,2.107
	c3.939,3.06,7.878,6.117,11.818,9.175c4.986,3.87,9.969,7.741,14.967,11.595C81.524,96.136,81.838,96.594,82.397,96.651z"/>
</svg>
