<?xml version="1.0" encoding="utf-8"?>
<!-- Generator: Adobe Illustrator 16.0.0, SVG Export Plug-In . SVG Version: 6.00 Build 0)  -->
<!DOCTYPE svg PUBLIC "-//W3C//DTD SVG 1.1//EN" "http://www.w3.org/Graphics/SVG/1.1/DTD/svg11.dtd">
<svg version="1.1" id="Layer_1" xmlns="http://www.w3.org/2000/svg" xmlns:xlink="http://www.w3.org/1999/xlink" x="0px" y="0px"
	  viewBox="0 0 200 200" enable-background="new 0 0 200 200" xml:space="preserve">
<g>
	<path  d="M32.158,1.915C37.417-0.107,43.787,0.5,48.541,3.835c4.749,3.236,7.684,8.999,7.481,14.762
		c0,13.144,0,26.389,0,39.531c0,5.46-2.732,10.817-7.179,13.851c-5.865,4.247-14.357,4.448-20.222,0.304
		c-5.057-3.236-7.785-9.303-7.684-15.267c0-13.042-0.101-26.085,0-39.229C21.039,10.913,25.691,4.342,32.158,1.915L32.158,1.915z"/>
	<path  d="M156.217,1.51c7.275-2.426,15.869,0.606,19.915,7.078c2.224,3.235,3.031,7.178,3.031,11.021
		c-0.101,13.042,0,26.084-0.101,39.228c-0.303,8.694-7.987,16.378-16.782,16.378c-7.887,0.707-15.57-4.954-17.591-12.537
		c-0.91-2.832-0.708-5.864-0.708-8.695c0-12.132,0-24.265,0-36.397C144.083,10.408,149.24,3.533,156.217,1.51L156.217,1.51z"/>
	<path  d="M76.746,82.798c13.953-0.606,28.008,0,41.956-0.304c5.967-0.404,12.135,2.528,15.47,7.483
		c4.955,6.773,3.944,17.086-2.224,22.748c-3.436,3.436-8.392,4.955-13.246,4.955c-12.837,0-25.679,0.1-38.516-0.102
		c-5.663,0-11.225-2.832-14.357-7.584c-4.854-6.773-3.844-16.985,2.223-22.647C70.481,85.123,73.513,83.505,76.746,82.798
		L76.746,82.798z"/>
	<path  d="M33.274,125.463c10.21-3.537,22.244,4.451,22.749,15.266c0.101,13.951,0,27.803,0,41.756
		c-0.105,7.482-5.663,14.455-12.841,16.178c-6.977,2.02-14.964-0.713-19.01-6.674c-2.425-3.34-3.334-7.584-3.334-11.629
		c0.101-12.742,0-25.578,0.101-38.316C20.938,134.561,26.095,127.588,33.274,125.463L33.274,125.463z"/>
	<path  d="M156.516,125.463c10.113-3.438,21.738,4.35,22.445,14.963c0.304,13.648,0.102,27.297,0.102,41.045
		c0.202,6.977-4.143,13.852-10.614,16.479c-6.572,2.834-14.862,1.115-19.713-4.143c-3.137-3.334-4.854-7.785-4.754-12.336
		c0-13.242,0-26.387,0-39.631C143.981,134.459,149.337,127.387,156.516,125.463L156.516,125.463z"/>
</g>
</svg>
