<?xml version="1.0" encoding="utf-8"?>
<!-- Generator: Adobe Illustrator 16.0.0, SVG Export Plug-In . SVG Version: 6.00 Build 0)  -->
<!DOCTYPE svg PUBLIC "-//W3C//DTD SVG 1.1//EN" "http://www.w3.org/Graphics/SVG/1.1/DTD/svg11.dtd">
<svg version="1.1" id="Layer_1" xmlns="http://www.w3.org/2000/svg" xmlns:xlink="http://www.w3.org/1999/xlink" x="0px" y="0px"
	  viewBox="0 0 1366 768" enable-background="new 0 0 1366 768" xml:space="preserve">
<g>
	<path  d="M274.957,201.194c-152.458-0.525-186,50.047-186,168.27c0,7.771,0.148,15.246,0.457,22.45v214.568h81.392
		v-79.859c26.168,8.915,60.131,13.221,103.972,13.221c153.352,0,186.906-48.978,186.362-170.379
		C460.635,251.785,428.131,201.728,274.957,201.194z M274.904,464.873c-85.154,0-103.554-29.088-103.554-94.943
		c0-65.881,18.697-94.055,103.65-93.77c85.348,0.299,103.46,28.184,103.751,93.77C379.047,437.574,360.348,464.873,274.904,464.873z
		"/>
	<path  d="M681.056,201.396c-152.451-0.523-186.007,50.056-186.007,168.269c0,118.21,33.024,170.399,185.834,170.399
		c153.35,0,186.9-48.995,186.359-170.399C866.736,251.981,834.232,201.936,681.056,201.396z M681.006,465.094
		c-85.153,0-103.565-29.087-103.565-94.957c0-65.872,18.708-94.063,103.654-93.767c85.356,0.297,103.469,28.186,103.757,93.767
		C785.151,437.784,766.452,465.094,681.006,465.094z"/>
	<path  d="M1085.479,465.094c-85.15,0-103.557-29.087-103.557-94.957c0-65.872,18.693-94.063,103.649-93.767
		c65.375,0.221,91.299,16.636,99.99,53.771h84.432c-8.34-89.473-49.696-128.27-184.463-128.744
		c-152.453-0.523-185.998,50.056-185.998,168.269c0,118.21,33.01,170.399,185.832,170.399c133.04,0,175.903-36.884,184.583-125.943
		l-84.869,0.018C1175.79,449.912,1149.188,465.094,1085.479,465.094z"/>
</g>
</svg>
