<?xml version="1.0" encoding="utf-8"?>
<!-- Generator: Adobe Illustrator 16.0.0, SVG Export Plug-In . SVG Version: 6.00 Build 0)  -->
<!DOCTYPE svg PUBLIC "-//W3C//DTD SVG 1.1//EN" "http://www.w3.org/Graphics/SVG/1.1/DTD/svg11.dtd">
<svg version="1.1" id="Layer_1" xmlns="http://www.w3.org/2000/svg" xmlns:xlink="http://www.w3.org/1999/xlink" x="0px" y="0px"
	  viewBox="0 0 472.063 195.02" enable-background="new 0 0 472.063 195.02"
	 xml:space="preserve">
<path  d="M439.392,17.54c-0.291-3.178-3.033-4.625-5.509-4.625l-0.073,0.001l-9.146,0.839
	c-89.921,8.242-149.325,13.687-196.134,26.675c-47.842,13.275-80.001,33.939-110.967,71.305l-0.094,0.089l-0.232-0.016
	c-0.077-0.006-8.69-0.621-18.614-0.621c-6.679,0-12.436,0.273-17.177,0.819c-0.989,0.135-6.168,0.877-11.056,2.263
	c-1.334,0.376-2.587,0.787-3.636,1.192c-0.281,0.047-1.108,0.138-2.233,0.138c-0.313,0-0.644-0.007-0.989-0.023l-16.462-0.75
	l2.908,8.465c0.357,1.111,0.248,2.184-0.324,3.189c-0.106,0.187-10.746,19.279-11.621,23.714l-0.199,1.002l0.685,1.848l-0.041,0.166
	c-1.97,5.188-5.346,15.34-5.489,15.772l-0.5,1.505l1.351,0.83c19.347,11.892,19.347,11.892,19.917,11.892h1.145l0.58-0.987
	c7.738-13.173,19.791-19.853,35.822-19.853c25.586,0,52.645,17.058,52.915,17.23l1.779,1.134l1.038-1.837
	c59.769-105.904,137.062-133.73,287.68-156.025C436.795,22.652,439.717,21.068,439.392,17.54z"/>
</svg>
